<?xml version="1.0" encoding="utf-8"?>
<svg xmlns="http://www.w3.org/2000/svg" xmlns:xlink="http://www.w3.org/1999/xlink" width="600" height="400" viewBox="0 0 2400 1600">
<defs>
  <clipPath id="clip330">
    <rect x="0" y="0" width="2400" height="1600"/>
  </clipPath>
</defs>
<path clip-path="url(#clip330)" d="M0 1600 L2400 1600 L2400 0 L0 0  Z" fill="#ffffff" fill-rule="evenodd" fill-opacity="1"/>
<defs>
  <clipPath id="clip331">
    <rect x="480" y="0" width="1681" height="1600"/>
  </clipPath>
</defs>
<path clip-path="url(#clip330)" d="M186.274 1486.45 L2352.76 1486.45 L2352.76 47.2441 L186.274 47.2441  Z" fill="#ffffff" fill-rule="evenodd" fill-opacity="1"/>
<defs>
  <clipPath id="clip332">
    <rect x="186" y="47" width="2167" height="1440"/>
  </clipPath>
</defs>
<polyline clip-path="url(#clip332)" style="stroke:#000000; stroke-linecap:round; stroke-linejoin:round; stroke-width:2; stroke-opacity:0.1; fill:none" points="284.75,1486.45 284.75,47.2441 "/>
<polyline clip-path="url(#clip332)" style="stroke:#000000; stroke-linecap:round; stroke-linejoin:round; stroke-width:2; stroke-opacity:0.1; fill:none" points="777.133,1486.45 777.133,47.2441 "/>
<polyline clip-path="url(#clip332)" style="stroke:#000000; stroke-linecap:round; stroke-linejoin:round; stroke-width:2; stroke-opacity:0.1; fill:none" points="1269.51,1486.45 1269.51,47.2441 "/>
<polyline clip-path="url(#clip332)" style="stroke:#000000; stroke-linecap:round; stroke-linejoin:round; stroke-width:2; stroke-opacity:0.1; fill:none" points="1761.9,1486.45 1761.9,47.2441 "/>
<polyline clip-path="url(#clip332)" style="stroke:#000000; stroke-linecap:round; stroke-linejoin:round; stroke-width:2; stroke-opacity:0.1; fill:none" points="2254.28,1486.45 2254.28,47.2441 "/>
<polyline clip-path="url(#clip332)" style="stroke:#000000; stroke-linecap:round; stroke-linejoin:round; stroke-width:2; stroke-opacity:0.1; fill:none" points="186.274,1486.45 2352.76,1486.45 "/>
<polyline clip-path="url(#clip332)" style="stroke:#000000; stroke-linecap:round; stroke-linejoin:round; stroke-width:2; stroke-opacity:0.1; fill:none" points="186.274,1006.71 2352.76,1006.71 "/>
<polyline clip-path="url(#clip332)" style="stroke:#000000; stroke-linecap:round; stroke-linejoin:round; stroke-width:2; stroke-opacity:0.1; fill:none" points="186.274,526.979 2352.76,526.979 "/>
<polyline clip-path="url(#clip332)" style="stroke:#000000; stroke-linecap:round; stroke-linejoin:round; stroke-width:2; stroke-opacity:0.1; fill:none" points="186.274,47.2441 2352.76,47.2441 "/>
<polyline clip-path="url(#clip330)" style="stroke:#000000; stroke-linecap:round; stroke-linejoin:round; stroke-width:4; stroke-opacity:1; fill:none" points="186.274,1486.45 2352.76,1486.45 "/>
<polyline clip-path="url(#clip330)" style="stroke:#000000; stroke-linecap:round; stroke-linejoin:round; stroke-width:4; stroke-opacity:1; fill:none" points="284.75,1486.45 284.75,1467.55 "/>
<polyline clip-path="url(#clip330)" style="stroke:#000000; stroke-linecap:round; stroke-linejoin:round; stroke-width:4; stroke-opacity:1; fill:none" points="777.133,1486.45 777.133,1467.55 "/>
<polyline clip-path="url(#clip330)" style="stroke:#000000; stroke-linecap:round; stroke-linejoin:round; stroke-width:4; stroke-opacity:1; fill:none" points="1269.51,1486.45 1269.51,1467.55 "/>
<polyline clip-path="url(#clip330)" style="stroke:#000000; stroke-linecap:round; stroke-linejoin:round; stroke-width:4; stroke-opacity:1; fill:none" points="1761.9,1486.45 1761.9,1467.55 "/>
<polyline clip-path="url(#clip330)" style="stroke:#000000; stroke-linecap:round; stroke-linejoin:round; stroke-width:4; stroke-opacity:1; fill:none" points="2254.28,1486.45 2254.28,1467.55 "/>
<path clip-path="url(#clip330)" d="M258.605 1514.29 L280.827 1514.29 L280.827 1516.28 L268.281 1548.85 L263.396 1548.85 L275.202 1518.22 L258.605 1518.22 L258.605 1514.29 Z" fill="#000000" fill-rule="nonzero" fill-opacity="1" /><path clip-path="url(#clip330)" d="M289.993 1514.29 L308.35 1514.29 L308.35 1518.22 L294.276 1518.22 L294.276 1526.7 Q295.294 1526.35 296.313 1526.19 Q297.331 1526 298.35 1526 Q304.137 1526 307.517 1529.17 Q310.896 1532.34 310.896 1537.76 Q310.896 1543.34 307.424 1546.44 Q303.952 1549.52 297.632 1549.52 Q295.456 1549.52 293.188 1549.15 Q290.943 1548.78 288.535 1548.04 L288.535 1543.34 Q290.618 1544.47 292.841 1545.03 Q295.063 1545.58 297.54 1545.58 Q301.544 1545.58 303.882 1543.48 Q306.22 1541.37 306.22 1537.76 Q306.22 1534.15 303.882 1532.04 Q301.544 1529.94 297.54 1529.94 Q295.665 1529.94 293.79 1530.35 Q291.938 1530.77 289.993 1531.65 L289.993 1514.29 Z" fill="#000000" fill-rule="nonzero" fill-opacity="1" /><path clip-path="url(#clip330)" d="M736.739 1544.91 L744.378 1544.91 L744.378 1518.55 L736.068 1520.21 L736.068 1515.95 L744.332 1514.29 L749.008 1514.29 L749.008 1544.91 L756.647 1544.91 L756.647 1548.85 L736.739 1548.85 L736.739 1544.91 Z" fill="#000000" fill-rule="nonzero" fill-opacity="1" /><path clip-path="url(#clip330)" d="M776.091 1517.37 Q772.48 1517.37 770.651 1520.93 Q768.846 1524.47 768.846 1531.6 Q768.846 1538.71 770.651 1542.27 Q772.48 1545.82 776.091 1545.82 Q779.725 1545.82 781.531 1542.27 Q783.36 1538.71 783.36 1531.6 Q783.36 1524.47 781.531 1520.93 Q779.725 1517.37 776.091 1517.37 M776.091 1513.66 Q781.901 1513.66 784.957 1518.27 Q788.035 1522.85 788.035 1531.6 Q788.035 1540.33 784.957 1544.94 Q781.901 1549.52 776.091 1549.52 Q770.281 1549.52 767.202 1544.94 Q764.147 1540.33 764.147 1531.6 Q764.147 1522.85 767.202 1518.27 Q770.281 1513.66 776.091 1513.66 Z" fill="#000000" fill-rule="nonzero" fill-opacity="1" /><path clip-path="url(#clip330)" d="M806.253 1517.37 Q802.642 1517.37 800.813 1520.93 Q799.008 1524.47 799.008 1531.6 Q799.008 1538.71 800.813 1542.27 Q802.642 1545.82 806.253 1545.82 Q809.887 1545.82 811.693 1542.27 Q813.521 1538.71 813.521 1531.6 Q813.521 1524.47 811.693 1520.93 Q809.887 1517.37 806.253 1517.37 M806.253 1513.66 Q812.063 1513.66 815.119 1518.27 Q818.197 1522.85 818.197 1531.6 Q818.197 1540.33 815.119 1544.94 Q812.063 1549.52 806.253 1549.52 Q800.443 1549.52 797.364 1544.94 Q794.309 1540.33 794.309 1531.6 Q794.309 1522.85 797.364 1518.27 Q800.443 1513.66 806.253 1513.66 Z" fill="#000000" fill-rule="nonzero" fill-opacity="1" /><path clip-path="url(#clip330)" d="M1229.62 1544.91 L1237.26 1544.91 L1237.26 1518.55 L1228.95 1520.21 L1228.95 1515.95 L1237.21 1514.29 L1241.89 1514.29 L1241.89 1544.91 L1249.53 1544.91 L1249.53 1548.85 L1229.62 1548.85 L1229.62 1544.91 Z" fill="#000000" fill-rule="nonzero" fill-opacity="1" /><path clip-path="url(#clip330)" d="M1263 1544.91 L1279.32 1544.91 L1279.32 1548.85 L1257.37 1548.85 L1257.37 1544.91 Q1260.04 1542.16 1264.62 1537.53 Q1269.23 1532.88 1270.41 1531.53 Q1272.65 1529.01 1273.53 1527.27 Q1274.43 1525.51 1274.43 1523.82 Q1274.43 1521.07 1272.49 1519.33 Q1270.57 1517.6 1267.47 1517.6 Q1265.27 1517.6 1262.81 1518.36 Q1260.38 1519.13 1257.61 1520.68 L1257.61 1515.95 Q1260.43 1514.82 1262.88 1514.24 Q1265.34 1513.66 1267.37 1513.66 Q1272.74 1513.66 1275.94 1516.35 Q1279.13 1519.03 1279.13 1523.52 Q1279.13 1525.65 1278.32 1527.57 Q1277.54 1529.47 1275.43 1532.07 Q1274.85 1532.74 1271.75 1535.95 Q1268.65 1539.15 1263 1544.91 Z" fill="#000000" fill-rule="nonzero" fill-opacity="1" /><path clip-path="url(#clip330)" d="M1289.18 1514.29 L1307.54 1514.29 L1307.54 1518.22 L1293.46 1518.22 L1293.46 1526.7 Q1294.48 1526.35 1295.5 1526.19 Q1296.52 1526 1297.54 1526 Q1303.32 1526 1306.7 1529.17 Q1310.08 1532.34 1310.08 1537.76 Q1310.08 1543.34 1306.61 1546.44 Q1303.14 1549.52 1296.82 1549.52 Q1294.64 1549.52 1292.37 1549.15 Q1290.13 1548.78 1287.72 1548.04 L1287.72 1543.34 Q1289.8 1544.47 1292.03 1545.03 Q1294.25 1545.58 1296.73 1545.58 Q1300.73 1545.58 1303.07 1543.48 Q1305.41 1541.37 1305.41 1537.76 Q1305.41 1534.15 1303.07 1532.04 Q1300.73 1529.94 1296.73 1529.94 Q1294.85 1529.94 1292.98 1530.35 Q1291.12 1530.77 1289.18 1531.65 L1289.18 1514.29 Z" fill="#000000" fill-rule="nonzero" fill-opacity="1" /><path clip-path="url(#clip330)" d="M1721.5 1544.91 L1729.14 1544.91 L1729.14 1518.55 L1720.83 1520.21 L1720.83 1515.95 L1729.1 1514.29 L1733.77 1514.29 L1733.77 1544.91 L1741.41 1544.91 L1741.41 1548.85 L1721.5 1548.85 L1721.5 1544.91 Z" fill="#000000" fill-rule="nonzero" fill-opacity="1" /><path clip-path="url(#clip330)" d="M1750.9 1514.29 L1769.26 1514.29 L1769.26 1518.22 L1755.18 1518.22 L1755.18 1526.7 Q1756.2 1526.35 1757.22 1526.19 Q1758.24 1526 1759.26 1526 Q1765.05 1526 1768.42 1529.17 Q1771.8 1532.34 1771.8 1537.76 Q1771.8 1543.34 1768.33 1546.44 Q1764.86 1549.52 1758.54 1549.52 Q1756.36 1549.52 1754.1 1549.15 Q1751.85 1548.78 1749.44 1548.04 L1749.44 1543.34 Q1751.53 1544.47 1753.75 1545.03 Q1755.97 1545.58 1758.45 1545.58 Q1762.45 1545.58 1764.79 1543.48 Q1767.13 1541.37 1767.13 1537.76 Q1767.13 1534.15 1764.79 1532.04 Q1762.45 1529.94 1758.45 1529.94 Q1756.57 1529.94 1754.7 1530.35 Q1752.85 1530.77 1750.9 1531.65 L1750.9 1514.29 Z" fill="#000000" fill-rule="nonzero" fill-opacity="1" /><path clip-path="url(#clip330)" d="M1791.02 1517.37 Q1787.41 1517.37 1785.58 1520.93 Q1783.77 1524.47 1783.77 1531.6 Q1783.77 1538.71 1785.58 1542.27 Q1787.41 1545.82 1791.02 1545.82 Q1794.65 1545.82 1796.46 1542.27 Q1798.29 1538.71 1798.29 1531.6 Q1798.29 1524.47 1796.46 1520.93 Q1794.65 1517.37 1791.02 1517.37 M1791.02 1513.66 Q1796.83 1513.66 1799.88 1518.27 Q1802.96 1522.85 1802.96 1531.6 Q1802.96 1540.33 1799.88 1544.94 Q1796.83 1549.52 1791.02 1549.52 Q1785.21 1549.52 1782.13 1544.94 Q1779.07 1540.33 1779.07 1531.6 Q1779.07 1522.85 1782.13 1518.27 Q1785.21 1513.66 1791.02 1513.66 Z" fill="#000000" fill-rule="nonzero" fill-opacity="1" /><path clip-path="url(#clip330)" d="M2214.38 1544.91 L2222.02 1544.91 L2222.02 1518.55 L2213.71 1520.21 L2213.71 1515.95 L2221.98 1514.29 L2226.65 1514.29 L2226.65 1544.91 L2234.29 1544.91 L2234.29 1548.85 L2214.38 1548.85 L2214.38 1544.91 Z" fill="#000000" fill-rule="nonzero" fill-opacity="1" /><path clip-path="url(#clip330)" d="M2242.55 1514.29 L2264.78 1514.29 L2264.78 1516.28 L2252.23 1548.85 L2247.35 1548.85 L2259.15 1518.22 L2242.55 1518.22 L2242.55 1514.29 Z" fill="#000000" fill-rule="nonzero" fill-opacity="1" /><path clip-path="url(#clip330)" d="M2273.94 1514.29 L2292.3 1514.29 L2292.3 1518.22 L2278.23 1518.22 L2278.23 1526.7 Q2279.24 1526.35 2280.26 1526.19 Q2281.28 1526 2282.3 1526 Q2288.09 1526 2291.47 1529.17 Q2294.85 1532.34 2294.85 1537.76 Q2294.85 1543.34 2291.37 1546.44 Q2287.9 1549.52 2281.58 1549.52 Q2279.41 1549.52 2277.14 1549.15 Q2274.89 1548.78 2272.49 1548.04 L2272.49 1543.34 Q2274.57 1544.47 2276.79 1545.03 Q2279.01 1545.58 2281.49 1545.58 Q2285.49 1545.58 2287.83 1543.48 Q2290.17 1541.37 2290.17 1537.76 Q2290.17 1534.15 2287.83 1532.04 Q2285.49 1529.94 2281.49 1529.94 Q2279.61 1529.94 2277.74 1530.35 Q2275.89 1530.77 2273.94 1531.65 L2273.94 1514.29 Z" fill="#000000" fill-rule="nonzero" fill-opacity="1" /><polyline clip-path="url(#clip330)" style="stroke:#000000; stroke-linecap:round; stroke-linejoin:round; stroke-width:4; stroke-opacity:1; fill:none" points="186.274,1486.45 186.274,47.2441 "/>
<polyline clip-path="url(#clip330)" style="stroke:#000000; stroke-linecap:round; stroke-linejoin:round; stroke-width:4; stroke-opacity:1; fill:none" points="186.274,1486.45 205.172,1486.45 "/>
<polyline clip-path="url(#clip330)" style="stroke:#000000; stroke-linecap:round; stroke-linejoin:round; stroke-width:4; stroke-opacity:1; fill:none" points="186.274,1006.71 205.172,1006.71 "/>
<polyline clip-path="url(#clip330)" style="stroke:#000000; stroke-linecap:round; stroke-linejoin:round; stroke-width:4; stroke-opacity:1; fill:none" points="186.274,526.979 205.172,526.979 "/>
<polyline clip-path="url(#clip330)" style="stroke:#000000; stroke-linecap:round; stroke-linejoin:round; stroke-width:4; stroke-opacity:1; fill:none" points="186.274,47.2441 205.172,47.2441 "/>
<path clip-path="url(#clip330)" d="M62.9365 1472.25 Q59.3254 1472.25 57.4967 1475.81 Q55.6912 1479.35 55.6912 1486.48 Q55.6912 1493.59 57.4967 1497.15 Q59.3254 1500.7 62.9365 1500.7 Q66.5707 1500.7 68.3763 1497.15 Q70.205 1493.59 70.205 1486.48 Q70.205 1479.35 68.3763 1475.81 Q66.5707 1472.25 62.9365 1472.25 M62.9365 1468.54 Q68.7467 1468.54 71.8022 1473.15 Q74.8809 1477.73 74.8809 1486.48 Q74.8809 1495.21 71.8022 1499.82 Q68.7467 1504.4 62.9365 1504.4 Q57.1264 1504.4 54.0477 1499.82 Q50.9921 1495.21 50.9921 1486.48 Q50.9921 1477.73 54.0477 1473.15 Q57.1264 1468.54 62.9365 1468.54 Z" fill="#000000" fill-rule="nonzero" fill-opacity="1" /><path clip-path="url(#clip330)" d="M83.0984 1497.85 L87.9827 1497.85 L87.9827 1503.73 L83.0984 1503.73 L83.0984 1497.85 Z" fill="#000000" fill-rule="nonzero" fill-opacity="1" /><path clip-path="url(#clip330)" d="M108.168 1472.25 Q104.557 1472.25 102.728 1475.81 Q100.922 1479.35 100.922 1486.48 Q100.922 1493.59 102.728 1497.15 Q104.557 1500.7 108.168 1500.7 Q111.802 1500.7 113.608 1497.15 Q115.436 1493.59 115.436 1486.48 Q115.436 1479.35 113.608 1475.81 Q111.802 1472.25 108.168 1472.25 M108.168 1468.54 Q113.978 1468.54 117.033 1473.15 Q120.112 1477.73 120.112 1486.48 Q120.112 1495.21 117.033 1499.82 Q113.978 1504.4 108.168 1504.4 Q102.358 1504.4 99.2789 1499.82 Q96.2234 1495.21 96.2234 1486.48 Q96.2234 1477.73 99.2789 1473.15 Q102.358 1468.54 108.168 1468.54 Z" fill="#000000" fill-rule="nonzero" fill-opacity="1" /><path clip-path="url(#clip330)" d="M138.33 1472.25 Q134.719 1472.25 132.89 1475.81 Q131.084 1479.35 131.084 1486.48 Q131.084 1493.59 132.89 1497.15 Q134.719 1500.7 138.33 1500.7 Q141.964 1500.7 143.769 1497.15 Q145.598 1493.59 145.598 1486.48 Q145.598 1479.35 143.769 1475.81 Q141.964 1472.25 138.33 1472.25 M138.33 1468.54 Q144.14 1468.54 147.195 1473.15 Q150.274 1477.73 150.274 1486.48 Q150.274 1495.21 147.195 1499.82 Q144.14 1504.4 138.33 1504.4 Q132.519 1504.4 129.441 1499.82 Q126.385 1495.21 126.385 1486.48 Q126.385 1477.73 129.441 1473.15 Q132.519 1468.54 138.33 1468.54 Z" fill="#000000" fill-rule="nonzero" fill-opacity="1" /><path clip-path="url(#clip330)" d="M63.9319 992.512 Q60.3208 992.512 58.4921 996.077 Q56.6865 999.618 56.6865 1006.75 Q56.6865 1013.85 58.4921 1017.42 Q60.3208 1020.96 63.9319 1020.96 Q67.5661 1020.96 69.3717 1017.42 Q71.2004 1013.85 71.2004 1006.75 Q71.2004 999.618 69.3717 996.077 Q67.5661 992.512 63.9319 992.512 M63.9319 988.808 Q69.742 988.808 72.7976 993.415 Q75.8763 997.998 75.8763 1006.75 Q75.8763 1015.47 72.7976 1020.08 Q69.742 1024.66 63.9319 1024.66 Q58.1217 1024.66 55.043 1020.08 Q51.9875 1015.47 51.9875 1006.75 Q51.9875 997.998 55.043 993.415 Q58.1217 988.808 63.9319 988.808 Z" fill="#000000" fill-rule="nonzero" fill-opacity="1" /><path clip-path="url(#clip330)" d="M84.0938 1018.11 L88.978 1018.11 L88.978 1023.99 L84.0938 1023.99 L84.0938 1018.11 Z" fill="#000000" fill-rule="nonzero" fill-opacity="1" /><path clip-path="url(#clip330)" d="M109.163 992.512 Q105.552 992.512 103.723 996.077 Q101.918 999.618 101.918 1006.75 Q101.918 1013.85 103.723 1017.42 Q105.552 1020.96 109.163 1020.96 Q112.797 1020.96 114.603 1017.42 Q116.432 1013.85 116.432 1006.75 Q116.432 999.618 114.603 996.077 Q112.797 992.512 109.163 992.512 M109.163 988.808 Q114.973 988.808 118.029 993.415 Q121.107 997.998 121.107 1006.75 Q121.107 1015.47 118.029 1020.08 Q114.973 1024.66 109.163 1024.66 Q103.353 1024.66 100.274 1020.08 Q97.2187 1015.47 97.2187 1006.75 Q97.2187 997.998 100.274 993.415 Q103.353 988.808 109.163 988.808 Z" fill="#000000" fill-rule="nonzero" fill-opacity="1" /><path clip-path="url(#clip330)" d="M129.371 989.433 L147.728 989.433 L147.728 993.368 L133.654 993.368 L133.654 1001.84 Q134.672 1001.49 135.691 1001.33 Q136.709 1001.15 137.728 1001.15 Q143.515 1001.15 146.894 1004.32 Q150.274 1007.49 150.274 1012.91 Q150.274 1018.48 146.802 1021.59 Q143.33 1024.66 137.01 1024.66 Q134.834 1024.66 132.566 1024.29 Q130.32 1023.92 127.913 1023.18 L127.913 1018.48 Q129.996 1019.62 132.219 1020.17 Q134.441 1020.73 136.918 1020.73 Q140.922 1020.73 143.26 1018.62 Q145.598 1016.52 145.598 1012.91 Q145.598 1009.29 143.26 1007.19 Q140.922 1005.08 136.918 1005.08 Q135.043 1005.08 133.168 1005.5 Q131.316 1005.91 129.371 1006.79 L129.371 989.433 Z" fill="#000000" fill-rule="nonzero" fill-opacity="1" /><path clip-path="url(#clip330)" d="M62.9365 512.777 Q59.3254 512.777 57.4967 516.342 Q55.6912 519.884 55.6912 527.013 Q55.6912 534.12 57.4967 537.685 Q59.3254 541.226 62.9365 541.226 Q66.5707 541.226 68.3763 537.685 Q70.205 534.12 70.205 527.013 Q70.205 519.884 68.3763 516.342 Q66.5707 512.777 62.9365 512.777 M62.9365 509.074 Q68.7467 509.074 71.8022 513.68 Q74.8809 518.263 74.8809 527.013 Q74.8809 535.74 71.8022 540.347 Q68.7467 544.93 62.9365 544.93 Q57.1264 544.93 54.0477 540.347 Q50.9921 535.74 50.9921 527.013 Q50.9921 518.263 54.0477 513.68 Q57.1264 509.074 62.9365 509.074 Z" fill="#000000" fill-rule="nonzero" fill-opacity="1" /><path clip-path="url(#clip330)" d="M83.0984 538.379 L87.9827 538.379 L87.9827 544.259 L83.0984 544.259 L83.0984 538.379 Z" fill="#000000" fill-rule="nonzero" fill-opacity="1" /><path clip-path="url(#clip330)" d="M98.978 540.324 L106.617 540.324 L106.617 513.958 L98.3067 515.625 L98.3067 511.365 L106.571 509.699 L111.246 509.699 L111.246 540.324 L118.885 540.324 L118.885 544.259 L98.978 544.259 L98.978 540.324 Z" fill="#000000" fill-rule="nonzero" fill-opacity="1" /><path clip-path="url(#clip330)" d="M138.33 512.777 Q134.719 512.777 132.89 516.342 Q131.084 519.884 131.084 527.013 Q131.084 534.12 132.89 537.685 Q134.719 541.226 138.33 541.226 Q141.964 541.226 143.769 537.685 Q145.598 534.12 145.598 527.013 Q145.598 519.884 143.769 516.342 Q141.964 512.777 138.33 512.777 M138.33 509.074 Q144.14 509.074 147.195 513.68 Q150.274 518.263 150.274 527.013 Q150.274 535.74 147.195 540.347 Q144.14 544.93 138.33 544.93 Q132.519 544.93 129.441 540.347 Q126.385 535.74 126.385 527.013 Q126.385 518.263 129.441 513.68 Q132.519 509.074 138.33 509.074 Z" fill="#000000" fill-rule="nonzero" fill-opacity="1" /><path clip-path="url(#clip330)" d="M63.9319 33.0428 Q60.3208 33.0428 58.4921 36.6076 Q56.6865 40.1492 56.6865 47.2788 Q56.6865 54.3853 58.4921 57.9501 Q60.3208 61.4917 63.9319 61.4917 Q67.5661 61.4917 69.3717 57.9501 Q71.2004 54.3853 71.2004 47.2788 Q71.2004 40.1492 69.3717 36.6076 Q67.5661 33.0428 63.9319 33.0428 M63.9319 29.3391 Q69.742 29.3391 72.7976 33.9456 Q75.8763 38.5289 75.8763 47.2788 Q75.8763 56.0056 72.7976 60.6121 Q69.742 65.1954 63.9319 65.1954 Q58.1217 65.1954 55.043 60.6121 Q51.9875 56.0056 51.9875 47.2788 Q51.9875 38.5289 55.043 33.9456 Q58.1217 29.3391 63.9319 29.3391 Z" fill="#000000" fill-rule="nonzero" fill-opacity="1" /><path clip-path="url(#clip330)" d="M84.0938 58.6445 L88.978 58.6445 L88.978 64.5241 L84.0938 64.5241 L84.0938 58.6445 Z" fill="#000000" fill-rule="nonzero" fill-opacity="1" /><path clip-path="url(#clip330)" d="M99.9733 60.5889 L107.612 60.5889 L107.612 34.2233 L99.3021 35.89 L99.3021 31.6308 L107.566 29.9641 L112.242 29.9641 L112.242 60.5889 L119.881 60.5889 L119.881 64.5241 L99.9733 64.5241 L99.9733 60.5889 Z" fill="#000000" fill-rule="nonzero" fill-opacity="1" /><path clip-path="url(#clip330)" d="M129.371 29.9641 L147.728 29.9641 L147.728 33.8993 L133.654 33.8993 L133.654 42.3714 Q134.672 42.0242 135.691 41.8622 Q136.709 41.677 137.728 41.677 Q143.515 41.677 146.894 44.8483 Q150.274 48.0196 150.274 53.4362 Q150.274 59.0149 146.802 62.1167 Q143.33 65.1954 137.01 65.1954 Q134.834 65.1954 132.566 64.825 Q130.32 64.4547 127.913 63.7139 L127.913 59.0149 Q129.996 60.1491 132.219 60.7047 Q134.441 61.2602 136.918 61.2602 Q140.922 61.2602 143.26 59.1538 Q145.598 57.0473 145.598 53.4362 Q145.598 49.8251 143.26 47.7186 Q140.922 45.6122 136.918 45.6122 Q135.043 45.6122 133.168 46.0288 Q131.316 46.4455 129.371 47.3251 L129.371 29.9641 Z" fill="#000000" fill-rule="nonzero" fill-opacity="1" /><path clip-path="url(#clip332)" d="M777.133 1486.45 L777.133 1486.45 L917.813 1486.45 L917.813 1486.45 L777.133 1486.45 L777.133 1486.45  Z" fill="#009af9" fill-rule="evenodd" fill-opacity="1"/>
<polyline clip-path="url(#clip332)" style="stroke:#000000; stroke-linecap:round; stroke-linejoin:round; stroke-width:4; stroke-opacity:1; fill:none" points="777.133,1486.45 777.133,1486.45 917.813,1486.45 777.133,1486.45 "/>
<path clip-path="url(#clip332)" d="M917.813 1486.45 L917.813 1486.45 L1058.49 1486.45 L1058.49 1486.45 L917.813 1486.45 L917.813 1486.45  Z" fill="#009af9" fill-rule="evenodd" fill-opacity="1"/>
<polyline clip-path="url(#clip332)" style="stroke:#000000; stroke-linecap:round; stroke-linejoin:round; stroke-width:4; stroke-opacity:1; fill:none" points="917.813,1486.45 917.813,1486.45 1058.49,1486.45 917.813,1486.45 "/>
<path clip-path="url(#clip332)" d="M1058.49 1486.45 L1058.49 1486.45 L1199.17 1486.45 L1199.17 1486.45 L1058.49 1486.45 L1058.49 1486.45  Z" fill="#009af9" fill-rule="evenodd" fill-opacity="1"/>
<polyline clip-path="url(#clip332)" style="stroke:#000000; stroke-linecap:round; stroke-linejoin:round; stroke-width:4; stroke-opacity:1; fill:none" points="1058.49,1486.45 1058.49,1486.45 1199.17,1486.45 1058.49,1486.45 "/>
<path clip-path="url(#clip332)" d="M1199.17 1486.45 L1199.17 1486.45 L1339.86 1486.45 L1339.86 1486.45 L1199.17 1486.45 L1199.17 1486.45  Z" fill="#009af9" fill-rule="evenodd" fill-opacity="1"/>
<polyline clip-path="url(#clip332)" style="stroke:#000000; stroke-linecap:round; stroke-linejoin:round; stroke-width:4; stroke-opacity:1; fill:none" points="1199.17,1486.45 1199.17,1486.45 1339.86,1486.45 1199.17,1486.45 "/>
<path clip-path="url(#clip332)" d="M1339.86 1459.58 L1339.86 1486.45 L1480.54 1486.45 L1480.54 1459.58 L1339.86 1459.58 L1339.86 1459.58  Z" fill="#009af9" fill-rule="evenodd" fill-opacity="1"/>
<polyline clip-path="url(#clip332)" style="stroke:#000000; stroke-linecap:round; stroke-linejoin:round; stroke-width:4; stroke-opacity:1; fill:none" points="1339.86,1459.58 1339.86,1486.45 1480.54,1486.45 1480.54,1459.58 1339.86,1459.58 "/>
<path clip-path="url(#clip332)" d="M1480.54 1352.12 L1480.54 1486.45 L1621.22 1486.45 L1621.22 1352.12 L1480.54 1352.12 L1480.54 1352.12  Z" fill="#009af9" fill-rule="evenodd" fill-opacity="1"/>
<polyline clip-path="url(#clip332)" style="stroke:#000000; stroke-linecap:round; stroke-linejoin:round; stroke-width:4; stroke-opacity:1; fill:none" points="1480.54,1352.12 1480.54,1486.45 1621.22,1486.45 1621.22,1352.12 1480.54,1352.12 "/>
<path clip-path="url(#clip332)" d="M1621.22 304.382 L1621.22 1486.45 L1761.9 1486.45 L1761.9 304.382 L1621.22 304.382 L1621.22 304.382  Z" fill="#009af9" fill-rule="evenodd" fill-opacity="1"/>
<polyline clip-path="url(#clip332)" style="stroke:#000000; stroke-linecap:round; stroke-linejoin:round; stroke-width:4; stroke-opacity:1; fill:none" points="1621.22,304.382 1621.22,1486.45 1761.9,1486.45 1761.9,304.382 1621.22,304.382 "/>
<circle clip-path="url(#clip332)" style="fill:#009af9; stroke:none; fill-opacity:0" cx="847.473" cy="1486.45" r="2"/>
<circle clip-path="url(#clip332)" style="fill:#009af9; stroke:none; fill-opacity:0" cx="988.154" cy="1486.45" r="2"/>
<circle clip-path="url(#clip332)" style="fill:#009af9; stroke:none; fill-opacity:0" cx="1128.83" cy="1486.45" r="2"/>
<circle clip-path="url(#clip332)" style="fill:#009af9; stroke:none; fill-opacity:0" cx="1269.51" cy="1486.45" r="2"/>
<circle clip-path="url(#clip332)" style="fill:#009af9; stroke:none; fill-opacity:0" cx="1410.2" cy="1459.58" r="2"/>
<circle clip-path="url(#clip332)" style="fill:#009af9; stroke:none; fill-opacity:0" cx="1550.88" cy="1352.12" r="2"/>
<circle clip-path="url(#clip332)" style="fill:#009af9; stroke:none; fill-opacity:0" cx="1691.56" cy="304.382" r="2"/>
<polyline clip-path="url(#clip332)" style="stroke:#e26f46; stroke-linecap:round; stroke-linejoin:round; stroke-width:4; stroke-opacity:1; fill:none" stroke-dasharray="16, 10" points="1761.9,2925.65 1761.9,-1391.96 "/>
<polyline clip-path="url(#clip332)" style="stroke:#e26f46; stroke-linecap:round; stroke-linejoin:round; stroke-width:4; stroke-opacity:1; fill:none" stroke-dasharray="16, 10" points="777.133,2925.65 777.133,-1391.96 "/>
<polyline clip-path="url(#clip332)" style="stroke:#9932cc; stroke-linecap:round; stroke-linejoin:round; stroke-width:4; stroke-opacity:1; fill:none" points="777.133,1486.45 787.299,1486.45 846.843,1486.45 874.543,1486.45 911.671,1486.45 942.35,1486.45 970.878,1486.45 1006.69,1486.44 1038.82,1486.44 1075.59,1486.41 1103.07,1486.36 1138.23,1486.22 1170.32,1485.95 1206.83,1485.35 1235.78,1484.47 1271.75,1482.54 1299.29,1480.09 1338.13,1474.32 1367.14,1467.36 1383.64,1461.98 1400.15,1455.29 1416.49,1447.12 1432.83,1437.09 1450.81,1423.48 1468.78,1406.64 1482.52,1391.19 1496.25,1373.14 1504.91,1360.24 1513.58,1346.06 1522.24,1330.47 1530.91,1313.37 1538.92,1296.09 1546.93,1277.29 1554.95,1256.85 1562.96,1234.67 1571.23,1209.81 1579.49,1182.79 1587.76,1153.45 1596.02,1121.62 1604.4,1086.62 1612.78,1048.67 1621.15,1007.55 1629.53,963.027 1638.28,912.652 1647.03,858.011 1655.77,798.794 1664.52,734.667 1671.41,680.465 1678.3,622.817 1681.75,592.641 1685.19,561.532 1688.64,529.464 1692.08,496.411 1696.01,457.543 1699.93,417.325 1703.85,375.715 1707.78,332.672 1711.7,288.152 1715.62,242.112 1719.55,194.507 1723.47,145.289 1727.39,94.4117 1731.32,41.8258 1735.24,-12.5184 1739.16,-68.6724 1743.09,-126.688 1747.01,-186.62 1750.93,-248.524 1754.85,-312.454 1756.62,-341.82 1758.38,-371.611 1760.14,-401.833 1761.9,-432.49 "/>
<polyline clip-path="url(#clip332)" style="stroke:#00008b; stroke-linecap:round; stroke-linejoin:round; stroke-width:4; stroke-opacity:1; fill:none" points="856.714,1486.45 865.603,1486.45 874.492,1486.45 883.381,1486.45 892.27,1486.44 901.159,1486.43 910.047,1486.41 918.936,1486.39 927.825,1486.37 936.714,1486.37 945.603,1486.37 954.492,1486.37 963.381,1486.37 972.27,1486.36 981.159,1486.35 990.048,1486.34 998.937,1486.31 1007.83,1486.28 1016.72,1486.23 1025.6,1486.19 1034.49,1486.13 1043.38,1486.06 1052.27,1485.94 1061.16,1485.8 1070.05,1485.64 1078.94,1485.5 1087.83,1485.35 1096.72,1485.17 1105.6,1484.91 1114.49,1484.58 1123.38,1484.23 1132.27,1483.86 1141.16,1483.46 1150.05,1483.02 1158.94,1482.52 1167.83,1481.96 1176.72,1481.38 1185.61,1480.78 1194.49,1480.16 1203.38,1479.44 1212.27,1478.55 1221.16,1477.49 1230.05,1476.28 1238.94,1474.96 1247.83,1473.53 1256.72,1471.94 1265.61,1470.12 1274.49,1468.09 1283.38,1465.92 1292.27,1463.64 1301.16,1461.19 1310.05,1458.51 1318.94,1455.59 1327.83,1452.47 1336.72,1449.18 1345.61,1445.65 1354.5,1441.78 1363.38,1437.4 1372.27,1432.38 1381.16,1426.65 1390.05,1420.35 1398.94,1413.8 1407.83,1407.42 1416.72,1401.37 1425.61,1395.48 1434.5,1389.35 1443.39,1382.64 1452.27,1375.26 1461.16,1367.36 1470.05,1359.2 1478.94,1351.05 1487.83,1342.94 1496.72,1334.6 1505.61,1325.57 1514.5,1315.56 1523.39,1304.69 1532.27,1293.46 1541.16,1282.58 1550.05,1272.57 1558.94,1263.35 1567.83,1254.21 1576.72,1244.39 1585.61,1233.69 1594.5,1222.65 1603.39,1211.96 1612.28,1201.91 1621.16,1192.33 1630.05,1182.8 1638.94,1172.98 1647.83,1162.83 1656.72,1152.72 1665.61,1143.25 1674.5,1134.92 1683.39,1127.93 1692.28,1122.19 1701.17,1117.5 1710.05,1113.79 1718.94,1111.09 1727.83,1109.4 1736.72,1108.63 1745.61,1108.6 1754.5,1109 1763.39,1109.43 1772.28,1109.64 1781.17,1109.83 1790.05,1110.62 1798.94,1112.77 1807.83,1116.6 1816.72,1121.65 1825.61,1126.97 1834.5,1132.01 1843.39,1136.97 1852.28,1142.36 1861.17,1148.46 1870.06,1155.43 1878.94,1163.54 1887.83,1172.77 1896.72,1182.56 1905.61,1192.18 1914.5,1201.36 1923.39,1210.42 1932.28,1219.91 1941.17,1230.12 1950.06,1241 1958.94,1252.17 1967.83,1263.24 1976.72,1274.05 1985.61,1284.56 1994.5,1294.68 2003.39,1304.26 2012.28,1313.38 2021.17,1322.39 2030.06,1331.64 2038.95,1341.11 2047.83,1350.55 2056.72,1359.86 2065.61,1369.06 2074.5,1377.97 2083.39,1386.11 2092.28,1393.12 2101.17,1399.16 2110.06,1404.8 2118.95,1410.62 2127.84,1416.81 2136.72,1423.14 2145.61,1429.17 2154.5,1434.54 2163.39,1439.19 2172.28,1443.27 2181.17,1447.04 2190.06,1450.67 2198.95,1454.27 2207.84,1457.73 2216.72,1460.85 2225.61,1463.49 2234.5,1465.72 2243.39,1467.73 2252.28,1469.68 2261.17,1471.58 2270.06,1473.34 2278.95,1474.88 2287.84,1476.18 2296.73,1477.33 2305.61,1478.39 2314.5,1479.37 2323.39,1480.26 2332.28,1480.99 2341.17,1481.56 2350.06,1482.02 2358.95,1482.42 2367.84,1482.81 2376.73,1483.19 2385.61,1483.59 2394.5,1483.99 2403.39,1484.37 2412.28,1484.69 2421.17,1484.96 2430.06,1485.16 2438.95,1485.31 2447.84,1485.44 2456.73,1485.56 2465.62,1485.69 2474.5,1485.81 2483.39,1485.93 2492.28,1486.03 2501.17,1486.12 2510.06,1486.17 2518.95,1486.21 2527.84,1486.24 2536.73,1486.27 2545.62,1486.31 2554.51,1486.35 2563.39,1486.39 2572.28,1486.41 2581.17,1486.43 2590.06,1486.44 2598.95,1486.45 2607.84,1486.45 2616.73,1486.45 2625.62,1486.45 "/>
<polyline clip-path="url(#clip332)" style="stroke:#000000; stroke-linecap:round; stroke-linejoin:round; stroke-width:4; stroke-opacity:1; fill:none" points="1757.73,1486.45 1757.93,-13452.1 1758.14,-100431 1758.34,-137969 1758.54,-109331 1758.75,-84307.6 1758.95,-67826.9 1759.15,-55778.5 1759.36,-46314.9 1759.56,-38347.5 1759.77,-31894.9 1759.97,-26845.6 1760.17,-22881.3 1760.38,-18997.1 1760.58,-15877.2 1760.78,-13765.9 1760.99,-12403.7 1761.19,-10131.6 1761.4,-8542.42 1761.6,-7356.85 1761.8,-6495.98 1762.01,-5664.72 1762.21,-4565.12 1762.41,-4176.81 1762.62,-3633.61 1762.82,-2841.01 1763.03,-2326.45 1763.23,-1885.58 1763.43,-1622.59 1763.64,-1271.2 1763.84,-943.298 1764.05,-623.383 1764.25,-303.388 1764.45,-253.173 1764.66,-210.016 1764.86,15.8228 1765.06,241.913 1765.27,278.766 1765.47,415.188 1765.68,583.797 1765.88,623.09 1766.08,622.365 1766.29,646.186 1766.49,768.209 1766.69,885.735 1766.9,1003.09 1767.1,964.628 1767.31,1005.73 1767.51,1045.91 1767.71,1058.33 1767.92,1075.82 1768.12,1097.43 1768.33,1105.24 1768.53,1162.87 1768.73,1230.92 1768.94,1198.89 1769.14,1217.94 1769.34,1282.39 1769.55,1346.44 1769.75,1309.16 1769.96,1291.29 1770.16,1278.67 1770.36,1335.32 1770.57,1371.94 1770.77,1355.64 1770.97,1361.34 1771.18,1372.34 1771.38,1365.46 1771.59,1387.56 1771.79,1388.24 1771.99,1374.34 1772.2,1361.45 1772.4,1360.96 1772.6,1411.6 1772.81,1435.67 1773.01,1418.17 1773.22,1423.35 1773.42,1430.95 1773.62,1439.13 1773.83,1447.45 1774.03,1455.84 1774.24,1456.5 1774.44,1456.36 1774.64,1445.01 1774.85,1430.3 1775.05,1416.54 1775.25,1428.65 1775.46,1440.34 1775.66,1440.02 1775.87,1448.34 1776.07,1447.3 1776.27,1462.14 1776.48,1469.67 1776.68,1454.19 1776.88,1457.97 1777.09,1461.15 1777.29,1449.73 1777.5,1451.83 1777.7,1458.09 1777.9,1469.14 1778.11,1466.84 1778.31,1462.36 1778.51,1473.42 1778.72,1469.41 1778.92,1465.43 1779.13,1462.05 1779.33,1468.07 1779.53,1473.72 1779.74,1462 1779.94,1460.7 1780.15,1469.55 1780.35,1479.72 1780.55,1478.59 1780.76,1477.78 1780.96,1485.68 1781.16,1486.23 1781.37,1484.71 1781.57,1472.48 1781.78,1475.76 1781.98,1482.09 1782.18,1479.07 1782.39,1470.77 1782.59,1474.63 1782.79,1468.16 1783,1468.09 1783.2,1478.1 1783.41,1484.93 1783.61,1478.25 1783.81,1479.1 1784.02,1476.31 1784.22,1477.67 1784.42,1484.35 1784.63,1486.45 1784.83,1485.77 1785.04,1486.45 1785.24,1485.78 1785.44,1486.45 1785.65,1485.77 1785.85,1486.45 1786.06,1485.74 1786.26,1486.45 1786.46,1485.72 1786.67,1486.45 1786.87,1485.75 1787.07,1486.45 1787.28,1481.04 1787.48,1483.75 1787.69,1485.14 1787.89,1486.45 1788.09,1485.54 1788.3,1486.45 1788.5,1485.49 1788.7,1486.45 1788.91,1485.45 1789.11,1486.45 1789.32,1485.5 1789.52,1485.93 1789.72,1475.01 1789.93,1477.63 1790.13,1479.87 1790.34,1486.45 1790.54,1485.11 1790.74,1486.45 1790.95,1484.93 1791.15,1486.45 1791.35,1484.77 1791.56,1486.45 1791.76,1484.49 1791.97,1486.45 1792.17,1477.33 1792.37,1482.3 1792.58,1480.82 1792.78,1485.02 1792.98,1479.27 1793.19,1486.45 1793.39,1483.39 1793.6,1486.45 1793.8,1482.81 1794,1486.45 1794.21,1482.13 1794.41,1486.45 1794.61,1481.23 1794.82,1486.45 1795.02,1480.02 1795.23,1486.45 1795.43,1478.31 1795.63,1486.45 1795.84,1475.81 1796.04,1486.45 1796.25,1471.93 1796.45,1486.45 1796.65,1465.46 1796.86,1486.45 1797.06,1453.5 1797.26,1486.45 1797.47,1427.82 1797.67,1486.45 1797.88,1350.32 1798.08,1486.45 1798.28,1037.93 "/>
<polyline clip-path="url(#clip332)" style="stroke:#00008b; stroke-linecap:round; stroke-linejoin:round; stroke-width:4; stroke-opacity:1; fill:none" points="-344.648,1486.45 -334.328,1486.45 -324.007,1486.45 -313.687,1486.44 -303.367,1486.44 -293.046,1486.42 -282.726,1486.41 -272.405,1486.41 -262.085,1486.41 -251.765,1486.43 -241.444,1486.44 -231.124,1486.45 -220.803,1486.45 -210.483,1486.45 -200.163,1486.45 -189.842,1486.45 -179.522,1486.45 -169.201,1486.45 -158.881,1486.44 -148.56,1486.43 -138.24,1486.42 -127.92,1486.41 -117.599,1486.41 -107.279,1486.42 -96.9584,1486.42 -86.638,1486.42 -76.3176,1486.41 -65.9972,1486.4 -55.6768,1486.4 -45.3563,1486.4 -35.0359,1486.39 -24.7155,1486.36 -14.3951,1486.33 -4.07469,1486.3 6.24572,1486.27 16.5661,1486.21 26.8865,1486.12 37.207,1486.01 47.5274,1485.9 57.8478,1485.8 68.1682,1485.72 78.4886,1485.66 88.809,1485.6 99.1294,1485.49 109.45,1485.32 119.77,1485.09 130.091,1484.83 140.411,1484.54 150.731,1484.25 161.052,1483.92 171.372,1483.5 181.693,1482.91 192.013,1482.12 202.334,1481.09 212.654,1479.92 222.974,1478.75 233.295,1477.67 243.615,1476.58 253.936,1475.21 264.256,1473.41 274.576,1471.27 284.897,1468.97 295.217,1466.6 305.538,1464.05 315.858,1461.12 326.178,1457.64 336.499,1453.66 346.819,1449.35 357.14,1444.72 367.46,1439.74 377.781,1434.44 388.101,1428.95 398.421,1423.23 408.742,1417.28 419.062,1411.25 429.383,1405.12 439.703,1398.43 450.023,1390.62 460.344,1381.57 470.664,1371.72 480.985,1361.59 491.305,1351.4 501.625,1340.97 511.946,1330.14 522.266,1319.23 532.587,1308.68 542.907,1298.25 553.228,1287.13 563.548,1275.1 573.868,1262.99 584.189,1251.43 594.509,1239.89 604.83,1227.64 615.15,1214.79 625.47,1202.09 635.791,1190.08 646.111,1179.04 656.432,1169.01 666.752,1159.59 677.072,1150.05 687.393,1140.07 697.713,1130.37 708.034,1122.25 718.354,1116.36 728.675,1112.18 738.995,1108.87 749.315,1106.37 759.636,1105.18 769.956,1105.42 780.277,1106.42 790.597,1107.5 800.917,1108.69 811.238,1110.82 821.558,1114.64 831.879,1120.13 842.199,1126.69 852.519,1133.88 862.84,1141.76 873.16,1150.19 883.481,1158.65 893.801,1166.92 904.122,1175.59 914.442,1185.44 924.762,1196.41 935.083,1208.03 945.403,1220.26 955.724,1233.33 966.044,1246.78 976.364,1259.65 986.685,1271.47 997.005,1282.67 1007.33,1293.91 1017.65,1305.38 1027.97,1316.79 1038.29,1327.79 1048.61,1338.31 1058.93,1348.5 1069.25,1358.37 1079.57,1367.73 1089.89,1376.66 1100.21,1385.56 1110.53,1394.56 1120.85,1403.36 1131.17,1411.45 1141.49,1418.61 1151.81,1424.92 1162.13,1430.68 1172.45,1436.16 1182.77,1441.4 1193.09,1446.25 1203.41,1450.64 1213.73,1454.55 1224.05,1457.88 1234.37,1460.67 1244.7,1463.14 1255.02,1465.57 1265.34,1468.04 1275.66,1470.45 1285.98,1472.68 1296.3,1474.66 1306.62,1476.41 1316.94,1477.89 1327.26,1479.09 1337.58,1480.02 1347.9,1480.77 1358.22,1481.42 1368.54,1481.98 1378.86,1482.47 1389.18,1482.96 1399.5,1483.45 1409.82,1483.91 1420.14,1484.3 1430.46,1484.65 1440.78,1485 1451.1,1485.36 1461.42,1485.66 1471.74,1485.87 1482.06,1485.99 1492.39,1486.07 1502.71,1486.14 1513.03,1486.21 1523.35,1486.26 1533.67,1486.3 1543.99,1486.33 1554.31,1486.35 1564.63,1486.34 1574.95,1486.32 1585.27,1486.31 1595.59,1486.32 1605.91,1486.35 1616.23,1486.36 1626.55,1486.37 1636.87,1486.39 1647.19,1486.4 1657.51,1486.42 1667.83,1486.44 1678.15,1486.44 1688.47,1486.45 1698.79,1486.45 1709.11,1486.45 "/>
<polyline clip-path="url(#clip332)" style="stroke:#000000; stroke-linecap:round; stroke-linejoin:round; stroke-width:4; stroke-opacity:1; fill:none" points="-103.007,1486.45 -94.8639,1486.45 -86.7208,1486.45 -78.5776,1486.45 -70.4344,1486.44 -62.2912,1486.43 -54.1481,1486.41 -46.0049,1486.39 -37.8617,1486.36 -29.7185,1486.32 -21.5754,1486.29 -13.4322,1486.26 -5.28902,1486.25 2.85416,1486.27 10.9973,1486.3 19.1405,1486.33 27.2837,1486.34 35.4269,1486.33 43.57,1486.31 51.7132,1486.29 59.8564,1486.29 67.9996,1486.31 76.1427,1486.34 84.2859,1486.36 92.4291,1486.36 100.572,1486.35 108.715,1486.32 116.859,1486.28 125.002,1486.23 133.145,1486.17 141.288,1486.09 149.431,1485.99 157.574,1485.86 165.718,1485.69 173.861,1485.51 182.004,1485.32 190.147,1485.1 198.29,1484.84 206.434,1484.52 214.577,1484.19 222.72,1483.87 230.863,1483.56 239.006,1483.28 247.149,1483.01 255.293,1482.76 263.436,1482.49 271.579,1482.13 279.722,1481.63 287.865,1480.95 296.008,1480.09 304.152,1479.13 312.295,1478.14 320.438,1477.2 328.581,1476.31 336.724,1475.46 344.868,1474.6 353.011,1473.63 361.154,1472.41 369.297,1470.85 377.44,1468.94 385.583,1466.69 393.727,1463.99 401.87,1460.74 410.013,1457.05 418.156,1453.26 426.299,1449.74 434.442,1446.6 442.586,1443.6 450.729,1440.29 458.872,1436.22 467.015,1431.18 475.158,1425.37 483.301,1419.29 491.445,1413.56 499.588,1408.57 507.731,1404.22 515.874,1399.98 524.017,1395.27 532.161,1389.9 540.304,1384.1 548.447,1378.2 556.59,1372.08 564.733,1365.25 572.876,1357.26 581.02,1348.01 589.163,1337.68 597.306,1326.43 605.449,1314.24 613.592,1301.11 621.735,1287.38 629.879,1273.8 638.022,1261.08 646.165,1249.21 654.308,1237.72 662.451,1226.49 670.595,1216.18 678.738,1207.36 686.881,1199.73 695.024,1192.33 703.167,1184.43 711.31,1175.9 719.454,1166.73 727.597,1156.77 735.74,1145.9 743.883,1134.58 752.026,1123.83 760.169,1114.6 768.313,1107.16 776.456,1100.92 784.599,1095.09 792.742,1089.43 800.885,1084.63 809.028,1081.72 817.172,1081.08 825.315,1081.91 833.458,1082.87 841.601,1083.01 849.744,1082.23 857.888,1080.91 866.031,1079.6 874.174,1078.95 882.317,1079.58 890.46,1081.74 898.603,1085.07 906.747,1088.93 914.89,1093.25 923.033,1098.67 931.176,1105.69 939.319,1114.12 947.462,1123.54 955.606,1133.94 963.749,1145.49 971.892,1158 980.035,1170.95 988.178,1183.91 996.322,1196.68 1004.46,1209.21 1012.61,1221.46 1020.75,1233.37 1028.89,1244.71 1037.04,1255.13 1045.18,1264.53 1053.32,1273.47 1061.47,1283.02 1069.61,1293.94 1077.75,1306.05 1085.9,1318.39 1094.04,1330.1 1102.18,1340.91 1110.33,1350.84 1118.47,1359.81 1126.61,1367.67 1134.76,1374.49 1142.9,1380.67 1151.04,1386.77 1159.19,1393.19 1167.33,1400.08 1175.47,1407.47 1183.61,1415.28 1191.76,1423.09 1199.9,1430.26 1208.04,1436.14 1216.19,1440.56 1224.33,1443.8 1232.47,1446.38 1240.62,1448.83 1248.76,1451.61 1256.9,1454.88 1265.05,1458.41 1273.19,1461.79 1281.33,1464.84 1289.48,1467.65 1297.62,1470.29 1305.76,1472.72 1313.91,1474.86 1322.05,1476.66 1330.19,1478.17 1338.33,1479.41 1346.48,1480.37 1354.62,1481.04 1362.76,1481.47 1370.91,1481.85 1379.05,1482.37 1387.19,1483.09 1395.34,1483.91 1403.48,1484.67 1411.62,1485.28 1419.77,1485.71 1427.91,1486 1436.05,1486.18 1444.2,1486.28 1452.34,1486.34 1460.48,1486.38 1468.63,1486.41 1476.77,1486.43 1484.91,1486.44 1493.06,1486.45 1501.2,1486.45 1509.34,1486.45 1517.48,1486.45 "/>
</svg>
