<?xml version="1.0" encoding="utf-8"?>
<svg xmlns="http://www.w3.org/2000/svg" xmlns:xlink="http://www.w3.org/1999/xlink" width="600" height="400" viewBox="0 0 2400 1600">
<defs>
  <clipPath id="clip110">
    <rect x="0" y="0" width="2400" height="1600"/>
  </clipPath>
</defs>
<path clip-path="url(#clip110)" d="M0 1600 L2400 1600 L2400 0 L0 0  Z" fill="#ffffff" fill-rule="evenodd" fill-opacity="1"/>
<defs>
  <clipPath id="clip111">
    <rect x="480" y="0" width="1681" height="1600"/>
  </clipPath>
</defs>
<path clip-path="url(#clip110)" d="M310.309 1387.89 L2352.76 1387.89 L2352.76 151.017 L310.309 151.017  Z" fill="#ffffff" fill-rule="evenodd" fill-opacity="1"/>
<defs>
  <clipPath id="clip112">
    <rect x="310" y="151" width="2043" height="1238"/>
  </clipPath>
</defs>
<polyline clip-path="url(#clip112)" style="stroke:#000000; stroke-linecap:round; stroke-linejoin:round; stroke-width:2; stroke-opacity:0.1; fill:none" points="2352.76,1387.89 2352.76,151.017 "/>
<polyline clip-path="url(#clip112)" style="stroke:#000000; stroke-linecap:round; stroke-linejoin:round; stroke-width:2; stroke-opacity:0.1; fill:none" points="1924.43,1387.89 1924.43,151.017 "/>
<polyline clip-path="url(#clip112)" style="stroke:#000000; stroke-linecap:round; stroke-linejoin:round; stroke-width:2; stroke-opacity:0.1; fill:none" points="1496.1,1387.89 1496.1,151.017 "/>
<polyline clip-path="url(#clip112)" style="stroke:#000000; stroke-linecap:round; stroke-linejoin:round; stroke-width:2; stroke-opacity:0.1; fill:none" points="1067.78,1387.89 1067.78,151.017 "/>
<polyline clip-path="url(#clip112)" style="stroke:#000000; stroke-linecap:round; stroke-linejoin:round; stroke-width:2; stroke-opacity:0.1; fill:none" points="639.448,1387.89 639.448,151.017 "/>
<polyline clip-path="url(#clip112)" style="stroke:#000000; stroke-linecap:round; stroke-linejoin:round; stroke-width:2; stroke-opacity:0.1; fill:none" points="2352.76,1387.89 310.309,1387.89 "/>
<polyline clip-path="url(#clip112)" style="stroke:#000000; stroke-linecap:round; stroke-linejoin:round; stroke-width:2; stroke-opacity:0.1; fill:none" points="2352.76,1139.58 310.309,1139.58 "/>
<polyline clip-path="url(#clip112)" style="stroke:#000000; stroke-linecap:round; stroke-linejoin:round; stroke-width:2; stroke-opacity:0.1; fill:none" points="2352.76,891.273 310.309,891.273 "/>
<polyline clip-path="url(#clip112)" style="stroke:#000000; stroke-linecap:round; stroke-linejoin:round; stroke-width:2; stroke-opacity:0.1; fill:none" points="2352.76,642.963 310.309,642.963 "/>
<polyline clip-path="url(#clip112)" style="stroke:#000000; stroke-linecap:round; stroke-linejoin:round; stroke-width:2; stroke-opacity:0.1; fill:none" points="2352.76,394.652 310.309,394.652 "/>
<polyline clip-path="url(#clip110)" style="stroke:#000000; stroke-linecap:round; stroke-linejoin:round; stroke-width:4; stroke-opacity:1; fill:none" points="2352.76,1387.89 310.309,1387.89 "/>
<polyline clip-path="url(#clip110)" style="stroke:#000000; stroke-linecap:round; stroke-linejoin:round; stroke-width:4; stroke-opacity:1; fill:none" points="2352.76,1387.89 2352.76,1369 "/>
<polyline clip-path="url(#clip110)" style="stroke:#000000; stroke-linecap:round; stroke-linejoin:round; stroke-width:4; stroke-opacity:1; fill:none" points="1924.43,1387.89 1924.43,1369 "/>
<polyline clip-path="url(#clip110)" style="stroke:#000000; stroke-linecap:round; stroke-linejoin:round; stroke-width:4; stroke-opacity:1; fill:none" points="1496.1,1387.89 1496.1,1369 "/>
<polyline clip-path="url(#clip110)" style="stroke:#000000; stroke-linecap:round; stroke-linejoin:round; stroke-width:4; stroke-opacity:1; fill:none" points="1067.78,1387.89 1067.78,1369 "/>
<polyline clip-path="url(#clip110)" style="stroke:#000000; stroke-linecap:round; stroke-linejoin:round; stroke-width:4; stroke-opacity:1; fill:none" points="639.448,1387.89 639.448,1369 "/>
<g clip-path="url(#clip110)">
<text style="fill:#000000; fill-opacity:1; font-family:Arial,Helvetica Neue,Helvetica,sans-serif; font-size:71px; text-anchor:middle;" transform="rotate(0, 2352.76, 1470.82)" x="2352.76" y="1470.82">0</text>
</g>
<g clip-path="url(#clip110)">
<text style="fill:#000000; fill-opacity:1; font-family:Arial,Helvetica Neue,Helvetica,sans-serif; font-size:71px; text-anchor:middle;" transform="rotate(0, 1924.43, 1470.82)" x="1924.43" y="1470.82">50</text>
</g>
<g clip-path="url(#clip110)">
<text style="fill:#000000; fill-opacity:1; font-family:Arial,Helvetica Neue,Helvetica,sans-serif; font-size:71px; text-anchor:middle;" transform="rotate(0, 1496.1, 1470.82)" x="1496.1" y="1470.82">100</text>
</g>
<g clip-path="url(#clip110)">
<text style="fill:#000000; fill-opacity:1; font-family:Arial,Helvetica Neue,Helvetica,sans-serif; font-size:71px; text-anchor:middle;" transform="rotate(0, 1067.78, 1470.82)" x="1067.78" y="1470.82">150</text>
</g>
<g clip-path="url(#clip110)">
<text style="fill:#000000; fill-opacity:1; font-family:Arial,Helvetica Neue,Helvetica,sans-serif; font-size:71px; text-anchor:middle;" transform="rotate(0, 639.448, 1470.82)" x="639.448" y="1470.82">200</text>
</g>
<g clip-path="url(#clip110)">
<text style="fill:#000000; fill-opacity:1; font-family:Arial,Helvetica Neue,Helvetica,sans-serif; font-size:95px; text-anchor:middle;" transform="rotate(0, 1331.53, 1586.14)" x="1331.53" y="1586.14">τ</text>
</g>
<polyline clip-path="url(#clip110)" style="stroke:#000000; stroke-linecap:round; stroke-linejoin:round; stroke-width:4; stroke-opacity:1; fill:none" points="310.309,1387.89 310.309,151.017 "/>
<polyline clip-path="url(#clip110)" style="stroke:#000000; stroke-linecap:round; stroke-linejoin:round; stroke-width:4; stroke-opacity:1; fill:none" points="310.309,1387.89 329.206,1387.89 "/>
<polyline clip-path="url(#clip110)" style="stroke:#000000; stroke-linecap:round; stroke-linejoin:round; stroke-width:4; stroke-opacity:1; fill:none" points="310.309,1139.58 329.206,1139.58 "/>
<polyline clip-path="url(#clip110)" style="stroke:#000000; stroke-linecap:round; stroke-linejoin:round; stroke-width:4; stroke-opacity:1; fill:none" points="310.309,891.273 329.206,891.273 "/>
<polyline clip-path="url(#clip110)" style="stroke:#000000; stroke-linecap:round; stroke-linejoin:round; stroke-width:4; stroke-opacity:1; fill:none" points="310.309,642.963 329.206,642.963 "/>
<polyline clip-path="url(#clip110)" style="stroke:#000000; stroke-linecap:round; stroke-linejoin:round; stroke-width:4; stroke-opacity:1; fill:none" points="310.309,394.652 329.206,394.652 "/>
<g clip-path="url(#clip110)">
<text style="fill:#000000; fill-opacity:1; font-family:Arial,Helvetica Neue,Helvetica,sans-serif; font-size:71px; text-anchor:middle;" transform="rotate(0, 204.058, 1413.89)" x="204.058" y="1413.89">0.00</text>
</g>
<g clip-path="url(#clip110)">
<text style="fill:#000000; fill-opacity:1; font-family:Arial,Helvetica Neue,Helvetica,sans-serif; font-size:71px; text-anchor:middle;" transform="rotate(0, 204.058, 1165.58)" x="204.058" y="1165.58">0.02</text>
</g>
<g clip-path="url(#clip110)">
<text style="fill:#000000; fill-opacity:1; font-family:Arial,Helvetica Neue,Helvetica,sans-serif; font-size:71px; text-anchor:middle;" transform="rotate(0, 204.058, 917.273)" x="204.058" y="917.273">0.04</text>
</g>
<g clip-path="url(#clip110)">
<text style="fill:#000000; fill-opacity:1; font-family:Arial,Helvetica Neue,Helvetica,sans-serif; font-size:71px; text-anchor:middle;" transform="rotate(0, 204.058, 668.963)" x="204.058" y="668.963">0.06</text>
</g>
<g clip-path="url(#clip110)">
<text style="fill:#000000; fill-opacity:1; font-family:Arial,Helvetica Neue,Helvetica,sans-serif; font-size:71px; text-anchor:middle;" transform="rotate(0, 204.058, 420.652)" x="204.058" y="420.652">0.08</text>
</g>
<g clip-path="url(#clip110)">
<text style="fill:#000000; fill-opacity:1; font-family:Arial,Helvetica Neue,Helvetica,sans-serif; font-size:95px; text-anchor:middle;" transform="rotate(-90, 80.007, 769.455)" x="80.007" y="769.455">Density</text>
</g>
<g clip-path="url(#clip110)">
<text style="fill:#000000; fill-opacity:1; font-family:Arial,Helvetica Neue,Helvetica,sans-serif; font-size:125px; text-anchor:middle;" transform="rotate(0, 1331.53, 109.2)" x="1331.53" y="109.2">Characiformes</text>
</g>
<path clip-path="url(#clip112)" d="M2384.56 1387.89 L2384.56 1387.89 L2349.48 1387.89 L2349.48 1387.89 L2384.56 1387.89 L2384.56 1387.89  Z" fill="#808080" fill-rule="evenodd" fill-opacity="1"/>
<polyline clip-path="url(#clip112)" style="stroke:#000000; stroke-linecap:round; stroke-linejoin:round; stroke-width:4; stroke-opacity:1; fill:none" points="2384.56,1387.89 2384.56,1387.89 2349.48,1387.89 2384.56,1387.89 "/>
<path clip-path="url(#clip112)" d="M2349.48 151.017 L2349.48 1387.89 L2314.4 1387.89 L2314.4 151.017 L2349.48 151.017 L2349.48 151.017  Z" fill="#808080" fill-rule="evenodd" fill-opacity="1"/>
<polyline clip-path="url(#clip112)" style="stroke:#000000; stroke-linecap:round; stroke-linejoin:round; stroke-width:4; stroke-opacity:1; fill:none" points="2349.48,151.017 2349.48,1387.89 2314.4,1387.89 2314.4,151.017 2349.48,151.017 "/>
<path clip-path="url(#clip112)" d="M2314.4 1096.86 L2314.4 1387.89 L2279.31 1387.89 L2279.31 1096.86 L2314.4 1096.86 L2314.4 1096.86  Z" fill="#808080" fill-rule="evenodd" fill-opacity="1"/>
<polyline clip-path="url(#clip112)" style="stroke:#000000; stroke-linecap:round; stroke-linejoin:round; stroke-width:4; stroke-opacity:1; fill:none" points="2314.4,1096.86 2314.4,1387.89 2279.31,1387.89 2279.31,1096.86 2314.4,1096.86 "/>
<path clip-path="url(#clip112)" d="M2279.31 1145.37 L2279.31 1387.89 L2244.23 1387.89 L2244.23 1145.37 L2279.31 1145.37 L2279.31 1145.37  Z" fill="#808080" fill-rule="evenodd" fill-opacity="1"/>
<polyline clip-path="url(#clip112)" style="stroke:#000000; stroke-linecap:round; stroke-linejoin:round; stroke-width:4; stroke-opacity:1; fill:none" points="2279.31,1145.37 2279.31,1387.89 2244.23,1387.89 2244.23,1145.37 2279.31,1145.37 "/>
<path clip-path="url(#clip112)" d="M2244.23 854.339 L2244.23 1387.89 L2209.15 1387.89 L2209.15 854.339 L2244.23 854.339 L2244.23 854.339  Z" fill="#808080" fill-rule="evenodd" fill-opacity="1"/>
<polyline clip-path="url(#clip112)" style="stroke:#000000; stroke-linecap:round; stroke-linejoin:round; stroke-width:4; stroke-opacity:1; fill:none" points="2244.23,854.339 2244.23,1387.89 2209.15,1387.89 2209.15,854.339 2244.23,854.339 "/>
<path clip-path="url(#clip112)" d="M2209.15 1290.88 L2209.15 1387.89 L2174.06 1387.89 L2174.06 1290.88 L2209.15 1290.88 L2209.15 1290.88  Z" fill="#808080" fill-rule="evenodd" fill-opacity="1"/>
<polyline clip-path="url(#clip112)" style="stroke:#000000; stroke-linecap:round; stroke-linejoin:round; stroke-width:4; stroke-opacity:1; fill:none" points="2209.15,1290.88 2209.15,1387.89 2174.06,1387.89 2174.06,1290.88 2209.15,1290.88 "/>
<path clip-path="url(#clip112)" d="M2174.06 1387.89 L2174.06 1387.89 L2138.98 1387.89 L2138.98 1387.89 L2174.06 1387.89 L2174.06 1387.89  Z" fill="#808080" fill-rule="evenodd" fill-opacity="1"/>
<polyline clip-path="url(#clip112)" style="stroke:#000000; stroke-linecap:round; stroke-linejoin:round; stroke-width:4; stroke-opacity:1; fill:none" points="2174.06,1387.89 2174.06,1387.89 2138.98,1387.89 2174.06,1387.89 "/>
<path clip-path="url(#clip112)" d="M2138.98 1218.13 L2138.98 1387.89 L2103.89 1387.89 L2103.89 1218.13 L2138.98 1218.13 L2138.98 1218.13  Z" fill="#808080" fill-rule="evenodd" fill-opacity="1"/>
<polyline clip-path="url(#clip112)" style="stroke:#000000; stroke-linecap:round; stroke-linejoin:round; stroke-width:4; stroke-opacity:1; fill:none" points="2138.98,1218.13 2138.98,1387.89 2103.89,1387.89 2103.89,1218.13 2138.98,1218.13 "/>
<path clip-path="url(#clip112)" d="M2103.89 1290.88 L2103.89 1387.89 L2068.81 1387.89 L2068.81 1290.88 L2103.89 1290.88 L2103.89 1290.88  Z" fill="#808080" fill-rule="evenodd" fill-opacity="1"/>
<polyline clip-path="url(#clip112)" style="stroke:#000000; stroke-linecap:round; stroke-linejoin:round; stroke-width:4; stroke-opacity:1; fill:none" points="2103.89,1290.88 2103.89,1387.89 2068.81,1387.89 2068.81,1290.88 2103.89,1290.88 "/>
<path clip-path="url(#clip112)" d="M2068.81 1339.39 L2068.81 1387.89 L2033.73 1387.89 L2033.73 1339.39 L2068.81 1339.39 L2068.81 1339.39  Z" fill="#808080" fill-rule="evenodd" fill-opacity="1"/>
<polyline clip-path="url(#clip112)" style="stroke:#000000; stroke-linecap:round; stroke-linejoin:round; stroke-width:4; stroke-opacity:1; fill:none" points="2068.81,1339.39 2068.81,1387.89 2033.73,1387.89 2033.73,1339.39 2068.81,1339.39 "/>
<path clip-path="url(#clip112)" d="M2033.73 1290.88 L2033.73 1387.89 L1998.64 1387.89 L1998.64 1290.88 L2033.73 1290.88 L2033.73 1290.88  Z" fill="#808080" fill-rule="evenodd" fill-opacity="1"/>
<polyline clip-path="url(#clip112)" style="stroke:#000000; stroke-linecap:round; stroke-linejoin:round; stroke-width:4; stroke-opacity:1; fill:none" points="2033.73,1290.88 2033.73,1387.89 1998.64,1387.89 1998.64,1290.88 2033.73,1290.88 "/>
<path clip-path="url(#clip112)" d="M1998.64 1315.14 L1998.64 1387.89 L1963.56 1387.89 L1963.56 1315.14 L1998.64 1315.14 L1998.64 1315.14  Z" fill="#808080" fill-rule="evenodd" fill-opacity="1"/>
<polyline clip-path="url(#clip112)" style="stroke:#000000; stroke-linecap:round; stroke-linejoin:round; stroke-width:4; stroke-opacity:1; fill:none" points="1998.64,1315.14 1998.64,1387.89 1963.56,1387.89 1963.56,1315.14 1998.64,1315.14 "/>
<path clip-path="url(#clip112)" d="M1963.56 1387.89 L1963.56 1387.89 L1928.48 1387.89 L1928.48 1387.89 L1963.56 1387.89 L1963.56 1387.89  Z" fill="#808080" fill-rule="evenodd" fill-opacity="1"/>
<polyline clip-path="url(#clip112)" style="stroke:#000000; stroke-linecap:round; stroke-linejoin:round; stroke-width:4; stroke-opacity:1; fill:none" points="1963.56,1387.89 1963.56,1387.89 1928.48,1387.89 1963.56,1387.89 "/>
<path clip-path="url(#clip112)" d="M1928.48 1363.64 L1928.48 1387.89 L1893.39 1387.89 L1893.39 1363.64 L1928.48 1363.64 L1928.48 1363.64  Z" fill="#808080" fill-rule="evenodd" fill-opacity="1"/>
<polyline clip-path="url(#clip112)" style="stroke:#000000; stroke-linecap:round; stroke-linejoin:round; stroke-width:4; stroke-opacity:1; fill:none" points="1928.48,1363.64 1928.48,1387.89 1893.39,1387.89 1893.39,1363.64 1928.48,1363.64 "/>
<path clip-path="url(#clip112)" d="M1893.39 1315.14 L1893.39 1387.89 L1858.31 1387.89 L1858.31 1315.14 L1893.39 1315.14 L1893.39 1315.14  Z" fill="#808080" fill-rule="evenodd" fill-opacity="1"/>
<polyline clip-path="url(#clip112)" style="stroke:#000000; stroke-linecap:round; stroke-linejoin:round; stroke-width:4; stroke-opacity:1; fill:none" points="1893.39,1315.14 1893.39,1387.89 1858.31,1387.89 1858.31,1315.14 1893.39,1315.14 "/>
<path clip-path="url(#clip112)" d="M1858.31 1387.89 L1858.31 1387.89 L1823.23 1387.89 L1823.23 1387.89 L1858.31 1387.89 L1858.31 1387.89  Z" fill="#808080" fill-rule="evenodd" fill-opacity="1"/>
<polyline clip-path="url(#clip112)" style="stroke:#000000; stroke-linecap:round; stroke-linejoin:round; stroke-width:4; stroke-opacity:1; fill:none" points="1858.31,1387.89 1858.31,1387.89 1823.23,1387.89 1858.31,1387.89 "/>
<path clip-path="url(#clip112)" d="M1823.23 1387.89 L1823.23 1387.89 L1788.14 1387.89 L1788.14 1387.89 L1823.23 1387.89 L1823.23 1387.89  Z" fill="#808080" fill-rule="evenodd" fill-opacity="1"/>
<polyline clip-path="url(#clip112)" style="stroke:#000000; stroke-linecap:round; stroke-linejoin:round; stroke-width:4; stroke-opacity:1; fill:none" points="1823.23,1387.89 1823.23,1387.89 1788.14,1387.89 1823.23,1387.89 "/>
<path clip-path="url(#clip112)" d="M1788.14 1339.39 L1788.14 1387.89 L1753.06 1387.89 L1753.06 1339.39 L1788.14 1339.39 L1788.14 1339.39  Z" fill="#808080" fill-rule="evenodd" fill-opacity="1"/>
<polyline clip-path="url(#clip112)" style="stroke:#000000; stroke-linecap:round; stroke-linejoin:round; stroke-width:4; stroke-opacity:1; fill:none" points="1788.14,1339.39 1788.14,1387.89 1753.06,1387.89 1753.06,1339.39 1788.14,1339.39 "/>
<path clip-path="url(#clip112)" d="M1753.06 1387.89 L1753.06 1387.89 L1717.98 1387.89 L1717.98 1387.89 L1753.06 1387.89 L1753.06 1387.89  Z" fill="#808080" fill-rule="evenodd" fill-opacity="1"/>
<polyline clip-path="url(#clip112)" style="stroke:#000000; stroke-linecap:round; stroke-linejoin:round; stroke-width:4; stroke-opacity:1; fill:none" points="1753.06,1387.89 1753.06,1387.89 1717.98,1387.89 1753.06,1387.89 "/>
<circle clip-path="url(#clip112)" style="fill:#808080; stroke:none; fill-opacity:0" cx="2331.94" cy="151.017" r="2"/>
<circle clip-path="url(#clip112)" style="fill:#808080; stroke:none; fill-opacity:0" cx="2296.85" cy="1096.86" r="2"/>
<circle clip-path="url(#clip112)" style="fill:#808080; stroke:none; fill-opacity:0" cx="2261.77" cy="1145.37" r="2"/>
<circle clip-path="url(#clip112)" style="fill:#808080; stroke:none; fill-opacity:0" cx="2226.69" cy="854.339" r="2"/>
<circle clip-path="url(#clip112)" style="fill:#808080; stroke:none; fill-opacity:0" cx="2191.6" cy="1290.88" r="2"/>
<circle clip-path="url(#clip112)" style="fill:#808080; stroke:none; fill-opacity:0" cx="2156.52" cy="1387.89" r="2"/>
<circle clip-path="url(#clip112)" style="fill:#808080; stroke:none; fill-opacity:0" cx="2121.44" cy="1218.13" r="2"/>
<circle clip-path="url(#clip112)" style="fill:#808080; stroke:none; fill-opacity:0" cx="2086.35" cy="1290.88" r="2"/>
<circle clip-path="url(#clip112)" style="fill:#808080; stroke:none; fill-opacity:0" cx="2051.27" cy="1339.39" r="2"/>
<circle clip-path="url(#clip112)" style="fill:#808080; stroke:none; fill-opacity:0" cx="2016.19" cy="1290.88" r="2"/>
<circle clip-path="url(#clip112)" style="fill:#808080; stroke:none; fill-opacity:0" cx="1981.1" cy="1315.14" r="2"/>
<circle clip-path="url(#clip112)" style="fill:#808080; stroke:none; fill-opacity:0" cx="1946.02" cy="1387.89" r="2"/>
<circle clip-path="url(#clip112)" style="fill:#808080; stroke:none; fill-opacity:0" cx="1910.94" cy="1363.64" r="2"/>
<circle clip-path="url(#clip112)" style="fill:#808080; stroke:none; fill-opacity:0" cx="1875.85" cy="1315.14" r="2"/>
<circle clip-path="url(#clip112)" style="fill:#808080; stroke:none; fill-opacity:0" cx="1840.77" cy="1387.89" r="2"/>
<circle clip-path="url(#clip112)" style="fill:#808080; stroke:none; fill-opacity:0" cx="1805.68" cy="1387.89" r="2"/>
<circle clip-path="url(#clip112)" style="fill:#808080; stroke:none; fill-opacity:0" cx="1770.6" cy="1339.39" r="2"/>
<circle clip-path="url(#clip112)" style="fill:#808080; stroke:none; fill-opacity:0" cx="1735.52" cy="1387.89" r="2"/>
<polyline clip-path="url(#clip112)" style="stroke:#0000ff; stroke-linecap:round; stroke-linejoin:round; stroke-width:8; stroke-opacity:1; fill:none" points="1760.81,767.118 1756.74,781.7 1752.66,795.94 1748.59,809.846 1744.52,823.425 1738.55,842.734 1732.59,861.383 1726.63,879.393 1720.66,896.788 1714.7,913.588 1708.74,929.812 1702.77,945.482 1696.81,960.616 1690.85,975.232 1684.88,989.349 1678.92,1002.98 1672.96,1016.15 1661.03,1041.15 1649.1,1064.46 1643.55,1074.77 1638.01,1084.75 1632.46,1094.41 1626.91,1103.76 1615.81,1121.58 1604.72,1138.28 1597.28,1148.88 1589.84,1159.04 1582.41,1168.76 1574.97,1178.07 1560.09,1195.51 1545.22,1211.51 1532.93,1223.72 1520.64,1235.08 1508.35,1245.66 1496.06,1255.51 1484.63,1264.05 1473.2,1272.04 1461.77,1279.52 1450.34,1286.51 1436,1294.66 1421.65,1302.15 1407.3,1309.03 1392.96,1315.37 1367.22,1325.48 1341.48,1334.19 1312.02,1342.67 1282.56,1349.82 1260.53,1354.41 1238.51,1358.45 1210.34,1362.91 1182.18,1366.7 1156.47,1369.65 1130.76,1372.19 1072.24,1376.74 1025.85,1379.38 968.222,1381.81 924.085,1383.2 861.858,1384.63 815.357,1385.4 762.475,1386.06 710.104,1386.55 652.486,1386.93 608.476,1387.15 552.939,1387.36 501.573,1387.49 448.598,1387.6 394.902,1387.68 338.833,1387.74 294.664,1387.77 194.079,1387.83 182.794,1387.83 "/>
<polyline clip-path="url(#clip112)" style="stroke:#000000; stroke-linecap:round; stroke-linejoin:round; stroke-width:8; stroke-opacity:1; fill:none" points="1807.75,1387.89 1799.72,1387.89 1791.69,1387.89 1783.66,1387.89 1775.63,1387.88 1767.6,1387.86 1759.57,1387.81 1751.54,1387.7 1743.51,1387.48 1735.48,1387.08 1727.45,1386.37 1719.42,1385.25 1711.39,1383.61 1703.36,1381.38 1695.33,1378.53 1687.3,1375.11 1679.27,1371.2 1671.24,1366.87 1663.21,1362.16 1655.17,1357.04 1647.14,1351.45 1639.11,1345.23 1631.08,1338.24 1623.05,1330.35 1615.02,1321.51 1606.99,1311.79 1598.96,1301.37 1590.93,1290.55 1582.9,1279.72 1574.87,1269.31 1566.84,1259.65 1558.81,1250.91 1550.78,1242.99 1542.75,1235.52 1534.72,1228.01 1526.69,1219.99 1518.66,1211.17 1510.63,1201.56 1502.59,1191.45 1494.56,1181.34 1486.53,1171.78 1478.5,1163.31 1470.47,1156.25 1462.44,1150.73 1454.41,1146.57 1446.38,1143.5 1438.35,1141.17 1430.32,1139.38 1422.29,1138.08 1414.26,1137.3 1406.23,1137.08 1398.2,1137.33 1390.17,1137.83 1382.14,1138.41 1374.11,1139.05 1366.08,1139.99 1358.05,1141.7 1350.01,1144.67 1341.98,1149.16 1333.95,1155.04 1325.92,1161.8 1317.89,1168.75 1309.86,1175.24 1301.83,1180.87 1293.8,1185.55 1285.77,1189.5 1277.74,1193.07 1269.71,1196.59 1261.68,1200.32 1253.65,1204.32 1245.62,1208.59 1237.59,1213.02 1229.56,1217.59 1221.53,1222.31 1213.5,1227.28 1205.47,1232.61 1197.43,1238.32 1189.4,1244.32 1181.37,1250.45 1173.34,1256.47 1165.31,1262.22 1157.28,1267.62 1149.25,1272.76 1141.22,1277.82 1133.19,1283.03 1125.16,1288.52 1117.13,1294.31 1109.1,1300.29 1101.07,1306.27 1093.04,1312.03 1085.01,1317.35 1076.98,1322.07 1068.95,1326.09 1060.92,1329.35 1052.89,1331.91 1044.85,1333.92 1036.82,1335.58 1028.79,1337.12 1020.76,1338.76 1012.73,1340.62 1004.7,1342.75 996.672,1345.12 988.641,1347.61 980.611,1350.11 972.58,1352.5 964.55,1354.75 956.519,1356.85 948.489,1358.85 940.458,1360.81 932.428,1362.76 924.397,1364.69 916.366,1366.54 908.336,1368.22 900.305,1369.65 892.275,1370.77 884.244,1371.57 876.214,1372.11 868.183,1372.48 860.153,1372.79 852.122,1373.16 844.092,1373.67 836.061,1374.34 828.031,1375.18 820,1376.12 811.97,1377.1 803.939,1378.05 795.909,1378.92 787.878,1379.71 779.848,1380.44 771.817,1381.13 763.786,1381.8 755.756,1382.44 747.725,1383.02 739.695,1383.54 731.664,1383.97 723.634,1384.34 715.603,1384.66 707.573,1384.95 699.542,1385.22 691.512,1385.49 683.481,1385.75 675.451,1385.99 667.42,1386.19 659.39,1386.37 651.359,1386.5 643.329,1386.58 635.298,1386.62 627.267,1386.63 619.237,1386.62 611.206,1386.61 603.176,1386.62 595.145,1386.65 587.115,1386.7 579.084,1386.76 571.054,1386.83 563.023,1386.9 554.993,1386.99 546.962,1387.1 538.932,1387.23 530.901,1387.37 522.871,1387.51 514.84,1387.63 506.81,1387.72 498.779,1387.79 490.749,1387.84 482.718,1387.87 474.687,1387.88 466.657,1387.89 458.626,1387.89 450.596,1387.89 442.565,1387.89 434.535,1387.89 426.504,1387.89 418.474,1387.89 410.443,1387.89 402.413,1387.89 394.382,1387.89 386.352,1387.89 378.321,1387.89 370.291,1387.88 362.26,1387.87 354.23,1387.86 346.199,1387.83 338.169,1387.8 330.138,1387.77 322.107,1387.74 314.077,1387.73 306.046,1387.73 298.016,1387.75 289.985,1387.77 281.955,1387.8 273.924,1387.83 265.894,1387.86 257.863,1387.87 249.833,1387.88 241.802,1387.89 233.772,1387.89 225.741,1387.89 217.711,1387.89 209.68,1387.89 "/>
<path clip-path="url(#clip110)" d="M1791.56 494.044 L2284.67 494.044 L2284.67 192.246 L1791.56 192.246  Z" fill="#ffffff" fill-rule="evenodd" fill-opacity="1"/>
<polyline clip-path="url(#clip110)" style="stroke:#000000; stroke-linecap:round; stroke-linejoin:round; stroke-width:4; stroke-opacity:1; fill:none" points="1791.56,494.044 2284.67,494.044 2284.67,192.246 1791.56,192.246 1791.56,494.044 "/>
<path clip-path="url(#clip110)" d="M1814.25 297.875 L1950.41 297.875 L1950.41 237.516 L1814.25 237.516 L1814.25 297.875  Z" fill="#808080" fill-rule="evenodd" fill-opacity="1"/>
<polyline clip-path="url(#clip110)" style="stroke:#000000; stroke-linecap:round; stroke-linejoin:round; stroke-width:6; stroke-opacity:1; fill:none" points="1814.25,297.875 1950.41,297.875 1950.41,237.516 1814.25,237.516 1814.25,297.875 "/>
<g clip-path="url(#clip110)">
<text style="fill:#000000; fill-opacity:1; font-family:Arial,Helvetica Neue,Helvetica,sans-serif; font-size:71px; text-anchor:start;" transform="rotate(0, 1973.11, 293.695)" x="1973.11" y="293.695">Data</text>
</g>
<polyline clip-path="url(#clip110)" style="stroke:#0000ff; stroke-linecap:round; stroke-linejoin:round; stroke-width:12; stroke-opacity:1; fill:none" points="1814.25,343.145 1950.41,343.145 "/>
<g clip-path="url(#clip110)">
<text style="fill:#000000; fill-opacity:1; font-family:Arial,Helvetica Neue,Helvetica,sans-serif; font-size:71px; text-anchor:start;" transform="rotate(0, 1973.11, 369.145)" x="1973.11" y="369.145">Prior</text>
</g>
<polyline clip-path="url(#clip110)" style="stroke:#000000; stroke-linecap:round; stroke-linejoin:round; stroke-width:12; stroke-opacity:1; fill:none" points="1814.25,418.595 1950.41,418.595 "/>
<g clip-path="url(#clip110)">
<text style="fill:#000000; fill-opacity:1; font-family:Arial,Helvetica Neue,Helvetica,sans-serif; font-size:71px; text-anchor:start;" transform="rotate(0, 1973.11, 444.595)" x="1973.11" y="444.595">Posterior</text>
</g>
<path clip-path="url(#clip110)" d="M412.431 645.768 L1229.41 645.768 L1229.41 151.017 L412.431 151.017  Z" fill="#ffffff" fill-rule="evenodd" fill-opacity="1"/>
<defs>
  <clipPath id="clip113">
    <rect x="412" y="151" width="818" height="496"/>
  </clipPath>
</defs>
<polyline clip-path="url(#clip110)" style="stroke:#000000; stroke-linecap:round; stroke-linejoin:round; stroke-width:4; stroke-opacity:1; fill:none" points="412.431,645.768 1229.41,645.768 "/>
<polyline clip-path="url(#clip110)" style="stroke:#000000; stroke-linecap:round; stroke-linejoin:round; stroke-width:4; stroke-opacity:1; fill:none" points="432.343,645.768 432.343,626.87 "/>
<polyline clip-path="url(#clip110)" style="stroke:#000000; stroke-linecap:round; stroke-linejoin:round; stroke-width:4; stroke-opacity:1; fill:none" points="561.869,645.768 561.869,626.87 "/>
<polyline clip-path="url(#clip110)" style="stroke:#000000; stroke-linecap:round; stroke-linejoin:round; stroke-width:4; stroke-opacity:1; fill:none" points="691.395,645.768 691.395,626.87 "/>
<polyline clip-path="url(#clip110)" style="stroke:#000000; stroke-linecap:round; stroke-linejoin:round; stroke-width:4; stroke-opacity:1; fill:none" points="820.921,645.768 820.921,626.87 "/>
<polyline clip-path="url(#clip110)" style="stroke:#000000; stroke-linecap:round; stroke-linejoin:round; stroke-width:4; stroke-opacity:1; fill:none" points="950.447,645.768 950.447,626.87 "/>
<polyline clip-path="url(#clip110)" style="stroke:#000000; stroke-linecap:round; stroke-linejoin:round; stroke-width:4; stroke-opacity:1; fill:none" points="1079.97,645.768 1079.97,626.87 "/>
<polyline clip-path="url(#clip110)" style="stroke:#000000; stroke-linecap:round; stroke-linejoin:round; stroke-width:4; stroke-opacity:1; fill:none" points="1209.5,645.768 1209.5,626.87 "/>
<g clip-path="url(#clip110)">
<text style="fill:#000000; fill-opacity:1; font-family:Arial,Helvetica Neue,Helvetica,sans-serif; font-size:71px; text-anchor:middle;" transform="rotate(0, 432.343, 728.692)" x="432.343" y="728.692">−15</text>
</g>
<g clip-path="url(#clip110)">
<text style="fill:#000000; fill-opacity:1; font-family:Arial,Helvetica Neue,Helvetica,sans-serif; font-size:71px; text-anchor:middle;" transform="rotate(0, 561.869, 728.692)" x="561.869" y="728.692">−10</text>
</g>
<g clip-path="url(#clip110)">
<text style="fill:#000000; fill-opacity:1; font-family:Arial,Helvetica Neue,Helvetica,sans-serif; font-size:71px; text-anchor:middle;" transform="rotate(0, 691.395, 728.692)" x="691.395" y="728.692">−5</text>
</g>
<g clip-path="url(#clip110)">
<text style="fill:#000000; fill-opacity:1; font-family:Arial,Helvetica Neue,Helvetica,sans-serif; font-size:71px; text-anchor:middle;" transform="rotate(0, 820.921, 728.692)" x="820.921" y="728.692">0</text>
</g>
<g clip-path="url(#clip110)">
<text style="fill:#000000; fill-opacity:1; font-family:Arial,Helvetica Neue,Helvetica,sans-serif; font-size:71px; text-anchor:middle;" transform="rotate(0, 950.447, 728.692)" x="950.447" y="728.692">5</text>
</g>
<g clip-path="url(#clip110)">
<text style="fill:#000000; fill-opacity:1; font-family:Arial,Helvetica Neue,Helvetica,sans-serif; font-size:71px; text-anchor:middle;" transform="rotate(0, 1079.97, 728.692)" x="1079.97" y="728.692">10</text>
</g>
<g clip-path="url(#clip110)">
<text style="fill:#000000; fill-opacity:1; font-family:Arial,Helvetica Neue,Helvetica,sans-serif; font-size:71px; text-anchor:middle;" transform="rotate(0, 1209.5, 728.692)" x="1209.5" y="728.692">15</text>
</g>
<g clip-path="url(#clip110)">
<text style="fill:#000000; fill-opacity:1; font-family:Arial,Helvetica Neue,Helvetica,sans-serif; font-size:95px; text-anchor:middle;" transform="rotate(0, 820.921, 844.017)" x="820.921" y="844.017">λ</text>
</g>
<polyline clip-path="url(#clip110)" style="stroke:#000000; stroke-linecap:round; stroke-linejoin:round; stroke-width:4; stroke-opacity:1; fill:none" points="412.431,645.768 412.431,151.017 "/>
<polyline clip-path="url(#clip113)" style="stroke:#000000; stroke-linecap:round; stroke-linejoin:round; stroke-width:8; stroke-opacity:1; fill:none" points="436.225,631.765 437.961,631.765 439.697,631.764 441.432,631.762 443.168,631.758 444.904,631.75 446.639,631.735 448.375,631.711 450.11,631.673 451.846,631.624 453.582,631.564 455.317,631.502 457.053,631.445 458.789,631.4 460.524,631.371 462.26,631.356 463.996,631.351 465.731,631.351 467.467,631.357 469.203,631.372 470.938,631.401 472.674,631.446 474.41,631.503 476.145,631.566 477.881,631.625 479.616,631.674 481.352,631.71 483.088,631.732 484.823,631.741 486.559,631.736 488.295,631.713 490.03,631.664 491.766,631.578 493.502,631.441 495.237,631.243 496.973,630.981 498.709,630.665 500.444,630.316 502.18,629.962 503.916,629.625 505.651,629.31 507.387,628.993 509.122,628.631 510.858,628.169 512.594,627.559 514.329,626.783 516.065,625.851 517.801,624.811 519.536,623.722 521.272,622.647 523.008,621.626 524.743,620.67 526.479,619.758 528.215,618.854 529.95,617.916 531.686,616.908 533.421,615.8 535.157,614.575 536.893,613.229 538.628,611.788 540.364,610.304 542.1,608.849 543.835,607.482 545.571,606.226 547.307,605.05 549.042,603.881 550.778,602.63 552.514,601.22 554.249,599.611 555.985,597.805 557.721,595.83 559.456,593.713 561.192,591.458 562.927,589.042 564.663,586.444 566.399,583.678 568.134,580.823 569.87,577.997 571.606,575.309 573.341,572.781 575.077,570.319 576.813,567.728 578.548,564.785 580.284,561.304 582.02,557.177 583.755,552.365 585.491,546.88 587.227,540.777 588.962,534.161 590.698,527.211 592.433,520.179 594.169,513.347 595.905,506.962 597.64,501.145 599.376,495.832 601.112,490.774 602.847,485.588 604.583,479.861 606.319,473.26 608.054,465.614 609.79,456.942 611.526,447.441 613.261,437.414 614.997,427.191 616.733,417.024 618.468,407.013 620.204,397.076 621.939,386.986 623.675,376.479 625.411,365.4 627.146,353.8 628.882,341.962 630.618,330.307 632.353,319.233 634.089,308.962 635.825,299.46 637.56,290.473 639.296,281.643 641.032,272.647 642.767,263.307 644.503,253.633 646.239,243.816 647.974,234.166 649.71,225.024 651.445,216.636 653.181,209.067 654.917,202.182 656.652,195.736 658.388,189.533 660.124,183.564 661.859,178.031 663.595,173.255 665.331,169.524 667.066,166.972 668.802,165.542 670.538,165.019 672.273,165.117 674.009,165.567 675.744,166.195 677.48,166.987 679.216,168.136 680.951,170.032 682.687,173.215 684.423,178.253 686.158,185.575 687.894,195.307 689.63,207.169 691.365,220.499 693.101,234.416 694.837,248.077 696.572,260.912 698.308,272.766 700.044,283.875 701.779,294.744 703.515,305.96 705.25,318.036 706.986,331.31 708.722,345.909 710.457,361.752 712.193,378.576 713.929,395.979 715.664,413.495 717.4,430.683 719.136,447.21 720.871,462.907 722.607,477.758 724.343,491.841 726.078,505.257 727.814,518.068 729.55,530.28 731.285,541.851 733.021,552.733 734.756,562.891 736.492,572.331 738.228,581.084 739.963,589.179 741.699,596.618 743.435,603.353 745.17,609.302 746.906,614.386 748.642,618.568 750.377,621.881 752.113,624.421 753.849,626.326 755.584,627.744 757.32,628.808 759.056,629.62 760.791,630.246 762.527,630.727 764.262,631.089 765.998,631.348 767.734,631.524 769.469,631.635 771.205,631.7 772.941,631.735 774.676,631.752 776.412,631.76 778.148,631.763 779.883,631.765 781.619,631.765 "/>
<polyline clip-path="url(#clip113)" style="stroke:#0000ff; stroke-linecap:round; stroke-linejoin:round; stroke-width:8; stroke-opacity:1; fill:none" points="435.553,631.586 439.532,631.558 443.51,631.527 466.811,631.239 490.112,630.658 500.952,630.227 511.792,629.652 526.321,628.586 540.85,627.075 546.853,626.289 552.856,625.393 558.859,624.375 564.862,623.223 570.444,622.021 576.026,620.682 581.608,619.195 587.19,617.551 594.197,615.246 601.205,612.655 608.212,609.759 615.22,606.54 621.505,603.364 627.791,599.906 634.077,596.158 640.362,592.116 647.557,587.124 654.752,581.746 661.947,575.989 669.141,569.869 674.519,565.069 679.898,560.091 685.276,554.949 690.654,549.659 704.411,535.597 718.168,521.093 730.725,507.876 743.281,495.101 746.854,491.608 750.427,488.197 753.999,484.877 757.572,481.658 761.145,478.552 764.717,475.567 768.29,472.713 771.863,469.999 777.527,466.006 783.191,462.421 788.856,459.274 794.52,456.594 798.039,455.174 801.557,453.947 805.076,452.918 808.594,452.091 812.113,451.468 815.632,451.051 819.15,450.841 822.669,450.841 828.058,451.244 833.447,452.132 838.837,453.5 844.226,455.334 848.025,456.901 851.824,458.686 855.623,460.683 859.422,462.885 863.222,465.282 867.021,467.865 870.82,470.625 874.619,473.552 880.297,478.212 885.975,483.182 891.653,488.421 897.331,493.891 910.245,506.97 923.159,520.55 935.949,534.049 948.739,547.207 955.774,554.18 962.809,560.904 969.845,567.344 976.88,573.468 982.254,577.918 987.628,582.162 993.002,586.194 998.376,590.01 1005.16,594.517 1011.94,598.68 1018.72,602.503 1025.5,605.994 1031.77,608.939 1038.05,611.621 1044.32,614.053 1050.59,616.248 1057.06,618.28 1063.53,620.091 1070,621.698 1076.46,623.117 1083.02,624.382 1089.58,625.486 1096.13,626.447 1102.69,627.279 1116.38,628.66 1130.08,629.654 1140.86,630.226 1151.65,630.655 1176.21,631.259 1200.78,631.547 1203.53,631.567 1206.29,631.586 "/>
</svg>
