<?xml version="1.0" encoding="utf-8"?>
<svg xmlns="http://www.w3.org/2000/svg" xmlns:xlink="http://www.w3.org/1999/xlink" width="600" height="400" viewBox="0 0 2400 1600">
<defs>
  <clipPath id="clip890">
    <rect x="0" y="0" width="2400" height="1600"/>
  </clipPath>
</defs>
<path clip-path="url(#clip890)" d="M0 1600 L2400 1600 L2400 0 L0 0  Z" fill="#ffffff" fill-rule="evenodd" fill-opacity="1"/>
<defs>
  <clipPath id="clip891">
    <rect x="480" y="0" width="1681" height="1600"/>
  </clipPath>
</defs>
<path clip-path="url(#clip890)" d="M310.309 1387.89 L2352.76 1387.89 L2352.76 151.017 L310.309 151.017  Z" fill="#ffffff" fill-rule="evenodd" fill-opacity="1"/>
<defs>
  <clipPath id="clip892">
    <rect x="310" y="151" width="2043" height="1238"/>
  </clipPath>
</defs>
<polyline clip-path="url(#clip892)" style="stroke:#000000; stroke-linecap:round; stroke-linejoin:round; stroke-width:2; stroke-opacity:0.1; fill:none" points="2352.76,1387.89 2352.76,151.017 "/>
<polyline clip-path="url(#clip892)" style="stroke:#000000; stroke-linecap:round; stroke-linejoin:round; stroke-width:2; stroke-opacity:0.1; fill:none" points="1986.47,1387.89 1986.47,151.017 "/>
<polyline clip-path="url(#clip892)" style="stroke:#000000; stroke-linecap:round; stroke-linejoin:round; stroke-width:2; stroke-opacity:0.1; fill:none" points="1620.19,1387.89 1620.19,151.017 "/>
<polyline clip-path="url(#clip892)" style="stroke:#000000; stroke-linecap:round; stroke-linejoin:round; stroke-width:2; stroke-opacity:0.1; fill:none" points="1253.9,1387.89 1253.9,151.017 "/>
<polyline clip-path="url(#clip892)" style="stroke:#000000; stroke-linecap:round; stroke-linejoin:round; stroke-width:2; stroke-opacity:0.1; fill:none" points="887.62,1387.89 887.62,151.017 "/>
<polyline clip-path="url(#clip892)" style="stroke:#000000; stroke-linecap:round; stroke-linejoin:round; stroke-width:2; stroke-opacity:0.1; fill:none" points="521.336,1387.89 521.336,151.017 "/>
<polyline clip-path="url(#clip892)" style="stroke:#000000; stroke-linecap:round; stroke-linejoin:round; stroke-width:2; stroke-opacity:0.1; fill:none" points="2352.76,1387.89 310.309,1387.89 "/>
<polyline clip-path="url(#clip892)" style="stroke:#000000; stroke-linecap:round; stroke-linejoin:round; stroke-width:2; stroke-opacity:0.1; fill:none" points="2352.76,1139.58 310.309,1139.58 "/>
<polyline clip-path="url(#clip892)" style="stroke:#000000; stroke-linecap:round; stroke-linejoin:round; stroke-width:2; stroke-opacity:0.1; fill:none" points="2352.76,891.273 310.309,891.273 "/>
<polyline clip-path="url(#clip892)" style="stroke:#000000; stroke-linecap:round; stroke-linejoin:round; stroke-width:2; stroke-opacity:0.1; fill:none" points="2352.76,642.963 310.309,642.963 "/>
<polyline clip-path="url(#clip892)" style="stroke:#000000; stroke-linecap:round; stroke-linejoin:round; stroke-width:2; stroke-opacity:0.1; fill:none" points="2352.76,394.652 310.309,394.652 "/>
<polyline clip-path="url(#clip890)" style="stroke:#000000; stroke-linecap:round; stroke-linejoin:round; stroke-width:4; stroke-opacity:1; fill:none" points="2352.76,1387.89 310.309,1387.89 "/>
<polyline clip-path="url(#clip890)" style="stroke:#000000; stroke-linecap:round; stroke-linejoin:round; stroke-width:4; stroke-opacity:1; fill:none" points="2352.76,1387.89 2352.76,1369 "/>
<polyline clip-path="url(#clip890)" style="stroke:#000000; stroke-linecap:round; stroke-linejoin:round; stroke-width:4; stroke-opacity:1; fill:none" points="1986.47,1387.89 1986.47,1369 "/>
<polyline clip-path="url(#clip890)" style="stroke:#000000; stroke-linecap:round; stroke-linejoin:round; stroke-width:4; stroke-opacity:1; fill:none" points="1620.19,1387.89 1620.19,1369 "/>
<polyline clip-path="url(#clip890)" style="stroke:#000000; stroke-linecap:round; stroke-linejoin:round; stroke-width:4; stroke-opacity:1; fill:none" points="1253.9,1387.89 1253.9,1369 "/>
<polyline clip-path="url(#clip890)" style="stroke:#000000; stroke-linecap:round; stroke-linejoin:round; stroke-width:4; stroke-opacity:1; fill:none" points="887.62,1387.89 887.62,1369 "/>
<polyline clip-path="url(#clip890)" style="stroke:#000000; stroke-linecap:round; stroke-linejoin:round; stroke-width:4; stroke-opacity:1; fill:none" points="521.336,1387.89 521.336,1369 "/>
<g clip-path="url(#clip890)">
<text style="fill:#000000; fill-opacity:1; font-family:Arial,Helvetica Neue,Helvetica,sans-serif; font-size:71px; text-anchor:middle;" transform="rotate(0, 2352.76, 1470.82)" x="2352.76" y="1470.82">0</text>
</g>
<g clip-path="url(#clip890)">
<text style="fill:#000000; fill-opacity:1; font-family:Arial,Helvetica Neue,Helvetica,sans-serif; font-size:71px; text-anchor:middle;" transform="rotate(0, 1986.47, 1470.82)" x="1986.47" y="1470.82">50</text>
</g>
<g clip-path="url(#clip890)">
<text style="fill:#000000; fill-opacity:1; font-family:Arial,Helvetica Neue,Helvetica,sans-serif; font-size:71px; text-anchor:middle;" transform="rotate(0, 1620.19, 1470.82)" x="1620.19" y="1470.82">100</text>
</g>
<g clip-path="url(#clip890)">
<text style="fill:#000000; fill-opacity:1; font-family:Arial,Helvetica Neue,Helvetica,sans-serif; font-size:71px; text-anchor:middle;" transform="rotate(0, 1253.9, 1470.82)" x="1253.9" y="1470.82">150</text>
</g>
<g clip-path="url(#clip890)">
<text style="fill:#000000; fill-opacity:1; font-family:Arial,Helvetica Neue,Helvetica,sans-serif; font-size:71px; text-anchor:middle;" transform="rotate(0, 887.62, 1470.82)" x="887.62" y="1470.82">200</text>
</g>
<g clip-path="url(#clip890)">
<text style="fill:#000000; fill-opacity:1; font-family:Arial,Helvetica Neue,Helvetica,sans-serif; font-size:71px; text-anchor:middle;" transform="rotate(0, 521.336, 1470.82)" x="521.336" y="1470.82">250</text>
</g>
<g clip-path="url(#clip890)">
<text style="fill:#000000; fill-opacity:1; font-family:Arial,Helvetica Neue,Helvetica,sans-serif; font-size:95px; text-anchor:middle;" transform="rotate(0, 1331.53, 1586.14)" x="1331.53" y="1586.14">τ</text>
</g>
<polyline clip-path="url(#clip890)" style="stroke:#000000; stroke-linecap:round; stroke-linejoin:round; stroke-width:4; stroke-opacity:1; fill:none" points="310.309,1387.89 310.309,151.017 "/>
<polyline clip-path="url(#clip890)" style="stroke:#000000; stroke-linecap:round; stroke-linejoin:round; stroke-width:4; stroke-opacity:1; fill:none" points="310.309,1387.89 329.206,1387.89 "/>
<polyline clip-path="url(#clip890)" style="stroke:#000000; stroke-linecap:round; stroke-linejoin:round; stroke-width:4; stroke-opacity:1; fill:none" points="310.309,1139.58 329.206,1139.58 "/>
<polyline clip-path="url(#clip890)" style="stroke:#000000; stroke-linecap:round; stroke-linejoin:round; stroke-width:4; stroke-opacity:1; fill:none" points="310.309,891.273 329.206,891.273 "/>
<polyline clip-path="url(#clip890)" style="stroke:#000000; stroke-linecap:round; stroke-linejoin:round; stroke-width:4; stroke-opacity:1; fill:none" points="310.309,642.963 329.206,642.963 "/>
<polyline clip-path="url(#clip890)" style="stroke:#000000; stroke-linecap:round; stroke-linejoin:round; stroke-width:4; stroke-opacity:1; fill:none" points="310.309,394.652 329.206,394.652 "/>
<g clip-path="url(#clip890)">
<text style="fill:#000000; fill-opacity:1; font-family:Arial,Helvetica Neue,Helvetica,sans-serif; font-size:71px; text-anchor:middle;" transform="rotate(0, 204.058, 1413.89)" x="204.058" y="1413.89">0.00</text>
</g>
<g clip-path="url(#clip890)">
<text style="fill:#000000; fill-opacity:1; font-family:Arial,Helvetica Neue,Helvetica,sans-serif; font-size:71px; text-anchor:middle;" transform="rotate(0, 204.058, 1165.58)" x="204.058" y="1165.58">0.02</text>
</g>
<g clip-path="url(#clip890)">
<text style="fill:#000000; fill-opacity:1; font-family:Arial,Helvetica Neue,Helvetica,sans-serif; font-size:71px; text-anchor:middle;" transform="rotate(0, 204.058, 917.273)" x="204.058" y="917.273">0.04</text>
</g>
<g clip-path="url(#clip890)">
<text style="fill:#000000; fill-opacity:1; font-family:Arial,Helvetica Neue,Helvetica,sans-serif; font-size:71px; text-anchor:middle;" transform="rotate(0, 204.058, 668.963)" x="204.058" y="668.963">0.06</text>
</g>
<g clip-path="url(#clip890)">
<text style="fill:#000000; fill-opacity:1; font-family:Arial,Helvetica Neue,Helvetica,sans-serif; font-size:71px; text-anchor:middle;" transform="rotate(0, 204.058, 420.652)" x="204.058" y="420.652">0.08</text>
</g>
<g clip-path="url(#clip890)">
<text style="fill:#000000; fill-opacity:1; font-family:Arial,Helvetica Neue,Helvetica,sans-serif; font-size:95px; text-anchor:middle;" transform="rotate(-90, 80.007, 769.455)" x="80.007" y="769.455">Density</text>
</g>
<g clip-path="url(#clip890)">
<text style="fill:#000000; fill-opacity:1; font-family:Arial,Helvetica Neue,Helvetica,sans-serif; font-size:125px; text-anchor:middle;" transform="rotate(0, 1331.53, 109.2)" x="1331.53" y="109.2">Characiformes</text>
</g>
<path clip-path="url(#clip892)" d="M2379.96 1387.89 L2379.96 1387.89 L2349.95 1387.89 L2349.95 1387.89 L2379.96 1387.89 L2379.96 1387.89  Z" fill="#808080" fill-rule="evenodd" fill-opacity="1"/>
<polyline clip-path="url(#clip892)" style="stroke:#000000; stroke-linecap:round; stroke-linejoin:round; stroke-width:4; stroke-opacity:1; fill:none" points="2379.96,1387.89 2379.96,1387.89 2349.95,1387.89 2379.96,1387.89 "/>
<path clip-path="url(#clip892)" d="M2349.95 151.017 L2349.95 1387.89 L2319.95 1387.89 L2319.95 151.017 L2349.95 151.017 L2349.95 151.017  Z" fill="#808080" fill-rule="evenodd" fill-opacity="1"/>
<polyline clip-path="url(#clip892)" style="stroke:#000000; stroke-linecap:round; stroke-linejoin:round; stroke-width:4; stroke-opacity:1; fill:none" points="2349.95,151.017 2349.95,1387.89 2319.95,1387.89 2319.95,151.017 2349.95,151.017 "/>
<path clip-path="url(#clip892)" d="M2319.95 1096.86 L2319.95 1387.89 L2289.95 1387.89 L2289.95 1096.86 L2319.95 1096.86 L2319.95 1096.86  Z" fill="#808080" fill-rule="evenodd" fill-opacity="1"/>
<polyline clip-path="url(#clip892)" style="stroke:#000000; stroke-linecap:round; stroke-linejoin:round; stroke-width:4; stroke-opacity:1; fill:none" points="2319.95,1096.86 2319.95,1387.89 2289.95,1387.89 2289.95,1096.86 2319.95,1096.86 "/>
<path clip-path="url(#clip892)" d="M2289.95 1145.37 L2289.95 1387.89 L2259.95 1387.89 L2259.95 1145.37 L2289.95 1145.37 L2289.95 1145.37  Z" fill="#808080" fill-rule="evenodd" fill-opacity="1"/>
<polyline clip-path="url(#clip892)" style="stroke:#000000; stroke-linecap:round; stroke-linejoin:round; stroke-width:4; stroke-opacity:1; fill:none" points="2289.95,1145.37 2289.95,1387.89 2259.95,1387.89 2259.95,1145.37 2289.95,1145.37 "/>
<path clip-path="url(#clip892)" d="M2259.95 854.339 L2259.95 1387.89 L2229.95 1387.89 L2229.95 854.339 L2259.95 854.339 L2259.95 854.339  Z" fill="#808080" fill-rule="evenodd" fill-opacity="1"/>
<polyline clip-path="url(#clip892)" style="stroke:#000000; stroke-linecap:round; stroke-linejoin:round; stroke-width:4; stroke-opacity:1; fill:none" points="2259.95,854.339 2259.95,1387.89 2229.95,1387.89 2229.95,854.339 2259.95,854.339 "/>
<path clip-path="url(#clip892)" d="M2229.95 1290.88 L2229.95 1387.89 L2199.95 1387.89 L2199.95 1290.88 L2229.95 1290.88 L2229.95 1290.88  Z" fill="#808080" fill-rule="evenodd" fill-opacity="1"/>
<polyline clip-path="url(#clip892)" style="stroke:#000000; stroke-linecap:round; stroke-linejoin:round; stroke-width:4; stroke-opacity:1; fill:none" points="2229.95,1290.88 2229.95,1387.89 2199.95,1387.89 2199.95,1290.88 2229.95,1290.88 "/>
<path clip-path="url(#clip892)" d="M2199.95 1387.89 L2199.95 1387.89 L2169.94 1387.89 L2169.94 1387.89 L2199.95 1387.89 L2199.95 1387.89  Z" fill="#808080" fill-rule="evenodd" fill-opacity="1"/>
<polyline clip-path="url(#clip892)" style="stroke:#000000; stroke-linecap:round; stroke-linejoin:round; stroke-width:4; stroke-opacity:1; fill:none" points="2199.95,1387.89 2199.95,1387.89 2169.94,1387.89 2199.95,1387.89 "/>
<path clip-path="url(#clip892)" d="M2169.94 1218.13 L2169.94 1387.89 L2139.94 1387.89 L2139.94 1218.13 L2169.94 1218.13 L2169.94 1218.13  Z" fill="#808080" fill-rule="evenodd" fill-opacity="1"/>
<polyline clip-path="url(#clip892)" style="stroke:#000000; stroke-linecap:round; stroke-linejoin:round; stroke-width:4; stroke-opacity:1; fill:none" points="2169.94,1218.13 2169.94,1387.89 2139.94,1387.89 2139.94,1218.13 2169.94,1218.13 "/>
<path clip-path="url(#clip892)" d="M2139.94 1290.88 L2139.94 1387.89 L2109.94 1387.89 L2109.94 1290.88 L2139.94 1290.88 L2139.94 1290.88  Z" fill="#808080" fill-rule="evenodd" fill-opacity="1"/>
<polyline clip-path="url(#clip892)" style="stroke:#000000; stroke-linecap:round; stroke-linejoin:round; stroke-width:4; stroke-opacity:1; fill:none" points="2139.94,1290.88 2139.94,1387.89 2109.94,1387.89 2109.94,1290.88 2139.94,1290.88 "/>
<path clip-path="url(#clip892)" d="M2109.94 1339.39 L2109.94 1387.89 L2079.94 1387.89 L2079.94 1339.39 L2109.94 1339.39 L2109.94 1339.39  Z" fill="#808080" fill-rule="evenodd" fill-opacity="1"/>
<polyline clip-path="url(#clip892)" style="stroke:#000000; stroke-linecap:round; stroke-linejoin:round; stroke-width:4; stroke-opacity:1; fill:none" points="2109.94,1339.39 2109.94,1387.89 2079.94,1387.89 2079.94,1339.39 2109.94,1339.39 "/>
<path clip-path="url(#clip892)" d="M2079.94 1290.88 L2079.94 1387.89 L2049.94 1387.89 L2049.94 1290.88 L2079.94 1290.88 L2079.94 1290.88  Z" fill="#808080" fill-rule="evenodd" fill-opacity="1"/>
<polyline clip-path="url(#clip892)" style="stroke:#000000; stroke-linecap:round; stroke-linejoin:round; stroke-width:4; stroke-opacity:1; fill:none" points="2079.94,1290.88 2079.94,1387.89 2049.94,1387.89 2049.94,1290.88 2079.94,1290.88 "/>
<path clip-path="url(#clip892)" d="M2049.94 1315.14 L2049.94 1387.89 L2019.94 1387.89 L2019.94 1315.14 L2049.94 1315.14 L2049.94 1315.14  Z" fill="#808080" fill-rule="evenodd" fill-opacity="1"/>
<polyline clip-path="url(#clip892)" style="stroke:#000000; stroke-linecap:round; stroke-linejoin:round; stroke-width:4; stroke-opacity:1; fill:none" points="2049.94,1315.14 2049.94,1387.89 2019.94,1387.89 2019.94,1315.14 2049.94,1315.14 "/>
<path clip-path="url(#clip892)" d="M2019.94 1387.89 L2019.94 1387.89 L1989.93 1387.89 L1989.93 1387.89 L2019.94 1387.89 L2019.94 1387.89  Z" fill="#808080" fill-rule="evenodd" fill-opacity="1"/>
<polyline clip-path="url(#clip892)" style="stroke:#000000; stroke-linecap:round; stroke-linejoin:round; stroke-width:4; stroke-opacity:1; fill:none" points="2019.94,1387.89 2019.94,1387.89 1989.93,1387.89 2019.94,1387.89 "/>
<path clip-path="url(#clip892)" d="M1989.93 1363.64 L1989.93 1387.89 L1959.93 1387.89 L1959.93 1363.64 L1989.93 1363.64 L1989.93 1363.64  Z" fill="#808080" fill-rule="evenodd" fill-opacity="1"/>
<polyline clip-path="url(#clip892)" style="stroke:#000000; stroke-linecap:round; stroke-linejoin:round; stroke-width:4; stroke-opacity:1; fill:none" points="1989.93,1363.64 1989.93,1387.89 1959.93,1387.89 1959.93,1363.64 1989.93,1363.64 "/>
<path clip-path="url(#clip892)" d="M1959.93 1315.14 L1959.93 1387.89 L1929.93 1387.89 L1929.93 1315.14 L1959.93 1315.14 L1959.93 1315.14  Z" fill="#808080" fill-rule="evenodd" fill-opacity="1"/>
<polyline clip-path="url(#clip892)" style="stroke:#000000; stroke-linecap:round; stroke-linejoin:round; stroke-width:4; stroke-opacity:1; fill:none" points="1959.93,1315.14 1959.93,1387.89 1929.93,1387.89 1929.93,1315.14 1959.93,1315.14 "/>
<path clip-path="url(#clip892)" d="M1929.93 1387.89 L1929.93 1387.89 L1899.93 1387.89 L1899.93 1387.89 L1929.93 1387.89 L1929.93 1387.89  Z" fill="#808080" fill-rule="evenodd" fill-opacity="1"/>
<polyline clip-path="url(#clip892)" style="stroke:#000000; stroke-linecap:round; stroke-linejoin:round; stroke-width:4; stroke-opacity:1; fill:none" points="1929.93,1387.89 1929.93,1387.89 1899.93,1387.89 1929.93,1387.89 "/>
<path clip-path="url(#clip892)" d="M1899.93 1387.89 L1899.93 1387.89 L1869.93 1387.89 L1869.93 1387.89 L1899.93 1387.89 L1899.93 1387.89  Z" fill="#808080" fill-rule="evenodd" fill-opacity="1"/>
<polyline clip-path="url(#clip892)" style="stroke:#000000; stroke-linecap:round; stroke-linejoin:round; stroke-width:4; stroke-opacity:1; fill:none" points="1899.93,1387.89 1899.93,1387.89 1869.93,1387.89 1899.93,1387.89 "/>
<path clip-path="url(#clip892)" d="M1869.93 1339.39 L1869.93 1387.89 L1839.92 1387.89 L1839.92 1339.39 L1869.93 1339.39 L1869.93 1339.39  Z" fill="#808080" fill-rule="evenodd" fill-opacity="1"/>
<polyline clip-path="url(#clip892)" style="stroke:#000000; stroke-linecap:round; stroke-linejoin:round; stroke-width:4; stroke-opacity:1; fill:none" points="1869.93,1339.39 1869.93,1387.89 1839.92,1387.89 1839.92,1339.39 1869.93,1339.39 "/>
<path clip-path="url(#clip892)" d="M1839.92 1387.89 L1839.92 1387.89 L1809.92 1387.89 L1809.92 1387.89 L1839.92 1387.89 L1839.92 1387.89  Z" fill="#808080" fill-rule="evenodd" fill-opacity="1"/>
<polyline clip-path="url(#clip892)" style="stroke:#000000; stroke-linecap:round; stroke-linejoin:round; stroke-width:4; stroke-opacity:1; fill:none" points="1839.92,1387.89 1839.92,1387.89 1809.92,1387.89 1839.92,1387.89 "/>
<circle clip-path="url(#clip892)" style="fill:#808080; stroke:none; fill-opacity:0" cx="2334.95" cy="151.017" r="2"/>
<circle clip-path="url(#clip892)" style="fill:#808080; stroke:none; fill-opacity:0" cx="2304.95" cy="1096.86" r="2"/>
<circle clip-path="url(#clip892)" style="fill:#808080; stroke:none; fill-opacity:0" cx="2274.95" cy="1145.37" r="2"/>
<circle clip-path="url(#clip892)" style="fill:#808080; stroke:none; fill-opacity:0" cx="2244.95" cy="854.339" r="2"/>
<circle clip-path="url(#clip892)" style="fill:#808080; stroke:none; fill-opacity:0" cx="2214.95" cy="1290.88" r="2"/>
<circle clip-path="url(#clip892)" style="fill:#808080; stroke:none; fill-opacity:0" cx="2184.94" cy="1387.89" r="2"/>
<circle clip-path="url(#clip892)" style="fill:#808080; stroke:none; fill-opacity:0" cx="2154.94" cy="1218.13" r="2"/>
<circle clip-path="url(#clip892)" style="fill:#808080; stroke:none; fill-opacity:0" cx="2124.94" cy="1290.88" r="2"/>
<circle clip-path="url(#clip892)" style="fill:#808080; stroke:none; fill-opacity:0" cx="2094.94" cy="1339.39" r="2"/>
<circle clip-path="url(#clip892)" style="fill:#808080; stroke:none; fill-opacity:0" cx="2064.94" cy="1290.88" r="2"/>
<circle clip-path="url(#clip892)" style="fill:#808080; stroke:none; fill-opacity:0" cx="2034.94" cy="1315.14" r="2"/>
<circle clip-path="url(#clip892)" style="fill:#808080; stroke:none; fill-opacity:0" cx="2004.93" cy="1387.89" r="2"/>
<circle clip-path="url(#clip892)" style="fill:#808080; stroke:none; fill-opacity:0" cx="1974.93" cy="1363.64" r="2"/>
<circle clip-path="url(#clip892)" style="fill:#808080; stroke:none; fill-opacity:0" cx="1944.93" cy="1315.14" r="2"/>
<circle clip-path="url(#clip892)" style="fill:#808080; stroke:none; fill-opacity:0" cx="1914.93" cy="1387.89" r="2"/>
<circle clip-path="url(#clip892)" style="fill:#808080; stroke:none; fill-opacity:0" cx="1884.93" cy="1387.89" r="2"/>
<circle clip-path="url(#clip892)" style="fill:#808080; stroke:none; fill-opacity:0" cx="1854.93" cy="1339.39" r="2"/>
<circle clip-path="url(#clip892)" style="fill:#808080; stroke:none; fill-opacity:0" cx="1824.92" cy="1387.89" r="2"/>
<polyline clip-path="url(#clip892)" style="stroke:#0000ff; stroke-linecap:round; stroke-linejoin:round; stroke-width:8; stroke-opacity:1; fill:none" points="1846.55,767.118 1843.07,781.7 1839.59,795.94 1836.1,809.846 1832.62,823.425 1827.52,842.734 1822.42,861.383 1817.32,879.393 1812.22,896.788 1807.12,913.588 1802.02,929.812 1796.92,945.482 1791.82,960.616 1786.72,975.232 1781.62,989.349 1776.52,1002.98 1771.42,1016.15 1761.23,1041.15 1751.03,1064.46 1746.28,1074.77 1741.54,1084.75 1736.79,1094.41 1732.05,1103.76 1722.56,1121.58 1713.07,1138.28 1706.71,1148.88 1700.35,1159.04 1693.99,1168.76 1687.63,1178.07 1674.91,1195.51 1662.19,1211.51 1651.68,1223.72 1641.17,1235.08 1630.66,1245.66 1620.15,1255.51 1610.38,1264.05 1600.6,1272.04 1590.83,1279.52 1581.06,1286.51 1568.79,1294.66 1556.52,1302.15 1544.25,1309.03 1531.98,1315.37 1509.97,1325.48 1487.96,1334.19 1462.77,1342.67 1437.57,1349.82 1418.74,1354.41 1399.91,1358.45 1375.82,1362.91 1351.73,1366.7 1329.75,1369.65 1307.77,1372.19 1257.72,1376.74 1218.05,1379.38 1168.77,1381.81 1131.03,1383.2 1077.81,1384.63 1038.05,1385.4 992.826,1386.06 948.041,1386.55 898.769,1386.93 861.134,1387.15 813.641,1387.36 769.716,1387.49 724.414,1387.6 678.496,1387.68 630.548,1387.74 592.777,1387.77 506.762,1387.83 497.111,1387.83 "/>
<polyline clip-path="url(#clip892)" style="stroke:#000000; stroke-linecap:round; stroke-linejoin:round; stroke-width:8; stroke-opacity:1; fill:none" points="1925.99,1387.89 1917.38,1387.89 1908.76,1387.89 1900.15,1387.89 1891.53,1387.88 1882.92,1387.85 1874.31,1387.77 1865.69,1387.6 1857.08,1387.25 1848.46,1386.59 1839.85,1385.42 1831.24,1383.52 1822.62,1380.66 1814.01,1376.65 1805.39,1371.36 1796.78,1364.77 1788.17,1356.98 1779.55,1348.18 1770.94,1338.59 1762.32,1328.48 1753.71,1318.03 1745.1,1307.3 1736.48,1296.32 1727.87,1285.07 1719.25,1273.63 1710.64,1262.16 1702.03,1250.96 1693.41,1240.33 1684.8,1230.53 1676.18,1221.62 1667.57,1213.46 1658.96,1205.79 1650.34,1198.34 1641.73,1191.03 1633.11,1184.01 1624.5,1177.65 1615.89,1172.31 1607.27,1168.25 1598.66,1165.48 1590.04,1163.86 1581.43,1163.19 1572.82,1163.34 1564.2,1164.29 1555.59,1166.04 1546.98,1168.53 1538.36,1171.63 1529.75,1175.17 1521.13,1179 1512.52,1183.03 1503.91,1187.14 1495.29,1191.21 1486.68,1195.15 1478.06,1198.92 1469.45,1202.56 1460.84,1206.13 1452.22,1209.75 1443.61,1213.58 1434.99,1217.86 1426.38,1222.76 1417.77,1228.39 1409.15,1234.67 1400.54,1241.38 1391.92,1248.24 1383.31,1254.95 1374.7,1261.28 1366.08,1267.12 1357.47,1272.42 1348.85,1277.21 1340.24,1281.62 1331.63,1285.82 1323.01,1290 1314.4,1294.31 1305.78,1298.81 1297.17,1303.44 1288.56,1308.09 1279.94,1312.61 1271.33,1316.87 1262.71,1320.82 1254.1,1324.45 1245.49,1327.82 1236.87,1330.99 1228.26,1333.96 1219.64,1336.69 1211.03,1339.06 1202.42,1340.98 1193.8,1342.42 1185.19,1343.49 1176.57,1344.39 1167.96,1345.39 1159.35,1346.71 1150.73,1348.44 1142.12,1350.57 1133.5,1352.98 1124.89,1355.5 1116.28,1357.98 1107.66,1360.34 1099.05,1362.55 1090.43,1364.62 1081.82,1366.57 1073.21,1368.37 1064.59,1369.99 1055.98,1371.34 1047.36,1372.37 1038.75,1373.09 1030.14,1373.56 1021.52,1373.88 1012.91,1374.16 1004.3,1374.49 995.681,1374.89 987.067,1375.38 978.453,1375.96 969.839,1376.64 961.225,1377.39 952.611,1378.19 943.997,1378.97 935.383,1379.66 926.769,1380.19 918.155,1380.54 909.541,1380.72 900.927,1380.78 892.313,1380.8 883.7,1380.9 875.086,1381.16 866.472,1381.57 857.858,1382.08 849.244,1382.62 840.63,1383.13 832.016,1383.61 823.402,1384.09 814.788,1384.6 806.174,1385.12 797.56,1385.58 788.946,1385.91 780.332,1386.06 771.718,1386.07 763.104,1386 754.49,1385.91 745.876,1385.87 737.262,1385.89 728.648,1385.97 720.034,1386.07 711.42,1386.2 702.806,1386.34 694.192,1386.51 685.578,1386.69 676.964,1386.85 668.35,1386.98 659.736,1387.07 651.122,1387.13 642.508,1387.18 633.894,1387.23 625.28,1387.28 616.667,1387.35 608.053,1387.42 599.439,1387.49 590.825,1387.55 582.211,1387.62 573.597,1387.66 564.983,1387.7 556.369,1387.71 547.755,1387.72 539.141,1387.74 530.527,1387.76 521.913,1387.79 513.299,1387.83 504.685,1387.85 496.071,1387.87 487.457,1387.88 478.843,1387.89 470.229,1387.89 461.615,1387.89 453.001,1387.89 444.387,1387.89 435.773,1387.89 427.159,1387.89 418.545,1387.89 409.931,1387.89 401.317,1387.89 392.703,1387.89 384.089,1387.89 375.475,1387.89 366.861,1387.88 358.247,1387.87 349.633,1387.85 341.02,1387.83 332.406,1387.8 323.792,1387.77 315.178,1387.75 306.564,1387.75 297.95,1387.77 289.336,1387.79 280.722,1387.82 272.108,1387.85 263.494,1387.87 254.88,1387.88 246.266,1387.89 237.652,1387.89 229.038,1387.89 220.424,1387.89 211.81,1387.89 "/>
<path clip-path="url(#clip890)" d="M1791.56 494.044 L2284.67 494.044 L2284.67 192.246 L1791.56 192.246  Z" fill="#ffffff" fill-rule="evenodd" fill-opacity="1"/>
<polyline clip-path="url(#clip890)" style="stroke:#000000; stroke-linecap:round; stroke-linejoin:round; stroke-width:4; stroke-opacity:1; fill:none" points="1791.56,494.044 2284.67,494.044 2284.67,192.246 1791.56,192.246 1791.56,494.044 "/>
<path clip-path="url(#clip890)" d="M1814.25 297.875 L1950.41 297.875 L1950.41 237.516 L1814.25 237.516 L1814.25 297.875  Z" fill="#808080" fill-rule="evenodd" fill-opacity="1"/>
<polyline clip-path="url(#clip890)" style="stroke:#000000; stroke-linecap:round; stroke-linejoin:round; stroke-width:6; stroke-opacity:1; fill:none" points="1814.25,297.875 1950.41,297.875 1950.41,237.516 1814.25,237.516 1814.25,297.875 "/>
<g clip-path="url(#clip890)">
<text style="fill:#000000; fill-opacity:1; font-family:Arial,Helvetica Neue,Helvetica,sans-serif; font-size:71px; text-anchor:start;" transform="rotate(0, 1973.11, 293.695)" x="1973.11" y="293.695">Data</text>
</g>
<polyline clip-path="url(#clip890)" style="stroke:#0000ff; stroke-linecap:round; stroke-linejoin:round; stroke-width:12; stroke-opacity:1; fill:none" points="1814.25,343.145 1950.41,343.145 "/>
<g clip-path="url(#clip890)">
<text style="fill:#000000; fill-opacity:1; font-family:Arial,Helvetica Neue,Helvetica,sans-serif; font-size:71px; text-anchor:start;" transform="rotate(0, 1973.11, 369.145)" x="1973.11" y="369.145">Prior</text>
</g>
<polyline clip-path="url(#clip890)" style="stroke:#000000; stroke-linecap:round; stroke-linejoin:round; stroke-width:12; stroke-opacity:1; fill:none" points="1814.25,418.595 1950.41,418.595 "/>
<g clip-path="url(#clip890)">
<text style="fill:#000000; fill-opacity:1; font-family:Arial,Helvetica Neue,Helvetica,sans-serif; font-size:71px; text-anchor:start;" transform="rotate(0, 1973.11, 444.595)" x="1973.11" y="444.595">Posterior</text>
</g>
<path clip-path="url(#clip890)" d="M412.431 645.768 L1229.41 645.768 L1229.41 151.017 L412.431 151.017  Z" fill="#ffffff" fill-rule="evenodd" fill-opacity="1"/>
<defs>
  <clipPath id="clip893">
    <rect x="412" y="151" width="818" height="496"/>
  </clipPath>
</defs>
<polyline clip-path="url(#clip890)" style="stroke:#000000; stroke-linecap:round; stroke-linejoin:round; stroke-width:4; stroke-opacity:1; fill:none" points="412.431,645.768 1229.41,645.768 "/>
<polyline clip-path="url(#clip890)" style="stroke:#000000; stroke-linecap:round; stroke-linejoin:round; stroke-width:4; stroke-opacity:1; fill:none" points="435.553,645.768 435.553,626.87 "/>
<polyline clip-path="url(#clip890)" style="stroke:#000000; stroke-linecap:round; stroke-linejoin:round; stroke-width:4; stroke-opacity:1; fill:none" points="644.757,645.768 644.757,626.87 "/>
<polyline clip-path="url(#clip890)" style="stroke:#000000; stroke-linecap:round; stroke-linejoin:round; stroke-width:4; stroke-opacity:1; fill:none" points="853.96,645.768 853.96,626.87 "/>
<polyline clip-path="url(#clip890)" style="stroke:#000000; stroke-linecap:round; stroke-linejoin:round; stroke-width:4; stroke-opacity:1; fill:none" points="1063.16,645.768 1063.16,626.87 "/>
<g clip-path="url(#clip890)">
<text style="fill:#000000; fill-opacity:1; font-family:Arial,Helvetica Neue,Helvetica,sans-serif; font-size:71px; text-anchor:middle;" transform="rotate(0, 435.553, 728.692)" x="435.553" y="728.692">0</text>
</g>
<g clip-path="url(#clip890)">
<text style="fill:#000000; fill-opacity:1; font-family:Arial,Helvetica Neue,Helvetica,sans-serif; font-size:71px; text-anchor:middle;" transform="rotate(0, 644.757, 728.692)" x="644.757" y="728.692">10</text>
</g>
<g clip-path="url(#clip890)">
<text style="fill:#000000; fill-opacity:1; font-family:Arial,Helvetica Neue,Helvetica,sans-serif; font-size:71px; text-anchor:middle;" transform="rotate(0, 853.96, 728.692)" x="853.96" y="728.692">20</text>
</g>
<g clip-path="url(#clip890)">
<text style="fill:#000000; fill-opacity:1; font-family:Arial,Helvetica Neue,Helvetica,sans-serif; font-size:71px; text-anchor:middle;" transform="rotate(0, 1063.16, 728.692)" x="1063.16" y="728.692">30</text>
</g>
<g clip-path="url(#clip890)">
<text style="fill:#000000; fill-opacity:1; font-family:Arial,Helvetica Neue,Helvetica,sans-serif; font-size:95px; text-anchor:middle;" transform="rotate(0, 820.921, 844.017)" x="820.921" y="844.017">α,β</text>
</g>
<polyline clip-path="url(#clip890)" style="stroke:#000000; stroke-linecap:round; stroke-linejoin:round; stroke-width:4; stroke-opacity:1; fill:none" points="412.431,645.768 412.431,151.017 "/>
<polyline clip-path="url(#clip893)" style="stroke:#000000; stroke-linecap:round; stroke-linejoin:round; stroke-width:8; stroke-opacity:1; fill:none" points="446.352,631.765 446.441,631.764 446.529,631.763 446.618,631.759 446.706,631.75 446.795,631.729 446.883,631.689 446.972,631.613 447.06,631.484 447.149,631.282 447.237,630.991 447.326,630.606 447.414,630.136 447.503,629.61 447.591,629.067 447.68,628.542 447.768,628.052 447.857,627.591 447.945,627.124 448.034,626.605 448.122,625.994 448.211,625.266 448.299,624.415 448.388,623.436 448.476,622.313 448.565,621.003 448.654,619.449 448.742,617.591 448.831,615.388 448.919,612.832 449.008,609.952 449.096,606.803 449.185,603.446 449.273,599.923 449.362,596.231 449.45,592.308 449.539,588.023 449.627,583.19 449.716,577.59 449.804,571.022 449.893,563.362 449.981,554.612 450.07,544.939 450.158,534.652 450.247,524.147 450.335,513.808 450.424,503.915 450.512,494.574 450.601,485.699 450.689,477.054 450.778,468.312 450.866,459.134 450.955,449.217 451.043,438.328 451.132,426.32 451.22,413.149 451.309,398.886 451.398,383.736 451.486,368.029 451.575,352.186 451.663,336.643 451.752,321.761 451.84,307.754 451.929,294.662 452.017,282.397 452.106,270.824 452.194,259.858 452.283,249.517 452.371,239.914 452.46,231.176 452.548,223.35 452.637,216.307 452.725,209.734 452.814,203.216 452.902,196.405 452.991,189.219 453.079,181.95 453.168,175.236 453.256,169.845 453.345,166.38 453.433,165.019 453.522,165.437 453.61,166.928 453.699,168.694 453.787,170.161 453.876,171.198 453.965,172.15 454.053,173.689 454.142,176.544 454.23,181.24 454.319,187.929 454.407,196.373 454.496,206.041 454.584,216.274 454.673,226.429 454.761,235.996 454.85,244.659 454.938,252.328 455.027,259.139 455.115,265.435 455.204,271.716 455.292,278.555 455.381,286.473 455.469,295.803 455.558,306.586 455.646,318.556 455.735,331.237 455.823,344.096 455.912,356.703 456,368.803 456.089,380.309 456.177,391.228 456.266,401.592 456.354,411.426 456.443,420.746 456.531,429.587 456.62,437.999 456.709,446.036 456.797,453.723 456.886,461.043 456.974,467.939 457.063,474.364 457.151,480.328 457.24,485.94 457.328,491.412 457.417,497.02 457.505,503.023 457.594,509.582 457.682,516.703 457.771,524.224 457.859,531.864 457.948,539.315 458.036,546.336 458.125,552.821 458.213,558.799 458.302,564.39 458.39,569.733 458.479,574.921 458.567,579.978 458.656,584.859 458.744,589.47 458.833,593.7 458.921,597.442 459.01,600.622 459.098,603.222 459.187,605.291 459.275,606.945 459.364,608.337 459.453,609.625 459.541,610.929 459.63,612.316 459.718,613.794 459.807,615.319 459.895,616.811 459.984,618.172 460.072,619.303 460.161,620.14 460.249,620.667 460.338,620.94 460.426,621.078 460.515,621.234 460.603,621.563 460.692,622.17 460.78,623.083 460.869,624.244 460.957,625.524 461.046,626.769 461.134,627.843 461.223,628.665 461.311,629.226 461.4,629.578 461.488,629.806 461.577,629.994 461.665,630.2 461.754,630.445 461.842,630.716 461.931,630.984 462.02,631.217 462.108,631.393 462.197,631.506 462.285,631.557 462.374,631.561 462.462,631.533 462.551,631.493 462.639,631.457 462.728,631.44 462.816,631.446 462.905,631.478 462.993,631.526 463.082,631.583 463.17,631.637 463.259,631.682 463.347,631.716 463.436,631.738 463.524,631.752 463.613,631.759 463.701,631.762 463.79,631.764 463.878,631.765 463.967,631.765 "/>
<polyline clip-path="url(#clip893)" style="stroke:#000000; stroke-linecap:round; stroke-linejoin:round; stroke-width:8; stroke-opacity:1; fill:none" stroke-dasharray="4, 8" points="458.241,631.765 460.195,631.765 462.15,631.765 464.104,631.765 466.059,631.764 468.014,631.763 469.968,631.761 471.923,631.755 473.878,631.745 475.832,631.728 477.787,631.698 479.741,631.65 481.696,631.575 483.651,631.464 485.605,631.302 487.56,631.08 489.515,630.787 491.469,630.416 493.424,629.962 495.379,629.42 497.333,628.786 499.288,628.057 501.242,627.234 503.197,626.328 505.152,625.353 507.106,624.325 509.061,623.253 511.016,622.137 512.97,620.971 514.925,619.758 516.879,618.512 518.834,617.262 520.789,616.047 522.743,614.896 524.698,613.827 526.653,612.832 528.607,611.891 530.562,610.983 532.516,610.098 534.471,609.253 536.426,608.487 538.38,607.838 540.335,607.327 542.29,606.939 544.244,606.63 546.199,606.347 548.154,606.059 550.108,605.773 552.063,605.537 554.017,605.413 555.972,605.449 557.927,605.66 559.881,606.024 561.836,606.5 563.791,607.045 565.745,607.628 567.7,608.217 569.654,608.783 571.609,609.298 573.564,609.744 575.518,610.133 577.473,610.507 579.428,610.923 581.382,611.437 583.337,612.075 585.291,612.824 587.246,613.641 589.201,614.464 591.155,615.234 593.11,615.909 595.065,616.473 597.019,616.933 598.974,617.324 600.929,617.694 602.883,618.086 604.838,618.529 606.792,619.028 608.747,619.569 610.702,620.124 612.656,620.671 614.611,621.191 616.566,621.679 618.52,622.142 620.475,622.594 622.429,623.052 624.384,623.524 626.339,624.005 628.293,624.476 630.248,624.912 632.203,625.294 634.157,625.616 636.112,625.885 638.067,626.118 640.021,626.34 641.976,626.576 643.93,626.842 645.885,627.143 647.84,627.464 649.794,627.783 651.749,628.076 653.704,628.332 655.658,628.554 657.613,628.752 659.567,628.936 661.522,629.11 663.477,629.271 665.431,629.407 667.386,629.513 669.341,629.586 671.295,629.634 673.25,629.672 675.204,629.72 677.159,629.789 679.114,629.884 681.068,629.996 683.023,630.115 684.978,630.229 686.932,630.336 688.887,630.439 690.842,630.541 692.796,630.643 694.751,630.737 696.705,630.816 698.66,630.877 700.615,630.922 702.569,630.96 704.524,630.998 706.479,631.039 708.433,631.079 710.388,631.114 712.342,631.136 714.297,631.143 716.252,631.137 718.206,631.125 720.161,631.119 722.116,631.13 724.07,631.167 726.025,631.231 727.979,631.315 729.934,631.406 731.889,631.489 733.843,631.555 735.798,631.6 737.753,631.625 739.707,631.637 741.662,631.64 743.617,631.64 745.571,631.64 747.526,631.641 749.48,631.644 751.435,631.645 753.39,631.645 755.344,631.641 757.299,631.635 759.254,631.627 761.208,631.62 763.163,631.616 765.117,631.615 767.072,631.617 769.027,631.621 770.981,631.627 772.936,631.634 774.891,631.645 776.845,631.66 778.8,631.678 780.754,631.699 782.709,631.719 784.664,631.735 786.618,631.748 788.573,631.756 790.528,631.761 792.482,631.763 794.437,631.764 796.392,631.763 798.346,631.762 800.301,631.76 802.255,631.756 804.21,631.752 806.165,631.748 808.119,631.744 810.074,631.74 812.029,631.736 813.983,631.732 815.938,631.727 817.892,631.722 819.847,631.718 821.802,631.717 823.756,631.719 825.711,631.724 827.666,631.732 829.62,631.741 831.575,631.749 833.53,631.756 835.484,631.76 837.439,631.763 839.393,631.764 841.348,631.765 843.303,631.765 845.257,631.765 847.212,631.765 "/>
<polyline clip-path="url(#clip893)" style="stroke:#0000ff; stroke-linecap:round; stroke-linejoin:round; stroke-width:8; stroke-opacity:1; fill:none" points="435.553,601.945 437.542,602.645 439.532,603.329 441.521,603.997 443.51,604.65 446.423,605.577 449.335,606.473 452.248,607.338 455.161,608.174 458.073,608.981 460.986,609.76 463.899,610.513 466.811,611.24 469.724,611.942 472.637,612.62 475.549,613.275 478.462,613.907 484.287,615.108 490.112,616.228 492.822,616.723 495.532,617.203 498.242,617.667 500.952,618.116 506.372,618.972 511.792,619.774 515.424,620.284 519.057,620.771 522.689,621.238 526.321,621.686 533.586,622.524 540.85,623.292 546.853,623.879 552.856,624.425 558.859,624.933 564.862,625.406 570.444,625.816 576.026,626.2 581.608,626.559 587.19,626.895 594.197,627.286 601.205,627.646 608.212,627.977 615.22,628.281 627.791,628.767 640.362,629.185 654.752,629.593 669.141,629.936 679.898,630.157 690.654,630.351 704.411,630.565 718.168,630.747 730.725,630.889 743.281,631.011 771.863,631.229 794.52,631.356 822.669,631.473 844.226,631.539 874.619,631.608 897.331,631.645 923.159,631.677 948.739,631.7 976.88,631.719 998.376,631.729 1025.5,631.739 1050.59,631.746 1076.46,631.751 1102.69,631.755 1130.08,631.758 1151.65,631.759 1200.78,631.762 1206.29,631.762 "/>
<path clip-path="url(#clip890)" d="M931.964 469.307 L1202.18 469.307 L1202.18 167.508 L931.964 167.508  Z" fill="#ffffff" fill-rule="evenodd" fill-opacity="1"/>
<polyline clip-path="url(#clip890)" style="stroke:#000000; stroke-linecap:round; stroke-linejoin:round; stroke-width:4; stroke-opacity:1; fill:none" points="931.964,469.307 1202.18,469.307 1202.18,167.508 931.964,167.508 931.964,469.307 "/>
<polyline clip-path="url(#clip890)" style="stroke:#000000; stroke-linecap:round; stroke-linejoin:round; stroke-width:12; stroke-opacity:1; fill:none" points="941.041,242.958 995.507,242.958 "/>
<g clip-path="url(#clip890)">
<text style="fill:#000000; fill-opacity:1; font-family:Arial,Helvetica Neue,Helvetica,sans-serif; font-size:71px; text-anchor:start;" transform="rotate(0, 1004.58, 268.958)" x="1004.58" y="268.958">α</text>
</g>
<polyline clip-path="url(#clip890)" style="stroke:#000000; stroke-linecap:round; stroke-linejoin:round; stroke-width:12; stroke-opacity:1; fill:none" stroke-dasharray="6, 12" points="941.041,318.407 995.507,318.407 "/>
<g clip-path="url(#clip890)">
<text style="fill:#000000; fill-opacity:1; font-family:Arial,Helvetica Neue,Helvetica,sans-serif; font-size:71px; text-anchor:start;" transform="rotate(0, 1004.58, 344.407)" x="1004.58" y="344.407">β</text>
</g>
<polyline clip-path="url(#clip890)" style="stroke:#0000ff; stroke-linecap:round; stroke-linejoin:round; stroke-width:12; stroke-opacity:1; fill:none" points="941.041,393.857 995.507,393.857 "/>
<g clip-path="url(#clip890)">
<text style="fill:#000000; fill-opacity:1; font-family:Arial,Helvetica Neue,Helvetica,sans-serif; font-size:71px; text-anchor:start;" transform="rotate(0, 1004.58, 419.857)" x="1004.58" y="419.857">Priors</text>
</g>
</svg>
