<?xml version="1.0" encoding="utf-8"?>
<svg xmlns="http://www.w3.org/2000/svg" xmlns:xlink="http://www.w3.org/1999/xlink" width="600" height="400" viewBox="0 0 2400 1600">
<defs>
  <clipPath id="clip670">
    <rect x="0" y="0" width="2400" height="1600"/>
  </clipPath>
</defs>
<path clip-path="url(#clip670)" d="M0 1600 L2400 1600 L2400 0 L0 0  Z" fill="#ffffff" fill-rule="evenodd" fill-opacity="1"/>
<defs>
  <clipPath id="clip671">
    <rect x="480" y="0" width="1681" height="1600"/>
  </clipPath>
</defs>
<path clip-path="url(#clip670)" d="M270.165 1387.89 L2352.76 1387.89 L2352.76 151.017 L270.165 151.017  Z" fill="#ffffff" fill-rule="evenodd" fill-opacity="1"/>
<defs>
  <clipPath id="clip672">
    <rect x="270" y="151" width="2084" height="1238"/>
  </clipPath>
</defs>
<polyline clip-path="url(#clip672)" style="stroke:#000000; stroke-linecap:round; stroke-linejoin:round; stroke-width:2; stroke-opacity:0.1; fill:none" points="2352.76,1387.89 2352.76,151.017 "/>
<polyline clip-path="url(#clip672)" style="stroke:#000000; stroke-linecap:round; stroke-linejoin:round; stroke-width:2; stroke-opacity:0.1; fill:none" points="2042.45,1387.89 2042.45,151.017 "/>
<polyline clip-path="url(#clip672)" style="stroke:#000000; stroke-linecap:round; stroke-linejoin:round; stroke-width:2; stroke-opacity:0.1; fill:none" points="1732.15,1387.89 1732.15,151.017 "/>
<polyline clip-path="url(#clip672)" style="stroke:#000000; stroke-linecap:round; stroke-linejoin:round; stroke-width:2; stroke-opacity:0.1; fill:none" points="1421.84,1387.89 1421.84,151.017 "/>
<polyline clip-path="url(#clip672)" style="stroke:#000000; stroke-linecap:round; stroke-linejoin:round; stroke-width:2; stroke-opacity:0.1; fill:none" points="1111.54,1387.89 1111.54,151.017 "/>
<polyline clip-path="url(#clip672)" style="stroke:#000000; stroke-linecap:round; stroke-linejoin:round; stroke-width:2; stroke-opacity:0.1; fill:none" points="801.235,1387.89 801.235,151.017 "/>
<polyline clip-path="url(#clip672)" style="stroke:#000000; stroke-linecap:round; stroke-linejoin:round; stroke-width:2; stroke-opacity:0.1; fill:none" points="490.93,1387.89 490.93,151.017 "/>
<polyline clip-path="url(#clip672)" style="stroke:#000000; stroke-linecap:round; stroke-linejoin:round; stroke-width:2; stroke-opacity:0.1; fill:none" points="2352.76,1387.89 270.165,1387.89 "/>
<polyline clip-path="url(#clip672)" style="stroke:#000000; stroke-linecap:round; stroke-linejoin:round; stroke-width:2; stroke-opacity:0.1; fill:none" points="2352.76,1192.19 270.165,1192.19 "/>
<polyline clip-path="url(#clip672)" style="stroke:#000000; stroke-linecap:round; stroke-linejoin:round; stroke-width:2; stroke-opacity:0.1; fill:none" points="2352.76,996.496 270.165,996.496 "/>
<polyline clip-path="url(#clip672)" style="stroke:#000000; stroke-linecap:round; stroke-linejoin:round; stroke-width:2; stroke-opacity:0.1; fill:none" points="2352.76,800.797 270.165,800.797 "/>
<polyline clip-path="url(#clip672)" style="stroke:#000000; stroke-linecap:round; stroke-linejoin:round; stroke-width:2; stroke-opacity:0.1; fill:none" points="2352.76,605.098 270.165,605.098 "/>
<polyline clip-path="url(#clip672)" style="stroke:#000000; stroke-linecap:round; stroke-linejoin:round; stroke-width:2; stroke-opacity:0.1; fill:none" points="2352.76,409.4 270.165,409.4 "/>
<polyline clip-path="url(#clip672)" style="stroke:#000000; stroke-linecap:round; stroke-linejoin:round; stroke-width:2; stroke-opacity:0.1; fill:none" points="2352.76,213.701 270.165,213.701 "/>
<polyline clip-path="url(#clip670)" style="stroke:#000000; stroke-linecap:round; stroke-linejoin:round; stroke-width:4; stroke-opacity:1; fill:none" points="2352.76,1387.89 270.165,1387.89 "/>
<polyline clip-path="url(#clip670)" style="stroke:#000000; stroke-linecap:round; stroke-linejoin:round; stroke-width:4; stroke-opacity:1; fill:none" points="2352.76,1387.89 2352.76,1369 "/>
<polyline clip-path="url(#clip670)" style="stroke:#000000; stroke-linecap:round; stroke-linejoin:round; stroke-width:4; stroke-opacity:1; fill:none" points="2042.45,1387.89 2042.45,1369 "/>
<polyline clip-path="url(#clip670)" style="stroke:#000000; stroke-linecap:round; stroke-linejoin:round; stroke-width:4; stroke-opacity:1; fill:none" points="1732.15,1387.89 1732.15,1369 "/>
<polyline clip-path="url(#clip670)" style="stroke:#000000; stroke-linecap:round; stroke-linejoin:round; stroke-width:4; stroke-opacity:1; fill:none" points="1421.84,1387.89 1421.84,1369 "/>
<polyline clip-path="url(#clip670)" style="stroke:#000000; stroke-linecap:round; stroke-linejoin:round; stroke-width:4; stroke-opacity:1; fill:none" points="1111.54,1387.89 1111.54,1369 "/>
<polyline clip-path="url(#clip670)" style="stroke:#000000; stroke-linecap:round; stroke-linejoin:round; stroke-width:4; stroke-opacity:1; fill:none" points="801.235,1387.89 801.235,1369 "/>
<polyline clip-path="url(#clip670)" style="stroke:#000000; stroke-linecap:round; stroke-linejoin:round; stroke-width:4; stroke-opacity:1; fill:none" points="490.93,1387.89 490.93,1369 "/>
<g clip-path="url(#clip670)">
<text style="fill:#000000; fill-opacity:1; font-family:Arial,Helvetica Neue,Helvetica,sans-serif; font-size:71px; text-anchor:middle;" transform="rotate(0, 2352.76, 1470.82)" x="2352.76" y="1470.82">0</text>
</g>
<g clip-path="url(#clip670)">
<text style="fill:#000000; fill-opacity:1; font-family:Arial,Helvetica Neue,Helvetica,sans-serif; font-size:71px; text-anchor:middle;" transform="rotate(0, 2042.45, 1470.82)" x="2042.45" y="1470.82">20</text>
</g>
<g clip-path="url(#clip670)">
<text style="fill:#000000; fill-opacity:1; font-family:Arial,Helvetica Neue,Helvetica,sans-serif; font-size:71px; text-anchor:middle;" transform="rotate(0, 1732.15, 1470.82)" x="1732.15" y="1470.82">40</text>
</g>
<g clip-path="url(#clip670)">
<text style="fill:#000000; fill-opacity:1; font-family:Arial,Helvetica Neue,Helvetica,sans-serif; font-size:71px; text-anchor:middle;" transform="rotate(0, 1421.84, 1470.82)" x="1421.84" y="1470.82">60</text>
</g>
<g clip-path="url(#clip670)">
<text style="fill:#000000; fill-opacity:1; font-family:Arial,Helvetica Neue,Helvetica,sans-serif; font-size:71px; text-anchor:middle;" transform="rotate(0, 1111.54, 1470.82)" x="1111.54" y="1470.82">80</text>
</g>
<g clip-path="url(#clip670)">
<text style="fill:#000000; fill-opacity:1; font-family:Arial,Helvetica Neue,Helvetica,sans-serif; font-size:71px; text-anchor:middle;" transform="rotate(0, 801.235, 1470.82)" x="801.235" y="1470.82">100</text>
</g>
<g clip-path="url(#clip670)">
<text style="fill:#000000; fill-opacity:1; font-family:Arial,Helvetica Neue,Helvetica,sans-serif; font-size:71px; text-anchor:middle;" transform="rotate(0, 490.93, 1470.82)" x="490.93" y="1470.82">120</text>
</g>
<g clip-path="url(#clip670)">
<text style="fill:#000000; fill-opacity:1; font-family:Arial,Helvetica Neue,Helvetica,sans-serif; font-size:95px; text-anchor:middle;" transform="rotate(0, 1311.46, 1586.14)" x="1311.46" y="1586.14">τ</text>
</g>
<polyline clip-path="url(#clip670)" style="stroke:#000000; stroke-linecap:round; stroke-linejoin:round; stroke-width:4; stroke-opacity:1; fill:none" points="270.165,1387.89 270.165,151.017 "/>
<polyline clip-path="url(#clip670)" style="stroke:#000000; stroke-linecap:round; stroke-linejoin:round; stroke-width:4; stroke-opacity:1; fill:none" points="270.165,1387.89 289.063,1387.89 "/>
<polyline clip-path="url(#clip670)" style="stroke:#000000; stroke-linecap:round; stroke-linejoin:round; stroke-width:4; stroke-opacity:1; fill:none" points="270.165,1192.19 289.063,1192.19 "/>
<polyline clip-path="url(#clip670)" style="stroke:#000000; stroke-linecap:round; stroke-linejoin:round; stroke-width:4; stroke-opacity:1; fill:none" points="270.165,996.496 289.063,996.496 "/>
<polyline clip-path="url(#clip670)" style="stroke:#000000; stroke-linecap:round; stroke-linejoin:round; stroke-width:4; stroke-opacity:1; fill:none" points="270.165,800.797 289.063,800.797 "/>
<polyline clip-path="url(#clip670)" style="stroke:#000000; stroke-linecap:round; stroke-linejoin:round; stroke-width:4; stroke-opacity:1; fill:none" points="270.165,605.098 289.063,605.098 "/>
<polyline clip-path="url(#clip670)" style="stroke:#000000; stroke-linecap:round; stroke-linejoin:round; stroke-width:4; stroke-opacity:1; fill:none" points="270.165,409.4 289.063,409.4 "/>
<polyline clip-path="url(#clip670)" style="stroke:#000000; stroke-linecap:round; stroke-linejoin:round; stroke-width:4; stroke-opacity:1; fill:none" points="270.165,213.701 289.063,213.701 "/>
<g clip-path="url(#clip670)">
<text style="fill:#000000; fill-opacity:1; font-family:Arial,Helvetica Neue,Helvetica,sans-serif; font-size:71px; text-anchor:middle;" transform="rotate(0, 183.986, 1413.89)" x="183.986" y="1413.89">0.0</text>
</g>
<g clip-path="url(#clip670)">
<text style="fill:#000000; fill-opacity:1; font-family:Arial,Helvetica Neue,Helvetica,sans-serif; font-size:71px; text-anchor:middle;" transform="rotate(0, 183.986, 1218.19)" x="183.986" y="1218.19">0.1</text>
</g>
<g clip-path="url(#clip670)">
<text style="fill:#000000; fill-opacity:1; font-family:Arial,Helvetica Neue,Helvetica,sans-serif; font-size:71px; text-anchor:middle;" transform="rotate(0, 183.986, 1022.5)" x="183.986" y="1022.5">0.2</text>
</g>
<g clip-path="url(#clip670)">
<text style="fill:#000000; fill-opacity:1; font-family:Arial,Helvetica Neue,Helvetica,sans-serif; font-size:71px; text-anchor:middle;" transform="rotate(0, 183.986, 826.797)" x="183.986" y="826.797">0.3</text>
</g>
<g clip-path="url(#clip670)">
<text style="fill:#000000; fill-opacity:1; font-family:Arial,Helvetica Neue,Helvetica,sans-serif; font-size:71px; text-anchor:middle;" transform="rotate(0, 183.986, 631.098)" x="183.986" y="631.098">0.4</text>
</g>
<g clip-path="url(#clip670)">
<text style="fill:#000000; fill-opacity:1; font-family:Arial,Helvetica Neue,Helvetica,sans-serif; font-size:71px; text-anchor:middle;" transform="rotate(0, 183.986, 435.4)" x="183.986" y="435.4">0.5</text>
</g>
<g clip-path="url(#clip670)">
<text style="fill:#000000; fill-opacity:1; font-family:Arial,Helvetica Neue,Helvetica,sans-serif; font-size:71px; text-anchor:middle;" transform="rotate(0, 183.986, 239.701)" x="183.986" y="239.701">0.6</text>
</g>
<g clip-path="url(#clip670)">
<text style="fill:#000000; fill-opacity:1; font-family:Arial,Helvetica Neue,Helvetica,sans-serif; font-size:95px; text-anchor:middle;" transform="rotate(-90, 80.007, 769.455)" x="80.007" y="769.455">Density</text>
</g>
<g clip-path="url(#clip670)">
<text style="fill:#000000; fill-opacity:1; font-family:Arial,Helvetica Neue,Helvetica,sans-serif; font-size:125px; text-anchor:middle;" transform="rotate(0, 1311.46, 109.2)" x="1311.46" y="109.2">Gonorynchiformes</text>
</g>
<path clip-path="url(#clip672)" d="M2039.81 1378.62 L2039.81 1387.89 L1951.28 1387.89 L1951.28 1378.62 L2039.81 1378.62 L2039.81 1378.62  Z" fill="#808080" fill-rule="evenodd" fill-opacity="1"/>
<polyline clip-path="url(#clip672)" style="stroke:#000000; stroke-linecap:round; stroke-linejoin:round; stroke-width:4; stroke-opacity:1; fill:none" points="2039.81,1378.62 2039.81,1387.89 1951.28,1387.89 1951.28,1378.62 2039.81,1378.62 "/>
<path clip-path="url(#clip672)" d="M1951.28 1387.89 L1951.28 1387.89 L1862.75 1387.89 L1862.75 1387.89 L1951.28 1387.89 L1951.28 1387.89  Z" fill="#808080" fill-rule="evenodd" fill-opacity="1"/>
<polyline clip-path="url(#clip672)" style="stroke:#000000; stroke-linecap:round; stroke-linejoin:round; stroke-width:4; stroke-opacity:1; fill:none" points="1951.28,1387.89 1951.28,1387.89 1862.75,1387.89 1951.28,1387.89 "/>
<path clip-path="url(#clip672)" d="M1862.75 1387.89 L1862.75 1387.89 L1774.22 1387.89 L1774.22 1387.89 L1862.75 1387.89 L1862.75 1387.89  Z" fill="#808080" fill-rule="evenodd" fill-opacity="1"/>
<polyline clip-path="url(#clip672)" style="stroke:#000000; stroke-linecap:round; stroke-linejoin:round; stroke-width:4; stroke-opacity:1; fill:none" points="1862.75,1387.89 1862.75,1387.89 1774.22,1387.89 1862.75,1387.89 "/>
<path clip-path="url(#clip672)" d="M1774.22 1387.89 L1774.22 1387.89 L1685.69 1387.89 L1685.69 1387.89 L1774.22 1387.89 L1774.22 1387.89  Z" fill="#808080" fill-rule="evenodd" fill-opacity="1"/>
<polyline clip-path="url(#clip672)" style="stroke:#000000; stroke-linecap:round; stroke-linejoin:round; stroke-width:4; stroke-opacity:1; fill:none" points="1774.22,1387.89 1774.22,1387.89 1685.69,1387.89 1774.22,1387.89 "/>
<path clip-path="url(#clip672)" d="M1685.69 1387.89 L1685.69 1387.89 L1597.16 1387.89 L1597.16 1387.89 L1685.69 1387.89 L1685.69 1387.89  Z" fill="#808080" fill-rule="evenodd" fill-opacity="1"/>
<polyline clip-path="url(#clip672)" style="stroke:#000000; stroke-linecap:round; stroke-linejoin:round; stroke-width:4; stroke-opacity:1; fill:none" points="1685.69,1387.89 1685.69,1387.89 1597.16,1387.89 1685.69,1387.89 "/>
<path clip-path="url(#clip672)" d="M1597.16 1369.36 L1597.16 1387.89 L1508.63 1387.89 L1508.63 1369.36 L1597.16 1369.36 L1597.16 1369.36  Z" fill="#808080" fill-rule="evenodd" fill-opacity="1"/>
<polyline clip-path="url(#clip672)" style="stroke:#000000; stroke-linecap:round; stroke-linejoin:round; stroke-width:4; stroke-opacity:1; fill:none" points="1597.16,1369.36 1597.16,1387.89 1508.63,1387.89 1508.63,1369.36 1597.16,1369.36 "/>
<path clip-path="url(#clip672)" d="M1508.63 1387.89 L1508.63 1387.89 L1420.1 1387.89 L1420.1 1387.89 L1508.63 1387.89 L1508.63 1387.89  Z" fill="#808080" fill-rule="evenodd" fill-opacity="1"/>
<polyline clip-path="url(#clip672)" style="stroke:#000000; stroke-linecap:round; stroke-linejoin:round; stroke-width:4; stroke-opacity:1; fill:none" points="1508.63,1387.89 1508.63,1387.89 1420.1,1387.89 1508.63,1387.89 "/>
<path clip-path="url(#clip672)" d="M1420.1 1323.01 L1420.1 1387.89 L1331.57 1387.89 L1331.57 1323.01 L1420.1 1323.01 L1420.1 1323.01  Z" fill="#808080" fill-rule="evenodd" fill-opacity="1"/>
<polyline clip-path="url(#clip672)" style="stroke:#000000; stroke-linecap:round; stroke-linejoin:round; stroke-width:4; stroke-opacity:1; fill:none" points="1420.1,1323.01 1420.1,1387.89 1331.57,1387.89 1331.57,1323.01 1420.1,1323.01 "/>
<path clip-path="url(#clip672)" d="M1331.57 1350.82 L1331.57 1387.89 L1243.04 1387.89 L1243.04 1350.82 L1331.57 1350.82 L1331.57 1350.82  Z" fill="#808080" fill-rule="evenodd" fill-opacity="1"/>
<polyline clip-path="url(#clip672)" style="stroke:#000000; stroke-linecap:round; stroke-linejoin:round; stroke-width:4; stroke-opacity:1; fill:none" points="1331.57,1350.82 1331.57,1387.89 1243.04,1387.89 1243.04,1350.82 1331.57,1350.82 "/>
<path clip-path="url(#clip672)" d="M1243.04 1387.89 L1243.04 1387.89 L1154.51 1387.89 L1154.51 1387.89 L1243.04 1387.89 L1243.04 1387.89  Z" fill="#808080" fill-rule="evenodd" fill-opacity="1"/>
<polyline clip-path="url(#clip672)" style="stroke:#000000; stroke-linecap:round; stroke-linejoin:round; stroke-width:4; stroke-opacity:1; fill:none" points="1243.04,1387.89 1243.04,1387.89 1154.51,1387.89 1243.04,1387.89 "/>
<path clip-path="url(#clip672)" d="M1154.51 1360.09 L1154.51 1387.89 L1065.98 1387.89 L1065.98 1360.09 L1154.51 1360.09 L1154.51 1360.09  Z" fill="#808080" fill-rule="evenodd" fill-opacity="1"/>
<polyline clip-path="url(#clip672)" style="stroke:#000000; stroke-linecap:round; stroke-linejoin:round; stroke-width:4; stroke-opacity:1; fill:none" points="1154.51,1360.09 1154.51,1387.89 1065.98,1387.89 1065.98,1360.09 1154.51,1360.09 "/>
<path clip-path="url(#clip672)" d="M1065.98 1369.36 L1065.98 1387.89 L977.447 1387.89 L977.447 1369.36 L1065.98 1369.36 L1065.98 1369.36  Z" fill="#808080" fill-rule="evenodd" fill-opacity="1"/>
<polyline clip-path="url(#clip672)" style="stroke:#000000; stroke-linecap:round; stroke-linejoin:round; stroke-width:4; stroke-opacity:1; fill:none" points="1065.98,1369.36 1065.98,1387.89 977.447,1387.89 977.447,1369.36 1065.98,1369.36 "/>
<path clip-path="url(#clip672)" d="M977.447 1387.89 L977.447 1387.89 L888.916 1387.89 L888.916 1387.89 L977.447 1387.89 L977.447 1387.89  Z" fill="#808080" fill-rule="evenodd" fill-opacity="1"/>
<polyline clip-path="url(#clip672)" style="stroke:#000000; stroke-linecap:round; stroke-linejoin:round; stroke-width:4; stroke-opacity:1; fill:none" points="977.447,1387.89 977.447,1387.89 888.916,1387.89 977.447,1387.89 "/>
<path clip-path="url(#clip672)" d="M888.916 1341.55 L888.916 1387.89 L800.385 1387.89 L800.385 1341.55 L888.916 1341.55 L888.916 1341.55  Z" fill="#808080" fill-rule="evenodd" fill-opacity="1"/>
<polyline clip-path="url(#clip672)" style="stroke:#000000; stroke-linecap:round; stroke-linejoin:round; stroke-width:4; stroke-opacity:1; fill:none" points="888.916,1341.55 888.916,1387.89 800.385,1387.89 800.385,1341.55 888.916,1341.55 "/>
<path clip-path="url(#clip672)" d="M800.385 1387.89 L800.385 1387.89 L711.855 1387.89 L711.855 1387.89 L800.385 1387.89 L800.385 1387.89  Z" fill="#808080" fill-rule="evenodd" fill-opacity="1"/>
<polyline clip-path="url(#clip672)" style="stroke:#000000; stroke-linecap:round; stroke-linejoin:round; stroke-width:4; stroke-opacity:1; fill:none" points="800.385,1387.89 800.385,1387.89 711.855,1387.89 800.385,1387.89 "/>
<path clip-path="url(#clip672)" d="M711.855 1387.89 L711.855 1387.89 L623.324 1387.89 L623.324 1387.89 L711.855 1387.89 L711.855 1387.89  Z" fill="#808080" fill-rule="evenodd" fill-opacity="1"/>
<polyline clip-path="url(#clip672)" style="stroke:#000000; stroke-linecap:round; stroke-linejoin:round; stroke-width:4; stroke-opacity:1; fill:none" points="711.855,1387.89 711.855,1387.89 623.324,1387.89 711.855,1387.89 "/>
<path clip-path="url(#clip672)" d="M623.324 1295.2 L623.324 1387.89 L534.793 1387.89 L534.793 1295.2 L623.324 1295.2 L623.324 1295.2  Z" fill="#808080" fill-rule="evenodd" fill-opacity="1"/>
<polyline clip-path="url(#clip672)" style="stroke:#000000; stroke-linecap:round; stroke-linejoin:round; stroke-width:4; stroke-opacity:1; fill:none" points="623.324,1295.2 623.324,1387.89 534.793,1387.89 534.793,1295.2 623.324,1295.2 "/>
<path clip-path="url(#clip672)" d="M534.793 1369.36 L534.793 1387.89 L446.263 1387.89 L446.263 1369.36 L534.793 1369.36 L534.793 1369.36  Z" fill="#808080" fill-rule="evenodd" fill-opacity="1"/>
<polyline clip-path="url(#clip672)" style="stroke:#000000; stroke-linecap:round; stroke-linejoin:round; stroke-width:4; stroke-opacity:1; fill:none" points="534.793,1369.36 534.793,1387.89 446.263,1387.89 446.263,1369.36 534.793,1369.36 "/>
<path clip-path="url(#clip672)" d="M446.263 1378.62 L446.263 1387.89 L357.732 1387.89 L357.732 1378.62 L446.263 1378.62 L446.263 1378.62  Z" fill="#808080" fill-rule="evenodd" fill-opacity="1"/>
<polyline clip-path="url(#clip672)" style="stroke:#000000; stroke-linecap:round; stroke-linejoin:round; stroke-width:4; stroke-opacity:1; fill:none" points="446.263,1378.62 446.263,1387.89 357.732,1387.89 357.732,1378.62 446.263,1378.62 "/>
<circle clip-path="url(#clip672)" style="fill:#808080; stroke:none; fill-opacity:0" cx="1995.55" cy="1378.62" r="2"/>
<circle clip-path="url(#clip672)" style="fill:#808080; stroke:none; fill-opacity:0" cx="1907.02" cy="1387.89" r="2"/>
<circle clip-path="url(#clip672)" style="fill:#808080; stroke:none; fill-opacity:0" cx="1818.49" cy="1387.89" r="2"/>
<circle clip-path="url(#clip672)" style="fill:#808080; stroke:none; fill-opacity:0" cx="1729.96" cy="1387.89" r="2"/>
<circle clip-path="url(#clip672)" style="fill:#808080; stroke:none; fill-opacity:0" cx="1641.43" cy="1387.89" r="2"/>
<circle clip-path="url(#clip672)" style="fill:#808080; stroke:none; fill-opacity:0" cx="1552.9" cy="1369.36" r="2"/>
<circle clip-path="url(#clip672)" style="fill:#808080; stroke:none; fill-opacity:0" cx="1464.37" cy="1387.89" r="2"/>
<circle clip-path="url(#clip672)" style="fill:#808080; stroke:none; fill-opacity:0" cx="1375.83" cy="1323.01" r="2"/>
<circle clip-path="url(#clip672)" style="fill:#808080; stroke:none; fill-opacity:0" cx="1287.3" cy="1350.82" r="2"/>
<circle clip-path="url(#clip672)" style="fill:#808080; stroke:none; fill-opacity:0" cx="1198.77" cy="1387.89" r="2"/>
<circle clip-path="url(#clip672)" style="fill:#808080; stroke:none; fill-opacity:0" cx="1110.24" cy="1360.09" r="2"/>
<circle clip-path="url(#clip672)" style="fill:#808080; stroke:none; fill-opacity:0" cx="1021.71" cy="1369.36" r="2"/>
<circle clip-path="url(#clip672)" style="fill:#808080; stroke:none; fill-opacity:0" cx="933.181" cy="1387.89" r="2"/>
<circle clip-path="url(#clip672)" style="fill:#808080; stroke:none; fill-opacity:0" cx="844.651" cy="1341.55" r="2"/>
<circle clip-path="url(#clip672)" style="fill:#808080; stroke:none; fill-opacity:0" cx="756.12" cy="1387.89" r="2"/>
<circle clip-path="url(#clip672)" style="fill:#808080; stroke:none; fill-opacity:0" cx="667.589" cy="1387.89" r="2"/>
<circle clip-path="url(#clip672)" style="fill:#808080; stroke:none; fill-opacity:0" cx="579.059" cy="1295.2" r="2"/>
<circle clip-path="url(#clip672)" style="fill:#808080; stroke:none; fill-opacity:0" cx="490.528" cy="1369.36" r="2"/>
<circle clip-path="url(#clip672)" style="fill:#808080; stroke:none; fill-opacity:0" cx="401.998" cy="1378.62" r="2"/>
<polyline clip-path="url(#clip672)" style="stroke:#0000ff; stroke-linecap:round; stroke-linejoin:round; stroke-width:8; stroke-opacity:1; fill:none" points="435.308,1290.04 427.932,1292.34 420.556,1294.59 413.179,1296.78 405.803,1298.92 395.002,1301.96 384.202,1304.9 373.401,1307.74 362.601,1310.48 351.8,1313.13 341,1315.69 330.199,1318.16 319.398,1320.54 308.598,1322.85 297.797,1325.07 286.997,1327.22 276.196,1329.3 254.595,1333.24 232.994,1336.91 222.945,1338.54 212.896,1340.11 202.847,1341.63 192.798,1343.11 172.7,1345.92 152.603,1348.55 139.133,1350.22 125.664,1351.82 112.195,1353.35 98.7258,1354.82 71.7873,1357.57 44.8489,1360.09 22.5894,1362.02 0.329911,1363.81 -21.9296,1365.47 -44.189,1367.03 -64.8881,1368.37 -85.5873,1369.63 -106.286,1370.81 -126.985,1371.91 -152.97,1373.2 -178.954,1374.38 -204.939,1375.46 -230.923,1376.46 -277.54,1378.06 -324.156,1379.43 -377.515,1380.77 -430.874,1381.89 -470.76,1382.62 -510.645,1383.25 -561.66,1383.96 -612.675,1384.55 -659.236,1385.02 -705.797,1385.42 -811.782,1386.14 -895.798,1386.55 -1000.18,1386.94 -1080.12,1387.15 -1192.82,1387.38 -1277.04,1387.5 -1372.81,1387.61 -1467.67,1387.68 -1572.02,1387.74 -1651.73,1387.78 -1752.31,1387.81 -1845.34,1387.83 -1941.29,1387.85 -2038.54,1387.86 -2140.09,1387.87 -2220.09,1387.88 -2402.26,1387.88 -2422.7,1387.88 "/>
<polyline clip-path="url(#clip672)" style="stroke:#000000; stroke-linecap:round; stroke-linejoin:round; stroke-width:8; stroke-opacity:1; fill:none" points="444.304,1387.83 443.384,1387.57 442.464,1386.49 441.543,1382.78 440.623,1371.84 439.703,1344.5 438.783,1286.47 437.862,1182 436.942,1022.66 436.022,817.244 435.101,594.591 434.181,394 433.261,248.085 432.341,169.712 431.42,151.017 430.5,172.406 429.58,213.476 428.659,259.788 427.739,304.555 426.819,347.092 425.899,389.943 424.978,435.925 424.058,486.052 423.138,538.899 422.218,591.293 421.297,639.666 420.377,681.356 419.457,715.421 418.536,742.757 417.616,765.655 416.696,787.108 415.776,810.043 414.855,836.468 413.935,866.671 413.015,899.017 412.094,930.722 411.174,959.267 410.254,983.5 409.334,1003.72 408.413,1020.92 407.493,1036.07 406.573,1049.95 405.652,1063.34 404.732,1077.08 403.812,1091.78 402.892,1107.39 401.971,1123.14 401.051,1138 400.131,1151.38 399.211,1163.35 398.29,1174.45 397.37,1185.21 396.45,1195.8 395.529,1205.86 394.609,1214.76 393.689,1221.84 392.769,1226.73 391.848,1229.4 390.928,1230.33 390.008,1230.5 389.087,1231.38 388.167,1234.44 387.247,1240.53 386.327,1249.31 385.406,1259.42 384.486,1269.15 383.566,1277.14 382.645,1282.78 381.725,1286.4 380.805,1288.94 379.885,1291.43 378.964,1294.48 378.044,1298.19 377.124,1302.47 376.204,1307.27 375.283,1312.53 374.363,1317.99 373.443,1323.16 372.522,1327.57 371.602,1331.12 370.682,1333.98 369.762,1336.31 368.841,1338.05 367.921,1339.1 367.001,1339.61 366.08,1340.02 365.16,1340.75 364.24,1341.98 363.32,1343.61 362.399,1345.5 361.479,1347.68 360.559,1350.22 359.638,1353.07 358.718,1356.04 357.798,1358.88 356.878,1361.45 355.957,1363.73 355.037,1365.67 354.117,1367.21 353.197,1368.23 352.276,1368.7 351.356,1368.74 350.436,1368.58 349.515,1368.42 348.595,1368.34 347.675,1368.27 346.755,1368.15 345.834,1368.13 344.914,1368.56 343.994,1369.74 343.073,1371.67 342.153,1374 341.233,1376.19 340.313,1377.75 339.392,1378.48 338.472,1378.47 337.552,1378.11 336.632,1377.87 335.711,1378.03 334.791,1378.61 333.871,1379.44 332.95,1380.34 332.03,1381.23 331.11,1382.06 330.19,1382.73 329.269,1383.12 328.349,1383.2 327.429,1383.06 326.508,1382.85 325.588,1382.66 324.668,1382.48 323.748,1382.23 322.827,1381.84 321.907,1381.32 320.987,1380.78 320.066,1380.35 319.146,1380.16 318.226,1380.16 317.306,1380.19 316.385,1380.11 315.465,1379.92 314.545,1379.82 313.625,1380.05 312.704,1380.7 311.784,1381.6 310.864,1382.48 309.943,1383.09 309.023,1383.35 308.103,1383.32 307.183,1383.14 306.262,1383.03 305.342,1383.15 304.422,1383.59 303.501,1384.27 302.581,1385.03 301.661,1385.65 300.741,1386.01 299.82,1386.13 298.9,1386.15 297.98,1386.22 297.059,1386.41 296.139,1386.68 295.219,1386.95 294.299,1387.14 293.378,1387.23 292.458,1387.28 291.538,1387.34 290.618,1387.44 289.697,1387.55 288.777,1387.61 287.857,1387.58 286.936,1387.41 286.016,1387.1 285.096,1386.73 284.176,1386.43 283.255,1386.31 282.335,1386.44 281.415,1386.75 280.494,1387.13 279.574,1387.46 278.654,1387.68 277.734,1387.8 276.813,1387.85 275.893,1387.84 274.973,1387.78 274.052,1387.64 273.132,1387.44 272.212,1387.18 271.292,1386.95 270.371,1386.84 269.451,1386.88 268.531,1387.07 267.611,1387.33 266.69,1387.56 265.77,1387.73 264.85,1387.82 263.929,1387.87 263.009,1387.89 262.089,1387.89 261.169,1387.88 "/>
<path clip-path="url(#clip670)" d="M339.585 494.044 L836.718 494.044 L836.718 192.246 L339.585 192.246  Z" fill="#ffffff" fill-rule="evenodd" fill-opacity="1"/>
<polyline clip-path="url(#clip670)" style="stroke:#000000; stroke-linecap:round; stroke-linejoin:round; stroke-width:4; stroke-opacity:1; fill:none" points="339.585,494.044 836.718,494.044 836.718,192.246 339.585,192.246 339.585,494.044 "/>
<path clip-path="url(#clip670)" d="M362.725 297.875 L501.564 297.875 L501.564 237.516 L362.725 237.516 L362.725 297.875  Z" fill="#808080" fill-rule="evenodd" fill-opacity="1"/>
<polyline clip-path="url(#clip670)" style="stroke:#000000; stroke-linecap:round; stroke-linejoin:round; stroke-width:6; stroke-opacity:1; fill:none" points="362.725,297.875 501.564,297.875 501.564,237.516 362.725,237.516 362.725,297.875 "/>
<g clip-path="url(#clip670)">
<text style="fill:#000000; fill-opacity:1; font-family:Arial,Helvetica Neue,Helvetica,sans-serif; font-size:71px; text-anchor:start;" transform="rotate(0, 524.704, 293.695)" x="524.704" y="293.695">Data</text>
</g>
<polyline clip-path="url(#clip670)" style="stroke:#0000ff; stroke-linecap:round; stroke-linejoin:round; stroke-width:12; stroke-opacity:1; fill:none" points="362.725,343.145 501.564,343.145 "/>
<g clip-path="url(#clip670)">
<text style="fill:#000000; fill-opacity:1; font-family:Arial,Helvetica Neue,Helvetica,sans-serif; font-size:71px; text-anchor:start;" transform="rotate(0, 524.704, 369.145)" x="524.704" y="369.145">Prior</text>
</g>
<polyline clip-path="url(#clip670)" style="stroke:#000000; stroke-linecap:round; stroke-linejoin:round; stroke-width:12; stroke-opacity:1; fill:none" points="362.725,418.595 501.564,418.595 "/>
<g clip-path="url(#clip670)">
<text style="fill:#000000; fill-opacity:1; font-family:Arial,Helvetica Neue,Helvetica,sans-serif; font-size:71px; text-anchor:start;" transform="rotate(0, 524.704, 444.595)" x="524.704" y="444.595">Posterior</text>
</g>
<path clip-path="url(#clip670)" d="M374.295 645.768 L1207.33 645.768 L1207.33 151.017 L374.295 151.017  Z" fill="#ffffff" fill-rule="evenodd" fill-opacity="1"/>
<defs>
  <clipPath id="clip673">
    <rect x="374" y="151" width="834" height="496"/>
  </clipPath>
</defs>
<polyline clip-path="url(#clip670)" style="stroke:#000000; stroke-linecap:round; stroke-linejoin:round; stroke-width:4; stroke-opacity:1; fill:none" points="374.295,645.768 1207.33,645.768 "/>
<polyline clip-path="url(#clip670)" style="stroke:#000000; stroke-linecap:round; stroke-linejoin:round; stroke-width:4; stroke-opacity:1; fill:none" points="394.598,645.768 394.598,626.87 "/>
<polyline clip-path="url(#clip670)" style="stroke:#000000; stroke-linecap:round; stroke-linejoin:round; stroke-width:4; stroke-opacity:1; fill:none" points="526.669,645.768 526.669,626.87 "/>
<polyline clip-path="url(#clip670)" style="stroke:#000000; stroke-linecap:round; stroke-linejoin:round; stroke-width:4; stroke-opacity:1; fill:none" points="658.741,645.768 658.741,626.87 "/>
<polyline clip-path="url(#clip670)" style="stroke:#000000; stroke-linecap:round; stroke-linejoin:round; stroke-width:4; stroke-opacity:1; fill:none" points="790.813,645.768 790.813,626.87 "/>
<polyline clip-path="url(#clip670)" style="stroke:#000000; stroke-linecap:round; stroke-linejoin:round; stroke-width:4; stroke-opacity:1; fill:none" points="922.885,645.768 922.885,626.87 "/>
<polyline clip-path="url(#clip670)" style="stroke:#000000; stroke-linecap:round; stroke-linejoin:round; stroke-width:4; stroke-opacity:1; fill:none" points="1054.96,645.768 1054.96,626.87 "/>
<polyline clip-path="url(#clip670)" style="stroke:#000000; stroke-linecap:round; stroke-linejoin:round; stroke-width:4; stroke-opacity:1; fill:none" points="1187.03,645.768 1187.03,626.87 "/>
<g clip-path="url(#clip670)">
<text style="fill:#000000; fill-opacity:1; font-family:Arial,Helvetica Neue,Helvetica,sans-serif; font-size:71px; text-anchor:middle;" transform="rotate(0, 394.598, 728.692)" x="394.598" y="728.692">−15</text>
</g>
<g clip-path="url(#clip670)">
<text style="fill:#000000; fill-opacity:1; font-family:Arial,Helvetica Neue,Helvetica,sans-serif; font-size:71px; text-anchor:middle;" transform="rotate(0, 526.669, 728.692)" x="526.669" y="728.692">−10</text>
</g>
<g clip-path="url(#clip670)">
<text style="fill:#000000; fill-opacity:1; font-family:Arial,Helvetica Neue,Helvetica,sans-serif; font-size:71px; text-anchor:middle;" transform="rotate(0, 658.741, 728.692)" x="658.741" y="728.692">−5</text>
</g>
<g clip-path="url(#clip670)">
<text style="fill:#000000; fill-opacity:1; font-family:Arial,Helvetica Neue,Helvetica,sans-serif; font-size:71px; text-anchor:middle;" transform="rotate(0, 790.813, 728.692)" x="790.813" y="728.692">0</text>
</g>
<g clip-path="url(#clip670)">
<text style="fill:#000000; fill-opacity:1; font-family:Arial,Helvetica Neue,Helvetica,sans-serif; font-size:71px; text-anchor:middle;" transform="rotate(0, 922.885, 728.692)" x="922.885" y="728.692">5</text>
</g>
<g clip-path="url(#clip670)">
<text style="fill:#000000; fill-opacity:1; font-family:Arial,Helvetica Neue,Helvetica,sans-serif; font-size:71px; text-anchor:middle;" transform="rotate(0, 1054.96, 728.692)" x="1054.96" y="728.692">10</text>
</g>
<g clip-path="url(#clip670)">
<text style="fill:#000000; fill-opacity:1; font-family:Arial,Helvetica Neue,Helvetica,sans-serif; font-size:71px; text-anchor:middle;" transform="rotate(0, 1187.03, 728.692)" x="1187.03" y="728.692">15</text>
</g>
<g clip-path="url(#clip670)">
<text style="fill:#000000; fill-opacity:1; font-family:Arial,Helvetica Neue,Helvetica,sans-serif; font-size:95px; text-anchor:middle;" transform="rotate(0, 790.813, 844.017)" x="790.813" y="844.017">λ</text>
</g>
<polyline clip-path="url(#clip670)" style="stroke:#000000; stroke-linecap:round; stroke-linejoin:round; stroke-width:4; stroke-opacity:1; fill:none" points="374.295,645.768 374.295,151.017 "/>
<polyline clip-path="url(#clip673)" style="stroke:#000000; stroke-linecap:round; stroke-linejoin:round; stroke-width:8; stroke-opacity:1; fill:none" points="793.314,631.765 793.795,631.765 794.276,631.764 794.756,631.762 795.237,631.758 795.718,631.749 796.198,631.733 796.679,631.704 797.159,631.66 797.64,631.596 798.121,631.514 798.601,631.412 799.082,631.289 799.563,631.141 800.043,630.953 800.524,630.704 801.005,630.37 801.485,629.922 801.966,629.334 802.446,628.59 802.927,627.682 803.408,626.614 803.888,625.391 804.369,624.01 804.85,622.444 805.33,620.653 805.811,618.592 806.291,616.238 806.772,613.595 807.253,610.692 807.733,607.557 808.214,604.184 808.695,600.511 809.175,596.412 809.656,591.704 810.137,586.192 810.617,579.725 811.098,572.268 811.578,563.952 812.059,555.071 812.54,546.015 813.02,537.137 813.501,528.63 813.982,520.446 814.462,512.322 814.943,503.9 815.424,494.87 815.904,485.086 816.385,474.57 816.865,463.444 817.346,451.829 817.827,439.78 818.307,427.277 818.788,414.266 819.269,400.69 819.749,386.524 820.23,371.791 820.71,356.584 821.191,341.077 821.672,325.515 822.152,310.177 822.633,295.337 823.114,281.248 823.594,268.143 824.075,256.239 824.556,245.697 825.036,236.56 825.517,228.703 825.997,221.853 826.478,215.665 826.959,209.826 827.439,204.131 827.92,198.499 828.401,192.949 828.881,187.55 829.362,182.398 829.842,177.602 830.323,173.293 830.804,169.641 831.284,166.865 831.765,165.231 832.246,165.019 832.726,166.455 833.207,169.632 833.688,174.452 834.168,180.614 834.649,187.678 835.129,195.158 835.61,202.635 836.091,209.82 836.571,216.584 837.052,222.95 837.533,229.091 838.013,235.318 838.494,242.048 838.974,249.725 839.455,258.708 839.936,269.151 840.416,280.966 840.897,293.858 841.378,307.415 841.858,321.203 842.339,334.82 842.82,347.947 843.3,360.393 843.781,372.146 844.261,383.37 844.742,394.326 845.223,405.256 845.703,416.271 846.184,427.323 846.665,438.252 847.145,448.863 847.626,458.989 848.106,468.493 848.587,477.265 849.068,485.21 849.548,492.282 850.029,498.518 850.51,504.064 850.99,509.158 851.471,514.075 851.952,519.051 852.432,524.228 852.913,529.625 853.393,535.161 853.874,540.704 854.355,546.135 854.835,551.406 855.316,556.563 855.797,561.712 856.277,566.947 856.758,572.267 857.239,577.534 857.719,582.512 858.2,586.956 858.68,590.716 859.161,593.805 859.642,596.398 860.122,598.76 860.603,601.148 861.084,603.723 861.564,606.504 862.045,609.385 862.525,612.193 863.006,614.756 863.487,616.952 863.967,618.731 864.448,620.108 864.929,621.153 865.409,621.961 865.89,622.634 866.371,623.258 866.851,623.89 867.332,624.558 867.812,625.27 868.293,626.02 868.774,626.791 869.254,627.554 869.735,628.269 870.216,628.89 870.696,629.38 871.177,629.724 871.657,629.934 872.138,630.043 872.619,630.093 873.099,630.116 873.58,630.131 874.061,630.144 874.541,630.154 875.022,630.17 875.503,630.205 875.983,630.275 876.464,630.386 876.944,630.533 877.425,630.697 877.906,630.86 878.386,631.002 878.867,631.115 879.348,631.192 879.828,631.23 880.309,631.23 880.789,631.198 881.27,631.151 881.751,631.111 882.231,631.098 882.712,631.129 883.193,631.202 883.673,631.306 884.154,631.422 884.635,631.53 885.115,631.618 885.596,631.681 886.076,631.721 886.557,631.744 887.038,631.756 887.518,631.762 887.999,631.764 888.48,631.765 888.96,631.765 "/>
<polyline clip-path="url(#clip673)" style="stroke:#0000ff; stroke-linecap:round; stroke-linejoin:round; stroke-width:8; stroke-opacity:1; fill:none" points="397.871,631.717 401.928,631.71 405.984,631.701 429.744,631.623 453.503,631.467 464.556,631.351 475.608,631.196 490.423,630.909 505.238,630.503 511.359,630.291 517.48,630.05 523.601,629.776 529.721,629.466 535.413,629.142 541.105,628.782 546.797,628.381 552.488,627.939 559.634,627.318 566.779,626.621 573.924,625.841 581.069,624.974 587.478,624.119 593.887,623.189 600.297,622.18 606.706,621.091 614.042,619.747 621.378,618.3 628.714,616.75 636.051,615.102 641.534,613.81 647.018,612.47 652.502,611.086 657.986,609.662 672.014,605.876 686.041,601.971 698.845,598.413 711.648,594.974 715.291,594.034 718.934,593.115 722.576,592.222 726.219,591.355 729.862,590.519 733.505,589.715 737.148,588.947 740.791,588.216 746.567,587.141 752.342,586.176 758.118,585.329 763.894,584.608 767.481,584.225 771.069,583.895 774.657,583.618 778.244,583.395 781.832,583.228 785.42,583.115 789.008,583.059 792.595,583.059 798.091,583.167 803.586,583.407 809.081,583.775 814.577,584.269 818.45,584.69 822.324,585.171 826.198,585.709 830.072,586.301 833.945,586.946 837.819,587.642 841.693,588.385 845.567,589.173 851.356,590.427 857.146,591.765 862.935,593.176 868.725,594.648 881.893,598.169 895.061,601.825 908.102,605.459 921.143,609.001 928.317,610.879 935.491,612.689 942.664,614.423 949.838,616.071 955.318,617.269 960.797,618.412 966.277,619.497 971.756,620.524 978.671,621.738 985.585,622.858 992.5,623.887 999.415,624.828 1005.81,625.62 1012.21,626.342 1018.6,626.997 1025,627.588 1031.59,628.135 1038.19,628.622 1044.78,629.055 1051.38,629.437 1058.06,629.778 1064.75,630.075 1071.43,630.334 1078.12,630.557 1092.08,630.929 1106.04,631.197 1117.04,631.351 1128.04,631.466 1153.09,631.629 1178.13,631.706 1180.94,631.712 1183.75,631.717 "/>
</svg>
