<?xml version="1.0" encoding="utf-8"?>
<svg xmlns="http://www.w3.org/2000/svg" xmlns:xlink="http://www.w3.org/1999/xlink" width="600" height="400" viewBox="0 0 2400 1600">
<defs>
  <clipPath id="clip450">
    <rect x="0" y="0" width="2400" height="1600"/>
  </clipPath>
</defs>
<path clip-path="url(#clip450)" d="M0 1600 L2400 1600 L2400 0 L0 0  Z" fill="#ffffff" fill-rule="evenodd" fill-opacity="1"/>
<defs>
  <clipPath id="clip451">
    <rect x="480" y="0" width="1681" height="1600"/>
  </clipPath>
</defs>
<path clip-path="url(#clip450)" d="M310.309 1387.89 L2352.76 1387.89 L2352.76 151.017 L310.309 151.017  Z" fill="#ffffff" fill-rule="evenodd" fill-opacity="1"/>
<defs>
  <clipPath id="clip452">
    <rect x="310" y="151" width="2043" height="1238"/>
  </clipPath>
</defs>
<polyline clip-path="url(#clip452)" style="stroke:#000000; stroke-linecap:round; stroke-linejoin:round; stroke-width:2; stroke-opacity:0.1; fill:none" points="2352.76,1387.89 2352.76,151.017 "/>
<polyline clip-path="url(#clip452)" style="stroke:#000000; stroke-linecap:round; stroke-linejoin:round; stroke-width:2; stroke-opacity:0.1; fill:none" points="1941.02,1387.89 1941.02,151.017 "/>
<polyline clip-path="url(#clip452)" style="stroke:#000000; stroke-linecap:round; stroke-linejoin:round; stroke-width:2; stroke-opacity:0.1; fill:none" points="1529.28,1387.89 1529.28,151.017 "/>
<polyline clip-path="url(#clip452)" style="stroke:#000000; stroke-linecap:round; stroke-linejoin:round; stroke-width:2; stroke-opacity:0.1; fill:none" points="1117.53,1387.89 1117.53,151.017 "/>
<polyline clip-path="url(#clip452)" style="stroke:#000000; stroke-linecap:round; stroke-linejoin:round; stroke-width:2; stroke-opacity:0.1; fill:none" points="705.794,1387.89 705.794,151.017 "/>
<polyline clip-path="url(#clip452)" style="stroke:#000000; stroke-linecap:round; stroke-linejoin:round; stroke-width:2; stroke-opacity:0.1; fill:none" points="2352.76,1387.89 310.309,1387.89 "/>
<polyline clip-path="url(#clip452)" style="stroke:#000000; stroke-linecap:round; stroke-linejoin:round; stroke-width:2; stroke-opacity:0.1; fill:none" points="2352.76,1140.52 310.309,1140.52 "/>
<polyline clip-path="url(#clip452)" style="stroke:#000000; stroke-linecap:round; stroke-linejoin:round; stroke-width:2; stroke-opacity:0.1; fill:none" points="2352.76,893.143 310.309,893.143 "/>
<polyline clip-path="url(#clip452)" style="stroke:#000000; stroke-linecap:round; stroke-linejoin:round; stroke-width:2; stroke-opacity:0.1; fill:none" points="2352.76,645.768 310.309,645.768 "/>
<polyline clip-path="url(#clip452)" style="stroke:#000000; stroke-linecap:round; stroke-linejoin:round; stroke-width:2; stroke-opacity:0.1; fill:none" points="2352.76,398.392 310.309,398.392 "/>
<polyline clip-path="url(#clip450)" style="stroke:#000000; stroke-linecap:round; stroke-linejoin:round; stroke-width:4; stroke-opacity:1; fill:none" points="2352.76,1387.89 310.309,1387.89 "/>
<polyline clip-path="url(#clip450)" style="stroke:#000000; stroke-linecap:round; stroke-linejoin:round; stroke-width:4; stroke-opacity:1; fill:none" points="2352.76,1387.89 2352.76,1369 "/>
<polyline clip-path="url(#clip450)" style="stroke:#000000; stroke-linecap:round; stroke-linejoin:round; stroke-width:4; stroke-opacity:1; fill:none" points="1941.02,1387.89 1941.02,1369 "/>
<polyline clip-path="url(#clip450)" style="stroke:#000000; stroke-linecap:round; stroke-linejoin:round; stroke-width:4; stroke-opacity:1; fill:none" points="1529.28,1387.89 1529.28,1369 "/>
<polyline clip-path="url(#clip450)" style="stroke:#000000; stroke-linecap:round; stroke-linejoin:round; stroke-width:4; stroke-opacity:1; fill:none" points="1117.53,1387.89 1117.53,1369 "/>
<polyline clip-path="url(#clip450)" style="stroke:#000000; stroke-linecap:round; stroke-linejoin:round; stroke-width:4; stroke-opacity:1; fill:none" points="705.794,1387.89 705.794,1369 "/>
<g clip-path="url(#clip450)">
<text style="fill:#000000; fill-opacity:1; font-family:Arial,Helvetica Neue,Helvetica,sans-serif; font-size:71px; text-anchor:middle;" transform="rotate(0, 2352.76, 1470.82)" x="2352.76" y="1470.82">0</text>
</g>
<g clip-path="url(#clip450)">
<text style="fill:#000000; fill-opacity:1; font-family:Arial,Helvetica Neue,Helvetica,sans-serif; font-size:71px; text-anchor:middle;" transform="rotate(0, 1941.02, 1470.82)" x="1941.02" y="1470.82">100</text>
</g>
<g clip-path="url(#clip450)">
<text style="fill:#000000; fill-opacity:1; font-family:Arial,Helvetica Neue,Helvetica,sans-serif; font-size:71px; text-anchor:middle;" transform="rotate(0, 1529.28, 1470.82)" x="1529.28" y="1470.82">200</text>
</g>
<g clip-path="url(#clip450)">
<text style="fill:#000000; fill-opacity:1; font-family:Arial,Helvetica Neue,Helvetica,sans-serif; font-size:71px; text-anchor:middle;" transform="rotate(0, 1117.53, 1470.82)" x="1117.53" y="1470.82">300</text>
</g>
<g clip-path="url(#clip450)">
<text style="fill:#000000; fill-opacity:1; font-family:Arial,Helvetica Neue,Helvetica,sans-serif; font-size:71px; text-anchor:middle;" transform="rotate(0, 705.794, 1470.82)" x="705.794" y="1470.82">400</text>
</g>
<g clip-path="url(#clip450)">
<text style="fill:#000000; fill-opacity:1; font-family:Arial,Helvetica Neue,Helvetica,sans-serif; font-size:95px; text-anchor:middle;" transform="rotate(0, 1331.53, 1586.14)" x="1331.53" y="1586.14">τ</text>
</g>
<polyline clip-path="url(#clip450)" style="stroke:#000000; stroke-linecap:round; stroke-linejoin:round; stroke-width:4; stroke-opacity:1; fill:none" points="310.309,1387.89 310.309,151.017 "/>
<polyline clip-path="url(#clip450)" style="stroke:#000000; stroke-linecap:round; stroke-linejoin:round; stroke-width:4; stroke-opacity:1; fill:none" points="310.309,1387.89 329.206,1387.89 "/>
<polyline clip-path="url(#clip450)" style="stroke:#000000; stroke-linecap:round; stroke-linejoin:round; stroke-width:4; stroke-opacity:1; fill:none" points="310.309,1140.52 329.206,1140.52 "/>
<polyline clip-path="url(#clip450)" style="stroke:#000000; stroke-linecap:round; stroke-linejoin:round; stroke-width:4; stroke-opacity:1; fill:none" points="310.309,893.143 329.206,893.143 "/>
<polyline clip-path="url(#clip450)" style="stroke:#000000; stroke-linecap:round; stroke-linejoin:round; stroke-width:4; stroke-opacity:1; fill:none" points="310.309,645.768 329.206,645.768 "/>
<polyline clip-path="url(#clip450)" style="stroke:#000000; stroke-linecap:round; stroke-linejoin:round; stroke-width:4; stroke-opacity:1; fill:none" points="310.309,398.392 329.206,398.392 "/>
<g clip-path="url(#clip450)">
<text style="fill:#000000; fill-opacity:1; font-family:Arial,Helvetica Neue,Helvetica,sans-serif; font-size:71px; text-anchor:middle;" transform="rotate(0, 204.058, 1413.89)" x="204.058" y="1413.89">0.00</text>
</g>
<g clip-path="url(#clip450)">
<text style="fill:#000000; fill-opacity:1; font-family:Arial,Helvetica Neue,Helvetica,sans-serif; font-size:71px; text-anchor:middle;" transform="rotate(0, 204.058, 1166.52)" x="204.058" y="1166.52">0.01</text>
</g>
<g clip-path="url(#clip450)">
<text style="fill:#000000; fill-opacity:1; font-family:Arial,Helvetica Neue,Helvetica,sans-serif; font-size:71px; text-anchor:middle;" transform="rotate(0, 204.058, 919.143)" x="204.058" y="919.143">0.02</text>
</g>
<g clip-path="url(#clip450)">
<text style="fill:#000000; fill-opacity:1; font-family:Arial,Helvetica Neue,Helvetica,sans-serif; font-size:71px; text-anchor:middle;" transform="rotate(0, 204.058, 671.768)" x="204.058" y="671.768">0.03</text>
</g>
<g clip-path="url(#clip450)">
<text style="fill:#000000; fill-opacity:1; font-family:Arial,Helvetica Neue,Helvetica,sans-serif; font-size:71px; text-anchor:middle;" transform="rotate(0, 204.058, 424.392)" x="204.058" y="424.392">0.04</text>
</g>
<g clip-path="url(#clip450)">
<text style="fill:#000000; fill-opacity:1; font-family:Arial,Helvetica Neue,Helvetica,sans-serif; font-size:95px; text-anchor:middle;" transform="rotate(-90, 80.007, 769.455)" x="80.007" y="769.455">Density</text>
</g>
<g clip-path="url(#clip450)">
<text style="fill:#000000; fill-opacity:1; font-family:Arial,Helvetica Neue,Helvetica,sans-serif; font-size:125px; text-anchor:middle;" transform="rotate(0, 1331.53, 109.2)" x="1331.53" y="109.2">Ostariophysi</text>
</g>
<path clip-path="url(#clip452)" d="M2373.32 298.578 L2373.32 1387.89 L2339.27 1387.89 L2339.27 298.578 L2373.32 298.578 L2373.32 298.578  Z" fill="#808080" fill-rule="evenodd" fill-opacity="1"/>
<polyline clip-path="url(#clip452)" style="stroke:#000000; stroke-linecap:round; stroke-linejoin:round; stroke-width:4; stroke-opacity:1; fill:none" points="2373.32,298.578 2373.32,1387.89 2339.27,1387.89 2339.27,298.578 2373.32,298.578 "/>
<path clip-path="url(#clip452)" d="M2339.27 749.329 L2339.27 1387.89 L2305.22 1387.89 L2305.22 749.329 L2339.27 749.329 L2339.27 749.329  Z" fill="#808080" fill-rule="evenodd" fill-opacity="1"/>
<polyline clip-path="url(#clip452)" style="stroke:#000000; stroke-linecap:round; stroke-linejoin:round; stroke-width:4; stroke-opacity:1; fill:none" points="2339.27,749.329 2339.27,1387.89 2305.22,1387.89 2305.22,749.329 2339.27,749.329 "/>
<path clip-path="url(#clip452)" d="M2305.22 844.943 L2305.22 1387.89 L2271.17 1387.89 L2271.17 844.943 L2305.22 844.943 L2305.22 844.943  Z" fill="#808080" fill-rule="evenodd" fill-opacity="1"/>
<polyline clip-path="url(#clip452)" style="stroke:#000000; stroke-linecap:round; stroke-linejoin:round; stroke-width:4; stroke-opacity:1; fill:none" points="2305.22,844.943 2305.22,1387.89 2271.17,1387.89 2271.17,844.943 2305.22,844.943 "/>
<path clip-path="url(#clip452)" d="M2271.17 1316.18 L2271.17 1387.89 L2237.12 1387.89 L2237.12 1316.18 L2271.17 1316.18 L2271.17 1316.18  Z" fill="#808080" fill-rule="evenodd" fill-opacity="1"/>
<polyline clip-path="url(#clip452)" style="stroke:#000000; stroke-linecap:round; stroke-linejoin:round; stroke-width:4; stroke-opacity:1; fill:none" points="2271.17,1316.18 2271.17,1387.89 2237.12,1387.89 2237.12,1316.18 2271.17,1316.18 "/>
<path clip-path="url(#clip452)" d="M2237.12 1295.69 L2237.12 1387.89 L2203.07 1387.89 L2203.07 1295.69 L2237.12 1295.69 L2237.12 1295.69  Z" fill="#808080" fill-rule="evenodd" fill-opacity="1"/>
<polyline clip-path="url(#clip452)" style="stroke:#000000; stroke-linecap:round; stroke-linejoin:round; stroke-width:4; stroke-opacity:1; fill:none" points="2237.12,1295.69 2237.12,1387.89 2203.07,1387.89 2203.07,1295.69 2237.12,1295.69 "/>
<path clip-path="url(#clip452)" d="M2203.07 1169.35 L2203.07 1387.89 L2169.02 1387.89 L2169.02 1169.35 L2203.07 1169.35 L2203.07 1169.35  Z" fill="#808080" fill-rule="evenodd" fill-opacity="1"/>
<polyline clip-path="url(#clip452)" style="stroke:#000000; stroke-linecap:round; stroke-linejoin:round; stroke-width:4; stroke-opacity:1; fill:none" points="2203.07,1169.35 2203.07,1387.89 2169.02,1387.89 2169.02,1169.35 2203.07,1169.35 "/>
<path clip-path="url(#clip452)" d="M2169.02 1323.01 L2169.02 1387.89 L2134.97 1387.89 L2134.97 1323.01 L2169.02 1323.01 L2169.02 1323.01  Z" fill="#808080" fill-rule="evenodd" fill-opacity="1"/>
<polyline clip-path="url(#clip452)" style="stroke:#000000; stroke-linecap:round; stroke-linejoin:round; stroke-width:4; stroke-opacity:1; fill:none" points="2169.02,1323.01 2169.02,1387.89 2134.97,1387.89 2134.97,1323.01 2169.02,1323.01 "/>
<path clip-path="url(#clip452)" d="M2134.97 1350.33 L2134.97 1387.89 L2100.92 1387.89 L2100.92 1350.33 L2134.97 1350.33 L2134.97 1350.33  Z" fill="#808080" fill-rule="evenodd" fill-opacity="1"/>
<polyline clip-path="url(#clip452)" style="stroke:#000000; stroke-linecap:round; stroke-linejoin:round; stroke-width:4; stroke-opacity:1; fill:none" points="2134.97,1350.33 2134.97,1387.89 2100.92,1387.89 2100.92,1350.33 2134.97,1350.33 "/>
<path clip-path="url(#clip452)" d="M2100.92 1278.62 L2100.92 1387.89 L2066.87 1387.89 L2066.87 1278.62 L2100.92 1278.62 L2100.92 1278.62  Z" fill="#808080" fill-rule="evenodd" fill-opacity="1"/>
<polyline clip-path="url(#clip452)" style="stroke:#000000; stroke-linecap:round; stroke-linejoin:round; stroke-width:4; stroke-opacity:1; fill:none" points="2100.92,1278.62 2100.92,1387.89 2066.87,1387.89 2066.87,1278.62 2100.92,1278.62 "/>
<path clip-path="url(#clip452)" d="M2066.87 1387.89 L2066.87 1387.89 L2032.82 1387.89 L2032.82 1387.89 L2066.87 1387.89 L2066.87 1387.89  Z" fill="#808080" fill-rule="evenodd" fill-opacity="1"/>
<polyline clip-path="url(#clip452)" style="stroke:#000000; stroke-linecap:round; stroke-linejoin:round; stroke-width:4; stroke-opacity:1; fill:none" points="2066.87,1387.89 2066.87,1387.89 2032.82,1387.89 2066.87,1387.89 "/>
<path clip-path="url(#clip452)" d="M2032.82 1377.65 L2032.82 1387.89 L1998.77 1387.89 L1998.77 1377.65 L2032.82 1377.65 L2032.82 1377.65  Z" fill="#808080" fill-rule="evenodd" fill-opacity="1"/>
<polyline clip-path="url(#clip452)" style="stroke:#000000; stroke-linecap:round; stroke-linejoin:round; stroke-width:4; stroke-opacity:1; fill:none" points="2032.82,1377.65 2032.82,1387.89 1998.77,1387.89 1998.77,1377.65 2032.82,1377.65 "/>
<path clip-path="url(#clip452)" d="M1998.77 1381.06 L1998.77 1387.89 L1964.72 1387.89 L1964.72 1381.06 L1998.77 1381.06 L1998.77 1381.06  Z" fill="#808080" fill-rule="evenodd" fill-opacity="1"/>
<polyline clip-path="url(#clip452)" style="stroke:#000000; stroke-linecap:round; stroke-linejoin:round; stroke-width:4; stroke-opacity:1; fill:none" points="1998.77,1381.06 1998.77,1387.89 1964.72,1387.89 1964.72,1381.06 1998.77,1381.06 "/>
<path clip-path="url(#clip452)" d="M1964.72 1367.41 L1964.72 1387.89 L1930.67 1387.89 L1930.67 1367.41 L1964.72 1367.41 L1964.72 1367.41  Z" fill="#808080" fill-rule="evenodd" fill-opacity="1"/>
<polyline clip-path="url(#clip452)" style="stroke:#000000; stroke-linecap:round; stroke-linejoin:round; stroke-width:4; stroke-opacity:1; fill:none" points="1964.72,1367.41 1964.72,1387.89 1930.67,1387.89 1930.67,1367.41 1964.72,1367.41 "/>
<path clip-path="url(#clip452)" d="M1930.67 1357.16 L1930.67 1387.89 L1896.62 1387.89 L1896.62 1357.16 L1930.67 1357.16 L1930.67 1357.16  Z" fill="#808080" fill-rule="evenodd" fill-opacity="1"/>
<polyline clip-path="url(#clip452)" style="stroke:#000000; stroke-linecap:round; stroke-linejoin:round; stroke-width:4; stroke-opacity:1; fill:none" points="1930.67,1357.16 1930.67,1387.89 1896.62,1387.89 1896.62,1357.16 1930.67,1357.16 "/>
<path clip-path="url(#clip452)" d="M1896.62 1346.92 L1896.62 1387.89 L1862.57 1387.89 L1862.57 1346.92 L1896.62 1346.92 L1896.62 1346.92  Z" fill="#808080" fill-rule="evenodd" fill-opacity="1"/>
<polyline clip-path="url(#clip452)" style="stroke:#000000; stroke-linecap:round; stroke-linejoin:round; stroke-width:4; stroke-opacity:1; fill:none" points="1896.62,1346.92 1896.62,1387.89 1862.57,1387.89 1862.57,1346.92 1896.62,1346.92 "/>
<path clip-path="url(#clip452)" d="M1862.57 1381.06 L1862.57 1387.89 L1828.52 1387.89 L1828.52 1381.06 L1862.57 1381.06 L1862.57 1381.06  Z" fill="#808080" fill-rule="evenodd" fill-opacity="1"/>
<polyline clip-path="url(#clip452)" style="stroke:#000000; stroke-linecap:round; stroke-linejoin:round; stroke-width:4; stroke-opacity:1; fill:none" points="1862.57,1381.06 1862.57,1387.89 1828.52,1387.89 1828.52,1381.06 1862.57,1381.06 "/>
<path clip-path="url(#clip452)" d="M1828.52 1387.89 L1828.52 1387.89 L1794.47 1387.89 L1794.47 1387.89 L1828.52 1387.89 L1828.52 1387.89  Z" fill="#808080" fill-rule="evenodd" fill-opacity="1"/>
<polyline clip-path="url(#clip452)" style="stroke:#000000; stroke-linecap:round; stroke-linejoin:round; stroke-width:4; stroke-opacity:1; fill:none" points="1828.52,1387.89 1828.52,1387.89 1794.47,1387.89 1828.52,1387.89 "/>
<path clip-path="url(#clip452)" d="M1794.47 1387.89 L1794.47 1387.89 L1760.42 1387.89 L1760.42 1387.89 L1794.47 1387.89 L1794.47 1387.89  Z" fill="#808080" fill-rule="evenodd" fill-opacity="1"/>
<polyline clip-path="url(#clip452)" style="stroke:#000000; stroke-linecap:round; stroke-linejoin:round; stroke-width:4; stroke-opacity:1; fill:none" points="1794.47,1387.89 1794.47,1387.89 1760.42,1387.89 1794.47,1387.89 "/>
<path clip-path="url(#clip452)" d="M1760.42 1377.65 L1760.42 1387.89 L1726.38 1387.89 L1726.38 1377.65 L1760.42 1377.65 L1760.42 1377.65  Z" fill="#808080" fill-rule="evenodd" fill-opacity="1"/>
<polyline clip-path="url(#clip452)" style="stroke:#000000; stroke-linecap:round; stroke-linejoin:round; stroke-width:4; stroke-opacity:1; fill:none" points="1760.42,1377.65 1760.42,1387.89 1726.38,1387.89 1726.38,1377.65 1760.42,1377.65 "/>
<circle clip-path="url(#clip452)" style="fill:#808080; stroke:none; fill-opacity:0" cx="2322.24" cy="749.329" r="2"/>
<circle clip-path="url(#clip452)" style="fill:#808080; stroke:none; fill-opacity:0" cx="2288.19" cy="844.943" r="2"/>
<circle clip-path="url(#clip452)" style="fill:#808080; stroke:none; fill-opacity:0" cx="2254.15" cy="1316.18" r="2"/>
<circle clip-path="url(#clip452)" style="fill:#808080; stroke:none; fill-opacity:0" cx="2220.1" cy="1295.69" r="2"/>
<circle clip-path="url(#clip452)" style="fill:#808080; stroke:none; fill-opacity:0" cx="2186.05" cy="1169.35" r="2"/>
<circle clip-path="url(#clip452)" style="fill:#808080; stroke:none; fill-opacity:0" cx="2152" cy="1323.01" r="2"/>
<circle clip-path="url(#clip452)" style="fill:#808080; stroke:none; fill-opacity:0" cx="2117.95" cy="1350.33" r="2"/>
<circle clip-path="url(#clip452)" style="fill:#808080; stroke:none; fill-opacity:0" cx="2083.9" cy="1278.62" r="2"/>
<circle clip-path="url(#clip452)" style="fill:#808080; stroke:none; fill-opacity:0" cx="2049.85" cy="1387.89" r="2"/>
<circle clip-path="url(#clip452)" style="fill:#808080; stroke:none; fill-opacity:0" cx="2015.8" cy="1377.65" r="2"/>
<circle clip-path="url(#clip452)" style="fill:#808080; stroke:none; fill-opacity:0" cx="1981.75" cy="1381.06" r="2"/>
<circle clip-path="url(#clip452)" style="fill:#808080; stroke:none; fill-opacity:0" cx="1947.7" cy="1367.41" r="2"/>
<circle clip-path="url(#clip452)" style="fill:#808080; stroke:none; fill-opacity:0" cx="1913.65" cy="1357.16" r="2"/>
<circle clip-path="url(#clip452)" style="fill:#808080; stroke:none; fill-opacity:0" cx="1879.6" cy="1346.92" r="2"/>
<circle clip-path="url(#clip452)" style="fill:#808080; stroke:none; fill-opacity:0" cx="1845.55" cy="1381.06" r="2"/>
<circle clip-path="url(#clip452)" style="fill:#808080; stroke:none; fill-opacity:0" cx="1811.5" cy="1387.89" r="2"/>
<circle clip-path="url(#clip452)" style="fill:#808080; stroke:none; fill-opacity:0" cx="1777.45" cy="1387.89" r="2"/>
<circle clip-path="url(#clip452)" style="fill:#808080; stroke:none; fill-opacity:0" cx="1743.4" cy="1377.65" r="2"/>
<polyline clip-path="url(#clip452)" style="stroke:#0000ff; stroke-linecap:round; stroke-linejoin:round; stroke-width:8; stroke-opacity:1; fill:none" points="1746.96,151.017 1745,180.072 1743.05,208.445 1741.09,236.151 1739.13,263.207 1736.27,301.68 1733.4,338.836 1730.53,374.722 1727.67,409.38 1724.8,442.853 1721.93,475.181 1719.07,506.403 1716.2,536.556 1713.34,565.679 1710.47,593.805 1707.6,620.969 1704.74,647.203 1699,697.011 1693.27,743.47 1690.61,764.004 1687.94,783.885 1685.27,803.132 1682.61,821.765 1677.27,857.27 1671.94,890.548 1668.36,911.674 1664.79,931.903 1661.21,951.273 1657.64,969.819 1650.49,1004.58 1643.34,1036.46 1637.44,1060.78 1631.53,1083.43 1625.62,1104.5 1619.71,1124.12 1614.22,1141.14 1608.73,1157.06 1603.23,1171.96 1597.74,1185.89 1590.85,1202.12 1583.95,1217.04 1577.05,1230.77 1570.16,1243.39 1557.79,1263.55 1545.42,1280.89 1531.26,1297.8 1517.1,1312.03 1506.51,1321.18 1495.93,1329.23 1482.39,1338.12 1468.85,1345.67 1456.49,1351.55 1444.14,1356.61 1416.01,1365.66 1393.72,1370.94 1366.01,1375.78 1344.8,1378.53 1314.89,1381.38 1292.54,1382.93 1267.13,1384.25 1241.95,1385.21 1214.26,1385.98 1193.11,1386.41 1166.41,1386.82 1141.73,1387.1 1116.26,1387.31 1090.46,1387.47 1063.51,1387.59 1042.28,1387.66 993.932,1387.76 988.508,1387.77 "/>
<polyline clip-path="url(#clip452)" style="stroke:#000000; stroke-linecap:round; stroke-linejoin:round; stroke-width:8; stroke-opacity:1; fill:none" points="1395.12,1387.89 1389.27,1387.89 1383.42,1387.89 1377.58,1387.89 1371.73,1387.89 1365.88,1387.88 1360.03,1387.88 1354.19,1387.86 1348.34,1387.84 1342.49,1387.81 1336.64,1387.77 1330.8,1387.72 1324.95,1387.68 1319.1,1387.63 1313.25,1387.58 1307.41,1387.51 1301.56,1387.4 1295.71,1387.25 1289.86,1387.03 1284.01,1386.74 1278.17,1386.4 1272.32,1386.03 1266.47,1385.66 1260.62,1385.3 1254.78,1384.96 1248.93,1384.59 1243.08,1384.17 1237.23,1383.65 1231.39,1383 1225.54,1382.2 1219.69,1381.25 1213.84,1380.13 1208,1378.79 1202.15,1377.2 1196.3,1375.28 1190.45,1372.99 1184.61,1370.35 1178.76,1367.4 1172.91,1364.22 1167.06,1360.89 1161.21,1357.51 1155.37,1354.13 1149.52,1350.78 1143.67,1347.44 1137.82,1344.04 1131.98,1340.49 1126.13,1336.68 1120.28,1332.54 1114.43,1328.05 1108.59,1323.22 1102.74,1318.06 1096.89,1312.6 1091.04,1306.82 1085.2,1300.66 1079.35,1294.04 1073.5,1286.89 1067.65,1279.18 1061.8,1270.89 1055.96,1262.04 1050.11,1252.66 1044.26,1242.83 1038.41,1232.69 1032.57,1222.43 1026.72,1212.27 1020.87,1202.4 1015.02,1192.89 1009.18,1183.67 1003.33,1174.57 997.481,1165.39 991.633,1156.04 985.785,1146.61 979.938,1137.43 974.09,1128.93 968.243,1121.6 962.395,1115.83 956.547,1111.76 950.7,1109.3 944.852,1108.11 939.004,1107.72 933.157,1107.64 927.309,1107.49 921.461,1107.1 915.614,1106.48 909.766,1105.74 903.919,1105.06 898.071,1104.57 892.223,1104.32 886.376,1104.28 880.528,1104.44 874.68,1104.77 868.833,1105.32 862.985,1106.24 857.137,1107.72 851.29,1110.04 845.442,1113.4 839.595,1117.88 833.747,1123.32 827.899,1129.35 822.052,1135.5 816.204,1141.35 810.356,1146.67 804.509,1151.5 798.661,1156.1 792.813,1160.82 786.966,1165.96 781.118,1171.67 775.271,1177.99 769.423,1184.83 763.575,1192.08 757.728,1199.55 751.88,1207.04 746.032,1214.27 740.185,1221.01 734.337,1227.06 728.489,1232.43 722.642,1237.25 716.794,1241.81 710.947,1246.41 705.099,1251.28 699.251,1256.58 693.404,1262.3 687.556,1268.38 681.708,1274.71 675.861,1281.12 670.013,1287.44 664.165,1293.54 658.318,1299.33 652.47,1304.77 646.623,1309.9 640.775,1314.76 634.927,1319.39 629.08,1323.76 623.232,1327.83 617.384,1331.5 611.537,1334.71 605.689,1337.45 599.841,1339.79 593.994,1341.87 588.146,1343.88 582.299,1345.96 576.451,1348.21 570.603,1350.63 564.756,1353.14 558.908,1355.65 553.06,1358.08 547.213,1360.37 541.365,1362.51 535.517,1364.53 529.67,1366.45 523.822,1368.31 517.975,1370.11 512.127,1371.86 506.279,1373.51 500.432,1375.01 494.584,1376.35 488.736,1377.52 482.889,1378.54 477.041,1379.48 471.193,1380.4 465.346,1381.32 459.498,1382.24 453.651,1383.12 447.803,1383.91 441.955,1384.57 436.108,1385.09 430.26,1385.46 424.412,1385.73 418.565,1385.93 412.717,1386.11 406.869,1386.28 401.022,1386.44 395.174,1386.61 389.327,1386.77 383.479,1386.92 377.631,1387.05 371.784,1387.17 365.936,1387.28 360.088,1387.38 354.241,1387.46 348.393,1387.51 342.545,1387.54 336.698,1387.54 330.85,1387.52 325.003,1387.5 319.155,1387.49 313.307,1387.5 307.46,1387.53 301.612,1387.59 295.764,1387.65 289.917,1387.72 284.069,1387.78 278.221,1387.82 272.374,1387.85 266.526,1387.87 260.679,1387.88 254.831,1387.89 248.983,1387.89 243.136,1387.89 237.288,1387.89 231.44,1387.89 "/>
<path clip-path="url(#clip450)" d="M1791.56 494.044 L2284.67 494.044 L2284.67 192.246 L1791.56 192.246  Z" fill="#ffffff" fill-rule="evenodd" fill-opacity="1"/>
<polyline clip-path="url(#clip450)" style="stroke:#000000; stroke-linecap:round; stroke-linejoin:round; stroke-width:4; stroke-opacity:1; fill:none" points="1791.56,494.044 2284.67,494.044 2284.67,192.246 1791.56,192.246 1791.56,494.044 "/>
<path clip-path="url(#clip450)" d="M1814.25 297.875 L1950.41 297.875 L1950.41 237.516 L1814.25 237.516 L1814.25 297.875  Z" fill="#808080" fill-rule="evenodd" fill-opacity="1"/>
<polyline clip-path="url(#clip450)" style="stroke:#000000; stroke-linecap:round; stroke-linejoin:round; stroke-width:6; stroke-opacity:1; fill:none" points="1814.25,297.875 1950.41,297.875 1950.41,237.516 1814.25,237.516 1814.25,297.875 "/>
<g clip-path="url(#clip450)">
<text style="fill:#000000; fill-opacity:1; font-family:Arial,Helvetica Neue,Helvetica,sans-serif; font-size:71px; text-anchor:start;" transform="rotate(0, 1973.11, 293.695)" x="1973.11" y="293.695">Data</text>
</g>
<polyline clip-path="url(#clip450)" style="stroke:#0000ff; stroke-linecap:round; stroke-linejoin:round; stroke-width:12; stroke-opacity:1; fill:none" points="1814.25,343.145 1950.41,343.145 "/>
<g clip-path="url(#clip450)">
<text style="fill:#000000; fill-opacity:1; font-family:Arial,Helvetica Neue,Helvetica,sans-serif; font-size:71px; text-anchor:start;" transform="rotate(0, 1973.11, 369.145)" x="1973.11" y="369.145">Prior</text>
</g>
<polyline clip-path="url(#clip450)" style="stroke:#000000; stroke-linecap:round; stroke-linejoin:round; stroke-width:12; stroke-opacity:1; fill:none" points="1814.25,418.595 1950.41,418.595 "/>
<g clip-path="url(#clip450)">
<text style="fill:#000000; fill-opacity:1; font-family:Arial,Helvetica Neue,Helvetica,sans-serif; font-size:71px; text-anchor:start;" transform="rotate(0, 1973.11, 444.595)" x="1973.11" y="444.595">Posterior</text>
</g>
<path clip-path="url(#clip450)" d="M412.431 645.768 L1229.41 645.768 L1229.41 151.017 L412.431 151.017  Z" fill="#ffffff" fill-rule="evenodd" fill-opacity="1"/>
<defs>
  <clipPath id="clip453">
    <rect x="412" y="151" width="818" height="496"/>
  </clipPath>
</defs>
<polyline clip-path="url(#clip450)" style="stroke:#000000; stroke-linecap:round; stroke-linejoin:round; stroke-width:4; stroke-opacity:1; fill:none" points="412.431,645.768 1229.41,645.768 "/>
<polyline clip-path="url(#clip450)" style="stroke:#000000; stroke-linecap:round; stroke-linejoin:round; stroke-width:4; stroke-opacity:1; fill:none" points="527.916,645.768 527.916,626.87 "/>
<polyline clip-path="url(#clip450)" style="stroke:#000000; stroke-linecap:round; stroke-linejoin:round; stroke-width:4; stroke-opacity:1; fill:none" points="722.425,645.768 722.425,626.87 "/>
<polyline clip-path="url(#clip450)" style="stroke:#000000; stroke-linecap:round; stroke-linejoin:round; stroke-width:4; stroke-opacity:1; fill:none" points="916.935,645.768 916.935,626.87 "/>
<polyline clip-path="url(#clip450)" style="stroke:#000000; stroke-linecap:round; stroke-linejoin:round; stroke-width:4; stroke-opacity:1; fill:none" points="1111.44,645.768 1111.44,626.87 "/>
<g clip-path="url(#clip450)">
<text style="fill:#000000; fill-opacity:1; font-family:Arial,Helvetica Neue,Helvetica,sans-serif; font-size:71px; text-anchor:middle;" transform="rotate(0, 527.916, 728.692)" x="527.916" y="728.692">−20</text>
</g>
<g clip-path="url(#clip450)">
<text style="fill:#000000; fill-opacity:1; font-family:Arial,Helvetica Neue,Helvetica,sans-serif; font-size:71px; text-anchor:middle;" transform="rotate(0, 722.425, 728.692)" x="722.425" y="728.692">−10</text>
</g>
<g clip-path="url(#clip450)">
<text style="fill:#000000; fill-opacity:1; font-family:Arial,Helvetica Neue,Helvetica,sans-serif; font-size:71px; text-anchor:middle;" transform="rotate(0, 916.935, 728.692)" x="916.935" y="728.692">0</text>
</g>
<g clip-path="url(#clip450)">
<text style="fill:#000000; fill-opacity:1; font-family:Arial,Helvetica Neue,Helvetica,sans-serif; font-size:71px; text-anchor:middle;" transform="rotate(0, 1111.44, 728.692)" x="1111.44" y="728.692">10</text>
</g>
<g clip-path="url(#clip450)">
<text style="fill:#000000; fill-opacity:1; font-family:Arial,Helvetica Neue,Helvetica,sans-serif; font-size:95px; text-anchor:middle;" transform="rotate(0, 820.921, 844.017)" x="820.921" y="844.017">λ</text>
</g>
<polyline clip-path="url(#clip450)" style="stroke:#000000; stroke-linecap:round; stroke-linejoin:round; stroke-width:4; stroke-opacity:1; fill:none" points="412.431,645.768 412.431,151.017 "/>
<polyline clip-path="url(#clip453)" style="stroke:#000000; stroke-linecap:round; stroke-linejoin:round; stroke-width:8; stroke-opacity:1; fill:none" points="435.553,631.765 436.975,631.765 438.397,631.764 439.819,631.761 441.241,631.756 442.663,631.744 444.085,631.721 445.506,631.681 446.928,631.617 448.35,631.52 449.772,631.389 451.194,631.226 452.616,631.042 454.038,630.849 455.46,630.665 456.882,630.498 458.304,630.346 459.725,630.195 461.147,630.028 462.569,629.829 463.991,629.591 465.413,629.323 466.835,629.042 468.257,628.769 469.679,628.521 471.101,628.306 472.523,628.117 473.945,627.936 475.366,627.737 476.788,627.485 478.21,627.145 479.632,626.686 481.054,626.079 482.476,625.31 483.898,624.371 485.32,623.259 486.742,621.973 488.164,620.509 489.585,618.858 491.007,617.009 492.429,614.951 493.851,612.676 495.273,610.186 496.695,607.507 498.117,604.693 499.539,601.835 500.961,599.044 502.383,596.43 503.804,594.074 505.226,592.006 506.648,590.195 508.07,588.556 509.492,586.968 510.914,585.287 512.336,583.355 513.758,580.999 515.18,578.034 516.602,574.275 518.024,569.574 519.445,563.868 520.867,557.218 522.289,549.824 523.711,541.988 525.133,534.055 526.555,526.325 527.977,518.991 529.399,512.118 530.821,505.659 532.243,499.503 533.664,493.537 535.086,487.686 536.508,481.917 537.93,476.218 539.352,470.549 540.774,464.81 542.196,458.83 543.618,452.397 545.04,445.328 546.462,437.532 547.883,429.063 549.305,420.112 550.727,410.955 552.149,401.866 553.571,393.026 554.993,384.458 556.415,376.011 557.837,367.4 559.259,358.275 560.681,348.313 562.103,337.309 563.524,325.243 564.946,312.314 566.368,298.918 567.79,285.582 569.212,272.875 570.634,261.308 572.056,251.265 573.478,242.95 574.9,236.373 576.322,231.344 577.743,227.496 579.165,224.324 580.587,221.257 582.009,217.747 583.431,213.362 584.853,207.867 586.275,201.278 587.697,193.884 589.119,186.213 590.541,178.953 591.962,172.806 593.384,168.323 594.806,165.76 596.228,165.019 597.65,165.704 599.072,167.264 600.494,169.171 601.916,171.067 603.338,172.841 604.76,174.635 606.182,176.802 607.603,179.81 609.025,184.137 610.447,190.147 611.869,197.992 613.291,207.57 614.713,218.569 616.135,230.575 617.557,243.204 618.979,256.201 620.401,269.446 621.822,282.898 623.244,296.499 624.666,310.101 626.088,323.452 627.51,336.244 628.932,348.207 630.354,359.191 631.776,369.242 633.198,378.617 634.62,387.75 636.041,397.162 637.463,407.322 638.885,418.508 640.307,430.71 641.729,443.617 643.151,456.687 644.573,469.299 645.995,480.922 647.417,491.256 648.839,500.297 650.261,508.309 651.682,515.72 653.104,522.969 654.526,530.369 655.948,538.03 657.37,545.857 658.792,553.61 660.214,561.008 661.636,567.821 663.058,573.929 664.48,579.331 665.901,584.13 667.323,588.479 668.745,592.537 670.167,596.425 671.589,600.204 673.011,603.87 674.433,607.373 675.855,610.641 677.277,613.609 678.699,616.237 680.12,618.514 681.542,620.455 682.964,622.088 684.386,623.447 685.808,624.568 687.23,625.492 688.652,626.265 690.074,626.937 691.496,627.55 692.918,628.136 694.34,628.707 695.761,629.261 697.183,629.781 698.605,630.251 700.027,630.655 701.449,630.986 702.871,631.242 704.293,631.431 705.715,631.562 707.137,631.649 708.559,631.702 709.98,631.733 711.402,631.75 712.824,631.758 714.246,631.762 715.668,631.764 717.09,631.765 718.512,631.765 "/>
<polyline clip-path="url(#clip453)" style="stroke:#0000ff; stroke-linecap:round; stroke-linejoin:round; stroke-width:8; stroke-opacity:1; fill:none" points="627.582,631.553 630.569,631.52 633.556,631.483 651.052,631.141 668.547,630.453 676.686,629.943 684.825,629.262 695.735,627.999 706.644,626.209 711.151,625.278 715.659,624.217 720.166,623.011 724.673,621.647 728.864,620.223 733.056,618.636 737.247,616.875 741.438,614.927 746.7,612.197 751.961,609.129 757.223,605.698 762.484,601.885 767.204,598.123 771.923,594.027 776.643,589.587 781.362,584.798 786.765,578.885 792.167,572.514 797.569,565.695 802.971,558.445 807.009,552.761 811.048,546.864 815.086,540.773 819.124,534.507 829.454,517.848 839.783,500.669 849.211,485.012 858.639,469.88 861.322,465.742 864.004,461.701 866.687,457.768 869.37,453.956 872.052,450.276 874.735,446.74 877.417,443.359 880.1,440.145 884.353,435.415 888.606,431.168 892.859,427.441 897.112,424.265 899.754,422.583 902.396,421.13 905.038,419.911 907.68,418.931 910.322,418.193 912.963,417.699 915.605,417.451 918.247,417.451 922.294,417.928 926.341,418.981 930.387,420.6 934.434,422.774 937.286,424.629 940.139,426.744 942.991,429.11 945.844,431.717 948.696,434.557 951.549,437.617 954.402,440.886 957.254,444.353 961.517,449.873 965.781,455.76 970.044,461.967 974.307,468.446 984.004,483.939 993.701,500.025 1003.3,516.015 1012.91,531.602 1018.19,539.861 1023.47,547.827 1028.75,555.455 1034.04,562.709 1038.07,567.98 1042.11,573.007 1046.14,577.783 1050.18,582.304 1055.27,587.643 1060.36,592.574 1065.45,597.102 1070.54,601.238 1075.25,604.726 1079.96,607.903 1084.67,610.784 1089.38,613.385 1094.24,615.791 1099.1,617.936 1103.95,619.84 1108.81,621.522 1113.73,623.019 1118.66,624.328 1123.58,625.466 1128.5,626.451 1138.78,628.087 1149.06,629.264 1157.16,629.942 1165.26,630.45 1183.71,631.165 1202.15,631.506 1204.22,631.531 1206.29,631.553 "/>
</svg>
