<?xml version="1.0" encoding="utf-8"?>
<svg xmlns="http://www.w3.org/2000/svg" xmlns:xlink="http://www.w3.org/1999/xlink" width="600" height="400" viewBox="0 0 2400 1600">
<defs>
  <clipPath id="clip940">
    <rect x="0" y="0" width="2400" height="1600"/>
  </clipPath>
</defs>
<path clip-path="url(#clip940)" d="M0 1600 L2400 1600 L2400 0 L0 0  Z" fill="#ffffff" fill-rule="evenodd" fill-opacity="1"/>
<defs>
  <clipPath id="clip941">
    <rect x="480" y="0" width="1681" height="1600"/>
  </clipPath>
</defs>
<path clip-path="url(#clip940)" d="M310.309 1387.89 L2352.76 1387.89 L2352.76 151.017 L310.309 151.017  Z" fill="#ffffff" fill-rule="evenodd" fill-opacity="1"/>
<defs>
  <clipPath id="clip942">
    <rect x="310" y="151" width="2043" height="1238"/>
  </clipPath>
</defs>
<polyline clip-path="url(#clip942)" style="stroke:#000000; stroke-linecap:round; stroke-linejoin:round; stroke-width:2; stroke-opacity:0.1; fill:none" points="2352.76,1387.89 2352.76,151.017 "/>
<polyline clip-path="url(#clip942)" style="stroke:#000000; stroke-linecap:round; stroke-linejoin:round; stroke-width:2; stroke-opacity:0.1; fill:none" points="2009.56,1387.89 2009.56,151.017 "/>
<polyline clip-path="url(#clip942)" style="stroke:#000000; stroke-linecap:round; stroke-linejoin:round; stroke-width:2; stroke-opacity:0.1; fill:none" points="1666.37,1387.89 1666.37,151.017 "/>
<polyline clip-path="url(#clip942)" style="stroke:#000000; stroke-linecap:round; stroke-linejoin:round; stroke-width:2; stroke-opacity:0.1; fill:none" points="1323.17,1387.89 1323.17,151.017 "/>
<polyline clip-path="url(#clip942)" style="stroke:#000000; stroke-linecap:round; stroke-linejoin:round; stroke-width:2; stroke-opacity:0.1; fill:none" points="979.978,1387.89 979.978,151.017 "/>
<polyline clip-path="url(#clip942)" style="stroke:#000000; stroke-linecap:round; stroke-linejoin:round; stroke-width:2; stroke-opacity:0.1; fill:none" points="636.783,1387.89 636.783,151.017 "/>
<polyline clip-path="url(#clip942)" style="stroke:#000000; stroke-linecap:round; stroke-linejoin:round; stroke-width:2; stroke-opacity:0.1; fill:none" points="2352.76,1387.89 310.309,1387.89 "/>
<polyline clip-path="url(#clip942)" style="stroke:#000000; stroke-linecap:round; stroke-linejoin:round; stroke-width:2; stroke-opacity:0.1; fill:none" points="2352.76,1140.52 310.309,1140.52 "/>
<polyline clip-path="url(#clip942)" style="stroke:#000000; stroke-linecap:round; stroke-linejoin:round; stroke-width:2; stroke-opacity:0.1; fill:none" points="2352.76,893.143 310.309,893.143 "/>
<polyline clip-path="url(#clip942)" style="stroke:#000000; stroke-linecap:round; stroke-linejoin:round; stroke-width:2; stroke-opacity:0.1; fill:none" points="2352.76,645.768 310.309,645.768 "/>
<polyline clip-path="url(#clip942)" style="stroke:#000000; stroke-linecap:round; stroke-linejoin:round; stroke-width:2; stroke-opacity:0.1; fill:none" points="2352.76,398.392 310.309,398.392 "/>
<polyline clip-path="url(#clip940)" style="stroke:#000000; stroke-linecap:round; stroke-linejoin:round; stroke-width:4; stroke-opacity:1; fill:none" points="2352.76,1387.89 310.309,1387.89 "/>
<polyline clip-path="url(#clip940)" style="stroke:#000000; stroke-linecap:round; stroke-linejoin:round; stroke-width:4; stroke-opacity:1; fill:none" points="2352.76,1387.89 2352.76,1369 "/>
<polyline clip-path="url(#clip940)" style="stroke:#000000; stroke-linecap:round; stroke-linejoin:round; stroke-width:4; stroke-opacity:1; fill:none" points="2009.56,1387.89 2009.56,1369 "/>
<polyline clip-path="url(#clip940)" style="stroke:#000000; stroke-linecap:round; stroke-linejoin:round; stroke-width:4; stroke-opacity:1; fill:none" points="1666.37,1387.89 1666.37,1369 "/>
<polyline clip-path="url(#clip940)" style="stroke:#000000; stroke-linecap:round; stroke-linejoin:round; stroke-width:4; stroke-opacity:1; fill:none" points="1323.17,1387.89 1323.17,1369 "/>
<polyline clip-path="url(#clip940)" style="stroke:#000000; stroke-linecap:round; stroke-linejoin:round; stroke-width:4; stroke-opacity:1; fill:none" points="979.978,1387.89 979.978,1369 "/>
<polyline clip-path="url(#clip940)" style="stroke:#000000; stroke-linecap:round; stroke-linejoin:round; stroke-width:4; stroke-opacity:1; fill:none" points="636.783,1387.89 636.783,1369 "/>
<g clip-path="url(#clip940)">
<text style="fill:#000000; fill-opacity:1; font-family:Arial,Helvetica Neue,Helvetica,sans-serif; font-size:71px; text-anchor:middle;" transform="rotate(0, 2352.76, 1470.82)" x="2352.76" y="1470.82">0</text>
</g>
<g clip-path="url(#clip940)">
<text style="fill:#000000; fill-opacity:1; font-family:Arial,Helvetica Neue,Helvetica,sans-serif; font-size:71px; text-anchor:middle;" transform="rotate(0, 2009.56, 1470.82)" x="2009.56" y="1470.82">50</text>
</g>
<g clip-path="url(#clip940)">
<text style="fill:#000000; fill-opacity:1; font-family:Arial,Helvetica Neue,Helvetica,sans-serif; font-size:71px; text-anchor:middle;" transform="rotate(0, 1666.37, 1470.82)" x="1666.37" y="1470.82">100</text>
</g>
<g clip-path="url(#clip940)">
<text style="fill:#000000; fill-opacity:1; font-family:Arial,Helvetica Neue,Helvetica,sans-serif; font-size:71px; text-anchor:middle;" transform="rotate(0, 1323.17, 1470.82)" x="1323.17" y="1470.82">150</text>
</g>
<g clip-path="url(#clip940)">
<text style="fill:#000000; fill-opacity:1; font-family:Arial,Helvetica Neue,Helvetica,sans-serif; font-size:71px; text-anchor:middle;" transform="rotate(0, 979.978, 1470.82)" x="979.978" y="1470.82">200</text>
</g>
<g clip-path="url(#clip940)">
<text style="fill:#000000; fill-opacity:1; font-family:Arial,Helvetica Neue,Helvetica,sans-serif; font-size:71px; text-anchor:middle;" transform="rotate(0, 636.783, 1470.82)" x="636.783" y="1470.82">250</text>
</g>
<g clip-path="url(#clip940)">
<text style="fill:#000000; fill-opacity:1; font-family:Arial,Helvetica Neue,Helvetica,sans-serif; font-size:95px; text-anchor:middle;" transform="rotate(0, 1331.53, 1586.14)" x="1331.53" y="1586.14">τ</text>
</g>
<polyline clip-path="url(#clip940)" style="stroke:#000000; stroke-linecap:round; stroke-linejoin:round; stroke-width:4; stroke-opacity:1; fill:none" points="310.309,1387.89 310.309,151.017 "/>
<polyline clip-path="url(#clip940)" style="stroke:#000000; stroke-linecap:round; stroke-linejoin:round; stroke-width:4; stroke-opacity:1; fill:none" points="310.309,1387.89 329.206,1387.89 "/>
<polyline clip-path="url(#clip940)" style="stroke:#000000; stroke-linecap:round; stroke-linejoin:round; stroke-width:4; stroke-opacity:1; fill:none" points="310.309,1140.52 329.206,1140.52 "/>
<polyline clip-path="url(#clip940)" style="stroke:#000000; stroke-linecap:round; stroke-linejoin:round; stroke-width:4; stroke-opacity:1; fill:none" points="310.309,893.143 329.206,893.143 "/>
<polyline clip-path="url(#clip940)" style="stroke:#000000; stroke-linecap:round; stroke-linejoin:round; stroke-width:4; stroke-opacity:1; fill:none" points="310.309,645.768 329.206,645.768 "/>
<polyline clip-path="url(#clip940)" style="stroke:#000000; stroke-linecap:round; stroke-linejoin:round; stroke-width:4; stroke-opacity:1; fill:none" points="310.309,398.392 329.206,398.392 "/>
<g clip-path="url(#clip940)">
<text style="fill:#000000; fill-opacity:1; font-family:Arial,Helvetica Neue,Helvetica,sans-serif; font-size:71px; text-anchor:middle;" transform="rotate(0, 204.058, 1413.89)" x="204.058" y="1413.89">0.00</text>
</g>
<g clip-path="url(#clip940)">
<text style="fill:#000000; fill-opacity:1; font-family:Arial,Helvetica Neue,Helvetica,sans-serif; font-size:71px; text-anchor:middle;" transform="rotate(0, 204.058, 1166.52)" x="204.058" y="1166.52">0.01</text>
</g>
<g clip-path="url(#clip940)">
<text style="fill:#000000; fill-opacity:1; font-family:Arial,Helvetica Neue,Helvetica,sans-serif; font-size:71px; text-anchor:middle;" transform="rotate(0, 204.058, 919.143)" x="204.058" y="919.143">0.02</text>
</g>
<g clip-path="url(#clip940)">
<text style="fill:#000000; fill-opacity:1; font-family:Arial,Helvetica Neue,Helvetica,sans-serif; font-size:71px; text-anchor:middle;" transform="rotate(0, 204.058, 671.768)" x="204.058" y="671.768">0.03</text>
</g>
<g clip-path="url(#clip940)">
<text style="fill:#000000; fill-opacity:1; font-family:Arial,Helvetica Neue,Helvetica,sans-serif; font-size:71px; text-anchor:middle;" transform="rotate(0, 204.058, 424.392)" x="204.058" y="424.392">0.04</text>
</g>
<g clip-path="url(#clip940)">
<text style="fill:#000000; fill-opacity:1; font-family:Arial,Helvetica Neue,Helvetica,sans-serif; font-size:95px; text-anchor:middle;" transform="rotate(-90, 80.007, 769.455)" x="80.007" y="769.455">Density</text>
</g>
<g clip-path="url(#clip940)">
<text style="fill:#000000; fill-opacity:1; font-family:Arial,Helvetica Neue,Helvetica,sans-serif; font-size:125px; text-anchor:middle;" transform="rotate(0, 1331.53, 109.2)" x="1331.53" y="109.2">Otocephala</text>
</g>
<path clip-path="url(#clip942)" d="M2387.04 397.973 L2387.04 1387.89 L2330.27 1387.89 L2330.27 397.973 L2387.04 397.973 L2387.04 397.973  Z" fill="#808080" fill-rule="evenodd" fill-opacity="1"/>
<polyline clip-path="url(#clip942)" style="stroke:#000000; stroke-linecap:round; stroke-linejoin:round; stroke-width:4; stroke-opacity:1; fill:none" points="2387.04,397.973 2387.04,1387.89 2330.27,1387.89 2330.27,397.973 2387.04,397.973 "/>
<path clip-path="url(#clip942)" d="M2330.27 805.043 L2330.27 1387.89 L2273.51 1387.89 L2273.51 805.043 L2330.27 805.043 L2330.27 805.043  Z" fill="#808080" fill-rule="evenodd" fill-opacity="1"/>
<polyline clip-path="url(#clip942)" style="stroke:#000000; stroke-linecap:round; stroke-linejoin:round; stroke-width:4; stroke-opacity:1; fill:none" points="2330.27,805.043 2330.27,1387.89 2273.51,1387.89 2273.51,805.043 2330.27,805.043 "/>
<path clip-path="url(#clip942)" d="M2273.51 894.475 L2273.51 1387.89 L2216.75 1387.89 L2216.75 894.475 L2273.51 894.475 L2273.51 894.475  Z" fill="#808080" fill-rule="evenodd" fill-opacity="1"/>
<polyline clip-path="url(#clip942)" style="stroke:#000000; stroke-linecap:round; stroke-linejoin:round; stroke-width:4; stroke-opacity:1; fill:none" points="2273.51,894.475 2273.51,1387.89 2216.75,1387.89 2216.75,894.475 2273.51,894.475 "/>
<path clip-path="url(#clip942)" d="M2216.75 1320.05 L2216.75 1387.89 L2159.99 1387.89 L2159.99 1320.05 L2216.75 1320.05 L2216.75 1320.05  Z" fill="#808080" fill-rule="evenodd" fill-opacity="1"/>
<polyline clip-path="url(#clip942)" style="stroke:#000000; stroke-linecap:round; stroke-linejoin:round; stroke-width:4; stroke-opacity:1; fill:none" points="2216.75,1320.05 2216.75,1387.89 2159.99,1387.89 2159.99,1320.05 2216.75,1320.05 "/>
<path clip-path="url(#clip942)" d="M2159.99 1295.38 L2159.99 1387.89 L2103.22 1387.89 L2103.22 1295.38 L2159.99 1295.38 L2159.99 1295.38  Z" fill="#808080" fill-rule="evenodd" fill-opacity="1"/>
<polyline clip-path="url(#clip942)" style="stroke:#000000; stroke-linecap:round; stroke-linejoin:round; stroke-width:4; stroke-opacity:1; fill:none" points="2159.99,1295.38 2159.99,1387.89 2103.22,1387.89 2103.22,1295.38 2159.99,1295.38 "/>
<path clip-path="url(#clip942)" d="M2103.22 1190.53 L2103.22 1387.89 L2046.46 1387.89 L2046.46 1190.53 L2103.22 1190.53 L2103.22 1190.53  Z" fill="#808080" fill-rule="evenodd" fill-opacity="1"/>
<polyline clip-path="url(#clip942)" style="stroke:#000000; stroke-linecap:round; stroke-linejoin:round; stroke-width:4; stroke-opacity:1; fill:none" points="2103.22,1190.53 2103.22,1387.89 2046.46,1387.89 2046.46,1190.53 2103.22,1190.53 "/>
<path clip-path="url(#clip942)" d="M2046.46 1323.13 L2046.46 1387.89 L1989.7 1387.89 L1989.7 1323.13 L2046.46 1323.13 L2046.46 1323.13  Z" fill="#808080" fill-rule="evenodd" fill-opacity="1"/>
<polyline clip-path="url(#clip942)" style="stroke:#000000; stroke-linecap:round; stroke-linejoin:round; stroke-width:4; stroke-opacity:1; fill:none" points="2046.46,1323.13 2046.46,1387.89 1989.7,1387.89 1989.7,1323.13 2046.46,1323.13 "/>
<path clip-path="url(#clip942)" d="M1989.7 1335.47 L1989.7 1387.89 L1932.94 1387.89 L1932.94 1335.47 L1989.7 1335.47 L1989.7 1335.47  Z" fill="#808080" fill-rule="evenodd" fill-opacity="1"/>
<polyline clip-path="url(#clip942)" style="stroke:#000000; stroke-linecap:round; stroke-linejoin:round; stroke-width:4; stroke-opacity:1; fill:none" points="1989.7,1335.47 1989.7,1387.89 1932.94,1387.89 1932.94,1335.47 1989.7,1335.47 "/>
<path clip-path="url(#clip942)" d="M1932.94 1227.53 L1932.94 1387.89 L1876.17 1387.89 L1876.17 1227.53 L1932.94 1227.53 L1932.94 1227.53  Z" fill="#808080" fill-rule="evenodd" fill-opacity="1"/>
<polyline clip-path="url(#clip942)" style="stroke:#000000; stroke-linecap:round; stroke-linejoin:round; stroke-width:4; stroke-opacity:1; fill:none" points="1932.94,1227.53 1932.94,1387.89 1876.17,1387.89 1876.17,1227.53 1932.94,1227.53 "/>
<path clip-path="url(#clip942)" d="M1876.17 1387.89 L1876.17 1387.89 L1819.41 1387.89 L1819.41 1387.89 L1876.17 1387.89 L1876.17 1387.89  Z" fill="#808080" fill-rule="evenodd" fill-opacity="1"/>
<polyline clip-path="url(#clip942)" style="stroke:#000000; stroke-linecap:round; stroke-linejoin:round; stroke-width:4; stroke-opacity:1; fill:none" points="1876.17,1387.89 1876.17,1387.89 1819.41,1387.89 1876.17,1387.89 "/>
<path clip-path="url(#clip942)" d="M1819.41 1353.97 L1819.41 1387.89 L1762.65 1387.89 L1762.65 1353.97 L1819.41 1353.97 L1819.41 1353.97  Z" fill="#808080" fill-rule="evenodd" fill-opacity="1"/>
<polyline clip-path="url(#clip942)" style="stroke:#000000; stroke-linecap:round; stroke-linejoin:round; stroke-width:4; stroke-opacity:1; fill:none" points="1819.41,1353.97 1819.41,1387.89 1762.65,1387.89 1762.65,1353.97 1819.41,1353.97 "/>
<path clip-path="url(#clip942)" d="M1762.65 1372.47 L1762.65 1387.89 L1705.89 1387.89 L1705.89 1372.47 L1762.65 1372.47 L1762.65 1372.47  Z" fill="#808080" fill-rule="evenodd" fill-opacity="1"/>
<polyline clip-path="url(#clip942)" style="stroke:#000000; stroke-linecap:round; stroke-linejoin:round; stroke-width:4; stroke-opacity:1; fill:none" points="1762.65,1372.47 1762.65,1387.89 1705.89,1387.89 1705.89,1372.47 1762.65,1372.47 "/>
<path clip-path="url(#clip942)" d="M1705.89 1283.04 L1705.89 1387.89 L1649.13 1387.89 L1649.13 1283.04 L1705.89 1283.04 L1705.89 1283.04  Z" fill="#808080" fill-rule="evenodd" fill-opacity="1"/>
<polyline clip-path="url(#clip942)" style="stroke:#000000; stroke-linecap:round; stroke-linejoin:round; stroke-width:4; stroke-opacity:1; fill:none" points="1705.89,1283.04 1705.89,1387.89 1649.13,1387.89 1649.13,1283.04 1705.89,1283.04 "/>
<path clip-path="url(#clip942)" d="M1649.13 1332.38 L1649.13 1387.89 L1592.36 1387.89 L1592.36 1332.38 L1649.13 1332.38 L1649.13 1332.38  Z" fill="#808080" fill-rule="evenodd" fill-opacity="1"/>
<polyline clip-path="url(#clip942)" style="stroke:#000000; stroke-linecap:round; stroke-linejoin:round; stroke-width:4; stroke-opacity:1; fill:none" points="1649.13,1332.38 1649.13,1387.89 1592.36,1387.89 1592.36,1332.38 1649.13,1332.38 "/>
<path clip-path="url(#clip942)" d="M1592.36 1335.47 L1592.36 1387.89 L1535.6 1387.89 L1535.6 1335.47 L1592.36 1335.47 L1592.36 1335.47  Z" fill="#808080" fill-rule="evenodd" fill-opacity="1"/>
<polyline clip-path="url(#clip942)" style="stroke:#000000; stroke-linecap:round; stroke-linejoin:round; stroke-width:4; stroke-opacity:1; fill:none" points="1592.36,1335.47 1592.36,1387.89 1535.6,1387.89 1535.6,1335.47 1592.36,1335.47 "/>
<path clip-path="url(#clip942)" d="M1535.6 1381.73 L1535.6 1387.89 L1478.84 1387.89 L1478.84 1381.73 L1535.6 1381.73 L1535.6 1381.73  Z" fill="#808080" fill-rule="evenodd" fill-opacity="1"/>
<polyline clip-path="url(#clip942)" style="stroke:#000000; stroke-linecap:round; stroke-linejoin:round; stroke-width:4; stroke-opacity:1; fill:none" points="1535.6,1381.73 1535.6,1387.89 1478.84,1387.89 1478.84,1381.73 1535.6,1381.73 "/>
<path clip-path="url(#clip942)" d="M1478.84 1375.56 L1478.84 1387.89 L1422.08 1387.89 L1422.08 1375.56 L1478.84 1375.56 L1478.84 1375.56  Z" fill="#808080" fill-rule="evenodd" fill-opacity="1"/>
<polyline clip-path="url(#clip942)" style="stroke:#000000; stroke-linecap:round; stroke-linejoin:round; stroke-width:4; stroke-opacity:1; fill:none" points="1478.84,1375.56 1478.84,1387.89 1422.08,1387.89 1422.08,1375.56 1478.84,1375.56 "/>
<path clip-path="url(#clip942)" d="M1422.08 1387.89 L1422.08 1387.89 L1365.31 1387.89 L1365.31 1387.89 L1422.08 1387.89 L1422.08 1387.89  Z" fill="#808080" fill-rule="evenodd" fill-opacity="1"/>
<polyline clip-path="url(#clip942)" style="stroke:#000000; stroke-linecap:round; stroke-linejoin:round; stroke-width:4; stroke-opacity:1; fill:none" points="1422.08,1387.89 1422.08,1387.89 1365.31,1387.89 1422.08,1387.89 "/>
<path clip-path="url(#clip942)" d="M1365.31 1378.64 L1365.31 1387.89 L1308.55 1387.89 L1308.55 1378.64 L1365.31 1378.64 L1365.31 1378.64  Z" fill="#808080" fill-rule="evenodd" fill-opacity="1"/>
<polyline clip-path="url(#clip942)" style="stroke:#000000; stroke-linecap:round; stroke-linejoin:round; stroke-width:4; stroke-opacity:1; fill:none" points="1365.31,1378.64 1365.31,1387.89 1308.55,1387.89 1308.55,1378.64 1365.31,1378.64 "/>
<circle clip-path="url(#clip942)" style="fill:#808080; stroke:none; fill-opacity:0" cx="2301.89" cy="805.043" r="2"/>
<circle clip-path="url(#clip942)" style="fill:#808080; stroke:none; fill-opacity:0" cx="2245.13" cy="894.475" r="2"/>
<circle clip-path="url(#clip942)" style="fill:#808080; stroke:none; fill-opacity:0" cx="2188.37" cy="1320.05" r="2"/>
<circle clip-path="url(#clip942)" style="fill:#808080; stroke:none; fill-opacity:0" cx="2131.6" cy="1295.38" r="2"/>
<circle clip-path="url(#clip942)" style="fill:#808080; stroke:none; fill-opacity:0" cx="2074.84" cy="1190.53" r="2"/>
<circle clip-path="url(#clip942)" style="fill:#808080; stroke:none; fill-opacity:0" cx="2018.08" cy="1323.13" r="2"/>
<circle clip-path="url(#clip942)" style="fill:#808080; stroke:none; fill-opacity:0" cx="1961.32" cy="1335.47" r="2"/>
<circle clip-path="url(#clip942)" style="fill:#808080; stroke:none; fill-opacity:0" cx="1904.56" cy="1227.53" r="2"/>
<circle clip-path="url(#clip942)" style="fill:#808080; stroke:none; fill-opacity:0" cx="1847.79" cy="1387.89" r="2"/>
<circle clip-path="url(#clip942)" style="fill:#808080; stroke:none; fill-opacity:0" cx="1791.03" cy="1353.97" r="2"/>
<circle clip-path="url(#clip942)" style="fill:#808080; stroke:none; fill-opacity:0" cx="1734.27" cy="1372.47" r="2"/>
<circle clip-path="url(#clip942)" style="fill:#808080; stroke:none; fill-opacity:0" cx="1677.51" cy="1283.04" r="2"/>
<circle clip-path="url(#clip942)" style="fill:#808080; stroke:none; fill-opacity:0" cx="1620.74" cy="1332.38" r="2"/>
<circle clip-path="url(#clip942)" style="fill:#808080; stroke:none; fill-opacity:0" cx="1563.98" cy="1335.47" r="2"/>
<circle clip-path="url(#clip942)" style="fill:#808080; stroke:none; fill-opacity:0" cx="1507.22" cy="1381.73" r="2"/>
<circle clip-path="url(#clip942)" style="fill:#808080; stroke:none; fill-opacity:0" cx="1450.46" cy="1375.56" r="2"/>
<circle clip-path="url(#clip942)" style="fill:#808080; stroke:none; fill-opacity:0" cx="1393.7" cy="1387.89" r="2"/>
<circle clip-path="url(#clip942)" style="fill:#808080; stroke:none; fill-opacity:0" cx="1336.93" cy="1378.64" r="2"/>
<polyline clip-path="url(#clip942)" style="stroke:#0000ff; stroke-linecap:round; stroke-linejoin:round; stroke-width:8; stroke-opacity:1; fill:none" points="1342.87,151.017 1339.61,180.072 1336.35,208.445 1333.08,236.151 1329.82,263.207 1325.04,301.68 1320.26,338.836 1315.48,374.722 1310.71,409.38 1305.93,442.853 1301.15,475.181 1296.37,506.403 1291.59,536.556 1286.82,565.679 1282.04,593.805 1277.26,620.969 1272.48,647.203 1262.92,697.011 1253.37,743.47 1248.92,764.004 1244.48,783.885 1240.03,803.132 1235.59,821.765 1226.69,857.27 1217.8,890.548 1211.84,911.674 1205.89,931.903 1199.93,951.273 1193.97,969.819 1182.05,1004.58 1170.13,1036.46 1160.29,1060.78 1150.44,1083.43 1140.59,1104.5 1130.74,1124.12 1121.59,1141.14 1112.43,1157.06 1103.27,1171.96 1094.11,1185.89 1082.62,1202.12 1071.12,1217.04 1059.63,1230.77 1048.13,1243.39 1027.51,1263.55 1006.89,1280.89 983.28,1297.8 959.675,1312.03 942.029,1321.18 924.384,1329.23 901.815,1338.12 879.247,1345.67 858.648,1351.55 838.049,1356.61 791.162,1365.66 753.993,1370.94 707.816,1375.78 672.451,1378.53 622.593,1381.38 585.334,1382.93 542.963,1384.25 501.001,1385.21 454.835,1385.98 419.572,1386.41 375.073,1386.82 333.916,1387.1 291.47,1387.31 248.446,1387.47 203.521,1387.59 168.132,1387.66 87.5383,1387.76 78.496,1387.77 "/>
<polyline clip-path="url(#clip942)" style="stroke:#000000; stroke-linecap:round; stroke-linejoin:round; stroke-width:8; stroke-opacity:1; fill:none" points="1398.78,1387.89 1392.97,1387.89 1387.16,1387.88 1381.36,1387.86 1375.55,1387.79 1369.75,1387.6 1363.94,1387.14 1358.13,1386.16 1352.33,1384.22 1346.52,1380.73 1340.72,1374.95 1334.91,1366.1 1329.11,1353.56 1323.3,1336.97 1317.49,1316.29 1311.69,1291.79 1305.88,1263.88 1300.08,1233.01 1294.27,1199.56 1288.46,1163.96 1282.66,1126.69 1276.85,1088.41 1271.05,1049.91 1265.24,1012.08 1259.44,975.803 1253.63,941.869 1247.82,910.85 1242.02,882.995 1236.21,858.18 1230.41,835.954 1224.6,815.674 1218.79,796.724 1212.99,778.783 1207.18,762.047 1201.38,747.257 1195.57,735.473 1189.76,727.7 1183.96,724.621 1178.15,726.557 1172.35,733.543 1166.54,745.269 1160.74,760.852 1154.93,778.701 1149.12,796.766 1143.32,813.137 1137.51,826.665 1131.71,837.218 1125.9,845.557 1120.09,853.013 1114.29,861.167 1108.48,871.51 1102.68,885.063 1096.87,902.03 1091.07,921.714 1085.26,942.809 1079.45,963.894 1073.65,983.852 1067.84,1002.01 1062.04,1018.09 1056.23,1032.1 1050.42,1044.33 1044.62,1055.39 1038.81,1066.1 1033.01,1077.2 1027.2,1089.09 1021.39,1101.65 1015.59,1114.44 1009.78,1126.93 1003.98,1138.72 998.171,1149.6 992.365,1159.5 986.559,1168.47 980.754,1176.71 974.948,1184.59 969.142,1192.54 963.336,1200.81 957.53,1209.32 951.724,1217.63 945.918,1225.17 940.113,1231.54 934.307,1236.83 928.501,1241.67 922.695,1247.04 916.889,1253.82 911.083,1262.37 905.277,1272.27 899.471,1282.49 893.666,1291.79 887.86,1299.21 882.054,1304.39 876.248,1307.62 870.442,1309.61 864.636,1311.2 858.83,1313.12 853.025,1315.81 847.219,1319.34 841.413,1323.49 835.607,1327.86 829.801,1332.06 823.995,1335.81 818.189,1339.05 812.384,1341.86 806.578,1344.42 800.772,1346.9 794.966,1349.38 789.16,1351.84 783.354,1354.19 777.548,1356.34 771.742,1358.3 765.937,1360.07 760.131,1361.71 754.325,1363.24 748.519,1364.67 742.713,1365.97 736.907,1367.07 731.101,1367.93 725.296,1368.52 719.49,1368.87 713.684,1369.09 707.878,1369.34 702.072,1369.81 696.266,1370.66 690.46,1371.94 684.655,1373.61 678.849,1375.5 673.043,1377.38 667.237,1379.01 661.431,1380.18 655.625,1380.8 649.819,1380.84 644.013,1380.38 638.208,1379.58 632.402,1378.67 626.596,1377.9 620.79,1377.5 614.984,1377.64 609.178,1378.33 603.372,1379.45 597.567,1380.79 591.761,1382.1 585.955,1383.19 580.149,1384 574.343,1384.53 568.537,1384.85 562.731,1385.01 556.926,1385.07 551.12,1385.04 545.314,1384.92 539.508,1384.73 533.702,1384.49 527.896,1384.23 522.09,1384.01 516.284,1383.87 510.479,1383.84 504.673,1383.94 498.867,1384.14 493.061,1384.43 487.255,1384.77 481.449,1385.11 475.643,1385.42 469.838,1385.65 464.032,1385.82 458.226,1385.94 452.42,1386.04 446.614,1386.16 440.808,1386.32 435.002,1386.51 429.196,1386.71 423.391,1386.88 417.585,1386.98 411.779,1386.97 405.973,1386.87 400.167,1386.68 394.361,1386.49 388.555,1386.34 382.75,1386.24 376.944,1386.2 371.138,1386.2 365.332,1386.21 359.526,1386.23 353.72,1386.25 347.914,1386.27 342.109,1386.28 336.303,1386.27 330.497,1386.25 324.691,1386.23 318.885,1386.24 313.079,1386.32 307.273,1386.48 301.467,1386.72 295.662,1387.01 289.856,1387.29 284.05,1387.52 278.244,1387.69 272.438,1387.79 266.632,1387.85 260.826,1387.88 255.021,1387.89 249.215,1387.89 243.409,1387.89 "/>
<path clip-path="url(#clip940)" d="M1791.56 494.044 L2284.67 494.044 L2284.67 192.246 L1791.56 192.246  Z" fill="#ffffff" fill-rule="evenodd" fill-opacity="1"/>
<polyline clip-path="url(#clip940)" style="stroke:#000000; stroke-linecap:round; stroke-linejoin:round; stroke-width:4; stroke-opacity:1; fill:none" points="1791.56,494.044 2284.67,494.044 2284.67,192.246 1791.56,192.246 1791.56,494.044 "/>
<path clip-path="url(#clip940)" d="M1814.25 297.875 L1950.41 297.875 L1950.41 237.516 L1814.25 237.516 L1814.25 297.875  Z" fill="#808080" fill-rule="evenodd" fill-opacity="1"/>
<polyline clip-path="url(#clip940)" style="stroke:#000000; stroke-linecap:round; stroke-linejoin:round; stroke-width:6; stroke-opacity:1; fill:none" points="1814.25,297.875 1950.41,297.875 1950.41,237.516 1814.25,237.516 1814.25,297.875 "/>
<g clip-path="url(#clip940)">
<text style="fill:#000000; fill-opacity:1; font-family:Arial,Helvetica Neue,Helvetica,sans-serif; font-size:71px; text-anchor:start;" transform="rotate(0, 1973.11, 293.695)" x="1973.11" y="293.695">Data</text>
</g>
<polyline clip-path="url(#clip940)" style="stroke:#0000ff; stroke-linecap:round; stroke-linejoin:round; stroke-width:12; stroke-opacity:1; fill:none" points="1814.25,343.145 1950.41,343.145 "/>
<g clip-path="url(#clip940)">
<text style="fill:#000000; fill-opacity:1; font-family:Arial,Helvetica Neue,Helvetica,sans-serif; font-size:71px; text-anchor:start;" transform="rotate(0, 1973.11, 369.145)" x="1973.11" y="369.145">Prior</text>
</g>
<polyline clip-path="url(#clip940)" style="stroke:#000000; stroke-linecap:round; stroke-linejoin:round; stroke-width:12; stroke-opacity:1; fill:none" points="1814.25,418.595 1950.41,418.595 "/>
<g clip-path="url(#clip940)">
<text style="fill:#000000; fill-opacity:1; font-family:Arial,Helvetica Neue,Helvetica,sans-serif; font-size:71px; text-anchor:start;" transform="rotate(0, 1973.11, 444.595)" x="1973.11" y="444.595">Posterior</text>
</g>
<path clip-path="url(#clip940)" d="M412.431 645.768 L1229.41 645.768 L1229.41 151.017 L412.431 151.017  Z" fill="#ffffff" fill-rule="evenodd" fill-opacity="1"/>
<defs>
  <clipPath id="clip943">
    <rect x="412" y="151" width="818" height="496"/>
  </clipPath>
</defs>
<polyline clip-path="url(#clip940)" style="stroke:#000000; stroke-linecap:round; stroke-linejoin:round; stroke-width:4; stroke-opacity:1; fill:none" points="412.431,645.768 1229.41,645.768 "/>
<polyline clip-path="url(#clip940)" style="stroke:#000000; stroke-linecap:round; stroke-linejoin:round; stroke-width:4; stroke-opacity:1; fill:none" points="435.553,645.768 435.553,626.87 "/>
<polyline clip-path="url(#clip940)" style="stroke:#000000; stroke-linecap:round; stroke-linejoin:round; stroke-width:4; stroke-opacity:1; fill:none" points="644.757,645.768 644.757,626.87 "/>
<polyline clip-path="url(#clip940)" style="stroke:#000000; stroke-linecap:round; stroke-linejoin:round; stroke-width:4; stroke-opacity:1; fill:none" points="853.96,645.768 853.96,626.87 "/>
<polyline clip-path="url(#clip940)" style="stroke:#000000; stroke-linecap:round; stroke-linejoin:round; stroke-width:4; stroke-opacity:1; fill:none" points="1063.16,645.768 1063.16,626.87 "/>
<g clip-path="url(#clip940)">
<text style="fill:#000000; fill-opacity:1; font-family:Arial,Helvetica Neue,Helvetica,sans-serif; font-size:71px; text-anchor:middle;" transform="rotate(0, 435.553, 728.692)" x="435.553" y="728.692">0</text>
</g>
<g clip-path="url(#clip940)">
<text style="fill:#000000; fill-opacity:1; font-family:Arial,Helvetica Neue,Helvetica,sans-serif; font-size:71px; text-anchor:middle;" transform="rotate(0, 644.757, 728.692)" x="644.757" y="728.692">10</text>
</g>
<g clip-path="url(#clip940)">
<text style="fill:#000000; fill-opacity:1; font-family:Arial,Helvetica Neue,Helvetica,sans-serif; font-size:71px; text-anchor:middle;" transform="rotate(0, 853.96, 728.692)" x="853.96" y="728.692">20</text>
</g>
<g clip-path="url(#clip940)">
<text style="fill:#000000; fill-opacity:1; font-family:Arial,Helvetica Neue,Helvetica,sans-serif; font-size:71px; text-anchor:middle;" transform="rotate(0, 1063.16, 728.692)" x="1063.16" y="728.692">30</text>
</g>
<g clip-path="url(#clip940)">
<text style="fill:#000000; fill-opacity:1; font-family:Arial,Helvetica Neue,Helvetica,sans-serif; font-size:95px; text-anchor:middle;" transform="rotate(0, 820.921, 844.017)" x="820.921" y="844.017">α,β</text>
</g>
<polyline clip-path="url(#clip940)" style="stroke:#000000; stroke-linecap:round; stroke-linejoin:round; stroke-width:4; stroke-opacity:1; fill:none" points="412.431,645.768 412.431,151.017 "/>
<polyline clip-path="url(#clip943)" style="stroke:#000000; stroke-linecap:round; stroke-linejoin:round; stroke-width:8; stroke-opacity:1; fill:none" points="443.607,631.765 443.624,631.765 443.642,631.764 443.659,631.761 443.676,631.755 443.694,631.742 443.711,631.717 443.728,631.671 443.746,631.596 443.763,631.483 443.781,631.33 443.798,631.138 443.815,630.915 443.833,630.672 443.85,630.416 443.867,630.145 443.885,629.839 443.902,629.462 443.92,628.97 443.937,628.325 443.954,627.521 443.972,626.591 443.989,625.608 444.006,624.657 444.024,623.795 444.041,623.022 444.059,622.274 444.076,621.449 444.093,620.445 444.111,619.205 444.128,617.731 444.145,616.073 444.163,614.283 444.18,612.376 444.198,610.311 444.215,608.006 444.232,605.385 444.25,602.416 444.267,599.118 444.284,595.536 444.302,591.701 444.319,587.616 444.337,583.246 444.354,578.538 444.371,573.426 444.389,567.832 444.406,561.68 444.423,554.917 444.441,547.548 444.458,539.648 444.476,531.33 444.493,522.699 444.51,513.803 444.528,504.633 444.545,495.16 444.562,485.377 444.58,475.312 444.597,464.995 444.615,454.416 444.632,443.509 444.649,432.186 444.667,420.375 444.684,408.051 444.701,395.223 444.719,381.934 444.736,368.285 444.754,354.474 444.771,340.788 444.788,327.514 444.806,314.793 444.823,302.532 444.841,290.443 444.858,278.215 444.875,265.699 444.893,253.026 444.91,240.57 444.927,228.813 444.945,218.186 444.962,208.943 444.98,201.109 444.997,194.491 445.014,188.752 445.032,183.526 445.049,178.572 445.066,173.89 445.084,169.762 445.101,166.654 445.119,165.019 445.136,165.102 445.153,166.837 445.171,169.901 445.188,173.866 445.205,178.36 445.223,183.147 445.24,188.104 445.258,193.153 445.275,198.207 445.292,203.174 445.31,208 445.327,212.705 445.344,217.376 445.362,222.131 445.379,227.08 445.397,232.347 445.414,238.134 445.431,244.776 445.449,252.716 445.466,262.346 445.483,273.796 445.501,286.803 445.518,300.759 445.536,314.934 445.553,328.743 445.57,341.907 445.588,354.444 445.605,366.548 445.622,378.462 445.64,390.392 445.657,402.483 445.675,414.804 445.692,427.332 445.709,439.94 445.727,452.427 445.744,464.576 445.761,476.217 445.779,487.25 445.796,497.628 445.814,507.313 445.831,516.256 445.848,524.407 445.866,531.759 445.883,538.372 445.9,544.384 445.918,549.973 445.935,555.321 445.953,560.567 445.97,565.787 445.987,570.991 446.005,576.14 446.022,581.167 446.039,585.998 446.057,590.568 446.074,594.825 446.092,598.725 446.109,602.239 446.126,605.359 446.144,608.111 446.161,610.547 446.179,612.733 446.196,614.717 446.213,616.512 446.231,618.102 446.248,619.461 446.265,620.58 446.283,621.483 446.3,622.225 446.318,622.872 446.335,623.487 446.352,624.108 446.37,624.749 446.387,625.407 446.404,626.069 446.422,626.727 446.439,627.378 446.457,628.015 446.474,628.626 446.491,629.195 446.509,629.705 446.526,630.148 446.543,630.522 446.561,630.834 446.578,631.092 446.596,631.299 446.613,631.46 446.63,631.577 446.648,631.653 446.665,631.695 446.682,631.705 446.7,631.683 446.717,631.627 446.735,631.531 446.752,631.395 446.769,631.227 446.787,631.051 446.804,630.898 446.821,630.804 446.839,630.793 446.856,630.867 446.874,631.009 446.891,631.184 446.908,631.357 446.926,631.504 446.943,631.613 446.96,631.684 446.978,631.726 446.995,631.748 447.013,631.758 447.03,631.763 447.047,631.764 447.065,631.765 "/>
<polyline clip-path="url(#clip943)" style="stroke:#000000; stroke-linecap:round; stroke-linejoin:round; stroke-width:8; stroke-opacity:1; fill:none" stroke-dasharray="4, 8" points="467.448,631.765 467.889,631.765 468.33,631.765 468.771,631.765 469.212,631.765 469.653,631.764 470.094,631.762 470.536,631.759 470.977,631.755 471.418,631.748 471.859,631.74 472.3,631.73 472.741,631.72 473.182,631.711 473.623,631.702 474.065,631.693 474.506,631.681 474.947,631.661 475.388,631.627 475.829,631.569 476.27,631.479 476.711,631.347 477.152,631.167 477.593,630.931 478.035,630.636 478.476,630.281 478.917,629.868 479.358,629.399 479.799,628.873 480.24,628.285 480.681,627.625 481.122,626.882 481.563,626.05 482.005,625.13 482.446,624.132 482.887,623.074 483.328,621.979 483.769,620.874 484.21,619.78 484.651,618.712 485.092,617.671 485.534,616.653 485.975,615.658 486.416,614.702 486.857,613.811 487.298,613.011 487.739,612.316 488.18,611.721 488.621,611.205 489.062,610.748 489.504,610.343 489.945,609.999 490.386,609.733 490.827,609.56 491.268,609.479 491.709,609.478 492.15,609.536 492.591,609.632 493.033,609.755 493.474,609.899 493.915,610.066 494.356,610.261 494.797,610.488 495.238,610.757 495.679,611.079 496.12,611.47 496.561,611.949 497.003,612.53 497.444,613.218 497.885,613.998 498.326,614.831 498.767,615.664 499.208,616.45 499.649,617.166 500.09,617.819 500.531,618.431 500.973,619.022 501.414,619.596 501.855,620.144 502.296,620.646 502.737,621.088 503.178,621.466 503.619,621.788 504.06,622.068 504.502,622.327 504.943,622.583 505.384,622.849 505.825,623.134 506.266,623.442 506.707,623.771 507.148,624.122 507.589,624.492 508.03,624.878 508.472,625.275 508.913,625.674 509.354,626.067 509.795,626.444 510.236,626.798 510.677,627.123 511.118,627.414 511.559,627.665 512.001,627.877 512.442,628.054 512.883,628.207 513.324,628.351 513.765,628.497 514.206,628.654 514.647,628.821 515.088,628.994 515.529,629.168 515.971,629.338 516.412,629.504 516.853,629.667 517.294,629.828 517.735,629.984 518.176,630.128 518.617,630.254 519.058,630.354 519.499,630.427 519.941,630.475 520.382,630.508 520.823,630.54 521.264,630.582 521.705,630.641 522.146,630.712 522.587,630.783 523.028,630.841 523.47,630.879 523.911,630.901 524.352,630.918 524.793,630.945 525.234,630.989 525.675,631.052 526.116,631.125 526.557,631.198 526.998,631.261 527.44,631.311 527.881,631.349 528.322,631.378 528.763,631.4 529.204,631.416 529.645,631.426 530.086,631.428 530.527,631.425 530.969,631.42 531.41,631.419 531.851,631.424 532.292,631.435 532.733,631.45 533.174,631.466 533.615,631.481 534.056,631.497 534.497,631.514 534.939,631.536 535.38,631.563 535.821,631.594 536.262,631.628 536.703,631.66 537.144,631.688 537.585,631.711 538.026,631.728 538.467,631.738 538.909,631.741 539.35,631.739 539.791,631.732 540.232,631.722 540.673,631.713 541.114,631.707 541.555,631.706 541.996,631.709 542.438,631.715 542.879,631.723 543.32,631.728 543.761,631.731 544.202,631.729 544.643,631.723 545.084,631.712 545.525,631.697 545.966,631.679 546.408,631.663 546.849,631.651 547.29,631.647 547.731,631.652 548.172,631.662 548.613,631.675 549.054,631.687 549.495,631.697 549.937,631.705 550.378,631.713 550.819,631.722 551.26,631.733 551.701,631.743 552.142,631.751 552.583,631.758 553.024,631.761 553.465,631.764 553.907,631.765 554.348,631.765 554.789,631.765 555.23,631.765 "/>
<polyline clip-path="url(#clip943)" style="stroke:#0000ff; stroke-linecap:round; stroke-linejoin:round; stroke-width:8; stroke-opacity:1; fill:none" points="435.553,626.144 437.542,626.276 439.532,626.405 441.521,626.531 443.51,626.654 446.423,626.829 449.335,626.998 452.248,627.161 455.161,627.318 458.073,627.47 460.986,627.617 463.899,627.759 466.811,627.896 469.724,628.029 472.637,628.156 475.549,628.28 478.462,628.399 484.287,628.625 490.112,628.837 492.822,628.93 495.532,629.02 498.242,629.108 500.952,629.192 506.372,629.354 511.792,629.505 515.424,629.601 519.057,629.693 522.689,629.781 526.321,629.865 533.586,630.023 540.85,630.168 546.853,630.279 552.856,630.381 558.859,630.477 564.862,630.566 570.444,630.644 576.026,630.716 581.608,630.784 587.19,630.847 594.197,630.921 601.205,630.989 608.212,631.051 615.22,631.108 627.791,631.2 640.362,631.279 654.752,631.356 669.141,631.42 679.898,631.462 690.654,631.499 704.411,631.539 718.168,631.573 730.725,631.6 743.281,631.623 771.863,631.664 794.52,631.688 822.669,631.71 844.226,631.723 874.619,631.736 897.331,631.743 923.159,631.749 948.739,631.753 976.88,631.756 998.376,631.758 1025.5,631.76 1050.59,631.762 1076.46,631.762 1102.69,631.763 1130.08,631.764 1151.65,631.764 1200.78,631.765 1206.29,631.765 "/>
<path clip-path="url(#clip940)" d="M931.964 469.307 L1202.18 469.307 L1202.18 167.508 L931.964 167.508  Z" fill="#ffffff" fill-rule="evenodd" fill-opacity="1"/>
<polyline clip-path="url(#clip940)" style="stroke:#000000; stroke-linecap:round; stroke-linejoin:round; stroke-width:4; stroke-opacity:1; fill:none" points="931.964,469.307 1202.18,469.307 1202.18,167.508 931.964,167.508 931.964,469.307 "/>
<polyline clip-path="url(#clip940)" style="stroke:#000000; stroke-linecap:round; stroke-linejoin:round; stroke-width:12; stroke-opacity:1; fill:none" points="941.041,242.958 995.507,242.958 "/>
<g clip-path="url(#clip940)">
<text style="fill:#000000; fill-opacity:1; font-family:Arial,Helvetica Neue,Helvetica,sans-serif; font-size:71px; text-anchor:start;" transform="rotate(0, 1004.58, 268.958)" x="1004.58" y="268.958">α</text>
</g>
<polyline clip-path="url(#clip940)" style="stroke:#000000; stroke-linecap:round; stroke-linejoin:round; stroke-width:12; stroke-opacity:1; fill:none" stroke-dasharray="6, 12" points="941.041,318.407 995.507,318.407 "/>
<g clip-path="url(#clip940)">
<text style="fill:#000000; fill-opacity:1; font-family:Arial,Helvetica Neue,Helvetica,sans-serif; font-size:71px; text-anchor:start;" transform="rotate(0, 1004.58, 344.407)" x="1004.58" y="344.407">β</text>
</g>
<polyline clip-path="url(#clip940)" style="stroke:#0000ff; stroke-linecap:round; stroke-linejoin:round; stroke-width:12; stroke-opacity:1; fill:none" points="941.041,393.857 995.507,393.857 "/>
<g clip-path="url(#clip940)">
<text style="fill:#000000; fill-opacity:1; font-family:Arial,Helvetica Neue,Helvetica,sans-serif; font-size:71px; text-anchor:start;" transform="rotate(0, 1004.58, 419.857)" x="1004.58" y="419.857">Priors</text>
</g>
</svg>
