<?xml version="1.0" encoding="utf-8"?>
<svg xmlns="http://www.w3.org/2000/svg" xmlns:xlink="http://www.w3.org/1999/xlink" width="600" height="400" viewBox="0 0 2400 1600">
<defs>
  <clipPath id="clip950">
    <rect x="0" y="0" width="2400" height="1600"/>
  </clipPath>
</defs>
<path clip-path="url(#clip950)" d="M0 1600 L2400 1600 L2400 0 L0 0  Z" fill="#ffffff" fill-rule="evenodd" fill-opacity="1"/>
<defs>
  <clipPath id="clip951">
    <rect x="112" y="47" width="2242" height="1440"/>
  </clipPath>
</defs>
<path clip-path="url(#clip950)" d="M112.177 1486.45 L2352.76 1486.45 L2352.76 47.2441 L112.177 47.2441  Z" fill="#ffffff" fill-rule="evenodd" fill-opacity="1"/>
<polyline clip-path="url(#clip951)" style="stroke:#000000; stroke-linecap:round; stroke-linejoin:round; stroke-width:2; stroke-opacity:0.1; fill:none" points="351.736,1486.45 351.736,47.2441 "/>
<polyline clip-path="url(#clip951)" style="stroke:#000000; stroke-linecap:round; stroke-linejoin:round; stroke-width:2; stroke-opacity:0.1; fill:none" points="792.101,1486.45 792.101,47.2441 "/>
<polyline clip-path="url(#clip951)" style="stroke:#000000; stroke-linecap:round; stroke-linejoin:round; stroke-width:2; stroke-opacity:0.1; fill:none" points="1232.47,1486.45 1232.47,47.2441 "/>
<polyline clip-path="url(#clip951)" style="stroke:#000000; stroke-linecap:round; stroke-linejoin:round; stroke-width:2; stroke-opacity:0.1; fill:none" points="1672.83,1486.45 1672.83,47.2441 "/>
<polyline clip-path="url(#clip951)" style="stroke:#000000; stroke-linecap:round; stroke-linejoin:round; stroke-width:2; stroke-opacity:0.1; fill:none" points="2113.2,1486.45 2113.2,47.2441 "/>
<polyline clip-path="url(#clip951)" style="stroke:#000000; stroke-linecap:round; stroke-linejoin:round; stroke-width:2; stroke-opacity:0.1; fill:none" points="112.177,1466.72 2352.76,1466.72 "/>
<polyline clip-path="url(#clip951)" style="stroke:#000000; stroke-linecap:round; stroke-linejoin:round; stroke-width:2; stroke-opacity:0.1; fill:none" points="112.177,1251.77 2352.76,1251.77 "/>
<polyline clip-path="url(#clip951)" style="stroke:#000000; stroke-linecap:round; stroke-linejoin:round; stroke-width:2; stroke-opacity:0.1; fill:none" points="112.177,1036.81 2352.76,1036.81 "/>
<polyline clip-path="url(#clip951)" style="stroke:#000000; stroke-linecap:round; stroke-linejoin:round; stroke-width:2; stroke-opacity:0.1; fill:none" points="112.177,821.854 2352.76,821.854 "/>
<polyline clip-path="url(#clip951)" style="stroke:#000000; stroke-linecap:round; stroke-linejoin:round; stroke-width:2; stroke-opacity:0.1; fill:none" points="112.177,606.898 2352.76,606.898 "/>
<polyline clip-path="url(#clip951)" style="stroke:#000000; stroke-linecap:round; stroke-linejoin:round; stroke-width:2; stroke-opacity:0.1; fill:none" points="112.177,391.941 2352.76,391.941 "/>
<polyline clip-path="url(#clip951)" style="stroke:#000000; stroke-linecap:round; stroke-linejoin:round; stroke-width:2; stroke-opacity:0.1; fill:none" points="112.177,176.985 2352.76,176.985 "/>
<polyline clip-path="url(#clip950)" style="stroke:#000000; stroke-linecap:round; stroke-linejoin:round; stroke-width:4; stroke-opacity:1; fill:none" points="112.177,1486.45 2352.76,1486.45 "/>
<polyline clip-path="url(#clip950)" style="stroke:#000000; stroke-linecap:round; stroke-linejoin:round; stroke-width:4; stroke-opacity:1; fill:none" points="351.736,1486.45 351.736,1467.55 "/>
<polyline clip-path="url(#clip950)" style="stroke:#000000; stroke-linecap:round; stroke-linejoin:round; stroke-width:4; stroke-opacity:1; fill:none" points="792.101,1486.45 792.101,1467.55 "/>
<polyline clip-path="url(#clip950)" style="stroke:#000000; stroke-linecap:round; stroke-linejoin:round; stroke-width:4; stroke-opacity:1; fill:none" points="1232.47,1486.45 1232.47,1467.55 "/>
<polyline clip-path="url(#clip950)" style="stroke:#000000; stroke-linecap:round; stroke-linejoin:round; stroke-width:4; stroke-opacity:1; fill:none" points="1672.83,1486.45 1672.83,1467.55 "/>
<polyline clip-path="url(#clip950)" style="stroke:#000000; stroke-linecap:round; stroke-linejoin:round; stroke-width:4; stroke-opacity:1; fill:none" points="2113.2,1486.45 2113.2,1467.55 "/>
<path clip-path="url(#clip950)" d="M326.424 1544.91 L334.062 1544.91 L334.062 1518.55 L325.752 1520.21 L325.752 1515.95 L334.016 1514.29 L338.692 1514.29 L338.692 1544.91 L346.331 1544.91 L346.331 1548.85 L326.424 1548.85 L326.424 1544.91 Z" fill="#000000" fill-rule="nonzero" fill-opacity="1" /><path clip-path="url(#clip950)" d="M365.775 1517.37 Q362.164 1517.37 360.335 1520.93 Q358.53 1524.47 358.53 1531.6 Q358.53 1538.71 360.335 1542.27 Q362.164 1545.82 365.775 1545.82 Q369.409 1545.82 371.215 1542.27 Q373.044 1538.71 373.044 1531.6 Q373.044 1524.47 371.215 1520.93 Q369.409 1517.37 365.775 1517.37 M365.775 1513.66 Q371.585 1513.66 374.641 1518.27 Q377.72 1522.85 377.72 1531.6 Q377.72 1540.33 374.641 1544.94 Q371.585 1549.52 365.775 1549.52 Q359.965 1549.52 356.886 1544.94 Q353.831 1540.33 353.831 1531.6 Q353.831 1522.85 356.886 1518.27 Q359.965 1513.66 365.775 1513.66 Z" fill="#000000" fill-rule="nonzero" fill-opacity="1" /><path clip-path="url(#clip950)" d="M766.8 1514.29 L785.157 1514.29 L785.157 1518.22 L771.083 1518.22 L771.083 1526.7 Q772.101 1526.35 773.12 1526.19 Q774.138 1526 775.157 1526 Q780.944 1526 784.323 1529.17 Q787.703 1532.34 787.703 1537.76 Q787.703 1543.34 784.231 1546.44 Q780.759 1549.52 774.439 1549.52 Q772.263 1549.52 769.995 1549.15 Q767.75 1548.78 765.342 1548.04 L765.342 1543.34 Q767.425 1544.47 769.648 1545.03 Q771.87 1545.58 774.347 1545.58 Q778.351 1545.58 780.689 1543.48 Q783.027 1541.37 783.027 1537.76 Q783.027 1534.15 780.689 1532.04 Q778.351 1529.94 774.347 1529.94 Q772.472 1529.94 770.597 1530.35 Q768.745 1530.77 766.8 1531.65 L766.8 1514.29 Z" fill="#000000" fill-rule="nonzero" fill-opacity="1" /><path clip-path="url(#clip950)" d="M806.916 1517.37 Q803.305 1517.37 801.476 1520.93 Q799.671 1524.47 799.671 1531.6 Q799.671 1538.71 801.476 1542.27 Q803.305 1545.82 806.916 1545.82 Q810.55 1545.82 812.356 1542.27 Q814.184 1538.71 814.184 1531.6 Q814.184 1524.47 812.356 1520.93 Q810.55 1517.37 806.916 1517.37 M806.916 1513.66 Q812.726 1513.66 815.782 1518.27 Q818.86 1522.85 818.86 1531.6 Q818.86 1540.33 815.782 1544.94 Q812.726 1549.52 806.916 1549.52 Q801.106 1549.52 798.027 1544.94 Q794.972 1540.33 794.972 1531.6 Q794.972 1522.85 798.027 1518.27 Q801.106 1513.66 806.916 1513.66 Z" fill="#000000" fill-rule="nonzero" fill-opacity="1" /><path clip-path="url(#clip950)" d="M1192.07 1544.91 L1199.71 1544.91 L1199.71 1518.55 L1191.4 1520.21 L1191.4 1515.95 L1199.67 1514.29 L1204.34 1514.29 L1204.34 1544.91 L1211.98 1544.91 L1211.98 1548.85 L1192.07 1548.85 L1192.07 1544.91 Z" fill="#000000" fill-rule="nonzero" fill-opacity="1" /><path clip-path="url(#clip950)" d="M1231.42 1517.37 Q1227.81 1517.37 1225.99 1520.93 Q1224.18 1524.47 1224.18 1531.6 Q1224.18 1538.71 1225.99 1542.27 Q1227.81 1545.82 1231.42 1545.82 Q1235.06 1545.82 1236.86 1542.27 Q1238.69 1538.71 1238.69 1531.6 Q1238.69 1524.47 1236.86 1520.93 Q1235.06 1517.37 1231.42 1517.37 M1231.42 1513.66 Q1237.24 1513.66 1240.29 1518.27 Q1243.37 1522.85 1243.37 1531.6 Q1243.37 1540.33 1240.29 1544.94 Q1237.24 1549.52 1231.42 1549.52 Q1225.61 1549.52 1222.54 1544.94 Q1219.48 1540.33 1219.48 1531.6 Q1219.48 1522.85 1222.54 1518.27 Q1225.61 1513.66 1231.42 1513.66 Z" fill="#000000" fill-rule="nonzero" fill-opacity="1" /><path clip-path="url(#clip950)" d="M1261.59 1517.37 Q1257.98 1517.37 1256.15 1520.93 Q1254.34 1524.47 1254.34 1531.6 Q1254.34 1538.71 1256.15 1542.27 Q1257.98 1545.82 1261.59 1545.82 Q1265.22 1545.82 1267.03 1542.27 Q1268.86 1538.71 1268.86 1531.6 Q1268.86 1524.47 1267.03 1520.93 Q1265.22 1517.37 1261.59 1517.37 M1261.59 1513.66 Q1267.4 1513.66 1270.45 1518.27 Q1273.53 1522.85 1273.53 1531.6 Q1273.53 1540.33 1270.45 1544.94 Q1267.4 1549.52 1261.59 1549.52 Q1255.78 1549.52 1252.7 1544.94 Q1249.64 1540.33 1249.64 1531.6 Q1249.64 1522.85 1252.7 1518.27 Q1255.78 1513.66 1261.59 1513.66 Z" fill="#000000" fill-rule="nonzero" fill-opacity="1" /><path clip-path="url(#clip950)" d="M1636.52 1544.91 L1652.84 1544.91 L1652.84 1548.85 L1630.9 1548.85 L1630.9 1544.91 Q1633.56 1542.16 1638.14 1537.53 Q1642.75 1532.88 1643.93 1531.53 Q1646.18 1529.01 1647.06 1527.27 Q1647.96 1525.51 1647.96 1523.82 Q1647.96 1521.07 1646.01 1519.33 Q1644.09 1517.6 1640.99 1517.6 Q1638.79 1517.6 1636.34 1518.36 Q1633.91 1519.13 1631.13 1520.68 L1631.13 1515.95 Q1633.95 1514.82 1636.41 1514.24 Q1638.86 1513.66 1640.9 1513.66 Q1646.27 1513.66 1649.46 1516.35 Q1652.66 1519.03 1652.66 1523.52 Q1652.66 1525.65 1651.85 1527.57 Q1651.06 1529.47 1648.95 1532.07 Q1648.38 1532.74 1645.27 1535.95 Q1642.17 1539.15 1636.52 1544.91 Z" fill="#000000" fill-rule="nonzero" fill-opacity="1" /><path clip-path="url(#clip950)" d="M1672.66 1517.37 Q1669.05 1517.37 1667.22 1520.93 Q1665.41 1524.47 1665.41 1531.6 Q1665.41 1538.71 1667.22 1542.27 Q1669.05 1545.82 1672.66 1545.82 Q1676.29 1545.82 1678.1 1542.27 Q1679.93 1538.71 1679.93 1531.6 Q1679.93 1524.47 1678.1 1520.93 Q1676.29 1517.37 1672.66 1517.37 M1672.66 1513.66 Q1678.47 1513.66 1681.52 1518.27 Q1684.6 1522.85 1684.6 1531.6 Q1684.6 1540.33 1681.52 1544.94 Q1678.47 1549.52 1672.66 1549.52 Q1666.85 1549.52 1663.77 1544.94 Q1660.71 1540.33 1660.71 1531.6 Q1660.71 1522.85 1663.77 1518.27 Q1666.85 1513.66 1672.66 1513.66 Z" fill="#000000" fill-rule="nonzero" fill-opacity="1" /><path clip-path="url(#clip950)" d="M1702.82 1517.37 Q1699.21 1517.37 1697.38 1520.93 Q1695.57 1524.47 1695.57 1531.6 Q1695.57 1538.71 1697.38 1542.27 Q1699.21 1545.82 1702.82 1545.82 Q1706.45 1545.82 1708.26 1542.27 Q1710.09 1538.71 1710.09 1531.6 Q1710.09 1524.47 1708.26 1520.93 Q1706.45 1517.37 1702.82 1517.37 M1702.82 1513.66 Q1708.63 1513.66 1711.69 1518.27 Q1714.76 1522.85 1714.76 1531.6 Q1714.76 1540.33 1711.69 1544.94 Q1708.63 1549.52 1702.82 1549.52 Q1697.01 1549.52 1693.93 1544.94 Q1690.88 1540.33 1690.88 1531.6 Q1690.88 1522.85 1693.93 1518.27 Q1697.01 1513.66 1702.82 1513.66 Z" fill="#000000" fill-rule="nonzero" fill-opacity="1" /><path clip-path="url(#clip950)" d="M2072.82 1514.29 L2091.17 1514.29 L2091.17 1518.22 L2077.1 1518.22 L2077.1 1526.7 Q2078.12 1526.35 2079.13 1526.19 Q2080.15 1526 2081.17 1526 Q2086.96 1526 2090.34 1529.17 Q2093.72 1532.34 2093.72 1537.76 Q2093.72 1543.34 2090.25 1546.44 Q2086.77 1549.52 2080.45 1549.52 Q2078.28 1549.52 2076.01 1549.15 Q2073.76 1548.78 2071.36 1548.04 L2071.36 1543.34 Q2073.44 1544.47 2075.66 1545.03 Q2077.88 1545.58 2080.36 1545.58 Q2084.37 1545.58 2086.7 1543.48 Q2089.04 1541.37 2089.04 1537.76 Q2089.04 1534.15 2086.7 1532.04 Q2084.37 1529.94 2080.36 1529.94 Q2078.49 1529.94 2076.61 1530.35 Q2074.76 1530.77 2072.82 1531.65 L2072.82 1514.29 Z" fill="#000000" fill-rule="nonzero" fill-opacity="1" /><path clip-path="url(#clip950)" d="M2112.93 1517.37 Q2109.32 1517.37 2107.49 1520.93 Q2105.69 1524.47 2105.69 1531.6 Q2105.69 1538.71 2107.49 1542.27 Q2109.32 1545.82 2112.93 1545.82 Q2116.57 1545.82 2118.37 1542.27 Q2120.2 1538.71 2120.2 1531.6 Q2120.2 1524.47 2118.37 1520.93 Q2116.57 1517.37 2112.93 1517.37 M2112.93 1513.66 Q2118.74 1513.66 2121.8 1518.27 Q2124.88 1522.85 2124.88 1531.6 Q2124.88 1540.33 2121.8 1544.94 Q2118.74 1549.52 2112.93 1549.52 Q2107.12 1549.52 2104.04 1544.94 Q2100.99 1540.33 2100.99 1531.6 Q2100.99 1522.85 2104.04 1518.27 Q2107.12 1513.66 2112.93 1513.66 Z" fill="#000000" fill-rule="nonzero" fill-opacity="1" /><path clip-path="url(#clip950)" d="M2143.09 1517.37 Q2139.48 1517.37 2137.65 1520.93 Q2135.85 1524.47 2135.85 1531.6 Q2135.85 1538.71 2137.65 1542.27 Q2139.48 1545.82 2143.09 1545.82 Q2146.73 1545.82 2148.53 1542.27 Q2150.36 1538.71 2150.36 1531.6 Q2150.36 1524.47 2148.53 1520.93 Q2146.73 1517.37 2143.09 1517.37 M2143.09 1513.66 Q2148.9 1513.66 2151.96 1518.27 Q2155.04 1522.85 2155.04 1531.6 Q2155.04 1540.33 2151.96 1544.94 Q2148.9 1549.52 2143.09 1549.52 Q2137.28 1549.52 2134.2 1544.94 Q2131.15 1540.33 2131.15 1531.6 Q2131.15 1522.85 2134.2 1518.27 Q2137.28 1513.66 2143.09 1513.66 Z" fill="#000000" fill-rule="nonzero" fill-opacity="1" /><polyline clip-path="url(#clip950)" style="stroke:#000000; stroke-linecap:round; stroke-linejoin:round; stroke-width:4; stroke-opacity:1; fill:none" points="112.177,1486.45 112.177,47.2441 "/>
<polyline clip-path="url(#clip950)" style="stroke:#000000; stroke-linecap:round; stroke-linejoin:round; stroke-width:4; stroke-opacity:1; fill:none" points="112.177,1466.72 131.075,1466.72 "/>
<polyline clip-path="url(#clip950)" style="stroke:#000000; stroke-linecap:round; stroke-linejoin:round; stroke-width:4; stroke-opacity:1; fill:none" points="112.177,1251.77 131.075,1251.77 "/>
<polyline clip-path="url(#clip950)" style="stroke:#000000; stroke-linecap:round; stroke-linejoin:round; stroke-width:4; stroke-opacity:1; fill:none" points="112.177,1036.81 131.075,1036.81 "/>
<polyline clip-path="url(#clip950)" style="stroke:#000000; stroke-linecap:round; stroke-linejoin:round; stroke-width:4; stroke-opacity:1; fill:none" points="112.177,821.854 131.075,821.854 "/>
<polyline clip-path="url(#clip950)" style="stroke:#000000; stroke-linecap:round; stroke-linejoin:round; stroke-width:4; stroke-opacity:1; fill:none" points="112.177,606.898 131.075,606.898 "/>
<polyline clip-path="url(#clip950)" style="stroke:#000000; stroke-linecap:round; stroke-linejoin:round; stroke-width:4; stroke-opacity:1; fill:none" points="112.177,391.941 131.075,391.941 "/>
<polyline clip-path="url(#clip950)" style="stroke:#000000; stroke-linecap:round; stroke-linejoin:round; stroke-width:4; stroke-opacity:1; fill:none" points="112.177,176.985 131.075,176.985 "/>
<path clip-path="url(#clip950)" d="M64.2328 1452.52 Q60.6217 1452.52 58.793 1456.09 Q56.9875 1459.63 56.9875 1466.76 Q56.9875 1473.86 58.793 1477.43 Q60.6217 1480.97 64.2328 1480.97 Q67.867 1480.97 69.6726 1477.43 Q71.5013 1473.86 71.5013 1466.76 Q71.5013 1459.63 69.6726 1456.09 Q67.867 1452.52 64.2328 1452.52 M64.2328 1448.82 Q70.0429 1448.82 73.0985 1453.42 Q76.1772 1458.01 76.1772 1466.76 Q76.1772 1475.48 73.0985 1480.09 Q70.0429 1484.67 64.2328 1484.67 Q58.4226 1484.67 55.344 1480.09 Q52.2884 1475.48 52.2884 1466.76 Q52.2884 1458.01 55.344 1453.42 Q58.4226 1448.82 64.2328 1448.82 Z" fill="#000000" fill-rule="nonzero" fill-opacity="1" /><path clip-path="url(#clip950)" d="M56.2699 1265.11 L63.9087 1265.11 L63.9087 1238.75 L55.5986 1240.41 L55.5986 1236.15 L63.8624 1234.49 L68.5383 1234.49 L68.5383 1265.11 L76.1772 1265.11 L76.1772 1269.05 L56.2699 1269.05 L56.2699 1265.11 Z" fill="#000000" fill-rule="nonzero" fill-opacity="1" /><path clip-path="url(#clip950)" d="M59.8578 1050.15 L76.1772 1050.15 L76.1772 1054.09 L54.2328 1054.09 L54.2328 1050.15 Q56.8949 1047.4 61.4782 1042.77 Q66.0846 1038.12 67.2652 1036.78 Q69.5105 1034.25 70.3902 1032.52 Q71.2929 1030.76 71.2929 1029.07 Q71.2929 1026.31 69.3485 1024.58 Q67.4272 1022.84 64.3254 1022.84 Q62.1263 1022.84 59.6726 1023.6 Q57.2421 1024.37 54.4643 1025.92 L54.4643 1021.2 Q57.2884 1020.06 59.7421 1019.48 Q62.1958 1018.91 64.2328 1018.91 Q69.6031 1018.91 72.7976 1021.59 Q75.992 1024.28 75.992 1028.77 Q75.992 1030.9 75.1818 1032.82 Q74.3948 1034.72 72.2883 1037.31 Q71.7096 1037.98 68.6078 1041.2 Q65.5059 1044.39 59.8578 1050.15 Z" fill="#000000" fill-rule="nonzero" fill-opacity="1" /><path clip-path="url(#clip950)" d="M69.0476 820.5 Q72.404 821.217 74.279 823.486 Q76.1772 825.754 76.1772 829.088 Q76.1772 834.203 72.6587 837.004 Q69.1402 839.805 62.6587 839.805 Q60.4828 839.805 58.168 839.365 Q55.8764 838.949 53.4227 838.092 L53.4227 833.578 Q55.3671 834.713 57.6819 835.291 Q59.9967 835.87 62.5198 835.87 Q66.918 835.87 69.2096 834.134 Q71.5244 832.398 71.5244 829.088 Q71.5244 826.032 69.3717 824.319 Q67.242 822.583 63.4226 822.583 L59.3949 822.583 L59.3949 818.74 L63.6078 818.74 Q67.0569 818.74 68.8855 817.375 Q70.7142 815.986 70.7142 813.393 Q70.7142 810.731 68.8161 809.319 Q66.9411 807.884 63.4226 807.884 Q61.5013 807.884 59.3023 808.301 Q57.1032 808.717 54.4643 809.597 L54.4643 805.43 Q57.1264 804.69 59.4412 804.319 Q61.7791 803.949 63.8393 803.949 Q69.1633 803.949 72.2652 806.379 Q75.367 808.787 75.367 812.907 Q75.367 815.777 73.7235 817.768 Q72.08 819.736 69.0476 820.5 Z" fill="#000000" fill-rule="nonzero" fill-opacity="1" /><path clip-path="url(#clip950)" d="M66.5939 593.692 L54.7884 612.141 L66.5939 612.141 L66.5939 593.692 M65.367 589.618 L71.2466 589.618 L71.2466 612.141 L76.1772 612.141 L76.1772 616.03 L71.2466 616.03 L71.2466 624.178 L66.5939 624.178 L66.5939 616.03 L50.9921 616.03 L50.9921 611.516 L65.367 589.618 Z" fill="#000000" fill-rule="nonzero" fill-opacity="1" /><path clip-path="url(#clip950)" d="M55.2745 374.661 L73.6309 374.661 L73.6309 378.597 L59.5569 378.597 L59.5569 387.069 Q60.5754 386.722 61.5939 386.559 Q62.6124 386.374 63.6309 386.374 Q69.418 386.374 72.7976 389.546 Q76.1772 392.717 76.1772 398.133 Q76.1772 403.712 72.705 406.814 Q69.2328 409.893 62.9134 409.893 Q60.7374 409.893 58.4689 409.522 Q56.2236 409.152 53.8162 408.411 L53.8162 403.712 Q55.8995 404.846 58.1217 405.402 Q60.3439 405.958 62.8208 405.958 Q66.8254 405.958 69.1633 403.851 Q71.5013 401.745 71.5013 398.133 Q71.5013 394.522 69.1633 392.416 Q66.8254 390.309 62.8208 390.309 Q60.9458 390.309 59.0708 390.726 Q57.2189 391.143 55.2745 392.022 L55.2745 374.661 Z" fill="#000000" fill-rule="nonzero" fill-opacity="1" /><path clip-path="url(#clip950)" d="M64.6495 175.122 Q61.5013 175.122 59.6495 177.275 Q57.8208 179.427 57.8208 183.177 Q57.8208 186.904 59.6495 189.08 Q61.5013 191.233 64.6495 191.233 Q67.7976 191.233 69.6263 189.08 Q71.4781 186.904 71.4781 183.177 Q71.4781 179.427 69.6263 177.275 Q67.7976 175.122 64.6495 175.122 M73.9318 160.469 L73.9318 164.728 Q72.1726 163.895 70.367 163.455 Q68.5846 163.015 66.8254 163.015 Q62.1958 163.015 59.7421 166.14 Q57.3115 169.265 56.9643 175.585 Q58.33 173.571 60.3902 172.506 Q62.4504 171.418 64.9272 171.418 Q70.1355 171.418 73.1448 174.589 Q76.1772 177.737 76.1772 183.177 Q76.1772 188.501 73.029 191.719 Q69.8809 194.936 64.6495 194.936 Q58.6541 194.936 55.4828 190.353 Q52.3116 185.747 52.3116 177.02 Q52.3116 168.825 56.2004 163.964 Q60.0893 159.08 66.6402 159.08 Q68.3994 159.08 70.1818 159.427 Q71.9874 159.775 73.9318 160.469 Z" fill="#000000" fill-rule="nonzero" fill-opacity="1" /><path clip-path="url(#clip951)" d="M351.736 408.825 L263.663 408.825 L439.809 408.825 L351.736 408.825 L351.736 301.516 L351.736 408.825  Z" fill="#ff0000" fill-rule="evenodd" fill-opacity="1"/>
<polyline clip-path="url(#clip951)" style="stroke:#000000; stroke-linecap:round; stroke-linejoin:round; stroke-width:4; stroke-opacity:1; fill:none" points="351.736,408.825 263.663,408.825 439.809,408.825 351.736,408.825 351.736,301.516 351.736,408.825 "/>
<path clip-path="url(#clip951)" d="M527.882 301.516 L527.882 262.462 L175.59 262.462 L175.59 301.516 L527.882 301.516 L527.882 262.462 L527.882 301.516  Z" fill="#ff0000" fill-rule="evenodd" fill-opacity="1"/>
<polyline clip-path="url(#clip951)" style="stroke:#000000; stroke-linecap:round; stroke-linejoin:round; stroke-width:4; stroke-opacity:1; fill:none" points="527.882,301.516 527.882,262.462 175.59,262.462 175.59,301.516 527.882,301.516 527.882,262.462 527.882,301.516 "/>
<path clip-path="url(#clip951)" d="M527.882 229.807 L175.59 229.807 L175.59 262.462 L527.882 262.462 L527.882 229.807 L351.736 229.807 L527.882 229.807  Z" fill="#ff0000" fill-rule="evenodd" fill-opacity="1"/>
<polyline clip-path="url(#clip951)" style="stroke:#000000; stroke-linecap:round; stroke-linejoin:round; stroke-width:4; stroke-opacity:1; fill:none" points="527.882,229.807 175.59,229.807 175.59,262.462 527.882,262.462 527.882,229.807 351.736,229.807 527.882,229.807 "/>
<path clip-path="url(#clip951)" d="M351.736 122.456 L263.663 122.456 L439.809 122.456 L351.736 122.456 L351.736 229.807 L351.736 122.456  Z" fill="#ff0000" fill-rule="evenodd" fill-opacity="1"/>
<polyline clip-path="url(#clip951)" style="stroke:#000000; stroke-linecap:round; stroke-linejoin:round; stroke-width:4; stroke-opacity:1; fill:none" points="351.736,122.456 263.663,122.456 439.809,122.456 351.736,122.456 351.736,229.807 351.736,122.456 "/>
<path clip-path="url(#clip951)" d="M792.101 1254.71 L704.028 1254.71 L880.174 1254.71 L792.101 1254.71 L792.101 1234.43 L792.101 1254.71  Z" fill="#ff0000" fill-rule="evenodd" fill-opacity="1"/>
<polyline clip-path="url(#clip951)" style="stroke:#000000; stroke-linecap:round; stroke-linejoin:round; stroke-width:4; stroke-opacity:1; fill:none" points="792.101,1254.71 704.028,1254.71 880.174,1254.71 792.101,1254.71 792.101,1234.43 792.101,1254.71 "/>
<path clip-path="url(#clip951)" d="M968.247 1234.43 L968.247 1227.54 L615.955 1227.54 L615.955 1234.43 L968.247 1234.43 L968.247 1227.54 L968.247 1234.43  Z" fill="#ff0000" fill-rule="evenodd" fill-opacity="1"/>
<polyline clip-path="url(#clip951)" style="stroke:#000000; stroke-linecap:round; stroke-linejoin:round; stroke-width:4; stroke-opacity:1; fill:none" points="968.247,1234.43 968.247,1227.54 615.955,1227.54 615.955,1234.43 968.247,1234.43 968.247,1227.54 968.247,1234.43 "/>
<path clip-path="url(#clip951)" d="M968.247 1220.6 L615.955 1220.6 L615.955 1227.54 L968.247 1227.54 L968.247 1220.6 L792.101 1220.6 L968.247 1220.6  Z" fill="#ff0000" fill-rule="evenodd" fill-opacity="1"/>
<polyline clip-path="url(#clip951)" style="stroke:#000000; stroke-linecap:round; stroke-linejoin:round; stroke-width:4; stroke-opacity:1; fill:none" points="968.247,1220.6 615.955,1220.6 615.955,1227.54 968.247,1227.54 968.247,1220.6 792.101,1220.6 968.247,1220.6 "/>
<path clip-path="url(#clip951)" d="M792.101 1200.15 L704.028 1200.15 L880.174 1200.15 L792.101 1200.15 L792.101 1220.6 L792.101 1200.15  Z" fill="#ff0000" fill-rule="evenodd" fill-opacity="1"/>
<polyline clip-path="url(#clip951)" style="stroke:#000000; stroke-linecap:round; stroke-linejoin:round; stroke-width:4; stroke-opacity:1; fill:none" points="792.101,1200.15 704.028,1200.15 880.174,1200.15 792.101,1200.15 792.101,1220.6 792.101,1200.15 "/>
<path clip-path="url(#clip951)" d="M1232.47 1360.18 L1144.39 1360.18 L1320.54 1360.18 L1232.47 1360.18 L1232.47 1351.08 L1232.47 1360.18  Z" fill="#ff0000" fill-rule="evenodd" fill-opacity="1"/>
<polyline clip-path="url(#clip951)" style="stroke:#000000; stroke-linecap:round; stroke-linejoin:round; stroke-width:4; stroke-opacity:1; fill:none" points="1232.47,1360.18 1144.39,1360.18 1320.54,1360.18 1232.47,1360.18 1232.47,1351.08 1232.47,1360.18 "/>
<path clip-path="url(#clip951)" d="M1408.61 1351.08 L1408.61 1348.11 L1056.32 1348.11 L1056.32 1351.08 L1408.61 1351.08 L1408.61 1348.11 L1408.61 1351.08  Z" fill="#ff0000" fill-rule="evenodd" fill-opacity="1"/>
<polyline clip-path="url(#clip951)" style="stroke:#000000; stroke-linecap:round; stroke-linejoin:round; stroke-width:4; stroke-opacity:1; fill:none" points="1408.61,1351.08 1408.61,1348.11 1056.32,1348.11 1056.32,1351.08 1408.61,1351.08 1408.61,1348.11 1408.61,1351.08 "/>
<path clip-path="url(#clip951)" d="M1408.61 1344.86 L1056.32 1344.86 L1056.32 1348.11 L1408.61 1348.11 L1408.61 1344.86 L1232.47 1344.86 L1408.61 1344.86  Z" fill="#ff0000" fill-rule="evenodd" fill-opacity="1"/>
<polyline clip-path="url(#clip951)" style="stroke:#000000; stroke-linecap:round; stroke-linejoin:round; stroke-width:4; stroke-opacity:1; fill:none" points="1408.61,1344.86 1056.32,1344.86 1056.32,1348.11 1408.61,1348.11 1408.61,1344.86 1232.47,1344.86 1408.61,1344.86 "/>
<path clip-path="url(#clip951)" d="M1232.47 1335.62 L1144.39 1335.62 L1320.54 1335.62 L1232.47 1335.62 L1232.47 1344.86 L1232.47 1335.62  Z" fill="#ff0000" fill-rule="evenodd" fill-opacity="1"/>
<polyline clip-path="url(#clip951)" style="stroke:#000000; stroke-linecap:round; stroke-linejoin:round; stroke-width:4; stroke-opacity:1; fill:none" points="1232.47,1335.62 1144.39,1335.62 1320.54,1335.62 1232.47,1335.62 1232.47,1344.86 1232.47,1335.62 "/>
<path clip-path="url(#clip951)" d="M1672.83 1413.37 L1584.76 1413.37 L1760.9 1413.37 L1672.83 1413.37 L1672.83 1409.02 L1672.83 1413.37  Z" fill="#ff0000" fill-rule="evenodd" fill-opacity="1"/>
<polyline clip-path="url(#clip951)" style="stroke:#000000; stroke-linecap:round; stroke-linejoin:round; stroke-width:4; stroke-opacity:1; fill:none" points="1672.83,1413.37 1584.76,1413.37 1760.9,1413.37 1672.83,1413.37 1672.83,1409.02 1672.83,1413.37 "/>
<path clip-path="url(#clip951)" d="M1848.98 1409.02 L1848.98 1407.55 L1496.69 1407.55 L1496.69 1409.02 L1848.98 1409.02 L1848.98 1407.55 L1848.98 1409.02  Z" fill="#ff0000" fill-rule="evenodd" fill-opacity="1"/>
<polyline clip-path="url(#clip951)" style="stroke:#000000; stroke-linecap:round; stroke-linejoin:round; stroke-width:4; stroke-opacity:1; fill:none" points="1848.98,1409.02 1848.98,1407.55 1496.69,1407.55 1496.69,1409.02 1848.98,1409.02 1848.98,1407.55 1848.98,1409.02 "/>
<path clip-path="url(#clip951)" d="M1848.98 1405.92 L1496.69 1405.92 L1496.69 1407.55 L1848.98 1407.55 L1848.98 1405.92 L1672.83 1405.92 L1848.98 1405.92  Z" fill="#ff0000" fill-rule="evenodd" fill-opacity="1"/>
<polyline clip-path="url(#clip951)" style="stroke:#000000; stroke-linecap:round; stroke-linejoin:round; stroke-width:4; stroke-opacity:1; fill:none" points="1848.98,1405.92 1496.69,1405.92 1496.69,1407.55 1848.98,1407.55 1848.98,1405.92 1672.83,1405.92 1848.98,1405.92 "/>
<path clip-path="url(#clip951)" d="M1672.83 1401.51 L1584.76 1401.51 L1760.9 1401.51 L1672.83 1401.51 L1672.83 1405.92 L1672.83 1401.51  Z" fill="#ff0000" fill-rule="evenodd" fill-opacity="1"/>
<polyline clip-path="url(#clip951)" style="stroke:#000000; stroke-linecap:round; stroke-linejoin:round; stroke-width:4; stroke-opacity:1; fill:none" points="1672.83,1401.51 1584.76,1401.51 1760.9,1401.51 1672.83,1401.51 1672.83,1405.92 1672.83,1401.51 "/>
<path clip-path="url(#clip951)" d="M2113.2 1445.5 L2025.12 1445.5 L2201.27 1445.5 L2113.2 1445.5 L2113.2 1443.73 L2113.2 1445.5  Z" fill="#ff0000" fill-rule="evenodd" fill-opacity="1"/>
<polyline clip-path="url(#clip951)" style="stroke:#000000; stroke-linecap:round; stroke-linejoin:round; stroke-width:4; stroke-opacity:1; fill:none" points="2113.2,1445.5 2025.12,1445.5 2201.27,1445.5 2113.2,1445.5 2113.2,1443.73 2113.2,1445.5 "/>
<path clip-path="url(#clip951)" d="M2289.34 1443.73 L2289.34 1443.16 L1937.05 1443.16 L1937.05 1443.73 L2289.34 1443.73 L2289.34 1443.16 L2289.34 1443.73  Z" fill="#ff0000" fill-rule="evenodd" fill-opacity="1"/>
<polyline clip-path="url(#clip951)" style="stroke:#000000; stroke-linecap:round; stroke-linejoin:round; stroke-width:4; stroke-opacity:1; fill:none" points="2289.34,1443.73 2289.34,1443.16 1937.05,1443.16 1937.05,1443.73 2289.34,1443.73 2289.34,1443.16 2289.34,1443.73 "/>
<path clip-path="url(#clip951)" d="M2289.34 1442.5 L1937.05 1442.5 L1937.05 1443.16 L2289.34 1443.16 L2289.34 1442.5 L2113.2 1442.5 L2289.34 1442.5  Z" fill="#ff0000" fill-rule="evenodd" fill-opacity="1"/>
<polyline clip-path="url(#clip951)" style="stroke:#000000; stroke-linecap:round; stroke-linejoin:round; stroke-width:4; stroke-opacity:1; fill:none" points="2289.34,1442.5 1937.05,1442.5 1937.05,1443.16 2289.34,1443.16 2289.34,1442.5 2113.2,1442.5 2289.34,1442.5 "/>
<path clip-path="url(#clip951)" d="M2113.2 1440.68 L2025.12 1440.68 L2201.27 1440.68 L2113.2 1440.68 L2113.2 1442.5 L2113.2 1440.68  Z" fill="#ff0000" fill-rule="evenodd" fill-opacity="1"/>
<polyline clip-path="url(#clip951)" style="stroke:#000000; stroke-linecap:round; stroke-linejoin:round; stroke-width:4; stroke-opacity:1; fill:none" points="2113.2,1440.68 2025.12,1440.68 2201.27,1440.68 2113.2,1440.68 2113.2,1442.5 2113.2,1440.68 "/>
<circle clip-path="url(#clip951)" cx="351.736" cy="611.667" r="14.4" fill="#ff0000" fill-rule="evenodd" fill-opacity="1" stroke="#000000" stroke-opacity="1" stroke-width="3.2"/>
<circle clip-path="url(#clip951)" cx="351.736" cy="543.905" r="14.4" fill="#ff0000" fill-rule="evenodd" fill-opacity="1" stroke="#000000" stroke-opacity="1" stroke-width="3.2"/>
<circle clip-path="url(#clip951)" cx="351.736" cy="428.365" r="14.4" fill="#ff0000" fill-rule="evenodd" fill-opacity="1" stroke="#000000" stroke-opacity="1" stroke-width="3.2"/>
<circle clip-path="url(#clip951)" cx="351.736" cy="456.787" r="14.4" fill="#ff0000" fill-rule="evenodd" fill-opacity="1" stroke="#000000" stroke-opacity="1" stroke-width="3.2"/>
<circle clip-path="url(#clip951)" cx="351.736" cy="501.464" r="14.4" fill="#ff0000" fill-rule="evenodd" fill-opacity="1" stroke="#000000" stroke-opacity="1" stroke-width="3.2"/>
<circle clip-path="url(#clip951)" cx="351.736" cy="450.788" r="14.4" fill="#ff0000" fill-rule="evenodd" fill-opacity="1" stroke="#000000" stroke-opacity="1" stroke-width="3.2"/>
<circle clip-path="url(#clip951)" cx="351.736" cy="475.015" r="14.4" fill="#ff0000" fill-rule="evenodd" fill-opacity="1" stroke="#000000" stroke-opacity="1" stroke-width="3.2"/>
<circle clip-path="url(#clip951)" cx="351.736" cy="541.661" r="14.4" fill="#ff0000" fill-rule="evenodd" fill-opacity="1" stroke="#000000" stroke-opacity="1" stroke-width="3.2"/>
<circle clip-path="url(#clip951)" cx="351.736" cy="113.309" r="14.4" fill="#ff0000" fill-rule="evenodd" fill-opacity="1" stroke="#000000" stroke-opacity="1" stroke-width="3.2"/>
<circle clip-path="url(#clip951)" cx="351.736" cy="456.355" r="14.4" fill="#ff0000" fill-rule="evenodd" fill-opacity="1" stroke="#000000" stroke-opacity="1" stroke-width="3.2"/>
<circle clip-path="url(#clip951)" cx="351.736" cy="479.59" r="14.4" fill="#ff0000" fill-rule="evenodd" fill-opacity="1" stroke="#000000" stroke-opacity="1" stroke-width="3.2"/>
<circle clip-path="url(#clip951)" cx="351.736" cy="420.444" r="14.4" fill="#ff0000" fill-rule="evenodd" fill-opacity="1" stroke="#000000" stroke-opacity="1" stroke-width="3.2"/>
<circle clip-path="url(#clip951)" cx="351.736" cy="494.009" r="14.4" fill="#ff0000" fill-rule="evenodd" fill-opacity="1" stroke="#000000" stroke-opacity="1" stroke-width="3.2"/>
<circle clip-path="url(#clip951)" cx="351.736" cy="443.444" r="14.4" fill="#ff0000" fill-rule="evenodd" fill-opacity="1" stroke="#000000" stroke-opacity="1" stroke-width="3.2"/>
<circle clip-path="url(#clip951)" cx="351.736" cy="546.56" r="14.4" fill="#ff0000" fill-rule="evenodd" fill-opacity="1" stroke="#000000" stroke-opacity="1" stroke-width="3.2"/>
<circle clip-path="url(#clip951)" cx="351.736" cy="511.827" r="14.4" fill="#ff0000" fill-rule="evenodd" fill-opacity="1" stroke="#000000" stroke-opacity="1" stroke-width="3.2"/>
<circle clip-path="url(#clip951)" cx="351.736" cy="551.376" r="14.4" fill="#ff0000" fill-rule="evenodd" fill-opacity="1" stroke="#000000" stroke-opacity="1" stroke-width="3.2"/>
<circle clip-path="url(#clip951)" cx="351.736" cy="702.677" r="14.4" fill="#ff0000" fill-rule="evenodd" fill-opacity="1" stroke="#000000" stroke-opacity="1" stroke-width="3.2"/>
<circle clip-path="url(#clip951)" cx="351.736" cy="496.9" r="14.4" fill="#ff0000" fill-rule="evenodd" fill-opacity="1" stroke="#000000" stroke-opacity="1" stroke-width="3.2"/>
<circle clip-path="url(#clip951)" cx="351.736" cy="428.895" r="14.4" fill="#ff0000" fill-rule="evenodd" fill-opacity="1" stroke="#000000" stroke-opacity="1" stroke-width="3.2"/>
<circle clip-path="url(#clip951)" cx="351.736" cy="112.038" r="14.4" fill="#ff0000" fill-rule="evenodd" fill-opacity="1" stroke="#000000" stroke-opacity="1" stroke-width="3.2"/>
<circle clip-path="url(#clip951)" cx="351.736" cy="469.505" r="14.4" fill="#ff0000" fill-rule="evenodd" fill-opacity="1" stroke="#000000" stroke-opacity="1" stroke-width="3.2"/>
<circle clip-path="url(#clip951)" cx="351.736" cy="409.439" r="14.4" fill="#ff0000" fill-rule="evenodd" fill-opacity="1" stroke="#000000" stroke-opacity="1" stroke-width="3.2"/>
<circle clip-path="url(#clip951)" cx="351.736" cy="475.76" r="14.4" fill="#ff0000" fill-rule="evenodd" fill-opacity="1" stroke="#000000" stroke-opacity="1" stroke-width="3.2"/>
<circle clip-path="url(#clip951)" cx="351.736" cy="411.866" r="14.4" fill="#ff0000" fill-rule="evenodd" fill-opacity="1" stroke="#000000" stroke-opacity="1" stroke-width="3.2"/>
<circle clip-path="url(#clip951)" cx="351.736" cy="104.762" r="14.4" fill="#ff0000" fill-rule="evenodd" fill-opacity="1" stroke="#000000" stroke-opacity="1" stroke-width="3.2"/>
<circle clip-path="url(#clip951)" cx="351.736" cy="87.9763" r="14.4" fill="#ff0000" fill-rule="evenodd" fill-opacity="1" stroke="#000000" stroke-opacity="1" stroke-width="3.2"/>
<circle clip-path="url(#clip951)" cx="351.736" cy="495.534" r="14.4" fill="#ff0000" fill-rule="evenodd" fill-opacity="1" stroke="#000000" stroke-opacity="1" stroke-width="3.2"/>
<circle clip-path="url(#clip951)" cx="351.736" cy="435.784" r="14.4" fill="#ff0000" fill-rule="evenodd" fill-opacity="1" stroke="#000000" stroke-opacity="1" stroke-width="3.2"/>
<circle clip-path="url(#clip951)" cx="351.736" cy="432.492" r="14.4" fill="#ff0000" fill-rule="evenodd" fill-opacity="1" stroke="#000000" stroke-opacity="1" stroke-width="3.2"/>
<circle clip-path="url(#clip951)" cx="351.736" cy="443.981" r="14.4" fill="#ff0000" fill-rule="evenodd" fill-opacity="1" stroke="#000000" stroke-opacity="1" stroke-width="3.2"/>
<circle clip-path="url(#clip951)" cx="351.736" cy="440.761" r="14.4" fill="#ff0000" fill-rule="evenodd" fill-opacity="1" stroke="#000000" stroke-opacity="1" stroke-width="3.2"/>
<circle clip-path="url(#clip951)" cx="351.736" cy="569.023" r="14.4" fill="#ff0000" fill-rule="evenodd" fill-opacity="1" stroke="#000000" stroke-opacity="1" stroke-width="3.2"/>
<circle clip-path="url(#clip951)" cx="351.736" cy="462.796" r="14.4" fill="#ff0000" fill-rule="evenodd" fill-opacity="1" stroke="#000000" stroke-opacity="1" stroke-width="3.2"/>
<circle clip-path="url(#clip951)" cx="792.101" cy="1269.06" r="14.4" fill="#ff0000" fill-rule="evenodd" fill-opacity="1" stroke="#000000" stroke-opacity="1" stroke-width="3.2"/>
<circle clip-path="url(#clip951)" cx="792.101" cy="1198.54" r="14.4" fill="#ff0000" fill-rule="evenodd" fill-opacity="1" stroke="#000000" stroke-opacity="1" stroke-width="3.2"/>
<circle clip-path="url(#clip951)" cx="792.101" cy="1255.89" r="14.4" fill="#ff0000" fill-rule="evenodd" fill-opacity="1" stroke="#000000" stroke-opacity="1" stroke-width="3.2"/>
<circle clip-path="url(#clip951)" cx="792.101" cy="1197.94" r="14.4" fill="#ff0000" fill-rule="evenodd" fill-opacity="1" stroke="#000000" stroke-opacity="1" stroke-width="3.2"/>
<circle clip-path="url(#clip951)" cx="792.101" cy="1198.19" r="14.4" fill="#ff0000" fill-rule="evenodd" fill-opacity="1" stroke="#000000" stroke-opacity="1" stroke-width="3.2"/>
<circle clip-path="url(#clip951)" cx="792.101" cy="1197.52" r="14.4" fill="#ff0000" fill-rule="evenodd" fill-opacity="1" stroke="#000000" stroke-opacity="1" stroke-width="3.2"/>
<circle clip-path="url(#clip951)" cx="792.101" cy="1199.68" r="14.4" fill="#ff0000" fill-rule="evenodd" fill-opacity="1" stroke="#000000" stroke-opacity="1" stroke-width="3.2"/>
<circle clip-path="url(#clip951)" cx="792.101" cy="1255.51" r="14.4" fill="#ff0000" fill-rule="evenodd" fill-opacity="1" stroke="#000000" stroke-opacity="1" stroke-width="3.2"/>
<circle clip-path="url(#clip951)" cx="792.101" cy="1259.98" r="14.4" fill="#ff0000" fill-rule="evenodd" fill-opacity="1" stroke="#000000" stroke-opacity="1" stroke-width="3.2"/>
<circle clip-path="url(#clip951)" cx="792.101" cy="1199.59" r="14.4" fill="#ff0000" fill-rule="evenodd" fill-opacity="1" stroke="#000000" stroke-opacity="1" stroke-width="3.2"/>
<circle clip-path="url(#clip951)" cx="792.101" cy="1256.73" r="14.4" fill="#ff0000" fill-rule="evenodd" fill-opacity="1" stroke="#000000" stroke-opacity="1" stroke-width="3.2"/>
<circle clip-path="url(#clip951)" cx="792.101" cy="1187.65" r="14.4" fill="#ff0000" fill-rule="evenodd" fill-opacity="1" stroke="#000000" stroke-opacity="1" stroke-width="3.2"/>
<circle clip-path="url(#clip951)" cx="792.101" cy="1195.36" r="14.4" fill="#ff0000" fill-rule="evenodd" fill-opacity="1" stroke="#000000" stroke-opacity="1" stroke-width="3.2"/>
<circle clip-path="url(#clip951)" cx="1232.47" cy="1328.73" r="14.4" fill="#ff0000" fill-rule="evenodd" fill-opacity="1" stroke="#000000" stroke-opacity="1" stroke-width="3.2"/>
<circle clip-path="url(#clip951)" cx="1232.47" cy="1361.03" r="14.4" fill="#ff0000" fill-rule="evenodd" fill-opacity="1" stroke="#000000" stroke-opacity="1" stroke-width="3.2"/>
<circle clip-path="url(#clip951)" cx="1232.47" cy="1331.6" r="14.4" fill="#ff0000" fill-rule="evenodd" fill-opacity="1" stroke="#000000" stroke-opacity="1" stroke-width="3.2"/>
<circle clip-path="url(#clip951)" cx="1232.47" cy="1331.84" r="14.4" fill="#ff0000" fill-rule="evenodd" fill-opacity="1" stroke="#000000" stroke-opacity="1" stroke-width="3.2"/>
<circle clip-path="url(#clip951)" cx="1232.47" cy="1332.42" r="14.4" fill="#ff0000" fill-rule="evenodd" fill-opacity="1" stroke="#000000" stroke-opacity="1" stroke-width="3.2"/>
<circle clip-path="url(#clip951)" cx="1232.47" cy="1325.7" r="14.4" fill="#ff0000" fill-rule="evenodd" fill-opacity="1" stroke="#000000" stroke-opacity="1" stroke-width="3.2"/>
<circle clip-path="url(#clip951)" cx="1232.47" cy="1333.75" r="14.4" fill="#ff0000" fill-rule="evenodd" fill-opacity="1" stroke="#000000" stroke-opacity="1" stroke-width="3.2"/>
<circle clip-path="url(#clip951)" cx="1232.47" cy="1334.18" r="14.4" fill="#ff0000" fill-rule="evenodd" fill-opacity="1" stroke="#000000" stroke-opacity="1" stroke-width="3.2"/>
<circle clip-path="url(#clip951)" cx="1232.47" cy="1334.11" r="14.4" fill="#ff0000" fill-rule="evenodd" fill-opacity="1" stroke="#000000" stroke-opacity="1" stroke-width="3.2"/>
<circle clip-path="url(#clip951)" cx="1232.47" cy="1361.65" r="14.4" fill="#ff0000" fill-rule="evenodd" fill-opacity="1" stroke="#000000" stroke-opacity="1" stroke-width="3.2"/>
<circle clip-path="url(#clip951)" cx="1232.47" cy="1361.87" r="14.4" fill="#ff0000" fill-rule="evenodd" fill-opacity="1" stroke="#000000" stroke-opacity="1" stroke-width="3.2"/>
<circle clip-path="url(#clip951)" cx="1232.47" cy="1332.84" r="14.4" fill="#ff0000" fill-rule="evenodd" fill-opacity="1" stroke="#000000" stroke-opacity="1" stroke-width="3.2"/>
<circle clip-path="url(#clip951)" cx="1232.47" cy="1334.89" r="14.4" fill="#ff0000" fill-rule="evenodd" fill-opacity="1" stroke="#000000" stroke-opacity="1" stroke-width="3.2"/>
<circle clip-path="url(#clip951)" cx="1672.83" cy="1400.01" r="14.4" fill="#ff0000" fill-rule="evenodd" fill-opacity="1" stroke="#000000" stroke-opacity="1" stroke-width="3.2"/>
<circle clip-path="url(#clip951)" cx="1672.83" cy="1414.15" r="14.4" fill="#ff0000" fill-rule="evenodd" fill-opacity="1" stroke="#000000" stroke-opacity="1" stroke-width="3.2"/>
<circle clip-path="url(#clip951)" cx="1672.83" cy="1400.91" r="14.4" fill="#ff0000" fill-rule="evenodd" fill-opacity="1" stroke="#000000" stroke-opacity="1" stroke-width="3.2"/>
<circle clip-path="url(#clip951)" cx="1672.83" cy="1401.23" r="14.4" fill="#ff0000" fill-rule="evenodd" fill-opacity="1" stroke="#000000" stroke-opacity="1" stroke-width="3.2"/>
<circle clip-path="url(#clip951)" cx="1672.83" cy="1398.54" r="14.4" fill="#ff0000" fill-rule="evenodd" fill-opacity="1" stroke="#000000" stroke-opacity="1" stroke-width="3.2"/>
<circle clip-path="url(#clip951)" cx="1672.83" cy="1399.45" r="14.4" fill="#ff0000" fill-rule="evenodd" fill-opacity="1" stroke="#000000" stroke-opacity="1" stroke-width="3.2"/>
<circle clip-path="url(#clip951)" cx="1672.83" cy="1400.95" r="14.4" fill="#ff0000" fill-rule="evenodd" fill-opacity="1" stroke="#000000" stroke-opacity="1" stroke-width="3.2"/>
<circle clip-path="url(#clip951)" cx="2113.2" cy="1440.26" r="14.4" fill="#ff0000" fill-rule="evenodd" fill-opacity="1" stroke="#000000" stroke-opacity="1" stroke-width="3.2"/>
<circle clip-path="url(#clip951)" cx="2113.2" cy="1440.35" r="14.4" fill="#ff0000" fill-rule="evenodd" fill-opacity="1" stroke="#000000" stroke-opacity="1" stroke-width="3.2"/>
<circle clip-path="url(#clip951)" cx="2113.2" cy="1440.28" r="14.4" fill="#ff0000" fill-rule="evenodd" fill-opacity="1" stroke="#000000" stroke-opacity="1" stroke-width="3.2"/>
<circle clip-path="url(#clip951)" cx="2113.2" cy="1440.64" r="14.4" fill="#ff0000" fill-rule="evenodd" fill-opacity="1" stroke="#000000" stroke-opacity="1" stroke-width="3.2"/>
<circle clip-path="url(#clip951)" cx="2113.2" cy="1440.46" r="14.4" fill="#ff0000" fill-rule="evenodd" fill-opacity="1" stroke="#000000" stroke-opacity="1" stroke-width="3.2"/>
<circle clip-path="url(#clip951)" cx="2113.2" cy="1445.72" r="14.4" fill="#ff0000" fill-rule="evenodd" fill-opacity="1" stroke="#000000" stroke-opacity="1" stroke-width="3.2"/>
<circle clip-path="url(#clip951)" cx="2113.2" cy="1439.44" r="14.4" fill="#ff0000" fill-rule="evenodd" fill-opacity="1" stroke="#000000" stroke-opacity="1" stroke-width="3.2"/>
<circle clip-path="url(#clip951)" cx="2113.2" cy="1445.64" r="14.4" fill="#ff0000" fill-rule="evenodd" fill-opacity="1" stroke="#000000" stroke-opacity="1" stroke-width="3.2"/>
<polyline clip-path="url(#clip951)" style="stroke:#ff0000; stroke-linecap:round; stroke-linejoin:round; stroke-width:0; stroke-opacity:1; fill:none" points="351.736,408.825 263.663,408.825 439.809,408.825 351.736,408.825 351.736,301.516 "/>
<polyline clip-path="url(#clip951)" style="stroke:#ff0000; stroke-linecap:round; stroke-linejoin:round; stroke-width:0; stroke-opacity:1; fill:none" points="527.882,301.516 527.882,262.462 175.59,262.462 175.59,301.516 527.882,301.516 527.882,262.462 "/>
<polyline clip-path="url(#clip951)" style="stroke:#ff0000; stroke-linecap:round; stroke-linejoin:round; stroke-width:0; stroke-opacity:1; fill:none" points="527.882,229.807 175.59,229.807 175.59,262.462 527.882,262.462 527.882,229.807 351.736,229.807 "/>
<polyline clip-path="url(#clip951)" style="stroke:#ff0000; stroke-linecap:round; stroke-linejoin:round; stroke-width:0; stroke-opacity:1; fill:none" points="351.736,122.456 263.663,122.456 439.809,122.456 351.736,122.456 351.736,229.807 "/>
<polyline clip-path="url(#clip951)" style="stroke:#ff0000; stroke-linecap:round; stroke-linejoin:round; stroke-width:0; stroke-opacity:1; fill:none" points="792.101,1254.71 704.028,1254.71 880.174,1254.71 792.101,1254.71 792.101,1234.43 "/>
<polyline clip-path="url(#clip951)" style="stroke:#ff0000; stroke-linecap:round; stroke-linejoin:round; stroke-width:0; stroke-opacity:1; fill:none" points="968.247,1234.43 968.247,1227.54 615.955,1227.54 615.955,1234.43 968.247,1234.43 968.247,1227.54 "/>
<polyline clip-path="url(#clip951)" style="stroke:#ff0000; stroke-linecap:round; stroke-linejoin:round; stroke-width:0; stroke-opacity:1; fill:none" points="968.247,1220.6 615.955,1220.6 615.955,1227.54 968.247,1227.54 968.247,1220.6 792.101,1220.6 "/>
<polyline clip-path="url(#clip951)" style="stroke:#ff0000; stroke-linecap:round; stroke-linejoin:round; stroke-width:0; stroke-opacity:1; fill:none" points="792.101,1200.15 704.028,1200.15 880.174,1200.15 792.101,1200.15 792.101,1220.6 "/>
<polyline clip-path="url(#clip951)" style="stroke:#ff0000; stroke-linecap:round; stroke-linejoin:round; stroke-width:0; stroke-opacity:1; fill:none" points="1232.47,1360.18 1144.39,1360.18 1320.54,1360.18 1232.47,1360.18 1232.47,1351.08 "/>
<polyline clip-path="url(#clip951)" style="stroke:#ff0000; stroke-linecap:round; stroke-linejoin:round; stroke-width:0; stroke-opacity:1; fill:none" points="1408.61,1351.08 1408.61,1348.11 1056.32,1348.11 1056.32,1351.08 1408.61,1351.08 1408.61,1348.11 "/>
<polyline clip-path="url(#clip951)" style="stroke:#ff0000; stroke-linecap:round; stroke-linejoin:round; stroke-width:0; stroke-opacity:1; fill:none" points="1408.61,1344.86 1056.32,1344.86 1056.32,1348.11 1408.61,1348.11 1408.61,1344.86 1232.47,1344.86 "/>
<polyline clip-path="url(#clip951)" style="stroke:#ff0000; stroke-linecap:round; stroke-linejoin:round; stroke-width:0; stroke-opacity:1; fill:none" points="1232.47,1335.62 1144.39,1335.62 1320.54,1335.62 1232.47,1335.62 1232.47,1344.86 "/>
<polyline clip-path="url(#clip951)" style="stroke:#ff0000; stroke-linecap:round; stroke-linejoin:round; stroke-width:0; stroke-opacity:1; fill:none" points="1672.83,1413.37 1584.76,1413.37 1760.9,1413.37 1672.83,1413.37 1672.83,1409.02 "/>
<polyline clip-path="url(#clip951)" style="stroke:#ff0000; stroke-linecap:round; stroke-linejoin:round; stroke-width:0; stroke-opacity:1; fill:none" points="1848.98,1409.02 1848.98,1407.55 1496.69,1407.55 1496.69,1409.02 1848.98,1409.02 1848.98,1407.55 "/>
<polyline clip-path="url(#clip951)" style="stroke:#ff0000; stroke-linecap:round; stroke-linejoin:round; stroke-width:0; stroke-opacity:1; fill:none" points="1848.98,1405.92 1496.69,1405.92 1496.69,1407.55 1848.98,1407.55 1848.98,1405.92 1672.83,1405.92 "/>
<polyline clip-path="url(#clip951)" style="stroke:#ff0000; stroke-linecap:round; stroke-linejoin:round; stroke-width:0; stroke-opacity:1; fill:none" points="1672.83,1401.51 1584.76,1401.51 1760.9,1401.51 1672.83,1401.51 1672.83,1405.92 "/>
<polyline clip-path="url(#clip951)" style="stroke:#ff0000; stroke-linecap:round; stroke-linejoin:round; stroke-width:0; stroke-opacity:1; fill:none" points="2113.2,1445.5 2025.12,1445.5 2201.27,1445.5 2113.2,1445.5 2113.2,1443.73 "/>
<polyline clip-path="url(#clip951)" style="stroke:#ff0000; stroke-linecap:round; stroke-linejoin:round; stroke-width:0; stroke-opacity:1; fill:none" points="2289.34,1443.73 2289.34,1443.16 1937.05,1443.16 1937.05,1443.73 2289.34,1443.73 2289.34,1443.16 "/>
<polyline clip-path="url(#clip951)" style="stroke:#ff0000; stroke-linecap:round; stroke-linejoin:round; stroke-width:0; stroke-opacity:1; fill:none" points="2289.34,1442.5 1937.05,1442.5 1937.05,1443.16 2289.34,1443.16 2289.34,1442.5 2113.2,1442.5 "/>
<polyline clip-path="url(#clip951)" style="stroke:#ff0000; stroke-linecap:round; stroke-linejoin:round; stroke-width:0; stroke-opacity:1; fill:none" points="2113.2,1440.68 2025.12,1440.68 2201.27,1440.68 2113.2,1440.68 2113.2,1442.5 "/>
</svg>
