<?xml version="1.0" encoding="utf-8"?>
<svg xmlns="http://www.w3.org/2000/svg" xmlns:xlink="http://www.w3.org/1999/xlink" width="600" height="400" viewBox="0 0 2400 1600">
<defs>
  <clipPath id="clip130">
    <rect x="0" y="0" width="2400" height="1600"/>
  </clipPath>
</defs>
<path clip-path="url(#clip130)" d="M0 1600 L2400 1600 L2400 0 L0 0  Z" fill="#ffffff" fill-rule="evenodd" fill-opacity="1"/>
<defs>
  <clipPath id="clip131">
    <rect x="140" y="47" width="2213" height="1440"/>
  </clipPath>
</defs>
<path clip-path="url(#clip130)" d="M140.696 1486.45 L2352.76 1486.45 L2352.76 47.2441 L140.696 47.2441  Z" fill="#ffffff" fill-rule="evenodd" fill-opacity="1"/>
<polyline clip-path="url(#clip131)" style="stroke:#000000; stroke-linecap:round; stroke-linejoin:round; stroke-width:2; stroke-opacity:0.1; fill:none" points="426.423,1486.45 426.423,47.2441 "/>
<polyline clip-path="url(#clip131)" style="stroke:#000000; stroke-linecap:round; stroke-linejoin:round; stroke-width:2; stroke-opacity:0.1; fill:none" points="836.575,1486.45 836.575,47.2441 "/>
<polyline clip-path="url(#clip131)" style="stroke:#000000; stroke-linecap:round; stroke-linejoin:round; stroke-width:2; stroke-opacity:0.1; fill:none" points="1246.73,1486.45 1246.73,47.2441 "/>
<polyline clip-path="url(#clip131)" style="stroke:#000000; stroke-linecap:round; stroke-linejoin:round; stroke-width:2; stroke-opacity:0.1; fill:none" points="1656.88,1486.45 1656.88,47.2441 "/>
<polyline clip-path="url(#clip131)" style="stroke:#000000; stroke-linecap:round; stroke-linejoin:round; stroke-width:2; stroke-opacity:0.1; fill:none" points="2067.03,1486.45 2067.03,47.2441 "/>
<polyline clip-path="url(#clip131)" style="stroke:#000000; stroke-linecap:round; stroke-linejoin:round; stroke-width:2; stroke-opacity:0.1; fill:none" points="140.696,1486.45 2352.76,1486.45 "/>
<polyline clip-path="url(#clip131)" style="stroke:#000000; stroke-linecap:round; stroke-linejoin:round; stroke-width:2; stroke-opacity:0.1; fill:none" points="140.696,1236.59 2352.76,1236.59 "/>
<polyline clip-path="url(#clip131)" style="stroke:#000000; stroke-linecap:round; stroke-linejoin:round; stroke-width:2; stroke-opacity:0.1; fill:none" points="140.696,986.727 2352.76,986.727 "/>
<polyline clip-path="url(#clip131)" style="stroke:#000000; stroke-linecap:round; stroke-linejoin:round; stroke-width:2; stroke-opacity:0.1; fill:none" points="140.696,736.867 2352.76,736.867 "/>
<polyline clip-path="url(#clip131)" style="stroke:#000000; stroke-linecap:round; stroke-linejoin:round; stroke-width:2; stroke-opacity:0.1; fill:none" points="140.696,487.007 2352.76,487.007 "/>
<polyline clip-path="url(#clip131)" style="stroke:#000000; stroke-linecap:round; stroke-linejoin:round; stroke-width:2; stroke-opacity:0.1; fill:none" points="140.696,237.147 2352.76,237.147 "/>
<polyline clip-path="url(#clip130)" style="stroke:#000000; stroke-linecap:round; stroke-linejoin:round; stroke-width:4; stroke-opacity:1; fill:none" points="140.696,1486.45 2352.76,1486.45 "/>
<polyline clip-path="url(#clip130)" style="stroke:#000000; stroke-linecap:round; stroke-linejoin:round; stroke-width:4; stroke-opacity:1; fill:none" points="426.423,1486.45 426.423,1467.55 "/>
<polyline clip-path="url(#clip130)" style="stroke:#000000; stroke-linecap:round; stroke-linejoin:round; stroke-width:4; stroke-opacity:1; fill:none" points="836.575,1486.45 836.575,1467.55 "/>
<polyline clip-path="url(#clip130)" style="stroke:#000000; stroke-linecap:round; stroke-linejoin:round; stroke-width:4; stroke-opacity:1; fill:none" points="1246.73,1486.45 1246.73,1467.55 "/>
<polyline clip-path="url(#clip130)" style="stroke:#000000; stroke-linecap:round; stroke-linejoin:round; stroke-width:4; stroke-opacity:1; fill:none" points="1656.88,1486.45 1656.88,1467.55 "/>
<polyline clip-path="url(#clip130)" style="stroke:#000000; stroke-linecap:round; stroke-linejoin:round; stroke-width:4; stroke-opacity:1; fill:none" points="2067.03,1486.45 2067.03,1467.55 "/>
<path clip-path="url(#clip130)" d="M401.111 1544.91 L408.75 1544.91 L408.75 1518.55 L400.44 1520.21 L400.44 1515.95 L408.703 1514.29 L413.379 1514.29 L413.379 1544.91 L421.018 1544.91 L421.018 1548.85 L401.111 1548.85 L401.111 1544.91 Z" fill="#000000" fill-rule="nonzero" fill-opacity="1" /><path clip-path="url(#clip130)" d="M440.463 1517.37 Q436.851 1517.37 435.023 1520.93 Q433.217 1524.47 433.217 1531.6 Q433.217 1538.71 435.023 1542.27 Q436.851 1545.82 440.463 1545.82 Q444.097 1545.82 445.902 1542.27 Q447.731 1538.71 447.731 1531.6 Q447.731 1524.47 445.902 1520.93 Q444.097 1517.37 440.463 1517.37 M440.463 1513.66 Q446.273 1513.66 449.328 1518.27 Q452.407 1522.85 452.407 1531.6 Q452.407 1540.33 449.328 1544.94 Q446.273 1549.52 440.463 1549.52 Q434.652 1549.52 431.574 1544.94 Q428.518 1540.33 428.518 1531.6 Q428.518 1522.85 431.574 1518.27 Q434.652 1513.66 440.463 1513.66 Z" fill="#000000" fill-rule="nonzero" fill-opacity="1" /><path clip-path="url(#clip130)" d="M811.274 1514.29 L829.63 1514.29 L829.63 1518.22 L815.556 1518.22 L815.556 1526.7 Q816.575 1526.35 817.593 1526.19 Q818.612 1526 819.63 1526 Q825.417 1526 828.797 1529.17 Q832.176 1532.34 832.176 1537.76 Q832.176 1543.34 828.704 1546.44 Q825.232 1549.52 818.913 1549.52 Q816.737 1549.52 814.468 1549.15 Q812.223 1548.78 809.815 1548.04 L809.815 1543.34 Q811.899 1544.47 814.121 1545.03 Q816.343 1545.58 818.82 1545.58 Q822.825 1545.58 825.163 1543.48 Q827.5 1541.37 827.5 1537.76 Q827.5 1534.15 825.163 1532.04 Q822.825 1529.94 818.82 1529.94 Q816.945 1529.94 815.07 1530.35 Q813.218 1530.77 811.274 1531.65 L811.274 1514.29 Z" fill="#000000" fill-rule="nonzero" fill-opacity="1" /><path clip-path="url(#clip130)" d="M851.389 1517.37 Q847.778 1517.37 845.949 1520.93 Q844.144 1524.47 844.144 1531.6 Q844.144 1538.71 845.949 1542.27 Q847.778 1545.82 851.389 1545.82 Q855.023 1545.82 856.829 1542.27 Q858.658 1538.71 858.658 1531.6 Q858.658 1524.47 856.829 1520.93 Q855.023 1517.37 851.389 1517.37 M851.389 1513.66 Q857.199 1513.66 860.255 1518.27 Q863.334 1522.85 863.334 1531.6 Q863.334 1540.33 860.255 1544.94 Q857.199 1549.52 851.389 1549.52 Q845.579 1549.52 842.5 1544.94 Q839.445 1540.33 839.445 1531.6 Q839.445 1522.85 842.5 1518.27 Q845.579 1513.66 851.389 1513.66 Z" fill="#000000" fill-rule="nonzero" fill-opacity="1" /><path clip-path="url(#clip130)" d="M1206.33 1544.91 L1213.97 1544.91 L1213.97 1518.55 L1205.66 1520.21 L1205.66 1515.95 L1213.92 1514.29 L1218.6 1514.29 L1218.6 1544.91 L1226.24 1544.91 L1226.24 1548.85 L1206.33 1548.85 L1206.33 1544.91 Z" fill="#000000" fill-rule="nonzero" fill-opacity="1" /><path clip-path="url(#clip130)" d="M1245.68 1517.37 Q1242.07 1517.37 1240.24 1520.93 Q1238.44 1524.47 1238.44 1531.6 Q1238.44 1538.71 1240.24 1542.27 Q1242.07 1545.82 1245.68 1545.82 Q1249.32 1545.82 1251.12 1542.27 Q1252.95 1538.71 1252.95 1531.6 Q1252.95 1524.47 1251.12 1520.93 Q1249.32 1517.37 1245.68 1517.37 M1245.68 1513.66 Q1251.49 1513.66 1254.55 1518.27 Q1257.63 1522.85 1257.63 1531.6 Q1257.63 1540.33 1254.55 1544.94 Q1251.49 1549.52 1245.68 1549.52 Q1239.87 1549.52 1236.8 1544.94 Q1233.74 1540.33 1233.74 1531.6 Q1233.74 1522.85 1236.8 1518.27 Q1239.87 1513.66 1245.68 1513.66 Z" fill="#000000" fill-rule="nonzero" fill-opacity="1" /><path clip-path="url(#clip130)" d="M1275.85 1517.37 Q1272.23 1517.37 1270.41 1520.93 Q1268.6 1524.47 1268.6 1531.6 Q1268.6 1538.71 1270.41 1542.27 Q1272.23 1545.82 1275.85 1545.82 Q1279.48 1545.82 1281.29 1542.27 Q1283.11 1538.71 1283.11 1531.6 Q1283.11 1524.47 1281.29 1520.93 Q1279.48 1517.37 1275.85 1517.37 M1275.85 1513.66 Q1281.66 1513.66 1284.71 1518.27 Q1287.79 1522.85 1287.79 1531.6 Q1287.79 1540.33 1284.71 1544.94 Q1281.66 1549.52 1275.85 1549.52 Q1270.04 1549.52 1266.96 1544.94 Q1263.9 1540.33 1263.9 1531.6 Q1263.9 1522.85 1266.96 1518.27 Q1270.04 1513.66 1275.85 1513.66 Z" fill="#000000" fill-rule="nonzero" fill-opacity="1" /><path clip-path="url(#clip130)" d="M1620.57 1544.91 L1636.89 1544.91 L1636.89 1548.85 L1614.94 1548.85 L1614.94 1544.91 Q1617.61 1542.16 1622.19 1537.53 Q1626.8 1532.88 1627.98 1531.53 Q1630.22 1529.01 1631.1 1527.27 Q1632 1525.51 1632 1523.82 Q1632 1521.07 1630.06 1519.33 Q1628.14 1517.6 1625.04 1517.6 Q1622.84 1517.6 1620.38 1518.36 Q1617.95 1519.13 1615.18 1520.68 L1615.18 1515.95 Q1618 1514.82 1620.45 1514.24 Q1622.91 1513.66 1624.94 1513.66 Q1630.31 1513.66 1633.51 1516.35 Q1636.7 1519.03 1636.7 1523.52 Q1636.7 1525.65 1635.89 1527.57 Q1635.11 1529.47 1633 1532.07 Q1632.42 1532.74 1629.32 1535.95 Q1626.22 1539.15 1620.57 1544.91 Z" fill="#000000" fill-rule="nonzero" fill-opacity="1" /><path clip-path="url(#clip130)" d="M1656.7 1517.37 Q1653.09 1517.37 1651.26 1520.93 Q1649.46 1524.47 1649.46 1531.6 Q1649.46 1538.71 1651.26 1542.27 Q1653.09 1545.82 1656.7 1545.82 Q1660.34 1545.82 1662.14 1542.27 Q1663.97 1538.71 1663.97 1531.6 Q1663.97 1524.47 1662.14 1520.93 Q1660.34 1517.37 1656.7 1517.37 M1656.7 1513.66 Q1662.51 1513.66 1665.57 1518.27 Q1668.65 1522.85 1668.65 1531.6 Q1668.65 1540.33 1665.57 1544.94 Q1662.51 1549.52 1656.7 1549.52 Q1650.89 1549.52 1647.81 1544.94 Q1644.76 1540.33 1644.76 1531.6 Q1644.76 1522.85 1647.81 1518.27 Q1650.89 1513.66 1656.7 1513.66 Z" fill="#000000" fill-rule="nonzero" fill-opacity="1" /><path clip-path="url(#clip130)" d="M1686.87 1517.37 Q1683.25 1517.37 1681.43 1520.93 Q1679.62 1524.47 1679.62 1531.6 Q1679.62 1538.71 1681.43 1542.27 Q1683.25 1545.82 1686.87 1545.82 Q1690.5 1545.82 1692.3 1542.27 Q1694.13 1538.71 1694.13 1531.6 Q1694.13 1524.47 1692.3 1520.93 Q1690.5 1517.37 1686.87 1517.37 M1686.87 1513.66 Q1692.68 1513.66 1695.73 1518.27 Q1698.81 1522.85 1698.81 1531.6 Q1698.81 1540.33 1695.73 1544.94 Q1692.68 1549.52 1686.87 1549.52 Q1681.06 1549.52 1677.98 1544.94 Q1674.92 1540.33 1674.92 1531.6 Q1674.92 1522.85 1677.98 1518.27 Q1681.06 1513.66 1686.87 1513.66 Z" fill="#000000" fill-rule="nonzero" fill-opacity="1" /><path clip-path="url(#clip130)" d="M2026.65 1514.29 L2045 1514.29 L2045 1518.22 L2030.93 1518.22 L2030.93 1526.7 Q2031.95 1526.35 2032.97 1526.19 Q2033.98 1526 2035 1526 Q2040.79 1526 2044.17 1529.17 Q2047.55 1532.34 2047.55 1537.76 Q2047.55 1543.34 2044.08 1546.44 Q2040.6 1549.52 2034.29 1549.52 Q2032.11 1549.52 2029.84 1549.15 Q2027.6 1548.78 2025.19 1548.04 L2025.19 1543.34 Q2027.27 1544.47 2029.49 1545.03 Q2031.72 1545.58 2034.19 1545.58 Q2038.2 1545.58 2040.54 1543.48 Q2042.87 1541.37 2042.87 1537.76 Q2042.87 1534.15 2040.54 1532.04 Q2038.2 1529.94 2034.19 1529.94 Q2032.32 1529.94 2030.44 1530.35 Q2028.59 1530.77 2026.65 1531.65 L2026.65 1514.29 Z" fill="#000000" fill-rule="nonzero" fill-opacity="1" /><path clip-path="url(#clip130)" d="M2066.76 1517.37 Q2063.15 1517.37 2061.32 1520.93 Q2059.52 1524.47 2059.52 1531.6 Q2059.52 1538.71 2061.32 1542.27 Q2063.15 1545.82 2066.76 1545.82 Q2070.4 1545.82 2072.2 1542.27 Q2074.03 1538.71 2074.03 1531.6 Q2074.03 1524.47 2072.2 1520.93 Q2070.4 1517.37 2066.76 1517.37 M2066.76 1513.66 Q2072.57 1513.66 2075.63 1518.27 Q2078.71 1522.85 2078.71 1531.6 Q2078.71 1540.33 2075.63 1544.94 Q2072.57 1549.52 2066.76 1549.52 Q2060.95 1549.52 2057.87 1544.94 Q2054.82 1540.33 2054.82 1531.6 Q2054.82 1522.85 2057.87 1518.27 Q2060.95 1513.66 2066.76 1513.66 Z" fill="#000000" fill-rule="nonzero" fill-opacity="1" /><path clip-path="url(#clip130)" d="M2096.92 1517.37 Q2093.31 1517.37 2091.48 1520.93 Q2089.68 1524.47 2089.68 1531.6 Q2089.68 1538.71 2091.48 1542.27 Q2093.31 1545.82 2096.92 1545.82 Q2100.56 1545.82 2102.36 1542.27 Q2104.19 1538.71 2104.19 1531.6 Q2104.19 1524.47 2102.36 1520.93 Q2100.56 1517.37 2096.92 1517.37 M2096.92 1513.66 Q2102.73 1513.66 2105.79 1518.27 Q2108.87 1522.85 2108.87 1531.6 Q2108.87 1540.33 2105.79 1544.94 Q2102.73 1549.52 2096.92 1549.52 Q2091.11 1549.52 2088.03 1544.94 Q2084.98 1540.33 2084.98 1531.6 Q2084.98 1522.85 2088.03 1518.27 Q2091.11 1513.66 2096.92 1513.66 Z" fill="#000000" fill-rule="nonzero" fill-opacity="1" /><polyline clip-path="url(#clip130)" style="stroke:#000000; stroke-linecap:round; stroke-linejoin:round; stroke-width:4; stroke-opacity:1; fill:none" points="140.696,1486.45 140.696,47.2441 "/>
<polyline clip-path="url(#clip130)" style="stroke:#000000; stroke-linecap:round; stroke-linejoin:round; stroke-width:4; stroke-opacity:1; fill:none" points="140.696,1486.45 159.593,1486.45 "/>
<polyline clip-path="url(#clip130)" style="stroke:#000000; stroke-linecap:round; stroke-linejoin:round; stroke-width:4; stroke-opacity:1; fill:none" points="140.696,1236.59 159.593,1236.59 "/>
<polyline clip-path="url(#clip130)" style="stroke:#000000; stroke-linecap:round; stroke-linejoin:round; stroke-width:4; stroke-opacity:1; fill:none" points="140.696,986.727 159.593,986.727 "/>
<polyline clip-path="url(#clip130)" style="stroke:#000000; stroke-linecap:round; stroke-linejoin:round; stroke-width:4; stroke-opacity:1; fill:none" points="140.696,736.867 159.593,736.867 "/>
<polyline clip-path="url(#clip130)" style="stroke:#000000; stroke-linecap:round; stroke-linejoin:round; stroke-width:4; stroke-opacity:1; fill:none" points="140.696,487.007 159.593,487.007 "/>
<polyline clip-path="url(#clip130)" style="stroke:#000000; stroke-linecap:round; stroke-linejoin:round; stroke-width:4; stroke-opacity:1; fill:none" points="140.696,237.147 159.593,237.147 "/>
<path clip-path="url(#clip130)" d="M92.7512 1472.25 Q89.1401 1472.25 87.3114 1475.81 Q85.5058 1479.35 85.5058 1486.48 Q85.5058 1493.59 87.3114 1497.15 Q89.1401 1500.7 92.7512 1500.7 Q96.3854 1500.7 98.1909 1497.15 Q100.02 1493.59 100.02 1486.48 Q100.02 1479.35 98.1909 1475.81 Q96.3854 1472.25 92.7512 1472.25 M92.7512 1468.54 Q98.5613 1468.54 101.617 1473.15 Q104.696 1477.73 104.696 1486.48 Q104.696 1495.21 101.617 1499.82 Q98.5613 1504.4 92.7512 1504.4 Q86.941 1504.4 83.8623 1499.82 Q80.8068 1495.21 80.8068 1486.48 Q80.8068 1477.73 83.8623 1473.15 Q86.941 1468.54 92.7512 1468.54 Z" fill="#000000" fill-rule="nonzero" fill-opacity="1" /><path clip-path="url(#clip130)" d="M83.7929 1219.31 L102.149 1219.31 L102.149 1223.24 L88.0753 1223.24 L88.0753 1231.72 Q89.0938 1231.37 90.1123 1231.21 Q91.1308 1231.02 92.1493 1231.02 Q97.9363 1231.02 101.316 1234.19 Q104.696 1237.36 104.696 1242.78 Q104.696 1248.36 101.223 1251.46 Q97.7511 1254.54 91.4317 1254.54 Q89.2558 1254.54 86.9873 1254.17 Q84.7419 1253.8 82.3346 1253.06 L82.3346 1248.36 Q84.4179 1249.49 86.6401 1250.05 Q88.8623 1250.6 91.3391 1250.6 Q95.3437 1250.6 97.6817 1248.5 Q100.02 1246.39 100.02 1242.78 Q100.02 1239.17 97.6817 1237.06 Q95.3437 1234.96 91.3391 1234.96 Q89.4641 1234.96 87.5892 1235.37 Q85.7373 1235.79 83.7929 1236.67 L83.7929 1219.31 Z" fill="#000000" fill-rule="nonzero" fill-opacity="1" /><path clip-path="url(#clip130)" d="M53.3995 1000.07 L61.0384 1000.07 L61.0384 973.707 L52.7282 975.373 L52.7282 971.114 L60.9921 969.447 L65.668 969.447 L65.668 1000.07 L73.3068 1000.07 L73.3068 1004.01 L53.3995 1004.01 L53.3995 1000.07 Z" fill="#000000" fill-rule="nonzero" fill-opacity="1" /><path clip-path="url(#clip130)" d="M92.7512 972.526 Q89.1401 972.526 87.3114 976.091 Q85.5058 979.633 85.5058 986.762 Q85.5058 993.869 87.3114 997.433 Q89.1401 1000.98 92.7512 1000.98 Q96.3854 1000.98 98.1909 997.433 Q100.02 993.869 100.02 986.762 Q100.02 979.633 98.1909 976.091 Q96.3854 972.526 92.7512 972.526 M92.7512 968.823 Q98.5613 968.823 101.617 973.429 Q104.696 978.012 104.696 986.762 Q104.696 995.489 101.617 1000.1 Q98.5613 1004.68 92.7512 1004.68 Q86.941 1004.68 83.8623 1000.1 Q80.8068 995.489 80.8068 986.762 Q80.8068 978.012 83.8623 973.429 Q86.941 968.823 92.7512 968.823 Z" fill="#000000" fill-rule="nonzero" fill-opacity="1" /><path clip-path="url(#clip130)" d="M54.3949 750.212 L62.0337 750.212 L62.0337 723.847 L53.7236 725.513 L53.7236 721.254 L61.9874 719.587 L66.6633 719.587 L66.6633 750.212 L74.3022 750.212 L74.3022 754.147 L54.3949 754.147 L54.3949 750.212 Z" fill="#000000" fill-rule="nonzero" fill-opacity="1" /><path clip-path="url(#clip130)" d="M83.7929 719.587 L102.149 719.587 L102.149 723.522 L88.0753 723.522 L88.0753 731.995 Q89.0938 731.647 90.1123 731.485 Q91.1308 731.3 92.1493 731.3 Q97.9363 731.3 101.316 734.471 Q104.696 737.643 104.696 743.059 Q104.696 748.638 101.223 751.74 Q97.7511 754.819 91.4317 754.819 Q89.2558 754.819 86.9873 754.448 Q84.7419 754.078 82.3346 753.337 L82.3346 748.638 Q84.4179 749.772 86.6401 750.328 Q88.8623 750.883 91.3391 750.883 Q95.3437 750.883 97.6817 748.777 Q100.02 746.67 100.02 743.059 Q100.02 739.448 97.6817 737.342 Q95.3437 735.235 91.3391 735.235 Q89.4641 735.235 87.5892 735.652 Q85.7373 736.069 83.7929 736.948 L83.7929 719.587 Z" fill="#000000" fill-rule="nonzero" fill-opacity="1" /><path clip-path="url(#clip130)" d="M56.6171 500.352 L72.9365 500.352 L72.9365 504.287 L50.9921 504.287 L50.9921 500.352 Q53.6541 497.597 58.2375 492.968 Q62.8439 488.315 64.0245 486.972 Q66.2698 484.449 67.1494 482.713 Q68.0522 480.954 68.0522 479.264 Q68.0522 476.509 66.1078 474.773 Q64.1865 473.037 61.0847 473.037 Q58.8856 473.037 56.4319 473.801 Q54.0014 474.565 51.2236 476.116 L51.2236 471.394 Q54.0477 470.26 56.5014 469.681 Q58.955 469.102 60.9921 469.102 Q66.3624 469.102 69.5568 471.787 Q72.7513 474.472 72.7513 478.963 Q72.7513 481.093 71.9411 483.014 Q71.1541 484.912 69.0476 487.505 Q68.4689 488.176 65.367 491.394 Q62.2652 494.588 56.6171 500.352 Z" fill="#000000" fill-rule="nonzero" fill-opacity="1" /><path clip-path="url(#clip130)" d="M92.7512 472.806 Q89.1401 472.806 87.3114 476.371 Q85.5058 479.912 85.5058 487.042 Q85.5058 494.148 87.3114 497.713 Q89.1401 501.255 92.7512 501.255 Q96.3854 501.255 98.1909 497.713 Q100.02 494.148 100.02 487.042 Q100.02 479.912 98.1909 476.371 Q96.3854 472.806 92.7512 472.806 M92.7512 469.102 Q98.5613 469.102 101.617 473.709 Q104.696 478.292 104.696 487.042 Q104.696 495.769 101.617 500.375 Q98.5613 504.958 92.7512 504.958 Q86.941 504.958 83.8623 500.375 Q80.8068 495.769 80.8068 487.042 Q80.8068 478.292 83.8623 473.709 Q86.941 469.102 92.7512 469.102 Z" fill="#000000" fill-rule="nonzero" fill-opacity="1" /><path clip-path="url(#clip130)" d="M57.6125 250.492 L73.9318 250.492 L73.9318 254.427 L51.9875 254.427 L51.9875 250.492 Q54.6495 247.737 59.2328 243.108 Q63.8393 238.455 65.0198 237.112 Q67.2652 234.589 68.1448 232.853 Q69.0476 231.094 69.0476 229.404 Q69.0476 226.649 67.1032 224.913 Q65.1819 223.177 62.08 223.177 Q59.881 223.177 57.4273 223.941 Q54.9967 224.705 52.219 226.256 L52.219 221.534 Q55.043 220.399 57.4967 219.821 Q59.9504 219.242 61.9874 219.242 Q67.3578 219.242 70.5522 221.927 Q73.7466 224.612 73.7466 229.103 Q73.7466 231.233 72.9365 233.154 Q72.1494 235.052 70.0429 237.645 Q69.4642 238.316 66.3624 241.533 Q63.2606 244.728 57.6125 250.492 Z" fill="#000000" fill-rule="nonzero" fill-opacity="1" /><path clip-path="url(#clip130)" d="M83.7929 219.867 L102.149 219.867 L102.149 223.802 L88.0753 223.802 L88.0753 232.274 Q89.0938 231.927 90.1123 231.765 Q91.1308 231.58 92.1493 231.58 Q97.9363 231.58 101.316 234.751 Q104.696 237.922 104.696 243.339 Q104.696 248.918 101.223 252.02 Q97.7511 255.098 91.4317 255.098 Q89.2558 255.098 86.9873 254.728 Q84.7419 254.357 82.3346 253.617 L82.3346 248.918 Q84.4179 250.052 86.6401 250.608 Q88.8623 251.163 91.3391 251.163 Q95.3437 251.163 97.6817 249.057 Q100.02 246.95 100.02 243.339 Q100.02 239.728 97.6817 237.621 Q95.3437 235.515 91.3391 235.515 Q89.4641 235.515 87.5892 235.932 Q85.7373 236.348 83.7929 237.228 L83.7929 219.867 Z" fill="#000000" fill-rule="nonzero" fill-opacity="1" /><path clip-path="url(#clip131)" d="M262.363 47.2441 L262.363 1486.45 L590.484 1486.45 L590.484 47.2441 L262.363 47.2441 L262.363 47.2441  Z" fill="#00008b" fill-rule="evenodd" fill-opacity="1"/>
<polyline clip-path="url(#clip131)" style="stroke:#000000; stroke-linecap:round; stroke-linejoin:round; stroke-width:4; stroke-opacity:1; fill:none" points="262.363,47.2441 262.363,1486.45 590.484,1486.45 590.484,47.2441 262.363,47.2441 "/>
<path clip-path="url(#clip131)" d="M672.514 1297.82 L672.514 1486.45 L1000.63 1486.45 L1000.63 1297.82 L672.514 1297.82 L672.514 1297.82  Z" fill="#00008b" fill-rule="evenodd" fill-opacity="1"/>
<polyline clip-path="url(#clip131)" style="stroke:#000000; stroke-linecap:round; stroke-linejoin:round; stroke-width:4; stroke-opacity:1; fill:none" points="672.514,1297.82 672.514,1486.45 1000.63,1486.45 1000.63,1297.82 672.514,1297.82 "/>
<path clip-path="url(#clip131)" d="M1082.67 1415.6 L1082.67 1486.45 L1410.79 1486.45 L1410.79 1415.6 L1082.67 1415.6 L1082.67 1415.6  Z" fill="#00008b" fill-rule="evenodd" fill-opacity="1"/>
<polyline clip-path="url(#clip131)" style="stroke:#000000; stroke-linecap:round; stroke-linejoin:round; stroke-width:4; stroke-opacity:1; fill:none" points="1082.67,1415.6 1082.67,1486.45 1410.79,1486.45 1410.79,1415.6 1082.67,1415.6 "/>
<path clip-path="url(#clip131)" d="M1492.82 1454.14 L1492.82 1486.45 L1820.94 1486.45 L1820.94 1454.14 L1492.82 1454.14 L1492.82 1454.14  Z" fill="#00008b" fill-rule="evenodd" fill-opacity="1"/>
<polyline clip-path="url(#clip131)" style="stroke:#000000; stroke-linecap:round; stroke-linejoin:round; stroke-width:4; stroke-opacity:1; fill:none" points="1492.82,1454.14 1492.82,1486.45 1820.94,1486.45 1820.94,1454.14 1492.82,1454.14 "/>
<path clip-path="url(#clip131)" d="M1902.97 1474.79 L1902.97 1486.45 L2231.09 1486.45 L2231.09 1474.79 L1902.97 1474.79 L1902.97 1474.79  Z" fill="#00008b" fill-rule="evenodd" fill-opacity="1"/>
<polyline clip-path="url(#clip131)" style="stroke:#000000; stroke-linecap:round; stroke-linejoin:round; stroke-width:4; stroke-opacity:1; fill:none" points="1902.97,1474.79 1902.97,1486.45 2231.09,1486.45 2231.09,1474.79 1902.97,1474.79 "/>
<circle clip-path="url(#clip131)" style="fill:#00008b; stroke:none; fill-opacity:0" cx="426.423" cy="47.2441" r="2"/>
<circle clip-path="url(#clip131)" style="fill:#00008b; stroke:none; fill-opacity:0" cx="836.575" cy="1297.82" r="2"/>
<circle clip-path="url(#clip131)" style="fill:#00008b; stroke:none; fill-opacity:0" cx="1246.73" cy="1415.6" r="2"/>
<circle clip-path="url(#clip131)" style="fill:#00008b; stroke:none; fill-opacity:0" cx="1656.88" cy="1454.14" r="2"/>
<circle clip-path="url(#clip131)" style="fill:#00008b; stroke:none; fill-opacity:0" cx="2067.03" cy="1474.79" r="2"/>
</svg>
