<?xml version="1.0" encoding="utf-8"?>
<svg xmlns="http://www.w3.org/2000/svg" xmlns:xlink="http://www.w3.org/1999/xlink" width="600" height="400" viewBox="0 0 2400 1600">
<defs>
  <clipPath id="clip840">
    <rect x="0" y="0" width="2400" height="1600"/>
  </clipPath>
</defs>
<path clip-path="url(#clip840)" d="M0 1600 L2400 1600 L2400 0 L0 0  Z" fill="#ffffff" fill-rule="evenodd" fill-opacity="1"/>
<defs>
  <clipPath id="clip841">
    <rect x="169" y="47" width="2185" height="1440"/>
  </clipPath>
</defs>
<path clip-path="url(#clip840)" d="M169.121 1486.45 L2352.76 1486.45 L2352.76 47.2441 L169.121 47.2441  Z" fill="#ffffff" fill-rule="evenodd" fill-opacity="1"/>
<polyline clip-path="url(#clip841)" style="stroke:#000000; stroke-linecap:round; stroke-linejoin:round; stroke-width:2; stroke-opacity:0.1; fill:none" points="402.592,1486.45 402.592,47.2441 "/>
<polyline clip-path="url(#clip841)" style="stroke:#000000; stroke-linecap:round; stroke-linejoin:round; stroke-width:2; stroke-opacity:0.1; fill:none" points="831.765,1486.45 831.765,47.2441 "/>
<polyline clip-path="url(#clip841)" style="stroke:#000000; stroke-linecap:round; stroke-linejoin:round; stroke-width:2; stroke-opacity:0.1; fill:none" points="1260.94,1486.45 1260.94,47.2441 "/>
<polyline clip-path="url(#clip841)" style="stroke:#000000; stroke-linecap:round; stroke-linejoin:round; stroke-width:2; stroke-opacity:0.1; fill:none" points="1690.11,1486.45 1690.11,47.2441 "/>
<polyline clip-path="url(#clip841)" style="stroke:#000000; stroke-linecap:round; stroke-linejoin:round; stroke-width:2; stroke-opacity:0.1; fill:none" points="2119.29,1486.45 2119.29,47.2441 "/>
<polyline clip-path="url(#clip841)" style="stroke:#000000; stroke-linecap:round; stroke-linejoin:round; stroke-width:2; stroke-opacity:0.1; fill:none" points="169.121,1457.05 2352.76,1457.05 "/>
<polyline clip-path="url(#clip841)" style="stroke:#000000; stroke-linecap:round; stroke-linejoin:round; stroke-width:2; stroke-opacity:0.1; fill:none" points="169.121,1214.68 2352.76,1214.68 "/>
<polyline clip-path="url(#clip841)" style="stroke:#000000; stroke-linecap:round; stroke-linejoin:round; stroke-width:2; stroke-opacity:0.1; fill:none" points="169.121,972.322 2352.76,972.322 "/>
<polyline clip-path="url(#clip841)" style="stroke:#000000; stroke-linecap:round; stroke-linejoin:round; stroke-width:2; stroke-opacity:0.1; fill:none" points="169.121,729.958 2352.76,729.958 "/>
<polyline clip-path="url(#clip841)" style="stroke:#000000; stroke-linecap:round; stroke-linejoin:round; stroke-width:2; stroke-opacity:0.1; fill:none" points="169.121,487.595 2352.76,487.595 "/>
<polyline clip-path="url(#clip841)" style="stroke:#000000; stroke-linecap:round; stroke-linejoin:round; stroke-width:2; stroke-opacity:0.1; fill:none" points="169.121,245.232 2352.76,245.232 "/>
<polyline clip-path="url(#clip840)" style="stroke:#000000; stroke-linecap:round; stroke-linejoin:round; stroke-width:4; stroke-opacity:1; fill:none" points="169.121,1486.45 2352.76,1486.45 "/>
<polyline clip-path="url(#clip840)" style="stroke:#000000; stroke-linecap:round; stroke-linejoin:round; stroke-width:4; stroke-opacity:1; fill:none" points="402.592,1486.45 402.592,1467.55 "/>
<polyline clip-path="url(#clip840)" style="stroke:#000000; stroke-linecap:round; stroke-linejoin:round; stroke-width:4; stroke-opacity:1; fill:none" points="831.765,1486.45 831.765,1467.55 "/>
<polyline clip-path="url(#clip840)" style="stroke:#000000; stroke-linecap:round; stroke-linejoin:round; stroke-width:4; stroke-opacity:1; fill:none" points="1260.94,1486.45 1260.94,1467.55 "/>
<polyline clip-path="url(#clip840)" style="stroke:#000000; stroke-linecap:round; stroke-linejoin:round; stroke-width:4; stroke-opacity:1; fill:none" points="1690.11,1486.45 1690.11,1467.55 "/>
<polyline clip-path="url(#clip840)" style="stroke:#000000; stroke-linecap:round; stroke-linejoin:round; stroke-width:4; stroke-opacity:1; fill:none" points="2119.29,1486.45 2119.29,1467.55 "/>
<path clip-path="url(#clip840)" d="M377.279 1544.91 L384.918 1544.91 L384.918 1518.55 L376.608 1520.21 L376.608 1515.95 L384.872 1514.29 L389.548 1514.29 L389.548 1544.91 L397.187 1544.91 L397.187 1548.85 L377.279 1548.85 L377.279 1544.91 Z" fill="#000000" fill-rule="nonzero" fill-opacity="1" /><path clip-path="url(#clip840)" d="M416.631 1517.37 Q413.02 1517.37 411.191 1520.93 Q409.386 1524.47 409.386 1531.6 Q409.386 1538.71 411.191 1542.27 Q413.02 1545.82 416.631 1545.82 Q420.265 1545.82 422.071 1542.27 Q423.899 1538.71 423.899 1531.6 Q423.899 1524.47 422.071 1520.93 Q420.265 1517.37 416.631 1517.37 M416.631 1513.66 Q422.441 1513.66 425.497 1518.27 Q428.575 1522.85 428.575 1531.6 Q428.575 1540.33 425.497 1544.94 Q422.441 1549.52 416.631 1549.52 Q410.821 1549.52 407.742 1544.94 Q404.687 1540.33 404.687 1531.6 Q404.687 1522.85 407.742 1518.27 Q410.821 1513.66 416.631 1513.66 Z" fill="#000000" fill-rule="nonzero" fill-opacity="1" /><path clip-path="url(#clip840)" d="M806.464 1514.29 L824.821 1514.29 L824.821 1518.22 L810.747 1518.22 L810.747 1526.7 Q811.765 1526.35 812.784 1526.19 Q813.802 1526 814.821 1526 Q820.608 1526 823.987 1529.17 Q827.367 1532.34 827.367 1537.76 Q827.367 1543.34 823.895 1546.44 Q820.423 1549.52 814.103 1549.52 Q811.927 1549.52 809.659 1549.15 Q807.413 1548.78 805.006 1548.04 L805.006 1543.34 Q807.089 1544.47 809.312 1545.03 Q811.534 1545.58 814.011 1545.58 Q818.015 1545.58 820.353 1543.48 Q822.691 1541.37 822.691 1537.76 Q822.691 1534.15 820.353 1532.04 Q818.015 1529.94 814.011 1529.94 Q812.136 1529.94 810.261 1530.35 Q808.409 1530.77 806.464 1531.65 L806.464 1514.29 Z" fill="#000000" fill-rule="nonzero" fill-opacity="1" /><path clip-path="url(#clip840)" d="M846.58 1517.37 Q842.969 1517.37 841.14 1520.93 Q839.335 1524.47 839.335 1531.6 Q839.335 1538.71 841.14 1542.27 Q842.969 1545.82 846.58 1545.82 Q850.214 1545.82 852.02 1542.27 Q853.848 1538.71 853.848 1531.6 Q853.848 1524.47 852.02 1520.93 Q850.214 1517.37 846.58 1517.37 M846.58 1513.66 Q852.39 1513.66 855.446 1518.27 Q858.524 1522.85 858.524 1531.6 Q858.524 1540.33 855.446 1544.94 Q852.39 1549.52 846.58 1549.52 Q840.77 1549.52 837.691 1544.94 Q834.636 1540.33 834.636 1531.6 Q834.636 1522.85 837.691 1518.27 Q840.77 1513.66 846.58 1513.66 Z" fill="#000000" fill-rule="nonzero" fill-opacity="1" /><path clip-path="url(#clip840)" d="M1220.55 1544.91 L1228.18 1544.91 L1228.18 1518.55 L1219.87 1520.21 L1219.87 1515.95 L1228.14 1514.29 L1232.81 1514.29 L1232.81 1544.91 L1240.45 1544.91 L1240.45 1548.85 L1220.55 1548.85 L1220.55 1544.91 Z" fill="#000000" fill-rule="nonzero" fill-opacity="1" /><path clip-path="url(#clip840)" d="M1259.9 1517.37 Q1256.29 1517.37 1254.46 1520.93 Q1252.65 1524.47 1252.65 1531.6 Q1252.65 1538.71 1254.46 1542.27 Q1256.29 1545.82 1259.9 1545.82 Q1263.53 1545.82 1265.34 1542.27 Q1267.17 1538.71 1267.17 1531.6 Q1267.17 1524.47 1265.34 1520.93 Q1263.53 1517.37 1259.9 1517.37 M1259.9 1513.66 Q1265.71 1513.66 1268.76 1518.27 Q1271.84 1522.85 1271.84 1531.6 Q1271.84 1540.33 1268.76 1544.94 Q1265.71 1549.52 1259.9 1549.52 Q1254.09 1549.52 1251.01 1544.94 Q1247.95 1540.33 1247.95 1531.6 Q1247.95 1522.85 1251.01 1518.27 Q1254.09 1513.66 1259.9 1513.66 Z" fill="#000000" fill-rule="nonzero" fill-opacity="1" /><path clip-path="url(#clip840)" d="M1290.06 1517.37 Q1286.45 1517.37 1284.62 1520.93 Q1282.81 1524.47 1282.81 1531.6 Q1282.81 1538.71 1284.62 1542.27 Q1286.45 1545.82 1290.06 1545.82 Q1293.69 1545.82 1295.5 1542.27 Q1297.33 1538.71 1297.33 1531.6 Q1297.33 1524.47 1295.5 1520.93 Q1293.69 1517.37 1290.06 1517.37 M1290.06 1513.66 Q1295.87 1513.66 1298.92 1518.27 Q1302 1522.85 1302 1531.6 Q1302 1540.33 1298.92 1544.94 Q1295.87 1549.52 1290.06 1549.52 Q1284.25 1549.52 1281.17 1544.94 Q1278.11 1540.33 1278.11 1531.6 Q1278.11 1522.85 1281.17 1518.27 Q1284.25 1513.66 1290.06 1513.66 Z" fill="#000000" fill-rule="nonzero" fill-opacity="1" /><path clip-path="url(#clip840)" d="M1653.8 1544.91 L1670.12 1544.91 L1670.12 1548.85 L1648.18 1548.85 L1648.18 1544.91 Q1650.84 1542.16 1655.42 1537.53 Q1660.03 1532.88 1661.21 1531.53 Q1663.46 1529.01 1664.34 1527.27 Q1665.24 1525.51 1665.24 1523.82 Q1665.24 1521.07 1663.3 1519.33 Q1661.37 1517.6 1658.27 1517.6 Q1656.07 1517.6 1653.62 1518.36 Q1651.19 1519.13 1648.41 1520.68 L1648.41 1515.95 Q1651.23 1514.82 1653.69 1514.24 Q1656.14 1513.66 1658.18 1513.66 Q1663.55 1513.66 1666.74 1516.35 Q1669.94 1519.03 1669.94 1523.52 Q1669.94 1525.65 1669.13 1527.57 Q1668.34 1529.47 1666.23 1532.07 Q1665.66 1532.74 1662.55 1535.95 Q1659.45 1539.15 1653.8 1544.91 Z" fill="#000000" fill-rule="nonzero" fill-opacity="1" /><path clip-path="url(#clip840)" d="M1689.94 1517.37 Q1686.33 1517.37 1684.5 1520.93 Q1682.69 1524.47 1682.69 1531.6 Q1682.69 1538.71 1684.5 1542.27 Q1686.33 1545.82 1689.94 1545.82 Q1693.57 1545.82 1695.38 1542.27 Q1697.21 1538.71 1697.21 1531.6 Q1697.21 1524.47 1695.38 1520.93 Q1693.57 1517.37 1689.94 1517.37 M1689.94 1513.66 Q1695.75 1513.66 1698.8 1518.27 Q1701.88 1522.85 1701.88 1531.6 Q1701.88 1540.33 1698.8 1544.94 Q1695.75 1549.52 1689.94 1549.52 Q1684.13 1549.52 1681.05 1544.94 Q1677.99 1540.33 1677.99 1531.6 Q1677.99 1522.85 1681.05 1518.27 Q1684.13 1513.66 1689.94 1513.66 Z" fill="#000000" fill-rule="nonzero" fill-opacity="1" /><path clip-path="url(#clip840)" d="M1720.1 1517.37 Q1716.49 1517.37 1714.66 1520.93 Q1712.86 1524.47 1712.86 1531.6 Q1712.86 1538.71 1714.66 1542.27 Q1716.49 1545.82 1720.1 1545.82 Q1723.73 1545.82 1725.54 1542.27 Q1727.37 1538.71 1727.37 1531.6 Q1727.37 1524.47 1725.54 1520.93 Q1723.73 1517.37 1720.1 1517.37 M1720.1 1513.66 Q1725.91 1513.66 1728.97 1518.27 Q1732.04 1522.85 1732.04 1531.6 Q1732.04 1540.33 1728.97 1544.94 Q1725.91 1549.52 1720.1 1549.52 Q1714.29 1549.52 1711.21 1544.94 Q1708.16 1540.33 1708.16 1531.6 Q1708.16 1522.85 1711.21 1518.27 Q1714.29 1513.66 1720.1 1513.66 Z" fill="#000000" fill-rule="nonzero" fill-opacity="1" /><path clip-path="url(#clip840)" d="M2078.9 1514.29 L2097.26 1514.29 L2097.26 1518.22 L2083.19 1518.22 L2083.19 1526.7 Q2084.2 1526.35 2085.22 1526.19 Q2086.24 1526 2087.26 1526 Q2093.05 1526 2096.43 1529.17 Q2099.81 1532.34 2099.81 1537.76 Q2099.81 1543.34 2096.33 1546.44 Q2092.86 1549.52 2086.54 1549.52 Q2084.37 1549.52 2082.1 1549.15 Q2079.85 1548.78 2077.45 1548.04 L2077.45 1543.34 Q2079.53 1544.47 2081.75 1545.03 Q2083.97 1545.58 2086.45 1545.58 Q2090.45 1545.58 2092.79 1543.48 Q2095.13 1541.37 2095.13 1537.76 Q2095.13 1534.15 2092.79 1532.04 Q2090.45 1529.94 2086.45 1529.94 Q2084.58 1529.94 2082.7 1530.35 Q2080.85 1530.77 2078.9 1531.65 L2078.9 1514.29 Z" fill="#000000" fill-rule="nonzero" fill-opacity="1" /><path clip-path="url(#clip840)" d="M2119.02 1517.37 Q2115.41 1517.37 2113.58 1520.93 Q2111.77 1524.47 2111.77 1531.6 Q2111.77 1538.71 2113.58 1542.27 Q2115.41 1545.82 2119.02 1545.82 Q2122.65 1545.82 2124.46 1542.27 Q2126.29 1538.71 2126.29 1531.6 Q2126.29 1524.47 2124.46 1520.93 Q2122.65 1517.37 2119.02 1517.37 M2119.02 1513.66 Q2124.83 1513.66 2127.89 1518.27 Q2130.96 1522.85 2130.96 1531.6 Q2130.96 1540.33 2127.89 1544.94 Q2124.83 1549.52 2119.02 1549.52 Q2113.21 1549.52 2110.13 1544.94 Q2107.07 1540.33 2107.07 1531.6 Q2107.07 1522.85 2110.13 1518.27 Q2113.21 1513.66 2119.02 1513.66 Z" fill="#000000" fill-rule="nonzero" fill-opacity="1" /><path clip-path="url(#clip840)" d="M2149.18 1517.37 Q2145.57 1517.37 2143.74 1520.93 Q2141.94 1524.47 2141.94 1531.6 Q2141.94 1538.71 2143.74 1542.27 Q2145.57 1545.82 2149.18 1545.82 Q2152.82 1545.82 2154.62 1542.27 Q2156.45 1538.71 2156.45 1531.6 Q2156.45 1524.47 2154.62 1520.93 Q2152.82 1517.37 2149.18 1517.37 M2149.18 1513.66 Q2154.99 1513.66 2158.05 1518.27 Q2161.13 1522.85 2161.13 1531.6 Q2161.13 1540.33 2158.05 1544.94 Q2154.99 1549.52 2149.18 1549.52 Q2143.37 1549.52 2140.29 1544.94 Q2137.24 1540.33 2137.24 1531.6 Q2137.24 1522.85 2140.29 1518.27 Q2143.37 1513.66 2149.18 1513.66 Z" fill="#000000" fill-rule="nonzero" fill-opacity="1" /><polyline clip-path="url(#clip840)" style="stroke:#000000; stroke-linecap:round; stroke-linejoin:round; stroke-width:4; stroke-opacity:1; fill:none" points="169.121,1486.45 169.121,47.2441 "/>
<polyline clip-path="url(#clip840)" style="stroke:#000000; stroke-linecap:round; stroke-linejoin:round; stroke-width:4; stroke-opacity:1; fill:none" points="169.121,1457.05 188.019,1457.05 "/>
<polyline clip-path="url(#clip840)" style="stroke:#000000; stroke-linecap:round; stroke-linejoin:round; stroke-width:4; stroke-opacity:1; fill:none" points="169.121,1214.68 188.019,1214.68 "/>
<polyline clip-path="url(#clip840)" style="stroke:#000000; stroke-linecap:round; stroke-linejoin:round; stroke-width:4; stroke-opacity:1; fill:none" points="169.121,972.322 188.019,972.322 "/>
<polyline clip-path="url(#clip840)" style="stroke:#000000; stroke-linecap:round; stroke-linejoin:round; stroke-width:4; stroke-opacity:1; fill:none" points="169.121,729.958 188.019,729.958 "/>
<polyline clip-path="url(#clip840)" style="stroke:#000000; stroke-linecap:round; stroke-linejoin:round; stroke-width:4; stroke-opacity:1; fill:none" points="169.121,487.595 188.019,487.595 "/>
<polyline clip-path="url(#clip840)" style="stroke:#000000; stroke-linecap:round; stroke-linejoin:round; stroke-width:4; stroke-opacity:1; fill:none" points="169.121,245.232 188.019,245.232 "/>
<path clip-path="url(#clip840)" d="M82.1494 1473.61 L82.1494 1469.35 Q83.9086 1470.18 85.7142 1470.62 Q87.5197 1471.06 89.2558 1471.06 Q93.8854 1471.06 96.316 1467.96 Q98.7696 1464.84 99.1169 1458.49 Q97.7743 1460.49 95.7141 1461.55 Q93.6539 1462.61 91.1539 1462.61 Q85.9688 1462.61 82.9364 1459.49 Q79.9272 1456.34 79.9272 1450.9 Q79.9272 1445.58 83.0753 1442.36 Q86.2234 1439.14 91.4549 1439.14 Q97.4502 1439.14 100.598 1443.75 Q103.77 1448.33 103.77 1457.08 Q103.77 1465.25 99.8808 1470.14 Q96.015 1475 89.4641 1475 Q87.7049 1475 85.8993 1474.65 Q84.0938 1474.3 82.1494 1473.61 M91.4549 1458.96 Q94.603 1458.96 96.4317 1456.8 Q98.2835 1454.65 98.2835 1450.9 Q98.2835 1447.17 96.4317 1445.02 Q94.603 1442.85 91.4549 1442.85 Q88.3067 1442.85 86.4549 1445.02 Q84.6262 1447.17 84.6262 1450.9 Q84.6262 1454.65 86.4549 1456.8 Q88.3067 1458.96 91.4549 1458.96 Z" fill="#000000" fill-rule="nonzero" fill-opacity="1" /><path clip-path="url(#clip840)" d="M112.219 1439.77 L130.575 1439.77 L130.575 1443.7 L116.501 1443.7 L116.501 1452.17 Q117.52 1451.83 118.538 1451.67 Q119.557 1451.48 120.575 1451.48 Q126.362 1451.48 129.742 1454.65 Q133.121 1457.82 133.121 1463.24 Q133.121 1468.82 129.649 1471.92 Q126.177 1475 119.857 1475 Q117.682 1475 115.413 1474.63 Q113.168 1474.26 110.76 1473.52 L110.76 1468.82 Q112.844 1469.95 115.066 1470.51 Q117.288 1471.06 119.765 1471.06 Q123.77 1471.06 126.107 1468.96 Q128.445 1466.85 128.445 1463.24 Q128.445 1459.63 126.107 1457.52 Q123.77 1455.42 119.765 1455.42 Q117.89 1455.42 116.015 1455.83 Q114.163 1456.25 112.219 1457.13 L112.219 1439.77 Z" fill="#000000" fill-rule="nonzero" fill-opacity="1" /><path clip-path="url(#clip840)" d="M51.6634 1228.03 L59.3023 1228.03 L59.3023 1201.66 L50.9921 1203.33 L50.9921 1199.07 L59.256 1197.4 L63.9319 1197.4 L63.9319 1228.03 L71.5707 1228.03 L71.5707 1231.96 L51.6634 1231.96 L51.6634 1228.03 Z" fill="#000000" fill-rule="nonzero" fill-opacity="1" /><path clip-path="url(#clip840)" d="M91.0151 1200.48 Q87.404 1200.48 85.5753 1204.05 Q83.7697 1207.59 83.7697 1214.72 Q83.7697 1221.83 85.5753 1225.39 Q87.404 1228.93 91.0151 1228.93 Q94.6493 1228.93 96.4548 1225.39 Q98.2835 1221.83 98.2835 1214.72 Q98.2835 1207.59 96.4548 1204.05 Q94.6493 1200.48 91.0151 1200.48 M91.0151 1196.78 Q96.8252 1196.78 99.8808 1201.39 Q102.959 1205.97 102.959 1214.72 Q102.959 1223.45 99.8808 1228.05 Q96.8252 1232.64 91.0151 1232.64 Q85.2049 1232.64 82.1262 1228.05 Q79.0707 1223.45 79.0707 1214.72 Q79.0707 1205.97 82.1262 1201.39 Q85.2049 1196.78 91.0151 1196.78 Z" fill="#000000" fill-rule="nonzero" fill-opacity="1" /><path clip-path="url(#clip840)" d="M121.177 1200.48 Q117.566 1200.48 115.737 1204.05 Q113.932 1207.59 113.932 1214.72 Q113.932 1221.83 115.737 1225.39 Q117.566 1228.93 121.177 1228.93 Q124.811 1228.93 126.617 1225.39 Q128.445 1221.83 128.445 1214.72 Q128.445 1207.59 126.617 1204.05 Q124.811 1200.48 121.177 1200.48 M121.177 1196.78 Q126.987 1196.78 130.043 1201.39 Q133.121 1205.97 133.121 1214.72 Q133.121 1223.45 130.043 1228.05 Q126.987 1232.64 121.177 1232.64 Q115.367 1232.64 112.288 1228.05 Q109.233 1223.45 109.233 1214.72 Q109.233 1205.97 112.288 1201.39 Q115.367 1196.78 121.177 1196.78 Z" fill="#000000" fill-rule="nonzero" fill-opacity="1" /><path clip-path="url(#clip840)" d="M52.6588 985.666 L60.2976 985.666 L60.2976 959.301 L51.9875 960.967 L51.9875 956.708 L60.2513 955.042 L64.9272 955.042 L64.9272 985.666 L72.5661 985.666 L72.5661 989.602 L52.6588 989.602 L52.6588 985.666 Z" fill="#000000" fill-rule="nonzero" fill-opacity="1" /><path clip-path="url(#clip840)" d="M92.0104 958.12 Q88.3993 958.12 86.5706 961.685 Q84.7651 965.227 84.7651 972.356 Q84.7651 979.463 86.5706 983.027 Q88.3993 986.569 92.0104 986.569 Q95.6447 986.569 97.4502 983.027 Q99.2789 979.463 99.2789 972.356 Q99.2789 965.227 97.4502 961.685 Q95.6447 958.12 92.0104 958.12 M92.0104 954.417 Q97.8206 954.417 100.876 959.023 Q103.955 963.606 103.955 972.356 Q103.955 981.083 100.876 985.689 Q97.8206 990.273 92.0104 990.273 Q86.2003 990.273 83.1216 985.689 Q80.066 981.083 80.066 972.356 Q80.066 963.606 83.1216 959.023 Q86.2003 954.417 92.0104 954.417 Z" fill="#000000" fill-rule="nonzero" fill-opacity="1" /><path clip-path="url(#clip840)" d="M112.219 955.042 L130.575 955.042 L130.575 958.977 L116.501 958.977 L116.501 967.449 Q117.52 967.102 118.538 966.94 Q119.557 966.754 120.575 966.754 Q126.362 966.754 129.742 969.926 Q133.121 973.097 133.121 978.514 Q133.121 984.092 129.649 987.194 Q126.177 990.273 119.857 990.273 Q117.682 990.273 115.413 989.902 Q113.168 989.532 110.76 988.791 L110.76 984.092 Q112.844 985.227 115.066 985.782 Q117.288 986.338 119.765 986.338 Q123.77 986.338 126.107 984.231 Q128.445 982.125 128.445 978.514 Q128.445 974.903 126.107 972.796 Q123.77 970.69 119.765 970.69 Q117.89 970.69 116.015 971.106 Q114.163 971.523 112.219 972.403 L112.219 955.042 Z" fill="#000000" fill-rule="nonzero" fill-opacity="1" /><path clip-path="url(#clip840)" d="M51.6634 743.303 L59.3023 743.303 L59.3023 716.938 L50.9921 718.604 L50.9921 714.345 L59.256 712.678 L63.9319 712.678 L63.9319 743.303 L71.5707 743.303 L71.5707 747.238 L51.6634 747.238 L51.6634 743.303 Z" fill="#000000" fill-rule="nonzero" fill-opacity="1" /><path clip-path="url(#clip840)" d="M81.8253 743.303 L89.4641 743.303 L89.4641 716.938 L81.154 718.604 L81.154 714.345 L89.4178 712.678 L94.0937 712.678 L94.0937 743.303 L101.733 743.303 L101.733 747.238 L81.8253 747.238 L81.8253 743.303 Z" fill="#000000" fill-rule="nonzero" fill-opacity="1" /><path clip-path="url(#clip840)" d="M121.177 715.757 Q117.566 715.757 115.737 719.322 Q113.932 722.864 113.932 729.993 Q113.932 737.1 115.737 740.664 Q117.566 744.206 121.177 744.206 Q124.811 744.206 126.617 740.664 Q128.445 737.1 128.445 729.993 Q128.445 722.864 126.617 719.322 Q124.811 715.757 121.177 715.757 M121.177 712.053 Q126.987 712.053 130.043 716.66 Q133.121 721.243 133.121 729.993 Q133.121 738.72 130.043 743.326 Q126.987 747.91 121.177 747.91 Q115.367 747.91 112.288 743.326 Q109.233 738.72 109.233 729.993 Q109.233 721.243 112.288 716.66 Q115.367 712.053 121.177 712.053 Z" fill="#000000" fill-rule="nonzero" fill-opacity="1" /><path clip-path="url(#clip840)" d="M52.6588 500.94 L60.2976 500.94 L60.2976 474.575 L51.9875 476.241 L51.9875 471.982 L60.2513 470.315 L64.9272 470.315 L64.9272 500.94 L72.5661 500.94 L72.5661 504.875 L52.6588 504.875 L52.6588 500.94 Z" fill="#000000" fill-rule="nonzero" fill-opacity="1" /><path clip-path="url(#clip840)" d="M82.8207 500.94 L90.4595 500.94 L90.4595 474.575 L82.1494 476.241 L82.1494 471.982 L90.4132 470.315 L95.0891 470.315 L95.0891 500.94 L102.728 500.94 L102.728 504.875 L82.8207 504.875 L82.8207 500.94 Z" fill="#000000" fill-rule="nonzero" fill-opacity="1" /><path clip-path="url(#clip840)" d="M112.219 470.315 L130.575 470.315 L130.575 474.251 L116.501 474.251 L116.501 482.723 Q117.52 482.376 118.538 482.213 Q119.557 482.028 120.575 482.028 Q126.362 482.028 129.742 485.2 Q133.121 488.371 133.121 493.787 Q133.121 499.366 129.649 502.468 Q126.177 505.547 119.857 505.547 Q117.682 505.547 115.413 505.176 Q113.168 504.806 110.76 504.065 L110.76 499.366 Q112.844 500.5 115.066 501.056 Q117.288 501.612 119.765 501.612 Q123.77 501.612 126.107 499.505 Q128.445 497.399 128.445 493.787 Q128.445 490.176 126.107 488.07 Q123.77 485.963 119.765 485.963 Q117.89 485.963 116.015 486.38 Q114.163 486.797 112.219 487.676 L112.219 470.315 Z" fill="#000000" fill-rule="nonzero" fill-opacity="1" /><path clip-path="url(#clip840)" d="M51.6634 258.577 L59.3023 258.577 L59.3023 232.212 L50.9921 233.878 L50.9921 229.619 L59.256 227.952 L63.9319 227.952 L63.9319 258.577 L71.5707 258.577 L71.5707 262.512 L51.6634 262.512 L51.6634 258.577 Z" fill="#000000" fill-rule="nonzero" fill-opacity="1" /><path clip-path="url(#clip840)" d="M85.0429 258.577 L101.362 258.577 L101.362 262.512 L79.4179 262.512 L79.4179 258.577 Q82.0799 255.823 86.6632 251.193 Q91.2697 246.54 92.4502 245.198 Q94.6956 242.674 95.5752 240.938 Q96.478 239.179 96.478 237.489 Q96.478 234.735 94.5336 232.999 Q92.6123 231.263 89.5104 231.263 Q87.3114 231.263 84.8577 232.026 Q82.4271 232.79 79.6494 234.341 L79.6494 229.619 Q82.4734 228.485 84.9271 227.906 Q87.3808 227.327 89.4178 227.327 Q94.7882 227.327 97.9826 230.013 Q101.177 232.698 101.177 237.188 Q101.177 239.318 100.367 241.239 Q99.5798 243.137 97.4734 245.73 Q96.8947 246.401 93.7928 249.619 Q90.691 252.813 85.0429 258.577 Z" fill="#000000" fill-rule="nonzero" fill-opacity="1" /><path clip-path="url(#clip840)" d="M121.177 231.031 Q117.566 231.031 115.737 234.596 Q113.932 238.137 113.932 245.267 Q113.932 252.374 115.737 255.938 Q117.566 259.48 121.177 259.48 Q124.811 259.48 126.617 255.938 Q128.445 252.374 128.445 245.267 Q128.445 238.137 126.617 234.596 Q124.811 231.031 121.177 231.031 M121.177 227.327 Q126.987 227.327 130.043 231.934 Q133.121 236.517 133.121 245.267 Q133.121 253.994 130.043 258.6 Q126.987 263.184 121.177 263.184 Q115.367 263.184 112.288 258.6 Q109.233 253.994 109.233 245.267 Q109.233 236.517 112.288 231.934 Q115.367 227.327 121.177 227.327 Z" fill="#000000" fill-rule="nonzero" fill-opacity="1" /><path clip-path="url(#clip841)" d="M402.592 1445.72 L316.757 1445.72 L488.426 1445.72 L402.592 1445.72 L402.592 1201.15 L402.592 1445.72  Z" fill="#ff0000" fill-rule="evenodd" fill-opacity="1"/>
<polyline clip-path="url(#clip841)" style="stroke:#000000; stroke-linecap:round; stroke-linejoin:round; stroke-width:4; stroke-opacity:1; fill:none" points="402.592,1445.72 316.757,1445.72 488.426,1445.72 402.592,1445.72 402.592,1201.15 402.592,1445.72 "/>
<path clip-path="url(#clip841)" d="M574.261 1201.15 L574.261 1056.9 L230.922 1056.9 L230.922 1201.15 L574.261 1201.15 L574.261 1056.9 L574.261 1201.15  Z" fill="#ff0000" fill-rule="evenodd" fill-opacity="1"/>
<polyline clip-path="url(#clip841)" style="stroke:#000000; stroke-linecap:round; stroke-linejoin:round; stroke-width:4; stroke-opacity:1; fill:none" points="574.261,1201.15 574.261,1056.9 230.922,1056.9 230.922,1201.15 574.261,1201.15 574.261,1056.9 574.261,1201.15 "/>
<path clip-path="url(#clip841)" d="M574.261 874.316 L230.922 874.316 L230.922 1056.9 L574.261 1056.9 L574.261 874.316 L402.592 874.316 L574.261 874.316  Z" fill="#ff0000" fill-rule="evenodd" fill-opacity="1"/>
<polyline clip-path="url(#clip841)" style="stroke:#000000; stroke-linecap:round; stroke-linejoin:round; stroke-width:4; stroke-opacity:1; fill:none" points="574.261,874.316 230.922,874.316 230.922,1056.9 574.261,1056.9 574.261,874.316 402.592,874.316 574.261,874.316 "/>
<path clip-path="url(#clip841)" d="M402.592 412.118 L316.757 412.118 L488.426 412.118 L402.592 412.118 L402.592 874.316 L402.592 412.118  Z" fill="#ff0000" fill-rule="evenodd" fill-opacity="1"/>
<polyline clip-path="url(#clip841)" style="stroke:#000000; stroke-linecap:round; stroke-linejoin:round; stroke-width:4; stroke-opacity:1; fill:none" points="402.592,412.118 316.757,412.118 488.426,412.118 402.592,412.118 402.592,874.316 402.592,412.118 "/>
<path clip-path="url(#clip841)" d="M831.765 1243.54 L745.93 1243.54 L917.6 1243.54 L831.765 1243.54 L831.765 1142.17 L831.765 1243.54  Z" fill="#ff0000" fill-rule="evenodd" fill-opacity="1"/>
<polyline clip-path="url(#clip841)" style="stroke:#000000; stroke-linecap:round; stroke-linejoin:round; stroke-width:4; stroke-opacity:1; fill:none" points="831.765,1243.54 745.93,1243.54 917.6,1243.54 831.765,1243.54 831.765,1142.17 831.765,1243.54 "/>
<path clip-path="url(#clip841)" d="M1003.43 1142.17 L1003.43 1078.47 L660.096 1078.47 L660.096 1142.17 L1003.43 1142.17 L1003.43 1078.47 L1003.43 1142.17  Z" fill="#ff0000" fill-rule="evenodd" fill-opacity="1"/>
<polyline clip-path="url(#clip841)" style="stroke:#000000; stroke-linecap:round; stroke-linejoin:round; stroke-width:4; stroke-opacity:1; fill:none" points="1003.43,1142.17 1003.43,1078.47 660.096,1078.47 660.096,1142.17 1003.43,1142.17 1003.43,1078.47 1003.43,1142.17 "/>
<path clip-path="url(#clip841)" d="M1003.43 1005.66 L660.096 1005.66 L660.096 1078.47 L1003.43 1078.47 L1003.43 1005.66 L831.765 1005.66 L1003.43 1005.66  Z" fill="#ff0000" fill-rule="evenodd" fill-opacity="1"/>
<polyline clip-path="url(#clip841)" style="stroke:#000000; stroke-linecap:round; stroke-linejoin:round; stroke-width:4; stroke-opacity:1; fill:none" points="1003.43,1005.66 660.096,1005.66 660.096,1078.47 1003.43,1078.47 1003.43,1005.66 831.765,1005.66 1003.43,1005.66 "/>
<path clip-path="url(#clip841)" d="M831.765 802.114 L745.93 802.114 L917.6 802.114 L831.765 802.114 L831.765 1005.66 L831.765 802.114  Z" fill="#ff0000" fill-rule="evenodd" fill-opacity="1"/>
<polyline clip-path="url(#clip841)" style="stroke:#000000; stroke-linecap:round; stroke-linejoin:round; stroke-width:4; stroke-opacity:1; fill:none" points="831.765,802.114 745.93,802.114 917.6,802.114 831.765,802.114 831.765,1005.66 831.765,802.114 "/>
<path clip-path="url(#clip841)" d="M1260.94 1227.12 L1175.1 1227.12 L1346.77 1227.12 L1260.94 1227.12 L1260.94 1154.77 L1260.94 1227.12  Z" fill="#ff0000" fill-rule="evenodd" fill-opacity="1"/>
<polyline clip-path="url(#clip841)" style="stroke:#000000; stroke-linecap:round; stroke-linejoin:round; stroke-width:4; stroke-opacity:1; fill:none" points="1260.94,1227.12 1175.1,1227.12 1346.77,1227.12 1260.94,1227.12 1260.94,1154.77 1260.94,1227.12 "/>
<path clip-path="url(#clip841)" d="M1432.61 1154.77 L1432.61 1114.44 L1089.27 1114.44 L1089.27 1154.77 L1432.61 1154.77 L1432.61 1114.44 L1432.61 1154.77  Z" fill="#ff0000" fill-rule="evenodd" fill-opacity="1"/>
<polyline clip-path="url(#clip841)" style="stroke:#000000; stroke-linecap:round; stroke-linejoin:round; stroke-width:4; stroke-opacity:1; fill:none" points="1432.61,1154.77 1432.61,1114.44 1089.27,1114.44 1089.27,1154.77 1432.61,1154.77 1432.61,1114.44 1432.61,1154.77 "/>
<path clip-path="url(#clip841)" d="M1432.61 1058.66 L1089.27 1058.66 L1089.27 1114.44 L1432.61 1114.44 L1432.61 1058.66 L1260.94 1058.66 L1432.61 1058.66  Z" fill="#ff0000" fill-rule="evenodd" fill-opacity="1"/>
<polyline clip-path="url(#clip841)" style="stroke:#000000; stroke-linecap:round; stroke-linejoin:round; stroke-width:4; stroke-opacity:1; fill:none" points="1432.61,1058.66 1089.27,1058.66 1089.27,1114.44 1432.61,1114.44 1432.61,1058.66 1260.94,1058.66 1432.61,1058.66 "/>
<path clip-path="url(#clip841)" d="M1260.94 924.425 L1175.1 924.425 L1346.77 924.425 L1260.94 924.425 L1260.94 1058.66 L1260.94 924.425  Z" fill="#ff0000" fill-rule="evenodd" fill-opacity="1"/>
<polyline clip-path="url(#clip841)" style="stroke:#000000; stroke-linecap:round; stroke-linejoin:round; stroke-width:4; stroke-opacity:1; fill:none" points="1260.94,924.425 1175.1,924.425 1346.77,924.425 1260.94,924.425 1260.94,1058.66 1260.94,924.425 "/>
<path clip-path="url(#clip841)" d="M1690.11 1220.93 L1604.28 1220.93 L1775.95 1220.93 L1690.11 1220.93 L1690.11 1167.06 L1690.11 1220.93  Z" fill="#ff0000" fill-rule="evenodd" fill-opacity="1"/>
<polyline clip-path="url(#clip841)" style="stroke:#000000; stroke-linecap:round; stroke-linejoin:round; stroke-width:4; stroke-opacity:1; fill:none" points="1690.11,1220.93 1604.28,1220.93 1775.95,1220.93 1690.11,1220.93 1690.11,1167.06 1690.11,1220.93 "/>
<path clip-path="url(#clip841)" d="M1861.78 1167.06 L1861.78 1137.54 L1518.44 1137.54 L1518.44 1167.06 L1861.78 1167.06 L1861.78 1137.54 L1861.78 1167.06  Z" fill="#ff0000" fill-rule="evenodd" fill-opacity="1"/>
<polyline clip-path="url(#clip841)" style="stroke:#000000; stroke-linecap:round; stroke-linejoin:round; stroke-width:4; stroke-opacity:1; fill:none" points="1861.78,1167.06 1861.78,1137.54 1518.44,1137.54 1518.44,1167.06 1861.78,1167.06 1861.78,1137.54 1861.78,1167.06 "/>
<path clip-path="url(#clip841)" d="M1861.78 1104.87 L1518.44 1104.87 L1518.44 1137.54 L1861.78 1137.54 L1861.78 1104.87 L1690.11 1104.87 L1861.78 1104.87  Z" fill="#ff0000" fill-rule="evenodd" fill-opacity="1"/>
<polyline clip-path="url(#clip841)" style="stroke:#000000; stroke-linecap:round; stroke-linejoin:round; stroke-width:4; stroke-opacity:1; fill:none" points="1861.78,1104.87 1518.44,1104.87 1518.44,1137.54 1861.78,1137.54 1861.78,1104.87 1690.11,1104.87 1861.78,1104.87 "/>
<path clip-path="url(#clip841)" d="M1690.11 1012.79 L1604.28 1012.79 L1775.95 1012.79 L1690.11 1012.79 L1690.11 1104.87 L1690.11 1012.79  Z" fill="#ff0000" fill-rule="evenodd" fill-opacity="1"/>
<polyline clip-path="url(#clip841)" style="stroke:#000000; stroke-linecap:round; stroke-linejoin:round; stroke-width:4; stroke-opacity:1; fill:none" points="1690.11,1012.79 1604.28,1012.79 1775.95,1012.79 1690.11,1012.79 1690.11,1104.87 1690.11,1012.79 "/>
<path clip-path="url(#clip841)" d="M2119.29 1217.12 L2033.45 1217.12 L2205.12 1217.12 L2119.29 1217.12 L2119.29 1184.74 L2119.29 1217.12  Z" fill="#ff0000" fill-rule="evenodd" fill-opacity="1"/>
<polyline clip-path="url(#clip841)" style="stroke:#000000; stroke-linecap:round; stroke-linejoin:round; stroke-width:4; stroke-opacity:1; fill:none" points="2119.29,1217.12 2033.45,1217.12 2205.12,1217.12 2119.29,1217.12 2119.29,1184.74 2119.29,1217.12 "/>
<path clip-path="url(#clip841)" d="M2290.95 1184.74 L2290.95 1164.81 L1947.62 1164.81 L1947.62 1184.74 L2290.95 1184.74 L2290.95 1164.81 L2290.95 1184.74  Z" fill="#ff0000" fill-rule="evenodd" fill-opacity="1"/>
<polyline clip-path="url(#clip841)" style="stroke:#000000; stroke-linecap:round; stroke-linejoin:round; stroke-width:4; stroke-opacity:1; fill:none" points="2290.95,1184.74 2290.95,1164.81 1947.62,1164.81 1947.62,1184.74 2290.95,1184.74 2290.95,1164.81 2290.95,1184.74 "/>
<path clip-path="url(#clip841)" d="M2290.95 1142.28 L1947.62 1142.28 L1947.62 1164.81 L2290.95 1164.81 L2290.95 1142.28 L2119.29 1142.28 L2290.95 1142.28  Z" fill="#ff0000" fill-rule="evenodd" fill-opacity="1"/>
<polyline clip-path="url(#clip841)" style="stroke:#000000; stroke-linecap:round; stroke-linejoin:round; stroke-width:4; stroke-opacity:1; fill:none" points="2290.95,1142.28 1947.62,1142.28 1947.62,1164.81 2290.95,1164.81 2290.95,1142.28 2119.29,1142.28 2290.95,1142.28 "/>
<path clip-path="url(#clip841)" d="M2119.29 1082.15 L2033.45 1082.15 L2205.12 1082.15 L2119.29 1082.15 L2119.29 1142.28 L2119.29 1082.15  Z" fill="#ff0000" fill-rule="evenodd" fill-opacity="1"/>
<polyline clip-path="url(#clip841)" style="stroke:#000000; stroke-linecap:round; stroke-linejoin:round; stroke-width:4; stroke-opacity:1; fill:none" points="2119.29,1082.15 2033.45,1082.15 2205.12,1082.15 2119.29,1082.15 2119.29,1142.28 2119.29,1082.15 "/>
<circle clip-path="url(#clip841)" cx="402.592" cy="148.048" r="14.4" fill="#ff0000" fill-rule="evenodd" fill-opacity="1" stroke="#000000" stroke-opacity="1" stroke-width="3.2"/>
<circle clip-path="url(#clip841)" cx="402.592" cy="240.83" r="14.4" fill="#ff0000" fill-rule="evenodd" fill-opacity="1" stroke="#000000" stroke-opacity="1" stroke-width="3.2"/>
<circle clip-path="url(#clip841)" cx="402.592" cy="343.773" r="14.4" fill="#ff0000" fill-rule="evenodd" fill-opacity="1" stroke="#000000" stroke-opacity="1" stroke-width="3.2"/>
<circle clip-path="url(#clip841)" cx="402.592" cy="172.158" r="14.4" fill="#ff0000" fill-rule="evenodd" fill-opacity="1" stroke="#000000" stroke-opacity="1" stroke-width="3.2"/>
<circle clip-path="url(#clip841)" cx="402.592" cy="366.96" r="14.4" fill="#ff0000" fill-rule="evenodd" fill-opacity="1" stroke="#000000" stroke-opacity="1" stroke-width="3.2"/>
<circle clip-path="url(#clip841)" cx="402.592" cy="346.255" r="14.4" fill="#ff0000" fill-rule="evenodd" fill-opacity="1" stroke="#000000" stroke-opacity="1" stroke-width="3.2"/>
<circle clip-path="url(#clip841)" cx="402.592" cy="328.122" r="14.4" fill="#ff0000" fill-rule="evenodd" fill-opacity="1" stroke="#000000" stroke-opacity="1" stroke-width="3.2"/>
<circle clip-path="url(#clip841)" cx="402.592" cy="382.725" r="14.4" fill="#ff0000" fill-rule="evenodd" fill-opacity="1" stroke="#000000" stroke-opacity="1" stroke-width="3.2"/>
<circle clip-path="url(#clip841)" cx="402.592" cy="382.85" r="14.4" fill="#ff0000" fill-rule="evenodd" fill-opacity="1" stroke="#000000" stroke-opacity="1" stroke-width="3.2"/>
<circle clip-path="url(#clip841)" cx="402.592" cy="168.169" r="14.4" fill="#ff0000" fill-rule="evenodd" fill-opacity="1" stroke="#000000" stroke-opacity="1" stroke-width="3.2"/>
<circle clip-path="url(#clip841)" cx="402.592" cy="365.562" r="14.4" fill="#ff0000" fill-rule="evenodd" fill-opacity="1" stroke="#000000" stroke-opacity="1" stroke-width="3.2"/>
<circle clip-path="url(#clip841)" cx="402.592" cy="231.062" r="14.4" fill="#ff0000" fill-rule="evenodd" fill-opacity="1" stroke="#000000" stroke-opacity="1" stroke-width="3.2"/>
<circle clip-path="url(#clip841)" cx="402.592" cy="87.9763" r="14.4" fill="#ff0000" fill-rule="evenodd" fill-opacity="1" stroke="#000000" stroke-opacity="1" stroke-width="3.2"/>
<circle clip-path="url(#clip841)" cx="402.592" cy="332.776" r="14.4" fill="#ff0000" fill-rule="evenodd" fill-opacity="1" stroke="#000000" stroke-opacity="1" stroke-width="3.2"/>
<circle clip-path="url(#clip841)" cx="402.592" cy="316.889" r="14.4" fill="#ff0000" fill-rule="evenodd" fill-opacity="1" stroke="#000000" stroke-opacity="1" stroke-width="3.2"/>
<circle clip-path="url(#clip841)" cx="402.592" cy="345.879" r="14.4" fill="#ff0000" fill-rule="evenodd" fill-opacity="1" stroke="#000000" stroke-opacity="1" stroke-width="3.2"/>
<circle clip-path="url(#clip841)" cx="402.592" cy="356.368" r="14.4" fill="#ff0000" fill-rule="evenodd" fill-opacity="1" stroke="#000000" stroke-opacity="1" stroke-width="3.2"/>
<circle clip-path="url(#clip841)" cx="402.592" cy="173.843" r="14.4" fill="#ff0000" fill-rule="evenodd" fill-opacity="1" stroke="#000000" stroke-opacity="1" stroke-width="3.2"/>
<circle clip-path="url(#clip841)" cx="831.765" cy="662.507" r="14.4" fill="#ff0000" fill-rule="evenodd" fill-opacity="1" stroke="#000000" stroke-opacity="1" stroke-width="3.2"/>
<circle clip-path="url(#clip841)" cx="831.765" cy="752.994" r="14.4" fill="#ff0000" fill-rule="evenodd" fill-opacity="1" stroke="#000000" stroke-opacity="1" stroke-width="3.2"/>
<circle clip-path="url(#clip841)" cx="831.765" cy="673.027" r="14.4" fill="#ff0000" fill-rule="evenodd" fill-opacity="1" stroke="#000000" stroke-opacity="1" stroke-width="3.2"/>
<circle clip-path="url(#clip841)" cx="831.765" cy="735.198" r="14.4" fill="#ff0000" fill-rule="evenodd" fill-opacity="1" stroke="#000000" stroke-opacity="1" stroke-width="3.2"/>
<circle clip-path="url(#clip841)" cx="831.765" cy="779.06" r="14.4" fill="#ff0000" fill-rule="evenodd" fill-opacity="1" stroke="#000000" stroke-opacity="1" stroke-width="3.2"/>
<circle clip-path="url(#clip841)" cx="831.765" cy="748.696" r="14.4" fill="#ff0000" fill-rule="evenodd" fill-opacity="1" stroke="#000000" stroke-opacity="1" stroke-width="3.2"/>
<circle clip-path="url(#clip841)" cx="831.765" cy="754.557" r="14.4" fill="#ff0000" fill-rule="evenodd" fill-opacity="1" stroke="#000000" stroke-opacity="1" stroke-width="3.2"/>
<circle clip-path="url(#clip841)" cx="831.765" cy="789.355" r="14.4" fill="#ff0000" fill-rule="evenodd" fill-opacity="1" stroke="#000000" stroke-opacity="1" stroke-width="3.2"/>
<circle clip-path="url(#clip841)" cx="831.765" cy="795.057" r="14.4" fill="#ff0000" fill-rule="evenodd" fill-opacity="1" stroke="#000000" stroke-opacity="1" stroke-width="3.2"/>
<circle clip-path="url(#clip841)" cx="831.765" cy="798.247" r="14.4" fill="#ff0000" fill-rule="evenodd" fill-opacity="1" stroke="#000000" stroke-opacity="1" stroke-width="3.2"/>
<circle clip-path="url(#clip841)" cx="1260.94" cy="880.369" r="14.4" fill="#ff0000" fill-rule="evenodd" fill-opacity="1" stroke="#000000" stroke-opacity="1" stroke-width="3.2"/>
<circle clip-path="url(#clip841)" cx="1260.94" cy="887.768" r="14.4" fill="#ff0000" fill-rule="evenodd" fill-opacity="1" stroke="#000000" stroke-opacity="1" stroke-width="3.2"/>
<circle clip-path="url(#clip841)" cx="1260.94" cy="911.472" r="14.4" fill="#ff0000" fill-rule="evenodd" fill-opacity="1" stroke="#000000" stroke-opacity="1" stroke-width="3.2"/>
<circle clip-path="url(#clip841)" cx="1260.94" cy="886.234" r="14.4" fill="#ff0000" fill-rule="evenodd" fill-opacity="1" stroke="#000000" stroke-opacity="1" stroke-width="3.2"/>
<circle clip-path="url(#clip841)" cx="1260.94" cy="885.34" r="14.4" fill="#ff0000" fill-rule="evenodd" fill-opacity="1" stroke="#000000" stroke-opacity="1" stroke-width="3.2"/>
<circle clip-path="url(#clip841)" cx="1260.94" cy="867.485" r="14.4" fill="#ff0000" fill-rule="evenodd" fill-opacity="1" stroke="#000000" stroke-opacity="1" stroke-width="3.2"/>
<circle clip-path="url(#clip841)" cx="1260.94" cy="871.901" r="14.4" fill="#ff0000" fill-rule="evenodd" fill-opacity="1" stroke="#000000" stroke-opacity="1" stroke-width="3.2"/>
<circle clip-path="url(#clip841)" cx="1690.11" cy="972.911" r="14.4" fill="#ff0000" fill-rule="evenodd" fill-opacity="1" stroke="#000000" stroke-opacity="1" stroke-width="3.2"/>
<circle clip-path="url(#clip841)" cx="1690.11" cy="1010.63" r="14.4" fill="#ff0000" fill-rule="evenodd" fill-opacity="1" stroke="#000000" stroke-opacity="1" stroke-width="3.2"/>
<circle clip-path="url(#clip841)" cx="1690.11" cy="986.734" r="14.4" fill="#ff0000" fill-rule="evenodd" fill-opacity="1" stroke="#000000" stroke-opacity="1" stroke-width="3.2"/>
<circle clip-path="url(#clip841)" cx="1690.11" cy="1003.15" r="14.4" fill="#ff0000" fill-rule="evenodd" fill-opacity="1" stroke="#000000" stroke-opacity="1" stroke-width="3.2"/>
<circle clip-path="url(#clip841)" cx="1690.11" cy="1002.69" r="14.4" fill="#ff0000" fill-rule="evenodd" fill-opacity="1" stroke="#000000" stroke-opacity="1" stroke-width="3.2"/>
<circle clip-path="url(#clip841)" cx="1690.11" cy="1007.21" r="14.4" fill="#ff0000" fill-rule="evenodd" fill-opacity="1" stroke="#000000" stroke-opacity="1" stroke-width="3.2"/>
<circle clip-path="url(#clip841)" cx="1690.11" cy="989.353" r="14.4" fill="#ff0000" fill-rule="evenodd" fill-opacity="1" stroke="#000000" stroke-opacity="1" stroke-width="3.2"/>
<circle clip-path="url(#clip841)" cx="1690.11" cy="974.117" r="14.4" fill="#ff0000" fill-rule="evenodd" fill-opacity="1" stroke="#000000" stroke-opacity="1" stroke-width="3.2"/>
<circle clip-path="url(#clip841)" cx="1690.11" cy="1001.92" r="14.4" fill="#ff0000" fill-rule="evenodd" fill-opacity="1" stroke="#000000" stroke-opacity="1" stroke-width="3.2"/>
<circle clip-path="url(#clip841)" cx="1690.11" cy="991.143" r="14.4" fill="#ff0000" fill-rule="evenodd" fill-opacity="1" stroke="#000000" stroke-opacity="1" stroke-width="3.2"/>
<circle clip-path="url(#clip841)" cx="1690.11" cy="1007.54" r="14.4" fill="#ff0000" fill-rule="evenodd" fill-opacity="1" stroke="#000000" stroke-opacity="1" stroke-width="3.2"/>
<circle clip-path="url(#clip841)" cx="1690.11" cy="955.583" r="14.4" fill="#ff0000" fill-rule="evenodd" fill-opacity="1" stroke="#000000" stroke-opacity="1" stroke-width="3.2"/>
<circle clip-path="url(#clip841)" cx="1690.11" cy="995.385" r="14.4" fill="#ff0000" fill-rule="evenodd" fill-opacity="1" stroke="#000000" stroke-opacity="1" stroke-width="3.2"/>
<circle clip-path="url(#clip841)" cx="1690.11" cy="1003.94" r="14.4" fill="#ff0000" fill-rule="evenodd" fill-opacity="1" stroke="#000000" stroke-opacity="1" stroke-width="3.2"/>
<circle clip-path="url(#clip841)" cx="1690.11" cy="1007" r="14.4" fill="#ff0000" fill-rule="evenodd" fill-opacity="1" stroke="#000000" stroke-opacity="1" stroke-width="3.2"/>
<circle clip-path="url(#clip841)" cx="2119.29" cy="1078.39" r="14.4" fill="#ff0000" fill-rule="evenodd" fill-opacity="1" stroke="#000000" stroke-opacity="1" stroke-width="3.2"/>
<circle clip-path="url(#clip841)" cx="2119.29" cy="1076.79" r="14.4" fill="#ff0000" fill-rule="evenodd" fill-opacity="1" stroke="#000000" stroke-opacity="1" stroke-width="3.2"/>
<circle clip-path="url(#clip841)" cx="2119.29" cy="1074.37" r="14.4" fill="#ff0000" fill-rule="evenodd" fill-opacity="1" stroke="#000000" stroke-opacity="1" stroke-width="3.2"/>
<circle clip-path="url(#clip841)" cx="2119.29" cy="1077.63" r="14.4" fill="#ff0000" fill-rule="evenodd" fill-opacity="1" stroke="#000000" stroke-opacity="1" stroke-width="3.2"/>
<polyline clip-path="url(#clip841)" style="stroke:#ff0000; stroke-linecap:round; stroke-linejoin:round; stroke-width:0; stroke-opacity:1; fill:none" points="402.592,1445.72 316.757,1445.72 488.426,1445.72 402.592,1445.72 402.592,1201.15 "/>
<polyline clip-path="url(#clip841)" style="stroke:#ff0000; stroke-linecap:round; stroke-linejoin:round; stroke-width:0; stroke-opacity:1; fill:none" points="574.261,1201.15 574.261,1056.9 230.922,1056.9 230.922,1201.15 574.261,1201.15 574.261,1056.9 "/>
<polyline clip-path="url(#clip841)" style="stroke:#ff0000; stroke-linecap:round; stroke-linejoin:round; stroke-width:0; stroke-opacity:1; fill:none" points="574.261,874.316 230.922,874.316 230.922,1056.9 574.261,1056.9 574.261,874.316 402.592,874.316 "/>
<polyline clip-path="url(#clip841)" style="stroke:#ff0000; stroke-linecap:round; stroke-linejoin:round; stroke-width:0; stroke-opacity:1; fill:none" points="402.592,412.118 316.757,412.118 488.426,412.118 402.592,412.118 402.592,874.316 "/>
<polyline clip-path="url(#clip841)" style="stroke:#ff0000; stroke-linecap:round; stroke-linejoin:round; stroke-width:0; stroke-opacity:1; fill:none" points="831.765,1243.54 745.93,1243.54 917.6,1243.54 831.765,1243.54 831.765,1142.17 "/>
<polyline clip-path="url(#clip841)" style="stroke:#ff0000; stroke-linecap:round; stroke-linejoin:round; stroke-width:0; stroke-opacity:1; fill:none" points="1003.43,1142.17 1003.43,1078.47 660.096,1078.47 660.096,1142.17 1003.43,1142.17 1003.43,1078.47 "/>
<polyline clip-path="url(#clip841)" style="stroke:#ff0000; stroke-linecap:round; stroke-linejoin:round; stroke-width:0; stroke-opacity:1; fill:none" points="1003.43,1005.66 660.096,1005.66 660.096,1078.47 1003.43,1078.47 1003.43,1005.66 831.765,1005.66 "/>
<polyline clip-path="url(#clip841)" style="stroke:#ff0000; stroke-linecap:round; stroke-linejoin:round; stroke-width:0; stroke-opacity:1; fill:none" points="831.765,802.114 745.93,802.114 917.6,802.114 831.765,802.114 831.765,1005.66 "/>
<polyline clip-path="url(#clip841)" style="stroke:#ff0000; stroke-linecap:round; stroke-linejoin:round; stroke-width:0; stroke-opacity:1; fill:none" points="1260.94,1227.12 1175.1,1227.12 1346.77,1227.12 1260.94,1227.12 1260.94,1154.77 "/>
<polyline clip-path="url(#clip841)" style="stroke:#ff0000; stroke-linecap:round; stroke-linejoin:round; stroke-width:0; stroke-opacity:1; fill:none" points="1432.61,1154.77 1432.61,1114.44 1089.27,1114.44 1089.27,1154.77 1432.61,1154.77 1432.61,1114.44 "/>
<polyline clip-path="url(#clip841)" style="stroke:#ff0000; stroke-linecap:round; stroke-linejoin:round; stroke-width:0; stroke-opacity:1; fill:none" points="1432.61,1058.66 1089.27,1058.66 1089.27,1114.44 1432.61,1114.44 1432.61,1058.66 1260.94,1058.66 "/>
<polyline clip-path="url(#clip841)" style="stroke:#ff0000; stroke-linecap:round; stroke-linejoin:round; stroke-width:0; stroke-opacity:1; fill:none" points="1260.94,924.425 1175.1,924.425 1346.77,924.425 1260.94,924.425 1260.94,1058.66 "/>
<polyline clip-path="url(#clip841)" style="stroke:#ff0000; stroke-linecap:round; stroke-linejoin:round; stroke-width:0; stroke-opacity:1; fill:none" points="1690.11,1220.93 1604.28,1220.93 1775.95,1220.93 1690.11,1220.93 1690.11,1167.06 "/>
<polyline clip-path="url(#clip841)" style="stroke:#ff0000; stroke-linecap:round; stroke-linejoin:round; stroke-width:0; stroke-opacity:1; fill:none" points="1861.78,1167.06 1861.78,1137.54 1518.44,1137.54 1518.44,1167.06 1861.78,1167.06 1861.78,1137.54 "/>
<polyline clip-path="url(#clip841)" style="stroke:#ff0000; stroke-linecap:round; stroke-linejoin:round; stroke-width:0; stroke-opacity:1; fill:none" points="1861.78,1104.87 1518.44,1104.87 1518.44,1137.54 1861.78,1137.54 1861.78,1104.87 1690.11,1104.87 "/>
<polyline clip-path="url(#clip841)" style="stroke:#ff0000; stroke-linecap:round; stroke-linejoin:round; stroke-width:0; stroke-opacity:1; fill:none" points="1690.11,1012.79 1604.28,1012.79 1775.95,1012.79 1690.11,1012.79 1690.11,1104.87 "/>
<polyline clip-path="url(#clip841)" style="stroke:#ff0000; stroke-linecap:round; stroke-linejoin:round; stroke-width:0; stroke-opacity:1; fill:none" points="2119.29,1217.12 2033.45,1217.12 2205.12,1217.12 2119.29,1217.12 2119.29,1184.74 "/>
<polyline clip-path="url(#clip841)" style="stroke:#ff0000; stroke-linecap:round; stroke-linejoin:round; stroke-width:0; stroke-opacity:1; fill:none" points="2290.95,1184.74 2290.95,1164.81 1947.62,1164.81 1947.62,1184.74 2290.95,1184.74 2290.95,1164.81 "/>
<polyline clip-path="url(#clip841)" style="stroke:#ff0000; stroke-linecap:round; stroke-linejoin:round; stroke-width:0; stroke-opacity:1; fill:none" points="2290.95,1142.28 1947.62,1142.28 1947.62,1164.81 2290.95,1164.81 2290.95,1142.28 2119.29,1142.28 "/>
<polyline clip-path="url(#clip841)" style="stroke:#ff0000; stroke-linecap:round; stroke-linejoin:round; stroke-width:0; stroke-opacity:1; fill:none" points="2119.29,1082.15 2033.45,1082.15 2205.12,1082.15 2119.29,1082.15 2119.29,1142.28 "/>
<polyline clip-path="url(#clip841)" style="stroke:#000000; stroke-linecap:round; stroke-linejoin:round; stroke-width:4; stroke-opacity:1; fill:none" stroke-dasharray="16, 10" points="-2014.51,1214.68 4536.39,1214.68 "/>
</svg>
