<?xml version="1.0" encoding="utf-8"?>
<svg xmlns="http://www.w3.org/2000/svg" xmlns:xlink="http://www.w3.org/1999/xlink" width="600" height="400" viewBox="0 0 2400 1600">
<defs>
  <clipPath id="clip010">
    <rect x="0" y="0" width="2400" height="1600"/>
  </clipPath>
</defs>
<path clip-path="url(#clip010)" d="M0 1600 L2400 1600 L2400 0 L0 0  Z" fill="#ffffff" fill-rule="evenodd" fill-opacity="1"/>
<defs>
  <clipPath id="clip011">
    <rect x="184" y="47" width="2170" height="1440"/>
  </clipPath>
</defs>
<path clip-path="url(#clip010)" d="M184.191 1486.45 L2352.76 1486.45 L2352.76 47.2441 L184.191 47.2441  Z" fill="#ffffff" fill-rule="evenodd" fill-opacity="1"/>
<polyline clip-path="url(#clip011)" style="stroke:#000000; stroke-linecap:round; stroke-linejoin:round; stroke-width:2; stroke-opacity:0.1; fill:none" points="416.05,1486.45 416.05,47.2441 "/>
<polyline clip-path="url(#clip011)" style="stroke:#000000; stroke-linecap:round; stroke-linejoin:round; stroke-width:2; stroke-opacity:0.1; fill:none" points="842.262,1486.45 842.262,47.2441 "/>
<polyline clip-path="url(#clip011)" style="stroke:#000000; stroke-linecap:round; stroke-linejoin:round; stroke-width:2; stroke-opacity:0.1; fill:none" points="1268.47,1486.45 1268.47,47.2441 "/>
<polyline clip-path="url(#clip011)" style="stroke:#000000; stroke-linecap:round; stroke-linejoin:round; stroke-width:2; stroke-opacity:0.1; fill:none" points="1694.69,1486.45 1694.69,47.2441 "/>
<polyline clip-path="url(#clip011)" style="stroke:#000000; stroke-linecap:round; stroke-linejoin:round; stroke-width:2; stroke-opacity:0.1; fill:none" points="2120.9,1486.45 2120.9,47.2441 "/>
<polyline clip-path="url(#clip011)" style="stroke:#000000; stroke-linecap:round; stroke-linejoin:round; stroke-width:2; stroke-opacity:0.1; fill:none" points="184.191,1445.72 2352.76,1445.72 "/>
<polyline clip-path="url(#clip011)" style="stroke:#000000; stroke-linecap:round; stroke-linejoin:round; stroke-width:2; stroke-opacity:0.1; fill:none" points="184.191,1147.84 2352.76,1147.84 "/>
<polyline clip-path="url(#clip011)" style="stroke:#000000; stroke-linecap:round; stroke-linejoin:round; stroke-width:2; stroke-opacity:0.1; fill:none" points="184.191,849.97 2352.76,849.97 "/>
<polyline clip-path="url(#clip011)" style="stroke:#000000; stroke-linecap:round; stroke-linejoin:round; stroke-width:2; stroke-opacity:0.1; fill:none" points="184.191,552.098 2352.76,552.098 "/>
<polyline clip-path="url(#clip011)" style="stroke:#000000; stroke-linecap:round; stroke-linejoin:round; stroke-width:2; stroke-opacity:0.1; fill:none" points="184.191,254.225 2352.76,254.225 "/>
<polyline clip-path="url(#clip010)" style="stroke:#000000; stroke-linecap:round; stroke-linejoin:round; stroke-width:4; stroke-opacity:1; fill:none" points="184.191,1486.45 2352.76,1486.45 "/>
<polyline clip-path="url(#clip010)" style="stroke:#000000; stroke-linecap:round; stroke-linejoin:round; stroke-width:4; stroke-opacity:1; fill:none" points="416.05,1486.45 416.05,1467.55 "/>
<polyline clip-path="url(#clip010)" style="stroke:#000000; stroke-linecap:round; stroke-linejoin:round; stroke-width:4; stroke-opacity:1; fill:none" points="842.262,1486.45 842.262,1467.55 "/>
<polyline clip-path="url(#clip010)" style="stroke:#000000; stroke-linecap:round; stroke-linejoin:round; stroke-width:4; stroke-opacity:1; fill:none" points="1268.47,1486.45 1268.47,1467.55 "/>
<polyline clip-path="url(#clip010)" style="stroke:#000000; stroke-linecap:round; stroke-linejoin:round; stroke-width:4; stroke-opacity:1; fill:none" points="1694.69,1486.45 1694.69,1467.55 "/>
<polyline clip-path="url(#clip010)" style="stroke:#000000; stroke-linecap:round; stroke-linejoin:round; stroke-width:4; stroke-opacity:1; fill:none" points="2120.9,1486.45 2120.9,1467.55 "/>
<path clip-path="url(#clip010)" d="M390.737 1544.91 L398.376 1544.91 L398.376 1518.55 L390.066 1520.21 L390.066 1515.95 L398.33 1514.29 L403.006 1514.29 L403.006 1544.91 L410.645 1544.91 L410.645 1548.85 L390.737 1548.85 L390.737 1544.91 Z" fill="#000000" fill-rule="nonzero" fill-opacity="1" /><path clip-path="url(#clip010)" d="M430.089 1517.37 Q426.478 1517.37 424.649 1520.93 Q422.844 1524.47 422.844 1531.6 Q422.844 1538.71 424.649 1542.27 Q426.478 1545.82 430.089 1545.82 Q433.723 1545.82 435.529 1542.27 Q437.358 1538.71 437.358 1531.6 Q437.358 1524.47 435.529 1520.93 Q433.723 1517.37 430.089 1517.37 M430.089 1513.66 Q435.899 1513.66 438.955 1518.27 Q442.034 1522.85 442.034 1531.6 Q442.034 1540.33 438.955 1544.94 Q435.899 1549.52 430.089 1549.52 Q424.279 1549.52 421.2 1544.94 Q418.145 1540.33 418.145 1531.6 Q418.145 1522.85 421.2 1518.27 Q424.279 1513.66 430.089 1513.66 Z" fill="#000000" fill-rule="nonzero" fill-opacity="1" /><path clip-path="url(#clip010)" d="M816.961 1514.29 L835.317 1514.29 L835.317 1518.22 L821.243 1518.22 L821.243 1526.7 Q822.262 1526.35 823.28 1526.19 Q824.299 1526 825.317 1526 Q831.104 1526 834.484 1529.17 Q837.863 1532.34 837.863 1537.76 Q837.863 1543.34 834.391 1546.44 Q830.919 1549.52 824.6 1549.52 Q822.424 1549.52 820.155 1549.15 Q817.91 1548.78 815.502 1548.04 L815.502 1543.34 Q817.586 1544.47 819.808 1545.03 Q822.03 1545.58 824.507 1545.58 Q828.512 1545.58 830.85 1543.48 Q833.188 1541.37 833.188 1537.76 Q833.188 1534.15 830.85 1532.04 Q828.512 1529.94 824.507 1529.94 Q822.632 1529.94 820.757 1530.35 Q818.905 1530.77 816.961 1531.65 L816.961 1514.29 Z" fill="#000000" fill-rule="nonzero" fill-opacity="1" /><path clip-path="url(#clip010)" d="M857.076 1517.37 Q853.465 1517.37 851.637 1520.93 Q849.831 1524.47 849.831 1531.6 Q849.831 1538.71 851.637 1542.27 Q853.465 1545.82 857.076 1545.82 Q860.711 1545.82 862.516 1542.27 Q864.345 1538.71 864.345 1531.6 Q864.345 1524.47 862.516 1520.93 Q860.711 1517.37 857.076 1517.37 M857.076 1513.66 Q862.886 1513.66 865.942 1518.27 Q869.021 1522.85 869.021 1531.6 Q869.021 1540.33 865.942 1544.94 Q862.886 1549.52 857.076 1549.52 Q851.266 1549.52 848.187 1544.94 Q845.132 1540.33 845.132 1531.6 Q845.132 1522.85 848.187 1518.27 Q851.266 1513.66 857.076 1513.66 Z" fill="#000000" fill-rule="nonzero" fill-opacity="1" /><path clip-path="url(#clip010)" d="M1228.08 1544.91 L1235.72 1544.91 L1235.72 1518.55 L1227.41 1520.21 L1227.41 1515.95 L1235.67 1514.29 L1240.35 1514.29 L1240.35 1544.91 L1247.99 1544.91 L1247.99 1548.85 L1228.08 1548.85 L1228.08 1544.91 Z" fill="#000000" fill-rule="nonzero" fill-opacity="1" /><path clip-path="url(#clip010)" d="M1267.43 1517.37 Q1263.82 1517.37 1261.99 1520.93 Q1260.19 1524.47 1260.19 1531.6 Q1260.19 1538.71 1261.99 1542.27 Q1263.82 1545.82 1267.43 1545.82 Q1271.07 1545.82 1272.87 1542.27 Q1274.7 1538.71 1274.7 1531.6 Q1274.7 1524.47 1272.87 1520.93 Q1271.07 1517.37 1267.43 1517.37 M1267.43 1513.66 Q1273.24 1513.66 1276.3 1518.27 Q1279.38 1522.85 1279.38 1531.6 Q1279.38 1540.33 1276.3 1544.94 Q1273.24 1549.52 1267.43 1549.52 Q1261.62 1549.52 1258.54 1544.94 Q1255.49 1540.33 1255.49 1531.6 Q1255.49 1522.85 1258.54 1518.27 Q1261.62 1513.66 1267.43 1513.66 Z" fill="#000000" fill-rule="nonzero" fill-opacity="1" /><path clip-path="url(#clip010)" d="M1297.59 1517.37 Q1293.98 1517.37 1292.15 1520.93 Q1290.35 1524.47 1290.35 1531.6 Q1290.35 1538.71 1292.15 1542.27 Q1293.98 1545.82 1297.59 1545.82 Q1301.23 1545.82 1303.03 1542.27 Q1304.86 1538.71 1304.86 1531.6 Q1304.86 1524.47 1303.03 1520.93 Q1301.23 1517.37 1297.59 1517.37 M1297.59 1513.66 Q1303.4 1513.66 1306.46 1518.27 Q1309.54 1522.85 1309.54 1531.6 Q1309.54 1540.33 1306.46 1544.94 Q1303.4 1549.52 1297.59 1549.52 Q1291.78 1549.52 1288.7 1544.94 Q1285.65 1540.33 1285.65 1531.6 Q1285.65 1522.85 1288.7 1518.27 Q1291.78 1513.66 1297.59 1513.66 Z" fill="#000000" fill-rule="nonzero" fill-opacity="1" /><path clip-path="url(#clip010)" d="M1658.38 1544.91 L1674.7 1544.91 L1674.7 1548.85 L1652.75 1548.85 L1652.75 1544.91 Q1655.41 1542.16 1660 1537.53 Q1664.6 1532.88 1665.78 1531.53 Q1668.03 1529.01 1668.91 1527.27 Q1669.81 1525.51 1669.81 1523.82 Q1669.81 1521.07 1667.87 1519.33 Q1665.95 1517.6 1662.84 1517.6 Q1660.65 1517.6 1658.19 1518.36 Q1655.76 1519.13 1652.98 1520.68 L1652.98 1515.95 Q1655.81 1514.82 1658.26 1514.24 Q1660.72 1513.66 1662.75 1513.66 Q1668.12 1513.66 1671.32 1516.35 Q1674.51 1519.03 1674.51 1523.52 Q1674.51 1525.65 1673.7 1527.57 Q1672.91 1529.47 1670.81 1532.07 Q1670.23 1532.74 1667.13 1535.95 Q1664.03 1539.15 1658.38 1544.91 Z" fill="#000000" fill-rule="nonzero" fill-opacity="1" /><path clip-path="url(#clip010)" d="M1694.51 1517.37 Q1690.9 1517.37 1689.07 1520.93 Q1687.27 1524.47 1687.27 1531.6 Q1687.27 1538.71 1689.07 1542.27 Q1690.9 1545.82 1694.51 1545.82 Q1698.15 1545.82 1699.95 1542.27 Q1701.78 1538.71 1701.78 1531.6 Q1701.78 1524.47 1699.95 1520.93 Q1698.15 1517.37 1694.51 1517.37 M1694.51 1513.66 Q1700.32 1513.66 1703.38 1518.27 Q1706.46 1522.85 1706.46 1531.6 Q1706.46 1540.33 1703.38 1544.94 Q1700.32 1549.52 1694.51 1549.52 Q1688.7 1549.52 1685.62 1544.94 Q1682.57 1540.33 1682.57 1531.6 Q1682.57 1522.85 1685.62 1518.27 Q1688.7 1513.66 1694.51 1513.66 Z" fill="#000000" fill-rule="nonzero" fill-opacity="1" /><path clip-path="url(#clip010)" d="M1724.67 1517.37 Q1721.06 1517.37 1719.23 1520.93 Q1717.43 1524.47 1717.43 1531.6 Q1717.43 1538.71 1719.23 1542.27 Q1721.06 1545.82 1724.67 1545.82 Q1728.31 1545.82 1730.11 1542.27 Q1731.94 1538.71 1731.94 1531.6 Q1731.94 1524.47 1730.11 1520.93 Q1728.31 1517.37 1724.67 1517.37 M1724.67 1513.66 Q1730.48 1513.66 1733.54 1518.27 Q1736.62 1522.85 1736.62 1531.6 Q1736.62 1540.33 1733.54 1544.94 Q1730.48 1549.52 1724.67 1549.52 Q1718.86 1549.52 1715.78 1544.94 Q1712.73 1540.33 1712.73 1531.6 Q1712.73 1522.85 1715.78 1518.27 Q1718.86 1513.66 1724.67 1513.66 Z" fill="#000000" fill-rule="nonzero" fill-opacity="1" /><path clip-path="url(#clip010)" d="M2080.52 1514.29 L2098.87 1514.29 L2098.87 1518.22 L2084.8 1518.22 L2084.8 1526.7 Q2085.82 1526.35 2086.83 1526.19 Q2087.85 1526 2088.87 1526 Q2094.66 1526 2098.04 1529.17 Q2101.42 1532.34 2101.42 1537.76 Q2101.42 1543.34 2097.95 1546.44 Q2094.47 1549.52 2088.15 1549.52 Q2085.98 1549.52 2083.71 1549.15 Q2081.46 1548.78 2079.06 1548.04 L2079.06 1543.34 Q2081.14 1544.47 2083.36 1545.03 Q2085.58 1545.58 2088.06 1545.58 Q2092.07 1545.58 2094.4 1543.48 Q2096.74 1541.37 2096.74 1537.76 Q2096.74 1534.15 2094.4 1532.04 Q2092.07 1529.94 2088.06 1529.94 Q2086.19 1529.94 2084.31 1530.35 Q2082.46 1530.77 2080.52 1531.65 L2080.52 1514.29 Z" fill="#000000" fill-rule="nonzero" fill-opacity="1" /><path clip-path="url(#clip010)" d="M2120.63 1517.37 Q2117.02 1517.37 2115.19 1520.93 Q2113.39 1524.47 2113.39 1531.6 Q2113.39 1538.71 2115.19 1542.27 Q2117.02 1545.82 2120.63 1545.82 Q2124.26 1545.82 2126.07 1542.27 Q2127.9 1538.71 2127.9 1531.6 Q2127.9 1524.47 2126.07 1520.93 Q2124.26 1517.37 2120.63 1517.37 M2120.63 1513.66 Q2126.44 1513.66 2129.5 1518.27 Q2132.57 1522.85 2132.57 1531.6 Q2132.57 1540.33 2129.5 1544.94 Q2126.44 1549.52 2120.63 1549.52 Q2114.82 1549.52 2111.74 1544.94 Q2108.69 1540.33 2108.69 1531.6 Q2108.69 1522.85 2111.74 1518.27 Q2114.82 1513.66 2120.63 1513.66 Z" fill="#000000" fill-rule="nonzero" fill-opacity="1" /><path clip-path="url(#clip010)" d="M2150.79 1517.37 Q2147.18 1517.37 2145.35 1520.93 Q2143.55 1524.47 2143.55 1531.6 Q2143.55 1538.71 2145.35 1542.27 Q2147.18 1545.82 2150.79 1545.82 Q2154.43 1545.82 2156.23 1542.27 Q2158.06 1538.71 2158.06 1531.6 Q2158.06 1524.47 2156.23 1520.93 Q2154.43 1517.37 2150.79 1517.37 M2150.79 1513.66 Q2156.6 1513.66 2159.66 1518.27 Q2162.74 1522.85 2162.74 1531.6 Q2162.74 1540.33 2159.66 1544.94 Q2156.6 1549.52 2150.79 1549.52 Q2144.98 1549.52 2141.9 1544.94 Q2138.85 1540.33 2138.85 1531.6 Q2138.85 1522.85 2141.9 1518.27 Q2144.98 1513.66 2150.79 1513.66 Z" fill="#000000" fill-rule="nonzero" fill-opacity="1" /><polyline clip-path="url(#clip010)" style="stroke:#000000; stroke-linecap:round; stroke-linejoin:round; stroke-width:4; stroke-opacity:1; fill:none" points="184.191,1486.45 184.191,47.2441 "/>
<polyline clip-path="url(#clip010)" style="stroke:#000000; stroke-linecap:round; stroke-linejoin:round; stroke-width:4; stroke-opacity:1; fill:none" points="184.191,1445.72 203.088,1445.72 "/>
<polyline clip-path="url(#clip010)" style="stroke:#000000; stroke-linecap:round; stroke-linejoin:round; stroke-width:4; stroke-opacity:1; fill:none" points="184.191,1147.84 203.088,1147.84 "/>
<polyline clip-path="url(#clip010)" style="stroke:#000000; stroke-linecap:round; stroke-linejoin:round; stroke-width:4; stroke-opacity:1; fill:none" points="184.191,849.97 203.088,849.97 "/>
<polyline clip-path="url(#clip010)" style="stroke:#000000; stroke-linecap:round; stroke-linejoin:round; stroke-width:4; stroke-opacity:1; fill:none" points="184.191,552.098 203.088,552.098 "/>
<polyline clip-path="url(#clip010)" style="stroke:#000000; stroke-linecap:round; stroke-linejoin:round; stroke-width:4; stroke-opacity:1; fill:none" points="184.191,254.225 203.088,254.225 "/>
<path clip-path="url(#clip010)" d="M91.0151 1431.51 Q87.404 1431.51 85.5753 1435.08 Q83.7697 1438.62 83.7697 1445.75 Q83.7697 1452.86 85.5753 1456.42 Q87.404 1459.96 91.0151 1459.96 Q94.6493 1459.96 96.4548 1456.42 Q98.2835 1452.86 98.2835 1445.75 Q98.2835 1438.62 96.4548 1435.08 Q94.6493 1431.51 91.0151 1431.51 M91.0151 1427.81 Q96.8252 1427.81 99.8808 1432.42 Q102.959 1437 102.959 1445.75 Q102.959 1454.48 99.8808 1459.08 Q96.8252 1463.67 91.0151 1463.67 Q85.2049 1463.67 82.1262 1459.08 Q79.0707 1454.48 79.0707 1445.75 Q79.0707 1437 82.1262 1432.42 Q85.2049 1427.81 91.0151 1427.81 Z" fill="#000000" fill-rule="nonzero" fill-opacity="1" /><path clip-path="url(#clip010)" d="M111.177 1457.12 L116.061 1457.12 L116.061 1463 L111.177 1463 L111.177 1457.12 Z" fill="#000000" fill-rule="nonzero" fill-opacity="1" /><path clip-path="url(#clip010)" d="M136.246 1431.51 Q132.635 1431.51 130.807 1435.08 Q129.001 1438.62 129.001 1445.75 Q129.001 1452.86 130.807 1456.42 Q132.635 1459.96 136.246 1459.96 Q139.881 1459.96 141.686 1456.42 Q143.515 1452.86 143.515 1445.75 Q143.515 1438.62 141.686 1435.08 Q139.881 1431.51 136.246 1431.51 M136.246 1427.81 Q142.056 1427.81 145.112 1432.42 Q148.191 1437 148.191 1445.75 Q148.191 1454.48 145.112 1459.08 Q142.056 1463.67 136.246 1463.67 Q130.436 1463.67 127.357 1459.08 Q124.302 1454.48 124.302 1445.75 Q124.302 1437 127.357 1432.42 Q130.436 1427.81 136.246 1427.81 Z" fill="#000000" fill-rule="nonzero" fill-opacity="1" /><path clip-path="url(#clip010)" d="M86.0382 1161.19 L102.358 1161.19 L102.358 1165.12 L80.4133 1165.12 L80.4133 1161.19 Q83.0753 1158.43 87.6586 1153.8 Q92.2651 1149.15 93.4456 1147.81 Q95.691 1145.29 96.5706 1143.55 Q97.4734 1141.79 97.4734 1140.1 Q97.4734 1137.35 95.5289 1135.61 Q93.6076 1133.87 90.5058 1133.87 Q88.3067 1133.87 85.8531 1134.64 Q83.4225 1135.4 80.6447 1136.95 L80.6447 1132.23 Q83.4688 1131.1 85.9225 1130.52 Q88.3762 1129.94 90.4132 1129.94 Q95.7836 1129.94 98.978 1132.62 Q102.172 1135.31 102.172 1139.8 Q102.172 1141.93 101.362 1143.85 Q100.575 1145.75 98.4687 1148.34 Q97.89 1149.01 94.7882 1152.23 Q91.6864 1155.42 86.0382 1161.19 Z" fill="#000000" fill-rule="nonzero" fill-opacity="1" /><path clip-path="url(#clip010)" d="M112.172 1159.24 L117.057 1159.24 L117.057 1165.12 L112.172 1165.12 L112.172 1159.24 Z" fill="#000000" fill-rule="nonzero" fill-opacity="1" /><path clip-path="url(#clip010)" d="M127.288 1130.56 L145.644 1130.56 L145.644 1134.5 L131.57 1134.5 L131.57 1142.97 Q132.589 1142.62 133.607 1142.46 Q134.626 1142.28 135.644 1142.28 Q141.431 1142.28 144.811 1145.45 Q148.191 1148.62 148.191 1154.04 Q148.191 1159.61 144.718 1162.72 Q141.246 1165.79 134.927 1165.79 Q132.751 1165.79 130.482 1165.42 Q128.237 1165.05 125.83 1164.31 L125.83 1159.61 Q127.913 1160.75 130.135 1161.3 Q132.357 1161.86 134.834 1161.86 Q138.839 1161.86 141.177 1159.75 Q143.515 1157.65 143.515 1154.04 Q143.515 1150.42 141.177 1148.32 Q138.839 1146.21 134.834 1146.21 Q132.959 1146.21 131.084 1146.63 Q129.232 1147.04 127.288 1147.92 L127.288 1130.56 Z" fill="#000000" fill-rule="nonzero" fill-opacity="1" /><path clip-path="url(#clip010)" d="M81.0614 832.69 L99.4178 832.69 L99.4178 836.625 L85.3438 836.625 L85.3438 845.098 Q86.3623 844.75 87.3808 844.588 Q88.3993 844.403 89.4178 844.403 Q95.2049 844.403 98.5845 847.575 Q101.964 850.746 101.964 856.162 Q101.964 861.741 98.4919 864.843 Q95.0197 867.922 88.7003 867.922 Q86.5243 867.922 84.2558 867.551 Q82.0105 867.181 79.6031 866.44 L79.6031 861.741 Q81.6864 862.875 83.9086 863.431 Q86.1308 863.986 88.6077 863.986 Q92.6123 863.986 94.9502 861.88 Q97.2882 859.774 97.2882 856.162 Q97.2882 852.551 94.9502 850.445 Q92.6123 848.338 88.6077 848.338 Q86.7327 848.338 84.8577 848.755 Q83.0058 849.172 81.0614 850.051 L81.0614 832.69 Z" fill="#000000" fill-rule="nonzero" fill-opacity="1" /><path clip-path="url(#clip010)" d="M111.177 861.371 L116.061 861.371 L116.061 867.25 L111.177 867.25 L111.177 861.371 Z" fill="#000000" fill-rule="nonzero" fill-opacity="1" /><path clip-path="url(#clip010)" d="M136.246 835.769 Q132.635 835.769 130.807 839.334 Q129.001 842.875 129.001 850.005 Q129.001 857.111 130.807 860.676 Q132.635 864.218 136.246 864.218 Q139.881 864.218 141.686 860.676 Q143.515 857.111 143.515 850.005 Q143.515 842.875 141.686 839.334 Q139.881 835.769 136.246 835.769 M136.246 832.065 Q142.056 832.065 145.112 836.672 Q148.191 841.255 148.191 850.005 Q148.191 858.732 145.112 863.338 Q142.056 867.922 136.246 867.922 Q130.436 867.922 127.357 863.338 Q124.302 858.732 124.302 850.005 Q124.302 841.255 127.357 836.672 Q130.436 832.065 136.246 832.065 Z" fill="#000000" fill-rule="nonzero" fill-opacity="1" /><path clip-path="url(#clip010)" d="M80.8299 534.818 L103.052 534.818 L103.052 536.808 L90.5058 569.378 L85.6216 569.378 L97.4271 538.753 L80.8299 538.753 L80.8299 534.818 Z" fill="#000000" fill-rule="nonzero" fill-opacity="1" /><path clip-path="url(#clip010)" d="M112.172 563.498 L117.057 563.498 L117.057 569.378 L112.172 569.378 L112.172 563.498 Z" fill="#000000" fill-rule="nonzero" fill-opacity="1" /><path clip-path="url(#clip010)" d="M127.288 534.818 L145.644 534.818 L145.644 538.753 L131.57 538.753 L131.57 547.225 Q132.589 546.878 133.607 546.716 Q134.626 546.531 135.644 546.531 Q141.431 546.531 144.811 549.702 Q148.191 552.873 148.191 558.29 Q148.191 563.868 144.718 566.97 Q141.246 570.049 134.927 570.049 Q132.751 570.049 130.482 569.679 Q128.237 569.308 125.83 568.567 L125.83 563.868 Q127.913 565.003 130.135 565.558 Q132.357 566.114 134.834 566.114 Q138.839 566.114 141.177 564.007 Q143.515 561.901 143.515 558.29 Q143.515 554.679 141.177 552.572 Q138.839 550.466 134.834 550.466 Q132.959 550.466 131.084 550.882 Q129.232 551.299 127.288 552.179 L127.288 534.818 Z" fill="#000000" fill-rule="nonzero" fill-opacity="1" /><path clip-path="url(#clip010)" d="M51.6634 267.57 L59.3023 267.57 L59.3023 241.204 L50.9921 242.871 L50.9921 238.612 L59.256 236.945 L63.9319 236.945 L63.9319 267.57 L71.5707 267.57 L71.5707 271.505 L51.6634 271.505 L51.6634 267.57 Z" fill="#000000" fill-rule="nonzero" fill-opacity="1" /><path clip-path="url(#clip010)" d="M91.0151 240.024 Q87.404 240.024 85.5753 243.588 Q83.7697 247.13 83.7697 254.26 Q83.7697 261.366 85.5753 264.931 Q87.404 268.473 91.0151 268.473 Q94.6493 268.473 96.4548 264.931 Q98.2835 261.366 98.2835 254.26 Q98.2835 247.13 96.4548 243.588 Q94.6493 240.024 91.0151 240.024 M91.0151 236.32 Q96.8252 236.32 99.8808 240.926 Q102.959 245.51 102.959 254.26 Q102.959 262.987 99.8808 267.593 Q96.8252 272.176 91.0151 272.176 Q85.2049 272.176 82.1262 267.593 Q79.0707 262.987 79.0707 254.26 Q79.0707 245.51 82.1262 240.926 Q85.2049 236.32 91.0151 236.32 Z" fill="#000000" fill-rule="nonzero" fill-opacity="1" /><path clip-path="url(#clip010)" d="M111.177 265.625 L116.061 265.625 L116.061 271.505 L111.177 271.505 L111.177 265.625 Z" fill="#000000" fill-rule="nonzero" fill-opacity="1" /><path clip-path="url(#clip010)" d="M136.246 240.024 Q132.635 240.024 130.807 243.588 Q129.001 247.13 129.001 254.26 Q129.001 261.366 130.807 264.931 Q132.635 268.473 136.246 268.473 Q139.881 268.473 141.686 264.931 Q143.515 261.366 143.515 254.26 Q143.515 247.13 141.686 243.588 Q139.881 240.024 136.246 240.024 M136.246 236.32 Q142.056 236.32 145.112 240.926 Q148.191 245.51 148.191 254.26 Q148.191 262.987 145.112 267.593 Q142.056 272.176 136.246 272.176 Q130.436 272.176 127.357 267.593 Q124.302 262.987 124.302 254.26 Q124.302 245.51 127.357 240.926 Q130.436 236.32 136.246 236.32 Z" fill="#000000" fill-rule="nonzero" fill-opacity="1" /><path clip-path="url(#clip011)" d="M416.05 751.057 L330.808 751.057 L501.292 751.057 L416.05 751.057 L416.05 532.227 L416.05 751.057  Z" fill="#00008b" fill-rule="evenodd" fill-opacity="1"/>
<polyline clip-path="url(#clip011)" style="stroke:#000000; stroke-linecap:round; stroke-linejoin:round; stroke-width:4; stroke-opacity:1; fill:none" points="416.05,751.057 330.808,751.057 501.292,751.057 416.05,751.057 416.05,532.227 416.05,751.057 "/>
<path clip-path="url(#clip011)" d="M586.535 532.227 L586.535 463.534 L245.565 463.534 L245.565 532.227 L586.535 532.227 L586.535 463.534 L586.535 532.227  Z" fill="#00008b" fill-rule="evenodd" fill-opacity="1"/>
<polyline clip-path="url(#clip011)" style="stroke:#000000; stroke-linecap:round; stroke-linejoin:round; stroke-width:4; stroke-opacity:1; fill:none" points="586.535,532.227 586.535,463.534 245.565,463.534 245.565,532.227 586.535,532.227 586.535,463.534 586.535,532.227 "/>
<path clip-path="url(#clip011)" d="M586.535 384.487 L245.565 384.487 L245.565 463.534 L586.535 463.534 L586.535 384.487 L416.05 384.487 L586.535 384.487  Z" fill="#00008b" fill-rule="evenodd" fill-opacity="1"/>
<polyline clip-path="url(#clip011)" style="stroke:#000000; stroke-linecap:round; stroke-linejoin:round; stroke-width:4; stroke-opacity:1; fill:none" points="586.535,384.487 245.565,384.487 245.565,463.534 586.535,463.534 586.535,384.487 416.05,384.487 586.535,384.487 "/>
<path clip-path="url(#clip011)" d="M416.05 191.145 L330.808 191.145 L501.292 191.145 L416.05 191.145 L416.05 384.487 L416.05 191.145  Z" fill="#00008b" fill-rule="evenodd" fill-opacity="1"/>
<polyline clip-path="url(#clip011)" style="stroke:#000000; stroke-linecap:round; stroke-linejoin:round; stroke-width:4; stroke-opacity:1; fill:none" points="416.05,191.145 330.808,191.145 501.292,191.145 416.05,191.145 416.05,384.487 416.05,191.145 "/>
<path clip-path="url(#clip011)" d="M842.262 1229.01 L757.019 1229.01 L927.504 1229.01 L842.262 1229.01 L842.262 1154.38 L842.262 1229.01  Z" fill="#00008b" fill-rule="evenodd" fill-opacity="1"/>
<polyline clip-path="url(#clip011)" style="stroke:#000000; stroke-linecap:round; stroke-linejoin:round; stroke-width:4; stroke-opacity:1; fill:none" points="842.262,1229.01 757.019,1229.01 927.504,1229.01 842.262,1229.01 842.262,1154.38 842.262,1229.01 "/>
<path clip-path="url(#clip011)" d="M1012.75 1154.38 L1012.75 1126.59 L671.777 1126.59 L671.777 1154.38 L1012.75 1154.38 L1012.75 1126.59 L1012.75 1154.38  Z" fill="#00008b" fill-rule="evenodd" fill-opacity="1"/>
<polyline clip-path="url(#clip011)" style="stroke:#000000; stroke-linecap:round; stroke-linejoin:round; stroke-width:4; stroke-opacity:1; fill:none" points="1012.75,1154.38 1012.75,1126.59 671.777,1126.59 671.777,1154.38 1012.75,1154.38 1012.75,1126.59 1012.75,1154.38 "/>
<path clip-path="url(#clip011)" d="M1012.75 1100.61 L671.777 1100.61 L671.777 1126.59 L1012.75 1126.59 L1012.75 1100.61 L842.262 1100.61 L1012.75 1100.61  Z" fill="#00008b" fill-rule="evenodd" fill-opacity="1"/>
<polyline clip-path="url(#clip011)" style="stroke:#000000; stroke-linecap:round; stroke-linejoin:round; stroke-width:4; stroke-opacity:1; fill:none" points="1012.75,1100.61 671.777,1100.61 671.777,1126.59 1012.75,1126.59 1012.75,1100.61 842.262,1100.61 1012.75,1100.61 "/>
<path clip-path="url(#clip011)" d="M842.262 1027.34 L757.019 1027.34 L927.504 1027.34 L842.262 1027.34 L842.262 1100.61 L842.262 1027.34  Z" fill="#00008b" fill-rule="evenodd" fill-opacity="1"/>
<polyline clip-path="url(#clip011)" style="stroke:#000000; stroke-linecap:round; stroke-linejoin:round; stroke-width:4; stroke-opacity:1; fill:none" points="842.262,1027.34 757.019,1027.34 927.504,1027.34 842.262,1027.34 842.262,1100.61 842.262,1027.34 "/>
<path clip-path="url(#clip011)" d="M1268.47 1311.83 L1183.23 1311.83 L1353.72 1311.83 L1268.47 1311.83 L1268.47 1257.57 L1268.47 1311.83  Z" fill="#00008b" fill-rule="evenodd" fill-opacity="1"/>
<polyline clip-path="url(#clip011)" style="stroke:#000000; stroke-linecap:round; stroke-linejoin:round; stroke-width:4; stroke-opacity:1; fill:none" points="1268.47,1311.83 1183.23,1311.83 1353.72,1311.83 1268.47,1311.83 1268.47,1257.57 1268.47,1311.83 "/>
<path clip-path="url(#clip011)" d="M1438.96 1257.57 L1438.96 1238.72 L1097.99 1238.72 L1097.99 1257.57 L1438.96 1257.57 L1438.96 1238.72 L1438.96 1257.57  Z" fill="#00008b" fill-rule="evenodd" fill-opacity="1"/>
<polyline clip-path="url(#clip011)" style="stroke:#000000; stroke-linecap:round; stroke-linejoin:round; stroke-width:4; stroke-opacity:1; fill:none" points="1438.96,1257.57 1438.96,1238.72 1097.99,1238.72 1097.99,1257.57 1438.96,1257.57 1438.96,1238.72 1438.96,1257.57 "/>
<path clip-path="url(#clip011)" d="M1438.96 1221.37 L1097.99 1221.37 L1097.99 1238.72 L1438.96 1238.72 L1438.96 1221.37 L1268.47 1221.37 L1438.96 1221.37  Z" fill="#00008b" fill-rule="evenodd" fill-opacity="1"/>
<polyline clip-path="url(#clip011)" style="stroke:#000000; stroke-linecap:round; stroke-linejoin:round; stroke-width:4; stroke-opacity:1; fill:none" points="1438.96,1221.37 1097.99,1221.37 1097.99,1238.72 1438.96,1238.72 1438.96,1221.37 1268.47,1221.37 1438.96,1221.37 "/>
<path clip-path="url(#clip011)" d="M1268.47 1174.87 L1183.23 1174.87 L1353.72 1174.87 L1268.47 1174.87 L1268.47 1221.37 L1268.47 1174.87  Z" fill="#00008b" fill-rule="evenodd" fill-opacity="1"/>
<polyline clip-path="url(#clip011)" style="stroke:#000000; stroke-linecap:round; stroke-linejoin:round; stroke-width:4; stroke-opacity:1; fill:none" points="1268.47,1174.87 1183.23,1174.87 1353.72,1174.87 1268.47,1174.87 1268.47,1221.37 1268.47,1174.87 "/>
<path clip-path="url(#clip011)" d="M1694.69 1358.25 L1609.44 1358.25 L1779.93 1358.25 L1694.69 1358.25 L1694.69 1322.25 L1694.69 1358.25  Z" fill="#00008b" fill-rule="evenodd" fill-opacity="1"/>
<polyline clip-path="url(#clip011)" style="stroke:#000000; stroke-linecap:round; stroke-linejoin:round; stroke-width:4; stroke-opacity:1; fill:none" points="1694.69,1358.25 1609.44,1358.25 1779.93,1358.25 1694.69,1358.25 1694.69,1322.25 1694.69,1358.25 "/>
<path clip-path="url(#clip011)" d="M1865.17 1322.25 L1865.17 1309.48 L1524.2 1309.48 L1524.2 1322.25 L1865.17 1322.25 L1865.17 1309.48 L1865.17 1322.25  Z" fill="#00008b" fill-rule="evenodd" fill-opacity="1"/>
<polyline clip-path="url(#clip011)" style="stroke:#000000; stroke-linecap:round; stroke-linejoin:round; stroke-width:4; stroke-opacity:1; fill:none" points="1865.17,1322.25 1865.17,1309.48 1524.2,1309.48 1524.2,1322.25 1865.17,1322.25 1865.17,1309.48 1865.17,1322.25 "/>
<path clip-path="url(#clip011)" d="M1865.17 1298.23 L1524.2 1298.23 L1524.2 1309.48 L1865.17 1309.48 L1865.17 1298.23 L1694.69 1298.23 L1865.17 1298.23  Z" fill="#00008b" fill-rule="evenodd" fill-opacity="1"/>
<polyline clip-path="url(#clip011)" style="stroke:#000000; stroke-linecap:round; stroke-linejoin:round; stroke-width:4; stroke-opacity:1; fill:none" points="1865.17,1298.23 1524.2,1298.23 1524.2,1309.48 1865.17,1309.48 1865.17,1298.23 1694.69,1298.23 1865.17,1298.23 "/>
<path clip-path="url(#clip011)" d="M1694.69 1265.84 L1609.44 1265.84 L1779.93 1265.84 L1694.69 1265.84 L1694.69 1298.23 L1694.69 1265.84  Z" fill="#00008b" fill-rule="evenodd" fill-opacity="1"/>
<polyline clip-path="url(#clip011)" style="stroke:#000000; stroke-linecap:round; stroke-linejoin:round; stroke-width:4; stroke-opacity:1; fill:none" points="1694.69,1265.84 1609.44,1265.84 1779.93,1265.84 1694.69,1265.84 1694.69,1298.23 1694.69,1265.84 "/>
<path clip-path="url(#clip011)" d="M2120.9 1394.31 L2035.65 1394.31 L2206.14 1394.31 L2120.9 1394.31 L2120.9 1373.62 L2120.9 1394.31  Z" fill="#00008b" fill-rule="evenodd" fill-opacity="1"/>
<polyline clip-path="url(#clip011)" style="stroke:#000000; stroke-linecap:round; stroke-linejoin:round; stroke-width:4; stroke-opacity:1; fill:none" points="2120.9,1394.31 2035.65,1394.31 2206.14,1394.31 2120.9,1394.31 2120.9,1373.62 2120.9,1394.31 "/>
<path clip-path="url(#clip011)" d="M2291.38 1373.62 L2291.38 1366.01 L1950.41 1366.01 L1950.41 1373.62 L2291.38 1373.62 L2291.38 1366.01 L2291.38 1373.62  Z" fill="#00008b" fill-rule="evenodd" fill-opacity="1"/>
<polyline clip-path="url(#clip011)" style="stroke:#000000; stroke-linecap:round; stroke-linejoin:round; stroke-width:4; stroke-opacity:1; fill:none" points="2291.38,1373.62 2291.38,1366.01 1950.41,1366.01 1950.41,1373.62 2291.38,1373.62 2291.38,1366.01 2291.38,1373.62 "/>
<path clip-path="url(#clip011)" d="M2291.38 1359.75 L1950.41 1359.75 L1950.41 1366.01 L2291.38 1366.01 L2291.38 1359.75 L2120.9 1359.75 L2291.38 1359.75  Z" fill="#00008b" fill-rule="evenodd" fill-opacity="1"/>
<polyline clip-path="url(#clip011)" style="stroke:#000000; stroke-linecap:round; stroke-linejoin:round; stroke-width:4; stroke-opacity:1; fill:none" points="2291.38,1359.75 1950.41,1359.75 1950.41,1366.01 2291.38,1366.01 2291.38,1359.75 2120.9,1359.75 2291.38,1359.75 "/>
<path clip-path="url(#clip011)" d="M2120.9 1342.32 L2035.65 1342.32 L2206.14 1342.32 L2120.9 1342.32 L2120.9 1359.75 L2120.9 1342.32  Z" fill="#00008b" fill-rule="evenodd" fill-opacity="1"/>
<polyline clip-path="url(#clip011)" style="stroke:#000000; stroke-linecap:round; stroke-linejoin:round; stroke-width:4; stroke-opacity:1; fill:none" points="2120.9,1342.32 2035.65,1342.32 2206.14,1342.32 2120.9,1342.32 2120.9,1359.75 2120.9,1342.32 "/>
<circle clip-path="url(#clip011)" cx="416.05" cy="1445.72" r="14.4" fill="#00008b" fill-rule="evenodd" fill-opacity="1" stroke="#000000" stroke-opacity="1" stroke-width="3.2"/>
<circle clip-path="url(#clip011)" cx="416.05" cy="848.088" r="14.4" fill="#00008b" fill-rule="evenodd" fill-opacity="1" stroke="#000000" stroke-opacity="1" stroke-width="3.2"/>
<circle clip-path="url(#clip011)" cx="416.05" cy="160.973" r="14.4" fill="#00008b" fill-rule="evenodd" fill-opacity="1" stroke="#000000" stroke-opacity="1" stroke-width="3.2"/>
<circle clip-path="url(#clip011)" cx="416.05" cy="121.215" r="14.4" fill="#00008b" fill-rule="evenodd" fill-opacity="1" stroke="#000000" stroke-opacity="1" stroke-width="3.2"/>
<circle clip-path="url(#clip011)" cx="416.05" cy="809.564" r="14.4" fill="#00008b" fill-rule="evenodd" fill-opacity="1" stroke="#000000" stroke-opacity="1" stroke-width="3.2"/>
<circle clip-path="url(#clip011)" cx="416.05" cy="87.9763" r="14.4" fill="#00008b" fill-rule="evenodd" fill-opacity="1" stroke="#000000" stroke-opacity="1" stroke-width="3.2"/>
<circle clip-path="url(#clip011)" cx="416.05" cy="1445.72" r="14.4" fill="#00008b" fill-rule="evenodd" fill-opacity="1" stroke="#000000" stroke-opacity="1" stroke-width="3.2"/>
<circle clip-path="url(#clip011)" cx="416.05" cy="817.163" r="14.4" fill="#00008b" fill-rule="evenodd" fill-opacity="1" stroke="#000000" stroke-opacity="1" stroke-width="3.2"/>
<circle clip-path="url(#clip011)" cx="842.262" cy="1245.54" r="14.4" fill="#00008b" fill-rule="evenodd" fill-opacity="1" stroke="#000000" stroke-opacity="1" stroke-width="3.2"/>
<circle clip-path="url(#clip011)" cx="842.262" cy="1244.11" r="14.4" fill="#00008b" fill-rule="evenodd" fill-opacity="1" stroke="#000000" stroke-opacity="1" stroke-width="3.2"/>
<circle clip-path="url(#clip011)" cx="842.262" cy="1238.97" r="14.4" fill="#00008b" fill-rule="evenodd" fill-opacity="1" stroke="#000000" stroke-opacity="1" stroke-width="3.2"/>
<circle clip-path="url(#clip011)" cx="1268.47" cy="1159.99" r="14.4" fill="#00008b" fill-rule="evenodd" fill-opacity="1" stroke="#000000" stroke-opacity="1" stroke-width="3.2"/>
<circle clip-path="url(#clip011)" cx="1268.47" cy="1320.61" r="14.4" fill="#00008b" fill-rule="evenodd" fill-opacity="1" stroke="#000000" stroke-opacity="1" stroke-width="3.2"/>
<circle clip-path="url(#clip011)" cx="1268.47" cy="1314.09" r="14.4" fill="#00008b" fill-rule="evenodd" fill-opacity="1" stroke="#000000" stroke-opacity="1" stroke-width="3.2"/>
<circle clip-path="url(#clip011)" cx="1268.47" cy="1312.64" r="14.4" fill="#00008b" fill-rule="evenodd" fill-opacity="1" stroke="#000000" stroke-opacity="1" stroke-width="3.2"/>
<circle clip-path="url(#clip011)" cx="1694.69" cy="1360.96" r="14.4" fill="#00008b" fill-rule="evenodd" fill-opacity="1" stroke="#000000" stroke-opacity="1" stroke-width="3.2"/>
<circle clip-path="url(#clip011)" cx="1694.69" cy="1363.38" r="14.4" fill="#00008b" fill-rule="evenodd" fill-opacity="1" stroke="#000000" stroke-opacity="1" stroke-width="3.2"/>
<circle clip-path="url(#clip011)" cx="1694.69" cy="1359.06" r="14.4" fill="#00008b" fill-rule="evenodd" fill-opacity="1" stroke="#000000" stroke-opacity="1" stroke-width="3.2"/>
<circle clip-path="url(#clip011)" cx="1694.69" cy="1358.99" r="14.4" fill="#00008b" fill-rule="evenodd" fill-opacity="1" stroke="#000000" stroke-opacity="1" stroke-width="3.2"/>
<circle clip-path="url(#clip011)" cx="1694.69" cy="1372.75" r="14.4" fill="#00008b" fill-rule="evenodd" fill-opacity="1" stroke="#000000" stroke-opacity="1" stroke-width="3.2"/>
<circle clip-path="url(#clip011)" cx="1694.69" cy="1375.1" r="14.4" fill="#00008b" fill-rule="evenodd" fill-opacity="1" stroke="#000000" stroke-opacity="1" stroke-width="3.2"/>
<circle clip-path="url(#clip011)" cx="2120.9" cy="1395.07" r="14.4" fill="#00008b" fill-rule="evenodd" fill-opacity="1" stroke="#000000" stroke-opacity="1" stroke-width="3.2"/>
<circle clip-path="url(#clip011)" cx="2120.9" cy="1396.76" r="14.4" fill="#00008b" fill-rule="evenodd" fill-opacity="1" stroke="#000000" stroke-opacity="1" stroke-width="3.2"/>
<circle clip-path="url(#clip011)" cx="2120.9" cy="1399.06" r="14.4" fill="#00008b" fill-rule="evenodd" fill-opacity="1" stroke="#000000" stroke-opacity="1" stroke-width="3.2"/>
<circle clip-path="url(#clip011)" cx="2120.9" cy="1397.02" r="14.4" fill="#00008b" fill-rule="evenodd" fill-opacity="1" stroke="#000000" stroke-opacity="1" stroke-width="3.2"/>
<circle clip-path="url(#clip011)" cx="2120.9" cy="1395.05" r="14.4" fill="#00008b" fill-rule="evenodd" fill-opacity="1" stroke="#000000" stroke-opacity="1" stroke-width="3.2"/>
<circle clip-path="url(#clip011)" cx="2120.9" cy="1399.82" r="14.4" fill="#00008b" fill-rule="evenodd" fill-opacity="1" stroke="#000000" stroke-opacity="1" stroke-width="3.2"/>
<circle clip-path="url(#clip011)" cx="2120.9" cy="1396.86" r="14.4" fill="#00008b" fill-rule="evenodd" fill-opacity="1" stroke="#000000" stroke-opacity="1" stroke-width="3.2"/>
<circle clip-path="url(#clip011)" cx="2120.9" cy="1395.45" r="14.4" fill="#00008b" fill-rule="evenodd" fill-opacity="1" stroke="#000000" stroke-opacity="1" stroke-width="3.2"/>
<circle clip-path="url(#clip011)" cx="2120.9" cy="1400.83" r="14.4" fill="#00008b" fill-rule="evenodd" fill-opacity="1" stroke="#000000" stroke-opacity="1" stroke-width="3.2"/>
<circle clip-path="url(#clip011)" cx="2120.9" cy="1397.94" r="14.4" fill="#00008b" fill-rule="evenodd" fill-opacity="1" stroke="#000000" stroke-opacity="1" stroke-width="3.2"/>
<circle clip-path="url(#clip011)" cx="2120.9" cy="1400.86" r="14.4" fill="#00008b" fill-rule="evenodd" fill-opacity="1" stroke="#000000" stroke-opacity="1" stroke-width="3.2"/>
<circle clip-path="url(#clip011)" cx="2120.9" cy="1397.13" r="14.4" fill="#00008b" fill-rule="evenodd" fill-opacity="1" stroke="#000000" stroke-opacity="1" stroke-width="3.2"/>
<polyline clip-path="url(#clip011)" style="stroke:#00008b; stroke-linecap:round; stroke-linejoin:round; stroke-width:0; stroke-opacity:1; fill:none" points="416.05,751.057 330.808,751.057 501.292,751.057 416.05,751.057 416.05,532.227 "/>
<polyline clip-path="url(#clip011)" style="stroke:#00008b; stroke-linecap:round; stroke-linejoin:round; stroke-width:0; stroke-opacity:1; fill:none" points="586.535,532.227 586.535,463.534 245.565,463.534 245.565,532.227 586.535,532.227 586.535,463.534 "/>
<polyline clip-path="url(#clip011)" style="stroke:#00008b; stroke-linecap:round; stroke-linejoin:round; stroke-width:0; stroke-opacity:1; fill:none" points="586.535,384.487 245.565,384.487 245.565,463.534 586.535,463.534 586.535,384.487 416.05,384.487 "/>
<polyline clip-path="url(#clip011)" style="stroke:#00008b; stroke-linecap:round; stroke-linejoin:round; stroke-width:0; stroke-opacity:1; fill:none" points="416.05,191.145 330.808,191.145 501.292,191.145 416.05,191.145 416.05,384.487 "/>
<polyline clip-path="url(#clip011)" style="stroke:#00008b; stroke-linecap:round; stroke-linejoin:round; stroke-width:0; stroke-opacity:1; fill:none" points="842.262,1229.01 757.019,1229.01 927.504,1229.01 842.262,1229.01 842.262,1154.38 "/>
<polyline clip-path="url(#clip011)" style="stroke:#00008b; stroke-linecap:round; stroke-linejoin:round; stroke-width:0; stroke-opacity:1; fill:none" points="1012.75,1154.38 1012.75,1126.59 671.777,1126.59 671.777,1154.38 1012.75,1154.38 1012.75,1126.59 "/>
<polyline clip-path="url(#clip011)" style="stroke:#00008b; stroke-linecap:round; stroke-linejoin:round; stroke-width:0; stroke-opacity:1; fill:none" points="1012.75,1100.61 671.777,1100.61 671.777,1126.59 1012.75,1126.59 1012.75,1100.61 842.262,1100.61 "/>
<polyline clip-path="url(#clip011)" style="stroke:#00008b; stroke-linecap:round; stroke-linejoin:round; stroke-width:0; stroke-opacity:1; fill:none" points="842.262,1027.34 757.019,1027.34 927.504,1027.34 842.262,1027.34 842.262,1100.61 "/>
<polyline clip-path="url(#clip011)" style="stroke:#00008b; stroke-linecap:round; stroke-linejoin:round; stroke-width:0; stroke-opacity:1; fill:none" points="1268.47,1311.83 1183.23,1311.83 1353.72,1311.83 1268.47,1311.83 1268.47,1257.57 "/>
<polyline clip-path="url(#clip011)" style="stroke:#00008b; stroke-linecap:round; stroke-linejoin:round; stroke-width:0; stroke-opacity:1; fill:none" points="1438.96,1257.57 1438.96,1238.72 1097.99,1238.72 1097.99,1257.57 1438.96,1257.57 1438.96,1238.72 "/>
<polyline clip-path="url(#clip011)" style="stroke:#00008b; stroke-linecap:round; stroke-linejoin:round; stroke-width:0; stroke-opacity:1; fill:none" points="1438.96,1221.37 1097.99,1221.37 1097.99,1238.72 1438.96,1238.72 1438.96,1221.37 1268.47,1221.37 "/>
<polyline clip-path="url(#clip011)" style="stroke:#00008b; stroke-linecap:round; stroke-linejoin:round; stroke-width:0; stroke-opacity:1; fill:none" points="1268.47,1174.87 1183.23,1174.87 1353.72,1174.87 1268.47,1174.87 1268.47,1221.37 "/>
<polyline clip-path="url(#clip011)" style="stroke:#00008b; stroke-linecap:round; stroke-linejoin:round; stroke-width:0; stroke-opacity:1; fill:none" points="1694.69,1358.25 1609.44,1358.25 1779.93,1358.25 1694.69,1358.25 1694.69,1322.25 "/>
<polyline clip-path="url(#clip011)" style="stroke:#00008b; stroke-linecap:round; stroke-linejoin:round; stroke-width:0; stroke-opacity:1; fill:none" points="1865.17,1322.25 1865.17,1309.48 1524.2,1309.48 1524.2,1322.25 1865.17,1322.25 1865.17,1309.48 "/>
<polyline clip-path="url(#clip011)" style="stroke:#00008b; stroke-linecap:round; stroke-linejoin:round; stroke-width:0; stroke-opacity:1; fill:none" points="1865.17,1298.23 1524.2,1298.23 1524.2,1309.48 1865.17,1309.48 1865.17,1298.23 1694.69,1298.23 "/>
<polyline clip-path="url(#clip011)" style="stroke:#00008b; stroke-linecap:round; stroke-linejoin:round; stroke-width:0; stroke-opacity:1; fill:none" points="1694.69,1265.84 1609.44,1265.84 1779.93,1265.84 1694.69,1265.84 1694.69,1298.23 "/>
<polyline clip-path="url(#clip011)" style="stroke:#00008b; stroke-linecap:round; stroke-linejoin:round; stroke-width:0; stroke-opacity:1; fill:none" points="2120.9,1394.31 2035.65,1394.31 2206.14,1394.31 2120.9,1394.31 2120.9,1373.62 "/>
<polyline clip-path="url(#clip011)" style="stroke:#00008b; stroke-linecap:round; stroke-linejoin:round; stroke-width:0; stroke-opacity:1; fill:none" points="2291.38,1373.62 2291.38,1366.01 1950.41,1366.01 1950.41,1373.62 2291.38,1373.62 2291.38,1366.01 "/>
<polyline clip-path="url(#clip011)" style="stroke:#00008b; stroke-linecap:round; stroke-linejoin:round; stroke-width:0; stroke-opacity:1; fill:none" points="2291.38,1359.75 1950.41,1359.75 1950.41,1366.01 2291.38,1366.01 2291.38,1359.75 2120.9,1359.75 "/>
<polyline clip-path="url(#clip011)" style="stroke:#00008b; stroke-linecap:round; stroke-linejoin:round; stroke-width:0; stroke-opacity:1; fill:none" points="2120.9,1342.32 2035.65,1342.32 2206.14,1342.32 2120.9,1342.32 2120.9,1359.75 "/>
</svg>
