<?xml version="1.0" encoding="utf-8"?>
<svg xmlns="http://www.w3.org/2000/svg" xmlns:xlink="http://www.w3.org/1999/xlink" width="600" height="400" viewBox="0 0 2400 1600">
<defs>
  <clipPath id="clip520">
    <rect x="0" y="0" width="2400" height="1600"/>
  </clipPath>
</defs>
<path clip-path="url(#clip520)" d="M0 1600 L2400 1600 L2400 0 L0 0  Z" fill="#ffffff" fill-rule="evenodd" fill-opacity="1"/>
<defs>
  <clipPath id="clip521">
    <rect x="169" y="47" width="2185" height="1440"/>
  </clipPath>
</defs>
<path clip-path="url(#clip520)" d="M169.121 1486.45 L2352.76 1486.45 L2352.76 47.2441 L169.121 47.2441  Z" fill="#ffffff" fill-rule="evenodd" fill-opacity="1"/>
<polyline clip-path="url(#clip521)" style="stroke:#000000; stroke-linecap:round; stroke-linejoin:round; stroke-width:2; stroke-opacity:0.1; fill:none" points="402.592,1486.45 402.592,47.2441 "/>
<polyline clip-path="url(#clip521)" style="stroke:#000000; stroke-linecap:round; stroke-linejoin:round; stroke-width:2; stroke-opacity:0.1; fill:none" points="831.765,1486.45 831.765,47.2441 "/>
<polyline clip-path="url(#clip521)" style="stroke:#000000; stroke-linecap:round; stroke-linejoin:round; stroke-width:2; stroke-opacity:0.1; fill:none" points="1260.94,1486.45 1260.94,47.2441 "/>
<polyline clip-path="url(#clip521)" style="stroke:#000000; stroke-linecap:round; stroke-linejoin:round; stroke-width:2; stroke-opacity:0.1; fill:none" points="1690.11,1486.45 1690.11,47.2441 "/>
<polyline clip-path="url(#clip521)" style="stroke:#000000; stroke-linecap:round; stroke-linejoin:round; stroke-width:2; stroke-opacity:0.1; fill:none" points="2119.29,1486.45 2119.29,47.2441 "/>
<polyline clip-path="url(#clip521)" style="stroke:#000000; stroke-linecap:round; stroke-linejoin:round; stroke-width:2; stroke-opacity:0.1; fill:none" points="169.121,1447.97 2352.76,1447.97 "/>
<polyline clip-path="url(#clip521)" style="stroke:#000000; stroke-linecap:round; stroke-linejoin:round; stroke-width:2; stroke-opacity:0.1; fill:none" points="169.121,994.608 2352.76,994.608 "/>
<polyline clip-path="url(#clip521)" style="stroke:#000000; stroke-linecap:round; stroke-linejoin:round; stroke-width:2; stroke-opacity:0.1; fill:none" points="169.121,541.248 2352.76,541.248 "/>
<polyline clip-path="url(#clip521)" style="stroke:#000000; stroke-linecap:round; stroke-linejoin:round; stroke-width:2; stroke-opacity:0.1; fill:none" points="169.121,87.8875 2352.76,87.8875 "/>
<polyline clip-path="url(#clip520)" style="stroke:#000000; stroke-linecap:round; stroke-linejoin:round; stroke-width:4; stroke-opacity:1; fill:none" points="169.121,1486.45 2352.76,1486.45 "/>
<polyline clip-path="url(#clip520)" style="stroke:#000000; stroke-linecap:round; stroke-linejoin:round; stroke-width:4; stroke-opacity:1; fill:none" points="402.592,1486.45 402.592,1467.55 "/>
<polyline clip-path="url(#clip520)" style="stroke:#000000; stroke-linecap:round; stroke-linejoin:round; stroke-width:4; stroke-opacity:1; fill:none" points="831.765,1486.45 831.765,1467.55 "/>
<polyline clip-path="url(#clip520)" style="stroke:#000000; stroke-linecap:round; stroke-linejoin:round; stroke-width:4; stroke-opacity:1; fill:none" points="1260.94,1486.45 1260.94,1467.55 "/>
<polyline clip-path="url(#clip520)" style="stroke:#000000; stroke-linecap:round; stroke-linejoin:round; stroke-width:4; stroke-opacity:1; fill:none" points="1690.11,1486.45 1690.11,1467.55 "/>
<polyline clip-path="url(#clip520)" style="stroke:#000000; stroke-linecap:round; stroke-linejoin:round; stroke-width:4; stroke-opacity:1; fill:none" points="2119.29,1486.45 2119.29,1467.55 "/>
<path clip-path="url(#clip520)" d="M377.279 1544.91 L384.918 1544.91 L384.918 1518.55 L376.608 1520.21 L376.608 1515.95 L384.872 1514.29 L389.548 1514.29 L389.548 1544.91 L397.187 1544.91 L397.187 1548.85 L377.279 1548.85 L377.279 1544.91 Z" fill="#000000" fill-rule="nonzero" fill-opacity="1" /><path clip-path="url(#clip520)" d="M416.631 1517.37 Q413.02 1517.37 411.191 1520.93 Q409.386 1524.47 409.386 1531.6 Q409.386 1538.71 411.191 1542.27 Q413.02 1545.82 416.631 1545.82 Q420.265 1545.82 422.071 1542.27 Q423.899 1538.71 423.899 1531.6 Q423.899 1524.47 422.071 1520.93 Q420.265 1517.37 416.631 1517.37 M416.631 1513.66 Q422.441 1513.66 425.497 1518.27 Q428.575 1522.85 428.575 1531.6 Q428.575 1540.33 425.497 1544.94 Q422.441 1549.52 416.631 1549.52 Q410.821 1549.52 407.742 1544.94 Q404.687 1540.33 404.687 1531.6 Q404.687 1522.85 407.742 1518.27 Q410.821 1513.66 416.631 1513.66 Z" fill="#000000" fill-rule="nonzero" fill-opacity="1" /><path clip-path="url(#clip520)" d="M806.464 1514.29 L824.821 1514.29 L824.821 1518.22 L810.747 1518.22 L810.747 1526.7 Q811.765 1526.35 812.784 1526.19 Q813.802 1526 814.821 1526 Q820.608 1526 823.987 1529.17 Q827.367 1532.34 827.367 1537.76 Q827.367 1543.34 823.895 1546.44 Q820.423 1549.52 814.103 1549.52 Q811.927 1549.52 809.659 1549.15 Q807.413 1548.78 805.006 1548.04 L805.006 1543.34 Q807.089 1544.47 809.312 1545.03 Q811.534 1545.58 814.011 1545.58 Q818.015 1545.58 820.353 1543.48 Q822.691 1541.37 822.691 1537.76 Q822.691 1534.15 820.353 1532.04 Q818.015 1529.94 814.011 1529.94 Q812.136 1529.94 810.261 1530.35 Q808.409 1530.77 806.464 1531.65 L806.464 1514.29 Z" fill="#000000" fill-rule="nonzero" fill-opacity="1" /><path clip-path="url(#clip520)" d="M846.58 1517.37 Q842.969 1517.37 841.14 1520.93 Q839.335 1524.47 839.335 1531.6 Q839.335 1538.71 841.14 1542.27 Q842.969 1545.82 846.58 1545.82 Q850.214 1545.82 852.02 1542.27 Q853.848 1538.71 853.848 1531.6 Q853.848 1524.47 852.02 1520.93 Q850.214 1517.37 846.58 1517.37 M846.58 1513.66 Q852.39 1513.66 855.446 1518.27 Q858.524 1522.85 858.524 1531.6 Q858.524 1540.33 855.446 1544.94 Q852.39 1549.52 846.58 1549.52 Q840.77 1549.52 837.691 1544.94 Q834.636 1540.33 834.636 1531.6 Q834.636 1522.85 837.691 1518.27 Q840.77 1513.66 846.58 1513.66 Z" fill="#000000" fill-rule="nonzero" fill-opacity="1" /><path clip-path="url(#clip520)" d="M1220.55 1544.91 L1228.18 1544.91 L1228.18 1518.55 L1219.87 1520.21 L1219.87 1515.95 L1228.14 1514.29 L1232.81 1514.29 L1232.81 1544.91 L1240.45 1544.91 L1240.45 1548.85 L1220.55 1548.85 L1220.55 1544.91 Z" fill="#000000" fill-rule="nonzero" fill-opacity="1" /><path clip-path="url(#clip520)" d="M1259.9 1517.37 Q1256.29 1517.37 1254.46 1520.93 Q1252.65 1524.47 1252.65 1531.6 Q1252.65 1538.71 1254.46 1542.27 Q1256.29 1545.82 1259.9 1545.82 Q1263.53 1545.82 1265.34 1542.27 Q1267.17 1538.71 1267.17 1531.6 Q1267.17 1524.47 1265.34 1520.93 Q1263.53 1517.37 1259.9 1517.37 M1259.9 1513.66 Q1265.71 1513.66 1268.76 1518.27 Q1271.84 1522.85 1271.84 1531.6 Q1271.84 1540.33 1268.76 1544.94 Q1265.71 1549.52 1259.9 1549.52 Q1254.09 1549.52 1251.01 1544.94 Q1247.95 1540.33 1247.95 1531.6 Q1247.95 1522.85 1251.01 1518.27 Q1254.09 1513.66 1259.9 1513.66 Z" fill="#000000" fill-rule="nonzero" fill-opacity="1" /><path clip-path="url(#clip520)" d="M1290.06 1517.37 Q1286.45 1517.37 1284.62 1520.93 Q1282.81 1524.47 1282.81 1531.6 Q1282.81 1538.71 1284.62 1542.27 Q1286.45 1545.82 1290.06 1545.82 Q1293.69 1545.82 1295.5 1542.27 Q1297.33 1538.71 1297.33 1531.6 Q1297.33 1524.47 1295.5 1520.93 Q1293.69 1517.37 1290.06 1517.37 M1290.06 1513.66 Q1295.87 1513.66 1298.92 1518.27 Q1302 1522.85 1302 1531.6 Q1302 1540.33 1298.92 1544.94 Q1295.87 1549.52 1290.06 1549.52 Q1284.25 1549.52 1281.17 1544.94 Q1278.11 1540.33 1278.11 1531.6 Q1278.11 1522.85 1281.17 1518.27 Q1284.25 1513.66 1290.06 1513.66 Z" fill="#000000" fill-rule="nonzero" fill-opacity="1" /><path clip-path="url(#clip520)" d="M1653.8 1544.91 L1670.12 1544.91 L1670.12 1548.85 L1648.18 1548.85 L1648.18 1544.91 Q1650.84 1542.16 1655.42 1537.53 Q1660.03 1532.88 1661.21 1531.53 Q1663.46 1529.01 1664.34 1527.27 Q1665.24 1525.51 1665.24 1523.82 Q1665.24 1521.07 1663.3 1519.33 Q1661.37 1517.6 1658.27 1517.6 Q1656.07 1517.6 1653.62 1518.36 Q1651.19 1519.13 1648.41 1520.68 L1648.41 1515.95 Q1651.23 1514.82 1653.69 1514.24 Q1656.14 1513.66 1658.18 1513.66 Q1663.55 1513.66 1666.74 1516.35 Q1669.94 1519.03 1669.94 1523.52 Q1669.94 1525.65 1669.13 1527.57 Q1668.34 1529.47 1666.23 1532.07 Q1665.66 1532.74 1662.55 1535.95 Q1659.45 1539.15 1653.8 1544.91 Z" fill="#000000" fill-rule="nonzero" fill-opacity="1" /><path clip-path="url(#clip520)" d="M1689.94 1517.37 Q1686.33 1517.37 1684.5 1520.93 Q1682.69 1524.47 1682.69 1531.6 Q1682.69 1538.71 1684.5 1542.27 Q1686.33 1545.82 1689.94 1545.82 Q1693.57 1545.82 1695.38 1542.27 Q1697.21 1538.71 1697.21 1531.6 Q1697.21 1524.47 1695.38 1520.93 Q1693.57 1517.37 1689.94 1517.37 M1689.94 1513.66 Q1695.75 1513.66 1698.8 1518.27 Q1701.88 1522.85 1701.88 1531.6 Q1701.88 1540.33 1698.8 1544.94 Q1695.75 1549.52 1689.94 1549.52 Q1684.13 1549.52 1681.05 1544.94 Q1677.99 1540.33 1677.99 1531.6 Q1677.99 1522.85 1681.05 1518.27 Q1684.13 1513.66 1689.94 1513.66 Z" fill="#000000" fill-rule="nonzero" fill-opacity="1" /><path clip-path="url(#clip520)" d="M1720.1 1517.37 Q1716.49 1517.37 1714.66 1520.93 Q1712.86 1524.47 1712.86 1531.6 Q1712.86 1538.71 1714.66 1542.27 Q1716.49 1545.82 1720.1 1545.82 Q1723.73 1545.82 1725.54 1542.27 Q1727.37 1538.71 1727.37 1531.6 Q1727.37 1524.47 1725.54 1520.93 Q1723.73 1517.37 1720.1 1517.37 M1720.1 1513.66 Q1725.91 1513.66 1728.97 1518.27 Q1732.04 1522.85 1732.04 1531.6 Q1732.04 1540.33 1728.97 1544.94 Q1725.91 1549.52 1720.1 1549.52 Q1714.29 1549.52 1711.21 1544.94 Q1708.16 1540.33 1708.16 1531.6 Q1708.16 1522.85 1711.21 1518.27 Q1714.29 1513.66 1720.1 1513.66 Z" fill="#000000" fill-rule="nonzero" fill-opacity="1" /><path clip-path="url(#clip520)" d="M2078.9 1514.29 L2097.26 1514.29 L2097.26 1518.22 L2083.19 1518.22 L2083.19 1526.7 Q2084.2 1526.35 2085.22 1526.19 Q2086.24 1526 2087.26 1526 Q2093.05 1526 2096.43 1529.17 Q2099.81 1532.34 2099.81 1537.76 Q2099.81 1543.34 2096.33 1546.44 Q2092.86 1549.52 2086.54 1549.52 Q2084.37 1549.52 2082.1 1549.15 Q2079.85 1548.78 2077.45 1548.04 L2077.45 1543.34 Q2079.53 1544.47 2081.75 1545.03 Q2083.97 1545.58 2086.45 1545.58 Q2090.45 1545.58 2092.79 1543.48 Q2095.13 1541.37 2095.13 1537.76 Q2095.13 1534.15 2092.79 1532.04 Q2090.45 1529.94 2086.45 1529.94 Q2084.58 1529.94 2082.7 1530.35 Q2080.85 1530.77 2078.9 1531.65 L2078.9 1514.29 Z" fill="#000000" fill-rule="nonzero" fill-opacity="1" /><path clip-path="url(#clip520)" d="M2119.02 1517.37 Q2115.41 1517.37 2113.58 1520.93 Q2111.77 1524.47 2111.77 1531.6 Q2111.77 1538.71 2113.58 1542.27 Q2115.41 1545.82 2119.02 1545.82 Q2122.65 1545.82 2124.46 1542.27 Q2126.29 1538.71 2126.29 1531.6 Q2126.29 1524.47 2124.46 1520.93 Q2122.65 1517.37 2119.02 1517.37 M2119.02 1513.66 Q2124.83 1513.66 2127.89 1518.27 Q2130.96 1522.85 2130.96 1531.6 Q2130.96 1540.33 2127.89 1544.94 Q2124.83 1549.52 2119.02 1549.52 Q2113.21 1549.52 2110.13 1544.94 Q2107.07 1540.33 2107.07 1531.6 Q2107.07 1522.85 2110.13 1518.27 Q2113.21 1513.66 2119.02 1513.66 Z" fill="#000000" fill-rule="nonzero" fill-opacity="1" /><path clip-path="url(#clip520)" d="M2149.18 1517.37 Q2145.57 1517.37 2143.74 1520.93 Q2141.94 1524.47 2141.94 1531.6 Q2141.94 1538.71 2143.74 1542.27 Q2145.57 1545.82 2149.18 1545.82 Q2152.82 1545.82 2154.62 1542.27 Q2156.45 1538.71 2156.45 1531.6 Q2156.45 1524.47 2154.62 1520.93 Q2152.82 1517.37 2149.18 1517.37 M2149.18 1513.66 Q2154.99 1513.66 2158.05 1518.27 Q2161.13 1522.85 2161.13 1531.6 Q2161.13 1540.33 2158.05 1544.94 Q2154.99 1549.52 2149.18 1549.52 Q2143.37 1549.52 2140.29 1544.94 Q2137.24 1540.33 2137.24 1531.6 Q2137.24 1522.85 2140.29 1518.27 Q2143.37 1513.66 2149.18 1513.66 Z" fill="#000000" fill-rule="nonzero" fill-opacity="1" /><polyline clip-path="url(#clip520)" style="stroke:#000000; stroke-linecap:round; stroke-linejoin:round; stroke-width:4; stroke-opacity:1; fill:none" points="169.121,1486.45 169.121,47.2441 "/>
<polyline clip-path="url(#clip520)" style="stroke:#000000; stroke-linecap:round; stroke-linejoin:round; stroke-width:4; stroke-opacity:1; fill:none" points="169.121,1447.97 188.019,1447.97 "/>
<polyline clip-path="url(#clip520)" style="stroke:#000000; stroke-linecap:round; stroke-linejoin:round; stroke-width:4; stroke-opacity:1; fill:none" points="169.121,994.608 188.019,994.608 "/>
<polyline clip-path="url(#clip520)" style="stroke:#000000; stroke-linecap:round; stroke-linejoin:round; stroke-width:4; stroke-opacity:1; fill:none" points="169.121,541.248 188.019,541.248 "/>
<polyline clip-path="url(#clip520)" style="stroke:#000000; stroke-linecap:round; stroke-linejoin:round; stroke-width:4; stroke-opacity:1; fill:none" points="169.121,87.8875 188.019,87.8875 "/>
<path clip-path="url(#clip520)" d="M81.154 1464.53 L81.154 1460.27 Q82.9133 1461.11 84.7188 1461.54 Q86.5243 1461.98 88.2604 1461.98 Q92.89 1461.98 95.3206 1458.88 Q97.7743 1455.76 98.1215 1449.42 Q96.7789 1451.41 94.7187 1452.47 Q92.6586 1453.54 90.1586 1453.54 Q84.9734 1453.54 81.941 1450.41 Q78.9318 1447.26 78.9318 1441.82 Q78.9318 1436.5 82.0799 1433.28 Q85.2281 1430.06 90.4595 1430.06 Q96.4548 1430.06 99.603 1434.67 Q102.774 1439.25 102.774 1448 Q102.774 1456.17 98.8854 1461.06 Q95.0197 1465.92 88.4688 1465.92 Q86.7095 1465.92 84.904 1465.57 Q83.0984 1465.23 81.154 1464.53 M90.4595 1449.88 Q93.6076 1449.88 95.4363 1447.73 Q97.2882 1445.57 97.2882 1441.82 Q97.2882 1438.1 95.4363 1435.94 Q93.6076 1433.77 90.4595 1433.77 Q87.3114 1433.77 85.4595 1435.94 Q83.6308 1438.1 83.6308 1441.82 Q83.6308 1445.57 85.4595 1447.73 Q87.3114 1449.88 90.4595 1449.88 Z" fill="#000000" fill-rule="nonzero" fill-opacity="1" /><path clip-path="url(#clip520)" d="M121.177 1433.77 Q117.566 1433.77 115.737 1437.33 Q113.932 1440.87 113.932 1448 Q113.932 1455.11 115.737 1458.67 Q117.566 1462.22 121.177 1462.22 Q124.811 1462.22 126.617 1458.67 Q128.445 1455.11 128.445 1448 Q128.445 1440.87 126.617 1437.33 Q124.811 1433.77 121.177 1433.77 M121.177 1430.06 Q126.987 1430.06 130.043 1434.67 Q133.121 1439.25 133.121 1448 Q133.121 1456.73 130.043 1461.34 Q126.987 1465.92 121.177 1465.92 Q115.367 1465.92 112.288 1461.34 Q109.233 1456.73 109.233 1448 Q109.233 1439.25 112.288 1434.67 Q115.367 1430.06 121.177 1430.06 Z" fill="#000000" fill-rule="nonzero" fill-opacity="1" /><path clip-path="url(#clip520)" d="M51.6634 1007.95 L59.3023 1007.95 L59.3023 981.587 L50.9921 983.254 L50.9921 978.995 L59.256 977.328 L63.9319 977.328 L63.9319 1007.95 L71.5707 1007.95 L71.5707 1011.89 L51.6634 1011.89 L51.6634 1007.95 Z" fill="#000000" fill-rule="nonzero" fill-opacity="1" /><path clip-path="url(#clip520)" d="M91.0151 980.407 Q87.404 980.407 85.5753 983.972 Q83.7697 987.513 83.7697 994.643 Q83.7697 1001.75 85.5753 1005.31 Q87.404 1008.86 91.0151 1008.86 Q94.6493 1008.86 96.4548 1005.31 Q98.2835 1001.75 98.2835 994.643 Q98.2835 987.513 96.4548 983.972 Q94.6493 980.407 91.0151 980.407 M91.0151 976.703 Q96.8252 976.703 99.8808 981.31 Q102.959 985.893 102.959 994.643 Q102.959 1003.37 99.8808 1007.98 Q96.8252 1012.56 91.0151 1012.56 Q85.2049 1012.56 82.1262 1007.98 Q79.0707 1003.37 79.0707 994.643 Q79.0707 985.893 82.1262 981.31 Q85.2049 976.703 91.0151 976.703 Z" fill="#000000" fill-rule="nonzero" fill-opacity="1" /><path clip-path="url(#clip520)" d="M121.177 980.407 Q117.566 980.407 115.737 983.972 Q113.932 987.513 113.932 994.643 Q113.932 1001.75 115.737 1005.31 Q117.566 1008.86 121.177 1008.86 Q124.811 1008.86 126.617 1005.31 Q128.445 1001.75 128.445 994.643 Q128.445 987.513 126.617 983.972 Q124.811 980.407 121.177 980.407 M121.177 976.703 Q126.987 976.703 130.043 981.31 Q133.121 985.893 133.121 994.643 Q133.121 1003.37 130.043 1007.98 Q126.987 1012.56 121.177 1012.56 Q115.367 1012.56 112.288 1007.98 Q109.233 1003.37 109.233 994.643 Q109.233 985.893 112.288 981.31 Q115.367 976.703 121.177 976.703 Z" fill="#000000" fill-rule="nonzero" fill-opacity="1" /><path clip-path="url(#clip520)" d="M51.6634 554.593 L59.3023 554.593 L59.3023 528.227 L50.9921 529.894 L50.9921 525.634 L59.256 523.968 L63.9319 523.968 L63.9319 554.593 L71.5707 554.593 L71.5707 558.528 L51.6634 558.528 L51.6634 554.593 Z" fill="#000000" fill-rule="nonzero" fill-opacity="1" /><path clip-path="url(#clip520)" d="M81.8253 554.593 L89.4641 554.593 L89.4641 528.227 L81.154 529.894 L81.154 525.634 L89.4178 523.968 L94.0937 523.968 L94.0937 554.593 L101.733 554.593 L101.733 558.528 L81.8253 558.528 L81.8253 554.593 Z" fill="#000000" fill-rule="nonzero" fill-opacity="1" /><path clip-path="url(#clip520)" d="M121.177 527.047 Q117.566 527.047 115.737 530.611 Q113.932 534.153 113.932 541.283 Q113.932 548.389 115.737 551.954 Q117.566 555.495 121.177 555.495 Q124.811 555.495 126.617 551.954 Q128.445 548.389 128.445 541.283 Q128.445 534.153 126.617 530.611 Q124.811 527.047 121.177 527.047 M121.177 523.343 Q126.987 523.343 130.043 527.949 Q133.121 532.533 133.121 541.283 Q133.121 550.009 130.043 554.616 Q126.987 559.199 121.177 559.199 Q115.367 559.199 112.288 554.616 Q109.233 550.009 109.233 541.283 Q109.233 532.533 112.288 527.949 Q115.367 523.343 121.177 523.343 Z" fill="#000000" fill-rule="nonzero" fill-opacity="1" /><path clip-path="url(#clip520)" d="M51.6634 101.232 L59.3023 101.232 L59.3023 74.8667 L50.9921 76.5334 L50.9921 72.2741 L59.256 70.6075 L63.9319 70.6075 L63.9319 101.232 L71.5707 101.232 L71.5707 105.167 L51.6634 105.167 L51.6634 101.232 Z" fill="#000000" fill-rule="nonzero" fill-opacity="1" /><path clip-path="url(#clip520)" d="M85.0429 101.232 L101.362 101.232 L101.362 105.167 L79.4179 105.167 L79.4179 101.232 Q82.0799 98.4777 86.6632 93.8481 Q91.2697 89.1953 92.4502 87.8527 Q94.6956 85.3296 95.5752 83.5935 Q96.478 81.8343 96.478 80.1445 Q96.478 77.3898 94.5336 75.6537 Q92.6123 73.9176 89.5104 73.9176 Q87.3114 73.9176 84.8577 74.6815 Q82.4271 75.4454 79.6494 76.9963 L79.6494 72.2741 Q82.4734 71.1399 84.9271 70.5612 Q87.3808 69.9825 89.4178 69.9825 Q94.7882 69.9825 97.9826 72.6676 Q101.177 75.3528 101.177 79.8435 Q101.177 81.9732 100.367 83.8944 Q99.5798 85.7926 97.4734 88.3852 Q96.8947 89.0564 93.7928 92.274 Q90.691 95.4684 85.0429 101.232 Z" fill="#000000" fill-rule="nonzero" fill-opacity="1" /><path clip-path="url(#clip520)" d="M121.177 73.6862 Q117.566 73.6862 115.737 77.251 Q113.932 80.7926 113.932 87.9222 Q113.932 95.0286 115.737 98.5934 Q117.566 102.135 121.177 102.135 Q124.811 102.135 126.617 98.5934 Q128.445 95.0286 128.445 87.9222 Q128.445 80.7926 126.617 77.251 Q124.811 73.6862 121.177 73.6862 M121.177 69.9825 Q126.987 69.9825 130.043 74.5889 Q133.121 79.1722 133.121 87.9222 Q133.121 96.649 130.043 101.255 Q126.987 105.839 121.177 105.839 Q115.367 105.839 112.288 101.255 Q109.233 96.649 109.233 87.9222 Q109.233 79.1722 112.288 74.5889 Q115.367 69.9825 121.177 69.9825 Z" fill="#000000" fill-rule="nonzero" fill-opacity="1" /><path clip-path="url(#clip521)" d="M402.592 1445.72 L316.757 1445.72 L488.426 1445.72 L402.592 1445.72 L402.592 1148.71 L402.592 1445.72  Z" fill="#00008b" fill-rule="evenodd" fill-opacity="1"/>
<polyline clip-path="url(#clip521)" style="stroke:#000000; stroke-linecap:round; stroke-linejoin:round; stroke-width:4; stroke-opacity:1; fill:none" points="402.592,1445.72 316.757,1445.72 488.426,1445.72 402.592,1445.72 402.592,1148.71 402.592,1445.72 "/>
<path clip-path="url(#clip521)" d="M574.261 1148.71 L574.261 1014.99 L230.922 1014.99 L230.922 1148.71 L574.261 1148.71 L574.261 1014.99 L574.261 1148.71  Z" fill="#00008b" fill-rule="evenodd" fill-opacity="1"/>
<polyline clip-path="url(#clip521)" style="stroke:#000000; stroke-linecap:round; stroke-linejoin:round; stroke-width:4; stroke-opacity:1; fill:none" points="574.261,1148.71 574.261,1014.99 230.922,1014.99 230.922,1148.71 574.261,1148.71 574.261,1014.99 574.261,1148.71 "/>
<path clip-path="url(#clip521)" d="M574.261 848.859 L230.922 848.859 L230.922 1014.99 L574.261 1014.99 L574.261 848.859 L402.592 848.859 L574.261 848.859  Z" fill="#00008b" fill-rule="evenodd" fill-opacity="1"/>
<polyline clip-path="url(#clip521)" style="stroke:#000000; stroke-linecap:round; stroke-linejoin:round; stroke-width:4; stroke-opacity:1; fill:none" points="574.261,848.859 230.922,848.859 230.922,1014.99 574.261,1014.99 574.261,848.859 402.592,848.859 574.261,848.859 "/>
<path clip-path="url(#clip521)" d="M402.592 399.398 L316.757 399.398 L488.426 399.398 L402.592 399.398 L402.592 848.859 L402.592 399.398  Z" fill="#00008b" fill-rule="evenodd" fill-opacity="1"/>
<polyline clip-path="url(#clip521)" style="stroke:#000000; stroke-linecap:round; stroke-linejoin:round; stroke-width:4; stroke-opacity:1; fill:none" points="402.592,399.398 316.757,399.398 488.426,399.398 402.592,399.398 402.592,848.859 402.592,399.398 "/>
<path clip-path="url(#clip521)" d="M831.765 1210.19 L745.93 1210.19 L917.6 1210.19 L831.765 1210.19 L831.765 1048.23 L831.765 1210.19  Z" fill="#00008b" fill-rule="evenodd" fill-opacity="1"/>
<polyline clip-path="url(#clip521)" style="stroke:#000000; stroke-linecap:round; stroke-linejoin:round; stroke-width:4; stroke-opacity:1; fill:none" points="831.765,1210.19 745.93,1210.19 917.6,1210.19 831.765,1210.19 831.765,1048.23 831.765,1210.19 "/>
<path clip-path="url(#clip521)" d="M1003.43 1048.23 L1003.43 994.149 L660.096 994.149 L660.096 1048.23 L1003.43 1048.23 L1003.43 994.149 L1003.43 1048.23  Z" fill="#00008b" fill-rule="evenodd" fill-opacity="1"/>
<polyline clip-path="url(#clip521)" style="stroke:#000000; stroke-linecap:round; stroke-linejoin:round; stroke-width:4; stroke-opacity:1; fill:none" points="1003.43,1048.23 1003.43,994.149 660.096,994.149 660.096,1048.23 1003.43,1048.23 1003.43,994.149 1003.43,1048.23 "/>
<path clip-path="url(#clip521)" d="M1003.43 932.555 L660.096 932.555 L660.096 994.149 L1003.43 994.149 L1003.43 932.555 L831.765 932.555 L1003.43 932.555  Z" fill="#00008b" fill-rule="evenodd" fill-opacity="1"/>
<polyline clip-path="url(#clip521)" style="stroke:#000000; stroke-linecap:round; stroke-linejoin:round; stroke-width:4; stroke-opacity:1; fill:none" points="1003.43,932.555 660.096,932.555 660.096,994.149 1003.43,994.149 1003.43,932.555 831.765,932.555 1003.43,932.555 "/>
<path clip-path="url(#clip521)" d="M831.765 764.564 L745.93 764.564 L917.6 764.564 L831.765 764.564 L831.765 932.555 L831.765 764.564  Z" fill="#00008b" fill-rule="evenodd" fill-opacity="1"/>
<polyline clip-path="url(#clip521)" style="stroke:#000000; stroke-linecap:round; stroke-linejoin:round; stroke-width:4; stroke-opacity:1; fill:none" points="831.765,764.564 745.93,764.564 917.6,764.564 831.765,764.564 831.765,932.555 831.765,764.564 "/>
<path clip-path="url(#clip521)" d="M1260.94 1132.67 L1175.1 1132.67 L1346.77 1132.67 L1260.94 1132.67 L1260.94 1029.18 L1260.94 1132.67  Z" fill="#00008b" fill-rule="evenodd" fill-opacity="1"/>
<polyline clip-path="url(#clip521)" style="stroke:#000000; stroke-linecap:round; stroke-linejoin:round; stroke-width:4; stroke-opacity:1; fill:none" points="1260.94,1132.67 1175.1,1132.67 1346.77,1132.67 1260.94,1132.67 1260.94,1029.18 1260.94,1132.67 "/>
<path clip-path="url(#clip521)" d="M1432.61 1029.18 L1432.61 995.368 L1089.27 995.368 L1089.27 1029.18 L1432.61 1029.18 L1432.61 995.368 L1432.61 1029.18  Z" fill="#00008b" fill-rule="evenodd" fill-opacity="1"/>
<polyline clip-path="url(#clip521)" style="stroke:#000000; stroke-linecap:round; stroke-linejoin:round; stroke-width:4; stroke-opacity:1; fill:none" points="1432.61,1029.18 1432.61,995.368 1089.27,995.368 1089.27,1029.18 1432.61,1029.18 1432.61,995.368 1432.61,1029.18 "/>
<path clip-path="url(#clip521)" d="M1432.61 954.986 L1089.27 954.986 L1089.27 995.368 L1432.61 995.368 L1432.61 954.986 L1260.94 954.986 L1432.61 954.986  Z" fill="#00008b" fill-rule="evenodd" fill-opacity="1"/>
<polyline clip-path="url(#clip521)" style="stroke:#000000; stroke-linecap:round; stroke-linejoin:round; stroke-width:4; stroke-opacity:1; fill:none" points="1432.61,954.986 1089.27,954.986 1089.27,995.368 1432.61,995.368 1432.61,954.986 1260.94,954.986 1432.61,954.986 "/>
<path clip-path="url(#clip521)" d="M1260.94 844.303 L1175.1 844.303 L1346.77 844.303 L1260.94 844.303 L1260.94 954.986 L1260.94 844.303  Z" fill="#00008b" fill-rule="evenodd" fill-opacity="1"/>
<polyline clip-path="url(#clip521)" style="stroke:#000000; stroke-linecap:round; stroke-linejoin:round; stroke-width:4; stroke-opacity:1; fill:none" points="1260.94,844.303 1175.1,844.303 1346.77,844.303 1260.94,844.303 1260.94,954.986 1260.94,844.303 "/>
<path clip-path="url(#clip521)" d="M1690.11 1084.73 L1604.28 1084.73 L1775.95 1084.73 L1690.11 1084.73 L1690.11 1017.38 L1690.11 1084.73  Z" fill="#00008b" fill-rule="evenodd" fill-opacity="1"/>
<polyline clip-path="url(#clip521)" style="stroke:#000000; stroke-linecap:round; stroke-linejoin:round; stroke-width:4; stroke-opacity:1; fill:none" points="1690.11,1084.73 1604.28,1084.73 1775.95,1084.73 1690.11,1084.73 1690.11,1017.38 1690.11,1084.73 "/>
<path clip-path="url(#clip521)" d="M1861.78 1017.38 L1861.78 993.533 L1518.44 993.533 L1518.44 1017.38 L1861.78 1017.38 L1861.78 993.533 L1861.78 1017.38  Z" fill="#00008b" fill-rule="evenodd" fill-opacity="1"/>
<polyline clip-path="url(#clip521)" style="stroke:#000000; stroke-linecap:round; stroke-linejoin:round; stroke-width:4; stroke-opacity:1; fill:none" points="1861.78,1017.38 1861.78,993.533 1518.44,993.533 1518.44,1017.38 1861.78,1017.38 1861.78,993.533 1861.78,1017.38 "/>
<path clip-path="url(#clip521)" d="M1861.78 968.383 L1518.44 968.383 L1518.44 993.533 L1861.78 993.533 L1861.78 968.383 L1690.11 968.383 L1861.78 968.383  Z" fill="#00008b" fill-rule="evenodd" fill-opacity="1"/>
<polyline clip-path="url(#clip521)" style="stroke:#000000; stroke-linecap:round; stroke-linejoin:round; stroke-width:4; stroke-opacity:1; fill:none" points="1861.78,968.383 1518.44,968.383 1518.44,993.533 1861.78,993.533 1861.78,968.383 1690.11,968.383 1861.78,968.383 "/>
<path clip-path="url(#clip521)" d="M1690.11 896.255 L1604.28 896.255 L1775.95 896.255 L1690.11 896.255 L1690.11 968.383 L1690.11 896.255  Z" fill="#00008b" fill-rule="evenodd" fill-opacity="1"/>
<polyline clip-path="url(#clip521)" style="stroke:#000000; stroke-linecap:round; stroke-linejoin:round; stroke-width:4; stroke-opacity:1; fill:none" points="1690.11,896.255 1604.28,896.255 1775.95,896.255 1690.11,896.255 1690.11,968.383 1690.11,896.255 "/>
<path clip-path="url(#clip521)" d="M2119.29 1046.53 L2033.45 1046.53 L2205.12 1046.53 L2119.29 1046.53 L2119.29 1009.67 L2119.29 1046.53  Z" fill="#00008b" fill-rule="evenodd" fill-opacity="1"/>
<polyline clip-path="url(#clip521)" style="stroke:#000000; stroke-linecap:round; stroke-linejoin:round; stroke-width:4; stroke-opacity:1; fill:none" points="2119.29,1046.53 2033.45,1046.53 2205.12,1046.53 2119.29,1046.53 2119.29,1009.67 2119.29,1046.53 "/>
<path clip-path="url(#clip521)" d="M2290.95 1009.67 L2290.95 994.041 L1947.62 994.041 L1947.62 1009.67 L2290.95 1009.67 L2290.95 994.041 L2290.95 1009.67  Z" fill="#00008b" fill-rule="evenodd" fill-opacity="1"/>
<polyline clip-path="url(#clip521)" style="stroke:#000000; stroke-linecap:round; stroke-linejoin:round; stroke-width:4; stroke-opacity:1; fill:none" points="2290.95,1009.67 2290.95,994.041 1947.62,994.041 1947.62,1009.67 2290.95,1009.67 2290.95,994.041 2290.95,1009.67 "/>
<path clip-path="url(#clip521)" d="M2290.95 978.854 L1947.62 978.854 L1947.62 994.041 L2290.95 994.041 L2290.95 978.854 L2119.29 978.854 L2290.95 978.854  Z" fill="#00008b" fill-rule="evenodd" fill-opacity="1"/>
<polyline clip-path="url(#clip521)" style="stroke:#000000; stroke-linecap:round; stroke-linejoin:round; stroke-width:4; stroke-opacity:1; fill:none" points="2290.95,978.854 1947.62,978.854 1947.62,994.041 2290.95,994.041 2290.95,978.854 2119.29,978.854 2290.95,978.854 "/>
<path clip-path="url(#clip521)" d="M2119.29 935.447 L2033.45 935.447 L2205.12 935.447 L2119.29 935.447 L2119.29 978.854 L2119.29 935.447  Z" fill="#00008b" fill-rule="evenodd" fill-opacity="1"/>
<polyline clip-path="url(#clip521)" style="stroke:#000000; stroke-linecap:round; stroke-linejoin:round; stroke-width:4; stroke-opacity:1; fill:none" points="2119.29,935.447 2033.45,935.447 2205.12,935.447 2119.29,935.447 2119.29,978.854 2119.29,935.447 "/>
<circle clip-path="url(#clip521)" cx="402.592" cy="148.928" r="14.4" fill="#00008b" fill-rule="evenodd" fill-opacity="1" stroke="#000000" stroke-opacity="1" stroke-width="3.2"/>
<circle clip-path="url(#clip521)" cx="402.592" cy="249.583" r="14.4" fill="#00008b" fill-rule="evenodd" fill-opacity="1" stroke="#000000" stroke-opacity="1" stroke-width="3.2"/>
<circle clip-path="url(#clip521)" cx="402.592" cy="365.285" r="14.4" fill="#00008b" fill-rule="evenodd" fill-opacity="1" stroke="#000000" stroke-opacity="1" stroke-width="3.2"/>
<circle clip-path="url(#clip521)" cx="402.592" cy="87.9763" r="14.4" fill="#00008b" fill-rule="evenodd" fill-opacity="1" stroke="#000000" stroke-opacity="1" stroke-width="3.2"/>
<circle clip-path="url(#clip521)" cx="402.592" cy="389.558" r="14.4" fill="#00008b" fill-rule="evenodd" fill-opacity="1" stroke="#000000" stroke-opacity="1" stroke-width="3.2"/>
<circle clip-path="url(#clip521)" cx="402.592" cy="246.335" r="14.4" fill="#00008b" fill-rule="evenodd" fill-opacity="1" stroke="#000000" stroke-opacity="1" stroke-width="3.2"/>
<circle clip-path="url(#clip521)" cx="402.592" cy="357.977" r="14.4" fill="#00008b" fill-rule="evenodd" fill-opacity="1" stroke="#000000" stroke-opacity="1" stroke-width="3.2"/>
<circle clip-path="url(#clip521)" cx="402.592" cy="311.925" r="14.4" fill="#00008b" fill-rule="evenodd" fill-opacity="1" stroke="#000000" stroke-opacity="1" stroke-width="3.2"/>
<circle clip-path="url(#clip521)" cx="402.592" cy="121.224" r="14.4" fill="#00008b" fill-rule="evenodd" fill-opacity="1" stroke="#000000" stroke-opacity="1" stroke-width="3.2"/>
<circle clip-path="url(#clip521)" cx="402.592" cy="236.021" r="14.4" fill="#00008b" fill-rule="evenodd" fill-opacity="1" stroke="#000000" stroke-opacity="1" stroke-width="3.2"/>
<circle clip-path="url(#clip521)" cx="402.592" cy="393.492" r="14.4" fill="#00008b" fill-rule="evenodd" fill-opacity="1" stroke="#000000" stroke-opacity="1" stroke-width="3.2"/>
<circle clip-path="url(#clip521)" cx="402.592" cy="127.326" r="14.4" fill="#00008b" fill-rule="evenodd" fill-opacity="1" stroke="#000000" stroke-opacity="1" stroke-width="3.2"/>
<circle clip-path="url(#clip521)" cx="402.592" cy="263.793" r="14.4" fill="#00008b" fill-rule="evenodd" fill-opacity="1" stroke="#000000" stroke-opacity="1" stroke-width="3.2"/>
<circle clip-path="url(#clip521)" cx="402.592" cy="292.481" r="14.4" fill="#00008b" fill-rule="evenodd" fill-opacity="1" stroke="#000000" stroke-opacity="1" stroke-width="3.2"/>
<circle clip-path="url(#clip521)" cx="402.592" cy="298.52" r="14.4" fill="#00008b" fill-rule="evenodd" fill-opacity="1" stroke="#000000" stroke-opacity="1" stroke-width="3.2"/>
<circle clip-path="url(#clip521)" cx="402.592" cy="373.089" r="14.4" fill="#00008b" fill-rule="evenodd" fill-opacity="1" stroke="#000000" stroke-opacity="1" stroke-width="3.2"/>
<circle clip-path="url(#clip521)" cx="402.592" cy="380.031" r="14.4" fill="#00008b" fill-rule="evenodd" fill-opacity="1" stroke="#000000" stroke-opacity="1" stroke-width="3.2"/>
<circle clip-path="url(#clip521)" cx="402.592" cy="146.838" r="14.4" fill="#00008b" fill-rule="evenodd" fill-opacity="1" stroke="#000000" stroke-opacity="1" stroke-width="3.2"/>
<circle clip-path="url(#clip521)" cx="831.765" cy="711.575" r="14.4" fill="#00008b" fill-rule="evenodd" fill-opacity="1" stroke="#000000" stroke-opacity="1" stroke-width="3.2"/>
<circle clip-path="url(#clip521)" cx="831.765" cy="670.936" r="14.4" fill="#00008b" fill-rule="evenodd" fill-opacity="1" stroke="#000000" stroke-opacity="1" stroke-width="3.2"/>
<circle clip-path="url(#clip521)" cx="831.765" cy="627.456" r="14.4" fill="#00008b" fill-rule="evenodd" fill-opacity="1" stroke="#000000" stroke-opacity="1" stroke-width="3.2"/>
<circle clip-path="url(#clip521)" cx="831.765" cy="730.31" r="14.4" fill="#00008b" fill-rule="evenodd" fill-opacity="1" stroke="#000000" stroke-opacity="1" stroke-width="3.2"/>
<circle clip-path="url(#clip521)" cx="831.765" cy="718.985" r="14.4" fill="#00008b" fill-rule="evenodd" fill-opacity="1" stroke="#000000" stroke-opacity="1" stroke-width="3.2"/>
<circle clip-path="url(#clip521)" cx="831.765" cy="677.921" r="14.4" fill="#00008b" fill-rule="evenodd" fill-opacity="1" stroke="#000000" stroke-opacity="1" stroke-width="3.2"/>
<circle clip-path="url(#clip521)" cx="831.765" cy="704.984" r="14.4" fill="#00008b" fill-rule="evenodd" fill-opacity="1" stroke="#000000" stroke-opacity="1" stroke-width="3.2"/>
<circle clip-path="url(#clip521)" cx="831.765" cy="748.15" r="14.4" fill="#00008b" fill-rule="evenodd" fill-opacity="1" stroke="#000000" stroke-opacity="1" stroke-width="3.2"/>
<circle clip-path="url(#clip521)" cx="831.765" cy="739.884" r="14.4" fill="#00008b" fill-rule="evenodd" fill-opacity="1" stroke="#000000" stroke-opacity="1" stroke-width="3.2"/>
<circle clip-path="url(#clip521)" cx="831.765" cy="756.587" r="14.4" fill="#00008b" fill-rule="evenodd" fill-opacity="1" stroke="#000000" stroke-opacity="1" stroke-width="3.2"/>
<circle clip-path="url(#clip521)" cx="831.765" cy="747.058" r="14.4" fill="#00008b" fill-rule="evenodd" fill-opacity="1" stroke="#000000" stroke-opacity="1" stroke-width="3.2"/>
<circle clip-path="url(#clip521)" cx="831.765" cy="741.185" r="14.4" fill="#00008b" fill-rule="evenodd" fill-opacity="1" stroke="#000000" stroke-opacity="1" stroke-width="3.2"/>
<circle clip-path="url(#clip521)" cx="831.765" cy="737.447" r="14.4" fill="#00008b" fill-rule="evenodd" fill-opacity="1" stroke="#000000" stroke-opacity="1" stroke-width="3.2"/>
<circle clip-path="url(#clip521)" cx="831.765" cy="753.168" r="14.4" fill="#00008b" fill-rule="evenodd" fill-opacity="1" stroke="#000000" stroke-opacity="1" stroke-width="3.2"/>
<circle clip-path="url(#clip521)" cx="1260.94" cy="829.493" r="14.4" fill="#00008b" fill-rule="evenodd" fill-opacity="1" stroke="#000000" stroke-opacity="1" stroke-width="3.2"/>
<circle clip-path="url(#clip521)" cx="1260.94" cy="791.598" r="14.4" fill="#00008b" fill-rule="evenodd" fill-opacity="1" stroke="#000000" stroke-opacity="1" stroke-width="3.2"/>
<circle clip-path="url(#clip521)" cx="1260.94" cy="830.248" r="14.4" fill="#00008b" fill-rule="evenodd" fill-opacity="1" stroke="#000000" stroke-opacity="1" stroke-width="3.2"/>
<circle clip-path="url(#clip521)" cx="1260.94" cy="828.027" r="14.4" fill="#00008b" fill-rule="evenodd" fill-opacity="1" stroke="#000000" stroke-opacity="1" stroke-width="3.2"/>
<circle clip-path="url(#clip521)" cx="1260.94" cy="832.297" r="14.4" fill="#00008b" fill-rule="evenodd" fill-opacity="1" stroke="#000000" stroke-opacity="1" stroke-width="3.2"/>
<circle clip-path="url(#clip521)" cx="1260.94" cy="796.316" r="14.4" fill="#00008b" fill-rule="evenodd" fill-opacity="1" stroke="#000000" stroke-opacity="1" stroke-width="3.2"/>
<circle clip-path="url(#clip521)" cx="1260.94" cy="842.859" r="14.4" fill="#00008b" fill-rule="evenodd" fill-opacity="1" stroke="#000000" stroke-opacity="1" stroke-width="3.2"/>
<circle clip-path="url(#clip521)" cx="1260.94" cy="823.985" r="14.4" fill="#00008b" fill-rule="evenodd" fill-opacity="1" stroke="#000000" stroke-opacity="1" stroke-width="3.2"/>
<circle clip-path="url(#clip521)" cx="1260.94" cy="834.304" r="14.4" fill="#00008b" fill-rule="evenodd" fill-opacity="1" stroke="#000000" stroke-opacity="1" stroke-width="3.2"/>
<circle clip-path="url(#clip521)" cx="1260.94" cy="780.969" r="14.4" fill="#00008b" fill-rule="evenodd" fill-opacity="1" stroke="#000000" stroke-opacity="1" stroke-width="3.2"/>
<circle clip-path="url(#clip521)" cx="1260.94" cy="843.369" r="14.4" fill="#00008b" fill-rule="evenodd" fill-opacity="1" stroke="#000000" stroke-opacity="1" stroke-width="3.2"/>
<circle clip-path="url(#clip521)" cx="1690.11" cy="837.644" r="14.4" fill="#00008b" fill-rule="evenodd" fill-opacity="1" stroke="#000000" stroke-opacity="1" stroke-width="3.2"/>
<circle clip-path="url(#clip521)" cx="1690.11" cy="874.503" r="14.4" fill="#00008b" fill-rule="evenodd" fill-opacity="1" stroke="#000000" stroke-opacity="1" stroke-width="3.2"/>
<circle clip-path="url(#clip521)" cx="1690.11" cy="893.674" r="14.4" fill="#00008b" fill-rule="evenodd" fill-opacity="1" stroke="#000000" stroke-opacity="1" stroke-width="3.2"/>
<circle clip-path="url(#clip521)" cx="1690.11" cy="894.374" r="14.4" fill="#00008b" fill-rule="evenodd" fill-opacity="1" stroke="#000000" stroke-opacity="1" stroke-width="3.2"/>
<circle clip-path="url(#clip521)" cx="1690.11" cy="856.096" r="14.4" fill="#00008b" fill-rule="evenodd" fill-opacity="1" stroke="#000000" stroke-opacity="1" stroke-width="3.2"/>
<circle clip-path="url(#clip521)" cx="1690.11" cy="871.106" r="14.4" fill="#00008b" fill-rule="evenodd" fill-opacity="1" stroke="#000000" stroke-opacity="1" stroke-width="3.2"/>
<circle clip-path="url(#clip521)" cx="1690.11" cy="876.735" r="14.4" fill="#00008b" fill-rule="evenodd" fill-opacity="1" stroke="#000000" stroke-opacity="1" stroke-width="3.2"/>
<circle clip-path="url(#clip521)" cx="2119.29" cy="921.992" r="14.4" fill="#00008b" fill-rule="evenodd" fill-opacity="1" stroke="#000000" stroke-opacity="1" stroke-width="3.2"/>
<circle clip-path="url(#clip521)" cx="2119.29" cy="930.075" r="14.4" fill="#00008b" fill-rule="evenodd" fill-opacity="1" stroke="#000000" stroke-opacity="1" stroke-width="3.2"/>
<circle clip-path="url(#clip521)" cx="2119.29" cy="931.485" r="14.4" fill="#00008b" fill-rule="evenodd" fill-opacity="1" stroke="#000000" stroke-opacity="1" stroke-width="3.2"/>
<circle clip-path="url(#clip521)" cx="2119.29" cy="932.202" r="14.4" fill="#00008b" fill-rule="evenodd" fill-opacity="1" stroke="#000000" stroke-opacity="1" stroke-width="3.2"/>
<circle clip-path="url(#clip521)" cx="2119.29" cy="932.557" r="14.4" fill="#00008b" fill-rule="evenodd" fill-opacity="1" stroke="#000000" stroke-opacity="1" stroke-width="3.2"/>
<polyline clip-path="url(#clip521)" style="stroke:#00008b; stroke-linecap:round; stroke-linejoin:round; stroke-width:0; stroke-opacity:1; fill:none" points="402.592,1445.72 316.757,1445.72 488.426,1445.72 402.592,1445.72 402.592,1148.71 "/>
<polyline clip-path="url(#clip521)" style="stroke:#00008b; stroke-linecap:round; stroke-linejoin:round; stroke-width:0; stroke-opacity:1; fill:none" points="574.261,1148.71 574.261,1014.99 230.922,1014.99 230.922,1148.71 574.261,1148.71 574.261,1014.99 "/>
<polyline clip-path="url(#clip521)" style="stroke:#00008b; stroke-linecap:round; stroke-linejoin:round; stroke-width:0; stroke-opacity:1; fill:none" points="574.261,848.859 230.922,848.859 230.922,1014.99 574.261,1014.99 574.261,848.859 402.592,848.859 "/>
<polyline clip-path="url(#clip521)" style="stroke:#00008b; stroke-linecap:round; stroke-linejoin:round; stroke-width:0; stroke-opacity:1; fill:none" points="402.592,399.398 316.757,399.398 488.426,399.398 402.592,399.398 402.592,848.859 "/>
<polyline clip-path="url(#clip521)" style="stroke:#00008b; stroke-linecap:round; stroke-linejoin:round; stroke-width:0; stroke-opacity:1; fill:none" points="831.765,1210.19 745.93,1210.19 917.6,1210.19 831.765,1210.19 831.765,1048.23 "/>
<polyline clip-path="url(#clip521)" style="stroke:#00008b; stroke-linecap:round; stroke-linejoin:round; stroke-width:0; stroke-opacity:1; fill:none" points="1003.43,1048.23 1003.43,994.149 660.096,994.149 660.096,1048.23 1003.43,1048.23 1003.43,994.149 "/>
<polyline clip-path="url(#clip521)" style="stroke:#00008b; stroke-linecap:round; stroke-linejoin:round; stroke-width:0; stroke-opacity:1; fill:none" points="1003.43,932.555 660.096,932.555 660.096,994.149 1003.43,994.149 1003.43,932.555 831.765,932.555 "/>
<polyline clip-path="url(#clip521)" style="stroke:#00008b; stroke-linecap:round; stroke-linejoin:round; stroke-width:0; stroke-opacity:1; fill:none" points="831.765,764.564 745.93,764.564 917.6,764.564 831.765,764.564 831.765,932.555 "/>
<polyline clip-path="url(#clip521)" style="stroke:#00008b; stroke-linecap:round; stroke-linejoin:round; stroke-width:0; stroke-opacity:1; fill:none" points="1260.94,1132.67 1175.1,1132.67 1346.77,1132.67 1260.94,1132.67 1260.94,1029.18 "/>
<polyline clip-path="url(#clip521)" style="stroke:#00008b; stroke-linecap:round; stroke-linejoin:round; stroke-width:0; stroke-opacity:1; fill:none" points="1432.61,1029.18 1432.61,995.368 1089.27,995.368 1089.27,1029.18 1432.61,1029.18 1432.61,995.368 "/>
<polyline clip-path="url(#clip521)" style="stroke:#00008b; stroke-linecap:round; stroke-linejoin:round; stroke-width:0; stroke-opacity:1; fill:none" points="1432.61,954.986 1089.27,954.986 1089.27,995.368 1432.61,995.368 1432.61,954.986 1260.94,954.986 "/>
<polyline clip-path="url(#clip521)" style="stroke:#00008b; stroke-linecap:round; stroke-linejoin:round; stroke-width:0; stroke-opacity:1; fill:none" points="1260.94,844.303 1175.1,844.303 1346.77,844.303 1260.94,844.303 1260.94,954.986 "/>
<polyline clip-path="url(#clip521)" style="stroke:#00008b; stroke-linecap:round; stroke-linejoin:round; stroke-width:0; stroke-opacity:1; fill:none" points="1690.11,1084.73 1604.28,1084.73 1775.95,1084.73 1690.11,1084.73 1690.11,1017.38 "/>
<polyline clip-path="url(#clip521)" style="stroke:#00008b; stroke-linecap:round; stroke-linejoin:round; stroke-width:0; stroke-opacity:1; fill:none" points="1861.78,1017.38 1861.78,993.533 1518.44,993.533 1518.44,1017.38 1861.78,1017.38 1861.78,993.533 "/>
<polyline clip-path="url(#clip521)" style="stroke:#00008b; stroke-linecap:round; stroke-linejoin:round; stroke-width:0; stroke-opacity:1; fill:none" points="1861.78,968.383 1518.44,968.383 1518.44,993.533 1861.78,993.533 1861.78,968.383 1690.11,968.383 "/>
<polyline clip-path="url(#clip521)" style="stroke:#00008b; stroke-linecap:round; stroke-linejoin:round; stroke-width:0; stroke-opacity:1; fill:none" points="1690.11,896.255 1604.28,896.255 1775.95,896.255 1690.11,896.255 1690.11,968.383 "/>
<polyline clip-path="url(#clip521)" style="stroke:#00008b; stroke-linecap:round; stroke-linejoin:round; stroke-width:0; stroke-opacity:1; fill:none" points="2119.29,1046.53 2033.45,1046.53 2205.12,1046.53 2119.29,1046.53 2119.29,1009.67 "/>
<polyline clip-path="url(#clip521)" style="stroke:#00008b; stroke-linecap:round; stroke-linejoin:round; stroke-width:0; stroke-opacity:1; fill:none" points="2290.95,1009.67 2290.95,994.041 1947.62,994.041 1947.62,1009.67 2290.95,1009.67 2290.95,994.041 "/>
<polyline clip-path="url(#clip521)" style="stroke:#00008b; stroke-linecap:round; stroke-linejoin:round; stroke-width:0; stroke-opacity:1; fill:none" points="2290.95,978.854 1947.62,978.854 1947.62,994.041 2290.95,994.041 2290.95,978.854 2119.29,978.854 "/>
<polyline clip-path="url(#clip521)" style="stroke:#00008b; stroke-linecap:round; stroke-linejoin:round; stroke-width:0; stroke-opacity:1; fill:none" points="2119.29,935.447 2033.45,935.447 2205.12,935.447 2119.29,935.447 2119.29,978.854 "/>
<polyline clip-path="url(#clip521)" style="stroke:#000000; stroke-linecap:round; stroke-linejoin:round; stroke-width:4; stroke-opacity:1; fill:none" stroke-dasharray="16, 10" points="-2014.51,994.608 4536.39,994.608 "/>
</svg>
