<?xml version="1.0" encoding="utf-8"?>
<svg xmlns="http://www.w3.org/2000/svg" xmlns:xlink="http://www.w3.org/1999/xlink" width="600" height="400" viewBox="0 0 2400 1600">
<defs>
  <clipPath id="clip560">
    <rect x="0" y="0" width="2400" height="1600"/>
  </clipPath>
</defs>
<path clip-path="url(#clip560)" d="M0 1600 L2400 1600 L2400 0 L0 0  Z" fill="#ffffff" fill-rule="evenodd" fill-opacity="1"/>
<defs>
  <clipPath id="clip561">
    <rect x="169" y="47" width="2185" height="1440"/>
  </clipPath>
</defs>
<path clip-path="url(#clip560)" d="M169.121 1486.45 L2352.76 1486.45 L2352.76 47.2441 L169.121 47.2441  Z" fill="#ffffff" fill-rule="evenodd" fill-opacity="1"/>
<polyline clip-path="url(#clip561)" style="stroke:#000000; stroke-linecap:round; stroke-linejoin:round; stroke-width:2; stroke-opacity:0.1; fill:none" points="402.592,1486.45 402.592,47.2441 "/>
<polyline clip-path="url(#clip561)" style="stroke:#000000; stroke-linecap:round; stroke-linejoin:round; stroke-width:2; stroke-opacity:0.1; fill:none" points="831.765,1486.45 831.765,47.2441 "/>
<polyline clip-path="url(#clip561)" style="stroke:#000000; stroke-linecap:round; stroke-linejoin:round; stroke-width:2; stroke-opacity:0.1; fill:none" points="1260.94,1486.45 1260.94,47.2441 "/>
<polyline clip-path="url(#clip561)" style="stroke:#000000; stroke-linecap:round; stroke-linejoin:round; stroke-width:2; stroke-opacity:0.1; fill:none" points="1690.11,1486.45 1690.11,47.2441 "/>
<polyline clip-path="url(#clip561)" style="stroke:#000000; stroke-linecap:round; stroke-linejoin:round; stroke-width:2; stroke-opacity:0.1; fill:none" points="2119.29,1486.45 2119.29,47.2441 "/>
<polyline clip-path="url(#clip561)" style="stroke:#000000; stroke-linecap:round; stroke-linejoin:round; stroke-width:2; stroke-opacity:0.1; fill:none" points="169.121,1451.51 2352.76,1451.51 "/>
<polyline clip-path="url(#clip561)" style="stroke:#000000; stroke-linecap:round; stroke-linejoin:round; stroke-width:2; stroke-opacity:0.1; fill:none" points="169.121,1110.63 2352.76,1110.63 "/>
<polyline clip-path="url(#clip561)" style="stroke:#000000; stroke-linecap:round; stroke-linejoin:round; stroke-width:2; stroke-opacity:0.1; fill:none" points="169.121,769.743 2352.76,769.743 "/>
<polyline clip-path="url(#clip561)" style="stroke:#000000; stroke-linecap:round; stroke-linejoin:round; stroke-width:2; stroke-opacity:0.1; fill:none" points="169.121,428.86 2352.76,428.86 "/>
<polyline clip-path="url(#clip561)" style="stroke:#000000; stroke-linecap:round; stroke-linejoin:round; stroke-width:2; stroke-opacity:0.1; fill:none" points="169.121,87.9763 2352.76,87.9763 "/>
<polyline clip-path="url(#clip560)" style="stroke:#000000; stroke-linecap:round; stroke-linejoin:round; stroke-width:4; stroke-opacity:1; fill:none" points="169.121,1486.45 2352.76,1486.45 "/>
<polyline clip-path="url(#clip560)" style="stroke:#000000; stroke-linecap:round; stroke-linejoin:round; stroke-width:4; stroke-opacity:1; fill:none" points="402.592,1486.45 402.592,1467.55 "/>
<polyline clip-path="url(#clip560)" style="stroke:#000000; stroke-linecap:round; stroke-linejoin:round; stroke-width:4; stroke-opacity:1; fill:none" points="831.765,1486.45 831.765,1467.55 "/>
<polyline clip-path="url(#clip560)" style="stroke:#000000; stroke-linecap:round; stroke-linejoin:round; stroke-width:4; stroke-opacity:1; fill:none" points="1260.94,1486.45 1260.94,1467.55 "/>
<polyline clip-path="url(#clip560)" style="stroke:#000000; stroke-linecap:round; stroke-linejoin:round; stroke-width:4; stroke-opacity:1; fill:none" points="1690.11,1486.45 1690.11,1467.55 "/>
<polyline clip-path="url(#clip560)" style="stroke:#000000; stroke-linecap:round; stroke-linejoin:round; stroke-width:4; stroke-opacity:1; fill:none" points="2119.29,1486.45 2119.29,1467.55 "/>
<path clip-path="url(#clip560)" d="M377.279 1544.91 L384.918 1544.91 L384.918 1518.55 L376.608 1520.21 L376.608 1515.95 L384.872 1514.29 L389.548 1514.29 L389.548 1544.91 L397.187 1544.91 L397.187 1548.85 L377.279 1548.85 L377.279 1544.91 Z" fill="#000000" fill-rule="nonzero" fill-opacity="1" /><path clip-path="url(#clip560)" d="M416.631 1517.37 Q413.02 1517.37 411.191 1520.93 Q409.386 1524.47 409.386 1531.6 Q409.386 1538.71 411.191 1542.27 Q413.02 1545.82 416.631 1545.82 Q420.265 1545.82 422.071 1542.27 Q423.899 1538.71 423.899 1531.6 Q423.899 1524.47 422.071 1520.93 Q420.265 1517.37 416.631 1517.37 M416.631 1513.66 Q422.441 1513.66 425.497 1518.27 Q428.575 1522.85 428.575 1531.6 Q428.575 1540.33 425.497 1544.94 Q422.441 1549.52 416.631 1549.52 Q410.821 1549.52 407.742 1544.94 Q404.687 1540.33 404.687 1531.6 Q404.687 1522.85 407.742 1518.27 Q410.821 1513.66 416.631 1513.66 Z" fill="#000000" fill-rule="nonzero" fill-opacity="1" /><path clip-path="url(#clip560)" d="M806.464 1514.29 L824.821 1514.29 L824.821 1518.22 L810.747 1518.22 L810.747 1526.7 Q811.765 1526.35 812.784 1526.19 Q813.802 1526 814.821 1526 Q820.608 1526 823.987 1529.17 Q827.367 1532.34 827.367 1537.76 Q827.367 1543.34 823.895 1546.44 Q820.423 1549.52 814.103 1549.52 Q811.927 1549.52 809.659 1549.15 Q807.413 1548.78 805.006 1548.04 L805.006 1543.34 Q807.089 1544.47 809.312 1545.03 Q811.534 1545.58 814.011 1545.58 Q818.015 1545.58 820.353 1543.48 Q822.691 1541.37 822.691 1537.76 Q822.691 1534.15 820.353 1532.04 Q818.015 1529.94 814.011 1529.94 Q812.136 1529.94 810.261 1530.35 Q808.409 1530.77 806.464 1531.65 L806.464 1514.29 Z" fill="#000000" fill-rule="nonzero" fill-opacity="1" /><path clip-path="url(#clip560)" d="M846.58 1517.37 Q842.969 1517.37 841.14 1520.93 Q839.335 1524.47 839.335 1531.6 Q839.335 1538.71 841.14 1542.27 Q842.969 1545.82 846.58 1545.82 Q850.214 1545.82 852.02 1542.27 Q853.848 1538.71 853.848 1531.6 Q853.848 1524.47 852.02 1520.93 Q850.214 1517.37 846.58 1517.37 M846.58 1513.66 Q852.39 1513.66 855.446 1518.27 Q858.524 1522.85 858.524 1531.6 Q858.524 1540.33 855.446 1544.94 Q852.39 1549.52 846.58 1549.52 Q840.77 1549.52 837.691 1544.94 Q834.636 1540.33 834.636 1531.6 Q834.636 1522.85 837.691 1518.27 Q840.77 1513.66 846.58 1513.66 Z" fill="#000000" fill-rule="nonzero" fill-opacity="1" /><path clip-path="url(#clip560)" d="M1220.55 1544.91 L1228.18 1544.91 L1228.18 1518.55 L1219.87 1520.21 L1219.87 1515.95 L1228.14 1514.29 L1232.81 1514.29 L1232.81 1544.91 L1240.45 1544.91 L1240.45 1548.85 L1220.55 1548.85 L1220.55 1544.91 Z" fill="#000000" fill-rule="nonzero" fill-opacity="1" /><path clip-path="url(#clip560)" d="M1259.9 1517.37 Q1256.29 1517.37 1254.46 1520.93 Q1252.65 1524.47 1252.65 1531.6 Q1252.65 1538.71 1254.46 1542.27 Q1256.29 1545.82 1259.9 1545.82 Q1263.53 1545.82 1265.34 1542.27 Q1267.17 1538.71 1267.17 1531.6 Q1267.17 1524.47 1265.34 1520.93 Q1263.53 1517.37 1259.9 1517.37 M1259.9 1513.66 Q1265.71 1513.66 1268.76 1518.27 Q1271.84 1522.85 1271.84 1531.6 Q1271.84 1540.33 1268.76 1544.94 Q1265.71 1549.52 1259.9 1549.52 Q1254.09 1549.52 1251.01 1544.94 Q1247.95 1540.33 1247.95 1531.6 Q1247.95 1522.85 1251.01 1518.27 Q1254.09 1513.66 1259.9 1513.66 Z" fill="#000000" fill-rule="nonzero" fill-opacity="1" /><path clip-path="url(#clip560)" d="M1290.06 1517.37 Q1286.45 1517.37 1284.62 1520.93 Q1282.81 1524.47 1282.81 1531.6 Q1282.81 1538.71 1284.62 1542.27 Q1286.45 1545.82 1290.06 1545.82 Q1293.69 1545.82 1295.5 1542.27 Q1297.33 1538.71 1297.33 1531.6 Q1297.33 1524.47 1295.5 1520.93 Q1293.69 1517.37 1290.06 1517.37 M1290.06 1513.66 Q1295.87 1513.66 1298.92 1518.27 Q1302 1522.85 1302 1531.6 Q1302 1540.33 1298.92 1544.94 Q1295.87 1549.52 1290.06 1549.52 Q1284.25 1549.52 1281.17 1544.94 Q1278.11 1540.33 1278.11 1531.6 Q1278.11 1522.85 1281.17 1518.27 Q1284.25 1513.66 1290.06 1513.66 Z" fill="#000000" fill-rule="nonzero" fill-opacity="1" /><path clip-path="url(#clip560)" d="M1653.8 1544.91 L1670.12 1544.91 L1670.12 1548.85 L1648.18 1548.85 L1648.18 1544.91 Q1650.84 1542.16 1655.42 1537.53 Q1660.03 1532.88 1661.21 1531.53 Q1663.46 1529.01 1664.34 1527.27 Q1665.24 1525.51 1665.24 1523.82 Q1665.24 1521.07 1663.3 1519.33 Q1661.37 1517.6 1658.27 1517.6 Q1656.07 1517.6 1653.62 1518.36 Q1651.19 1519.13 1648.41 1520.68 L1648.41 1515.95 Q1651.23 1514.82 1653.69 1514.24 Q1656.14 1513.66 1658.18 1513.66 Q1663.55 1513.66 1666.74 1516.35 Q1669.94 1519.03 1669.94 1523.52 Q1669.94 1525.65 1669.13 1527.57 Q1668.34 1529.47 1666.23 1532.07 Q1665.66 1532.74 1662.55 1535.95 Q1659.45 1539.15 1653.8 1544.91 Z" fill="#000000" fill-rule="nonzero" fill-opacity="1" /><path clip-path="url(#clip560)" d="M1689.94 1517.37 Q1686.33 1517.37 1684.5 1520.93 Q1682.69 1524.47 1682.69 1531.6 Q1682.69 1538.71 1684.5 1542.27 Q1686.33 1545.82 1689.94 1545.82 Q1693.57 1545.82 1695.38 1542.27 Q1697.21 1538.71 1697.21 1531.6 Q1697.21 1524.47 1695.38 1520.93 Q1693.57 1517.37 1689.94 1517.37 M1689.94 1513.66 Q1695.75 1513.66 1698.8 1518.27 Q1701.88 1522.85 1701.88 1531.6 Q1701.88 1540.33 1698.8 1544.94 Q1695.75 1549.52 1689.94 1549.52 Q1684.13 1549.52 1681.05 1544.94 Q1677.99 1540.33 1677.99 1531.6 Q1677.99 1522.85 1681.05 1518.27 Q1684.13 1513.66 1689.94 1513.66 Z" fill="#000000" fill-rule="nonzero" fill-opacity="1" /><path clip-path="url(#clip560)" d="M1720.1 1517.37 Q1716.49 1517.37 1714.66 1520.93 Q1712.86 1524.47 1712.86 1531.6 Q1712.86 1538.71 1714.66 1542.27 Q1716.49 1545.82 1720.1 1545.82 Q1723.73 1545.82 1725.54 1542.27 Q1727.37 1538.71 1727.37 1531.6 Q1727.37 1524.47 1725.54 1520.93 Q1723.73 1517.37 1720.1 1517.37 M1720.1 1513.66 Q1725.91 1513.66 1728.97 1518.27 Q1732.04 1522.85 1732.04 1531.6 Q1732.04 1540.33 1728.97 1544.94 Q1725.91 1549.52 1720.1 1549.52 Q1714.29 1549.52 1711.21 1544.94 Q1708.16 1540.33 1708.16 1531.6 Q1708.16 1522.85 1711.21 1518.27 Q1714.29 1513.66 1720.1 1513.66 Z" fill="#000000" fill-rule="nonzero" fill-opacity="1" /><path clip-path="url(#clip560)" d="M2078.9 1514.29 L2097.26 1514.29 L2097.26 1518.22 L2083.19 1518.22 L2083.19 1526.7 Q2084.2 1526.35 2085.22 1526.19 Q2086.24 1526 2087.26 1526 Q2093.05 1526 2096.43 1529.17 Q2099.81 1532.34 2099.81 1537.76 Q2099.81 1543.34 2096.33 1546.44 Q2092.86 1549.52 2086.54 1549.52 Q2084.37 1549.52 2082.1 1549.15 Q2079.85 1548.78 2077.45 1548.04 L2077.45 1543.34 Q2079.53 1544.47 2081.75 1545.03 Q2083.97 1545.58 2086.45 1545.58 Q2090.45 1545.58 2092.79 1543.48 Q2095.13 1541.37 2095.13 1537.76 Q2095.13 1534.15 2092.79 1532.04 Q2090.45 1529.94 2086.45 1529.94 Q2084.58 1529.94 2082.7 1530.35 Q2080.85 1530.77 2078.9 1531.65 L2078.9 1514.29 Z" fill="#000000" fill-rule="nonzero" fill-opacity="1" /><path clip-path="url(#clip560)" d="M2119.02 1517.37 Q2115.41 1517.37 2113.58 1520.93 Q2111.77 1524.47 2111.77 1531.6 Q2111.77 1538.71 2113.58 1542.27 Q2115.41 1545.82 2119.02 1545.82 Q2122.65 1545.82 2124.46 1542.27 Q2126.29 1538.71 2126.29 1531.6 Q2126.29 1524.47 2124.46 1520.93 Q2122.65 1517.37 2119.02 1517.37 M2119.02 1513.66 Q2124.83 1513.66 2127.89 1518.27 Q2130.96 1522.85 2130.96 1531.6 Q2130.96 1540.33 2127.89 1544.94 Q2124.83 1549.52 2119.02 1549.52 Q2113.21 1549.52 2110.13 1544.94 Q2107.07 1540.33 2107.07 1531.6 Q2107.07 1522.85 2110.13 1518.27 Q2113.21 1513.66 2119.02 1513.66 Z" fill="#000000" fill-rule="nonzero" fill-opacity="1" /><path clip-path="url(#clip560)" d="M2149.18 1517.37 Q2145.57 1517.37 2143.74 1520.93 Q2141.94 1524.47 2141.94 1531.6 Q2141.94 1538.71 2143.74 1542.27 Q2145.57 1545.82 2149.18 1545.82 Q2152.82 1545.82 2154.62 1542.27 Q2156.45 1538.71 2156.45 1531.6 Q2156.45 1524.47 2154.62 1520.93 Q2152.82 1517.37 2149.18 1517.37 M2149.18 1513.66 Q2154.99 1513.66 2158.05 1518.27 Q2161.13 1522.85 2161.13 1531.6 Q2161.13 1540.33 2158.05 1544.94 Q2154.99 1549.52 2149.18 1549.52 Q2143.37 1549.52 2140.29 1544.94 Q2137.24 1540.33 2137.24 1531.6 Q2137.24 1522.85 2140.29 1518.27 Q2143.37 1513.66 2149.18 1513.66 Z" fill="#000000" fill-rule="nonzero" fill-opacity="1" /><polyline clip-path="url(#clip560)" style="stroke:#000000; stroke-linecap:round; stroke-linejoin:round; stroke-width:4; stroke-opacity:1; fill:none" points="169.121,1486.45 169.121,47.2441 "/>
<polyline clip-path="url(#clip560)" style="stroke:#000000; stroke-linecap:round; stroke-linejoin:round; stroke-width:4; stroke-opacity:1; fill:none" points="169.121,1451.51 188.019,1451.51 "/>
<polyline clip-path="url(#clip560)" style="stroke:#000000; stroke-linecap:round; stroke-linejoin:round; stroke-width:4; stroke-opacity:1; fill:none" points="169.121,1110.63 188.019,1110.63 "/>
<polyline clip-path="url(#clip560)" style="stroke:#000000; stroke-linecap:round; stroke-linejoin:round; stroke-width:4; stroke-opacity:1; fill:none" points="169.121,769.743 188.019,769.743 "/>
<polyline clip-path="url(#clip560)" style="stroke:#000000; stroke-linecap:round; stroke-linejoin:round; stroke-width:4; stroke-opacity:1; fill:none" points="169.121,428.86 188.019,428.86 "/>
<polyline clip-path="url(#clip560)" style="stroke:#000000; stroke-linecap:round; stroke-linejoin:round; stroke-width:4; stroke-opacity:1; fill:none" points="169.121,87.9763 188.019,87.9763 "/>
<path clip-path="url(#clip560)" d="M91.0151 1452.38 Q87.6817 1452.38 85.7605 1454.16 Q83.8623 1455.94 83.8623 1459.07 Q83.8623 1462.19 85.7605 1463.98 Q87.6817 1465.76 91.0151 1465.76 Q94.3484 1465.76 96.2697 1463.98 Q98.1909 1462.17 98.1909 1459.07 Q98.1909 1455.94 96.2697 1454.16 Q94.3715 1452.38 91.0151 1452.38 M86.3392 1450.39 Q83.3299 1449.65 81.6401 1447.59 Q79.9735 1445.53 79.9735 1442.56 Q79.9735 1438.42 82.9133 1436.01 Q85.8762 1433.61 91.0151 1433.61 Q96.1771 1433.61 99.1169 1436.01 Q102.057 1438.42 102.057 1442.56 Q102.057 1445.53 100.367 1447.59 Q98.7002 1449.65 95.7141 1450.39 Q99.0937 1451.17 100.969 1453.47 Q102.867 1455.76 102.867 1459.07 Q102.867 1464.09 99.7882 1466.78 Q96.7326 1469.46 91.0151 1469.46 Q85.2975 1469.46 82.2188 1466.78 Q79.1633 1464.09 79.1633 1459.07 Q79.1633 1455.76 81.0614 1453.47 Q82.9595 1451.17 86.3392 1450.39 M84.6262 1443 Q84.6262 1445.69 86.2929 1447.19 Q87.9827 1448.7 91.0151 1448.7 Q94.0243 1448.7 95.7141 1447.19 Q97.4271 1445.69 97.4271 1443 Q97.4271 1440.32 95.7141 1438.81 Q94.0243 1437.31 91.0151 1437.31 Q87.9827 1437.31 86.2929 1438.81 Q84.6262 1440.32 84.6262 1443 Z" fill="#000000" fill-rule="nonzero" fill-opacity="1" /><path clip-path="url(#clip560)" d="M121.177 1437.31 Q117.566 1437.31 115.737 1440.87 Q113.932 1444.42 113.932 1451.55 Q113.932 1458.65 115.737 1462.22 Q117.566 1465.76 121.177 1465.76 Q124.811 1465.76 126.617 1462.22 Q128.445 1458.65 128.445 1451.55 Q128.445 1444.42 126.617 1440.87 Q124.811 1437.31 121.177 1437.31 M121.177 1433.61 Q126.987 1433.61 130.043 1438.21 Q133.121 1442.8 133.121 1451.55 Q133.121 1460.27 130.043 1464.88 Q126.987 1469.46 121.177 1469.46 Q115.367 1469.46 112.288 1464.88 Q109.233 1460.27 109.233 1451.55 Q109.233 1442.8 112.288 1438.21 Q115.367 1433.61 121.177 1433.61 Z" fill="#000000" fill-rule="nonzero" fill-opacity="1" /><path clip-path="url(#clip560)" d="M92.0104 1111.49 Q88.6771 1111.49 86.7558 1113.28 Q84.8577 1115.06 84.8577 1118.18 Q84.8577 1121.31 86.7558 1123.09 Q88.6771 1124.87 92.0104 1124.87 Q95.3437 1124.87 97.265 1123.09 Q99.1863 1121.29 99.1863 1118.18 Q99.1863 1115.06 97.265 1113.28 Q95.3669 1111.49 92.0104 1111.49 M87.3345 1109.5 Q84.3253 1108.76 82.6355 1106.7 Q80.9688 1104.64 80.9688 1101.68 Q80.9688 1097.54 83.9086 1095.13 Q86.8716 1092.72 92.0104 1092.72 Q97.1724 1092.72 100.112 1095.13 Q103.052 1097.54 103.052 1101.68 Q103.052 1104.64 101.362 1106.7 Q99.6956 1108.76 96.7095 1109.5 Q100.089 1110.29 101.964 1112.58 Q103.862 1114.87 103.862 1118.18 Q103.862 1123.21 100.784 1125.89 Q97.728 1128.58 92.0104 1128.58 Q86.2929 1128.58 83.2142 1125.89 Q80.1586 1123.21 80.1586 1118.18 Q80.1586 1114.87 82.0568 1112.58 Q83.9549 1110.29 87.3345 1109.5 M85.6216 1102.12 Q85.6216 1104.81 87.2882 1106.31 Q88.978 1107.81 92.0104 1107.81 Q95.0197 1107.81 96.7095 1106.31 Q98.4224 1104.81 98.4224 1102.12 Q98.4224 1099.43 96.7095 1097.93 Q95.0197 1096.43 92.0104 1096.43 Q88.978 1096.43 87.2882 1097.93 Q85.6216 1099.43 85.6216 1102.12 Z" fill="#000000" fill-rule="nonzero" fill-opacity="1" /><path clip-path="url(#clip560)" d="M112.219 1093.35 L130.575 1093.35 L130.575 1097.28 L116.501 1097.28 L116.501 1105.75 Q117.52 1105.41 118.538 1105.24 Q119.557 1105.06 120.575 1105.06 Q126.362 1105.06 129.742 1108.23 Q133.121 1111.4 133.121 1116.82 Q133.121 1122.4 129.649 1125.5 Q126.177 1128.58 119.857 1128.58 Q117.682 1128.58 115.413 1128.21 Q113.168 1127.84 110.76 1127.1 L110.76 1122.4 Q112.844 1123.53 115.066 1124.09 Q117.288 1124.64 119.765 1124.64 Q123.77 1124.64 126.107 1122.54 Q128.445 1120.43 128.445 1116.82 Q128.445 1113.21 126.107 1111.1 Q123.77 1108.99 119.765 1108.99 Q117.89 1108.99 116.015 1109.41 Q114.163 1109.83 112.219 1110.71 L112.219 1093.35 Z" fill="#000000" fill-rule="nonzero" fill-opacity="1" /><path clip-path="url(#clip560)" d="M81.154 786.306 L81.154 782.047 Q82.9133 782.88 84.7188 783.32 Q86.5243 783.759 88.2604 783.759 Q92.89 783.759 95.3206 780.658 Q97.7743 777.533 98.1215 771.19 Q96.7789 773.181 94.7187 774.246 Q92.6586 775.31 90.1586 775.31 Q84.9734 775.31 81.941 772.185 Q78.9318 769.037 78.9318 763.598 Q78.9318 758.273 82.0799 755.056 Q85.2281 751.838 90.4595 751.838 Q96.4548 751.838 99.603 756.445 Q102.774 761.028 102.774 769.778 Q102.774 777.949 98.8854 782.834 Q95.0197 787.695 88.4688 787.695 Q86.7095 787.695 84.904 787.347 Q83.0984 787 81.154 786.306 M90.4595 771.653 Q93.6076 771.653 95.4363 769.5 Q97.2882 767.348 97.2882 763.598 Q97.2882 759.871 95.4363 757.718 Q93.6076 755.542 90.4595 755.542 Q87.3114 755.542 85.4595 757.718 Q83.6308 759.871 83.6308 763.598 Q83.6308 767.348 85.4595 769.5 Q87.3114 771.653 90.4595 771.653 Z" fill="#000000" fill-rule="nonzero" fill-opacity="1" /><path clip-path="url(#clip560)" d="M121.177 755.542 Q117.566 755.542 115.737 759.107 Q113.932 762.648 113.932 769.778 Q113.932 776.884 115.737 780.449 Q117.566 783.991 121.177 783.991 Q124.811 783.991 126.617 780.449 Q128.445 776.884 128.445 769.778 Q128.445 762.648 126.617 759.107 Q124.811 755.542 121.177 755.542 M121.177 751.838 Q126.987 751.838 130.043 756.445 Q133.121 761.028 133.121 769.778 Q133.121 778.505 130.043 783.111 Q126.987 787.695 121.177 787.695 Q115.367 787.695 112.288 783.111 Q109.233 778.505 109.233 769.778 Q109.233 761.028 112.288 756.445 Q115.367 751.838 121.177 751.838 Z" fill="#000000" fill-rule="nonzero" fill-opacity="1" /><path clip-path="url(#clip560)" d="M82.1494 445.422 L82.1494 441.163 Q83.9086 441.996 85.7142 442.436 Q87.5197 442.876 89.2558 442.876 Q93.8854 442.876 96.316 439.774 Q98.7696 436.649 99.1169 430.307 Q97.7743 432.297 95.7141 433.362 Q93.6539 434.427 91.1539 434.427 Q85.9688 434.427 82.9364 431.302 Q79.9272 428.154 79.9272 422.714 Q79.9272 417.39 83.0753 414.172 Q86.2234 410.955 91.4549 410.955 Q97.4502 410.955 100.598 415.561 Q103.77 420.145 103.77 428.895 Q103.77 437.066 99.8808 441.95 Q96.015 446.811 89.4641 446.811 Q87.7049 446.811 85.8993 446.464 Q84.0938 446.117 82.1494 445.422 M91.4549 430.77 Q94.603 430.77 96.4317 428.617 Q98.2835 426.464 98.2835 422.714 Q98.2835 418.987 96.4317 416.834 Q94.603 414.658 91.4549 414.658 Q88.3067 414.658 86.4549 416.834 Q84.6262 418.987 84.6262 422.714 Q84.6262 426.464 86.4549 428.617 Q88.3067 430.77 91.4549 430.77 Z" fill="#000000" fill-rule="nonzero" fill-opacity="1" /><path clip-path="url(#clip560)" d="M112.219 411.58 L130.575 411.58 L130.575 415.515 L116.501 415.515 L116.501 423.987 Q117.52 423.64 118.538 423.478 Q119.557 423.293 120.575 423.293 Q126.362 423.293 129.742 426.464 Q133.121 429.635 133.121 435.052 Q133.121 440.631 129.649 443.732 Q126.177 446.811 119.857 446.811 Q117.682 446.811 115.413 446.441 Q113.168 446.07 110.76 445.33 L110.76 440.631 Q112.844 441.765 115.066 442.32 Q117.288 442.876 119.765 442.876 Q123.77 442.876 126.107 440.769 Q128.445 438.663 128.445 435.052 Q128.445 431.441 126.107 429.334 Q123.77 427.228 119.765 427.228 Q117.89 427.228 116.015 427.645 Q114.163 428.061 112.219 428.941 L112.219 411.58 Z" fill="#000000" fill-rule="nonzero" fill-opacity="1" /><path clip-path="url(#clip560)" d="M51.6634 101.321 L59.3023 101.321 L59.3023 74.9555 L50.9921 76.6222 L50.9921 72.3629 L59.256 70.6963 L63.9319 70.6963 L63.9319 101.321 L71.5707 101.321 L71.5707 105.256 L51.6634 105.256 L51.6634 101.321 Z" fill="#000000" fill-rule="nonzero" fill-opacity="1" /><path clip-path="url(#clip560)" d="M91.0151 73.775 Q87.404 73.775 85.5753 77.3398 Q83.7697 80.8814 83.7697 88.011 Q83.7697 95.1174 85.5753 98.6822 Q87.404 102.224 91.0151 102.224 Q94.6493 102.224 96.4548 98.6822 Q98.2835 95.1174 98.2835 88.011 Q98.2835 80.8814 96.4548 77.3398 Q94.6493 73.775 91.0151 73.775 M91.0151 70.0713 Q96.8252 70.0713 99.8808 74.6777 Q102.959 79.261 102.959 88.011 Q102.959 96.7378 99.8808 101.344 Q96.8252 105.928 91.0151 105.928 Q85.2049 105.928 82.1262 101.344 Q79.0707 96.7378 79.0707 88.011 Q79.0707 79.261 82.1262 74.6777 Q85.2049 70.0713 91.0151 70.0713 Z" fill="#000000" fill-rule="nonzero" fill-opacity="1" /><path clip-path="url(#clip560)" d="M121.177 73.775 Q117.566 73.775 115.737 77.3398 Q113.932 80.8814 113.932 88.011 Q113.932 95.1174 115.737 98.6822 Q117.566 102.224 121.177 102.224 Q124.811 102.224 126.617 98.6822 Q128.445 95.1174 128.445 88.011 Q128.445 80.8814 126.617 77.3398 Q124.811 73.775 121.177 73.775 M121.177 70.0713 Q126.987 70.0713 130.043 74.6777 Q133.121 79.261 133.121 88.011 Q133.121 96.7378 130.043 101.344 Q126.987 105.928 121.177 105.928 Q115.367 105.928 112.288 101.344 Q109.233 96.7378 109.233 88.011 Q109.233 79.261 112.288 74.6777 Q115.367 70.0713 121.177 70.0713 Z" fill="#000000" fill-rule="nonzero" fill-opacity="1" /><path clip-path="url(#clip561)" d="M402.592 1443.7 L316.757 1443.7 L488.426 1443.7 L402.592 1443.7 L402.592 1439.88 L402.592 1443.7  Z" fill="#00008b" fill-rule="evenodd" fill-opacity="1"/>
<polyline clip-path="url(#clip561)" style="stroke:#000000; stroke-linecap:round; stroke-linejoin:round; stroke-width:4; stroke-opacity:1; fill:none" points="402.592,1443.7 316.757,1443.7 488.426,1443.7 402.592,1443.7 402.592,1439.88 402.592,1443.7 "/>
<path clip-path="url(#clip561)" d="M574.261 1439.88 L574.261 1438.51 L230.922 1438.51 L230.922 1439.88 L574.261 1439.88 L574.261 1438.51 L574.261 1439.88  Z" fill="#00008b" fill-rule="evenodd" fill-opacity="1"/>
<polyline clip-path="url(#clip561)" style="stroke:#000000; stroke-linecap:round; stroke-linejoin:round; stroke-width:4; stroke-opacity:1; fill:none" points="574.261,1439.88 574.261,1438.51 230.922,1438.51 230.922,1439.88 574.261,1439.88 574.261,1438.51 574.261,1439.88 "/>
<path clip-path="url(#clip561)" d="M574.261 1437.26 L230.922 1437.26 L230.922 1438.51 L574.261 1438.51 L574.261 1437.26 L402.592 1437.26 L574.261 1437.26  Z" fill="#00008b" fill-rule="evenodd" fill-opacity="1"/>
<polyline clip-path="url(#clip561)" style="stroke:#000000; stroke-linecap:round; stroke-linejoin:round; stroke-width:4; stroke-opacity:1; fill:none" points="574.261,1437.26 230.922,1437.26 230.922,1438.51 574.261,1438.51 574.261,1437.26 402.592,1437.26 574.261,1437.26 "/>
<path clip-path="url(#clip561)" d="M402.592 1433.36 L316.757 1433.36 L488.426 1433.36 L402.592 1433.36 L402.592 1437.26 L402.592 1433.36  Z" fill="#00008b" fill-rule="evenodd" fill-opacity="1"/>
<polyline clip-path="url(#clip561)" style="stroke:#000000; stroke-linecap:round; stroke-linejoin:round; stroke-width:4; stroke-opacity:1; fill:none" points="402.592,1433.36 316.757,1433.36 488.426,1433.36 402.592,1433.36 402.592,1437.26 402.592,1433.36 "/>
<path clip-path="url(#clip561)" d="M831.765 1396.71 L745.93 1396.71 L917.6 1396.71 L831.765 1396.71 L831.765 1389.1 L831.765 1396.71  Z" fill="#00008b" fill-rule="evenodd" fill-opacity="1"/>
<polyline clip-path="url(#clip561)" style="stroke:#000000; stroke-linecap:round; stroke-linejoin:round; stroke-width:4; stroke-opacity:1; fill:none" points="831.765,1396.71 745.93,1396.71 917.6,1396.71 831.765,1396.71 831.765,1389.1 831.765,1396.71 "/>
<path clip-path="url(#clip561)" d="M1003.43 1389.1 L1003.43 1386.53 L660.096 1386.53 L660.096 1389.1 L1003.43 1389.1 L1003.43 1386.53 L1003.43 1389.1  Z" fill="#00008b" fill-rule="evenodd" fill-opacity="1"/>
<polyline clip-path="url(#clip561)" style="stroke:#000000; stroke-linecap:round; stroke-linejoin:round; stroke-width:4; stroke-opacity:1; fill:none" points="1003.43,1389.1 1003.43,1386.53 660.096,1386.53 660.096,1389.1 1003.43,1389.1 1003.43,1386.53 1003.43,1389.1 "/>
<path clip-path="url(#clip561)" d="M1003.43 1383.99 L660.096 1383.99 L660.096 1386.53 L1003.43 1386.53 L1003.43 1383.99 L831.765 1383.99 L1003.43 1383.99  Z" fill="#00008b" fill-rule="evenodd" fill-opacity="1"/>
<polyline clip-path="url(#clip561)" style="stroke:#000000; stroke-linecap:round; stroke-linejoin:round; stroke-width:4; stroke-opacity:1; fill:none" points="1003.43,1383.99 660.096,1383.99 660.096,1386.53 1003.43,1386.53 1003.43,1383.99 831.765,1383.99 1003.43,1383.99 "/>
<path clip-path="url(#clip561)" d="M831.765 1376.55 L745.93 1376.55 L917.6 1376.55 L831.765 1376.55 L831.765 1383.99 L831.765 1376.55  Z" fill="#00008b" fill-rule="evenodd" fill-opacity="1"/>
<polyline clip-path="url(#clip561)" style="stroke:#000000; stroke-linecap:round; stroke-linejoin:round; stroke-width:4; stroke-opacity:1; fill:none" points="831.765,1376.55 745.93,1376.55 917.6,1376.55 831.765,1376.55 831.765,1383.99 831.765,1376.55 "/>
<path clip-path="url(#clip561)" d="M1260.94 1335.35 L1175.1 1335.35 L1346.77 1335.35 L1260.94 1335.35 L1260.94 1325.23 L1260.94 1335.35  Z" fill="#00008b" fill-rule="evenodd" fill-opacity="1"/>
<polyline clip-path="url(#clip561)" style="stroke:#000000; stroke-linecap:round; stroke-linejoin:round; stroke-width:4; stroke-opacity:1; fill:none" points="1260.94,1335.35 1175.1,1335.35 1346.77,1335.35 1260.94,1335.35 1260.94,1325.23 1260.94,1335.35 "/>
<path clip-path="url(#clip561)" d="M1432.61 1325.23 L1432.61 1321.69 L1089.27 1321.69 L1089.27 1325.23 L1432.61 1325.23 L1432.61 1321.69 L1432.61 1325.23  Z" fill="#00008b" fill-rule="evenodd" fill-opacity="1"/>
<polyline clip-path="url(#clip561)" style="stroke:#000000; stroke-linecap:round; stroke-linejoin:round; stroke-width:4; stroke-opacity:1; fill:none" points="1432.61,1325.23 1432.61,1321.69 1089.27,1321.69 1089.27,1325.23 1432.61,1325.23 1432.61,1321.69 1432.61,1325.23 "/>
<path clip-path="url(#clip561)" d="M1432.61 1318.49 L1089.27 1318.49 L1089.27 1321.69 L1432.61 1321.69 L1432.61 1318.49 L1260.94 1318.49 L1432.61 1318.49  Z" fill="#00008b" fill-rule="evenodd" fill-opacity="1"/>
<polyline clip-path="url(#clip561)" style="stroke:#000000; stroke-linecap:round; stroke-linejoin:round; stroke-width:4; stroke-opacity:1; fill:none" points="1432.61,1318.49 1089.27,1318.49 1089.27,1321.69 1432.61,1321.69 1432.61,1318.49 1260.94,1318.49 1432.61,1318.49 "/>
<path clip-path="url(#clip561)" d="M1260.94 1308.75 L1175.1 1308.75 L1346.77 1308.75 L1260.94 1308.75 L1260.94 1318.49 L1260.94 1308.75  Z" fill="#00008b" fill-rule="evenodd" fill-opacity="1"/>
<polyline clip-path="url(#clip561)" style="stroke:#000000; stroke-linecap:round; stroke-linejoin:round; stroke-width:4; stroke-opacity:1; fill:none" points="1260.94,1308.75 1175.1,1308.75 1346.77,1308.75 1260.94,1308.75 1260.94,1318.49 1260.94,1308.75 "/>
<path clip-path="url(#clip561)" d="M1690.11 1213.93 L1604.28 1213.93 L1775.95 1213.93 L1690.11 1213.93 L1690.11 1198.74 L1690.11 1213.93  Z" fill="#00008b" fill-rule="evenodd" fill-opacity="1"/>
<polyline clip-path="url(#clip561)" style="stroke:#000000; stroke-linecap:round; stroke-linejoin:round; stroke-width:4; stroke-opacity:1; fill:none" points="1690.11,1213.93 1604.28,1213.93 1775.95,1213.93 1690.11,1213.93 1690.11,1198.74 1690.11,1213.93 "/>
<path clip-path="url(#clip561)" d="M1861.78 1198.74 L1861.78 1194.22 L1518.44 1194.22 L1518.44 1198.74 L1861.78 1198.74 L1861.78 1194.22 L1861.78 1198.74  Z" fill="#00008b" fill-rule="evenodd" fill-opacity="1"/>
<polyline clip-path="url(#clip561)" style="stroke:#000000; stroke-linecap:round; stroke-linejoin:round; stroke-width:4; stroke-opacity:1; fill:none" points="1861.78,1198.74 1861.78,1194.22 1518.44,1194.22 1518.44,1198.74 1861.78,1198.74 1861.78,1194.22 1861.78,1198.74 "/>
<path clip-path="url(#clip561)" d="M1861.78 1188.6 L1518.44 1188.6 L1518.44 1194.22 L1861.78 1194.22 L1861.78 1188.6 L1690.11 1188.6 L1861.78 1188.6  Z" fill="#00008b" fill-rule="evenodd" fill-opacity="1"/>
<polyline clip-path="url(#clip561)" style="stroke:#000000; stroke-linecap:round; stroke-linejoin:round; stroke-width:4; stroke-opacity:1; fill:none" points="1861.78,1188.6 1518.44,1188.6 1518.44,1194.22 1861.78,1194.22 1861.78,1188.6 1690.11,1188.6 1861.78,1188.6 "/>
<path clip-path="url(#clip561)" d="M1690.11 1173.58 L1604.28 1173.58 L1775.95 1173.58 L1690.11 1173.58 L1690.11 1188.6 L1690.11 1173.58  Z" fill="#00008b" fill-rule="evenodd" fill-opacity="1"/>
<polyline clip-path="url(#clip561)" style="stroke:#000000; stroke-linecap:round; stroke-linejoin:round; stroke-width:4; stroke-opacity:1; fill:none" points="1690.11,1173.58 1604.28,1173.58 1775.95,1173.58 1690.11,1173.58 1690.11,1188.6 1690.11,1173.58 "/>
<path clip-path="url(#clip561)" d="M2119.29 880.539 L2033.45 880.539 L2205.12 880.539 L2119.29 880.539 L2119.29 850.49 L2119.29 880.539  Z" fill="#00008b" fill-rule="evenodd" fill-opacity="1"/>
<polyline clip-path="url(#clip561)" style="stroke:#000000; stroke-linecap:round; stroke-linejoin:round; stroke-width:4; stroke-opacity:1; fill:none" points="2119.29,880.539 2033.45,880.539 2205.12,880.539 2119.29,880.539 2119.29,850.49 2119.29,880.539 "/>
<path clip-path="url(#clip561)" d="M2290.95 850.49 L2290.95 839.238 L1947.62 839.238 L1947.62 850.49 L2290.95 850.49 L2290.95 839.238 L2290.95 850.49  Z" fill="#00008b" fill-rule="evenodd" fill-opacity="1"/>
<polyline clip-path="url(#clip561)" style="stroke:#000000; stroke-linecap:round; stroke-linejoin:round; stroke-width:4; stroke-opacity:1; fill:none" points="2290.95,850.49 2290.95,839.238 1947.62,839.238 1947.62,850.49 2290.95,850.49 2290.95,839.238 2290.95,850.49 "/>
<path clip-path="url(#clip561)" d="M2290.95 829.42 L1947.62 829.42 L1947.62 839.238 L2290.95 839.238 L2290.95 829.42 L2119.29 829.42 L2290.95 829.42  Z" fill="#00008b" fill-rule="evenodd" fill-opacity="1"/>
<polyline clip-path="url(#clip561)" style="stroke:#000000; stroke-linecap:round; stroke-linejoin:round; stroke-width:4; stroke-opacity:1; fill:none" points="2290.95,829.42 1947.62,829.42 1947.62,839.238 2290.95,839.238 2290.95,829.42 2119.29,829.42 2290.95,829.42 "/>
<path clip-path="url(#clip561)" d="M2119.29 798.596 L2033.45 798.596 L2205.12 798.596 L2119.29 798.596 L2119.29 829.42 L2119.29 798.596  Z" fill="#00008b" fill-rule="evenodd" fill-opacity="1"/>
<polyline clip-path="url(#clip561)" style="stroke:#000000; stroke-linecap:round; stroke-linejoin:round; stroke-width:4; stroke-opacity:1; fill:none" points="2119.29,798.596 2033.45,798.596 2205.12,798.596 2119.29,798.596 2119.29,829.42 2119.29,798.596 "/>
<circle clip-path="url(#clip561)" cx="402.592" cy="1432.37" r="14.4" fill="#00008b" fill-rule="evenodd" fill-opacity="1" stroke="#000000" stroke-opacity="1" stroke-width="3.2"/>
<circle clip-path="url(#clip561)" cx="402.592" cy="1443.89" r="14.4" fill="#00008b" fill-rule="evenodd" fill-opacity="1" stroke="#000000" stroke-opacity="1" stroke-width="3.2"/>
<circle clip-path="url(#clip561)" cx="402.592" cy="1433.3" r="14.4" fill="#00008b" fill-rule="evenodd" fill-opacity="1" stroke="#000000" stroke-opacity="1" stroke-width="3.2"/>
<circle clip-path="url(#clip561)" cx="402.592" cy="1444.24" r="14.4" fill="#00008b" fill-rule="evenodd" fill-opacity="1" stroke="#000000" stroke-opacity="1" stroke-width="3.2"/>
<circle clip-path="url(#clip561)" cx="402.592" cy="1432.4" r="14.4" fill="#00008b" fill-rule="evenodd" fill-opacity="1" stroke="#000000" stroke-opacity="1" stroke-width="3.2"/>
<circle clip-path="url(#clip561)" cx="402.592" cy="1443.9" r="14.4" fill="#00008b" fill-rule="evenodd" fill-opacity="1" stroke="#000000" stroke-opacity="1" stroke-width="3.2"/>
<circle clip-path="url(#clip561)" cx="402.592" cy="1443.86" r="14.4" fill="#00008b" fill-rule="evenodd" fill-opacity="1" stroke="#000000" stroke-opacity="1" stroke-width="3.2"/>
<circle clip-path="url(#clip561)" cx="402.592" cy="1445.72" r="14.4" fill="#00008b" fill-rule="evenodd" fill-opacity="1" stroke="#000000" stroke-opacity="1" stroke-width="3.2"/>
<circle clip-path="url(#clip561)" cx="402.592" cy="1443.84" r="14.4" fill="#00008b" fill-rule="evenodd" fill-opacity="1" stroke="#000000" stroke-opacity="1" stroke-width="3.2"/>
<circle clip-path="url(#clip561)" cx="402.592" cy="1432.19" r="14.4" fill="#00008b" fill-rule="evenodd" fill-opacity="1" stroke="#000000" stroke-opacity="1" stroke-width="3.2"/>
<circle clip-path="url(#clip561)" cx="831.765" cy="1397.26" r="14.4" fill="#00008b" fill-rule="evenodd" fill-opacity="1" stroke="#000000" stroke-opacity="1" stroke-width="3.2"/>
<circle clip-path="url(#clip561)" cx="831.765" cy="1396.97" r="14.4" fill="#00008b" fill-rule="evenodd" fill-opacity="1" stroke="#000000" stroke-opacity="1" stroke-width="3.2"/>
<circle clip-path="url(#clip561)" cx="831.765" cy="1396.83" r="14.4" fill="#00008b" fill-rule="evenodd" fill-opacity="1" stroke="#000000" stroke-opacity="1" stroke-width="3.2"/>
<circle clip-path="url(#clip561)" cx="831.765" cy="1396.94" r="14.4" fill="#00008b" fill-rule="evenodd" fill-opacity="1" stroke="#000000" stroke-opacity="1" stroke-width="3.2"/>
<circle clip-path="url(#clip561)" cx="831.765" cy="1397.12" r="14.4" fill="#00008b" fill-rule="evenodd" fill-opacity="1" stroke="#000000" stroke-opacity="1" stroke-width="3.2"/>
<circle clip-path="url(#clip561)" cx="831.765" cy="1397.22" r="14.4" fill="#00008b" fill-rule="evenodd" fill-opacity="1" stroke="#000000" stroke-opacity="1" stroke-width="3.2"/>
<circle clip-path="url(#clip561)" cx="1260.94" cy="1338.97" r="14.4" fill="#00008b" fill-rule="evenodd" fill-opacity="1" stroke="#000000" stroke-opacity="1" stroke-width="3.2"/>
<circle clip-path="url(#clip561)" cx="1260.94" cy="1337.71" r="14.4" fill="#00008b" fill-rule="evenodd" fill-opacity="1" stroke="#000000" stroke-opacity="1" stroke-width="3.2"/>
<circle clip-path="url(#clip561)" cx="1260.94" cy="1307.63" r="14.4" fill="#00008b" fill-rule="evenodd" fill-opacity="1" stroke="#000000" stroke-opacity="1" stroke-width="3.2"/>
<circle clip-path="url(#clip561)" cx="1260.94" cy="1337.43" r="14.4" fill="#00008b" fill-rule="evenodd" fill-opacity="1" stroke="#000000" stroke-opacity="1" stroke-width="3.2"/>
<circle clip-path="url(#clip561)" cx="1260.94" cy="1336.09" r="14.4" fill="#00008b" fill-rule="evenodd" fill-opacity="1" stroke="#000000" stroke-opacity="1" stroke-width="3.2"/>
<circle clip-path="url(#clip561)" cx="1260.94" cy="1335.89" r="14.4" fill="#00008b" fill-rule="evenodd" fill-opacity="1" stroke="#000000" stroke-opacity="1" stroke-width="3.2"/>
<circle clip-path="url(#clip561)" cx="1260.94" cy="1335.98" r="14.4" fill="#00008b" fill-rule="evenodd" fill-opacity="1" stroke="#000000" stroke-opacity="1" stroke-width="3.2"/>
<circle clip-path="url(#clip561)" cx="1260.94" cy="1336.46" r="14.4" fill="#00008b" fill-rule="evenodd" fill-opacity="1" stroke="#000000" stroke-opacity="1" stroke-width="3.2"/>
<circle clip-path="url(#clip561)" cx="1260.94" cy="1308.05" r="14.4" fill="#00008b" fill-rule="evenodd" fill-opacity="1" stroke="#000000" stroke-opacity="1" stroke-width="3.2"/>
<circle clip-path="url(#clip561)" cx="1690.11" cy="1170.84" r="14.4" fill="#00008b" fill-rule="evenodd" fill-opacity="1" stroke="#000000" stroke-opacity="1" stroke-width="3.2"/>
<circle clip-path="url(#clip561)" cx="1690.11" cy="1172.13" r="14.4" fill="#00008b" fill-rule="evenodd" fill-opacity="1" stroke="#000000" stroke-opacity="1" stroke-width="3.2"/>
<circle clip-path="url(#clip561)" cx="1690.11" cy="1214.15" r="14.4" fill="#00008b" fill-rule="evenodd" fill-opacity="1" stroke="#000000" stroke-opacity="1" stroke-width="3.2"/>
<circle clip-path="url(#clip561)" cx="1690.11" cy="1215.58" r="14.4" fill="#00008b" fill-rule="evenodd" fill-opacity="1" stroke="#000000" stroke-opacity="1" stroke-width="3.2"/>
<circle clip-path="url(#clip561)" cx="1690.11" cy="1173.28" r="14.4" fill="#00008b" fill-rule="evenodd" fill-opacity="1" stroke="#000000" stroke-opacity="1" stroke-width="3.2"/>
<circle clip-path="url(#clip561)" cx="1690.11" cy="1214" r="14.4" fill="#00008b" fill-rule="evenodd" fill-opacity="1" stroke="#000000" stroke-opacity="1" stroke-width="3.2"/>
<circle clip-path="url(#clip561)" cx="1690.11" cy="1216.91" r="14.4" fill="#00008b" fill-rule="evenodd" fill-opacity="1" stroke="#000000" stroke-opacity="1" stroke-width="3.2"/>
<circle clip-path="url(#clip561)" cx="1690.11" cy="1217.1" r="14.4" fill="#00008b" fill-rule="evenodd" fill-opacity="1" stroke="#000000" stroke-opacity="1" stroke-width="3.2"/>
<circle clip-path="url(#clip561)" cx="1690.11" cy="1216.17" r="14.4" fill="#00008b" fill-rule="evenodd" fill-opacity="1" stroke="#000000" stroke-opacity="1" stroke-width="3.2"/>
<circle clip-path="url(#clip561)" cx="2119.29" cy="791.016" r="14.4" fill="#00008b" fill-rule="evenodd" fill-opacity="1" stroke="#000000" stroke-opacity="1" stroke-width="3.2"/>
<circle clip-path="url(#clip561)" cx="2119.29" cy="884.507" r="14.4" fill="#00008b" fill-rule="evenodd" fill-opacity="1" stroke="#000000" stroke-opacity="1" stroke-width="3.2"/>
<circle clip-path="url(#clip561)" cx="2119.29" cy="892.326" r="14.4" fill="#00008b" fill-rule="evenodd" fill-opacity="1" stroke="#000000" stroke-opacity="1" stroke-width="3.2"/>
<circle clip-path="url(#clip561)" cx="2119.29" cy="885.238" r="14.4" fill="#00008b" fill-rule="evenodd" fill-opacity="1" stroke="#000000" stroke-opacity="1" stroke-width="3.2"/>
<circle clip-path="url(#clip561)" cx="2119.29" cy="783.247" r="14.4" fill="#00008b" fill-rule="evenodd" fill-opacity="1" stroke="#000000" stroke-opacity="1" stroke-width="3.2"/>
<circle clip-path="url(#clip561)" cx="2119.29" cy="796.213" r="14.4" fill="#00008b" fill-rule="evenodd" fill-opacity="1" stroke="#000000" stroke-opacity="1" stroke-width="3.2"/>
<polyline clip-path="url(#clip561)" style="stroke:#00008b; stroke-linecap:round; stroke-linejoin:round; stroke-width:0; stroke-opacity:1; fill:none" points="402.592,1443.7 316.757,1443.7 488.426,1443.7 402.592,1443.7 402.592,1439.88 "/>
<polyline clip-path="url(#clip561)" style="stroke:#00008b; stroke-linecap:round; stroke-linejoin:round; stroke-width:0; stroke-opacity:1; fill:none" points="574.261,1439.88 574.261,1438.51 230.922,1438.51 230.922,1439.88 574.261,1439.88 574.261,1438.51 "/>
<polyline clip-path="url(#clip561)" style="stroke:#00008b; stroke-linecap:round; stroke-linejoin:round; stroke-width:0; stroke-opacity:1; fill:none" points="574.261,1437.26 230.922,1437.26 230.922,1438.51 574.261,1438.51 574.261,1437.26 402.592,1437.26 "/>
<polyline clip-path="url(#clip561)" style="stroke:#00008b; stroke-linecap:round; stroke-linejoin:round; stroke-width:0; stroke-opacity:1; fill:none" points="402.592,1433.36 316.757,1433.36 488.426,1433.36 402.592,1433.36 402.592,1437.26 "/>
<polyline clip-path="url(#clip561)" style="stroke:#00008b; stroke-linecap:round; stroke-linejoin:round; stroke-width:0; stroke-opacity:1; fill:none" points="831.765,1396.71 745.93,1396.71 917.6,1396.71 831.765,1396.71 831.765,1389.1 "/>
<polyline clip-path="url(#clip561)" style="stroke:#00008b; stroke-linecap:round; stroke-linejoin:round; stroke-width:0; stroke-opacity:1; fill:none" points="1003.43,1389.1 1003.43,1386.53 660.096,1386.53 660.096,1389.1 1003.43,1389.1 1003.43,1386.53 "/>
<polyline clip-path="url(#clip561)" style="stroke:#00008b; stroke-linecap:round; stroke-linejoin:round; stroke-width:0; stroke-opacity:1; fill:none" points="1003.43,1383.99 660.096,1383.99 660.096,1386.53 1003.43,1386.53 1003.43,1383.99 831.765,1383.99 "/>
<polyline clip-path="url(#clip561)" style="stroke:#00008b; stroke-linecap:round; stroke-linejoin:round; stroke-width:0; stroke-opacity:1; fill:none" points="831.765,1376.55 745.93,1376.55 917.6,1376.55 831.765,1376.55 831.765,1383.99 "/>
<polyline clip-path="url(#clip561)" style="stroke:#00008b; stroke-linecap:round; stroke-linejoin:round; stroke-width:0; stroke-opacity:1; fill:none" points="1260.94,1335.35 1175.1,1335.35 1346.77,1335.35 1260.94,1335.35 1260.94,1325.23 "/>
<polyline clip-path="url(#clip561)" style="stroke:#00008b; stroke-linecap:round; stroke-linejoin:round; stroke-width:0; stroke-opacity:1; fill:none" points="1432.61,1325.23 1432.61,1321.69 1089.27,1321.69 1089.27,1325.23 1432.61,1325.23 1432.61,1321.69 "/>
<polyline clip-path="url(#clip561)" style="stroke:#00008b; stroke-linecap:round; stroke-linejoin:round; stroke-width:0; stroke-opacity:1; fill:none" points="1432.61,1318.49 1089.27,1318.49 1089.27,1321.69 1432.61,1321.69 1432.61,1318.49 1260.94,1318.49 "/>
<polyline clip-path="url(#clip561)" style="stroke:#00008b; stroke-linecap:round; stroke-linejoin:round; stroke-width:0; stroke-opacity:1; fill:none" points="1260.94,1308.75 1175.1,1308.75 1346.77,1308.75 1260.94,1308.75 1260.94,1318.49 "/>
<polyline clip-path="url(#clip561)" style="stroke:#00008b; stroke-linecap:round; stroke-linejoin:round; stroke-width:0; stroke-opacity:1; fill:none" points="1690.11,1213.93 1604.28,1213.93 1775.95,1213.93 1690.11,1213.93 1690.11,1198.74 "/>
<polyline clip-path="url(#clip561)" style="stroke:#00008b; stroke-linecap:round; stroke-linejoin:round; stroke-width:0; stroke-opacity:1; fill:none" points="1861.78,1198.74 1861.78,1194.22 1518.44,1194.22 1518.44,1198.74 1861.78,1198.74 1861.78,1194.22 "/>
<polyline clip-path="url(#clip561)" style="stroke:#00008b; stroke-linecap:round; stroke-linejoin:round; stroke-width:0; stroke-opacity:1; fill:none" points="1861.78,1188.6 1518.44,1188.6 1518.44,1194.22 1861.78,1194.22 1861.78,1188.6 1690.11,1188.6 "/>
<polyline clip-path="url(#clip561)" style="stroke:#00008b; stroke-linecap:round; stroke-linejoin:round; stroke-width:0; stroke-opacity:1; fill:none" points="1690.11,1173.58 1604.28,1173.58 1775.95,1173.58 1690.11,1173.58 1690.11,1188.6 "/>
<polyline clip-path="url(#clip561)" style="stroke:#00008b; stroke-linecap:round; stroke-linejoin:round; stroke-width:0; stroke-opacity:1; fill:none" points="2119.29,880.539 2033.45,880.539 2205.12,880.539 2119.29,880.539 2119.29,850.49 "/>
<polyline clip-path="url(#clip561)" style="stroke:#00008b; stroke-linecap:round; stroke-linejoin:round; stroke-width:0; stroke-opacity:1; fill:none" points="2290.95,850.49 2290.95,839.238 1947.62,839.238 1947.62,850.49 2290.95,850.49 2290.95,839.238 "/>
<polyline clip-path="url(#clip561)" style="stroke:#00008b; stroke-linecap:round; stroke-linejoin:round; stroke-width:0; stroke-opacity:1; fill:none" points="2290.95,829.42 1947.62,829.42 1947.62,839.238 2290.95,839.238 2290.95,829.42 2119.29,829.42 "/>
<polyline clip-path="url(#clip561)" style="stroke:#00008b; stroke-linecap:round; stroke-linejoin:round; stroke-width:0; stroke-opacity:1; fill:none" points="2119.29,798.596 2033.45,798.596 2205.12,798.596 2119.29,798.596 2119.29,829.42 "/>
<polyline clip-path="url(#clip561)" style="stroke:#000000; stroke-linecap:round; stroke-linejoin:round; stroke-width:4; stroke-opacity:1; fill:none" stroke-dasharray="16, 10" points="-2014.51,87.9763 4536.39,87.9763 "/>
</svg>
