<?xml version="1.0" encoding="utf-8"?>
<svg xmlns="http://www.w3.org/2000/svg" xmlns:xlink="http://www.w3.org/1999/xlink" width="600" height="400" viewBox="0 0 2400 1600">
<defs>
  <clipPath id="clip830">
    <rect x="0" y="0" width="2400" height="1600"/>
  </clipPath>
</defs>
<path clip-path="url(#clip830)" d="M0 1600 L2400 1600 L2400 0 L0 0  Z" fill="#ffffff" fill-rule="evenodd" fill-opacity="1"/>
<defs>
  <clipPath id="clip831">
    <rect x="141" y="47" width="2212" height="1440"/>
  </clipPath>
</defs>
<path clip-path="url(#clip830)" d="M141.853 1486.45 L2352.76 1486.45 L2352.76 47.2441 L141.853 47.2441  Z" fill="#ffffff" fill-rule="evenodd" fill-opacity="1"/>
<polyline clip-path="url(#clip831)" style="stroke:#000000; stroke-linecap:round; stroke-linejoin:round; stroke-width:2; stroke-opacity:0.1; fill:none" points="427.431,1486.45 427.431,47.2441 "/>
<polyline clip-path="url(#clip831)" style="stroke:#000000; stroke-linecap:round; stroke-linejoin:round; stroke-width:2; stroke-opacity:0.1; fill:none" points="837.368,1486.45 837.368,47.2441 "/>
<polyline clip-path="url(#clip831)" style="stroke:#000000; stroke-linecap:round; stroke-linejoin:round; stroke-width:2; stroke-opacity:0.1; fill:none" points="1247.3,1486.45 1247.3,47.2441 "/>
<polyline clip-path="url(#clip831)" style="stroke:#000000; stroke-linecap:round; stroke-linejoin:round; stroke-width:2; stroke-opacity:0.1; fill:none" points="1657.24,1486.45 1657.24,47.2441 "/>
<polyline clip-path="url(#clip831)" style="stroke:#000000; stroke-linecap:round; stroke-linejoin:round; stroke-width:2; stroke-opacity:0.1; fill:none" points="2067.18,1486.45 2067.18,47.2441 "/>
<polyline clip-path="url(#clip831)" style="stroke:#000000; stroke-linecap:round; stroke-linejoin:round; stroke-width:2; stroke-opacity:0.1; fill:none" points="141.853,1486.45 2352.76,1486.45 "/>
<polyline clip-path="url(#clip831)" style="stroke:#000000; stroke-linecap:round; stroke-linejoin:round; stroke-width:2; stroke-opacity:0.1; fill:none" points="141.853,1192.65 2352.76,1192.65 "/>
<polyline clip-path="url(#clip831)" style="stroke:#000000; stroke-linecap:round; stroke-linejoin:round; stroke-width:2; stroke-opacity:0.1; fill:none" points="141.853,898.849 2352.76,898.849 "/>
<polyline clip-path="url(#clip831)" style="stroke:#000000; stroke-linecap:round; stroke-linejoin:round; stroke-width:2; stroke-opacity:0.1; fill:none" points="141.853,605.05 2352.76,605.05 "/>
<polyline clip-path="url(#clip831)" style="stroke:#000000; stroke-linecap:round; stroke-linejoin:round; stroke-width:2; stroke-opacity:0.1; fill:none" points="141.853,311.251 2352.76,311.251 "/>
<polyline clip-path="url(#clip830)" style="stroke:#000000; stroke-linecap:round; stroke-linejoin:round; stroke-width:4; stroke-opacity:1; fill:none" points="141.853,1486.45 2352.76,1486.45 "/>
<polyline clip-path="url(#clip830)" style="stroke:#000000; stroke-linecap:round; stroke-linejoin:round; stroke-width:4; stroke-opacity:1; fill:none" points="427.431,1486.45 427.431,1467.55 "/>
<polyline clip-path="url(#clip830)" style="stroke:#000000; stroke-linecap:round; stroke-linejoin:round; stroke-width:4; stroke-opacity:1; fill:none" points="837.368,1486.45 837.368,1467.55 "/>
<polyline clip-path="url(#clip830)" style="stroke:#000000; stroke-linecap:round; stroke-linejoin:round; stroke-width:4; stroke-opacity:1; fill:none" points="1247.3,1486.45 1247.3,1467.55 "/>
<polyline clip-path="url(#clip830)" style="stroke:#000000; stroke-linecap:round; stroke-linejoin:round; stroke-width:4; stroke-opacity:1; fill:none" points="1657.24,1486.45 1657.24,1467.55 "/>
<polyline clip-path="url(#clip830)" style="stroke:#000000; stroke-linecap:round; stroke-linejoin:round; stroke-width:4; stroke-opacity:1; fill:none" points="2067.18,1486.45 2067.18,1467.55 "/>
<path clip-path="url(#clip830)" d="M402.119 1544.91 L409.758 1544.91 L409.758 1518.55 L401.448 1520.21 L401.448 1515.95 L409.711 1514.29 L414.387 1514.29 L414.387 1544.91 L422.026 1544.91 L422.026 1548.85 L402.119 1548.85 L402.119 1544.91 Z" fill="#000000" fill-rule="nonzero" fill-opacity="1" /><path clip-path="url(#clip830)" d="M441.47 1517.37 Q437.859 1517.37 436.031 1520.93 Q434.225 1524.47 434.225 1531.6 Q434.225 1538.71 436.031 1542.27 Q437.859 1545.82 441.47 1545.82 Q445.105 1545.82 446.91 1542.27 Q448.739 1538.71 448.739 1531.6 Q448.739 1524.47 446.91 1520.93 Q445.105 1517.37 441.47 1517.37 M441.47 1513.66 Q447.281 1513.66 450.336 1518.27 Q453.415 1522.85 453.415 1531.6 Q453.415 1540.33 450.336 1544.94 Q447.281 1549.52 441.47 1549.52 Q435.66 1549.52 432.582 1544.94 Q429.526 1540.33 429.526 1531.6 Q429.526 1522.85 432.582 1518.27 Q435.66 1513.66 441.47 1513.66 Z" fill="#000000" fill-rule="nonzero" fill-opacity="1" /><path clip-path="url(#clip830)" d="M812.067 1514.29 L830.423 1514.29 L830.423 1518.22 L816.349 1518.22 L816.349 1526.7 Q817.368 1526.35 818.386 1526.19 Q819.405 1526 820.423 1526 Q826.21 1526 829.59 1529.17 Q832.97 1532.34 832.97 1537.76 Q832.97 1543.34 829.497 1546.44 Q826.025 1549.52 819.706 1549.52 Q817.53 1549.52 815.261 1549.15 Q813.016 1548.78 810.609 1548.04 L810.609 1543.34 Q812.692 1544.47 814.914 1545.03 Q817.136 1545.58 819.613 1545.58 Q823.618 1545.58 825.956 1543.48 Q828.294 1541.37 828.294 1537.76 Q828.294 1534.15 825.956 1532.04 Q823.618 1529.94 819.613 1529.94 Q817.738 1529.94 815.863 1530.35 Q814.011 1530.77 812.067 1531.65 L812.067 1514.29 Z" fill="#000000" fill-rule="nonzero" fill-opacity="1" /><path clip-path="url(#clip830)" d="M852.183 1517.37 Q848.571 1517.37 846.743 1520.93 Q844.937 1524.47 844.937 1531.6 Q844.937 1538.71 846.743 1542.27 Q848.571 1545.82 852.183 1545.82 Q855.817 1545.82 857.622 1542.27 Q859.451 1538.71 859.451 1531.6 Q859.451 1524.47 857.622 1520.93 Q855.817 1517.37 852.183 1517.37 M852.183 1513.66 Q857.993 1513.66 861.048 1518.27 Q864.127 1522.85 864.127 1531.6 Q864.127 1540.33 861.048 1544.94 Q857.993 1549.52 852.183 1549.52 Q846.372 1549.52 843.294 1544.94 Q840.238 1540.33 840.238 1531.6 Q840.238 1522.85 843.294 1518.27 Q846.372 1513.66 852.183 1513.66 Z" fill="#000000" fill-rule="nonzero" fill-opacity="1" /><path clip-path="url(#clip830)" d="M1206.91 1544.91 L1214.55 1544.91 L1214.55 1518.55 L1206.24 1520.21 L1206.24 1515.95 L1214.5 1514.29 L1219.18 1514.29 L1219.18 1544.91 L1226.82 1544.91 L1226.82 1548.85 L1206.91 1548.85 L1206.91 1544.91 Z" fill="#000000" fill-rule="nonzero" fill-opacity="1" /><path clip-path="url(#clip830)" d="M1246.26 1517.37 Q1242.65 1517.37 1240.82 1520.93 Q1239.02 1524.47 1239.02 1531.6 Q1239.02 1538.71 1240.82 1542.27 Q1242.65 1545.82 1246.26 1545.82 Q1249.9 1545.82 1251.7 1542.27 Q1253.53 1538.71 1253.53 1531.6 Q1253.53 1524.47 1251.7 1520.93 Q1249.9 1517.37 1246.26 1517.37 M1246.26 1513.66 Q1252.07 1513.66 1255.13 1518.27 Q1258.21 1522.85 1258.21 1531.6 Q1258.21 1540.33 1255.13 1544.94 Q1252.07 1549.52 1246.26 1549.52 Q1240.45 1549.52 1237.37 1544.94 Q1234.32 1540.33 1234.32 1531.6 Q1234.32 1522.85 1237.37 1518.27 Q1240.45 1513.66 1246.26 1513.66 Z" fill="#000000" fill-rule="nonzero" fill-opacity="1" /><path clip-path="url(#clip830)" d="M1276.42 1517.37 Q1272.81 1517.37 1270.98 1520.93 Q1269.18 1524.47 1269.18 1531.6 Q1269.18 1538.71 1270.98 1542.27 Q1272.81 1545.82 1276.42 1545.82 Q1280.06 1545.82 1281.86 1542.27 Q1283.69 1538.71 1283.69 1531.6 Q1283.69 1524.47 1281.86 1520.93 Q1280.06 1517.37 1276.42 1517.37 M1276.42 1513.66 Q1282.23 1513.66 1285.29 1518.27 Q1288.37 1522.85 1288.37 1531.6 Q1288.37 1540.33 1285.29 1544.94 Q1282.23 1549.52 1276.42 1549.52 Q1270.61 1549.52 1267.54 1544.94 Q1264.48 1540.33 1264.48 1531.6 Q1264.48 1522.85 1267.54 1518.27 Q1270.61 1513.66 1276.42 1513.66 Z" fill="#000000" fill-rule="nonzero" fill-opacity="1" /><path clip-path="url(#clip830)" d="M1620.93 1544.91 L1637.25 1544.91 L1637.25 1548.85 L1615.31 1548.85 L1615.31 1544.91 Q1617.97 1542.16 1622.55 1537.53 Q1627.16 1532.88 1628.34 1531.53 Q1630.59 1529.01 1631.47 1527.27 Q1632.37 1525.51 1632.37 1523.82 Q1632.37 1521.07 1630.42 1519.33 Q1628.5 1517.6 1625.4 1517.6 Q1623.2 1517.6 1620.75 1518.36 Q1618.32 1519.13 1615.54 1520.68 L1615.54 1515.95 Q1618.36 1514.82 1620.82 1514.24 Q1623.27 1513.66 1625.31 1513.66 Q1630.68 1513.66 1633.87 1516.35 Q1637.07 1519.03 1637.07 1523.52 Q1637.07 1525.65 1636.26 1527.57 Q1635.47 1529.47 1633.36 1532.07 Q1632.79 1532.74 1629.68 1535.95 Q1626.58 1539.15 1620.93 1544.91 Z" fill="#000000" fill-rule="nonzero" fill-opacity="1" /><path clip-path="url(#clip830)" d="M1657.07 1517.37 Q1653.46 1517.37 1651.63 1520.93 Q1649.82 1524.47 1649.82 1531.6 Q1649.82 1538.71 1651.63 1542.27 Q1653.46 1545.82 1657.07 1545.82 Q1660.7 1545.82 1662.51 1542.27 Q1664.34 1538.71 1664.34 1531.6 Q1664.34 1524.47 1662.51 1520.93 Q1660.7 1517.37 1657.07 1517.37 M1657.07 1513.66 Q1662.88 1513.66 1665.93 1518.27 Q1669.01 1522.85 1669.01 1531.6 Q1669.01 1540.33 1665.93 1544.94 Q1662.88 1549.52 1657.07 1549.52 Q1651.26 1549.52 1648.18 1544.94 Q1645.12 1540.33 1645.12 1531.6 Q1645.12 1522.85 1648.18 1518.27 Q1651.26 1513.66 1657.07 1513.66 Z" fill="#000000" fill-rule="nonzero" fill-opacity="1" /><path clip-path="url(#clip830)" d="M1687.23 1517.37 Q1683.62 1517.37 1681.79 1520.93 Q1679.98 1524.47 1679.98 1531.6 Q1679.98 1538.71 1681.79 1542.27 Q1683.62 1545.82 1687.23 1545.82 Q1690.86 1545.82 1692.67 1542.27 Q1694.5 1538.71 1694.5 1531.6 Q1694.5 1524.47 1692.67 1520.93 Q1690.86 1517.37 1687.23 1517.37 M1687.23 1513.66 Q1693.04 1513.66 1696.1 1518.27 Q1699.17 1522.85 1699.17 1531.6 Q1699.17 1540.33 1696.1 1544.94 Q1693.04 1549.52 1687.23 1549.52 Q1681.42 1549.52 1678.34 1544.94 Q1675.28 1540.33 1675.28 1531.6 Q1675.28 1522.85 1678.34 1518.27 Q1681.42 1513.66 1687.23 1513.66 Z" fill="#000000" fill-rule="nonzero" fill-opacity="1" /><path clip-path="url(#clip830)" d="M2026.8 1514.29 L2045.15 1514.29 L2045.15 1518.22 L2031.08 1518.22 L2031.08 1526.7 Q2032.1 1526.35 2033.12 1526.19 Q2034.13 1526 2035.15 1526 Q2040.94 1526 2044.32 1529.17 Q2047.7 1532.34 2047.7 1537.76 Q2047.7 1543.34 2044.23 1546.44 Q2040.75 1549.52 2034.43 1549.52 Q2032.26 1549.52 2029.99 1549.15 Q2027.75 1548.78 2025.34 1548.04 L2025.34 1543.34 Q2027.42 1544.47 2029.64 1545.03 Q2031.87 1545.58 2034.34 1545.58 Q2038.35 1545.58 2040.68 1543.48 Q2043.02 1541.37 2043.02 1537.76 Q2043.02 1534.15 2040.68 1532.04 Q2038.35 1529.94 2034.34 1529.94 Q2032.47 1529.94 2030.59 1530.35 Q2028.74 1530.77 2026.8 1531.65 L2026.8 1514.29 Z" fill="#000000" fill-rule="nonzero" fill-opacity="1" /><path clip-path="url(#clip830)" d="M2066.91 1517.37 Q2063.3 1517.37 2061.47 1520.93 Q2059.67 1524.47 2059.67 1531.6 Q2059.67 1538.71 2061.47 1542.27 Q2063.3 1545.82 2066.91 1545.82 Q2070.55 1545.82 2072.35 1542.27 Q2074.18 1538.71 2074.18 1531.6 Q2074.18 1524.47 2072.35 1520.93 Q2070.55 1517.37 2066.91 1517.37 M2066.91 1513.66 Q2072.72 1513.66 2075.78 1518.27 Q2078.86 1522.85 2078.86 1531.6 Q2078.86 1540.33 2075.78 1544.94 Q2072.72 1549.52 2066.91 1549.52 Q2061.1 1549.52 2058.02 1544.94 Q2054.97 1540.33 2054.97 1531.6 Q2054.97 1522.85 2058.02 1518.27 Q2061.1 1513.66 2066.91 1513.66 Z" fill="#000000" fill-rule="nonzero" fill-opacity="1" /><path clip-path="url(#clip830)" d="M2097.07 1517.37 Q2093.46 1517.37 2091.63 1520.93 Q2089.83 1524.47 2089.83 1531.6 Q2089.83 1538.71 2091.63 1542.27 Q2093.46 1545.82 2097.07 1545.82 Q2100.71 1545.82 2102.51 1542.27 Q2104.34 1538.71 2104.34 1531.6 Q2104.34 1524.47 2102.51 1520.93 Q2100.71 1517.37 2097.07 1517.37 M2097.07 1513.66 Q2102.88 1513.66 2105.94 1518.27 Q2109.02 1522.85 2109.02 1531.6 Q2109.02 1540.33 2105.94 1544.94 Q2102.88 1549.52 2097.07 1549.52 Q2091.26 1549.52 2088.18 1544.94 Q2085.13 1540.33 2085.13 1531.6 Q2085.13 1522.85 2088.18 1518.27 Q2091.26 1513.66 2097.07 1513.66 Z" fill="#000000" fill-rule="nonzero" fill-opacity="1" /><polyline clip-path="url(#clip830)" style="stroke:#000000; stroke-linecap:round; stroke-linejoin:round; stroke-width:4; stroke-opacity:1; fill:none" points="141.853,1486.45 141.853,47.2441 "/>
<polyline clip-path="url(#clip830)" style="stroke:#000000; stroke-linecap:round; stroke-linejoin:round; stroke-width:4; stroke-opacity:1; fill:none" points="141.853,1486.45 160.751,1486.45 "/>
<polyline clip-path="url(#clip830)" style="stroke:#000000; stroke-linecap:round; stroke-linejoin:round; stroke-width:4; stroke-opacity:1; fill:none" points="141.853,1192.65 160.751,1192.65 "/>
<polyline clip-path="url(#clip830)" style="stroke:#000000; stroke-linecap:round; stroke-linejoin:round; stroke-width:4; stroke-opacity:1; fill:none" points="141.853,898.849 160.751,898.849 "/>
<polyline clip-path="url(#clip830)" style="stroke:#000000; stroke-linecap:round; stroke-linejoin:round; stroke-width:4; stroke-opacity:1; fill:none" points="141.853,605.05 160.751,605.05 "/>
<polyline clip-path="url(#clip830)" style="stroke:#000000; stroke-linecap:round; stroke-linejoin:round; stroke-width:4; stroke-opacity:1; fill:none" points="141.853,311.251 160.751,311.251 "/>
<path clip-path="url(#clip830)" d="M93.9086 1472.25 Q90.2975 1472.25 88.4688 1475.81 Q86.6632 1479.35 86.6632 1486.48 Q86.6632 1493.59 88.4688 1497.15 Q90.2975 1500.7 93.9086 1500.7 Q97.5428 1500.7 99.3483 1497.15 Q101.177 1493.59 101.177 1486.48 Q101.177 1479.35 99.3483 1475.81 Q97.5428 1472.25 93.9086 1472.25 M93.9086 1468.54 Q99.7187 1468.54 102.774 1473.15 Q105.853 1477.73 105.853 1486.48 Q105.853 1495.21 102.774 1499.82 Q99.7187 1504.4 93.9086 1504.4 Q88.0984 1504.4 85.0197 1499.82 Q81.9642 1495.21 81.9642 1486.48 Q81.9642 1477.73 85.0197 1473.15 Q88.0984 1468.54 93.9086 1468.54 Z" fill="#000000" fill-rule="nonzero" fill-opacity="1" /><path clip-path="url(#clip830)" d="M54.5569 1205.99 L62.1958 1205.99 L62.1958 1179.63 L53.8856 1181.29 L53.8856 1177.04 L62.1495 1175.37 L66.8254 1175.37 L66.8254 1205.99 L74.4642 1205.99 L74.4642 1209.93 L54.5569 1209.93 L54.5569 1205.99 Z" fill="#000000" fill-rule="nonzero" fill-opacity="1" /><path clip-path="url(#clip830)" d="M93.9086 1178.45 Q90.2975 1178.45 88.4688 1182.01 Q86.6632 1185.55 86.6632 1192.68 Q86.6632 1199.79 88.4688 1203.35 Q90.2975 1206.9 93.9086 1206.9 Q97.5428 1206.9 99.3483 1203.35 Q101.177 1199.79 101.177 1192.68 Q101.177 1185.55 99.3483 1182.01 Q97.5428 1178.45 93.9086 1178.45 M93.9086 1174.74 Q99.7187 1174.74 102.774 1179.35 Q105.853 1183.93 105.853 1192.68 Q105.853 1201.41 102.774 1206.02 Q99.7187 1210.6 93.9086 1210.6 Q88.0984 1210.6 85.0197 1206.02 Q81.9642 1201.41 81.9642 1192.68 Q81.9642 1183.93 85.0197 1179.35 Q88.0984 1174.74 93.9086 1174.74 Z" fill="#000000" fill-rule="nonzero" fill-opacity="1" /><path clip-path="url(#clip830)" d="M57.7745 912.194 L74.0939 912.194 L74.0939 916.129 L52.1495 916.129 L52.1495 912.194 Q54.8115 909.439 59.3949 904.81 Q64.0013 900.157 65.1819 898.815 Q67.4272 896.291 68.3068 894.555 Q69.2096 892.796 69.2096 891.106 Q69.2096 888.352 67.2652 886.616 Q65.3439 884.879 62.2421 884.879 Q60.043 884.879 57.5893 885.643 Q55.1588 886.407 52.381 887.958 L52.381 883.236 Q55.2051 882.102 57.6588 881.523 Q60.1124 880.944 62.1495 880.944 Q67.5198 880.944 70.7142 883.629 Q73.9087 886.315 73.9087 890.805 Q73.9087 892.935 73.0985 894.856 Q72.3115 896.754 70.205 899.347 Q69.6263 900.018 66.5245 903.236 Q63.4226 906.43 57.7745 912.194 Z" fill="#000000" fill-rule="nonzero" fill-opacity="1" /><path clip-path="url(#clip830)" d="M93.9086 884.648 Q90.2975 884.648 88.4688 888.213 Q86.6632 891.754 86.6632 898.884 Q86.6632 905.99 88.4688 909.555 Q90.2975 913.097 93.9086 913.097 Q97.5428 913.097 99.3483 909.555 Q101.177 905.99 101.177 898.884 Q101.177 891.754 99.3483 888.213 Q97.5428 884.648 93.9086 884.648 M93.9086 880.944 Q99.7187 880.944 102.774 885.551 Q105.853 890.134 105.853 898.884 Q105.853 907.611 102.774 912.217 Q99.7187 916.801 93.9086 916.801 Q88.0984 916.801 85.0197 912.217 Q81.9642 907.611 81.9642 898.884 Q81.9642 890.134 85.0197 885.551 Q88.0984 880.944 93.9086 880.944 Z" fill="#000000" fill-rule="nonzero" fill-opacity="1" /><path clip-path="url(#clip830)" d="M67.9133 603.696 Q71.2698 604.413 73.1448 606.682 Q75.0429 608.95 75.0429 612.284 Q75.0429 617.399 71.5244 620.2 Q68.0059 623.001 61.5245 623.001 Q59.3486 623.001 57.0338 622.561 Q54.7421 622.145 52.2884 621.288 L52.2884 616.774 Q54.2328 617.909 56.5477 618.487 Q58.8625 619.066 61.3856 619.066 Q65.7837 619.066 68.0754 617.33 Q70.3902 615.594 70.3902 612.284 Q70.3902 609.228 68.2374 607.515 Q66.1078 605.779 62.2884 605.779 L58.2606 605.779 L58.2606 601.937 L62.4735 601.937 Q65.9226 601.937 67.7513 600.571 Q69.58 599.182 69.58 596.589 Q69.58 593.927 67.6819 592.515 Q65.8069 591.08 62.2884 591.08 Q60.3671 591.08 58.168 591.497 Q55.969 591.913 53.3301 592.793 L53.3301 588.626 Q55.9921 587.886 58.3069 587.515 Q60.6449 587.145 62.705 587.145 Q68.0291 587.145 71.1309 589.576 Q74.2327 591.983 74.2327 596.103 Q74.2327 598.974 72.5892 600.964 Q70.9457 602.932 67.9133 603.696 Z" fill="#000000" fill-rule="nonzero" fill-opacity="1" /><path clip-path="url(#clip830)" d="M93.9086 590.849 Q90.2975 590.849 88.4688 594.413 Q86.6632 597.955 86.6632 605.085 Q86.6632 612.191 88.4688 615.756 Q90.2975 619.298 93.9086 619.298 Q97.5428 619.298 99.3483 615.756 Q101.177 612.191 101.177 605.085 Q101.177 597.955 99.3483 594.413 Q97.5428 590.849 93.9086 590.849 M93.9086 587.145 Q99.7187 587.145 102.774 591.751 Q105.853 596.335 105.853 605.085 Q105.853 613.811 102.774 618.418 Q99.7187 623.001 93.9086 623.001 Q88.0984 623.001 85.0197 618.418 Q81.9642 613.811 81.9642 605.085 Q81.9642 596.335 85.0197 591.751 Q88.0984 587.145 93.9086 587.145 Z" fill="#000000" fill-rule="nonzero" fill-opacity="1" /><path clip-path="url(#clip830)" d="M66.5939 298.045 L54.7884 316.494 L66.5939 316.494 L66.5939 298.045 M65.367 293.971 L71.2466 293.971 L71.2466 316.494 L76.1772 316.494 L76.1772 320.383 L71.2466 320.383 L71.2466 328.531 L66.5939 328.531 L66.5939 320.383 L50.9921 320.383 L50.9921 315.869 L65.367 293.971 Z" fill="#000000" fill-rule="nonzero" fill-opacity="1" /><path clip-path="url(#clip830)" d="M93.9086 297.049 Q90.2975 297.049 88.4688 300.614 Q86.6632 304.156 86.6632 311.285 Q86.6632 318.392 88.4688 321.957 Q90.2975 325.498 93.9086 325.498 Q97.5428 325.498 99.3483 321.957 Q101.177 318.392 101.177 311.285 Q101.177 304.156 99.3483 300.614 Q97.5428 297.049 93.9086 297.049 M93.9086 293.346 Q99.7187 293.346 102.774 297.952 Q105.853 302.535 105.853 311.285 Q105.853 320.012 102.774 324.619 Q99.7187 329.202 93.9086 329.202 Q88.0984 329.202 85.0197 324.619 Q81.9642 320.012 81.9642 311.285 Q81.9642 302.535 85.0197 297.952 Q88.0984 293.346 93.9086 293.346 Z" fill="#000000" fill-rule="nonzero" fill-opacity="1" /><path clip-path="url(#clip831)" d="M263.457 47.2441 L263.457 1486.45 L591.406 1486.45 L591.406 47.2441 L263.457 47.2441 L263.457 47.2441  Z" fill="#ff0000" fill-rule="evenodd" fill-opacity="1"/>
<polyline clip-path="url(#clip831)" style="stroke:#000000; stroke-linecap:round; stroke-linejoin:round; stroke-width:4; stroke-opacity:1; fill:none" points="263.457,47.2441 263.457,1486.45 591.406,1486.45 591.406,47.2441 263.457,47.2441 "/>
<path clip-path="url(#clip831)" d="M673.393 1087.63 L673.393 1486.45 L1001.34 1486.45 L1001.34 1087.63 L673.393 1087.63 L673.393 1087.63  Z" fill="#ff0000" fill-rule="evenodd" fill-opacity="1"/>
<polyline clip-path="url(#clip831)" style="stroke:#000000; stroke-linecap:round; stroke-linejoin:round; stroke-width:4; stroke-opacity:1; fill:none" points="673.393,1087.63 673.393,1486.45 1001.34,1486.45 1001.34,1087.63 673.393,1087.63 "/>
<path clip-path="url(#clip831)" d="M1083.33 1277.41 L1083.33 1486.45 L1411.28 1486.45 L1411.28 1277.41 L1083.33 1277.41 L1083.33 1277.41  Z" fill="#ff0000" fill-rule="evenodd" fill-opacity="1"/>
<polyline clip-path="url(#clip831)" style="stroke:#000000; stroke-linecap:round; stroke-linejoin:round; stroke-width:4; stroke-opacity:1; fill:none" points="1083.33,1277.41 1083.33,1486.45 1411.28,1486.45 1411.28,1277.41 1083.33,1277.41 "/>
<path clip-path="url(#clip831)" d="M1493.27 1373.8 L1493.27 1486.45 L1821.22 1486.45 L1821.22 1373.8 L1493.27 1373.8 L1493.27 1373.8  Z" fill="#ff0000" fill-rule="evenodd" fill-opacity="1"/>
<polyline clip-path="url(#clip831)" style="stroke:#000000; stroke-linecap:round; stroke-linejoin:round; stroke-width:4; stroke-opacity:1; fill:none" points="1493.27,1373.8 1493.27,1486.45 1821.22,1486.45 1821.22,1373.8 1493.27,1373.8 "/>
<path clip-path="url(#clip831)" d="M1903.2 1441.46 L1903.2 1486.45 L2231.15 1486.45 L2231.15 1441.46 L1903.2 1441.46 L1903.2 1441.46  Z" fill="#ff0000" fill-rule="evenodd" fill-opacity="1"/>
<polyline clip-path="url(#clip831)" style="stroke:#000000; stroke-linecap:round; stroke-linejoin:round; stroke-width:4; stroke-opacity:1; fill:none" points="1903.2,1441.46 1903.2,1486.45 2231.15,1486.45 2231.15,1441.46 1903.2,1441.46 "/>
<circle clip-path="url(#clip831)" style="fill:#ff0000; stroke:none; fill-opacity:0" cx="427.431" cy="47.2441" r="2"/>
<circle clip-path="url(#clip831)" style="fill:#ff0000; stroke:none; fill-opacity:0" cx="837.368" cy="1087.63" r="2"/>
<circle clip-path="url(#clip831)" style="fill:#ff0000; stroke:none; fill-opacity:0" cx="1247.3" cy="1277.41" r="2"/>
<circle clip-path="url(#clip831)" style="fill:#ff0000; stroke:none; fill-opacity:0" cx="1657.24" cy="1373.8" r="2"/>
<circle clip-path="url(#clip831)" style="fill:#ff0000; stroke:none; fill-opacity:0" cx="2067.18" cy="1441.46" r="2"/>
</svg>
