<?xml version="1.0" encoding="utf-8"?>
<svg xmlns="http://www.w3.org/2000/svg" xmlns:xlink="http://www.w3.org/1999/xlink" width="600" height="400" viewBox="0 0 2400 1600">
<defs>
  <clipPath id="clip710">
    <rect x="0" y="0" width="2400" height="1600"/>
  </clipPath>
</defs>
<path clip-path="url(#clip710)" d="M0 1600 L2400 1600 L2400 0 L0 0  Z" fill="#ffffff" fill-rule="evenodd" fill-opacity="1"/>
<defs>
  <clipPath id="clip711">
    <rect x="112" y="47" width="2242" height="1440"/>
  </clipPath>
</defs>
<path clip-path="url(#clip710)" d="M112.177 1486.45 L2352.76 1486.45 L2352.76 47.2441 L112.177 47.2441  Z" fill="#ffffff" fill-rule="evenodd" fill-opacity="1"/>
<polyline clip-path="url(#clip711)" style="stroke:#000000; stroke-linecap:round; stroke-linejoin:round; stroke-width:2; stroke-opacity:0.1; fill:none" points="351.736,1486.45 351.736,47.2441 "/>
<polyline clip-path="url(#clip711)" style="stroke:#000000; stroke-linecap:round; stroke-linejoin:round; stroke-width:2; stroke-opacity:0.1; fill:none" points="792.101,1486.45 792.101,47.2441 "/>
<polyline clip-path="url(#clip711)" style="stroke:#000000; stroke-linecap:round; stroke-linejoin:round; stroke-width:2; stroke-opacity:0.1; fill:none" points="1232.47,1486.45 1232.47,47.2441 "/>
<polyline clip-path="url(#clip711)" style="stroke:#000000; stroke-linecap:round; stroke-linejoin:round; stroke-width:2; stroke-opacity:0.1; fill:none" points="1672.83,1486.45 1672.83,47.2441 "/>
<polyline clip-path="url(#clip711)" style="stroke:#000000; stroke-linecap:round; stroke-linejoin:round; stroke-width:2; stroke-opacity:0.1; fill:none" points="2113.2,1486.45 2113.2,47.2441 "/>
<polyline clip-path="url(#clip711)" style="stroke:#000000; stroke-linecap:round; stroke-linejoin:round; stroke-width:2; stroke-opacity:0.1; fill:none" points="112.177,1466.28 2352.76,1466.28 "/>
<polyline clip-path="url(#clip711)" style="stroke:#000000; stroke-linecap:round; stroke-linejoin:round; stroke-width:2; stroke-opacity:0.1; fill:none" points="112.177,1252.03 2352.76,1252.03 "/>
<polyline clip-path="url(#clip711)" style="stroke:#000000; stroke-linecap:round; stroke-linejoin:round; stroke-width:2; stroke-opacity:0.1; fill:none" points="112.177,1037.77 2352.76,1037.77 "/>
<polyline clip-path="url(#clip711)" style="stroke:#000000; stroke-linecap:round; stroke-linejoin:round; stroke-width:2; stroke-opacity:0.1; fill:none" points="112.177,823.518 2352.76,823.518 "/>
<polyline clip-path="url(#clip711)" style="stroke:#000000; stroke-linecap:round; stroke-linejoin:round; stroke-width:2; stroke-opacity:0.1; fill:none" points="112.177,609.262 2352.76,609.262 "/>
<polyline clip-path="url(#clip711)" style="stroke:#000000; stroke-linecap:round; stroke-linejoin:round; stroke-width:2; stroke-opacity:0.1; fill:none" points="112.177,395.006 2352.76,395.006 "/>
<polyline clip-path="url(#clip711)" style="stroke:#000000; stroke-linecap:round; stroke-linejoin:round; stroke-width:2; stroke-opacity:0.1; fill:none" points="112.177,180.75 2352.76,180.75 "/>
<polyline clip-path="url(#clip710)" style="stroke:#000000; stroke-linecap:round; stroke-linejoin:round; stroke-width:4; stroke-opacity:1; fill:none" points="112.177,1486.45 2352.76,1486.45 "/>
<polyline clip-path="url(#clip710)" style="stroke:#000000; stroke-linecap:round; stroke-linejoin:round; stroke-width:4; stroke-opacity:1; fill:none" points="351.736,1486.45 351.736,1467.55 "/>
<polyline clip-path="url(#clip710)" style="stroke:#000000; stroke-linecap:round; stroke-linejoin:round; stroke-width:4; stroke-opacity:1; fill:none" points="792.101,1486.45 792.101,1467.55 "/>
<polyline clip-path="url(#clip710)" style="stroke:#000000; stroke-linecap:round; stroke-linejoin:round; stroke-width:4; stroke-opacity:1; fill:none" points="1232.47,1486.45 1232.47,1467.55 "/>
<polyline clip-path="url(#clip710)" style="stroke:#000000; stroke-linecap:round; stroke-linejoin:round; stroke-width:4; stroke-opacity:1; fill:none" points="1672.83,1486.45 1672.83,1467.55 "/>
<polyline clip-path="url(#clip710)" style="stroke:#000000; stroke-linecap:round; stroke-linejoin:round; stroke-width:4; stroke-opacity:1; fill:none" points="2113.2,1486.45 2113.2,1467.55 "/>
<path clip-path="url(#clip710)" d="M326.424 1544.91 L334.062 1544.91 L334.062 1518.55 L325.752 1520.21 L325.752 1515.95 L334.016 1514.29 L338.692 1514.29 L338.692 1544.91 L346.331 1544.91 L346.331 1548.85 L326.424 1548.85 L326.424 1544.91 Z" fill="#000000" fill-rule="nonzero" fill-opacity="1" /><path clip-path="url(#clip710)" d="M365.775 1517.37 Q362.164 1517.37 360.335 1520.93 Q358.53 1524.47 358.53 1531.6 Q358.53 1538.71 360.335 1542.27 Q362.164 1545.82 365.775 1545.82 Q369.409 1545.82 371.215 1542.27 Q373.044 1538.71 373.044 1531.6 Q373.044 1524.47 371.215 1520.93 Q369.409 1517.37 365.775 1517.37 M365.775 1513.66 Q371.585 1513.66 374.641 1518.27 Q377.72 1522.85 377.72 1531.6 Q377.72 1540.33 374.641 1544.94 Q371.585 1549.52 365.775 1549.52 Q359.965 1549.52 356.886 1544.94 Q353.831 1540.33 353.831 1531.6 Q353.831 1522.85 356.886 1518.27 Q359.965 1513.66 365.775 1513.66 Z" fill="#000000" fill-rule="nonzero" fill-opacity="1" /><path clip-path="url(#clip710)" d="M766.8 1514.29 L785.157 1514.29 L785.157 1518.22 L771.083 1518.22 L771.083 1526.7 Q772.101 1526.35 773.12 1526.19 Q774.138 1526 775.157 1526 Q780.944 1526 784.323 1529.17 Q787.703 1532.34 787.703 1537.76 Q787.703 1543.34 784.231 1546.44 Q780.759 1549.52 774.439 1549.52 Q772.263 1549.52 769.995 1549.15 Q767.75 1548.78 765.342 1548.04 L765.342 1543.34 Q767.425 1544.47 769.648 1545.03 Q771.87 1545.58 774.347 1545.58 Q778.351 1545.58 780.689 1543.48 Q783.027 1541.37 783.027 1537.76 Q783.027 1534.15 780.689 1532.04 Q778.351 1529.94 774.347 1529.94 Q772.472 1529.94 770.597 1530.35 Q768.745 1530.77 766.8 1531.65 L766.8 1514.29 Z" fill="#000000" fill-rule="nonzero" fill-opacity="1" /><path clip-path="url(#clip710)" d="M806.916 1517.37 Q803.305 1517.37 801.476 1520.93 Q799.671 1524.47 799.671 1531.6 Q799.671 1538.71 801.476 1542.27 Q803.305 1545.82 806.916 1545.82 Q810.55 1545.82 812.356 1542.27 Q814.184 1538.71 814.184 1531.6 Q814.184 1524.47 812.356 1520.93 Q810.55 1517.37 806.916 1517.37 M806.916 1513.66 Q812.726 1513.66 815.782 1518.27 Q818.86 1522.85 818.86 1531.6 Q818.86 1540.33 815.782 1544.94 Q812.726 1549.52 806.916 1549.52 Q801.106 1549.52 798.027 1544.94 Q794.972 1540.33 794.972 1531.6 Q794.972 1522.85 798.027 1518.27 Q801.106 1513.66 806.916 1513.66 Z" fill="#000000" fill-rule="nonzero" fill-opacity="1" /><path clip-path="url(#clip710)" d="M1192.07 1544.91 L1199.71 1544.91 L1199.71 1518.55 L1191.4 1520.21 L1191.4 1515.95 L1199.67 1514.29 L1204.34 1514.29 L1204.34 1544.91 L1211.98 1544.91 L1211.98 1548.85 L1192.07 1548.85 L1192.07 1544.91 Z" fill="#000000" fill-rule="nonzero" fill-opacity="1" /><path clip-path="url(#clip710)" d="M1231.42 1517.37 Q1227.81 1517.37 1225.99 1520.93 Q1224.18 1524.47 1224.18 1531.6 Q1224.18 1538.71 1225.99 1542.27 Q1227.81 1545.82 1231.42 1545.82 Q1235.06 1545.82 1236.86 1542.27 Q1238.69 1538.71 1238.69 1531.6 Q1238.69 1524.47 1236.86 1520.93 Q1235.06 1517.37 1231.42 1517.37 M1231.42 1513.66 Q1237.24 1513.66 1240.29 1518.27 Q1243.37 1522.85 1243.37 1531.6 Q1243.37 1540.33 1240.29 1544.94 Q1237.24 1549.52 1231.42 1549.52 Q1225.61 1549.52 1222.54 1544.94 Q1219.48 1540.33 1219.48 1531.6 Q1219.48 1522.85 1222.54 1518.27 Q1225.61 1513.66 1231.42 1513.66 Z" fill="#000000" fill-rule="nonzero" fill-opacity="1" /><path clip-path="url(#clip710)" d="M1261.59 1517.37 Q1257.98 1517.37 1256.15 1520.93 Q1254.34 1524.47 1254.34 1531.6 Q1254.34 1538.71 1256.15 1542.27 Q1257.98 1545.82 1261.59 1545.82 Q1265.22 1545.82 1267.03 1542.27 Q1268.86 1538.71 1268.86 1531.6 Q1268.86 1524.47 1267.03 1520.93 Q1265.22 1517.37 1261.59 1517.37 M1261.59 1513.66 Q1267.4 1513.66 1270.45 1518.27 Q1273.53 1522.85 1273.53 1531.6 Q1273.53 1540.33 1270.45 1544.94 Q1267.4 1549.52 1261.59 1549.52 Q1255.78 1549.52 1252.7 1544.94 Q1249.64 1540.33 1249.64 1531.6 Q1249.64 1522.85 1252.7 1518.27 Q1255.78 1513.66 1261.59 1513.66 Z" fill="#000000" fill-rule="nonzero" fill-opacity="1" /><path clip-path="url(#clip710)" d="M1636.52 1544.91 L1652.84 1544.91 L1652.84 1548.85 L1630.9 1548.85 L1630.9 1544.91 Q1633.56 1542.16 1638.14 1537.53 Q1642.75 1532.88 1643.93 1531.53 Q1646.18 1529.01 1647.06 1527.27 Q1647.96 1525.51 1647.96 1523.82 Q1647.96 1521.07 1646.01 1519.33 Q1644.09 1517.6 1640.99 1517.6 Q1638.79 1517.6 1636.34 1518.36 Q1633.91 1519.13 1631.13 1520.68 L1631.13 1515.95 Q1633.95 1514.82 1636.41 1514.24 Q1638.86 1513.66 1640.9 1513.66 Q1646.27 1513.66 1649.46 1516.35 Q1652.66 1519.03 1652.66 1523.52 Q1652.66 1525.65 1651.85 1527.57 Q1651.06 1529.47 1648.95 1532.07 Q1648.38 1532.74 1645.27 1535.95 Q1642.17 1539.15 1636.52 1544.91 Z" fill="#000000" fill-rule="nonzero" fill-opacity="1" /><path clip-path="url(#clip710)" d="M1672.66 1517.37 Q1669.05 1517.37 1667.22 1520.93 Q1665.41 1524.47 1665.41 1531.6 Q1665.41 1538.71 1667.22 1542.27 Q1669.05 1545.82 1672.66 1545.82 Q1676.29 1545.82 1678.1 1542.27 Q1679.93 1538.71 1679.93 1531.6 Q1679.93 1524.47 1678.1 1520.93 Q1676.29 1517.37 1672.66 1517.37 M1672.66 1513.66 Q1678.47 1513.66 1681.52 1518.27 Q1684.6 1522.85 1684.6 1531.6 Q1684.6 1540.33 1681.52 1544.94 Q1678.47 1549.52 1672.66 1549.52 Q1666.85 1549.52 1663.77 1544.94 Q1660.71 1540.33 1660.71 1531.6 Q1660.71 1522.85 1663.77 1518.27 Q1666.85 1513.66 1672.66 1513.66 Z" fill="#000000" fill-rule="nonzero" fill-opacity="1" /><path clip-path="url(#clip710)" d="M1702.82 1517.37 Q1699.21 1517.37 1697.38 1520.93 Q1695.57 1524.47 1695.57 1531.6 Q1695.57 1538.71 1697.38 1542.27 Q1699.21 1545.82 1702.82 1545.82 Q1706.45 1545.82 1708.26 1542.27 Q1710.09 1538.71 1710.09 1531.6 Q1710.09 1524.47 1708.26 1520.93 Q1706.45 1517.37 1702.82 1517.37 M1702.82 1513.66 Q1708.63 1513.66 1711.69 1518.27 Q1714.76 1522.85 1714.76 1531.6 Q1714.76 1540.33 1711.69 1544.94 Q1708.63 1549.52 1702.82 1549.52 Q1697.01 1549.52 1693.93 1544.94 Q1690.88 1540.33 1690.88 1531.6 Q1690.88 1522.85 1693.93 1518.27 Q1697.01 1513.66 1702.82 1513.66 Z" fill="#000000" fill-rule="nonzero" fill-opacity="1" /><path clip-path="url(#clip710)" d="M2072.82 1514.29 L2091.17 1514.29 L2091.17 1518.22 L2077.1 1518.22 L2077.1 1526.7 Q2078.12 1526.35 2079.13 1526.19 Q2080.15 1526 2081.17 1526 Q2086.96 1526 2090.34 1529.17 Q2093.72 1532.34 2093.72 1537.76 Q2093.72 1543.34 2090.25 1546.44 Q2086.77 1549.52 2080.45 1549.52 Q2078.28 1549.52 2076.01 1549.15 Q2073.76 1548.78 2071.36 1548.04 L2071.36 1543.34 Q2073.44 1544.47 2075.66 1545.03 Q2077.88 1545.58 2080.36 1545.58 Q2084.37 1545.58 2086.7 1543.48 Q2089.04 1541.37 2089.04 1537.76 Q2089.04 1534.15 2086.7 1532.04 Q2084.37 1529.94 2080.36 1529.94 Q2078.49 1529.94 2076.61 1530.35 Q2074.76 1530.77 2072.82 1531.65 L2072.82 1514.29 Z" fill="#000000" fill-rule="nonzero" fill-opacity="1" /><path clip-path="url(#clip710)" d="M2112.93 1517.37 Q2109.32 1517.37 2107.49 1520.93 Q2105.69 1524.47 2105.69 1531.6 Q2105.69 1538.71 2107.49 1542.27 Q2109.32 1545.82 2112.93 1545.82 Q2116.57 1545.82 2118.37 1542.27 Q2120.2 1538.71 2120.2 1531.6 Q2120.2 1524.47 2118.37 1520.93 Q2116.57 1517.37 2112.93 1517.37 M2112.93 1513.66 Q2118.74 1513.66 2121.8 1518.27 Q2124.88 1522.85 2124.88 1531.6 Q2124.88 1540.33 2121.8 1544.94 Q2118.74 1549.52 2112.93 1549.52 Q2107.12 1549.52 2104.04 1544.94 Q2100.99 1540.33 2100.99 1531.6 Q2100.99 1522.85 2104.04 1518.27 Q2107.12 1513.66 2112.93 1513.66 Z" fill="#000000" fill-rule="nonzero" fill-opacity="1" /><path clip-path="url(#clip710)" d="M2143.09 1517.37 Q2139.48 1517.37 2137.65 1520.93 Q2135.85 1524.47 2135.85 1531.6 Q2135.85 1538.71 2137.65 1542.27 Q2139.48 1545.82 2143.09 1545.82 Q2146.73 1545.82 2148.53 1542.27 Q2150.36 1538.71 2150.36 1531.6 Q2150.36 1524.47 2148.53 1520.93 Q2146.73 1517.37 2143.09 1517.37 M2143.09 1513.66 Q2148.9 1513.66 2151.96 1518.27 Q2155.04 1522.85 2155.04 1531.6 Q2155.04 1540.33 2151.96 1544.94 Q2148.9 1549.52 2143.09 1549.52 Q2137.28 1549.52 2134.2 1544.94 Q2131.15 1540.33 2131.15 1531.6 Q2131.15 1522.85 2134.2 1518.27 Q2137.28 1513.66 2143.09 1513.66 Z" fill="#000000" fill-rule="nonzero" fill-opacity="1" /><polyline clip-path="url(#clip710)" style="stroke:#000000; stroke-linecap:round; stroke-linejoin:round; stroke-width:4; stroke-opacity:1; fill:none" points="112.177,1486.45 112.177,47.2441 "/>
<polyline clip-path="url(#clip710)" style="stroke:#000000; stroke-linecap:round; stroke-linejoin:round; stroke-width:4; stroke-opacity:1; fill:none" points="112.177,1466.28 131.075,1466.28 "/>
<polyline clip-path="url(#clip710)" style="stroke:#000000; stroke-linecap:round; stroke-linejoin:round; stroke-width:4; stroke-opacity:1; fill:none" points="112.177,1252.03 131.075,1252.03 "/>
<polyline clip-path="url(#clip710)" style="stroke:#000000; stroke-linecap:round; stroke-linejoin:round; stroke-width:4; stroke-opacity:1; fill:none" points="112.177,1037.77 131.075,1037.77 "/>
<polyline clip-path="url(#clip710)" style="stroke:#000000; stroke-linecap:round; stroke-linejoin:round; stroke-width:4; stroke-opacity:1; fill:none" points="112.177,823.518 131.075,823.518 "/>
<polyline clip-path="url(#clip710)" style="stroke:#000000; stroke-linecap:round; stroke-linejoin:round; stroke-width:4; stroke-opacity:1; fill:none" points="112.177,609.262 131.075,609.262 "/>
<polyline clip-path="url(#clip710)" style="stroke:#000000; stroke-linecap:round; stroke-linejoin:round; stroke-width:4; stroke-opacity:1; fill:none" points="112.177,395.006 131.075,395.006 "/>
<polyline clip-path="url(#clip710)" style="stroke:#000000; stroke-linecap:round; stroke-linejoin:round; stroke-width:4; stroke-opacity:1; fill:none" points="112.177,180.75 131.075,180.75 "/>
<path clip-path="url(#clip710)" d="M64.2328 1452.08 Q60.6217 1452.08 58.793 1455.65 Q56.9875 1459.19 56.9875 1466.32 Q56.9875 1473.43 58.793 1476.99 Q60.6217 1480.53 64.2328 1480.53 Q67.867 1480.53 69.6726 1476.99 Q71.5013 1473.43 71.5013 1466.32 Q71.5013 1459.19 69.6726 1455.65 Q67.867 1452.08 64.2328 1452.08 M64.2328 1448.38 Q70.0429 1448.38 73.0985 1452.99 Q76.1772 1457.57 76.1772 1466.32 Q76.1772 1475.05 73.0985 1479.65 Q70.0429 1484.24 64.2328 1484.24 Q58.4226 1484.24 55.344 1479.65 Q52.2884 1475.05 52.2884 1466.32 Q52.2884 1457.57 55.344 1452.99 Q58.4226 1448.38 64.2328 1448.38 Z" fill="#000000" fill-rule="nonzero" fill-opacity="1" /><path clip-path="url(#clip710)" d="M56.2699 1265.37 L63.9087 1265.37 L63.9087 1239.01 L55.5986 1240.68 L55.5986 1236.42 L63.8624 1234.75 L68.5383 1234.75 L68.5383 1265.37 L76.1772 1265.37 L76.1772 1269.31 L56.2699 1269.31 L56.2699 1265.37 Z" fill="#000000" fill-rule="nonzero" fill-opacity="1" /><path clip-path="url(#clip710)" d="M59.8578 1051.12 L76.1772 1051.12 L76.1772 1055.05 L54.2328 1055.05 L54.2328 1051.12 Q56.8949 1048.36 61.4782 1043.73 Q66.0846 1039.08 67.2652 1037.74 Q69.5105 1035.22 70.3902 1033.48 Q71.2929 1031.72 71.2929 1030.03 Q71.2929 1027.28 69.3485 1025.54 Q67.4272 1023.8 64.3254 1023.8 Q62.1263 1023.8 59.6726 1024.57 Q57.2421 1025.33 54.4643 1026.88 L54.4643 1022.16 Q57.2884 1021.03 59.7421 1020.45 Q62.1958 1019.87 64.2328 1019.87 Q69.6031 1019.87 72.7976 1022.55 Q75.992 1025.24 75.992 1029.73 Q75.992 1031.86 75.1818 1033.78 Q74.3948 1035.68 72.2883 1038.27 Q71.7096 1038.94 68.6078 1042.16 Q65.5059 1045.35 59.8578 1051.12 Z" fill="#000000" fill-rule="nonzero" fill-opacity="1" /><path clip-path="url(#clip710)" d="M69.0476 822.163 Q72.404 822.881 74.279 825.149 Q76.1772 827.418 76.1772 830.751 Q76.1772 835.867 72.6587 838.668 Q69.1402 841.469 62.6587 841.469 Q60.4828 841.469 58.168 841.029 Q55.8764 840.612 53.4227 839.756 L53.4227 835.242 Q55.3671 836.376 57.6819 836.955 Q59.9967 837.534 62.5198 837.534 Q66.918 837.534 69.2096 835.798 Q71.5244 834.061 71.5244 830.751 Q71.5244 827.696 69.3717 825.983 Q67.242 824.247 63.4226 824.247 L59.3949 824.247 L59.3949 820.404 L63.6078 820.404 Q67.0569 820.404 68.8855 819.038 Q70.7142 817.65 70.7142 815.057 Q70.7142 812.395 68.8161 810.983 Q66.9411 809.548 63.4226 809.548 Q61.5013 809.548 59.3023 809.964 Q57.1032 810.381 54.4643 811.261 L54.4643 807.094 Q57.1264 806.353 59.4412 805.983 Q61.7791 805.613 63.8393 805.613 Q69.1633 805.613 72.2652 808.043 Q75.367 810.45 75.367 814.571 Q75.367 817.441 73.7235 819.432 Q72.08 821.399 69.0476 822.163 Z" fill="#000000" fill-rule="nonzero" fill-opacity="1" /><path clip-path="url(#clip710)" d="M66.5939 596.056 L54.7884 614.505 L66.5939 614.505 L66.5939 596.056 M65.367 591.982 L71.2466 591.982 L71.2466 614.505 L76.1772 614.505 L76.1772 618.394 L71.2466 618.394 L71.2466 626.542 L66.5939 626.542 L66.5939 618.394 L50.9921 618.394 L50.9921 613.88 L65.367 591.982 Z" fill="#000000" fill-rule="nonzero" fill-opacity="1" /><path clip-path="url(#clip710)" d="M55.2745 377.726 L73.6309 377.726 L73.6309 381.661 L59.5569 381.661 L59.5569 390.133 Q60.5754 389.786 61.5939 389.624 Q62.6124 389.439 63.6309 389.439 Q69.418 389.439 72.7976 392.61 Q76.1772 395.781 76.1772 401.198 Q76.1772 406.777 72.705 409.879 Q69.2328 412.957 62.9134 412.957 Q60.7374 412.957 58.4689 412.587 Q56.2236 412.216 53.8162 411.476 L53.8162 406.777 Q55.8995 407.911 58.1217 408.466 Q60.3439 409.022 62.8208 409.022 Q66.8254 409.022 69.1633 406.916 Q71.5013 404.809 71.5013 401.198 Q71.5013 397.587 69.1633 395.48 Q66.8254 393.374 62.8208 393.374 Q60.9458 393.374 59.0708 393.791 Q57.2189 394.207 55.2745 395.087 L55.2745 377.726 Z" fill="#000000" fill-rule="nonzero" fill-opacity="1" /><path clip-path="url(#clip710)" d="M64.6495 178.887 Q61.5013 178.887 59.6495 181.039 Q57.8208 183.192 57.8208 186.942 Q57.8208 190.669 59.6495 192.845 Q61.5013 194.998 64.6495 194.998 Q67.7976 194.998 69.6263 192.845 Q71.4781 190.669 71.4781 186.942 Q71.4781 183.192 69.6263 181.039 Q67.7976 178.887 64.6495 178.887 M73.9318 164.234 L73.9318 168.493 Q72.1726 167.66 70.367 167.22 Q68.5846 166.78 66.8254 166.78 Q62.1958 166.78 59.7421 169.905 Q57.3115 173.03 56.9643 179.35 Q58.33 177.336 60.3902 176.271 Q62.4504 175.183 64.9272 175.183 Q70.1355 175.183 73.1448 178.354 Q76.1772 181.502 76.1772 186.942 Q76.1772 192.266 73.029 195.484 Q69.8809 198.701 64.6495 198.701 Q58.6541 198.701 55.4828 194.118 Q52.3116 189.512 52.3116 180.785 Q52.3116 172.59 56.2004 167.729 Q60.0893 162.845 66.6402 162.845 Q68.3994 162.845 70.1818 163.192 Q71.9874 163.54 73.9318 164.234 Z" fill="#000000" fill-rule="nonzero" fill-opacity="1" /><path clip-path="url(#clip711)" d="M351.736 477.555 L263.663 477.555 L439.809 477.555 L351.736 477.555 L351.736 344.654 L351.736 477.555  Z" fill="#ff0000" fill-rule="evenodd" fill-opacity="1"/>
<polyline clip-path="url(#clip711)" style="stroke:#000000; stroke-linecap:round; stroke-linejoin:round; stroke-width:4; stroke-opacity:1; fill:none" points="351.736,477.555 263.663,477.555 439.809,477.555 351.736,477.555 351.736,344.654 351.736,477.555 "/>
<path clip-path="url(#clip711)" d="M527.882 344.654 L527.882 299.634 L175.59 299.634 L175.59 344.654 L527.882 344.654 L527.882 299.634 L527.882 344.654  Z" fill="#ff0000" fill-rule="evenodd" fill-opacity="1"/>
<polyline clip-path="url(#clip711)" style="stroke:#000000; stroke-linecap:round; stroke-linejoin:round; stroke-width:4; stroke-opacity:1; fill:none" points="527.882,344.654 527.882,299.634 175.59,299.634 175.59,344.654 527.882,344.654 527.882,299.634 527.882,344.654 "/>
<path clip-path="url(#clip711)" d="M527.882 254.204 L175.59 254.204 L175.59 299.634 L527.882 299.634 L527.882 254.204 L351.736 254.204 L527.882 254.204  Z" fill="#ff0000" fill-rule="evenodd" fill-opacity="1"/>
<polyline clip-path="url(#clip711)" style="stroke:#000000; stroke-linecap:round; stroke-linejoin:round; stroke-width:4; stroke-opacity:1; fill:none" points="527.882,254.204 175.59,254.204 175.59,299.634 527.882,299.634 527.882,254.204 351.736,254.204 527.882,254.204 "/>
<path clip-path="url(#clip711)" d="M351.736 123.825 L263.663 123.825 L439.809 123.825 L351.736 123.825 L351.736 254.204 L351.736 123.825  Z" fill="#ff0000" fill-rule="evenodd" fill-opacity="1"/>
<polyline clip-path="url(#clip711)" style="stroke:#000000; stroke-linecap:round; stroke-linejoin:round; stroke-width:4; stroke-opacity:1; fill:none" points="351.736,123.825 263.663,123.825 439.809,123.825 351.736,123.825 351.736,254.204 351.736,123.825 "/>
<path clip-path="url(#clip711)" d="M792.101 1273.44 L704.028 1273.44 L880.174 1273.44 L792.101 1273.44 L792.101 1247.86 L792.101 1273.44  Z" fill="#ff0000" fill-rule="evenodd" fill-opacity="1"/>
<polyline clip-path="url(#clip711)" style="stroke:#000000; stroke-linecap:round; stroke-linejoin:round; stroke-width:4; stroke-opacity:1; fill:none" points="792.101,1273.44 704.028,1273.44 880.174,1273.44 792.101,1273.44 792.101,1247.86 792.101,1273.44 "/>
<path clip-path="url(#clip711)" d="M968.247 1247.86 L968.247 1239.08 L615.955 1239.08 L615.955 1247.86 L968.247 1247.86 L968.247 1239.08 L968.247 1247.86  Z" fill="#ff0000" fill-rule="evenodd" fill-opacity="1"/>
<polyline clip-path="url(#clip711)" style="stroke:#000000; stroke-linecap:round; stroke-linejoin:round; stroke-width:4; stroke-opacity:1; fill:none" points="968.247,1247.86 968.247,1239.08 615.955,1239.08 615.955,1247.86 968.247,1247.86 968.247,1239.08 968.247,1247.86 "/>
<path clip-path="url(#clip711)" d="M968.247 1230.68 L615.955 1230.68 L615.955 1239.08 L968.247 1239.08 L968.247 1230.68 L792.101 1230.68 L968.247 1230.68  Z" fill="#ff0000" fill-rule="evenodd" fill-opacity="1"/>
<polyline clip-path="url(#clip711)" style="stroke:#000000; stroke-linecap:round; stroke-linejoin:round; stroke-width:4; stroke-opacity:1; fill:none" points="968.247,1230.68 615.955,1230.68 615.955,1239.08 968.247,1239.08 968.247,1230.68 792.101,1230.68 968.247,1230.68 "/>
<path clip-path="url(#clip711)" d="M792.101 1205.33 L704.028 1205.33 L880.174 1205.33 L792.101 1205.33 L792.101 1230.68 L792.101 1205.33  Z" fill="#ff0000" fill-rule="evenodd" fill-opacity="1"/>
<polyline clip-path="url(#clip711)" style="stroke:#000000; stroke-linecap:round; stroke-linejoin:round; stroke-width:4; stroke-opacity:1; fill:none" points="792.101,1205.33 704.028,1205.33 880.174,1205.33 792.101,1205.33 792.101,1230.68 792.101,1205.33 "/>
<path clip-path="url(#clip711)" d="M1232.47 1367.03 L1144.39 1367.03 L1320.54 1367.03 L1232.47 1367.03 L1232.47 1356.04 L1232.47 1367.03  Z" fill="#ff0000" fill-rule="evenodd" fill-opacity="1"/>
<polyline clip-path="url(#clip711)" style="stroke:#000000; stroke-linecap:round; stroke-linejoin:round; stroke-width:4; stroke-opacity:1; fill:none" points="1232.47,1367.03 1144.39,1367.03 1320.54,1367.03 1232.47,1367.03 1232.47,1356.04 1232.47,1367.03 "/>
<path clip-path="url(#clip711)" d="M1408.61 1356.04 L1408.61 1352.48 L1056.32 1352.48 L1056.32 1356.04 L1408.61 1356.04 L1408.61 1352.48 L1408.61 1356.04  Z" fill="#ff0000" fill-rule="evenodd" fill-opacity="1"/>
<polyline clip-path="url(#clip711)" style="stroke:#000000; stroke-linecap:round; stroke-linejoin:round; stroke-width:4; stroke-opacity:1; fill:none" points="1408.61,1356.04 1408.61,1352.48 1056.32,1352.48 1056.32,1356.04 1408.61,1356.04 1408.61,1352.48 1408.61,1356.04 "/>
<path clip-path="url(#clip711)" d="M1408.61 1348.7 L1056.32 1348.7 L1056.32 1352.48 L1408.61 1352.48 L1408.61 1348.7 L1232.47 1348.7 L1408.61 1348.7  Z" fill="#ff0000" fill-rule="evenodd" fill-opacity="1"/>
<polyline clip-path="url(#clip711)" style="stroke:#000000; stroke-linecap:round; stroke-linejoin:round; stroke-width:4; stroke-opacity:1; fill:none" points="1408.61,1348.7 1056.32,1348.7 1056.32,1352.48 1408.61,1352.48 1408.61,1348.7 1232.47,1348.7 1408.61,1348.7 "/>
<path clip-path="url(#clip711)" d="M1232.47 1338.59 L1144.39 1338.59 L1320.54 1338.59 L1232.47 1338.59 L1232.47 1348.7 L1232.47 1338.59  Z" fill="#ff0000" fill-rule="evenodd" fill-opacity="1"/>
<polyline clip-path="url(#clip711)" style="stroke:#000000; stroke-linecap:round; stroke-linejoin:round; stroke-width:4; stroke-opacity:1; fill:none" points="1232.47,1338.59 1144.39,1338.59 1320.54,1338.59 1232.47,1338.59 1232.47,1348.7 1232.47,1338.59 "/>
<path clip-path="url(#clip711)" d="M1672.83 1415.27 L1584.76 1415.27 L1760.9 1415.27 L1672.83 1415.27 L1672.83 1410.57 L1672.83 1415.27  Z" fill="#ff0000" fill-rule="evenodd" fill-opacity="1"/>
<polyline clip-path="url(#clip711)" style="stroke:#000000; stroke-linecap:round; stroke-linejoin:round; stroke-width:4; stroke-opacity:1; fill:none" points="1672.83,1415.27 1584.76,1415.27 1760.9,1415.27 1672.83,1415.27 1672.83,1410.57 1672.83,1415.27 "/>
<path clip-path="url(#clip711)" d="M1848.98 1410.57 L1848.98 1409.05 L1496.69 1409.05 L1496.69 1410.57 L1848.98 1410.57 L1848.98 1409.05 L1848.98 1410.57  Z" fill="#ff0000" fill-rule="evenodd" fill-opacity="1"/>
<polyline clip-path="url(#clip711)" style="stroke:#000000; stroke-linecap:round; stroke-linejoin:round; stroke-width:4; stroke-opacity:1; fill:none" points="1848.98,1410.57 1848.98,1409.05 1496.69,1409.05 1496.69,1410.57 1848.98,1410.57 1848.98,1409.05 1848.98,1410.57 "/>
<path clip-path="url(#clip711)" d="M1848.98 1407.38 L1496.69 1407.38 L1496.69 1409.05 L1848.98 1409.05 L1848.98 1407.38 L1672.83 1407.38 L1848.98 1407.38  Z" fill="#ff0000" fill-rule="evenodd" fill-opacity="1"/>
<polyline clip-path="url(#clip711)" style="stroke:#000000; stroke-linecap:round; stroke-linejoin:round; stroke-width:4; stroke-opacity:1; fill:none" points="1848.98,1407.38 1496.69,1407.38 1496.69,1409.05 1848.98,1409.05 1848.98,1407.38 1672.83,1407.38 1848.98,1407.38 "/>
<path clip-path="url(#clip711)" d="M1672.83 1402.85 L1584.76 1402.85 L1760.9 1402.85 L1672.83 1402.85 L1672.83 1407.38 L1672.83 1402.85  Z" fill="#ff0000" fill-rule="evenodd" fill-opacity="1"/>
<polyline clip-path="url(#clip711)" style="stroke:#000000; stroke-linecap:round; stroke-linejoin:round; stroke-width:4; stroke-opacity:1; fill:none" points="1672.83,1402.85 1584.76,1402.85 1760.9,1402.85 1672.83,1402.85 1672.83,1407.38 1672.83,1402.85 "/>
<path clip-path="url(#clip711)" d="M2113.2 1445.72 L2025.12 1445.72 L2201.27 1445.72 L2113.2 1445.72 L2113.2 1443.88 L2113.2 1445.72  Z" fill="#ff0000" fill-rule="evenodd" fill-opacity="1"/>
<polyline clip-path="url(#clip711)" style="stroke:#000000; stroke-linecap:round; stroke-linejoin:round; stroke-width:4; stroke-opacity:1; fill:none" points="2113.2,1445.72 2025.12,1445.72 2201.27,1445.72 2113.2,1445.72 2113.2,1443.88 2113.2,1445.72 "/>
<path clip-path="url(#clip711)" d="M2289.34 1443.88 L2289.34 1443.23 L1937.05 1443.23 L1937.05 1443.88 L2289.34 1443.88 L2289.34 1443.23 L2289.34 1443.88  Z" fill="#ff0000" fill-rule="evenodd" fill-opacity="1"/>
<polyline clip-path="url(#clip711)" style="stroke:#000000; stroke-linecap:round; stroke-linejoin:round; stroke-width:4; stroke-opacity:1; fill:none" points="2289.34,1443.88 2289.34,1443.23 1937.05,1443.23 1937.05,1443.88 2289.34,1443.88 2289.34,1443.23 2289.34,1443.88 "/>
<path clip-path="url(#clip711)" d="M2289.34 1442.56 L1937.05 1442.56 L1937.05 1443.23 L2289.34 1443.23 L2289.34 1442.56 L2113.2 1442.56 L2289.34 1442.56  Z" fill="#ff0000" fill-rule="evenodd" fill-opacity="1"/>
<polyline clip-path="url(#clip711)" style="stroke:#000000; stroke-linecap:round; stroke-linejoin:round; stroke-width:4; stroke-opacity:1; fill:none" points="2289.34,1442.56 1937.05,1442.56 1937.05,1443.23 2289.34,1443.23 2289.34,1442.56 2113.2,1442.56 2289.34,1442.56 "/>
<path clip-path="url(#clip711)" d="M2113.2 1440.58 L2025.12 1440.58 L2201.27 1440.58 L2113.2 1440.58 L2113.2 1442.56 L2113.2 1440.58  Z" fill="#ff0000" fill-rule="evenodd" fill-opacity="1"/>
<polyline clip-path="url(#clip711)" style="stroke:#000000; stroke-linecap:round; stroke-linejoin:round; stroke-width:4; stroke-opacity:1; fill:none" points="2113.2,1440.58 2025.12,1440.58 2201.27,1440.58 2113.2,1440.58 2113.2,1442.56 2113.2,1440.58 "/>
<circle clip-path="url(#clip711)" cx="351.736" cy="91.9186" r="14.4" fill="#ff0000" fill-rule="evenodd" fill-opacity="1" stroke="#000000" stroke-opacity="1" stroke-width="3.2"/>
<circle clip-path="url(#clip711)" cx="351.736" cy="591.156" r="14.4" fill="#ff0000" fill-rule="evenodd" fill-opacity="1" stroke="#000000" stroke-opacity="1" stroke-width="3.2"/>
<circle clip-path="url(#clip711)" cx="351.736" cy="598.983" r="14.4" fill="#ff0000" fill-rule="evenodd" fill-opacity="1" stroke="#000000" stroke-opacity="1" stroke-width="3.2"/>
<circle clip-path="url(#clip711)" cx="351.736" cy="503.577" r="14.4" fill="#ff0000" fill-rule="evenodd" fill-opacity="1" stroke="#000000" stroke-opacity="1" stroke-width="3.2"/>
<circle clip-path="url(#clip711)" cx="351.736" cy="113.748" r="14.4" fill="#ff0000" fill-rule="evenodd" fill-opacity="1" stroke="#000000" stroke-opacity="1" stroke-width="3.2"/>
<circle clip-path="url(#clip711)" cx="351.736" cy="523.366" r="14.4" fill="#ff0000" fill-rule="evenodd" fill-opacity="1" stroke="#000000" stroke-opacity="1" stroke-width="3.2"/>
<circle clip-path="url(#clip711)" cx="351.736" cy="591.078" r="14.4" fill="#ff0000" fill-rule="evenodd" fill-opacity="1" stroke="#000000" stroke-opacity="1" stroke-width="3.2"/>
<circle clip-path="url(#clip711)" cx="351.736" cy="511.257" r="14.4" fill="#ff0000" fill-rule="evenodd" fill-opacity="1" stroke="#000000" stroke-opacity="1" stroke-width="3.2"/>
<circle clip-path="url(#clip711)" cx="351.736" cy="501.332" r="14.4" fill="#ff0000" fill-rule="evenodd" fill-opacity="1" stroke="#000000" stroke-opacity="1" stroke-width="3.2"/>
<circle clip-path="url(#clip711)" cx="351.736" cy="507.131" r="14.4" fill="#ff0000" fill-rule="evenodd" fill-opacity="1" stroke="#000000" stroke-opacity="1" stroke-width="3.2"/>
<circle clip-path="url(#clip711)" cx="351.736" cy="87.9763" r="14.4" fill="#ff0000" fill-rule="evenodd" fill-opacity="1" stroke="#000000" stroke-opacity="1" stroke-width="3.2"/>
<circle clip-path="url(#clip711)" cx="351.736" cy="117.791" r="14.4" fill="#ff0000" fill-rule="evenodd" fill-opacity="1" stroke="#000000" stroke-opacity="1" stroke-width="3.2"/>
<circle clip-path="url(#clip711)" cx="351.736" cy="514.043" r="14.4" fill="#ff0000" fill-rule="evenodd" fill-opacity="1" stroke="#000000" stroke-opacity="1" stroke-width="3.2"/>
<circle clip-path="url(#clip711)" cx="351.736" cy="492.447" r="14.4" fill="#ff0000" fill-rule="evenodd" fill-opacity="1" stroke="#000000" stroke-opacity="1" stroke-width="3.2"/>
<circle clip-path="url(#clip711)" cx="351.736" cy="495.787" r="14.4" fill="#ff0000" fill-rule="evenodd" fill-opacity="1" stroke="#000000" stroke-opacity="1" stroke-width="3.2"/>
<circle clip-path="url(#clip711)" cx="351.736" cy="548.08" r="14.4" fill="#ff0000" fill-rule="evenodd" fill-opacity="1" stroke="#000000" stroke-opacity="1" stroke-width="3.2"/>
<circle clip-path="url(#clip711)" cx="351.736" cy="509.552" r="14.4" fill="#ff0000" fill-rule="evenodd" fill-opacity="1" stroke="#000000" stroke-opacity="1" stroke-width="3.2"/>
<circle clip-path="url(#clip711)" cx="351.736" cy="583.49" r="14.4" fill="#ff0000" fill-rule="evenodd" fill-opacity="1" stroke="#000000" stroke-opacity="1" stroke-width="3.2"/>
<circle clip-path="url(#clip711)" cx="351.736" cy="602.252" r="14.4" fill="#ff0000" fill-rule="evenodd" fill-opacity="1" stroke="#000000" stroke-opacity="1" stroke-width="3.2"/>
<circle clip-path="url(#clip711)" cx="351.736" cy="489.913" r="14.4" fill="#ff0000" fill-rule="evenodd" fill-opacity="1" stroke="#000000" stroke-opacity="1" stroke-width="3.2"/>
<circle clip-path="url(#clip711)" cx="351.736" cy="516.417" r="14.4" fill="#ff0000" fill-rule="evenodd" fill-opacity="1" stroke="#000000" stroke-opacity="1" stroke-width="3.2"/>
<circle clip-path="url(#clip711)" cx="351.736" cy="551.675" r="14.4" fill="#ff0000" fill-rule="evenodd" fill-opacity="1" stroke="#000000" stroke-opacity="1" stroke-width="3.2"/>
<circle clip-path="url(#clip711)" cx="351.736" cy="490.835" r="14.4" fill="#ff0000" fill-rule="evenodd" fill-opacity="1" stroke="#000000" stroke-opacity="1" stroke-width="3.2"/>
<circle clip-path="url(#clip711)" cx="351.736" cy="515.67" r="14.4" fill="#ff0000" fill-rule="evenodd" fill-opacity="1" stroke="#000000" stroke-opacity="1" stroke-width="3.2"/>
<circle clip-path="url(#clip711)" cx="351.736" cy="575.327" r="14.4" fill="#ff0000" fill-rule="evenodd" fill-opacity="1" stroke="#000000" stroke-opacity="1" stroke-width="3.2"/>
<circle clip-path="url(#clip711)" cx="351.736" cy="497.143" r="14.4" fill="#ff0000" fill-rule="evenodd" fill-opacity="1" stroke="#000000" stroke-opacity="1" stroke-width="3.2"/>
<circle clip-path="url(#clip711)" cx="351.736" cy="516.031" r="14.4" fill="#ff0000" fill-rule="evenodd" fill-opacity="1" stroke="#000000" stroke-opacity="1" stroke-width="3.2"/>
<circle clip-path="url(#clip711)" cx="351.736" cy="590.837" r="14.4" fill="#ff0000" fill-rule="evenodd" fill-opacity="1" stroke="#000000" stroke-opacity="1" stroke-width="3.2"/>
<circle clip-path="url(#clip711)" cx="351.736" cy="114.21" r="14.4" fill="#ff0000" fill-rule="evenodd" fill-opacity="1" stroke="#000000" stroke-opacity="1" stroke-width="3.2"/>
<circle clip-path="url(#clip711)" cx="351.736" cy="526.561" r="14.4" fill="#ff0000" fill-rule="evenodd" fill-opacity="1" stroke="#000000" stroke-opacity="1" stroke-width="3.2"/>
<circle clip-path="url(#clip711)" cx="351.736" cy="509.224" r="14.4" fill="#ff0000" fill-rule="evenodd" fill-opacity="1" stroke="#000000" stroke-opacity="1" stroke-width="3.2"/>
<circle clip-path="url(#clip711)" cx="351.736" cy="516.669" r="14.4" fill="#ff0000" fill-rule="evenodd" fill-opacity="1" stroke="#000000" stroke-opacity="1" stroke-width="3.2"/>
<circle clip-path="url(#clip711)" cx="351.736" cy="582.175" r="14.4" fill="#ff0000" fill-rule="evenodd" fill-opacity="1" stroke="#000000" stroke-opacity="1" stroke-width="3.2"/>
<circle clip-path="url(#clip711)" cx="792.101" cy="1275.39" r="14.4" fill="#ff0000" fill-rule="evenodd" fill-opacity="1" stroke="#000000" stroke-opacity="1" stroke-width="3.2"/>
<circle clip-path="url(#clip711)" cx="792.101" cy="1290.12" r="14.4" fill="#ff0000" fill-rule="evenodd" fill-opacity="1" stroke="#000000" stroke-opacity="1" stroke-width="3.2"/>
<circle clip-path="url(#clip711)" cx="792.101" cy="1201.31" r="14.4" fill="#ff0000" fill-rule="evenodd" fill-opacity="1" stroke="#000000" stroke-opacity="1" stroke-width="3.2"/>
<circle clip-path="url(#clip711)" cx="792.101" cy="1277.15" r="14.4" fill="#ff0000" fill-rule="evenodd" fill-opacity="1" stroke="#000000" stroke-opacity="1" stroke-width="3.2"/>
<circle clip-path="url(#clip711)" cx="792.101" cy="1204.77" r="14.4" fill="#ff0000" fill-rule="evenodd" fill-opacity="1" stroke="#000000" stroke-opacity="1" stroke-width="3.2"/>
<circle clip-path="url(#clip711)" cx="792.101" cy="1201.48" r="14.4" fill="#ff0000" fill-rule="evenodd" fill-opacity="1" stroke="#000000" stroke-opacity="1" stroke-width="3.2"/>
<circle clip-path="url(#clip711)" cx="792.101" cy="1276.86" r="14.4" fill="#ff0000" fill-rule="evenodd" fill-opacity="1" stroke="#000000" stroke-opacity="1" stroke-width="3.2"/>
<circle clip-path="url(#clip711)" cx="1232.47" cy="1367.97" r="14.4" fill="#ff0000" fill-rule="evenodd" fill-opacity="1" stroke="#000000" stroke-opacity="1" stroke-width="3.2"/>
<circle clip-path="url(#clip711)" cx="1232.47" cy="1367.6" r="14.4" fill="#ff0000" fill-rule="evenodd" fill-opacity="1" stroke="#000000" stroke-opacity="1" stroke-width="3.2"/>
<circle clip-path="url(#clip711)" cx="1232.47" cy="1367.28" r="14.4" fill="#ff0000" fill-rule="evenodd" fill-opacity="1" stroke="#000000" stroke-opacity="1" stroke-width="3.2"/>
<circle clip-path="url(#clip711)" cx="1232.47" cy="1337.23" r="14.4" fill="#ff0000" fill-rule="evenodd" fill-opacity="1" stroke="#000000" stroke-opacity="1" stroke-width="3.2"/>
<circle clip-path="url(#clip711)" cx="1232.47" cy="1368.25" r="14.4" fill="#ff0000" fill-rule="evenodd" fill-opacity="1" stroke="#000000" stroke-opacity="1" stroke-width="3.2"/>
<circle clip-path="url(#clip711)" cx="1672.83" cy="1402.06" r="14.4" fill="#ff0000" fill-rule="evenodd" fill-opacity="1" stroke="#000000" stroke-opacity="1" stroke-width="3.2"/>
<circle clip-path="url(#clip711)" cx="1672.83" cy="1401.78" r="14.4" fill="#ff0000" fill-rule="evenodd" fill-opacity="1" stroke="#000000" stroke-opacity="1" stroke-width="3.2"/>
<circle clip-path="url(#clip711)" cx="1672.83" cy="1401.99" r="14.4" fill="#ff0000" fill-rule="evenodd" fill-opacity="1" stroke="#000000" stroke-opacity="1" stroke-width="3.2"/>
<circle clip-path="url(#clip711)" cx="1672.83" cy="1415.66" r="14.4" fill="#ff0000" fill-rule="evenodd" fill-opacity="1" stroke="#000000" stroke-opacity="1" stroke-width="3.2"/>
<circle clip-path="url(#clip711)" cx="1672.83" cy="1415.39" r="14.4" fill="#ff0000" fill-rule="evenodd" fill-opacity="1" stroke="#000000" stroke-opacity="1" stroke-width="3.2"/>
<circle clip-path="url(#clip711)" cx="1672.83" cy="1401.78" r="14.4" fill="#ff0000" fill-rule="evenodd" fill-opacity="1" stroke="#000000" stroke-opacity="1" stroke-width="3.2"/>
<circle clip-path="url(#clip711)" cx="1672.83" cy="1402.33" r="14.4" fill="#ff0000" fill-rule="evenodd" fill-opacity="1" stroke="#000000" stroke-opacity="1" stroke-width="3.2"/>
<circle clip-path="url(#clip711)" cx="1672.83" cy="1402.24" r="14.4" fill="#ff0000" fill-rule="evenodd" fill-opacity="1" stroke="#000000" stroke-opacity="1" stroke-width="3.2"/>
<circle clip-path="url(#clip711)" cx="1672.83" cy="1402.51" r="14.4" fill="#ff0000" fill-rule="evenodd" fill-opacity="1" stroke="#000000" stroke-opacity="1" stroke-width="3.2"/>
<circle clip-path="url(#clip711)" cx="1672.83" cy="1416.07" r="14.4" fill="#ff0000" fill-rule="evenodd" fill-opacity="1" stroke="#000000" stroke-opacity="1" stroke-width="3.2"/>
<circle clip-path="url(#clip711)" cx="1672.83" cy="1415.77" r="14.4" fill="#ff0000" fill-rule="evenodd" fill-opacity="1" stroke="#000000" stroke-opacity="1" stroke-width="3.2"/>
<circle clip-path="url(#clip711)" cx="1672.83" cy="1416.58" r="14.4" fill="#ff0000" fill-rule="evenodd" fill-opacity="1" stroke="#000000" stroke-opacity="1" stroke-width="3.2"/>
<circle clip-path="url(#clip711)" cx="1672.83" cy="1401.5" r="14.4" fill="#ff0000" fill-rule="evenodd" fill-opacity="1" stroke="#000000" stroke-opacity="1" stroke-width="3.2"/>
<circle clip-path="url(#clip711)" cx="1672.83" cy="1416.09" r="14.4" fill="#ff0000" fill-rule="evenodd" fill-opacity="1" stroke="#000000" stroke-opacity="1" stroke-width="3.2"/>
<circle clip-path="url(#clip711)" cx="2113.2" cy="1440.2" r="14.4" fill="#ff0000" fill-rule="evenodd" fill-opacity="1" stroke="#000000" stroke-opacity="1" stroke-width="3.2"/>
<circle clip-path="url(#clip711)" cx="2113.2" cy="1439.45" r="14.4" fill="#ff0000" fill-rule="evenodd" fill-opacity="1" stroke="#000000" stroke-opacity="1" stroke-width="3.2"/>
<circle clip-path="url(#clip711)" cx="2113.2" cy="1440.55" r="14.4" fill="#ff0000" fill-rule="evenodd" fill-opacity="1" stroke="#000000" stroke-opacity="1" stroke-width="3.2"/>
<circle clip-path="url(#clip711)" cx="2113.2" cy="1440.34" r="14.4" fill="#ff0000" fill-rule="evenodd" fill-opacity="1" stroke="#000000" stroke-opacity="1" stroke-width="3.2"/>
<circle clip-path="url(#clip711)" cx="2113.2" cy="1440.11" r="14.4" fill="#ff0000" fill-rule="evenodd" fill-opacity="1" stroke="#000000" stroke-opacity="1" stroke-width="3.2"/>
<circle clip-path="url(#clip711)" cx="2113.2" cy="1440.45" r="14.4" fill="#ff0000" fill-rule="evenodd" fill-opacity="1" stroke="#000000" stroke-opacity="1" stroke-width="3.2"/>
<circle clip-path="url(#clip711)" cx="2113.2" cy="1440.41" r="14.4" fill="#ff0000" fill-rule="evenodd" fill-opacity="1" stroke="#000000" stroke-opacity="1" stroke-width="3.2"/>
<polyline clip-path="url(#clip711)" style="stroke:#ff0000; stroke-linecap:round; stroke-linejoin:round; stroke-width:0; stroke-opacity:1; fill:none" points="351.736,477.555 263.663,477.555 439.809,477.555 351.736,477.555 351.736,344.654 "/>
<polyline clip-path="url(#clip711)" style="stroke:#ff0000; stroke-linecap:round; stroke-linejoin:round; stroke-width:0; stroke-opacity:1; fill:none" points="527.882,344.654 527.882,299.634 175.59,299.634 175.59,344.654 527.882,344.654 527.882,299.634 "/>
<polyline clip-path="url(#clip711)" style="stroke:#ff0000; stroke-linecap:round; stroke-linejoin:round; stroke-width:0; stroke-opacity:1; fill:none" points="527.882,254.204 175.59,254.204 175.59,299.634 527.882,299.634 527.882,254.204 351.736,254.204 "/>
<polyline clip-path="url(#clip711)" style="stroke:#ff0000; stroke-linecap:round; stroke-linejoin:round; stroke-width:0; stroke-opacity:1; fill:none" points="351.736,123.825 263.663,123.825 439.809,123.825 351.736,123.825 351.736,254.204 "/>
<polyline clip-path="url(#clip711)" style="stroke:#ff0000; stroke-linecap:round; stroke-linejoin:round; stroke-width:0; stroke-opacity:1; fill:none" points="792.101,1273.44 704.028,1273.44 880.174,1273.44 792.101,1273.44 792.101,1247.86 "/>
<polyline clip-path="url(#clip711)" style="stroke:#ff0000; stroke-linecap:round; stroke-linejoin:round; stroke-width:0; stroke-opacity:1; fill:none" points="968.247,1247.86 968.247,1239.08 615.955,1239.08 615.955,1247.86 968.247,1247.86 968.247,1239.08 "/>
<polyline clip-path="url(#clip711)" style="stroke:#ff0000; stroke-linecap:round; stroke-linejoin:round; stroke-width:0; stroke-opacity:1; fill:none" points="968.247,1230.68 615.955,1230.68 615.955,1239.08 968.247,1239.08 968.247,1230.68 792.101,1230.68 "/>
<polyline clip-path="url(#clip711)" style="stroke:#ff0000; stroke-linecap:round; stroke-linejoin:round; stroke-width:0; stroke-opacity:1; fill:none" points="792.101,1205.33 704.028,1205.33 880.174,1205.33 792.101,1205.33 792.101,1230.68 "/>
<polyline clip-path="url(#clip711)" style="stroke:#ff0000; stroke-linecap:round; stroke-linejoin:round; stroke-width:0; stroke-opacity:1; fill:none" points="1232.47,1367.03 1144.39,1367.03 1320.54,1367.03 1232.47,1367.03 1232.47,1356.04 "/>
<polyline clip-path="url(#clip711)" style="stroke:#ff0000; stroke-linecap:round; stroke-linejoin:round; stroke-width:0; stroke-opacity:1; fill:none" points="1408.61,1356.04 1408.61,1352.48 1056.32,1352.48 1056.32,1356.04 1408.61,1356.04 1408.61,1352.48 "/>
<polyline clip-path="url(#clip711)" style="stroke:#ff0000; stroke-linecap:round; stroke-linejoin:round; stroke-width:0; stroke-opacity:1; fill:none" points="1408.61,1348.7 1056.32,1348.7 1056.32,1352.48 1408.61,1352.48 1408.61,1348.7 1232.47,1348.7 "/>
<polyline clip-path="url(#clip711)" style="stroke:#ff0000; stroke-linecap:round; stroke-linejoin:round; stroke-width:0; stroke-opacity:1; fill:none" points="1232.47,1338.59 1144.39,1338.59 1320.54,1338.59 1232.47,1338.59 1232.47,1348.7 "/>
<polyline clip-path="url(#clip711)" style="stroke:#ff0000; stroke-linecap:round; stroke-linejoin:round; stroke-width:0; stroke-opacity:1; fill:none" points="1672.83,1415.27 1584.76,1415.27 1760.9,1415.27 1672.83,1415.27 1672.83,1410.57 "/>
<polyline clip-path="url(#clip711)" style="stroke:#ff0000; stroke-linecap:round; stroke-linejoin:round; stroke-width:0; stroke-opacity:1; fill:none" points="1848.98,1410.57 1848.98,1409.05 1496.69,1409.05 1496.69,1410.57 1848.98,1410.57 1848.98,1409.05 "/>
<polyline clip-path="url(#clip711)" style="stroke:#ff0000; stroke-linecap:round; stroke-linejoin:round; stroke-width:0; stroke-opacity:1; fill:none" points="1848.98,1407.38 1496.69,1407.38 1496.69,1409.05 1848.98,1409.05 1848.98,1407.38 1672.83,1407.38 "/>
<polyline clip-path="url(#clip711)" style="stroke:#ff0000; stroke-linecap:round; stroke-linejoin:round; stroke-width:0; stroke-opacity:1; fill:none" points="1672.83,1402.85 1584.76,1402.85 1760.9,1402.85 1672.83,1402.85 1672.83,1407.38 "/>
<polyline clip-path="url(#clip711)" style="stroke:#ff0000; stroke-linecap:round; stroke-linejoin:round; stroke-width:0; stroke-opacity:1; fill:none" points="2113.2,1445.72 2025.12,1445.72 2201.27,1445.72 2113.2,1445.72 2113.2,1443.88 "/>
<polyline clip-path="url(#clip711)" style="stroke:#ff0000; stroke-linecap:round; stroke-linejoin:round; stroke-width:0; stroke-opacity:1; fill:none" points="2289.34,1443.88 2289.34,1443.23 1937.05,1443.23 1937.05,1443.88 2289.34,1443.88 2289.34,1443.23 "/>
<polyline clip-path="url(#clip711)" style="stroke:#ff0000; stroke-linecap:round; stroke-linejoin:round; stroke-width:0; stroke-opacity:1; fill:none" points="2289.34,1442.56 1937.05,1442.56 1937.05,1443.23 2289.34,1443.23 2289.34,1442.56 2113.2,1442.56 "/>
<polyline clip-path="url(#clip711)" style="stroke:#ff0000; stroke-linecap:round; stroke-linejoin:round; stroke-width:0; stroke-opacity:1; fill:none" points="2113.2,1440.58 2025.12,1440.58 2201.27,1440.58 2113.2,1440.58 2113.2,1442.56 "/>
</svg>
