<?xml version="1.0" encoding="utf-8"?>
<svg xmlns="http://www.w3.org/2000/svg" xmlns:xlink="http://www.w3.org/1999/xlink" width="600" height="400" viewBox="0 0 2400 1600">
<defs>
  <clipPath id="clip860">
    <rect x="0" y="0" width="2400" height="1600"/>
  </clipPath>
</defs>
<path clip-path="url(#clip860)" d="M0 1600 L2400 1600 L2400 0 L0 0  Z" fill="#ffffff" fill-rule="evenodd" fill-opacity="1"/>
<defs>
  <clipPath id="clip861">
    <rect x="169" y="47" width="2185" height="1440"/>
  </clipPath>
</defs>
<path clip-path="url(#clip860)" d="M169.121 1486.45 L2352.76 1486.45 L2352.76 47.2441 L169.121 47.2441  Z" fill="#ffffff" fill-rule="evenodd" fill-opacity="1"/>
<polyline clip-path="url(#clip861)" style="stroke:#000000; stroke-linecap:round; stroke-linejoin:round; stroke-width:2; stroke-opacity:0.1; fill:none" points="402.592,1486.45 402.592,47.2441 "/>
<polyline clip-path="url(#clip861)" style="stroke:#000000; stroke-linecap:round; stroke-linejoin:round; stroke-width:2; stroke-opacity:0.1; fill:none" points="831.765,1486.45 831.765,47.2441 "/>
<polyline clip-path="url(#clip861)" style="stroke:#000000; stroke-linecap:round; stroke-linejoin:round; stroke-width:2; stroke-opacity:0.1; fill:none" points="1260.94,1486.45 1260.94,47.2441 "/>
<polyline clip-path="url(#clip861)" style="stroke:#000000; stroke-linecap:round; stroke-linejoin:round; stroke-width:2; stroke-opacity:0.1; fill:none" points="1690.11,1486.45 1690.11,47.2441 "/>
<polyline clip-path="url(#clip861)" style="stroke:#000000; stroke-linecap:round; stroke-linejoin:round; stroke-width:2; stroke-opacity:0.1; fill:none" points="2119.29,1486.45 2119.29,47.2441 "/>
<polyline clip-path="url(#clip861)" style="stroke:#000000; stroke-linecap:round; stroke-linejoin:round; stroke-width:2; stroke-opacity:0.1; fill:none" points="169.121,1451.07 2352.76,1451.07 "/>
<polyline clip-path="url(#clip861)" style="stroke:#000000; stroke-linecap:round; stroke-linejoin:round; stroke-width:2; stroke-opacity:0.1; fill:none" points="169.121,1110.3 2352.76,1110.3 "/>
<polyline clip-path="url(#clip861)" style="stroke:#000000; stroke-linecap:round; stroke-linejoin:round; stroke-width:2; stroke-opacity:0.1; fill:none" points="169.121,769.525 2352.76,769.525 "/>
<polyline clip-path="url(#clip861)" style="stroke:#000000; stroke-linecap:round; stroke-linejoin:round; stroke-width:2; stroke-opacity:0.1; fill:none" points="169.121,428.75 2352.76,428.75 "/>
<polyline clip-path="url(#clip861)" style="stroke:#000000; stroke-linecap:round; stroke-linejoin:round; stroke-width:2; stroke-opacity:0.1; fill:none" points="169.121,87.9763 2352.76,87.9763 "/>
<polyline clip-path="url(#clip860)" style="stroke:#000000; stroke-linecap:round; stroke-linejoin:round; stroke-width:4; stroke-opacity:1; fill:none" points="169.121,1486.45 2352.76,1486.45 "/>
<polyline clip-path="url(#clip860)" style="stroke:#000000; stroke-linecap:round; stroke-linejoin:round; stroke-width:4; stroke-opacity:1; fill:none" points="402.592,1486.45 402.592,1467.55 "/>
<polyline clip-path="url(#clip860)" style="stroke:#000000; stroke-linecap:round; stroke-linejoin:round; stroke-width:4; stroke-opacity:1; fill:none" points="831.765,1486.45 831.765,1467.55 "/>
<polyline clip-path="url(#clip860)" style="stroke:#000000; stroke-linecap:round; stroke-linejoin:round; stroke-width:4; stroke-opacity:1; fill:none" points="1260.94,1486.45 1260.94,1467.55 "/>
<polyline clip-path="url(#clip860)" style="stroke:#000000; stroke-linecap:round; stroke-linejoin:round; stroke-width:4; stroke-opacity:1; fill:none" points="1690.11,1486.45 1690.11,1467.55 "/>
<polyline clip-path="url(#clip860)" style="stroke:#000000; stroke-linecap:round; stroke-linejoin:round; stroke-width:4; stroke-opacity:1; fill:none" points="2119.29,1486.45 2119.29,1467.55 "/>
<path clip-path="url(#clip860)" d="M377.279 1544.91 L384.918 1544.91 L384.918 1518.55 L376.608 1520.21 L376.608 1515.95 L384.872 1514.29 L389.548 1514.29 L389.548 1544.91 L397.187 1544.91 L397.187 1548.85 L377.279 1548.85 L377.279 1544.91 Z" fill="#000000" fill-rule="nonzero" fill-opacity="1" /><path clip-path="url(#clip860)" d="M416.631 1517.37 Q413.02 1517.37 411.191 1520.93 Q409.386 1524.47 409.386 1531.6 Q409.386 1538.71 411.191 1542.27 Q413.02 1545.82 416.631 1545.82 Q420.265 1545.82 422.071 1542.27 Q423.899 1538.71 423.899 1531.6 Q423.899 1524.47 422.071 1520.93 Q420.265 1517.37 416.631 1517.37 M416.631 1513.66 Q422.441 1513.66 425.497 1518.27 Q428.575 1522.85 428.575 1531.6 Q428.575 1540.33 425.497 1544.94 Q422.441 1549.52 416.631 1549.52 Q410.821 1549.52 407.742 1544.94 Q404.687 1540.33 404.687 1531.6 Q404.687 1522.85 407.742 1518.27 Q410.821 1513.66 416.631 1513.66 Z" fill="#000000" fill-rule="nonzero" fill-opacity="1" /><path clip-path="url(#clip860)" d="M806.464 1514.29 L824.821 1514.29 L824.821 1518.22 L810.747 1518.22 L810.747 1526.7 Q811.765 1526.35 812.784 1526.19 Q813.802 1526 814.821 1526 Q820.608 1526 823.987 1529.17 Q827.367 1532.34 827.367 1537.76 Q827.367 1543.34 823.895 1546.44 Q820.423 1549.52 814.103 1549.52 Q811.927 1549.52 809.659 1549.15 Q807.413 1548.78 805.006 1548.04 L805.006 1543.34 Q807.089 1544.47 809.312 1545.03 Q811.534 1545.58 814.011 1545.58 Q818.015 1545.58 820.353 1543.48 Q822.691 1541.37 822.691 1537.76 Q822.691 1534.15 820.353 1532.04 Q818.015 1529.94 814.011 1529.94 Q812.136 1529.94 810.261 1530.35 Q808.409 1530.77 806.464 1531.65 L806.464 1514.29 Z" fill="#000000" fill-rule="nonzero" fill-opacity="1" /><path clip-path="url(#clip860)" d="M846.58 1517.37 Q842.969 1517.37 841.14 1520.93 Q839.335 1524.47 839.335 1531.6 Q839.335 1538.71 841.14 1542.27 Q842.969 1545.82 846.58 1545.82 Q850.214 1545.82 852.02 1542.27 Q853.848 1538.71 853.848 1531.6 Q853.848 1524.47 852.02 1520.93 Q850.214 1517.37 846.58 1517.37 M846.58 1513.66 Q852.39 1513.66 855.446 1518.27 Q858.524 1522.85 858.524 1531.6 Q858.524 1540.33 855.446 1544.94 Q852.39 1549.52 846.58 1549.52 Q840.77 1549.52 837.691 1544.94 Q834.636 1540.33 834.636 1531.6 Q834.636 1522.85 837.691 1518.27 Q840.77 1513.66 846.58 1513.66 Z" fill="#000000" fill-rule="nonzero" fill-opacity="1" /><path clip-path="url(#clip860)" d="M1220.55 1544.91 L1228.18 1544.91 L1228.18 1518.55 L1219.87 1520.21 L1219.87 1515.95 L1228.14 1514.29 L1232.81 1514.29 L1232.81 1544.91 L1240.45 1544.91 L1240.45 1548.85 L1220.55 1548.85 L1220.55 1544.91 Z" fill="#000000" fill-rule="nonzero" fill-opacity="1" /><path clip-path="url(#clip860)" d="M1259.9 1517.37 Q1256.29 1517.37 1254.46 1520.93 Q1252.65 1524.47 1252.65 1531.6 Q1252.65 1538.71 1254.46 1542.27 Q1256.29 1545.82 1259.9 1545.82 Q1263.53 1545.82 1265.34 1542.27 Q1267.17 1538.71 1267.17 1531.6 Q1267.17 1524.47 1265.34 1520.93 Q1263.53 1517.37 1259.9 1517.37 M1259.9 1513.66 Q1265.71 1513.66 1268.76 1518.27 Q1271.84 1522.85 1271.84 1531.6 Q1271.84 1540.33 1268.76 1544.94 Q1265.71 1549.52 1259.9 1549.52 Q1254.09 1549.52 1251.01 1544.94 Q1247.95 1540.33 1247.95 1531.6 Q1247.95 1522.85 1251.01 1518.27 Q1254.09 1513.66 1259.9 1513.66 Z" fill="#000000" fill-rule="nonzero" fill-opacity="1" /><path clip-path="url(#clip860)" d="M1290.06 1517.37 Q1286.45 1517.37 1284.62 1520.93 Q1282.81 1524.47 1282.81 1531.6 Q1282.81 1538.71 1284.62 1542.27 Q1286.45 1545.82 1290.06 1545.82 Q1293.69 1545.82 1295.5 1542.27 Q1297.33 1538.71 1297.33 1531.6 Q1297.33 1524.47 1295.5 1520.93 Q1293.69 1517.37 1290.06 1517.37 M1290.06 1513.66 Q1295.87 1513.66 1298.92 1518.27 Q1302 1522.85 1302 1531.6 Q1302 1540.33 1298.92 1544.94 Q1295.87 1549.52 1290.06 1549.52 Q1284.25 1549.52 1281.17 1544.94 Q1278.11 1540.33 1278.11 1531.6 Q1278.11 1522.85 1281.17 1518.27 Q1284.25 1513.66 1290.06 1513.66 Z" fill="#000000" fill-rule="nonzero" fill-opacity="1" /><path clip-path="url(#clip860)" d="M1653.8 1544.91 L1670.12 1544.91 L1670.12 1548.85 L1648.18 1548.85 L1648.18 1544.91 Q1650.84 1542.16 1655.42 1537.53 Q1660.03 1532.88 1661.21 1531.53 Q1663.46 1529.01 1664.34 1527.27 Q1665.24 1525.51 1665.24 1523.82 Q1665.24 1521.07 1663.3 1519.33 Q1661.37 1517.6 1658.27 1517.6 Q1656.07 1517.6 1653.62 1518.36 Q1651.19 1519.13 1648.41 1520.68 L1648.41 1515.95 Q1651.23 1514.82 1653.69 1514.24 Q1656.14 1513.66 1658.18 1513.66 Q1663.55 1513.66 1666.74 1516.35 Q1669.94 1519.03 1669.94 1523.52 Q1669.94 1525.65 1669.13 1527.57 Q1668.34 1529.47 1666.23 1532.07 Q1665.66 1532.74 1662.55 1535.95 Q1659.45 1539.15 1653.8 1544.91 Z" fill="#000000" fill-rule="nonzero" fill-opacity="1" /><path clip-path="url(#clip860)" d="M1689.94 1517.37 Q1686.33 1517.37 1684.5 1520.93 Q1682.69 1524.47 1682.69 1531.6 Q1682.69 1538.71 1684.5 1542.27 Q1686.33 1545.82 1689.94 1545.82 Q1693.57 1545.82 1695.38 1542.27 Q1697.21 1538.71 1697.21 1531.6 Q1697.21 1524.47 1695.38 1520.93 Q1693.57 1517.37 1689.94 1517.37 M1689.94 1513.66 Q1695.75 1513.66 1698.8 1518.27 Q1701.88 1522.85 1701.88 1531.6 Q1701.88 1540.33 1698.8 1544.94 Q1695.75 1549.52 1689.94 1549.52 Q1684.13 1549.52 1681.05 1544.94 Q1677.99 1540.33 1677.99 1531.6 Q1677.99 1522.85 1681.05 1518.27 Q1684.13 1513.66 1689.94 1513.66 Z" fill="#000000" fill-rule="nonzero" fill-opacity="1" /><path clip-path="url(#clip860)" d="M1720.1 1517.37 Q1716.49 1517.37 1714.66 1520.93 Q1712.86 1524.47 1712.86 1531.6 Q1712.86 1538.71 1714.66 1542.27 Q1716.49 1545.82 1720.1 1545.82 Q1723.73 1545.82 1725.54 1542.27 Q1727.37 1538.71 1727.37 1531.6 Q1727.37 1524.47 1725.54 1520.93 Q1723.73 1517.37 1720.1 1517.37 M1720.1 1513.66 Q1725.91 1513.66 1728.97 1518.27 Q1732.04 1522.85 1732.04 1531.6 Q1732.04 1540.33 1728.97 1544.94 Q1725.91 1549.52 1720.1 1549.52 Q1714.29 1549.52 1711.21 1544.94 Q1708.16 1540.33 1708.16 1531.6 Q1708.16 1522.85 1711.21 1518.27 Q1714.29 1513.66 1720.1 1513.66 Z" fill="#000000" fill-rule="nonzero" fill-opacity="1" /><path clip-path="url(#clip860)" d="M2078.9 1514.29 L2097.26 1514.29 L2097.26 1518.22 L2083.19 1518.22 L2083.19 1526.7 Q2084.2 1526.35 2085.22 1526.19 Q2086.24 1526 2087.26 1526 Q2093.05 1526 2096.43 1529.17 Q2099.81 1532.34 2099.81 1537.76 Q2099.81 1543.34 2096.33 1546.44 Q2092.86 1549.52 2086.54 1549.52 Q2084.37 1549.52 2082.1 1549.15 Q2079.85 1548.78 2077.45 1548.04 L2077.45 1543.34 Q2079.53 1544.47 2081.75 1545.03 Q2083.97 1545.58 2086.45 1545.58 Q2090.45 1545.58 2092.79 1543.48 Q2095.13 1541.37 2095.13 1537.76 Q2095.13 1534.15 2092.79 1532.04 Q2090.45 1529.94 2086.45 1529.94 Q2084.58 1529.94 2082.7 1530.35 Q2080.85 1530.77 2078.9 1531.65 L2078.9 1514.29 Z" fill="#000000" fill-rule="nonzero" fill-opacity="1" /><path clip-path="url(#clip860)" d="M2119.02 1517.37 Q2115.41 1517.37 2113.58 1520.93 Q2111.77 1524.47 2111.77 1531.6 Q2111.77 1538.71 2113.58 1542.27 Q2115.41 1545.82 2119.02 1545.82 Q2122.65 1545.82 2124.46 1542.27 Q2126.29 1538.71 2126.29 1531.6 Q2126.29 1524.47 2124.46 1520.93 Q2122.65 1517.37 2119.02 1517.37 M2119.02 1513.66 Q2124.83 1513.66 2127.89 1518.27 Q2130.96 1522.85 2130.96 1531.6 Q2130.96 1540.33 2127.89 1544.94 Q2124.83 1549.52 2119.02 1549.52 Q2113.21 1549.52 2110.13 1544.94 Q2107.07 1540.33 2107.07 1531.6 Q2107.07 1522.85 2110.13 1518.27 Q2113.21 1513.66 2119.02 1513.66 Z" fill="#000000" fill-rule="nonzero" fill-opacity="1" /><path clip-path="url(#clip860)" d="M2149.18 1517.37 Q2145.57 1517.37 2143.74 1520.93 Q2141.94 1524.47 2141.94 1531.6 Q2141.94 1538.71 2143.74 1542.27 Q2145.57 1545.82 2149.18 1545.82 Q2152.82 1545.82 2154.62 1542.27 Q2156.45 1538.71 2156.45 1531.6 Q2156.45 1524.47 2154.62 1520.93 Q2152.82 1517.37 2149.18 1517.37 M2149.18 1513.66 Q2154.99 1513.66 2158.05 1518.27 Q2161.13 1522.85 2161.13 1531.6 Q2161.13 1540.33 2158.05 1544.94 Q2154.99 1549.52 2149.18 1549.52 Q2143.37 1549.52 2140.29 1544.94 Q2137.24 1540.33 2137.24 1531.6 Q2137.24 1522.85 2140.29 1518.27 Q2143.37 1513.66 2149.18 1513.66 Z" fill="#000000" fill-rule="nonzero" fill-opacity="1" /><polyline clip-path="url(#clip860)" style="stroke:#000000; stroke-linecap:round; stroke-linejoin:round; stroke-width:4; stroke-opacity:1; fill:none" points="169.121,1486.45 169.121,47.2441 "/>
<polyline clip-path="url(#clip860)" style="stroke:#000000; stroke-linecap:round; stroke-linejoin:round; stroke-width:4; stroke-opacity:1; fill:none" points="169.121,1451.07 188.019,1451.07 "/>
<polyline clip-path="url(#clip860)" style="stroke:#000000; stroke-linecap:round; stroke-linejoin:round; stroke-width:4; stroke-opacity:1; fill:none" points="169.121,1110.3 188.019,1110.3 "/>
<polyline clip-path="url(#clip860)" style="stroke:#000000; stroke-linecap:round; stroke-linejoin:round; stroke-width:4; stroke-opacity:1; fill:none" points="169.121,769.525 188.019,769.525 "/>
<polyline clip-path="url(#clip860)" style="stroke:#000000; stroke-linecap:round; stroke-linejoin:round; stroke-width:4; stroke-opacity:1; fill:none" points="169.121,428.75 188.019,428.75 "/>
<polyline clip-path="url(#clip860)" style="stroke:#000000; stroke-linecap:round; stroke-linejoin:round; stroke-width:4; stroke-opacity:1; fill:none" points="169.121,87.9763 188.019,87.9763 "/>
<path clip-path="url(#clip860)" d="M91.0151 1451.94 Q87.6817 1451.94 85.7605 1453.72 Q83.8623 1455.51 83.8623 1458.63 Q83.8623 1461.76 85.7605 1463.54 Q87.6817 1465.32 91.0151 1465.32 Q94.3484 1465.32 96.2697 1463.54 Q98.1909 1461.73 98.1909 1458.63 Q98.1909 1455.51 96.2697 1453.72 Q94.3715 1451.94 91.0151 1451.94 M86.3392 1449.95 Q83.3299 1449.21 81.6401 1447.15 Q79.9735 1445.09 79.9735 1442.13 Q79.9735 1437.98 82.9133 1435.58 Q85.8762 1433.17 91.0151 1433.17 Q96.1771 1433.17 99.1169 1435.58 Q102.057 1437.98 102.057 1442.13 Q102.057 1445.09 100.367 1447.15 Q98.7002 1449.21 95.7141 1449.95 Q99.0937 1450.74 100.969 1453.03 Q102.867 1455.32 102.867 1458.63 Q102.867 1463.65 99.7882 1466.34 Q96.7326 1469.02 91.0151 1469.02 Q85.2975 1469.02 82.2188 1466.34 Q79.1633 1463.65 79.1633 1458.63 Q79.1633 1455.32 81.0614 1453.03 Q82.9595 1450.74 86.3392 1449.95 M84.6262 1442.57 Q84.6262 1445.25 86.2929 1446.76 Q87.9827 1448.26 91.0151 1448.26 Q94.0243 1448.26 95.7141 1446.76 Q97.4271 1445.25 97.4271 1442.57 Q97.4271 1439.88 95.7141 1438.38 Q94.0243 1436.87 91.0151 1436.87 Q87.9827 1436.87 86.2929 1438.38 Q84.6262 1439.88 84.6262 1442.57 Z" fill="#000000" fill-rule="nonzero" fill-opacity="1" /><path clip-path="url(#clip860)" d="M121.177 1436.87 Q117.566 1436.87 115.737 1440.44 Q113.932 1443.98 113.932 1451.11 Q113.932 1458.21 115.737 1461.78 Q117.566 1465.32 121.177 1465.32 Q124.811 1465.32 126.617 1461.78 Q128.445 1458.21 128.445 1451.11 Q128.445 1443.98 126.617 1440.44 Q124.811 1436.87 121.177 1436.87 M121.177 1433.17 Q126.987 1433.17 130.043 1437.77 Q133.121 1442.36 133.121 1451.11 Q133.121 1459.83 130.043 1464.44 Q126.987 1469.02 121.177 1469.02 Q115.367 1469.02 112.288 1464.44 Q109.233 1459.83 109.233 1451.11 Q109.233 1442.36 112.288 1437.77 Q115.367 1433.17 121.177 1433.17 Z" fill="#000000" fill-rule="nonzero" fill-opacity="1" /><path clip-path="url(#clip860)" d="M92.0104 1111.17 Q88.6771 1111.17 86.7558 1112.95 Q84.8577 1114.73 84.8577 1117.86 Q84.8577 1120.98 86.7558 1122.76 Q88.6771 1124.55 92.0104 1124.55 Q95.3437 1124.55 97.265 1122.76 Q99.1863 1120.96 99.1863 1117.86 Q99.1863 1114.73 97.265 1112.95 Q95.3669 1111.17 92.0104 1111.17 M87.3345 1109.18 Q84.3253 1108.44 82.6355 1106.38 Q80.9688 1104.32 80.9688 1101.35 Q80.9688 1097.21 83.9086 1094.8 Q86.8716 1092.39 92.0104 1092.39 Q97.1724 1092.39 100.112 1094.8 Q103.052 1097.21 103.052 1101.35 Q103.052 1104.32 101.362 1106.38 Q99.6956 1108.44 96.7095 1109.18 Q100.089 1109.96 101.964 1112.25 Q103.862 1114.55 103.862 1117.86 Q103.862 1122.88 100.784 1125.57 Q97.728 1128.25 92.0104 1128.25 Q86.2929 1128.25 83.2142 1125.57 Q80.1586 1122.88 80.1586 1117.86 Q80.1586 1114.55 82.0568 1112.25 Q83.9549 1109.96 87.3345 1109.18 M85.6216 1101.79 Q85.6216 1104.48 87.2882 1105.98 Q88.978 1107.49 92.0104 1107.49 Q95.0197 1107.49 96.7095 1105.98 Q98.4224 1104.48 98.4224 1101.79 Q98.4224 1099.11 96.7095 1097.6 Q95.0197 1096.1 92.0104 1096.1 Q88.978 1096.1 87.2882 1097.6 Q85.6216 1099.11 85.6216 1101.79 Z" fill="#000000" fill-rule="nonzero" fill-opacity="1" /><path clip-path="url(#clip860)" d="M112.219 1093.02 L130.575 1093.02 L130.575 1096.95 L116.501 1096.95 L116.501 1105.43 Q117.52 1105.08 118.538 1104.92 Q119.557 1104.73 120.575 1104.73 Q126.362 1104.73 129.742 1107.9 Q133.121 1111.07 133.121 1116.49 Q133.121 1122.07 129.649 1125.17 Q126.177 1128.25 119.857 1128.25 Q117.682 1128.25 115.413 1127.88 Q113.168 1127.51 110.76 1126.77 L110.76 1122.07 Q112.844 1123.2 115.066 1123.76 Q117.288 1124.32 119.765 1124.32 Q123.77 1124.32 126.107 1122.21 Q128.445 1120.1 128.445 1116.49 Q128.445 1112.88 126.107 1110.77 Q123.77 1108.67 119.765 1108.67 Q117.89 1108.67 116.015 1109.08 Q114.163 1109.5 112.219 1110.38 L112.219 1093.02 Z" fill="#000000" fill-rule="nonzero" fill-opacity="1" /><path clip-path="url(#clip860)" d="M81.154 786.087 L81.154 781.828 Q82.9133 782.661 84.7188 783.101 Q86.5243 783.541 88.2604 783.541 Q92.89 783.541 95.3206 780.439 Q97.7743 777.314 98.1215 770.971 Q96.7789 772.962 94.7187 774.027 Q92.6586 775.092 90.1586 775.092 Q84.9734 775.092 81.941 771.967 Q78.9318 768.819 78.9318 763.379 Q78.9318 758.055 82.0799 754.837 Q85.2281 751.62 90.4595 751.62 Q96.4548 751.62 99.603 756.226 Q102.774 760.809 102.774 769.559 Q102.774 777.731 98.8854 782.615 Q95.0197 787.476 88.4688 787.476 Q86.7095 787.476 84.904 787.129 Q83.0984 786.782 81.154 786.087 M90.4595 771.434 Q93.6076 771.434 95.4363 769.282 Q97.2882 767.129 97.2882 763.379 Q97.2882 759.652 95.4363 757.499 Q93.6076 755.323 90.4595 755.323 Q87.3114 755.323 85.4595 757.499 Q83.6308 759.652 83.6308 763.379 Q83.6308 767.129 85.4595 769.282 Q87.3114 771.434 90.4595 771.434 Z" fill="#000000" fill-rule="nonzero" fill-opacity="1" /><path clip-path="url(#clip860)" d="M121.177 755.323 Q117.566 755.323 115.737 758.888 Q113.932 762.43 113.932 769.559 Q113.932 776.666 115.737 780.231 Q117.566 783.772 121.177 783.772 Q124.811 783.772 126.617 780.231 Q128.445 776.666 128.445 769.559 Q128.445 762.43 126.617 758.888 Q124.811 755.323 121.177 755.323 M121.177 751.62 Q126.987 751.62 130.043 756.226 Q133.121 760.809 133.121 769.559 Q133.121 778.286 130.043 782.893 Q126.987 787.476 121.177 787.476 Q115.367 787.476 112.288 782.893 Q109.233 778.286 109.233 769.559 Q109.233 760.809 112.288 756.226 Q115.367 751.62 121.177 751.62 Z" fill="#000000" fill-rule="nonzero" fill-opacity="1" /><path clip-path="url(#clip860)" d="M82.1494 445.313 L82.1494 441.054 Q83.9086 441.887 85.7142 442.327 Q87.5197 442.767 89.2558 442.767 Q93.8854 442.767 96.316 439.665 Q98.7696 436.54 99.1169 430.197 Q97.7743 432.188 95.7141 433.253 Q93.6539 434.318 91.1539 434.318 Q85.9688 434.318 82.9364 431.193 Q79.9272 428.044 79.9272 422.605 Q79.9272 417.281 83.0753 414.063 Q86.2234 410.845 91.4549 410.845 Q97.4502 410.845 100.598 415.452 Q103.77 420.035 103.77 428.785 Q103.77 436.956 99.8808 441.841 Q96.015 446.702 89.4641 446.702 Q87.7049 446.702 85.8993 446.355 Q84.0938 446.007 82.1494 445.313 M91.4549 430.66 Q94.603 430.66 96.4317 428.507 Q98.2835 426.355 98.2835 422.605 Q98.2835 418.878 96.4317 416.725 Q94.603 414.549 91.4549 414.549 Q88.3067 414.549 86.4549 416.725 Q84.6262 418.878 84.6262 422.605 Q84.6262 426.355 86.4549 428.507 Q88.3067 430.66 91.4549 430.66 Z" fill="#000000" fill-rule="nonzero" fill-opacity="1" /><path clip-path="url(#clip860)" d="M112.219 411.47 L130.575 411.47 L130.575 415.406 L116.501 415.406 L116.501 423.878 Q117.52 423.531 118.538 423.369 Q119.557 423.183 120.575 423.183 Q126.362 423.183 129.742 426.355 Q133.121 429.526 133.121 434.943 Q133.121 440.521 129.649 443.623 Q126.177 446.702 119.857 446.702 Q117.682 446.702 115.413 446.331 Q113.168 445.961 110.76 445.22 L110.76 440.521 Q112.844 441.656 115.066 442.211 Q117.288 442.767 119.765 442.767 Q123.77 442.767 126.107 440.66 Q128.445 438.554 128.445 434.943 Q128.445 431.331 126.107 429.225 Q123.77 427.119 119.765 427.119 Q117.89 427.119 116.015 427.535 Q114.163 427.952 112.219 428.832 L112.219 411.47 Z" fill="#000000" fill-rule="nonzero" fill-opacity="1" /><path clip-path="url(#clip860)" d="M51.6634 101.321 L59.3023 101.321 L59.3023 74.9555 L50.9921 76.6222 L50.9921 72.3629 L59.256 70.6963 L63.9319 70.6963 L63.9319 101.321 L71.5707 101.321 L71.5707 105.256 L51.6634 105.256 L51.6634 101.321 Z" fill="#000000" fill-rule="nonzero" fill-opacity="1" /><path clip-path="url(#clip860)" d="M91.0151 73.775 Q87.404 73.775 85.5753 77.3398 Q83.7697 80.8814 83.7697 88.011 Q83.7697 95.1174 85.5753 98.6822 Q87.404 102.224 91.0151 102.224 Q94.6493 102.224 96.4548 98.6822 Q98.2835 95.1174 98.2835 88.011 Q98.2835 80.8814 96.4548 77.3398 Q94.6493 73.775 91.0151 73.775 M91.0151 70.0713 Q96.8252 70.0713 99.8808 74.6777 Q102.959 79.261 102.959 88.011 Q102.959 96.7378 99.8808 101.344 Q96.8252 105.928 91.0151 105.928 Q85.2049 105.928 82.1262 101.344 Q79.0707 96.7378 79.0707 88.011 Q79.0707 79.261 82.1262 74.6777 Q85.2049 70.0713 91.0151 70.0713 Z" fill="#000000" fill-rule="nonzero" fill-opacity="1" /><path clip-path="url(#clip860)" d="M121.177 73.775 Q117.566 73.775 115.737 77.3398 Q113.932 80.8814 113.932 88.011 Q113.932 95.1174 115.737 98.6822 Q117.566 102.224 121.177 102.224 Q124.811 102.224 126.617 98.6822 Q128.445 95.1174 128.445 88.011 Q128.445 80.8814 126.617 77.3398 Q124.811 73.775 121.177 73.775 M121.177 70.0713 Q126.987 70.0713 130.043 74.6777 Q133.121 79.261 133.121 88.011 Q133.121 96.7378 130.043 101.344 Q126.987 105.928 121.177 105.928 Q115.367 105.928 112.288 101.344 Q109.233 96.7378 109.233 88.011 Q109.233 79.261 112.288 74.6777 Q115.367 70.0713 121.177 70.0713 Z" fill="#000000" fill-rule="nonzero" fill-opacity="1" /><path clip-path="url(#clip861)" d="M402.592 1445.03 L316.757 1445.03 L488.426 1445.03 L402.592 1445.03 L402.592 1442.25 L402.592 1445.03  Z" fill="#ff0000" fill-rule="evenodd" fill-opacity="1"/>
<polyline clip-path="url(#clip861)" style="stroke:#000000; stroke-linecap:round; stroke-linejoin:round; stroke-width:4; stroke-opacity:1; fill:none" points="402.592,1445.03 316.757,1445.03 488.426,1445.03 402.592,1445.03 402.592,1442.25 402.592,1445.03 "/>
<path clip-path="url(#clip861)" d="M574.261 1442.25 L574.261 1441.32 L230.922 1441.32 L230.922 1442.25 L574.261 1442.25 L574.261 1441.32 L574.261 1442.25  Z" fill="#ff0000" fill-rule="evenodd" fill-opacity="1"/>
<polyline clip-path="url(#clip861)" style="stroke:#000000; stroke-linecap:round; stroke-linejoin:round; stroke-width:4; stroke-opacity:1; fill:none" points="574.261,1442.25 574.261,1441.32 230.922,1441.32 230.922,1442.25 574.261,1442.25 574.261,1441.32 574.261,1442.25 "/>
<path clip-path="url(#clip861)" d="M574.261 1440.34 L230.922 1440.34 L230.922 1441.32 L574.261 1441.32 L574.261 1440.34 L402.592 1440.34 L574.261 1440.34  Z" fill="#ff0000" fill-rule="evenodd" fill-opacity="1"/>
<polyline clip-path="url(#clip861)" style="stroke:#000000; stroke-linecap:round; stroke-linejoin:round; stroke-width:4; stroke-opacity:1; fill:none" points="574.261,1440.34 230.922,1440.34 230.922,1441.32 574.261,1441.32 574.261,1440.34 402.592,1440.34 574.261,1440.34 "/>
<path clip-path="url(#clip861)" d="M402.592 1437.55 L316.757 1437.55 L488.426 1437.55 L402.592 1437.55 L402.592 1440.34 L402.592 1437.55  Z" fill="#ff0000" fill-rule="evenodd" fill-opacity="1"/>
<polyline clip-path="url(#clip861)" style="stroke:#000000; stroke-linecap:round; stroke-linejoin:round; stroke-width:4; stroke-opacity:1; fill:none" points="402.592,1437.55 316.757,1437.55 488.426,1437.55 402.592,1437.55 402.592,1440.34 402.592,1437.55 "/>
<path clip-path="url(#clip861)" d="M831.765 1405.48 L745.93 1405.48 L917.6 1405.48 L831.765 1405.48 L831.765 1402.8 L831.765 1405.48  Z" fill="#ff0000" fill-rule="evenodd" fill-opacity="1"/>
<polyline clip-path="url(#clip861)" style="stroke:#000000; stroke-linecap:round; stroke-linejoin:round; stroke-width:4; stroke-opacity:1; fill:none" points="831.765,1405.48 745.93,1405.48 917.6,1405.48 831.765,1405.48 831.765,1402.8 831.765,1405.48 "/>
<path clip-path="url(#clip861)" d="M1003.43 1402.8 L1003.43 1401.88 L660.096 1401.88 L660.096 1402.8 L1003.43 1402.8 L1003.43 1401.88 L1003.43 1402.8  Z" fill="#ff0000" fill-rule="evenodd" fill-opacity="1"/>
<polyline clip-path="url(#clip861)" style="stroke:#000000; stroke-linecap:round; stroke-linejoin:round; stroke-width:4; stroke-opacity:1; fill:none" points="1003.43,1402.8 1003.43,1401.88 660.096,1401.88 660.096,1402.8 1003.43,1402.8 1003.43,1401.88 1003.43,1402.8 "/>
<path clip-path="url(#clip861)" d="M1003.43 1400.96 L660.096 1400.96 L660.096 1401.88 L1003.43 1401.88 L1003.43 1400.96 L831.765 1400.96 L1003.43 1400.96  Z" fill="#ff0000" fill-rule="evenodd" fill-opacity="1"/>
<polyline clip-path="url(#clip861)" style="stroke:#000000; stroke-linecap:round; stroke-linejoin:round; stroke-width:4; stroke-opacity:1; fill:none" points="1003.43,1400.96 660.096,1400.96 660.096,1401.88 1003.43,1401.88 1003.43,1400.96 831.765,1400.96 1003.43,1400.96 "/>
<path clip-path="url(#clip861)" d="M831.765 1398.22 L745.93 1398.22 L917.6 1398.22 L831.765 1398.22 L831.765 1400.96 L831.765 1398.22  Z" fill="#ff0000" fill-rule="evenodd" fill-opacity="1"/>
<polyline clip-path="url(#clip861)" style="stroke:#000000; stroke-linecap:round; stroke-linejoin:round; stroke-width:4; stroke-opacity:1; fill:none" points="831.765,1398.22 745.93,1398.22 917.6,1398.22 831.765,1398.22 831.765,1400.96 831.765,1398.22 "/>
<path clip-path="url(#clip861)" d="M1260.94 1355.19 L1175.1 1355.19 L1346.77 1355.19 L1260.94 1355.19 L1260.94 1352.54 L1260.94 1355.19  Z" fill="#ff0000" fill-rule="evenodd" fill-opacity="1"/>
<polyline clip-path="url(#clip861)" style="stroke:#000000; stroke-linecap:round; stroke-linejoin:round; stroke-width:4; stroke-opacity:1; fill:none" points="1260.94,1355.19 1175.1,1355.19 1346.77,1355.19 1260.94,1355.19 1260.94,1352.54 1260.94,1355.19 "/>
<path clip-path="url(#clip861)" d="M1432.61 1352.54 L1432.61 1351.69 L1089.27 1351.69 L1089.27 1352.54 L1432.61 1352.54 L1432.61 1351.69 L1432.61 1352.54  Z" fill="#ff0000" fill-rule="evenodd" fill-opacity="1"/>
<polyline clip-path="url(#clip861)" style="stroke:#000000; stroke-linecap:round; stroke-linejoin:round; stroke-width:4; stroke-opacity:1; fill:none" points="1432.61,1352.54 1432.61,1351.69 1089.27,1351.69 1089.27,1352.54 1432.61,1352.54 1432.61,1351.69 1432.61,1352.54 "/>
<path clip-path="url(#clip861)" d="M1432.61 1350.75 L1089.27 1350.75 L1089.27 1351.69 L1432.61 1351.69 L1432.61 1350.75 L1260.94 1350.75 L1432.61 1350.75  Z" fill="#ff0000" fill-rule="evenodd" fill-opacity="1"/>
<polyline clip-path="url(#clip861)" style="stroke:#000000; stroke-linecap:round; stroke-linejoin:round; stroke-width:4; stroke-opacity:1; fill:none" points="1432.61,1350.75 1089.27,1350.75 1089.27,1351.69 1432.61,1351.69 1432.61,1350.75 1260.94,1350.75 1432.61,1350.75 "/>
<path clip-path="url(#clip861)" d="M1260.94 1348.14 L1175.1 1348.14 L1346.77 1348.14 L1260.94 1348.14 L1260.94 1350.75 L1260.94 1348.14  Z" fill="#ff0000" fill-rule="evenodd" fill-opacity="1"/>
<polyline clip-path="url(#clip861)" style="stroke:#000000; stroke-linecap:round; stroke-linejoin:round; stroke-width:4; stroke-opacity:1; fill:none" points="1260.94,1348.14 1175.1,1348.14 1346.77,1348.14 1260.94,1348.14 1260.94,1350.75 1260.94,1348.14 "/>
<path clip-path="url(#clip861)" d="M1690.11 1251.26 L1604.28 1251.26 L1775.95 1251.26 L1690.11 1251.26 L1690.11 1248.6 L1690.11 1251.26  Z" fill="#ff0000" fill-rule="evenodd" fill-opacity="1"/>
<polyline clip-path="url(#clip861)" style="stroke:#000000; stroke-linecap:round; stroke-linejoin:round; stroke-width:4; stroke-opacity:1; fill:none" points="1690.11,1251.26 1604.28,1251.26 1775.95,1251.26 1690.11,1251.26 1690.11,1248.6 1690.11,1251.26 "/>
<path clip-path="url(#clip861)" d="M1861.78 1248.6 L1861.78 1247.66 L1518.44 1247.66 L1518.44 1248.6 L1861.78 1248.6 L1861.78 1247.66 L1861.78 1248.6  Z" fill="#ff0000" fill-rule="evenodd" fill-opacity="1"/>
<polyline clip-path="url(#clip861)" style="stroke:#000000; stroke-linecap:round; stroke-linejoin:round; stroke-width:4; stroke-opacity:1; fill:none" points="1861.78,1248.6 1861.78,1247.66 1518.44,1247.66 1518.44,1248.6 1861.78,1248.6 1861.78,1247.66 1861.78,1248.6 "/>
<path clip-path="url(#clip861)" d="M1861.78 1246.76 L1518.44 1246.76 L1518.44 1247.66 L1861.78 1247.66 L1861.78 1246.76 L1690.11 1246.76 L1861.78 1246.76  Z" fill="#ff0000" fill-rule="evenodd" fill-opacity="1"/>
<polyline clip-path="url(#clip861)" style="stroke:#000000; stroke-linecap:round; stroke-linejoin:round; stroke-width:4; stroke-opacity:1; fill:none" points="1861.78,1246.76 1518.44,1246.76 1518.44,1247.66 1861.78,1247.66 1861.78,1246.76 1690.11,1246.76 1861.78,1246.76 "/>
<path clip-path="url(#clip861)" d="M1690.11 1244.33 L1604.28 1244.33 L1775.95 1244.33 L1690.11 1244.33 L1690.11 1246.76 L1690.11 1244.33  Z" fill="#ff0000" fill-rule="evenodd" fill-opacity="1"/>
<polyline clip-path="url(#clip861)" style="stroke:#000000; stroke-linecap:round; stroke-linejoin:round; stroke-width:4; stroke-opacity:1; fill:none" points="1690.11,1244.33 1604.28,1244.33 1775.95,1244.33 1690.11,1244.33 1690.11,1246.76 1690.11,1244.33 "/>
<path clip-path="url(#clip861)" d="M2119.29 904.424 L2033.45 904.424 L2205.12 904.424 L2119.29 904.424 L2119.29 901.652 L2119.29 904.424  Z" fill="#ff0000" fill-rule="evenodd" fill-opacity="1"/>
<polyline clip-path="url(#clip861)" style="stroke:#000000; stroke-linecap:round; stroke-linejoin:round; stroke-width:4; stroke-opacity:1; fill:none" points="2119.29,904.424 2033.45,904.424 2205.12,904.424 2119.29,904.424 2119.29,901.652 2119.29,904.424 "/>
<path clip-path="url(#clip861)" d="M2290.95 901.652 L2290.95 900.725 L1947.62 900.725 L1947.62 901.652 L2290.95 901.652 L2290.95 900.725 L2290.95 901.652  Z" fill="#ff0000" fill-rule="evenodd" fill-opacity="1"/>
<polyline clip-path="url(#clip861)" style="stroke:#000000; stroke-linecap:round; stroke-linejoin:round; stroke-width:4; stroke-opacity:1; fill:none" points="2290.95,901.652 2290.95,900.725 1947.62,900.725 1947.62,901.652 2290.95,901.652 2290.95,900.725 2290.95,901.652 "/>
<path clip-path="url(#clip861)" d="M2290.95 899.778 L1947.62 899.778 L1947.62 900.725 L2290.95 900.725 L2290.95 899.778 L2119.29 899.778 L2290.95 899.778  Z" fill="#ff0000" fill-rule="evenodd" fill-opacity="1"/>
<polyline clip-path="url(#clip861)" style="stroke:#000000; stroke-linecap:round; stroke-linejoin:round; stroke-width:4; stroke-opacity:1; fill:none" points="2290.95,899.778 1947.62,899.778 1947.62,900.725 2290.95,900.725 2290.95,899.778 2119.29,899.778 2290.95,899.778 "/>
<path clip-path="url(#clip861)" d="M2119.29 896.981 L2033.45 896.981 L2205.12 896.981 L2119.29 896.981 L2119.29 899.778 L2119.29 896.981  Z" fill="#ff0000" fill-rule="evenodd" fill-opacity="1"/>
<polyline clip-path="url(#clip861)" style="stroke:#000000; stroke-linecap:round; stroke-linejoin:round; stroke-width:4; stroke-opacity:1; fill:none" points="2119.29,896.981 2033.45,896.981 2205.12,896.981 2119.29,896.981 2119.29,899.778 2119.29,896.981 "/>
<circle clip-path="url(#clip861)" cx="402.592" cy="1445.36" r="14.4" fill="#ff0000" fill-rule="evenodd" fill-opacity="1" stroke="#000000" stroke-opacity="1" stroke-width="3.2"/>
<circle clip-path="url(#clip861)" cx="402.592" cy="1437.18" r="14.4" fill="#ff0000" fill-rule="evenodd" fill-opacity="1" stroke="#000000" stroke-opacity="1" stroke-width="3.2"/>
<circle clip-path="url(#clip861)" cx="402.592" cy="1437.43" r="14.4" fill="#ff0000" fill-rule="evenodd" fill-opacity="1" stroke="#000000" stroke-opacity="1" stroke-width="3.2"/>
<circle clip-path="url(#clip861)" cx="402.592" cy="1445.17" r="14.4" fill="#ff0000" fill-rule="evenodd" fill-opacity="1" stroke="#000000" stroke-opacity="1" stroke-width="3.2"/>
<circle clip-path="url(#clip861)" cx="402.592" cy="1445.72" r="14.4" fill="#ff0000" fill-rule="evenodd" fill-opacity="1" stroke="#000000" stroke-opacity="1" stroke-width="3.2"/>
<circle clip-path="url(#clip861)" cx="831.765" cy="1398.03" r="14.4" fill="#ff0000" fill-rule="evenodd" fill-opacity="1" stroke="#000000" stroke-opacity="1" stroke-width="3.2"/>
<circle clip-path="url(#clip861)" cx="831.765" cy="1405.84" r="14.4" fill="#ff0000" fill-rule="evenodd" fill-opacity="1" stroke="#000000" stroke-opacity="1" stroke-width="3.2"/>
<circle clip-path="url(#clip861)" cx="831.765" cy="1398.16" r="14.4" fill="#ff0000" fill-rule="evenodd" fill-opacity="1" stroke="#000000" stroke-opacity="1" stroke-width="3.2"/>
<circle clip-path="url(#clip861)" cx="831.765" cy="1405.87" r="14.4" fill="#ff0000" fill-rule="evenodd" fill-opacity="1" stroke="#000000" stroke-opacity="1" stroke-width="3.2"/>
<circle clip-path="url(#clip861)" cx="1260.94" cy="1348.01" r="14.4" fill="#ff0000" fill-rule="evenodd" fill-opacity="1" stroke="#000000" stroke-opacity="1" stroke-width="3.2"/>
<circle clip-path="url(#clip861)" cx="1260.94" cy="1355.79" r="14.4" fill="#ff0000" fill-rule="evenodd" fill-opacity="1" stroke="#000000" stroke-opacity="1" stroke-width="3.2"/>
<circle clip-path="url(#clip861)" cx="1260.94" cy="1347.74" r="14.4" fill="#ff0000" fill-rule="evenodd" fill-opacity="1" stroke="#000000" stroke-opacity="1" stroke-width="3.2"/>
<circle clip-path="url(#clip861)" cx="1260.94" cy="1355.51" r="14.4" fill="#ff0000" fill-rule="evenodd" fill-opacity="1" stroke="#000000" stroke-opacity="1" stroke-width="3.2"/>
<circle clip-path="url(#clip861)" cx="1260.94" cy="1355.5" r="14.4" fill="#ff0000" fill-rule="evenodd" fill-opacity="1" stroke="#000000" stroke-opacity="1" stroke-width="3.2"/>
<circle clip-path="url(#clip861)" cx="1260.94" cy="1348.07" r="14.4" fill="#ff0000" fill-rule="evenodd" fill-opacity="1" stroke="#000000" stroke-opacity="1" stroke-width="3.2"/>
<circle clip-path="url(#clip861)" cx="1260.94" cy="1347.99" r="14.4" fill="#ff0000" fill-rule="evenodd" fill-opacity="1" stroke="#000000" stroke-opacity="1" stroke-width="3.2"/>
<circle clip-path="url(#clip861)" cx="1260.94" cy="1355.51" r="14.4" fill="#ff0000" fill-rule="evenodd" fill-opacity="1" stroke="#000000" stroke-opacity="1" stroke-width="3.2"/>
<circle clip-path="url(#clip861)" cx="1690.11" cy="1251.39" r="14.4" fill="#ff0000" fill-rule="evenodd" fill-opacity="1" stroke="#000000" stroke-opacity="1" stroke-width="3.2"/>
<circle clip-path="url(#clip861)" cx="1690.11" cy="1243.84" r="14.4" fill="#ff0000" fill-rule="evenodd" fill-opacity="1" stroke="#000000" stroke-opacity="1" stroke-width="3.2"/>
<circle clip-path="url(#clip861)" cx="1690.11" cy="1251.97" r="14.4" fill="#ff0000" fill-rule="evenodd" fill-opacity="1" stroke="#000000" stroke-opacity="1" stroke-width="3.2"/>
<circle clip-path="url(#clip861)" cx="1690.11" cy="1251.66" r="14.4" fill="#ff0000" fill-rule="evenodd" fill-opacity="1" stroke="#000000" stroke-opacity="1" stroke-width="3.2"/>
<circle clip-path="url(#clip861)" cx="1690.11" cy="1252" r="14.4" fill="#ff0000" fill-rule="evenodd" fill-opacity="1" stroke="#000000" stroke-opacity="1" stroke-width="3.2"/>
<circle clip-path="url(#clip861)" cx="1690.11" cy="1251.85" r="14.4" fill="#ff0000" fill-rule="evenodd" fill-opacity="1" stroke="#000000" stroke-opacity="1" stroke-width="3.2"/>
<circle clip-path="url(#clip861)" cx="1690.11" cy="1251.53" r="14.4" fill="#ff0000" fill-rule="evenodd" fill-opacity="1" stroke="#000000" stroke-opacity="1" stroke-width="3.2"/>
<circle clip-path="url(#clip861)" cx="1690.11" cy="1243.97" r="14.4" fill="#ff0000" fill-rule="evenodd" fill-opacity="1" stroke="#000000" stroke-opacity="1" stroke-width="3.2"/>
<circle clip-path="url(#clip861)" cx="1690.11" cy="1252.31" r="14.4" fill="#ff0000" fill-rule="evenodd" fill-opacity="1" stroke="#000000" stroke-opacity="1" stroke-width="3.2"/>
<circle clip-path="url(#clip861)" cx="2119.29" cy="905.923" r="14.4" fill="#ff0000" fill-rule="evenodd" fill-opacity="1" stroke="#000000" stroke-opacity="1" stroke-width="3.2"/>
<circle clip-path="url(#clip861)" cx="2119.29" cy="904.627" r="14.4" fill="#ff0000" fill-rule="evenodd" fill-opacity="1" stroke="#000000" stroke-opacity="1" stroke-width="3.2"/>
<circle clip-path="url(#clip861)" cx="2119.29" cy="906.405" r="14.4" fill="#ff0000" fill-rule="evenodd" fill-opacity="1" stroke="#000000" stroke-opacity="1" stroke-width="3.2"/>
<circle clip-path="url(#clip861)" cx="2119.29" cy="904.581" r="14.4" fill="#ff0000" fill-rule="evenodd" fill-opacity="1" stroke="#000000" stroke-opacity="1" stroke-width="3.2"/>
<circle clip-path="url(#clip861)" cx="2119.29" cy="905.005" r="14.4" fill="#ff0000" fill-rule="evenodd" fill-opacity="1" stroke="#000000" stroke-opacity="1" stroke-width="3.2"/>
<circle clip-path="url(#clip861)" cx="2119.29" cy="896.917" r="14.4" fill="#ff0000" fill-rule="evenodd" fill-opacity="1" stroke="#000000" stroke-opacity="1" stroke-width="3.2"/>
<circle clip-path="url(#clip861)" cx="2119.29" cy="904.654" r="14.4" fill="#ff0000" fill-rule="evenodd" fill-opacity="1" stroke="#000000" stroke-opacity="1" stroke-width="3.2"/>
<circle clip-path="url(#clip861)" cx="2119.29" cy="895.358" r="14.4" fill="#ff0000" fill-rule="evenodd" fill-opacity="1" stroke="#000000" stroke-opacity="1" stroke-width="3.2"/>
<circle clip-path="url(#clip861)" cx="2119.29" cy="896.269" r="14.4" fill="#ff0000" fill-rule="evenodd" fill-opacity="1" stroke="#000000" stroke-opacity="1" stroke-width="3.2"/>
<circle clip-path="url(#clip861)" cx="2119.29" cy="896.558" r="14.4" fill="#ff0000" fill-rule="evenodd" fill-opacity="1" stroke="#000000" stroke-opacity="1" stroke-width="3.2"/>
<circle clip-path="url(#clip861)" cx="2119.29" cy="904.853" r="14.4" fill="#ff0000" fill-rule="evenodd" fill-opacity="1" stroke="#000000" stroke-opacity="1" stroke-width="3.2"/>
<circle clip-path="url(#clip861)" cx="2119.29" cy="904.775" r="14.4" fill="#ff0000" fill-rule="evenodd" fill-opacity="1" stroke="#000000" stroke-opacity="1" stroke-width="3.2"/>
<polyline clip-path="url(#clip861)" style="stroke:#ff0000; stroke-linecap:round; stroke-linejoin:round; stroke-width:0; stroke-opacity:1; fill:none" points="402.592,1445.03 316.757,1445.03 488.426,1445.03 402.592,1445.03 402.592,1442.25 "/>
<polyline clip-path="url(#clip861)" style="stroke:#ff0000; stroke-linecap:round; stroke-linejoin:round; stroke-width:0; stroke-opacity:1; fill:none" points="574.261,1442.25 574.261,1441.32 230.922,1441.32 230.922,1442.25 574.261,1442.25 574.261,1441.32 "/>
<polyline clip-path="url(#clip861)" style="stroke:#ff0000; stroke-linecap:round; stroke-linejoin:round; stroke-width:0; stroke-opacity:1; fill:none" points="574.261,1440.34 230.922,1440.34 230.922,1441.32 574.261,1441.32 574.261,1440.34 402.592,1440.34 "/>
<polyline clip-path="url(#clip861)" style="stroke:#ff0000; stroke-linecap:round; stroke-linejoin:round; stroke-width:0; stroke-opacity:1; fill:none" points="402.592,1437.55 316.757,1437.55 488.426,1437.55 402.592,1437.55 402.592,1440.34 "/>
<polyline clip-path="url(#clip861)" style="stroke:#ff0000; stroke-linecap:round; stroke-linejoin:round; stroke-width:0; stroke-opacity:1; fill:none" points="831.765,1405.48 745.93,1405.48 917.6,1405.48 831.765,1405.48 831.765,1402.8 "/>
<polyline clip-path="url(#clip861)" style="stroke:#ff0000; stroke-linecap:round; stroke-linejoin:round; stroke-width:0; stroke-opacity:1; fill:none" points="1003.43,1402.8 1003.43,1401.88 660.096,1401.88 660.096,1402.8 1003.43,1402.8 1003.43,1401.88 "/>
<polyline clip-path="url(#clip861)" style="stroke:#ff0000; stroke-linecap:round; stroke-linejoin:round; stroke-width:0; stroke-opacity:1; fill:none" points="1003.43,1400.96 660.096,1400.96 660.096,1401.88 1003.43,1401.88 1003.43,1400.96 831.765,1400.96 "/>
<polyline clip-path="url(#clip861)" style="stroke:#ff0000; stroke-linecap:round; stroke-linejoin:round; stroke-width:0; stroke-opacity:1; fill:none" points="831.765,1398.22 745.93,1398.22 917.6,1398.22 831.765,1398.22 831.765,1400.96 "/>
<polyline clip-path="url(#clip861)" style="stroke:#ff0000; stroke-linecap:round; stroke-linejoin:round; stroke-width:0; stroke-opacity:1; fill:none" points="1260.94,1355.19 1175.1,1355.19 1346.77,1355.19 1260.94,1355.19 1260.94,1352.54 "/>
<polyline clip-path="url(#clip861)" style="stroke:#ff0000; stroke-linecap:round; stroke-linejoin:round; stroke-width:0; stroke-opacity:1; fill:none" points="1432.61,1352.54 1432.61,1351.69 1089.27,1351.69 1089.27,1352.54 1432.61,1352.54 1432.61,1351.69 "/>
<polyline clip-path="url(#clip861)" style="stroke:#ff0000; stroke-linecap:round; stroke-linejoin:round; stroke-width:0; stroke-opacity:1; fill:none" points="1432.61,1350.75 1089.27,1350.75 1089.27,1351.69 1432.61,1351.69 1432.61,1350.75 1260.94,1350.75 "/>
<polyline clip-path="url(#clip861)" style="stroke:#ff0000; stroke-linecap:round; stroke-linejoin:round; stroke-width:0; stroke-opacity:1; fill:none" points="1260.94,1348.14 1175.1,1348.14 1346.77,1348.14 1260.94,1348.14 1260.94,1350.75 "/>
<polyline clip-path="url(#clip861)" style="stroke:#ff0000; stroke-linecap:round; stroke-linejoin:round; stroke-width:0; stroke-opacity:1; fill:none" points="1690.11,1251.26 1604.28,1251.26 1775.95,1251.26 1690.11,1251.26 1690.11,1248.6 "/>
<polyline clip-path="url(#clip861)" style="stroke:#ff0000; stroke-linecap:round; stroke-linejoin:round; stroke-width:0; stroke-opacity:1; fill:none" points="1861.78,1248.6 1861.78,1247.66 1518.44,1247.66 1518.44,1248.6 1861.78,1248.6 1861.78,1247.66 "/>
<polyline clip-path="url(#clip861)" style="stroke:#ff0000; stroke-linecap:round; stroke-linejoin:round; stroke-width:0; stroke-opacity:1; fill:none" points="1861.78,1246.76 1518.44,1246.76 1518.44,1247.66 1861.78,1247.66 1861.78,1246.76 1690.11,1246.76 "/>
<polyline clip-path="url(#clip861)" style="stroke:#ff0000; stroke-linecap:round; stroke-linejoin:round; stroke-width:0; stroke-opacity:1; fill:none" points="1690.11,1244.33 1604.28,1244.33 1775.95,1244.33 1690.11,1244.33 1690.11,1246.76 "/>
<polyline clip-path="url(#clip861)" style="stroke:#ff0000; stroke-linecap:round; stroke-linejoin:round; stroke-width:0; stroke-opacity:1; fill:none" points="2119.29,904.424 2033.45,904.424 2205.12,904.424 2119.29,904.424 2119.29,901.652 "/>
<polyline clip-path="url(#clip861)" style="stroke:#ff0000; stroke-linecap:round; stroke-linejoin:round; stroke-width:0; stroke-opacity:1; fill:none" points="2290.95,901.652 2290.95,900.725 1947.62,900.725 1947.62,901.652 2290.95,901.652 2290.95,900.725 "/>
<polyline clip-path="url(#clip861)" style="stroke:#ff0000; stroke-linecap:round; stroke-linejoin:round; stroke-width:0; stroke-opacity:1; fill:none" points="2290.95,899.778 1947.62,899.778 1947.62,900.725 2290.95,900.725 2290.95,899.778 2119.29,899.778 "/>
<polyline clip-path="url(#clip861)" style="stroke:#ff0000; stroke-linecap:round; stroke-linejoin:round; stroke-width:0; stroke-opacity:1; fill:none" points="2119.29,896.981 2033.45,896.981 2205.12,896.981 2119.29,896.981 2119.29,899.778 "/>
<polyline clip-path="url(#clip861)" style="stroke:#000000; stroke-linecap:round; stroke-linejoin:round; stroke-width:4; stroke-opacity:1; fill:none" stroke-dasharray="16, 10" points="-2014.51,87.9763 4536.39,87.9763 "/>
</svg>
