<?xml version="1.0" encoding="utf-8"?>
<svg xmlns="http://www.w3.org/2000/svg" xmlns:xlink="http://www.w3.org/1999/xlink" width="600" height="400" viewBox="0 0 2400 1600">
<defs>
  <clipPath id="clip070">
    <rect x="0" y="0" width="2400" height="1600"/>
  </clipPath>
</defs>
<path clip-path="url(#clip070)" d="M0 1600 L2400 1600 L2400 0 L0 0  Z" fill="#ffffff" fill-rule="evenodd" fill-opacity="1"/>
<defs>
  <clipPath id="clip071">
    <rect x="140" y="47" width="2213" height="1440"/>
  </clipPath>
</defs>
<path clip-path="url(#clip070)" d="M140.696 1486.45 L2352.76 1486.45 L2352.76 47.2441 L140.696 47.2441  Z" fill="#ffffff" fill-rule="evenodd" fill-opacity="1"/>
<polyline clip-path="url(#clip071)" style="stroke:#000000; stroke-linecap:round; stroke-linejoin:round; stroke-width:2; stroke-opacity:0.1; fill:none" points="426.423,1486.45 426.423,47.2441 "/>
<polyline clip-path="url(#clip071)" style="stroke:#000000; stroke-linecap:round; stroke-linejoin:round; stroke-width:2; stroke-opacity:0.1; fill:none" points="836.575,1486.45 836.575,47.2441 "/>
<polyline clip-path="url(#clip071)" style="stroke:#000000; stroke-linecap:round; stroke-linejoin:round; stroke-width:2; stroke-opacity:0.1; fill:none" points="1246.73,1486.45 1246.73,47.2441 "/>
<polyline clip-path="url(#clip071)" style="stroke:#000000; stroke-linecap:round; stroke-linejoin:round; stroke-width:2; stroke-opacity:0.1; fill:none" points="1656.88,1486.45 1656.88,47.2441 "/>
<polyline clip-path="url(#clip071)" style="stroke:#000000; stroke-linecap:round; stroke-linejoin:round; stroke-width:2; stroke-opacity:0.1; fill:none" points="2067.03,1486.45 2067.03,47.2441 "/>
<polyline clip-path="url(#clip071)" style="stroke:#000000; stroke-linecap:round; stroke-linejoin:round; stroke-width:2; stroke-opacity:0.1; fill:none" points="140.696,1486.45 2352.76,1486.45 "/>
<polyline clip-path="url(#clip071)" style="stroke:#000000; stroke-linecap:round; stroke-linejoin:round; stroke-width:2; stroke-opacity:0.1; fill:none" points="140.696,1152.94 2352.76,1152.94 "/>
<polyline clip-path="url(#clip071)" style="stroke:#000000; stroke-linecap:round; stroke-linejoin:round; stroke-width:2; stroke-opacity:0.1; fill:none" points="140.696,819.431 2352.76,819.431 "/>
<polyline clip-path="url(#clip071)" style="stroke:#000000; stroke-linecap:round; stroke-linejoin:round; stroke-width:2; stroke-opacity:0.1; fill:none" points="140.696,485.923 2352.76,485.923 "/>
<polyline clip-path="url(#clip071)" style="stroke:#000000; stroke-linecap:round; stroke-linejoin:round; stroke-width:2; stroke-opacity:0.1; fill:none" points="140.696,152.414 2352.76,152.414 "/>
<polyline clip-path="url(#clip070)" style="stroke:#000000; stroke-linecap:round; stroke-linejoin:round; stroke-width:4; stroke-opacity:1; fill:none" points="140.696,1486.45 2352.76,1486.45 "/>
<polyline clip-path="url(#clip070)" style="stroke:#000000; stroke-linecap:round; stroke-linejoin:round; stroke-width:4; stroke-opacity:1; fill:none" points="426.423,1486.45 426.423,1467.55 "/>
<polyline clip-path="url(#clip070)" style="stroke:#000000; stroke-linecap:round; stroke-linejoin:round; stroke-width:4; stroke-opacity:1; fill:none" points="836.575,1486.45 836.575,1467.55 "/>
<polyline clip-path="url(#clip070)" style="stroke:#000000; stroke-linecap:round; stroke-linejoin:round; stroke-width:4; stroke-opacity:1; fill:none" points="1246.73,1486.45 1246.73,1467.55 "/>
<polyline clip-path="url(#clip070)" style="stroke:#000000; stroke-linecap:round; stroke-linejoin:round; stroke-width:4; stroke-opacity:1; fill:none" points="1656.88,1486.45 1656.88,1467.55 "/>
<polyline clip-path="url(#clip070)" style="stroke:#000000; stroke-linecap:round; stroke-linejoin:round; stroke-width:4; stroke-opacity:1; fill:none" points="2067.03,1486.45 2067.03,1467.55 "/>
<path clip-path="url(#clip070)" d="M401.111 1544.91 L408.75 1544.91 L408.75 1518.55 L400.44 1520.21 L400.44 1515.95 L408.703 1514.29 L413.379 1514.29 L413.379 1544.91 L421.018 1544.91 L421.018 1548.85 L401.111 1548.85 L401.111 1544.91 Z" fill="#000000" fill-rule="nonzero" fill-opacity="1" /><path clip-path="url(#clip070)" d="M440.463 1517.37 Q436.851 1517.37 435.023 1520.93 Q433.217 1524.47 433.217 1531.6 Q433.217 1538.71 435.023 1542.27 Q436.851 1545.82 440.463 1545.82 Q444.097 1545.82 445.902 1542.27 Q447.731 1538.71 447.731 1531.6 Q447.731 1524.47 445.902 1520.93 Q444.097 1517.37 440.463 1517.37 M440.463 1513.66 Q446.273 1513.66 449.328 1518.27 Q452.407 1522.85 452.407 1531.6 Q452.407 1540.33 449.328 1544.94 Q446.273 1549.52 440.463 1549.52 Q434.652 1549.52 431.574 1544.94 Q428.518 1540.33 428.518 1531.6 Q428.518 1522.85 431.574 1518.27 Q434.652 1513.66 440.463 1513.66 Z" fill="#000000" fill-rule="nonzero" fill-opacity="1" /><path clip-path="url(#clip070)" d="M811.274 1514.29 L829.63 1514.29 L829.63 1518.22 L815.556 1518.22 L815.556 1526.7 Q816.575 1526.35 817.593 1526.19 Q818.612 1526 819.63 1526 Q825.417 1526 828.797 1529.17 Q832.176 1532.34 832.176 1537.76 Q832.176 1543.34 828.704 1546.44 Q825.232 1549.52 818.913 1549.52 Q816.737 1549.52 814.468 1549.15 Q812.223 1548.78 809.815 1548.04 L809.815 1543.34 Q811.899 1544.47 814.121 1545.03 Q816.343 1545.58 818.82 1545.58 Q822.825 1545.58 825.163 1543.48 Q827.5 1541.37 827.5 1537.76 Q827.5 1534.15 825.163 1532.04 Q822.825 1529.94 818.82 1529.94 Q816.945 1529.94 815.07 1530.35 Q813.218 1530.77 811.274 1531.65 L811.274 1514.29 Z" fill="#000000" fill-rule="nonzero" fill-opacity="1" /><path clip-path="url(#clip070)" d="M851.389 1517.37 Q847.778 1517.37 845.949 1520.93 Q844.144 1524.47 844.144 1531.6 Q844.144 1538.71 845.949 1542.27 Q847.778 1545.82 851.389 1545.82 Q855.023 1545.82 856.829 1542.27 Q858.658 1538.71 858.658 1531.6 Q858.658 1524.47 856.829 1520.93 Q855.023 1517.37 851.389 1517.37 M851.389 1513.66 Q857.199 1513.66 860.255 1518.27 Q863.334 1522.85 863.334 1531.6 Q863.334 1540.33 860.255 1544.94 Q857.199 1549.52 851.389 1549.52 Q845.579 1549.52 842.5 1544.94 Q839.445 1540.33 839.445 1531.6 Q839.445 1522.85 842.5 1518.27 Q845.579 1513.66 851.389 1513.66 Z" fill="#000000" fill-rule="nonzero" fill-opacity="1" /><path clip-path="url(#clip070)" d="M1206.33 1544.91 L1213.97 1544.91 L1213.97 1518.55 L1205.66 1520.21 L1205.66 1515.95 L1213.92 1514.29 L1218.6 1514.29 L1218.6 1544.91 L1226.24 1544.91 L1226.24 1548.85 L1206.33 1548.85 L1206.33 1544.91 Z" fill="#000000" fill-rule="nonzero" fill-opacity="1" /><path clip-path="url(#clip070)" d="M1245.68 1517.37 Q1242.07 1517.37 1240.24 1520.93 Q1238.44 1524.47 1238.44 1531.6 Q1238.44 1538.71 1240.24 1542.27 Q1242.07 1545.82 1245.68 1545.82 Q1249.32 1545.82 1251.12 1542.27 Q1252.95 1538.71 1252.95 1531.6 Q1252.95 1524.47 1251.12 1520.93 Q1249.32 1517.37 1245.68 1517.37 M1245.68 1513.66 Q1251.49 1513.66 1254.55 1518.27 Q1257.63 1522.85 1257.63 1531.6 Q1257.63 1540.33 1254.55 1544.94 Q1251.49 1549.52 1245.68 1549.52 Q1239.87 1549.52 1236.8 1544.94 Q1233.74 1540.33 1233.74 1531.6 Q1233.74 1522.85 1236.8 1518.27 Q1239.87 1513.66 1245.68 1513.66 Z" fill="#000000" fill-rule="nonzero" fill-opacity="1" /><path clip-path="url(#clip070)" d="M1275.85 1517.37 Q1272.23 1517.37 1270.41 1520.93 Q1268.6 1524.47 1268.6 1531.6 Q1268.6 1538.71 1270.41 1542.27 Q1272.23 1545.82 1275.85 1545.82 Q1279.48 1545.82 1281.29 1542.27 Q1283.11 1538.71 1283.11 1531.6 Q1283.11 1524.47 1281.29 1520.93 Q1279.48 1517.37 1275.85 1517.37 M1275.85 1513.66 Q1281.66 1513.66 1284.71 1518.27 Q1287.79 1522.85 1287.79 1531.6 Q1287.79 1540.33 1284.71 1544.94 Q1281.66 1549.52 1275.85 1549.52 Q1270.04 1549.52 1266.96 1544.94 Q1263.9 1540.33 1263.9 1531.6 Q1263.9 1522.85 1266.96 1518.27 Q1270.04 1513.66 1275.85 1513.66 Z" fill="#000000" fill-rule="nonzero" fill-opacity="1" /><path clip-path="url(#clip070)" d="M1620.57 1544.91 L1636.89 1544.91 L1636.89 1548.85 L1614.94 1548.85 L1614.94 1544.91 Q1617.61 1542.16 1622.19 1537.53 Q1626.8 1532.88 1627.98 1531.53 Q1630.22 1529.01 1631.1 1527.27 Q1632 1525.51 1632 1523.82 Q1632 1521.07 1630.06 1519.33 Q1628.14 1517.6 1625.04 1517.6 Q1622.84 1517.6 1620.38 1518.36 Q1617.95 1519.13 1615.18 1520.68 L1615.18 1515.95 Q1618 1514.82 1620.45 1514.24 Q1622.91 1513.66 1624.94 1513.66 Q1630.31 1513.66 1633.51 1516.35 Q1636.7 1519.03 1636.7 1523.52 Q1636.7 1525.65 1635.89 1527.57 Q1635.11 1529.47 1633 1532.07 Q1632.42 1532.74 1629.32 1535.95 Q1626.22 1539.15 1620.57 1544.91 Z" fill="#000000" fill-rule="nonzero" fill-opacity="1" /><path clip-path="url(#clip070)" d="M1656.7 1517.37 Q1653.09 1517.37 1651.26 1520.93 Q1649.46 1524.47 1649.46 1531.6 Q1649.46 1538.71 1651.26 1542.27 Q1653.09 1545.82 1656.7 1545.82 Q1660.34 1545.82 1662.14 1542.27 Q1663.97 1538.71 1663.97 1531.6 Q1663.97 1524.47 1662.14 1520.93 Q1660.34 1517.37 1656.7 1517.37 M1656.7 1513.66 Q1662.51 1513.66 1665.57 1518.27 Q1668.65 1522.85 1668.65 1531.6 Q1668.65 1540.33 1665.57 1544.94 Q1662.51 1549.52 1656.7 1549.52 Q1650.89 1549.52 1647.81 1544.94 Q1644.76 1540.33 1644.76 1531.6 Q1644.76 1522.85 1647.81 1518.27 Q1650.89 1513.66 1656.7 1513.66 Z" fill="#000000" fill-rule="nonzero" fill-opacity="1" /><path clip-path="url(#clip070)" d="M1686.87 1517.37 Q1683.25 1517.37 1681.43 1520.93 Q1679.62 1524.47 1679.62 1531.6 Q1679.62 1538.71 1681.43 1542.27 Q1683.25 1545.82 1686.87 1545.82 Q1690.5 1545.82 1692.3 1542.27 Q1694.13 1538.71 1694.13 1531.6 Q1694.13 1524.47 1692.3 1520.93 Q1690.5 1517.37 1686.87 1517.37 M1686.87 1513.66 Q1692.68 1513.66 1695.73 1518.27 Q1698.81 1522.85 1698.81 1531.6 Q1698.81 1540.33 1695.73 1544.94 Q1692.68 1549.52 1686.87 1549.52 Q1681.06 1549.52 1677.98 1544.94 Q1674.92 1540.33 1674.92 1531.6 Q1674.92 1522.85 1677.98 1518.27 Q1681.06 1513.66 1686.87 1513.66 Z" fill="#000000" fill-rule="nonzero" fill-opacity="1" /><path clip-path="url(#clip070)" d="M2026.65 1514.29 L2045 1514.29 L2045 1518.22 L2030.93 1518.22 L2030.93 1526.7 Q2031.95 1526.35 2032.97 1526.19 Q2033.98 1526 2035 1526 Q2040.79 1526 2044.17 1529.17 Q2047.55 1532.34 2047.55 1537.76 Q2047.55 1543.34 2044.08 1546.44 Q2040.6 1549.52 2034.29 1549.52 Q2032.11 1549.52 2029.84 1549.15 Q2027.6 1548.78 2025.19 1548.04 L2025.19 1543.34 Q2027.27 1544.47 2029.49 1545.03 Q2031.72 1545.58 2034.19 1545.58 Q2038.2 1545.58 2040.54 1543.48 Q2042.87 1541.37 2042.87 1537.76 Q2042.87 1534.15 2040.54 1532.04 Q2038.2 1529.94 2034.19 1529.94 Q2032.32 1529.94 2030.44 1530.35 Q2028.59 1530.77 2026.65 1531.65 L2026.65 1514.29 Z" fill="#000000" fill-rule="nonzero" fill-opacity="1" /><path clip-path="url(#clip070)" d="M2066.76 1517.37 Q2063.15 1517.37 2061.32 1520.93 Q2059.52 1524.47 2059.52 1531.6 Q2059.52 1538.71 2061.32 1542.27 Q2063.15 1545.82 2066.76 1545.82 Q2070.4 1545.82 2072.2 1542.27 Q2074.03 1538.71 2074.03 1531.6 Q2074.03 1524.47 2072.2 1520.93 Q2070.4 1517.37 2066.76 1517.37 M2066.76 1513.66 Q2072.57 1513.66 2075.63 1518.27 Q2078.71 1522.85 2078.71 1531.6 Q2078.71 1540.33 2075.63 1544.94 Q2072.57 1549.52 2066.76 1549.52 Q2060.95 1549.52 2057.87 1544.94 Q2054.82 1540.33 2054.82 1531.6 Q2054.82 1522.85 2057.87 1518.27 Q2060.95 1513.66 2066.76 1513.66 Z" fill="#000000" fill-rule="nonzero" fill-opacity="1" /><path clip-path="url(#clip070)" d="M2096.92 1517.37 Q2093.31 1517.37 2091.48 1520.93 Q2089.68 1524.47 2089.68 1531.6 Q2089.68 1538.71 2091.48 1542.27 Q2093.31 1545.82 2096.92 1545.82 Q2100.56 1545.82 2102.36 1542.27 Q2104.19 1538.71 2104.19 1531.6 Q2104.19 1524.47 2102.36 1520.93 Q2100.56 1517.37 2096.92 1517.37 M2096.92 1513.66 Q2102.73 1513.66 2105.79 1518.27 Q2108.87 1522.85 2108.87 1531.6 Q2108.87 1540.33 2105.79 1544.94 Q2102.73 1549.52 2096.92 1549.52 Q2091.11 1549.52 2088.03 1544.94 Q2084.98 1540.33 2084.98 1531.6 Q2084.98 1522.85 2088.03 1518.27 Q2091.11 1513.66 2096.92 1513.66 Z" fill="#000000" fill-rule="nonzero" fill-opacity="1" /><polyline clip-path="url(#clip070)" style="stroke:#000000; stroke-linecap:round; stroke-linejoin:round; stroke-width:4; stroke-opacity:1; fill:none" points="140.696,1486.45 140.696,47.2441 "/>
<polyline clip-path="url(#clip070)" style="stroke:#000000; stroke-linecap:round; stroke-linejoin:round; stroke-width:4; stroke-opacity:1; fill:none" points="140.696,1486.45 159.593,1486.45 "/>
<polyline clip-path="url(#clip070)" style="stroke:#000000; stroke-linecap:round; stroke-linejoin:round; stroke-width:4; stroke-opacity:1; fill:none" points="140.696,1152.94 159.593,1152.94 "/>
<polyline clip-path="url(#clip070)" style="stroke:#000000; stroke-linecap:round; stroke-linejoin:round; stroke-width:4; stroke-opacity:1; fill:none" points="140.696,819.431 159.593,819.431 "/>
<polyline clip-path="url(#clip070)" style="stroke:#000000; stroke-linecap:round; stroke-linejoin:round; stroke-width:4; stroke-opacity:1; fill:none" points="140.696,485.923 159.593,485.923 "/>
<polyline clip-path="url(#clip070)" style="stroke:#000000; stroke-linecap:round; stroke-linejoin:round; stroke-width:4; stroke-opacity:1; fill:none" points="140.696,152.414 159.593,152.414 "/>
<path clip-path="url(#clip070)" d="M92.7512 1472.25 Q89.1401 1472.25 87.3114 1475.81 Q85.5058 1479.35 85.5058 1486.48 Q85.5058 1493.59 87.3114 1497.15 Q89.1401 1500.7 92.7512 1500.7 Q96.3854 1500.7 98.1909 1497.15 Q100.02 1493.59 100.02 1486.48 Q100.02 1479.35 98.1909 1475.81 Q96.3854 1472.25 92.7512 1472.25 M92.7512 1468.54 Q98.5613 1468.54 101.617 1473.15 Q104.696 1477.73 104.696 1486.48 Q104.696 1495.21 101.617 1499.82 Q98.5613 1504.4 92.7512 1504.4 Q86.941 1504.4 83.8623 1499.82 Q80.8068 1495.21 80.8068 1486.48 Q80.8068 1477.73 83.8623 1473.15 Q86.941 1468.54 92.7512 1468.54 Z" fill="#000000" fill-rule="nonzero" fill-opacity="1" /><path clip-path="url(#clip070)" d="M83.7929 1135.66 L102.149 1135.66 L102.149 1139.59 L88.0753 1139.59 L88.0753 1148.07 Q89.0938 1147.72 90.1123 1147.56 Q91.1308 1147.37 92.1493 1147.37 Q97.9363 1147.37 101.316 1150.54 Q104.696 1153.71 104.696 1159.13 Q104.696 1164.71 101.223 1167.81 Q97.7511 1170.89 91.4317 1170.89 Q89.2558 1170.89 86.9873 1170.52 Q84.7419 1170.15 82.3346 1169.41 L82.3346 1164.71 Q84.4179 1165.84 86.6401 1166.4 Q88.8623 1166.96 91.3391 1166.96 Q95.3437 1166.96 97.6817 1164.85 Q100.02 1162.74 100.02 1159.13 Q100.02 1155.52 97.6817 1153.41 Q95.3437 1151.31 91.3391 1151.31 Q89.4641 1151.31 87.5892 1151.72 Q85.7373 1152.14 83.7929 1153.02 L83.7929 1135.66 Z" fill="#000000" fill-rule="nonzero" fill-opacity="1" /><path clip-path="url(#clip070)" d="M53.3995 832.776 L61.0384 832.776 L61.0384 806.41 L52.7282 808.077 L52.7282 803.818 L60.9921 802.151 L65.668 802.151 L65.668 832.776 L73.3068 832.776 L73.3068 836.711 L53.3995 836.711 L53.3995 832.776 Z" fill="#000000" fill-rule="nonzero" fill-opacity="1" /><path clip-path="url(#clip070)" d="M92.7512 805.23 Q89.1401 805.23 87.3114 808.794 Q85.5058 812.336 85.5058 819.466 Q85.5058 826.572 87.3114 830.137 Q89.1401 833.679 92.7512 833.679 Q96.3854 833.679 98.1909 830.137 Q100.02 826.572 100.02 819.466 Q100.02 812.336 98.1909 808.794 Q96.3854 805.23 92.7512 805.23 M92.7512 801.526 Q98.5613 801.526 101.617 806.132 Q104.696 810.716 104.696 819.466 Q104.696 828.192 101.617 832.799 Q98.5613 837.382 92.7512 837.382 Q86.941 837.382 83.8623 832.799 Q80.8068 828.192 80.8068 819.466 Q80.8068 810.716 83.8623 806.132 Q86.941 801.526 92.7512 801.526 Z" fill="#000000" fill-rule="nonzero" fill-opacity="1" /><path clip-path="url(#clip070)" d="M54.3949 499.267 L62.0337 499.267 L62.0337 472.902 L53.7236 474.568 L53.7236 470.309 L61.9874 468.643 L66.6633 468.643 L66.6633 499.267 L74.3022 499.267 L74.3022 503.203 L54.3949 503.203 L54.3949 499.267 Z" fill="#000000" fill-rule="nonzero" fill-opacity="1" /><path clip-path="url(#clip070)" d="M83.7929 468.643 L102.149 468.643 L102.149 472.578 L88.0753 472.578 L88.0753 481.05 Q89.0938 480.703 90.1123 480.541 Q91.1308 480.355 92.1493 480.355 Q97.9363 480.355 101.316 483.527 Q104.696 486.698 104.696 492.115 Q104.696 497.693 101.223 500.795 Q97.7511 503.874 91.4317 503.874 Q89.2558 503.874 86.9873 503.503 Q84.7419 503.133 82.3346 502.392 L82.3346 497.693 Q84.4179 498.828 86.6401 499.383 Q88.8623 499.939 91.3391 499.939 Q95.3437 499.939 97.6817 497.832 Q100.02 495.726 100.02 492.115 Q100.02 488.504 97.6817 486.397 Q95.3437 484.291 91.3391 484.291 Q89.4641 484.291 87.5892 484.707 Q85.7373 485.124 83.7929 486.004 L83.7929 468.643 Z" fill="#000000" fill-rule="nonzero" fill-opacity="1" /><path clip-path="url(#clip070)" d="M56.6171 165.759 L72.9365 165.759 L72.9365 169.694 L50.9921 169.694 L50.9921 165.759 Q53.6541 163.004 58.2375 158.375 Q62.8439 153.722 64.0245 152.379 Q66.2698 149.856 67.1494 148.12 Q68.0522 146.361 68.0522 144.671 Q68.0522 141.916 66.1078 140.18 Q64.1865 138.444 61.0847 138.444 Q58.8856 138.444 56.4319 139.208 Q54.0014 139.972 51.2236 141.523 L51.2236 136.801 Q54.0477 135.666 56.5014 135.088 Q58.955 134.509 60.9921 134.509 Q66.3624 134.509 69.5568 137.194 Q72.7513 139.879 72.7513 144.37 Q72.7513 146.5 71.9411 148.421 Q71.1541 150.319 69.0476 152.912 Q68.4689 153.583 65.367 156.801 Q62.2652 159.995 56.6171 165.759 Z" fill="#000000" fill-rule="nonzero" fill-opacity="1" /><path clip-path="url(#clip070)" d="M92.7512 138.213 Q89.1401 138.213 87.3114 141.778 Q85.5058 145.319 85.5058 152.449 Q85.5058 159.555 87.3114 163.12 Q89.1401 166.662 92.7512 166.662 Q96.3854 166.662 98.1909 163.12 Q100.02 159.555 100.02 152.449 Q100.02 145.319 98.1909 141.778 Q96.3854 138.213 92.7512 138.213 M92.7512 134.509 Q98.5613 134.509 101.617 139.116 Q104.696 143.699 104.696 152.449 Q104.696 161.176 101.617 165.782 Q98.5613 170.365 92.7512 170.365 Q86.941 170.365 83.8623 165.782 Q80.8068 161.176 80.8068 152.449 Q80.8068 143.699 83.8623 139.116 Q86.941 134.509 92.7512 134.509 Z" fill="#000000" fill-rule="nonzero" fill-opacity="1" /><path clip-path="url(#clip071)" d="M262.363 47.2441 L262.363 1486.45 L590.484 1486.45 L590.484 47.2441 L262.363 47.2441 L262.363 47.2441  Z" fill="#ff0000" fill-rule="evenodd" fill-opacity="1"/>
<polyline clip-path="url(#clip071)" style="stroke:#000000; stroke-linecap:round; stroke-linejoin:round; stroke-width:4; stroke-opacity:1; fill:none" points="262.363,47.2441 262.363,1486.45 590.484,1486.45 590.484,47.2441 262.363,47.2441 "/>
<path clip-path="url(#clip071)" d="M672.514 1414.96 L672.514 1486.45 L1000.63 1486.45 L1000.63 1414.96 L672.514 1414.96 L672.514 1414.96  Z" fill="#ff0000" fill-rule="evenodd" fill-opacity="1"/>
<polyline clip-path="url(#clip071)" style="stroke:#000000; stroke-linecap:round; stroke-linejoin:round; stroke-width:4; stroke-opacity:1; fill:none" points="672.514,1414.96 672.514,1486.45 1000.63,1486.45 1000.63,1414.96 672.514,1414.96 "/>
<path clip-path="url(#clip071)" d="M1082.67 1470.05 L1082.67 1486.45 L1410.79 1486.45 L1410.79 1470.05 L1082.67 1470.05 L1082.67 1470.05  Z" fill="#ff0000" fill-rule="evenodd" fill-opacity="1"/>
<polyline clip-path="url(#clip071)" style="stroke:#000000; stroke-linecap:round; stroke-linejoin:round; stroke-width:4; stroke-opacity:1; fill:none" points="1082.67,1470.05 1082.67,1486.45 1410.79,1486.45 1410.79,1470.05 1082.67,1470.05 "/>
<path clip-path="url(#clip071)" d="M1492.82 1481.9 L1492.82 1486.45 L1820.94 1486.45 L1820.94 1481.9 L1492.82 1481.9 L1492.82 1481.9  Z" fill="#ff0000" fill-rule="evenodd" fill-opacity="1"/>
<polyline clip-path="url(#clip071)" style="stroke:#000000; stroke-linecap:round; stroke-linejoin:round; stroke-width:4; stroke-opacity:1; fill:none" points="1492.82,1481.9 1492.82,1486.45 1820.94,1486.45 1820.94,1481.9 1492.82,1481.9 "/>
<path clip-path="url(#clip071)" d="M1902.97 1485.81 L1902.97 1486.45 L2231.09 1486.45 L2231.09 1485.81 L1902.97 1485.81 L1902.97 1485.81  Z" fill="#ff0000" fill-rule="evenodd" fill-opacity="1"/>
<polyline clip-path="url(#clip071)" style="stroke:#000000; stroke-linecap:round; stroke-linejoin:round; stroke-width:4; stroke-opacity:1; fill:none" points="1902.97,1485.81 1902.97,1486.45 2231.09,1486.45 2231.09,1485.81 1902.97,1485.81 "/>
<circle clip-path="url(#clip071)" style="fill:#ff0000; stroke:none; fill-opacity:0" cx="426.423" cy="47.2441" r="2"/>
<circle clip-path="url(#clip071)" style="fill:#ff0000; stroke:none; fill-opacity:0" cx="836.575" cy="1414.96" r="2"/>
<circle clip-path="url(#clip071)" style="fill:#ff0000; stroke:none; fill-opacity:0" cx="1246.73" cy="1470.05" r="2"/>
<circle clip-path="url(#clip071)" style="fill:#ff0000; stroke:none; fill-opacity:0" cx="1656.88" cy="1481.9" r="2"/>
<circle clip-path="url(#clip071)" style="fill:#ff0000; stroke:none; fill-opacity:0" cx="2067.03" cy="1485.81" r="2"/>
</svg>
