<?xml version="1.0" encoding="utf-8"?>
<svg xmlns="http://www.w3.org/2000/svg" xmlns:xlink="http://www.w3.org/1999/xlink" width="600" height="400" viewBox="0 0 2400 1600">
<defs>
  <clipPath id="clip100">
    <rect x="0" y="0" width="2400" height="1600"/>
  </clipPath>
</defs>
<path clip-path="url(#clip100)" d="M0 1600 L2400 1600 L2400 0 L0 0  Z" fill="#ffffff" fill-rule="evenodd" fill-opacity="1"/>
<defs>
  <clipPath id="clip101">
    <rect x="170" y="47" width="2183" height="1440"/>
  </clipPath>
</defs>
<path clip-path="url(#clip100)" d="M170.857 1486.45 L2352.76 1486.45 L2352.76 47.2441 L170.857 47.2441  Z" fill="#ffffff" fill-rule="evenodd" fill-opacity="1"/>
<polyline clip-path="url(#clip101)" style="stroke:#000000; stroke-linecap:round; stroke-linejoin:round; stroke-width:2; stroke-opacity:0.1; fill:none" points="452.689,1486.45 452.689,47.2441 "/>
<polyline clip-path="url(#clip101)" style="stroke:#000000; stroke-linecap:round; stroke-linejoin:round; stroke-width:2; stroke-opacity:0.1; fill:none" points="857.248,1486.45 857.248,47.2441 "/>
<polyline clip-path="url(#clip101)" style="stroke:#000000; stroke-linecap:round; stroke-linejoin:round; stroke-width:2; stroke-opacity:0.1; fill:none" points="1261.81,1486.45 1261.81,47.2441 "/>
<polyline clip-path="url(#clip101)" style="stroke:#000000; stroke-linecap:round; stroke-linejoin:round; stroke-width:2; stroke-opacity:0.1; fill:none" points="1666.37,1486.45 1666.37,47.2441 "/>
<polyline clip-path="url(#clip101)" style="stroke:#000000; stroke-linecap:round; stroke-linejoin:round; stroke-width:2; stroke-opacity:0.1; fill:none" points="2070.92,1486.45 2070.92,47.2441 "/>
<polyline clip-path="url(#clip101)" style="stroke:#000000; stroke-linecap:round; stroke-linejoin:round; stroke-width:2; stroke-opacity:0.1; fill:none" points="170.857,1486.45 2352.76,1486.45 "/>
<polyline clip-path="url(#clip101)" style="stroke:#000000; stroke-linecap:round; stroke-linejoin:round; stroke-width:2; stroke-opacity:0.1; fill:none" points="170.857,1121.43 2352.76,1121.43 "/>
<polyline clip-path="url(#clip101)" style="stroke:#000000; stroke-linecap:round; stroke-linejoin:round; stroke-width:2; stroke-opacity:0.1; fill:none" points="170.857,756.422 2352.76,756.422 "/>
<polyline clip-path="url(#clip101)" style="stroke:#000000; stroke-linecap:round; stroke-linejoin:round; stroke-width:2; stroke-opacity:0.1; fill:none" points="170.857,391.408 2352.76,391.408 "/>
<polyline clip-path="url(#clip100)" style="stroke:#000000; stroke-linecap:round; stroke-linejoin:round; stroke-width:4; stroke-opacity:1; fill:none" points="170.857,1486.45 2352.76,1486.45 "/>
<polyline clip-path="url(#clip100)" style="stroke:#000000; stroke-linecap:round; stroke-linejoin:round; stroke-width:4; stroke-opacity:1; fill:none" points="452.689,1486.45 452.689,1467.55 "/>
<polyline clip-path="url(#clip100)" style="stroke:#000000; stroke-linecap:round; stroke-linejoin:round; stroke-width:4; stroke-opacity:1; fill:none" points="857.248,1486.45 857.248,1467.55 "/>
<polyline clip-path="url(#clip100)" style="stroke:#000000; stroke-linecap:round; stroke-linejoin:round; stroke-width:4; stroke-opacity:1; fill:none" points="1261.81,1486.45 1261.81,1467.55 "/>
<polyline clip-path="url(#clip100)" style="stroke:#000000; stroke-linecap:round; stroke-linejoin:round; stroke-width:4; stroke-opacity:1; fill:none" points="1666.37,1486.45 1666.37,1467.55 "/>
<polyline clip-path="url(#clip100)" style="stroke:#000000; stroke-linecap:round; stroke-linejoin:round; stroke-width:4; stroke-opacity:1; fill:none" points="2070.92,1486.45 2070.92,1467.55 "/>
<path clip-path="url(#clip100)" d="M427.377 1544.91 L435.016 1544.91 L435.016 1518.55 L426.706 1520.21 L426.706 1515.95 L434.969 1514.29 L439.645 1514.29 L439.645 1544.91 L447.284 1544.91 L447.284 1548.85 L427.377 1548.85 L427.377 1544.91 Z" fill="#000000" fill-rule="nonzero" fill-opacity="1" /><path clip-path="url(#clip100)" d="M466.728 1517.37 Q463.117 1517.37 461.289 1520.93 Q459.483 1524.47 459.483 1531.6 Q459.483 1538.71 461.289 1542.27 Q463.117 1545.82 466.728 1545.82 Q470.363 1545.82 472.168 1542.27 Q473.997 1538.71 473.997 1531.6 Q473.997 1524.47 472.168 1520.93 Q470.363 1517.37 466.728 1517.37 M466.728 1513.66 Q472.539 1513.66 475.594 1518.27 Q478.673 1522.85 478.673 1531.6 Q478.673 1540.33 475.594 1544.94 Q472.539 1549.52 466.728 1549.52 Q460.918 1549.52 457.84 1544.94 Q454.784 1540.33 454.784 1531.6 Q454.784 1522.85 457.84 1518.27 Q460.918 1513.66 466.728 1513.66 Z" fill="#000000" fill-rule="nonzero" fill-opacity="1" /><path clip-path="url(#clip100)" d="M831.947 1514.29 L850.304 1514.29 L850.304 1518.22 L836.23 1518.22 L836.23 1526.7 Q837.248 1526.35 838.267 1526.19 Q839.285 1526 840.304 1526 Q846.091 1526 849.47 1529.17 Q852.85 1532.34 852.85 1537.76 Q852.85 1543.34 849.378 1546.44 Q845.905 1549.52 839.586 1549.52 Q837.41 1549.52 835.142 1549.15 Q832.896 1548.78 830.489 1548.04 L830.489 1543.34 Q832.572 1544.47 834.794 1545.03 Q837.017 1545.58 839.493 1545.58 Q843.498 1545.58 845.836 1543.48 Q848.174 1541.37 848.174 1537.76 Q848.174 1534.15 845.836 1532.04 Q843.498 1529.94 839.493 1529.94 Q837.618 1529.94 835.743 1530.35 Q833.892 1530.77 831.947 1531.65 L831.947 1514.29 Z" fill="#000000" fill-rule="nonzero" fill-opacity="1" /><path clip-path="url(#clip100)" d="M872.063 1517.37 Q868.452 1517.37 866.623 1520.93 Q864.817 1524.47 864.817 1531.6 Q864.817 1538.71 866.623 1542.27 Q868.452 1545.82 872.063 1545.82 Q875.697 1545.82 877.502 1542.27 Q879.331 1538.71 879.331 1531.6 Q879.331 1524.47 877.502 1520.93 Q875.697 1517.37 872.063 1517.37 M872.063 1513.66 Q877.873 1513.66 880.928 1518.27 Q884.007 1522.85 884.007 1531.6 Q884.007 1540.33 880.928 1544.94 Q877.873 1549.52 872.063 1549.52 Q866.253 1549.52 863.174 1544.94 Q860.118 1540.33 860.118 1531.6 Q860.118 1522.85 863.174 1518.27 Q866.253 1513.66 872.063 1513.66 Z" fill="#000000" fill-rule="nonzero" fill-opacity="1" /><path clip-path="url(#clip100)" d="M1221.41 1544.91 L1229.05 1544.91 L1229.05 1518.55 L1220.74 1520.21 L1220.74 1515.95 L1229.01 1514.29 L1233.68 1514.29 L1233.68 1544.91 L1241.32 1544.91 L1241.32 1548.85 L1221.41 1548.85 L1221.41 1544.91 Z" fill="#000000" fill-rule="nonzero" fill-opacity="1" /><path clip-path="url(#clip100)" d="M1260.77 1517.37 Q1257.15 1517.37 1255.33 1520.93 Q1253.52 1524.47 1253.52 1531.6 Q1253.52 1538.71 1255.33 1542.27 Q1257.15 1545.82 1260.77 1545.82 Q1264.4 1545.82 1266.2 1542.27 Q1268.03 1538.71 1268.03 1531.6 Q1268.03 1524.47 1266.2 1520.93 Q1264.4 1517.37 1260.77 1517.37 M1260.77 1513.66 Q1266.58 1513.66 1269.63 1518.27 Q1272.71 1522.85 1272.71 1531.6 Q1272.71 1540.33 1269.63 1544.94 Q1266.58 1549.52 1260.77 1549.52 Q1254.95 1549.52 1251.88 1544.94 Q1248.82 1540.33 1248.82 1531.6 Q1248.82 1522.85 1251.88 1518.27 Q1254.95 1513.66 1260.77 1513.66 Z" fill="#000000" fill-rule="nonzero" fill-opacity="1" /><path clip-path="url(#clip100)" d="M1290.93 1517.37 Q1287.32 1517.37 1285.49 1520.93 Q1283.68 1524.47 1283.68 1531.6 Q1283.68 1538.71 1285.49 1542.27 Q1287.32 1545.82 1290.93 1545.82 Q1294.56 1545.82 1296.37 1542.27 Q1298.2 1538.71 1298.2 1531.6 Q1298.2 1524.47 1296.37 1520.93 Q1294.56 1517.37 1290.93 1517.37 M1290.93 1513.66 Q1296.74 1513.66 1299.79 1518.27 Q1302.87 1522.85 1302.87 1531.6 Q1302.87 1540.33 1299.79 1544.94 Q1296.74 1549.52 1290.93 1549.52 Q1285.12 1549.52 1282.04 1544.94 Q1278.98 1540.33 1278.98 1531.6 Q1278.98 1522.85 1282.04 1518.27 Q1285.12 1513.66 1290.93 1513.66 Z" fill="#000000" fill-rule="nonzero" fill-opacity="1" /><path clip-path="url(#clip100)" d="M1630.06 1544.91 L1646.38 1544.91 L1646.38 1548.85 L1624.43 1548.85 L1624.43 1544.91 Q1627.09 1542.16 1631.68 1537.53 Q1636.28 1532.88 1637.47 1531.53 Q1639.71 1529.01 1640.59 1527.27 Q1641.49 1525.51 1641.49 1523.82 Q1641.49 1521.07 1639.55 1519.33 Q1637.63 1517.6 1634.53 1517.6 Q1632.33 1517.6 1629.87 1518.36 Q1627.44 1519.13 1624.66 1520.68 L1624.66 1515.95 Q1627.49 1514.82 1629.94 1514.24 Q1632.4 1513.66 1634.43 1513.66 Q1639.8 1513.66 1643 1516.35 Q1646.19 1519.03 1646.19 1523.52 Q1646.19 1525.65 1645.38 1527.57 Q1644.59 1529.47 1642.49 1532.07 Q1641.91 1532.74 1638.81 1535.95 Q1635.71 1539.15 1630.06 1544.91 Z" fill="#000000" fill-rule="nonzero" fill-opacity="1" /><path clip-path="url(#clip100)" d="M1666.19 1517.37 Q1662.58 1517.37 1660.75 1520.93 Q1658.95 1524.47 1658.95 1531.6 Q1658.95 1538.71 1660.75 1542.27 Q1662.58 1545.82 1666.19 1545.82 Q1669.83 1545.82 1671.63 1542.27 Q1673.46 1538.71 1673.46 1531.6 Q1673.46 1524.47 1671.63 1520.93 Q1669.83 1517.37 1666.19 1517.37 M1666.19 1513.66 Q1672 1513.66 1675.06 1518.27 Q1678.14 1522.85 1678.14 1531.6 Q1678.14 1540.33 1675.06 1544.94 Q1672 1549.52 1666.19 1549.52 Q1660.38 1549.52 1657.3 1544.94 Q1654.25 1540.33 1654.25 1531.6 Q1654.25 1522.85 1657.3 1518.27 Q1660.38 1513.66 1666.19 1513.66 Z" fill="#000000" fill-rule="nonzero" fill-opacity="1" /><path clip-path="url(#clip100)" d="M1696.35 1517.37 Q1692.74 1517.37 1690.91 1520.93 Q1689.11 1524.47 1689.11 1531.6 Q1689.11 1538.71 1690.91 1542.27 Q1692.74 1545.82 1696.35 1545.82 Q1699.99 1545.82 1701.79 1542.27 Q1703.62 1538.71 1703.62 1531.6 Q1703.62 1524.47 1701.79 1520.93 Q1699.99 1517.37 1696.35 1517.37 M1696.35 1513.66 Q1702.16 1513.66 1705.22 1518.27 Q1708.3 1522.85 1708.3 1531.6 Q1708.3 1540.33 1705.22 1544.94 Q1702.16 1549.52 1696.35 1549.52 Q1690.54 1549.52 1687.46 1544.94 Q1684.41 1540.33 1684.41 1531.6 Q1684.41 1522.85 1687.46 1518.27 Q1690.54 1513.66 1696.35 1513.66 Z" fill="#000000" fill-rule="nonzero" fill-opacity="1" /><path clip-path="url(#clip100)" d="M2030.54 1514.29 L2048.9 1514.29 L2048.9 1518.22 L2034.82 1518.22 L2034.82 1526.7 Q2035.84 1526.35 2036.86 1526.19 Q2037.88 1526 2038.9 1526 Q2044.69 1526 2048.07 1529.17 Q2051.45 1532.34 2051.45 1537.76 Q2051.45 1543.34 2047.97 1546.44 Q2044.5 1549.52 2038.18 1549.52 Q2036.01 1549.52 2033.74 1549.15 Q2031.49 1548.78 2029.08 1548.04 L2029.08 1543.34 Q2031.17 1544.47 2033.39 1545.03 Q2035.61 1545.58 2038.09 1545.58 Q2042.09 1545.58 2044.43 1543.48 Q2046.77 1541.37 2046.77 1537.76 Q2046.77 1534.15 2044.43 1532.04 Q2042.09 1529.94 2038.09 1529.94 Q2036.21 1529.94 2034.34 1530.35 Q2032.49 1530.77 2030.54 1531.65 L2030.54 1514.29 Z" fill="#000000" fill-rule="nonzero" fill-opacity="1" /><path clip-path="url(#clip100)" d="M2070.66 1517.37 Q2067.05 1517.37 2065.22 1520.93 Q2063.41 1524.47 2063.41 1531.6 Q2063.41 1538.71 2065.22 1542.27 Q2067.05 1545.82 2070.66 1545.82 Q2074.29 1545.82 2076.1 1542.27 Q2077.93 1538.71 2077.93 1531.6 Q2077.93 1524.47 2076.1 1520.93 Q2074.29 1517.37 2070.66 1517.37 M2070.66 1513.66 Q2076.47 1513.66 2079.52 1518.27 Q2082.6 1522.85 2082.6 1531.6 Q2082.6 1540.33 2079.52 1544.94 Q2076.47 1549.52 2070.66 1549.52 Q2064.85 1549.52 2061.77 1544.94 Q2058.71 1540.33 2058.71 1531.6 Q2058.71 1522.85 2061.77 1518.27 Q2064.85 1513.66 2070.66 1513.66 Z" fill="#000000" fill-rule="nonzero" fill-opacity="1" /><path clip-path="url(#clip100)" d="M2100.82 1517.37 Q2097.21 1517.37 2095.38 1520.93 Q2093.57 1524.47 2093.57 1531.6 Q2093.57 1538.71 2095.38 1542.27 Q2097.21 1545.82 2100.82 1545.82 Q2104.45 1545.82 2106.26 1542.27 Q2108.09 1538.71 2108.09 1531.6 Q2108.09 1524.47 2106.26 1520.93 Q2104.45 1517.37 2100.82 1517.37 M2100.82 1513.66 Q2106.63 1513.66 2109.69 1518.27 Q2112.76 1522.85 2112.76 1531.6 Q2112.76 1540.33 2109.69 1544.94 Q2106.63 1549.52 2100.82 1549.52 Q2095.01 1549.52 2091.93 1544.94 Q2088.88 1540.33 2088.88 1531.6 Q2088.88 1522.85 2091.93 1518.27 Q2095.01 1513.66 2100.82 1513.66 Z" fill="#000000" fill-rule="nonzero" fill-opacity="1" /><polyline clip-path="url(#clip100)" style="stroke:#000000; stroke-linecap:round; stroke-linejoin:round; stroke-width:4; stroke-opacity:1; fill:none" points="170.857,1486.45 170.857,47.2441 "/>
<polyline clip-path="url(#clip100)" style="stroke:#000000; stroke-linecap:round; stroke-linejoin:round; stroke-width:4; stroke-opacity:1; fill:none" points="170.857,1486.45 189.755,1486.45 "/>
<polyline clip-path="url(#clip100)" style="stroke:#000000; stroke-linecap:round; stroke-linejoin:round; stroke-width:4; stroke-opacity:1; fill:none" points="170.857,1121.43 189.755,1121.43 "/>
<polyline clip-path="url(#clip100)" style="stroke:#000000; stroke-linecap:round; stroke-linejoin:round; stroke-width:4; stroke-opacity:1; fill:none" points="170.857,756.422 189.755,756.422 "/>
<polyline clip-path="url(#clip100)" style="stroke:#000000; stroke-linecap:round; stroke-linejoin:round; stroke-width:4; stroke-opacity:1; fill:none" points="170.857,391.408 189.755,391.408 "/>
<path clip-path="url(#clip100)" d="M122.913 1472.25 Q119.302 1472.25 117.473 1475.81 Q115.668 1479.35 115.668 1486.48 Q115.668 1493.59 117.473 1497.15 Q119.302 1500.7 122.913 1500.7 Q126.547 1500.7 128.353 1497.15 Q130.182 1493.59 130.182 1486.48 Q130.182 1479.35 128.353 1475.81 Q126.547 1472.25 122.913 1472.25 M122.913 1468.54 Q128.723 1468.54 131.779 1473.15 Q134.857 1477.73 134.857 1486.48 Q134.857 1495.21 131.779 1499.82 Q128.723 1504.4 122.913 1504.4 Q117.103 1504.4 114.024 1499.82 Q110.969 1495.21 110.969 1486.48 Q110.969 1477.73 114.024 1473.15 Q117.103 1468.54 122.913 1468.54 Z" fill="#000000" fill-rule="nonzero" fill-opacity="1" /><path clip-path="url(#clip100)" d="M53.3995 1134.78 L61.0384 1134.78 L61.0384 1108.41 L52.7282 1110.08 L52.7282 1105.82 L60.9921 1104.15 L65.668 1104.15 L65.668 1134.78 L73.3068 1134.78 L73.3068 1138.71 L53.3995 1138.71 L53.3995 1134.78 Z" fill="#000000" fill-rule="nonzero" fill-opacity="1" /><path clip-path="url(#clip100)" d="M92.7512 1107.23 Q89.1401 1107.23 87.3114 1110.8 Q85.5058 1114.34 85.5058 1121.47 Q85.5058 1128.58 87.3114 1132.14 Q89.1401 1135.68 92.7512 1135.68 Q96.3854 1135.68 98.1909 1132.14 Q100.02 1128.58 100.02 1121.47 Q100.02 1114.34 98.1909 1110.8 Q96.3854 1107.23 92.7512 1107.23 M92.7512 1103.53 Q98.5613 1103.53 101.617 1108.14 Q104.696 1112.72 104.696 1121.47 Q104.696 1130.2 101.617 1134.8 Q98.5613 1139.39 92.7512 1139.39 Q86.941 1139.39 83.8623 1134.8 Q80.8068 1130.2 80.8068 1121.47 Q80.8068 1112.72 83.8623 1108.14 Q86.941 1103.53 92.7512 1103.53 Z" fill="#000000" fill-rule="nonzero" fill-opacity="1" /><path clip-path="url(#clip100)" d="M122.913 1107.23 Q119.302 1107.23 117.473 1110.8 Q115.668 1114.34 115.668 1121.47 Q115.668 1128.58 117.473 1132.14 Q119.302 1135.68 122.913 1135.68 Q126.547 1135.68 128.353 1132.14 Q130.182 1128.58 130.182 1121.47 Q130.182 1114.34 128.353 1110.8 Q126.547 1107.23 122.913 1107.23 M122.913 1103.53 Q128.723 1103.53 131.779 1108.14 Q134.857 1112.72 134.857 1121.47 Q134.857 1130.2 131.779 1134.8 Q128.723 1139.39 122.913 1139.39 Q117.103 1139.39 114.024 1134.8 Q110.969 1130.2 110.969 1121.47 Q110.969 1112.72 114.024 1108.14 Q117.103 1103.53 122.913 1103.53 Z" fill="#000000" fill-rule="nonzero" fill-opacity="1" /><path clip-path="url(#clip100)" d="M56.6171 769.766 L72.9365 769.766 L72.9365 773.702 L50.9921 773.702 L50.9921 769.766 Q53.6541 767.012 58.2375 762.382 Q62.8439 757.729 64.0245 756.387 Q66.2698 753.864 67.1494 752.128 Q68.0522 750.368 68.0522 748.679 Q68.0522 745.924 66.1078 744.188 Q64.1865 742.452 61.0847 742.452 Q58.8856 742.452 56.4319 743.216 Q54.0014 743.98 51.2236 745.53 L51.2236 740.808 Q54.0477 739.674 56.5014 739.095 Q58.955 738.517 60.9921 738.517 Q66.3624 738.517 69.5568 741.202 Q72.7513 743.887 72.7513 748.378 Q72.7513 750.507 71.9411 752.429 Q71.1541 754.327 69.0476 756.919 Q68.4689 757.591 65.367 760.808 Q62.2652 764.003 56.6171 769.766 Z" fill="#000000" fill-rule="nonzero" fill-opacity="1" /><path clip-path="url(#clip100)" d="M92.7512 742.22 Q89.1401 742.22 87.3114 745.785 Q85.5058 749.327 85.5058 756.456 Q85.5058 763.563 87.3114 767.128 Q89.1401 770.669 92.7512 770.669 Q96.3854 770.669 98.1909 767.128 Q100.02 763.563 100.02 756.456 Q100.02 749.327 98.1909 745.785 Q96.3854 742.22 92.7512 742.22 M92.7512 738.517 Q98.5613 738.517 101.617 743.123 Q104.696 747.706 104.696 756.456 Q104.696 765.183 101.617 769.79 Q98.5613 774.373 92.7512 774.373 Q86.941 774.373 83.8623 769.79 Q80.8068 765.183 80.8068 756.456 Q80.8068 747.706 83.8623 743.123 Q86.941 738.517 92.7512 738.517 Z" fill="#000000" fill-rule="nonzero" fill-opacity="1" /><path clip-path="url(#clip100)" d="M122.913 742.22 Q119.302 742.22 117.473 745.785 Q115.668 749.327 115.668 756.456 Q115.668 763.563 117.473 767.128 Q119.302 770.669 122.913 770.669 Q126.547 770.669 128.353 767.128 Q130.182 763.563 130.182 756.456 Q130.182 749.327 128.353 745.785 Q126.547 742.22 122.913 742.22 M122.913 738.517 Q128.723 738.517 131.779 743.123 Q134.857 747.706 134.857 756.456 Q134.857 765.183 131.779 769.79 Q128.723 774.373 122.913 774.373 Q117.103 774.373 114.024 769.79 Q110.969 765.183 110.969 756.456 Q110.969 747.706 114.024 743.123 Q117.103 738.517 122.913 738.517 Z" fill="#000000" fill-rule="nonzero" fill-opacity="1" /><path clip-path="url(#clip100)" d="M66.7559 390.054 Q70.1124 390.772 71.9874 393.04 Q73.8855 395.309 73.8855 398.642 Q73.8855 403.758 70.367 406.559 Q66.8485 409.36 60.3671 409.36 Q58.1912 409.36 55.8764 408.92 Q53.5847 408.503 51.131 407.647 L51.131 403.133 Q53.0754 404.267 55.3903 404.846 Q57.7051 405.425 60.2282 405.425 Q64.6263 405.425 66.918 403.688 Q69.2328 401.952 69.2328 398.642 Q69.2328 395.587 67.08 393.874 Q64.9504 392.138 61.131 392.138 L57.1032 392.138 L57.1032 388.295 L61.3161 388.295 Q64.7652 388.295 66.5939 386.929 Q68.4226 385.54 68.4226 382.948 Q68.4226 380.286 66.5245 378.874 Q64.6495 377.439 61.131 377.439 Q59.2097 377.439 57.0106 377.855 Q54.8115 378.272 52.1727 379.152 L52.1727 374.985 Q54.8347 374.244 57.1495 373.874 Q59.4875 373.503 61.5476 373.503 Q66.8717 373.503 69.9735 375.934 Q73.0753 378.341 73.0753 382.462 Q73.0753 385.332 71.4318 387.323 Q69.7883 389.29 66.7559 390.054 Z" fill="#000000" fill-rule="nonzero" fill-opacity="1" /><path clip-path="url(#clip100)" d="M92.7512 377.207 Q89.1401 377.207 87.3114 380.772 Q85.5058 384.314 85.5058 391.443 Q85.5058 398.55 87.3114 402.114 Q89.1401 405.656 92.7512 405.656 Q96.3854 405.656 98.1909 402.114 Q100.02 398.55 100.02 391.443 Q100.02 384.314 98.1909 380.772 Q96.3854 377.207 92.7512 377.207 M92.7512 373.503 Q98.5613 373.503 101.617 378.11 Q104.696 382.693 104.696 391.443 Q104.696 400.17 101.617 404.776 Q98.5613 409.36 92.7512 409.36 Q86.941 409.36 83.8623 404.776 Q80.8068 400.17 80.8068 391.443 Q80.8068 382.693 83.8623 378.11 Q86.941 373.503 92.7512 373.503 Z" fill="#000000" fill-rule="nonzero" fill-opacity="1" /><path clip-path="url(#clip100)" d="M122.913 377.207 Q119.302 377.207 117.473 380.772 Q115.668 384.314 115.668 391.443 Q115.668 398.55 117.473 402.114 Q119.302 405.656 122.913 405.656 Q126.547 405.656 128.353 402.114 Q130.182 398.55 130.182 391.443 Q130.182 384.314 128.353 380.772 Q126.547 377.207 122.913 377.207 M122.913 373.503 Q128.723 373.503 131.779 378.11 Q134.857 382.693 134.857 391.443 Q134.857 400.17 131.779 404.776 Q128.723 409.36 122.913 409.36 Q117.103 409.36 114.024 404.776 Q110.969 400.17 110.969 391.443 Q110.969 382.693 114.024 378.11 Q117.103 373.503 122.913 373.503 Z" fill="#000000" fill-rule="nonzero" fill-opacity="1" /><path clip-path="url(#clip101)" d="M290.866 47.2441 L290.866 1486.45 L614.513 1486.45 L614.513 47.2441 L290.866 47.2441 L290.866 47.2441  Z" fill="#ff0000" fill-rule="evenodd" fill-opacity="1"/>
<polyline clip-path="url(#clip101)" style="stroke:#000000; stroke-linecap:round; stroke-linejoin:round; stroke-width:4; stroke-opacity:1; fill:none" points="290.866,47.2441 290.866,1486.45 614.513,1486.45 614.513,47.2441 290.866,47.2441 "/>
<path clip-path="url(#clip101)" d="M695.424 129.92 L695.424 1486.45 L1019.07 1486.45 L1019.07 129.92 L695.424 129.92 L695.424 129.92  Z" fill="#ff0000" fill-rule="evenodd" fill-opacity="1"/>
<polyline clip-path="url(#clip101)" style="stroke:#000000; stroke-linecap:round; stroke-linejoin:round; stroke-width:4; stroke-opacity:1; fill:none" points="695.424,129.92 695.424,1486.45 1019.07,1486.45 1019.07,129.92 695.424,129.92 "/>
<path clip-path="url(#clip101)" d="M1099.98 231.631 L1099.98 1486.45 L1423.63 1486.45 L1423.63 231.631 L1099.98 231.631 L1099.98 231.631  Z" fill="#ff0000" fill-rule="evenodd" fill-opacity="1"/>
<polyline clip-path="url(#clip101)" style="stroke:#000000; stroke-linecap:round; stroke-linejoin:round; stroke-width:4; stroke-opacity:1; fill:none" points="1099.98,231.631 1099.98,1486.45 1423.63,1486.45 1423.63,231.631 1099.98,231.631 "/>
<path clip-path="url(#clip101)" d="M1504.54 429.564 L1504.54 1486.45 L1828.19 1486.45 L1828.19 429.564 L1504.54 429.564 L1504.54 429.564  Z" fill="#ff0000" fill-rule="evenodd" fill-opacity="1"/>
<polyline clip-path="url(#clip101)" style="stroke:#000000; stroke-linecap:round; stroke-linejoin:round; stroke-width:4; stroke-opacity:1; fill:none" points="1504.54,429.564 1504.54,1486.45 1828.19,1486.45 1828.19,429.564 1504.54,429.564 "/>
<path clip-path="url(#clip101)" d="M1909.1 967.38 L1909.1 1486.45 L2232.75 1486.45 L2232.75 967.38 L1909.1 967.38 L1909.1 967.38  Z" fill="#ff0000" fill-rule="evenodd" fill-opacity="1"/>
<polyline clip-path="url(#clip101)" style="stroke:#000000; stroke-linecap:round; stroke-linejoin:round; stroke-width:4; stroke-opacity:1; fill:none" points="1909.1,967.38 1909.1,1486.45 2232.75,1486.45 2232.75,967.38 1909.1,967.38 "/>
<circle clip-path="url(#clip101)" style="fill:#ff0000; stroke:none; fill-opacity:0" cx="452.689" cy="47.2441" r="2"/>
<circle clip-path="url(#clip101)" style="fill:#ff0000; stroke:none; fill-opacity:0" cx="857.248" cy="129.92" r="2"/>
<circle clip-path="url(#clip101)" style="fill:#ff0000; stroke:none; fill-opacity:0" cx="1261.81" cy="231.631" r="2"/>
<circle clip-path="url(#clip101)" style="fill:#ff0000; stroke:none; fill-opacity:0" cx="1666.37" cy="429.564" r="2"/>
<circle clip-path="url(#clip101)" style="fill:#ff0000; stroke:none; fill-opacity:0" cx="2070.92" cy="967.38" r="2"/>
</svg>
