<?xml version="1.0" encoding="utf-8"?>
<svg xmlns="http://www.w3.org/2000/svg" xmlns:xlink="http://www.w3.org/1999/xlink" width="600" height="400" viewBox="0 0 2400 1600">
<defs>
  <clipPath id="clip680">
    <rect x="0" y="0" width="2400" height="1600"/>
  </clipPath>
</defs>
<path clip-path="url(#clip680)" d="M0 1600 L2400 1600 L2400 0 L0 0  Z" fill="#ffffff" fill-rule="evenodd" fill-opacity="1"/>
<defs>
  <clipPath id="clip681">
    <rect x="184" y="47" width="2170" height="1440"/>
  </clipPath>
</defs>
<path clip-path="url(#clip680)" d="M184.191 1486.45 L2352.76 1486.45 L2352.76 47.2441 L184.191 47.2441  Z" fill="#ffffff" fill-rule="evenodd" fill-opacity="1"/>
<polyline clip-path="url(#clip681)" style="stroke:#000000; stroke-linecap:round; stroke-linejoin:round; stroke-width:2; stroke-opacity:0.1; fill:none" points="416.05,1486.45 416.05,47.2441 "/>
<polyline clip-path="url(#clip681)" style="stroke:#000000; stroke-linecap:round; stroke-linejoin:round; stroke-width:2; stroke-opacity:0.1; fill:none" points="842.262,1486.45 842.262,47.2441 "/>
<polyline clip-path="url(#clip681)" style="stroke:#000000; stroke-linecap:round; stroke-linejoin:round; stroke-width:2; stroke-opacity:0.1; fill:none" points="1268.47,1486.45 1268.47,47.2441 "/>
<polyline clip-path="url(#clip681)" style="stroke:#000000; stroke-linecap:round; stroke-linejoin:round; stroke-width:2; stroke-opacity:0.1; fill:none" points="1694.69,1486.45 1694.69,47.2441 "/>
<polyline clip-path="url(#clip681)" style="stroke:#000000; stroke-linecap:round; stroke-linejoin:round; stroke-width:2; stroke-opacity:0.1; fill:none" points="2120.9,1486.45 2120.9,47.2441 "/>
<polyline clip-path="url(#clip681)" style="stroke:#000000; stroke-linecap:round; stroke-linejoin:round; stroke-width:2; stroke-opacity:0.1; fill:none" points="184.191,1367.69 2352.76,1367.69 "/>
<polyline clip-path="url(#clip681)" style="stroke:#000000; stroke-linecap:round; stroke-linejoin:round; stroke-width:2; stroke-opacity:0.1; fill:none" points="184.191,1102.51 2352.76,1102.51 "/>
<polyline clip-path="url(#clip681)" style="stroke:#000000; stroke-linecap:round; stroke-linejoin:round; stroke-width:2; stroke-opacity:0.1; fill:none" points="184.191,837.337 2352.76,837.337 "/>
<polyline clip-path="url(#clip681)" style="stroke:#000000; stroke-linecap:round; stroke-linejoin:round; stroke-width:2; stroke-opacity:0.1; fill:none" points="184.191,572.159 2352.76,572.159 "/>
<polyline clip-path="url(#clip681)" style="stroke:#000000; stroke-linecap:round; stroke-linejoin:round; stroke-width:2; stroke-opacity:0.1; fill:none" points="184.191,306.982 2352.76,306.982 "/>
<polyline clip-path="url(#clip680)" style="stroke:#000000; stroke-linecap:round; stroke-linejoin:round; stroke-width:4; stroke-opacity:1; fill:none" points="184.191,1486.45 2352.76,1486.45 "/>
<polyline clip-path="url(#clip680)" style="stroke:#000000; stroke-linecap:round; stroke-linejoin:round; stroke-width:4; stroke-opacity:1; fill:none" points="416.05,1486.45 416.05,1467.55 "/>
<polyline clip-path="url(#clip680)" style="stroke:#000000; stroke-linecap:round; stroke-linejoin:round; stroke-width:4; stroke-opacity:1; fill:none" points="842.262,1486.45 842.262,1467.55 "/>
<polyline clip-path="url(#clip680)" style="stroke:#000000; stroke-linecap:round; stroke-linejoin:round; stroke-width:4; stroke-opacity:1; fill:none" points="1268.47,1486.45 1268.47,1467.55 "/>
<polyline clip-path="url(#clip680)" style="stroke:#000000; stroke-linecap:round; stroke-linejoin:round; stroke-width:4; stroke-opacity:1; fill:none" points="1694.69,1486.45 1694.69,1467.55 "/>
<polyline clip-path="url(#clip680)" style="stroke:#000000; stroke-linecap:round; stroke-linejoin:round; stroke-width:4; stroke-opacity:1; fill:none" points="2120.9,1486.45 2120.9,1467.55 "/>
<path clip-path="url(#clip680)" d="M390.737 1544.91 L398.376 1544.91 L398.376 1518.55 L390.066 1520.21 L390.066 1515.95 L398.33 1514.29 L403.006 1514.29 L403.006 1544.91 L410.645 1544.91 L410.645 1548.85 L390.737 1548.85 L390.737 1544.91 Z" fill="#000000" fill-rule="nonzero" fill-opacity="1" /><path clip-path="url(#clip680)" d="M430.089 1517.37 Q426.478 1517.37 424.649 1520.93 Q422.844 1524.47 422.844 1531.6 Q422.844 1538.71 424.649 1542.27 Q426.478 1545.82 430.089 1545.82 Q433.723 1545.82 435.529 1542.27 Q437.358 1538.71 437.358 1531.6 Q437.358 1524.47 435.529 1520.93 Q433.723 1517.37 430.089 1517.37 M430.089 1513.66 Q435.899 1513.66 438.955 1518.27 Q442.034 1522.85 442.034 1531.6 Q442.034 1540.33 438.955 1544.94 Q435.899 1549.52 430.089 1549.52 Q424.279 1549.52 421.2 1544.94 Q418.145 1540.33 418.145 1531.6 Q418.145 1522.85 421.2 1518.27 Q424.279 1513.66 430.089 1513.66 Z" fill="#000000" fill-rule="nonzero" fill-opacity="1" /><path clip-path="url(#clip680)" d="M816.961 1514.29 L835.317 1514.29 L835.317 1518.22 L821.243 1518.22 L821.243 1526.7 Q822.262 1526.35 823.28 1526.19 Q824.299 1526 825.317 1526 Q831.104 1526 834.484 1529.17 Q837.863 1532.34 837.863 1537.76 Q837.863 1543.34 834.391 1546.44 Q830.919 1549.52 824.6 1549.52 Q822.424 1549.52 820.155 1549.15 Q817.91 1548.78 815.502 1548.04 L815.502 1543.34 Q817.586 1544.47 819.808 1545.03 Q822.03 1545.58 824.507 1545.58 Q828.512 1545.58 830.85 1543.48 Q833.188 1541.37 833.188 1537.76 Q833.188 1534.15 830.85 1532.04 Q828.512 1529.94 824.507 1529.94 Q822.632 1529.94 820.757 1530.35 Q818.905 1530.77 816.961 1531.65 L816.961 1514.29 Z" fill="#000000" fill-rule="nonzero" fill-opacity="1" /><path clip-path="url(#clip680)" d="M857.076 1517.37 Q853.465 1517.37 851.637 1520.93 Q849.831 1524.47 849.831 1531.6 Q849.831 1538.71 851.637 1542.27 Q853.465 1545.82 857.076 1545.82 Q860.711 1545.82 862.516 1542.27 Q864.345 1538.71 864.345 1531.6 Q864.345 1524.47 862.516 1520.93 Q860.711 1517.37 857.076 1517.37 M857.076 1513.66 Q862.886 1513.66 865.942 1518.27 Q869.021 1522.85 869.021 1531.6 Q869.021 1540.33 865.942 1544.94 Q862.886 1549.52 857.076 1549.52 Q851.266 1549.52 848.187 1544.94 Q845.132 1540.33 845.132 1531.6 Q845.132 1522.85 848.187 1518.27 Q851.266 1513.66 857.076 1513.66 Z" fill="#000000" fill-rule="nonzero" fill-opacity="1" /><path clip-path="url(#clip680)" d="M1228.08 1544.91 L1235.72 1544.91 L1235.72 1518.55 L1227.41 1520.21 L1227.41 1515.95 L1235.67 1514.29 L1240.35 1514.29 L1240.35 1544.91 L1247.99 1544.91 L1247.99 1548.85 L1228.08 1548.85 L1228.08 1544.91 Z" fill="#000000" fill-rule="nonzero" fill-opacity="1" /><path clip-path="url(#clip680)" d="M1267.43 1517.37 Q1263.82 1517.37 1261.99 1520.93 Q1260.19 1524.47 1260.19 1531.6 Q1260.19 1538.71 1261.99 1542.27 Q1263.82 1545.82 1267.43 1545.82 Q1271.07 1545.82 1272.87 1542.27 Q1274.7 1538.71 1274.7 1531.6 Q1274.7 1524.47 1272.87 1520.93 Q1271.07 1517.37 1267.43 1517.37 M1267.43 1513.66 Q1273.24 1513.66 1276.3 1518.27 Q1279.38 1522.85 1279.38 1531.6 Q1279.38 1540.33 1276.3 1544.94 Q1273.24 1549.52 1267.43 1549.52 Q1261.62 1549.52 1258.54 1544.94 Q1255.49 1540.33 1255.49 1531.6 Q1255.49 1522.85 1258.54 1518.27 Q1261.62 1513.66 1267.43 1513.66 Z" fill="#000000" fill-rule="nonzero" fill-opacity="1" /><path clip-path="url(#clip680)" d="M1297.59 1517.37 Q1293.98 1517.37 1292.15 1520.93 Q1290.35 1524.47 1290.35 1531.6 Q1290.35 1538.71 1292.15 1542.27 Q1293.98 1545.82 1297.59 1545.82 Q1301.23 1545.82 1303.03 1542.27 Q1304.86 1538.71 1304.86 1531.6 Q1304.86 1524.47 1303.03 1520.93 Q1301.23 1517.37 1297.59 1517.37 M1297.59 1513.66 Q1303.4 1513.66 1306.46 1518.27 Q1309.54 1522.85 1309.54 1531.6 Q1309.54 1540.33 1306.46 1544.94 Q1303.4 1549.52 1297.59 1549.52 Q1291.78 1549.52 1288.7 1544.94 Q1285.65 1540.33 1285.65 1531.6 Q1285.65 1522.85 1288.7 1518.27 Q1291.78 1513.66 1297.59 1513.66 Z" fill="#000000" fill-rule="nonzero" fill-opacity="1" /><path clip-path="url(#clip680)" d="M1658.38 1544.91 L1674.7 1544.91 L1674.7 1548.85 L1652.75 1548.85 L1652.75 1544.91 Q1655.41 1542.16 1660 1537.53 Q1664.6 1532.88 1665.78 1531.53 Q1668.03 1529.01 1668.91 1527.27 Q1669.81 1525.51 1669.81 1523.82 Q1669.81 1521.07 1667.87 1519.33 Q1665.95 1517.6 1662.84 1517.6 Q1660.65 1517.6 1658.19 1518.36 Q1655.76 1519.13 1652.98 1520.68 L1652.98 1515.95 Q1655.81 1514.82 1658.26 1514.24 Q1660.72 1513.66 1662.75 1513.66 Q1668.12 1513.66 1671.32 1516.35 Q1674.51 1519.03 1674.51 1523.52 Q1674.51 1525.65 1673.7 1527.57 Q1672.91 1529.47 1670.81 1532.07 Q1670.23 1532.74 1667.13 1535.95 Q1664.03 1539.15 1658.38 1544.91 Z" fill="#000000" fill-rule="nonzero" fill-opacity="1" /><path clip-path="url(#clip680)" d="M1694.51 1517.37 Q1690.9 1517.37 1689.07 1520.93 Q1687.27 1524.47 1687.27 1531.6 Q1687.27 1538.71 1689.07 1542.27 Q1690.9 1545.82 1694.51 1545.82 Q1698.15 1545.82 1699.95 1542.27 Q1701.78 1538.71 1701.78 1531.6 Q1701.78 1524.47 1699.95 1520.93 Q1698.15 1517.37 1694.51 1517.37 M1694.51 1513.66 Q1700.32 1513.66 1703.38 1518.27 Q1706.46 1522.85 1706.46 1531.6 Q1706.46 1540.33 1703.38 1544.94 Q1700.32 1549.52 1694.51 1549.52 Q1688.7 1549.52 1685.62 1544.94 Q1682.57 1540.33 1682.57 1531.6 Q1682.57 1522.85 1685.62 1518.27 Q1688.7 1513.66 1694.51 1513.66 Z" fill="#000000" fill-rule="nonzero" fill-opacity="1" /><path clip-path="url(#clip680)" d="M1724.67 1517.37 Q1721.06 1517.37 1719.23 1520.93 Q1717.43 1524.47 1717.43 1531.6 Q1717.43 1538.71 1719.23 1542.27 Q1721.06 1545.82 1724.67 1545.82 Q1728.31 1545.82 1730.11 1542.27 Q1731.94 1538.71 1731.94 1531.6 Q1731.94 1524.47 1730.11 1520.93 Q1728.31 1517.37 1724.67 1517.37 M1724.67 1513.66 Q1730.48 1513.66 1733.54 1518.27 Q1736.62 1522.85 1736.62 1531.6 Q1736.62 1540.33 1733.54 1544.94 Q1730.48 1549.52 1724.67 1549.52 Q1718.86 1549.52 1715.78 1544.94 Q1712.73 1540.33 1712.73 1531.6 Q1712.73 1522.85 1715.78 1518.27 Q1718.86 1513.66 1724.67 1513.66 Z" fill="#000000" fill-rule="nonzero" fill-opacity="1" /><path clip-path="url(#clip680)" d="M2080.52 1514.29 L2098.87 1514.29 L2098.87 1518.22 L2084.8 1518.22 L2084.8 1526.7 Q2085.82 1526.35 2086.83 1526.19 Q2087.85 1526 2088.87 1526 Q2094.66 1526 2098.04 1529.17 Q2101.42 1532.34 2101.42 1537.76 Q2101.42 1543.34 2097.95 1546.44 Q2094.47 1549.52 2088.15 1549.52 Q2085.98 1549.52 2083.71 1549.15 Q2081.46 1548.78 2079.06 1548.04 L2079.06 1543.34 Q2081.14 1544.47 2083.36 1545.03 Q2085.58 1545.58 2088.06 1545.58 Q2092.07 1545.58 2094.4 1543.48 Q2096.74 1541.37 2096.74 1537.76 Q2096.74 1534.15 2094.4 1532.04 Q2092.07 1529.94 2088.06 1529.94 Q2086.19 1529.94 2084.31 1530.35 Q2082.46 1530.77 2080.52 1531.65 L2080.52 1514.29 Z" fill="#000000" fill-rule="nonzero" fill-opacity="1" /><path clip-path="url(#clip680)" d="M2120.63 1517.37 Q2117.02 1517.37 2115.19 1520.93 Q2113.39 1524.47 2113.39 1531.6 Q2113.39 1538.71 2115.19 1542.27 Q2117.02 1545.82 2120.63 1545.82 Q2124.26 1545.82 2126.07 1542.27 Q2127.9 1538.71 2127.9 1531.6 Q2127.9 1524.47 2126.07 1520.93 Q2124.26 1517.37 2120.63 1517.37 M2120.63 1513.66 Q2126.44 1513.66 2129.5 1518.27 Q2132.57 1522.85 2132.57 1531.6 Q2132.57 1540.33 2129.5 1544.94 Q2126.44 1549.52 2120.63 1549.52 Q2114.82 1549.52 2111.74 1544.94 Q2108.69 1540.33 2108.69 1531.6 Q2108.69 1522.85 2111.74 1518.27 Q2114.82 1513.66 2120.63 1513.66 Z" fill="#000000" fill-rule="nonzero" fill-opacity="1" /><path clip-path="url(#clip680)" d="M2150.79 1517.37 Q2147.18 1517.37 2145.35 1520.93 Q2143.55 1524.47 2143.55 1531.6 Q2143.55 1538.71 2145.35 1542.27 Q2147.18 1545.82 2150.79 1545.82 Q2154.43 1545.82 2156.23 1542.27 Q2158.06 1538.71 2158.06 1531.6 Q2158.06 1524.47 2156.23 1520.93 Q2154.43 1517.37 2150.79 1517.37 M2150.79 1513.66 Q2156.6 1513.66 2159.66 1518.27 Q2162.74 1522.85 2162.74 1531.6 Q2162.74 1540.33 2159.66 1544.94 Q2156.6 1549.52 2150.79 1549.52 Q2144.98 1549.52 2141.9 1544.94 Q2138.85 1540.33 2138.85 1531.6 Q2138.85 1522.85 2141.9 1518.27 Q2144.98 1513.66 2150.79 1513.66 Z" fill="#000000" fill-rule="nonzero" fill-opacity="1" /><polyline clip-path="url(#clip680)" style="stroke:#000000; stroke-linecap:round; stroke-linejoin:round; stroke-width:4; stroke-opacity:1; fill:none" points="184.191,1486.45 184.191,47.2441 "/>
<polyline clip-path="url(#clip680)" style="stroke:#000000; stroke-linecap:round; stroke-linejoin:round; stroke-width:4; stroke-opacity:1; fill:none" points="184.191,1367.69 203.088,1367.69 "/>
<polyline clip-path="url(#clip680)" style="stroke:#000000; stroke-linecap:round; stroke-linejoin:round; stroke-width:4; stroke-opacity:1; fill:none" points="184.191,1102.51 203.088,1102.51 "/>
<polyline clip-path="url(#clip680)" style="stroke:#000000; stroke-linecap:round; stroke-linejoin:round; stroke-width:4; stroke-opacity:1; fill:none" points="184.191,837.337 203.088,837.337 "/>
<polyline clip-path="url(#clip680)" style="stroke:#000000; stroke-linecap:round; stroke-linejoin:round; stroke-width:4; stroke-opacity:1; fill:none" points="184.191,572.159 203.088,572.159 "/>
<polyline clip-path="url(#clip680)" style="stroke:#000000; stroke-linecap:round; stroke-linejoin:round; stroke-width:4; stroke-opacity:1; fill:none" points="184.191,306.982 203.088,306.982 "/>
<path clip-path="url(#clip680)" d="M51.6634 1381.04 L59.3023 1381.04 L59.3023 1354.67 L50.9921 1356.34 L50.9921 1352.08 L59.256 1350.41 L63.9319 1350.41 L63.9319 1381.04 L71.5707 1381.04 L71.5707 1384.97 L51.6634 1384.97 L51.6634 1381.04 Z" fill="#000000" fill-rule="nonzero" fill-opacity="1" /><path clip-path="url(#clip680)" d="M81.0151 1379.09 L85.8993 1379.09 L85.8993 1384.97 L81.0151 1384.97 L81.0151 1379.09 Z" fill="#000000" fill-rule="nonzero" fill-opacity="1" /><path clip-path="url(#clip680)" d="M100.112 1381.04 L116.432 1381.04 L116.432 1384.97 L94.4873 1384.97 L94.4873 1381.04 Q97.1493 1378.28 101.733 1373.65 Q106.339 1369 107.52 1367.66 Q109.765 1365.13 110.645 1363.4 Q111.547 1361.64 111.547 1359.95 Q111.547 1357.19 109.603 1355.46 Q107.682 1353.72 104.58 1353.72 Q102.381 1353.72 99.927 1354.49 Q97.4965 1355.25 94.7187 1356.8 L94.7187 1352.08 Q97.5428 1350.94 99.9965 1350.36 Q102.45 1349.79 104.487 1349.79 Q109.858 1349.79 113.052 1352.47 Q116.246 1355.16 116.246 1359.65 Q116.246 1361.78 115.436 1363.7 Q114.649 1365.6 112.543 1368.19 Q111.964 1368.86 108.862 1372.08 Q105.76 1375.27 100.112 1381.04 Z" fill="#000000" fill-rule="nonzero" fill-opacity="1" /><path clip-path="url(#clip680)" d="M136.246 1353.49 Q132.635 1353.49 130.807 1357.05 Q129.001 1360.6 129.001 1367.73 Q129.001 1374.83 130.807 1378.4 Q132.635 1381.94 136.246 1381.94 Q139.881 1381.94 141.686 1378.4 Q143.515 1374.83 143.515 1367.73 Q143.515 1360.6 141.686 1357.05 Q139.881 1353.49 136.246 1353.49 M136.246 1349.79 Q142.056 1349.79 145.112 1354.39 Q148.191 1358.98 148.191 1367.73 Q148.191 1376.45 145.112 1381.06 Q142.056 1385.64 136.246 1385.64 Q130.436 1385.64 127.357 1381.06 Q124.302 1376.45 124.302 1367.73 Q124.302 1358.98 127.357 1354.39 Q130.436 1349.79 136.246 1349.79 Z" fill="#000000" fill-rule="nonzero" fill-opacity="1" /><path clip-path="url(#clip680)" d="M52.6588 1115.86 L60.2976 1115.86 L60.2976 1089.49 L51.9875 1091.16 L51.9875 1086.9 L60.2513 1085.23 L64.9272 1085.23 L64.9272 1115.86 L72.5661 1115.86 L72.5661 1119.79 L52.6588 1119.79 L52.6588 1115.86 Z" fill="#000000" fill-rule="nonzero" fill-opacity="1" /><path clip-path="url(#clip680)" d="M82.0105 1113.91 L86.8947 1113.91 L86.8947 1119.79 L82.0105 1119.79 L82.0105 1113.91 Z" fill="#000000" fill-rule="nonzero" fill-opacity="1" /><path clip-path="url(#clip680)" d="M101.108 1115.86 L117.427 1115.86 L117.427 1119.79 L95.4826 1119.79 L95.4826 1115.86 Q98.1447 1113.1 102.728 1108.47 Q107.334 1103.82 108.515 1102.48 Q110.76 1099.96 111.64 1098.22 Q112.543 1096.46 112.543 1094.77 Q112.543 1092.02 110.598 1090.28 Q108.677 1088.54 105.575 1088.54 Q103.376 1088.54 100.922 1089.31 Q98.4919 1090.07 95.7141 1091.62 L95.7141 1086.9 Q98.5382 1085.77 100.992 1085.19 Q103.446 1084.61 105.483 1084.61 Q110.853 1084.61 114.047 1087.29 Q117.242 1089.98 117.242 1094.47 Q117.242 1096.6 116.432 1098.52 Q115.645 1100.42 113.538 1103.01 Q112.959 1103.68 109.858 1106.9 Q106.756 1110.09 101.108 1115.86 Z" fill="#000000" fill-rule="nonzero" fill-opacity="1" /><path clip-path="url(#clip680)" d="M127.288 1085.23 L145.644 1085.23 L145.644 1089.17 L131.57 1089.17 L131.57 1097.64 Q132.589 1097.29 133.607 1097.13 Q134.626 1096.95 135.644 1096.95 Q141.431 1096.95 144.811 1100.12 Q148.191 1103.29 148.191 1108.71 Q148.191 1114.28 144.718 1117.39 Q141.246 1120.47 134.927 1120.47 Q132.751 1120.47 130.482 1120.09 Q128.237 1119.72 125.83 1118.98 L125.83 1114.28 Q127.913 1115.42 130.135 1115.97 Q132.357 1116.53 134.834 1116.53 Q138.839 1116.53 141.177 1114.42 Q143.515 1112.32 143.515 1108.71 Q143.515 1105.09 141.177 1102.99 Q138.839 1100.88 134.834 1100.88 Q132.959 1100.88 131.084 1101.3 Q129.232 1101.72 127.288 1102.59 L127.288 1085.23 Z" fill="#000000" fill-rule="nonzero" fill-opacity="1" /><path clip-path="url(#clip680)" d="M51.6634 850.681 L59.3023 850.681 L59.3023 824.316 L50.9921 825.983 L50.9921 821.723 L59.256 820.057 L63.9319 820.057 L63.9319 850.681 L71.5707 850.681 L71.5707 854.617 L51.6634 854.617 L51.6634 850.681 Z" fill="#000000" fill-rule="nonzero" fill-opacity="1" /><path clip-path="url(#clip680)" d="M81.0151 848.737 L85.8993 848.737 L85.8993 854.617 L81.0151 854.617 L81.0151 848.737 Z" fill="#000000" fill-rule="nonzero" fill-opacity="1" /><path clip-path="url(#clip680)" d="M110.251 835.983 Q113.608 836.7 115.483 838.969 Q117.381 841.237 117.381 844.57 Q117.381 849.686 113.862 852.487 Q110.344 855.288 103.862 855.288 Q101.686 855.288 99.3715 854.848 Q97.0798 854.431 94.6262 853.575 L94.6262 849.061 Q96.5706 850.195 98.8854 850.774 Q101.2 851.353 103.723 851.353 Q108.121 851.353 110.413 849.617 Q112.728 847.881 112.728 844.57 Q112.728 841.515 110.575 839.802 Q108.446 838.066 104.626 838.066 L100.598 838.066 L100.598 834.223 L104.811 834.223 Q108.26 834.223 110.089 832.858 Q111.918 831.469 111.918 828.876 Q111.918 826.214 110.02 824.802 Q108.145 823.367 104.626 823.367 Q102.705 823.367 100.506 823.783 Q98.3067 824.2 95.6678 825.08 L95.6678 820.913 Q98.3298 820.172 100.645 819.802 Q102.983 819.432 105.043 819.432 Q110.367 819.432 113.469 821.862 Q116.57 824.27 116.57 828.39 Q116.57 831.26 114.927 833.251 Q113.283 835.219 110.251 835.983 Z" fill="#000000" fill-rule="nonzero" fill-opacity="1" /><path clip-path="url(#clip680)" d="M136.246 823.135 Q132.635 823.135 130.807 826.7 Q129.001 830.242 129.001 837.371 Q129.001 844.478 130.807 848.043 Q132.635 851.584 136.246 851.584 Q139.881 851.584 141.686 848.043 Q143.515 844.478 143.515 837.371 Q143.515 830.242 141.686 826.7 Q139.881 823.135 136.246 823.135 M136.246 819.432 Q142.056 819.432 145.112 824.038 Q148.191 828.621 148.191 837.371 Q148.191 846.098 145.112 850.705 Q142.056 855.288 136.246 855.288 Q130.436 855.288 127.357 850.705 Q124.302 846.098 124.302 837.371 Q124.302 828.621 127.357 824.038 Q130.436 819.432 136.246 819.432 Z" fill="#000000" fill-rule="nonzero" fill-opacity="1" /><path clip-path="url(#clip680)" d="M52.6588 585.504 L60.2976 585.504 L60.2976 559.139 L51.9875 560.805 L51.9875 556.546 L60.2513 554.879 L64.9272 554.879 L64.9272 585.504 L72.5661 585.504 L72.5661 589.439 L52.6588 589.439 L52.6588 585.504 Z" fill="#000000" fill-rule="nonzero" fill-opacity="1" /><path clip-path="url(#clip680)" d="M82.0105 583.56 L86.8947 583.56 L86.8947 589.439 L82.0105 589.439 L82.0105 583.56 Z" fill="#000000" fill-rule="nonzero" fill-opacity="1" /><path clip-path="url(#clip680)" d="M111.246 570.805 Q114.603 571.523 116.478 573.791 Q118.376 576.06 118.376 579.393 Q118.376 584.509 114.858 587.31 Q111.339 590.111 104.858 590.111 Q102.682 590.111 100.367 589.671 Q98.0752 589.254 95.6215 588.398 L95.6215 583.884 Q97.566 585.018 99.8808 585.597 Q102.196 586.176 104.719 586.176 Q109.117 586.176 111.408 584.439 Q113.723 582.703 113.723 579.393 Q113.723 576.338 111.571 574.625 Q109.441 572.889 105.621 572.889 L101.594 572.889 L101.594 569.046 L105.807 569.046 Q109.256 569.046 111.084 567.68 Q112.913 566.291 112.913 563.699 Q112.913 561.037 111.015 559.625 Q109.14 558.19 105.621 558.19 Q103.7 558.19 101.501 558.606 Q99.3021 559.023 96.6632 559.903 L96.6632 555.736 Q99.3252 554.995 101.64 554.625 Q103.978 554.254 106.038 554.254 Q111.362 554.254 114.464 556.685 Q117.566 559.092 117.566 563.213 Q117.566 566.083 115.922 568.074 Q114.279 570.041 111.246 570.805 Z" fill="#000000" fill-rule="nonzero" fill-opacity="1" /><path clip-path="url(#clip680)" d="M127.288 554.879 L145.644 554.879 L145.644 558.815 L131.57 558.815 L131.57 567.287 Q132.589 566.94 133.607 566.778 Q134.626 566.592 135.644 566.592 Q141.431 566.592 144.811 569.764 Q148.191 572.935 148.191 578.352 Q148.191 583.93 144.718 587.032 Q141.246 590.111 134.927 590.111 Q132.751 590.111 130.482 589.74 Q128.237 589.37 125.83 588.629 L125.83 583.93 Q127.913 585.064 130.135 585.62 Q132.357 586.176 134.834 586.176 Q138.839 586.176 141.177 584.069 Q143.515 581.963 143.515 578.352 Q143.515 574.74 141.177 572.634 Q138.839 570.528 134.834 570.528 Q132.959 570.528 131.084 570.944 Q129.232 571.361 127.288 572.24 L127.288 554.879 Z" fill="#000000" fill-rule="nonzero" fill-opacity="1" /><path clip-path="url(#clip680)" d="M51.6634 320.327 L59.3023 320.327 L59.3023 293.961 L50.9921 295.628 L50.9921 291.369 L59.256 289.702 L63.9319 289.702 L63.9319 320.327 L71.5707 320.327 L71.5707 324.262 L51.6634 324.262 L51.6634 320.327 Z" fill="#000000" fill-rule="nonzero" fill-opacity="1" /><path clip-path="url(#clip680)" d="M81.0151 318.383 L85.8993 318.383 L85.8993 324.262 L81.0151 324.262 L81.0151 318.383 Z" fill="#000000" fill-rule="nonzero" fill-opacity="1" /><path clip-path="url(#clip680)" d="M108.932 293.776 L97.1261 312.225 L108.932 312.225 L108.932 293.776 M107.705 289.702 L113.584 289.702 L113.584 312.225 L118.515 312.225 L118.515 316.114 L113.584 316.114 L113.584 324.262 L108.932 324.262 L108.932 316.114 L93.3299 316.114 L93.3299 311.6 L107.705 289.702 Z" fill="#000000" fill-rule="nonzero" fill-opacity="1" /><path clip-path="url(#clip680)" d="M136.246 292.781 Q132.635 292.781 130.807 296.346 Q129.001 299.887 129.001 307.017 Q129.001 314.123 130.807 317.688 Q132.635 321.23 136.246 321.23 Q139.881 321.23 141.686 317.688 Q143.515 314.123 143.515 307.017 Q143.515 299.887 141.686 296.346 Q139.881 292.781 136.246 292.781 M136.246 289.077 Q142.056 289.077 145.112 293.684 Q148.191 298.267 148.191 307.017 Q148.191 315.744 145.112 320.35 Q142.056 324.934 136.246 324.934 Q130.436 324.934 127.357 320.35 Q124.302 315.744 124.302 307.017 Q124.302 298.267 127.357 293.684 Q130.436 289.077 136.246 289.077 Z" fill="#000000" fill-rule="nonzero" fill-opacity="1" /><path clip-path="url(#clip681)" d="M416.05 874.488 L330.808 874.488 L501.292 874.488 L416.05 874.488 L416.05 659.446 L416.05 874.488  Z" fill="#00008b" fill-rule="evenodd" fill-opacity="1"/>
<polyline clip-path="url(#clip681)" style="stroke:#000000; stroke-linecap:round; stroke-linejoin:round; stroke-width:4; stroke-opacity:1; fill:none" points="416.05,874.488 330.808,874.488 501.292,874.488 416.05,874.488 416.05,659.446 416.05,874.488 "/>
<path clip-path="url(#clip681)" d="M586.535 659.446 L586.535 584.084 L245.565 584.084 L245.565 659.446 L586.535 659.446 L586.535 584.084 L586.535 659.446  Z" fill="#00008b" fill-rule="evenodd" fill-opacity="1"/>
<polyline clip-path="url(#clip681)" style="stroke:#000000; stroke-linecap:round; stroke-linejoin:round; stroke-width:4; stroke-opacity:1; fill:none" points="586.535,659.446 586.535,584.084 245.565,584.084 245.565,659.446 586.535,659.446 586.535,584.084 586.535,659.446 "/>
<path clip-path="url(#clip681)" d="M586.535 507.967 L245.565 507.967 L245.565 584.084 L586.535 584.084 L586.535 507.967 L416.05 507.967 L586.535 507.967  Z" fill="#00008b" fill-rule="evenodd" fill-opacity="1"/>
<polyline clip-path="url(#clip681)" style="stroke:#000000; stroke-linecap:round; stroke-linejoin:round; stroke-width:4; stroke-opacity:1; fill:none" points="586.535,507.967 245.565,507.967 245.565,584.084 586.535,584.084 586.535,507.967 416.05,507.967 586.535,507.967 "/>
<path clip-path="url(#clip681)" d="M416.05 294.597 L330.808 294.597 L501.292 294.597 L416.05 294.597 L416.05 507.967 L416.05 294.597  Z" fill="#00008b" fill-rule="evenodd" fill-opacity="1"/>
<polyline clip-path="url(#clip681)" style="stroke:#000000; stroke-linecap:round; stroke-linejoin:round; stroke-width:4; stroke-opacity:1; fill:none" points="416.05,294.597 330.808,294.597 501.292,294.597 416.05,294.597 416.05,507.967 416.05,294.597 "/>
<path clip-path="url(#clip681)" d="M842.262 903.633 L757.019 903.633 L927.504 903.633 L842.262 903.633 L842.262 665.824 L842.262 903.633  Z" fill="#00008b" fill-rule="evenodd" fill-opacity="1"/>
<polyline clip-path="url(#clip681)" style="stroke:#000000; stroke-linecap:round; stroke-linejoin:round; stroke-width:4; stroke-opacity:1; fill:none" points="842.262,903.633 757.019,903.633 927.504,903.633 842.262,903.633 842.262,665.824 842.262,903.633 "/>
<path clip-path="url(#clip681)" d="M1012.75 665.824 L1012.75 586.856 L671.777 586.856 L671.777 665.824 L1012.75 665.824 L1012.75 586.856 L1012.75 665.824  Z" fill="#00008b" fill-rule="evenodd" fill-opacity="1"/>
<polyline clip-path="url(#clip681)" style="stroke:#000000; stroke-linecap:round; stroke-linejoin:round; stroke-width:4; stroke-opacity:1; fill:none" points="1012.75,665.824 1012.75,586.856 671.777,586.856 671.777,665.824 1012.75,665.824 1012.75,586.856 1012.75,665.824 "/>
<path clip-path="url(#clip681)" d="M1012.75 501.518 L671.777 501.518 L671.777 586.856 L1012.75 586.856 L1012.75 501.518 L842.262 501.518 L1012.75 501.518  Z" fill="#00008b" fill-rule="evenodd" fill-opacity="1"/>
<polyline clip-path="url(#clip681)" style="stroke:#000000; stroke-linecap:round; stroke-linejoin:round; stroke-width:4; stroke-opacity:1; fill:none" points="1012.75,501.518 671.777,501.518 671.777,586.856 1012.75,586.856 1012.75,501.518 842.262,501.518 1012.75,501.518 "/>
<path clip-path="url(#clip681)" d="M842.262 282.547 L757.019 282.547 L927.504 282.547 L842.262 282.547 L842.262 501.518 L842.262 282.547  Z" fill="#00008b" fill-rule="evenodd" fill-opacity="1"/>
<polyline clip-path="url(#clip681)" style="stroke:#000000; stroke-linecap:round; stroke-linejoin:round; stroke-width:4; stroke-opacity:1; fill:none" points="842.262,282.547 757.019,282.547 927.504,282.547 842.262,282.547 842.262,501.518 842.262,282.547 "/>
<path clip-path="url(#clip681)" d="M1268.47 890.961 L1183.23 890.961 L1353.72 890.961 L1268.47 890.961 L1268.47 668.054 L1268.47 890.961  Z" fill="#00008b" fill-rule="evenodd" fill-opacity="1"/>
<polyline clip-path="url(#clip681)" style="stroke:#000000; stroke-linecap:round; stroke-linejoin:round; stroke-width:4; stroke-opacity:1; fill:none" points="1268.47,890.961 1183.23,890.961 1353.72,890.961 1268.47,890.961 1268.47,668.054 1268.47,890.961 "/>
<path clip-path="url(#clip681)" d="M1438.96 668.054 L1438.96 596.556 L1097.99 596.556 L1097.99 668.054 L1438.96 668.054 L1438.96 596.556 L1438.96 668.054  Z" fill="#00008b" fill-rule="evenodd" fill-opacity="1"/>
<polyline clip-path="url(#clip681)" style="stroke:#000000; stroke-linecap:round; stroke-linejoin:round; stroke-width:4; stroke-opacity:1; fill:none" points="1438.96,668.054 1438.96,596.556 1097.99,596.556 1097.99,668.054 1438.96,668.054 1438.96,596.556 1438.96,668.054 "/>
<path clip-path="url(#clip681)" d="M1438.96 518.905 L1097.99 518.905 L1097.99 596.556 L1438.96 596.556 L1438.96 518.905 L1268.47 518.905 L1438.96 518.905  Z" fill="#00008b" fill-rule="evenodd" fill-opacity="1"/>
<polyline clip-path="url(#clip681)" style="stroke:#000000; stroke-linecap:round; stroke-linejoin:round; stroke-width:4; stroke-opacity:1; fill:none" points="1438.96,518.905 1097.99,518.905 1097.99,596.556 1438.96,596.556 1438.96,518.905 1268.47,518.905 1438.96,518.905 "/>
<path clip-path="url(#clip681)" d="M1268.47 295.978 L1183.23 295.978 L1353.72 295.978 L1268.47 295.978 L1268.47 518.905 L1268.47 295.978  Z" fill="#00008b" fill-rule="evenodd" fill-opacity="1"/>
<polyline clip-path="url(#clip681)" style="stroke:#000000; stroke-linecap:round; stroke-linejoin:round; stroke-width:4; stroke-opacity:1; fill:none" points="1268.47,295.978 1183.23,295.978 1353.72,295.978 1268.47,295.978 1268.47,518.905 1268.47,295.978 "/>
<path clip-path="url(#clip681)" d="M1694.69 943.716 L1609.44 943.716 L1779.93 943.716 L1694.69 943.716 L1694.69 712.153 L1694.69 943.716  Z" fill="#00008b" fill-rule="evenodd" fill-opacity="1"/>
<polyline clip-path="url(#clip681)" style="stroke:#000000; stroke-linecap:round; stroke-linejoin:round; stroke-width:4; stroke-opacity:1; fill:none" points="1694.69,943.716 1609.44,943.716 1779.93,943.716 1694.69,943.716 1694.69,712.153 1694.69,943.716 "/>
<path clip-path="url(#clip681)" d="M1865.17 712.153 L1865.17 637.689 L1524.2 637.689 L1524.2 712.153 L1865.17 712.153 L1865.17 637.689 L1865.17 712.153  Z" fill="#00008b" fill-rule="evenodd" fill-opacity="1"/>
<polyline clip-path="url(#clip681)" style="stroke:#000000; stroke-linecap:round; stroke-linejoin:round; stroke-width:4; stroke-opacity:1; fill:none" points="1865.17,712.153 1865.17,637.689 1524.2,637.689 1524.2,712.153 1865.17,712.153 1865.17,637.689 1865.17,712.153 "/>
<path clip-path="url(#clip681)" d="M1865.17 552.93 L1524.2 552.93 L1524.2 637.689 L1865.17 637.689 L1865.17 552.93 L1694.69 552.93 L1865.17 552.93  Z" fill="#00008b" fill-rule="evenodd" fill-opacity="1"/>
<polyline clip-path="url(#clip681)" style="stroke:#000000; stroke-linecap:round; stroke-linejoin:round; stroke-width:4; stroke-opacity:1; fill:none" points="1865.17,552.93 1524.2,552.93 1524.2,637.689 1865.17,637.689 1865.17,552.93 1694.69,552.93 1865.17,552.93 "/>
<path clip-path="url(#clip681)" d="M1694.69 314.609 L1609.44 314.609 L1779.93 314.609 L1694.69 314.609 L1694.69 552.93 L1694.69 314.609  Z" fill="#00008b" fill-rule="evenodd" fill-opacity="1"/>
<polyline clip-path="url(#clip681)" style="stroke:#000000; stroke-linecap:round; stroke-linejoin:round; stroke-width:4; stroke-opacity:1; fill:none" points="1694.69,314.609 1609.44,314.609 1779.93,314.609 1694.69,314.609 1694.69,552.93 1694.69,314.609 "/>
<path clip-path="url(#clip681)" d="M2120.9 1391.42 L2035.65 1391.42 L2206.14 1391.42 L2120.9 1391.42 L2120.9 1161.03 L2120.9 1391.42  Z" fill="#00008b" fill-rule="evenodd" fill-opacity="1"/>
<polyline clip-path="url(#clip681)" style="stroke:#000000; stroke-linecap:round; stroke-linejoin:round; stroke-width:4; stroke-opacity:1; fill:none" points="2120.9,1391.42 2035.65,1391.42 2206.14,1391.42 2120.9,1391.42 2120.9,1161.03 2120.9,1391.42 "/>
<path clip-path="url(#clip681)" d="M2291.38 1161.03 L2291.38 1085.64 L1950.41 1085.64 L1950.41 1161.03 L2291.38 1161.03 L2291.38 1085.64 L2291.38 1161.03  Z" fill="#00008b" fill-rule="evenodd" fill-opacity="1"/>
<polyline clip-path="url(#clip681)" style="stroke:#000000; stroke-linecap:round; stroke-linejoin:round; stroke-width:4; stroke-opacity:1; fill:none" points="2291.38,1161.03 2291.38,1085.64 1950.41,1085.64 1950.41,1161.03 2291.38,1161.03 2291.38,1085.64 2291.38,1161.03 "/>
<path clip-path="url(#clip681)" d="M2291.38 1006.71 L1950.41 1006.71 L1950.41 1085.64 L2291.38 1085.64 L2291.38 1006.71 L2120.9 1006.71 L2291.38 1006.71  Z" fill="#00008b" fill-rule="evenodd" fill-opacity="1"/>
<polyline clip-path="url(#clip681)" style="stroke:#000000; stroke-linecap:round; stroke-linejoin:round; stroke-width:4; stroke-opacity:1; fill:none" points="2291.38,1006.71 1950.41,1006.71 1950.41,1085.64 2291.38,1085.64 2291.38,1006.71 2120.9,1006.71 2291.38,1006.71 "/>
<path clip-path="url(#clip681)" d="M2120.9 783.026 L2035.65 783.026 L2206.14 783.026 L2120.9 783.026 L2120.9 1006.71 L2120.9 783.026  Z" fill="#00008b" fill-rule="evenodd" fill-opacity="1"/>
<polyline clip-path="url(#clip681)" style="stroke:#000000; stroke-linecap:round; stroke-linejoin:round; stroke-width:4; stroke-opacity:1; fill:none" points="2120.9,783.026 2035.65,783.026 2206.14,783.026 2120.9,783.026 2120.9,1006.71 2120.9,783.026 "/>
<circle clip-path="url(#clip681)" cx="416.05" cy="268.045" r="14.4" fill="#00008b" fill-rule="evenodd" fill-opacity="1" stroke="#000000" stroke-opacity="1" stroke-width="3.2"/>
<circle clip-path="url(#clip681)" cx="416.05" cy="907.97" r="14.4" fill="#00008b" fill-rule="evenodd" fill-opacity="1" stroke="#000000" stroke-opacity="1" stroke-width="3.2"/>
<circle clip-path="url(#clip681)" cx="416.05" cy="87.9763" r="14.4" fill="#00008b" fill-rule="evenodd" fill-opacity="1" stroke="#000000" stroke-opacity="1" stroke-width="3.2"/>
<circle clip-path="url(#clip681)" cx="416.05" cy="917.225" r="14.4" fill="#00008b" fill-rule="evenodd" fill-opacity="1" stroke="#000000" stroke-opacity="1" stroke-width="3.2"/>
<circle clip-path="url(#clip681)" cx="416.05" cy="898.948" r="14.4" fill="#00008b" fill-rule="evenodd" fill-opacity="1" stroke="#000000" stroke-opacity="1" stroke-width="3.2"/>
<circle clip-path="url(#clip681)" cx="416.05" cy="199.868" r="14.4" fill="#00008b" fill-rule="evenodd" fill-opacity="1" stroke="#000000" stroke-opacity="1" stroke-width="3.2"/>
<circle clip-path="url(#clip681)" cx="416.05" cy="251.179" r="14.4" fill="#00008b" fill-rule="evenodd" fill-opacity="1" stroke="#000000" stroke-opacity="1" stroke-width="3.2"/>
<circle clip-path="url(#clip681)" cx="416.05" cy="267.458" r="14.4" fill="#00008b" fill-rule="evenodd" fill-opacity="1" stroke="#000000" stroke-opacity="1" stroke-width="3.2"/>
<circle clip-path="url(#clip681)" cx="416.05" cy="274.321" r="14.4" fill="#00008b" fill-rule="evenodd" fill-opacity="1" stroke="#000000" stroke-opacity="1" stroke-width="3.2"/>
<circle clip-path="url(#clip681)" cx="416.05" cy="248.599" r="14.4" fill="#00008b" fill-rule="evenodd" fill-opacity="1" stroke="#000000" stroke-opacity="1" stroke-width="3.2"/>
<circle clip-path="url(#clip681)" cx="416.05" cy="231.249" r="14.4" fill="#00008b" fill-rule="evenodd" fill-opacity="1" stroke="#000000" stroke-opacity="1" stroke-width="3.2"/>
<circle clip-path="url(#clip681)" cx="416.05" cy="920.1" r="14.4" fill="#00008b" fill-rule="evenodd" fill-opacity="1" stroke="#000000" stroke-opacity="1" stroke-width="3.2"/>
<circle clip-path="url(#clip681)" cx="416.05" cy="251.765" r="14.4" fill="#00008b" fill-rule="evenodd" fill-opacity="1" stroke="#000000" stroke-opacity="1" stroke-width="3.2"/>
<circle clip-path="url(#clip681)" cx="842.262" cy="972.211" r="14.4" fill="#00008b" fill-rule="evenodd" fill-opacity="1" stroke="#000000" stroke-opacity="1" stroke-width="3.2"/>
<circle clip-path="url(#clip681)" cx="842.262" cy="211.264" r="14.4" fill="#00008b" fill-rule="evenodd" fill-opacity="1" stroke="#000000" stroke-opacity="1" stroke-width="3.2"/>
<circle clip-path="url(#clip681)" cx="842.262" cy="920.398" r="14.4" fill="#00008b" fill-rule="evenodd" fill-opacity="1" stroke="#000000" stroke-opacity="1" stroke-width="3.2"/>
<circle clip-path="url(#clip681)" cx="842.262" cy="180.666" r="14.4" fill="#00008b" fill-rule="evenodd" fill-opacity="1" stroke="#000000" stroke-opacity="1" stroke-width="3.2"/>
<circle clip-path="url(#clip681)" cx="842.262" cy="213.538" r="14.4" fill="#00008b" fill-rule="evenodd" fill-opacity="1" stroke="#000000" stroke-opacity="1" stroke-width="3.2"/>
<circle clip-path="url(#clip681)" cx="1268.47" cy="292.792" r="14.4" fill="#00008b" fill-rule="evenodd" fill-opacity="1" stroke="#000000" stroke-opacity="1" stroke-width="3.2"/>
<circle clip-path="url(#clip681)" cx="1268.47" cy="895.523" r="14.4" fill="#00008b" fill-rule="evenodd" fill-opacity="1" stroke="#000000" stroke-opacity="1" stroke-width="3.2"/>
<circle clip-path="url(#clip681)" cx="1268.47" cy="925.584" r="14.4" fill="#00008b" fill-rule="evenodd" fill-opacity="1" stroke="#000000" stroke-opacity="1" stroke-width="3.2"/>
<circle clip-path="url(#clip681)" cx="1268.47" cy="969.341" r="14.4" fill="#00008b" fill-rule="evenodd" fill-opacity="1" stroke="#000000" stroke-opacity="1" stroke-width="3.2"/>
<circle clip-path="url(#clip681)" cx="1268.47" cy="285.268" r="14.4" fill="#00008b" fill-rule="evenodd" fill-opacity="1" stroke="#000000" stroke-opacity="1" stroke-width="3.2"/>
<circle clip-path="url(#clip681)" cx="1268.47" cy="894.847" r="14.4" fill="#00008b" fill-rule="evenodd" fill-opacity="1" stroke="#000000" stroke-opacity="1" stroke-width="3.2"/>
<circle clip-path="url(#clip681)" cx="1268.47" cy="243.406" r="14.4" fill="#00008b" fill-rule="evenodd" fill-opacity="1" stroke="#000000" stroke-opacity="1" stroke-width="3.2"/>
<circle clip-path="url(#clip681)" cx="1268.47" cy="291.14" r="14.4" fill="#00008b" fill-rule="evenodd" fill-opacity="1" stroke="#000000" stroke-opacity="1" stroke-width="3.2"/>
<circle clip-path="url(#clip681)" cx="1268.47" cy="287.179" r="14.4" fill="#00008b" fill-rule="evenodd" fill-opacity="1" stroke="#000000" stroke-opacity="1" stroke-width="3.2"/>
<circle clip-path="url(#clip681)" cx="1268.47" cy="255.84" r="14.4" fill="#00008b" fill-rule="evenodd" fill-opacity="1" stroke="#000000" stroke-opacity="1" stroke-width="3.2"/>
<circle clip-path="url(#clip681)" cx="1694.69" cy="271.552" r="14.4" fill="#00008b" fill-rule="evenodd" fill-opacity="1" stroke="#000000" stroke-opacity="1" stroke-width="3.2"/>
<circle clip-path="url(#clip681)" cx="1694.69" cy="1023.32" r="14.4" fill="#00008b" fill-rule="evenodd" fill-opacity="1" stroke="#000000" stroke-opacity="1" stroke-width="3.2"/>
<circle clip-path="url(#clip681)" cx="1694.69" cy="306.607" r="14.4" fill="#00008b" fill-rule="evenodd" fill-opacity="1" stroke="#000000" stroke-opacity="1" stroke-width="3.2"/>
<circle clip-path="url(#clip681)" cx="1694.69" cy="295.199" r="14.4" fill="#00008b" fill-rule="evenodd" fill-opacity="1" stroke="#000000" stroke-opacity="1" stroke-width="3.2"/>
<circle clip-path="url(#clip681)" cx="1694.69" cy="982.082" r="14.4" fill="#00008b" fill-rule="evenodd" fill-opacity="1" stroke="#000000" stroke-opacity="1" stroke-width="3.2"/>
<circle clip-path="url(#clip681)" cx="1694.69" cy="991.112" r="14.4" fill="#00008b" fill-rule="evenodd" fill-opacity="1" stroke="#000000" stroke-opacity="1" stroke-width="3.2"/>
<circle clip-path="url(#clip681)" cx="1694.69" cy="1034.67" r="14.4" fill="#00008b" fill-rule="evenodd" fill-opacity="1" stroke="#000000" stroke-opacity="1" stroke-width="3.2"/>
<circle clip-path="url(#clip681)" cx="2120.9" cy="1420.54" r="14.4" fill="#00008b" fill-rule="evenodd" fill-opacity="1" stroke="#000000" stroke-opacity="1" stroke-width="3.2"/>
<circle clip-path="url(#clip681)" cx="2120.9" cy="711.241" r="14.4" fill="#00008b" fill-rule="evenodd" fill-opacity="1" stroke="#000000" stroke-opacity="1" stroke-width="3.2"/>
<circle clip-path="url(#clip681)" cx="2120.9" cy="767.973" r="14.4" fill="#00008b" fill-rule="evenodd" fill-opacity="1" stroke="#000000" stroke-opacity="1" stroke-width="3.2"/>
<circle clip-path="url(#clip681)" cx="2120.9" cy="1438.81" r="14.4" fill="#00008b" fill-rule="evenodd" fill-opacity="1" stroke="#000000" stroke-opacity="1" stroke-width="3.2"/>
<circle clip-path="url(#clip681)" cx="2120.9" cy="734.554" r="14.4" fill="#00008b" fill-rule="evenodd" fill-opacity="1" stroke="#000000" stroke-opacity="1" stroke-width="3.2"/>
<circle clip-path="url(#clip681)" cx="2120.9" cy="1445.72" r="14.4" fill="#00008b" fill-rule="evenodd" fill-opacity="1" stroke="#000000" stroke-opacity="1" stroke-width="3.2"/>
<circle clip-path="url(#clip681)" cx="2120.9" cy="1411.08" r="14.4" fill="#00008b" fill-rule="evenodd" fill-opacity="1" stroke="#000000" stroke-opacity="1" stroke-width="3.2"/>
<polyline clip-path="url(#clip681)" style="stroke:#00008b; stroke-linecap:round; stroke-linejoin:round; stroke-width:0; stroke-opacity:1; fill:none" points="416.05,874.488 330.808,874.488 501.292,874.488 416.05,874.488 416.05,659.446 "/>
<polyline clip-path="url(#clip681)" style="stroke:#00008b; stroke-linecap:round; stroke-linejoin:round; stroke-width:0; stroke-opacity:1; fill:none" points="586.535,659.446 586.535,584.084 245.565,584.084 245.565,659.446 586.535,659.446 586.535,584.084 "/>
<polyline clip-path="url(#clip681)" style="stroke:#00008b; stroke-linecap:round; stroke-linejoin:round; stroke-width:0; stroke-opacity:1; fill:none" points="586.535,507.967 245.565,507.967 245.565,584.084 586.535,584.084 586.535,507.967 416.05,507.967 "/>
<polyline clip-path="url(#clip681)" style="stroke:#00008b; stroke-linecap:round; stroke-linejoin:round; stroke-width:0; stroke-opacity:1; fill:none" points="416.05,294.597 330.808,294.597 501.292,294.597 416.05,294.597 416.05,507.967 "/>
<polyline clip-path="url(#clip681)" style="stroke:#00008b; stroke-linecap:round; stroke-linejoin:round; stroke-width:0; stroke-opacity:1; fill:none" points="842.262,903.633 757.019,903.633 927.504,903.633 842.262,903.633 842.262,665.824 "/>
<polyline clip-path="url(#clip681)" style="stroke:#00008b; stroke-linecap:round; stroke-linejoin:round; stroke-width:0; stroke-opacity:1; fill:none" points="1012.75,665.824 1012.75,586.856 671.777,586.856 671.777,665.824 1012.75,665.824 1012.75,586.856 "/>
<polyline clip-path="url(#clip681)" style="stroke:#00008b; stroke-linecap:round; stroke-linejoin:round; stroke-width:0; stroke-opacity:1; fill:none" points="1012.75,501.518 671.777,501.518 671.777,586.856 1012.75,586.856 1012.75,501.518 842.262,501.518 "/>
<polyline clip-path="url(#clip681)" style="stroke:#00008b; stroke-linecap:round; stroke-linejoin:round; stroke-width:0; stroke-opacity:1; fill:none" points="842.262,282.547 757.019,282.547 927.504,282.547 842.262,282.547 842.262,501.518 "/>
<polyline clip-path="url(#clip681)" style="stroke:#00008b; stroke-linecap:round; stroke-linejoin:round; stroke-width:0; stroke-opacity:1; fill:none" points="1268.47,890.961 1183.23,890.961 1353.72,890.961 1268.47,890.961 1268.47,668.054 "/>
<polyline clip-path="url(#clip681)" style="stroke:#00008b; stroke-linecap:round; stroke-linejoin:round; stroke-width:0; stroke-opacity:1; fill:none" points="1438.96,668.054 1438.96,596.556 1097.99,596.556 1097.99,668.054 1438.96,668.054 1438.96,596.556 "/>
<polyline clip-path="url(#clip681)" style="stroke:#00008b; stroke-linecap:round; stroke-linejoin:round; stroke-width:0; stroke-opacity:1; fill:none" points="1438.96,518.905 1097.99,518.905 1097.99,596.556 1438.96,596.556 1438.96,518.905 1268.47,518.905 "/>
<polyline clip-path="url(#clip681)" style="stroke:#00008b; stroke-linecap:round; stroke-linejoin:round; stroke-width:0; stroke-opacity:1; fill:none" points="1268.47,295.978 1183.23,295.978 1353.72,295.978 1268.47,295.978 1268.47,518.905 "/>
<polyline clip-path="url(#clip681)" style="stroke:#00008b; stroke-linecap:round; stroke-linejoin:round; stroke-width:0; stroke-opacity:1; fill:none" points="1694.69,943.716 1609.44,943.716 1779.93,943.716 1694.69,943.716 1694.69,712.153 "/>
<polyline clip-path="url(#clip681)" style="stroke:#00008b; stroke-linecap:round; stroke-linejoin:round; stroke-width:0; stroke-opacity:1; fill:none" points="1865.17,712.153 1865.17,637.689 1524.2,637.689 1524.2,712.153 1865.17,712.153 1865.17,637.689 "/>
<polyline clip-path="url(#clip681)" style="stroke:#00008b; stroke-linecap:round; stroke-linejoin:round; stroke-width:0; stroke-opacity:1; fill:none" points="1865.17,552.93 1524.2,552.93 1524.2,637.689 1865.17,637.689 1865.17,552.93 1694.69,552.93 "/>
<polyline clip-path="url(#clip681)" style="stroke:#00008b; stroke-linecap:round; stroke-linejoin:round; stroke-width:0; stroke-opacity:1; fill:none" points="1694.69,314.609 1609.44,314.609 1779.93,314.609 1694.69,314.609 1694.69,552.93 "/>
<polyline clip-path="url(#clip681)" style="stroke:#00008b; stroke-linecap:round; stroke-linejoin:round; stroke-width:0; stroke-opacity:1; fill:none" points="2120.9,1391.42 2035.65,1391.42 2206.14,1391.42 2120.9,1391.42 2120.9,1161.03 "/>
<polyline clip-path="url(#clip681)" style="stroke:#00008b; stroke-linecap:round; stroke-linejoin:round; stroke-width:0; stroke-opacity:1; fill:none" points="2291.38,1161.03 2291.38,1085.64 1950.41,1085.64 1950.41,1161.03 2291.38,1161.03 2291.38,1085.64 "/>
<polyline clip-path="url(#clip681)" style="stroke:#00008b; stroke-linecap:round; stroke-linejoin:round; stroke-width:0; stroke-opacity:1; fill:none" points="2291.38,1006.71 1950.41,1006.71 1950.41,1085.64 2291.38,1085.64 2291.38,1006.71 2120.9,1006.71 "/>
<polyline clip-path="url(#clip681)" style="stroke:#00008b; stroke-linecap:round; stroke-linejoin:round; stroke-width:0; stroke-opacity:1; fill:none" points="2120.9,783.026 2035.65,783.026 2206.14,783.026 2120.9,783.026 2120.9,1006.71 "/>
</svg>
