<?xml version="1.0" encoding="utf-8"?>
<svg xmlns="http://www.w3.org/2000/svg" xmlns:xlink="http://www.w3.org/1999/xlink" width="600" height="400" viewBox="0 0 2400 1600">
<defs>
  <clipPath id="clip890">
    <rect x="0" y="0" width="2400" height="1600"/>
  </clipPath>
</defs>
<path clip-path="url(#clip890)" d="M0 1600 L2400 1600 L2400 0 L0 0  Z" fill="#ffffff" fill-rule="evenodd" fill-opacity="1"/>
<defs>
  <clipPath id="clip891">
    <rect x="169" y="47" width="2185" height="1440"/>
  </clipPath>
</defs>
<path clip-path="url(#clip890)" d="M169.121 1486.45 L2352.76 1486.45 L2352.76 47.2441 L169.121 47.2441  Z" fill="#ffffff" fill-rule="evenodd" fill-opacity="1"/>
<polyline clip-path="url(#clip891)" style="stroke:#000000; stroke-linecap:round; stroke-linejoin:round; stroke-width:2; stroke-opacity:0.1; fill:none" points="402.592,1486.45 402.592,47.2441 "/>
<polyline clip-path="url(#clip891)" style="stroke:#000000; stroke-linecap:round; stroke-linejoin:round; stroke-width:2; stroke-opacity:0.1; fill:none" points="831.765,1486.45 831.765,47.2441 "/>
<polyline clip-path="url(#clip891)" style="stroke:#000000; stroke-linecap:round; stroke-linejoin:round; stroke-width:2; stroke-opacity:0.1; fill:none" points="1260.94,1486.45 1260.94,47.2441 "/>
<polyline clip-path="url(#clip891)" style="stroke:#000000; stroke-linecap:round; stroke-linejoin:round; stroke-width:2; stroke-opacity:0.1; fill:none" points="1690.11,1486.45 1690.11,47.2441 "/>
<polyline clip-path="url(#clip891)" style="stroke:#000000; stroke-linecap:round; stroke-linejoin:round; stroke-width:2; stroke-opacity:0.1; fill:none" points="2119.29,1486.45 2119.29,47.2441 "/>
<polyline clip-path="url(#clip891)" style="stroke:#000000; stroke-linecap:round; stroke-linejoin:round; stroke-width:2; stroke-opacity:0.1; fill:none" points="169.121,1346.95 2352.76,1346.95 "/>
<polyline clip-path="url(#clip891)" style="stroke:#000000; stroke-linecap:round; stroke-linejoin:round; stroke-width:2; stroke-opacity:0.1; fill:none" points="169.121,919.661 2352.76,919.661 "/>
<polyline clip-path="url(#clip891)" style="stroke:#000000; stroke-linecap:round; stroke-linejoin:round; stroke-width:2; stroke-opacity:0.1; fill:none" points="169.121,492.369 2352.76,492.369 "/>
<polyline clip-path="url(#clip891)" style="stroke:#000000; stroke-linecap:round; stroke-linejoin:round; stroke-width:2; stroke-opacity:0.1; fill:none" points="169.121,65.0774 2352.76,65.0774 "/>
<polyline clip-path="url(#clip890)" style="stroke:#000000; stroke-linecap:round; stroke-linejoin:round; stroke-width:4; stroke-opacity:1; fill:none" points="169.121,1486.45 2352.76,1486.45 "/>
<polyline clip-path="url(#clip890)" style="stroke:#000000; stroke-linecap:round; stroke-linejoin:round; stroke-width:4; stroke-opacity:1; fill:none" points="402.592,1486.45 402.592,1467.55 "/>
<polyline clip-path="url(#clip890)" style="stroke:#000000; stroke-linecap:round; stroke-linejoin:round; stroke-width:4; stroke-opacity:1; fill:none" points="831.765,1486.45 831.765,1467.55 "/>
<polyline clip-path="url(#clip890)" style="stroke:#000000; stroke-linecap:round; stroke-linejoin:round; stroke-width:4; stroke-opacity:1; fill:none" points="1260.94,1486.45 1260.94,1467.55 "/>
<polyline clip-path="url(#clip890)" style="stroke:#000000; stroke-linecap:round; stroke-linejoin:round; stroke-width:4; stroke-opacity:1; fill:none" points="1690.11,1486.45 1690.11,1467.55 "/>
<polyline clip-path="url(#clip890)" style="stroke:#000000; stroke-linecap:round; stroke-linejoin:round; stroke-width:4; stroke-opacity:1; fill:none" points="2119.29,1486.45 2119.29,1467.55 "/>
<path clip-path="url(#clip890)" d="M377.279 1544.91 L384.918 1544.91 L384.918 1518.55 L376.608 1520.21 L376.608 1515.95 L384.872 1514.29 L389.548 1514.29 L389.548 1544.91 L397.187 1544.91 L397.187 1548.85 L377.279 1548.85 L377.279 1544.91 Z" fill="#000000" fill-rule="nonzero" fill-opacity="1" /><path clip-path="url(#clip890)" d="M416.631 1517.37 Q413.02 1517.37 411.191 1520.93 Q409.386 1524.47 409.386 1531.6 Q409.386 1538.71 411.191 1542.27 Q413.02 1545.82 416.631 1545.82 Q420.265 1545.82 422.071 1542.27 Q423.899 1538.71 423.899 1531.6 Q423.899 1524.47 422.071 1520.93 Q420.265 1517.37 416.631 1517.37 M416.631 1513.66 Q422.441 1513.66 425.497 1518.27 Q428.575 1522.85 428.575 1531.6 Q428.575 1540.33 425.497 1544.94 Q422.441 1549.52 416.631 1549.52 Q410.821 1549.52 407.742 1544.94 Q404.687 1540.33 404.687 1531.6 Q404.687 1522.85 407.742 1518.27 Q410.821 1513.66 416.631 1513.66 Z" fill="#000000" fill-rule="nonzero" fill-opacity="1" /><path clip-path="url(#clip890)" d="M806.464 1514.29 L824.821 1514.29 L824.821 1518.22 L810.747 1518.22 L810.747 1526.7 Q811.765 1526.35 812.784 1526.19 Q813.802 1526 814.821 1526 Q820.608 1526 823.987 1529.17 Q827.367 1532.34 827.367 1537.76 Q827.367 1543.34 823.895 1546.44 Q820.423 1549.52 814.103 1549.52 Q811.927 1549.52 809.659 1549.15 Q807.413 1548.78 805.006 1548.04 L805.006 1543.34 Q807.089 1544.47 809.312 1545.03 Q811.534 1545.58 814.011 1545.58 Q818.015 1545.58 820.353 1543.48 Q822.691 1541.37 822.691 1537.76 Q822.691 1534.15 820.353 1532.04 Q818.015 1529.94 814.011 1529.94 Q812.136 1529.94 810.261 1530.35 Q808.409 1530.77 806.464 1531.65 L806.464 1514.29 Z" fill="#000000" fill-rule="nonzero" fill-opacity="1" /><path clip-path="url(#clip890)" d="M846.58 1517.37 Q842.969 1517.37 841.14 1520.93 Q839.335 1524.47 839.335 1531.6 Q839.335 1538.71 841.14 1542.27 Q842.969 1545.82 846.58 1545.82 Q850.214 1545.82 852.02 1542.27 Q853.848 1538.71 853.848 1531.6 Q853.848 1524.47 852.02 1520.93 Q850.214 1517.37 846.58 1517.37 M846.58 1513.66 Q852.39 1513.66 855.446 1518.27 Q858.524 1522.85 858.524 1531.6 Q858.524 1540.33 855.446 1544.94 Q852.39 1549.52 846.58 1549.52 Q840.77 1549.52 837.691 1544.94 Q834.636 1540.33 834.636 1531.6 Q834.636 1522.85 837.691 1518.27 Q840.77 1513.66 846.58 1513.66 Z" fill="#000000" fill-rule="nonzero" fill-opacity="1" /><path clip-path="url(#clip890)" d="M1220.55 1544.91 L1228.18 1544.91 L1228.18 1518.55 L1219.87 1520.21 L1219.87 1515.95 L1228.14 1514.29 L1232.81 1514.29 L1232.81 1544.91 L1240.45 1544.91 L1240.45 1548.85 L1220.55 1548.85 L1220.55 1544.91 Z" fill="#000000" fill-rule="nonzero" fill-opacity="1" /><path clip-path="url(#clip890)" d="M1259.9 1517.37 Q1256.29 1517.37 1254.46 1520.93 Q1252.65 1524.47 1252.65 1531.6 Q1252.65 1538.71 1254.46 1542.27 Q1256.29 1545.82 1259.9 1545.82 Q1263.53 1545.82 1265.34 1542.27 Q1267.17 1538.71 1267.17 1531.6 Q1267.17 1524.47 1265.34 1520.93 Q1263.53 1517.37 1259.9 1517.37 M1259.9 1513.66 Q1265.71 1513.66 1268.76 1518.27 Q1271.84 1522.85 1271.84 1531.6 Q1271.84 1540.33 1268.76 1544.94 Q1265.71 1549.52 1259.9 1549.52 Q1254.09 1549.52 1251.01 1544.94 Q1247.95 1540.33 1247.95 1531.6 Q1247.95 1522.85 1251.01 1518.27 Q1254.09 1513.66 1259.9 1513.66 Z" fill="#000000" fill-rule="nonzero" fill-opacity="1" /><path clip-path="url(#clip890)" d="M1290.06 1517.37 Q1286.45 1517.37 1284.62 1520.93 Q1282.81 1524.47 1282.81 1531.6 Q1282.81 1538.71 1284.62 1542.27 Q1286.45 1545.82 1290.06 1545.82 Q1293.69 1545.82 1295.5 1542.27 Q1297.33 1538.71 1297.33 1531.6 Q1297.33 1524.47 1295.5 1520.93 Q1293.69 1517.37 1290.06 1517.37 M1290.06 1513.66 Q1295.87 1513.66 1298.92 1518.27 Q1302 1522.85 1302 1531.6 Q1302 1540.33 1298.92 1544.94 Q1295.87 1549.52 1290.06 1549.52 Q1284.25 1549.52 1281.17 1544.94 Q1278.11 1540.33 1278.11 1531.6 Q1278.11 1522.85 1281.17 1518.27 Q1284.25 1513.66 1290.06 1513.66 Z" fill="#000000" fill-rule="nonzero" fill-opacity="1" /><path clip-path="url(#clip890)" d="M1653.8 1544.91 L1670.12 1544.91 L1670.12 1548.85 L1648.18 1548.85 L1648.18 1544.91 Q1650.84 1542.16 1655.42 1537.53 Q1660.03 1532.88 1661.21 1531.53 Q1663.46 1529.01 1664.34 1527.27 Q1665.24 1525.51 1665.24 1523.82 Q1665.24 1521.07 1663.3 1519.33 Q1661.37 1517.6 1658.27 1517.6 Q1656.07 1517.6 1653.62 1518.36 Q1651.19 1519.13 1648.41 1520.68 L1648.41 1515.95 Q1651.23 1514.82 1653.69 1514.24 Q1656.14 1513.66 1658.18 1513.66 Q1663.55 1513.66 1666.74 1516.35 Q1669.94 1519.03 1669.94 1523.52 Q1669.94 1525.65 1669.13 1527.57 Q1668.34 1529.47 1666.23 1532.07 Q1665.66 1532.74 1662.55 1535.95 Q1659.45 1539.15 1653.8 1544.91 Z" fill="#000000" fill-rule="nonzero" fill-opacity="1" /><path clip-path="url(#clip890)" d="M1689.94 1517.37 Q1686.33 1517.37 1684.5 1520.93 Q1682.69 1524.47 1682.69 1531.6 Q1682.69 1538.71 1684.5 1542.27 Q1686.33 1545.82 1689.94 1545.82 Q1693.57 1545.82 1695.38 1542.27 Q1697.21 1538.71 1697.21 1531.6 Q1697.21 1524.47 1695.38 1520.93 Q1693.57 1517.37 1689.94 1517.37 M1689.94 1513.66 Q1695.75 1513.66 1698.8 1518.27 Q1701.88 1522.85 1701.88 1531.6 Q1701.88 1540.33 1698.8 1544.94 Q1695.75 1549.52 1689.94 1549.52 Q1684.13 1549.52 1681.05 1544.94 Q1677.99 1540.33 1677.99 1531.6 Q1677.99 1522.85 1681.05 1518.27 Q1684.13 1513.66 1689.94 1513.66 Z" fill="#000000" fill-rule="nonzero" fill-opacity="1" /><path clip-path="url(#clip890)" d="M1720.1 1517.37 Q1716.49 1517.37 1714.66 1520.93 Q1712.86 1524.47 1712.86 1531.6 Q1712.86 1538.71 1714.66 1542.27 Q1716.49 1545.82 1720.1 1545.82 Q1723.73 1545.82 1725.54 1542.27 Q1727.37 1538.71 1727.37 1531.6 Q1727.37 1524.47 1725.54 1520.93 Q1723.73 1517.37 1720.1 1517.37 M1720.1 1513.66 Q1725.91 1513.66 1728.97 1518.27 Q1732.04 1522.85 1732.04 1531.6 Q1732.04 1540.33 1728.97 1544.94 Q1725.91 1549.52 1720.1 1549.52 Q1714.29 1549.52 1711.21 1544.94 Q1708.16 1540.33 1708.16 1531.6 Q1708.16 1522.85 1711.21 1518.27 Q1714.29 1513.66 1720.1 1513.66 Z" fill="#000000" fill-rule="nonzero" fill-opacity="1" /><path clip-path="url(#clip890)" d="M2078.9 1514.29 L2097.26 1514.29 L2097.26 1518.22 L2083.19 1518.22 L2083.19 1526.7 Q2084.2 1526.35 2085.22 1526.19 Q2086.24 1526 2087.26 1526 Q2093.05 1526 2096.43 1529.17 Q2099.81 1532.34 2099.81 1537.76 Q2099.81 1543.34 2096.33 1546.44 Q2092.86 1549.52 2086.54 1549.52 Q2084.37 1549.52 2082.1 1549.15 Q2079.85 1548.78 2077.45 1548.04 L2077.45 1543.34 Q2079.53 1544.47 2081.75 1545.03 Q2083.97 1545.58 2086.45 1545.58 Q2090.45 1545.58 2092.79 1543.48 Q2095.13 1541.37 2095.13 1537.76 Q2095.13 1534.15 2092.79 1532.04 Q2090.45 1529.94 2086.45 1529.94 Q2084.58 1529.94 2082.7 1530.35 Q2080.85 1530.77 2078.9 1531.65 L2078.9 1514.29 Z" fill="#000000" fill-rule="nonzero" fill-opacity="1" /><path clip-path="url(#clip890)" d="M2119.02 1517.37 Q2115.41 1517.37 2113.58 1520.93 Q2111.77 1524.47 2111.77 1531.6 Q2111.77 1538.71 2113.58 1542.27 Q2115.41 1545.82 2119.02 1545.82 Q2122.65 1545.82 2124.46 1542.27 Q2126.29 1538.71 2126.29 1531.6 Q2126.29 1524.47 2124.46 1520.93 Q2122.65 1517.37 2119.02 1517.37 M2119.02 1513.66 Q2124.83 1513.66 2127.89 1518.27 Q2130.96 1522.85 2130.96 1531.6 Q2130.96 1540.33 2127.89 1544.94 Q2124.83 1549.52 2119.02 1549.52 Q2113.21 1549.52 2110.13 1544.94 Q2107.07 1540.33 2107.07 1531.6 Q2107.07 1522.85 2110.13 1518.27 Q2113.21 1513.66 2119.02 1513.66 Z" fill="#000000" fill-rule="nonzero" fill-opacity="1" /><path clip-path="url(#clip890)" d="M2149.18 1517.37 Q2145.57 1517.37 2143.74 1520.93 Q2141.94 1524.47 2141.94 1531.6 Q2141.94 1538.71 2143.74 1542.27 Q2145.57 1545.82 2149.18 1545.82 Q2152.82 1545.82 2154.62 1542.27 Q2156.45 1538.71 2156.45 1531.6 Q2156.45 1524.47 2154.62 1520.93 Q2152.82 1517.37 2149.18 1517.37 M2149.18 1513.66 Q2154.99 1513.66 2158.05 1518.27 Q2161.13 1522.85 2161.13 1531.6 Q2161.13 1540.33 2158.05 1544.94 Q2154.99 1549.52 2149.18 1549.52 Q2143.37 1549.52 2140.29 1544.94 Q2137.24 1540.33 2137.24 1531.6 Q2137.24 1522.85 2140.29 1518.27 Q2143.37 1513.66 2149.18 1513.66 Z" fill="#000000" fill-rule="nonzero" fill-opacity="1" /><polyline clip-path="url(#clip890)" style="stroke:#000000; stroke-linecap:round; stroke-linejoin:round; stroke-width:4; stroke-opacity:1; fill:none" points="169.121,1486.45 169.121,47.2441 "/>
<polyline clip-path="url(#clip890)" style="stroke:#000000; stroke-linecap:round; stroke-linejoin:round; stroke-width:4; stroke-opacity:1; fill:none" points="169.121,1346.95 188.019,1346.95 "/>
<polyline clip-path="url(#clip890)" style="stroke:#000000; stroke-linecap:round; stroke-linejoin:round; stroke-width:4; stroke-opacity:1; fill:none" points="169.121,919.661 188.019,919.661 "/>
<polyline clip-path="url(#clip890)" style="stroke:#000000; stroke-linecap:round; stroke-linejoin:round; stroke-width:4; stroke-opacity:1; fill:none" points="169.121,492.369 188.019,492.369 "/>
<polyline clip-path="url(#clip890)" style="stroke:#000000; stroke-linecap:round; stroke-linejoin:round; stroke-width:4; stroke-opacity:1; fill:none" points="169.121,65.0774 188.019,65.0774 "/>
<path clip-path="url(#clip890)" d="M81.154 1363.52 L81.154 1359.26 Q82.9133 1360.09 84.7188 1360.53 Q86.5243 1360.97 88.2604 1360.97 Q92.89 1360.97 95.3206 1357.87 Q97.7743 1354.74 98.1215 1348.4 Q96.7789 1350.39 94.7187 1351.46 Q92.6586 1352.52 90.1586 1352.52 Q84.9734 1352.52 81.941 1349.39 Q78.9318 1346.25 78.9318 1340.81 Q78.9318 1335.48 82.0799 1332.27 Q85.2281 1329.05 90.4595 1329.05 Q96.4548 1329.05 99.603 1333.65 Q102.774 1338.24 102.774 1346.99 Q102.774 1355.16 98.8854 1360.04 Q95.0197 1364.9 88.4688 1364.9 Q86.7095 1364.9 84.904 1364.56 Q83.0984 1364.21 81.154 1363.52 M90.4595 1348.86 Q93.6076 1348.86 95.4363 1346.71 Q97.2882 1344.56 97.2882 1340.81 Q97.2882 1337.08 95.4363 1334.93 Q93.6076 1332.75 90.4595 1332.75 Q87.3114 1332.75 85.4595 1334.93 Q83.6308 1337.08 83.6308 1340.81 Q83.6308 1344.56 85.4595 1346.71 Q87.3114 1348.86 90.4595 1348.86 Z" fill="#000000" fill-rule="nonzero" fill-opacity="1" /><path clip-path="url(#clip890)" d="M121.177 1332.75 Q117.566 1332.75 115.737 1336.32 Q113.932 1339.86 113.932 1346.99 Q113.932 1354.09 115.737 1357.66 Q117.566 1361.2 121.177 1361.2 Q124.811 1361.2 126.617 1357.66 Q128.445 1354.09 128.445 1346.99 Q128.445 1339.86 126.617 1336.32 Q124.811 1332.75 121.177 1332.75 M121.177 1329.05 Q126.987 1329.05 130.043 1333.65 Q133.121 1338.24 133.121 1346.99 Q133.121 1355.71 130.043 1360.32 Q126.987 1364.9 121.177 1364.9 Q115.367 1364.9 112.288 1360.32 Q109.233 1355.71 109.233 1346.99 Q109.233 1338.24 112.288 1333.65 Q115.367 1329.05 121.177 1329.05 Z" fill="#000000" fill-rule="nonzero" fill-opacity="1" /><path clip-path="url(#clip890)" d="M51.6634 933.006 L59.3023 933.006 L59.3023 906.64 L50.9921 908.307 L50.9921 904.048 L59.256 902.381 L63.9319 902.381 L63.9319 933.006 L71.5707 933.006 L71.5707 936.941 L51.6634 936.941 L51.6634 933.006 Z" fill="#000000" fill-rule="nonzero" fill-opacity="1" /><path clip-path="url(#clip890)" d="M91.0151 905.46 Q87.404 905.46 85.5753 909.025 Q83.7697 912.566 83.7697 919.696 Q83.7697 926.802 85.5753 930.367 Q87.404 933.909 91.0151 933.909 Q94.6493 933.909 96.4548 930.367 Q98.2835 926.802 98.2835 919.696 Q98.2835 912.566 96.4548 909.025 Q94.6493 905.46 91.0151 905.46 M91.0151 901.756 Q96.8252 901.756 99.8808 906.363 Q102.959 910.946 102.959 919.696 Q102.959 928.423 99.8808 933.029 Q96.8252 937.612 91.0151 937.612 Q85.2049 937.612 82.1262 933.029 Q79.0707 928.423 79.0707 919.696 Q79.0707 910.946 82.1262 906.363 Q85.2049 901.756 91.0151 901.756 Z" fill="#000000" fill-rule="nonzero" fill-opacity="1" /><path clip-path="url(#clip890)" d="M121.177 905.46 Q117.566 905.46 115.737 909.025 Q113.932 912.566 113.932 919.696 Q113.932 926.802 115.737 930.367 Q117.566 933.909 121.177 933.909 Q124.811 933.909 126.617 930.367 Q128.445 926.802 128.445 919.696 Q128.445 912.566 126.617 909.025 Q124.811 905.46 121.177 905.46 M121.177 901.756 Q126.987 901.756 130.043 906.363 Q133.121 910.946 133.121 919.696 Q133.121 928.423 130.043 933.029 Q126.987 937.612 121.177 937.612 Q115.367 937.612 112.288 933.029 Q109.233 928.423 109.233 919.696 Q109.233 910.946 112.288 906.363 Q115.367 901.756 121.177 901.756 Z" fill="#000000" fill-rule="nonzero" fill-opacity="1" /><path clip-path="url(#clip890)" d="M51.6634 505.714 L59.3023 505.714 L59.3023 479.348 L50.9921 481.015 L50.9921 476.756 L59.256 475.089 L63.9319 475.089 L63.9319 505.714 L71.5707 505.714 L71.5707 509.649 L51.6634 509.649 L51.6634 505.714 Z" fill="#000000" fill-rule="nonzero" fill-opacity="1" /><path clip-path="url(#clip890)" d="M81.8253 505.714 L89.4641 505.714 L89.4641 479.348 L81.154 481.015 L81.154 476.756 L89.4178 475.089 L94.0937 475.089 L94.0937 505.714 L101.733 505.714 L101.733 509.649 L81.8253 509.649 L81.8253 505.714 Z" fill="#000000" fill-rule="nonzero" fill-opacity="1" /><path clip-path="url(#clip890)" d="M121.177 478.168 Q117.566 478.168 115.737 481.733 Q113.932 485.274 113.932 492.404 Q113.932 499.51 115.737 503.075 Q117.566 506.617 121.177 506.617 Q124.811 506.617 126.617 503.075 Q128.445 499.51 128.445 492.404 Q128.445 485.274 126.617 481.733 Q124.811 478.168 121.177 478.168 M121.177 474.464 Q126.987 474.464 130.043 479.071 Q133.121 483.654 133.121 492.404 Q133.121 501.131 130.043 505.737 Q126.987 510.321 121.177 510.321 Q115.367 510.321 112.288 505.737 Q109.233 501.131 109.233 492.404 Q109.233 483.654 112.288 479.071 Q115.367 474.464 121.177 474.464 Z" fill="#000000" fill-rule="nonzero" fill-opacity="1" /><path clip-path="url(#clip890)" d="M51.6634 78.4223 L59.3023 78.4223 L59.3023 52.0567 L50.9921 53.7233 L50.9921 49.4641 L59.256 47.7974 L63.9319 47.7974 L63.9319 78.4223 L71.5707 78.4223 L71.5707 82.3574 L51.6634 82.3574 L51.6634 78.4223 Z" fill="#000000" fill-rule="nonzero" fill-opacity="1" /><path clip-path="url(#clip890)" d="M85.0429 78.4223 L101.362 78.4223 L101.362 82.3574 L79.4179 82.3574 L79.4179 78.4223 Q82.0799 75.6677 86.6632 71.0381 Q91.2697 66.3853 92.4502 65.0427 Q94.6956 62.5196 95.5752 60.7835 Q96.478 59.0242 96.478 57.3344 Q96.478 54.5798 94.5336 52.8437 Q92.6123 51.1076 89.5104 51.1076 Q87.3114 51.1076 84.8577 51.8715 Q82.4271 52.6354 79.6494 54.1863 L79.6494 49.4641 Q82.4734 48.3298 84.9271 47.7511 Q87.3808 47.1724 89.4178 47.1724 Q94.7882 47.1724 97.9826 49.8576 Q101.177 52.5428 101.177 57.0335 Q101.177 59.1631 100.367 61.0844 Q99.5798 62.9825 97.4734 65.5751 Q96.8947 66.2464 93.7928 69.464 Q90.691 72.6584 85.0429 78.4223 Z" fill="#000000" fill-rule="nonzero" fill-opacity="1" /><path clip-path="url(#clip890)" d="M121.177 50.8761 Q117.566 50.8761 115.737 54.4409 Q113.932 57.9826 113.932 65.1122 Q113.932 72.2186 115.737 75.7834 Q117.566 79.325 121.177 79.325 Q124.811 79.325 126.617 75.7834 Q128.445 72.2186 128.445 65.1122 Q128.445 57.9826 126.617 54.4409 Q124.811 50.8761 121.177 50.8761 M121.177 47.1724 Q126.987 47.1724 130.043 51.7789 Q133.121 56.3622 133.121 65.1122 Q133.121 73.839 130.043 78.4454 Q126.987 83.0287 121.177 83.0287 Q115.367 83.0287 112.288 78.4454 Q109.233 73.839 109.233 65.1122 Q109.233 56.3622 112.288 51.7789 Q115.367 47.1724 121.177 47.1724 Z" fill="#000000" fill-rule="nonzero" fill-opacity="1" /><path clip-path="url(#clip891)" d="M402.592 1445.72 L316.757 1445.72 L488.426 1445.72 L402.592 1445.72 L402.592 1137.8 L402.592 1445.72  Z" fill="#00008b" fill-rule="evenodd" fill-opacity="1"/>
<polyline clip-path="url(#clip891)" style="stroke:#000000; stroke-linecap:round; stroke-linejoin:round; stroke-width:4; stroke-opacity:1; fill:none" points="402.592,1445.72 316.757,1445.72 488.426,1445.72 402.592,1445.72 402.592,1137.8 402.592,1445.72 "/>
<path clip-path="url(#clip891)" d="M574.261 1137.8 L574.261 1005.68 L230.922 1005.68 L230.922 1137.8 L574.261 1137.8 L574.261 1005.68 L574.261 1137.8  Z" fill="#00008b" fill-rule="evenodd" fill-opacity="1"/>
<polyline clip-path="url(#clip891)" style="stroke:#000000; stroke-linecap:round; stroke-linejoin:round; stroke-width:4; stroke-opacity:1; fill:none" points="574.261,1137.8 574.261,1005.68 230.922,1005.68 230.922,1137.8 574.261,1137.8 574.261,1005.68 574.261,1137.8 "/>
<path clip-path="url(#clip891)" d="M574.261 846.55 L230.922 846.55 L230.922 1005.68 L574.261 1005.68 L574.261 846.55 L402.592 846.55 L574.261 846.55  Z" fill="#00008b" fill-rule="evenodd" fill-opacity="1"/>
<polyline clip-path="url(#clip891)" style="stroke:#000000; stroke-linecap:round; stroke-linejoin:round; stroke-width:4; stroke-opacity:1; fill:none" points="574.261,846.55 230.922,846.55 230.922,1005.68 574.261,1005.68 574.261,846.55 402.592,846.55 574.261,846.55 "/>
<path clip-path="url(#clip891)" d="M402.592 413.299 L316.757 413.299 L488.426 413.299 L402.592 413.299 L402.592 846.55 L402.592 413.299  Z" fill="#00008b" fill-rule="evenodd" fill-opacity="1"/>
<polyline clip-path="url(#clip891)" style="stroke:#000000; stroke-linecap:round; stroke-linejoin:round; stroke-width:4; stroke-opacity:1; fill:none" points="402.592,413.299 316.757,413.299 488.426,413.299 402.592,413.299 402.592,846.55 402.592,413.299 "/>
<path clip-path="url(#clip891)" d="M831.765 1139.44 L745.93 1139.44 L917.6 1139.44 L831.765 1139.44 L831.765 979.362 L831.765 1139.44  Z" fill="#00008b" fill-rule="evenodd" fill-opacity="1"/>
<polyline clip-path="url(#clip891)" style="stroke:#000000; stroke-linecap:round; stroke-linejoin:round; stroke-width:4; stroke-opacity:1; fill:none" points="831.765,1139.44 745.93,1139.44 917.6,1139.44 831.765,1139.44 831.765,979.362 831.765,1139.44 "/>
<path clip-path="url(#clip891)" d="M1003.43 979.362 L1003.43 928.433 L660.096 928.433 L660.096 979.362 L1003.43 979.362 L1003.43 928.433 L1003.43 979.362  Z" fill="#00008b" fill-rule="evenodd" fill-opacity="1"/>
<polyline clip-path="url(#clip891)" style="stroke:#000000; stroke-linecap:round; stroke-linejoin:round; stroke-width:4; stroke-opacity:1; fill:none" points="1003.43,979.362 1003.43,928.433 660.096,928.433 660.096,979.362 1003.43,979.362 1003.43,928.433 1003.43,979.362 "/>
<path clip-path="url(#clip891)" d="M1003.43 867.646 L660.096 867.646 L660.096 928.433 L1003.43 928.433 L1003.43 867.646 L831.765 867.646 L1003.43 867.646  Z" fill="#00008b" fill-rule="evenodd" fill-opacity="1"/>
<polyline clip-path="url(#clip891)" style="stroke:#000000; stroke-linecap:round; stroke-linejoin:round; stroke-width:4; stroke-opacity:1; fill:none" points="1003.43,867.646 660.096,867.646 660.096,928.433 1003.43,928.433 1003.43,867.646 831.765,867.646 1003.43,867.646 "/>
<path clip-path="url(#clip891)" d="M831.765 704.851 L745.93 704.851 L917.6 704.851 L831.765 704.851 L831.765 867.646 L831.765 704.851  Z" fill="#00008b" fill-rule="evenodd" fill-opacity="1"/>
<polyline clip-path="url(#clip891)" style="stroke:#000000; stroke-linecap:round; stroke-linejoin:round; stroke-width:4; stroke-opacity:1; fill:none" points="831.765,704.851 745.93,704.851 917.6,704.851 831.765,704.851 831.765,867.646 831.765,704.851 "/>
<path clip-path="url(#clip891)" d="M1260.94 1056.99 L1175.1 1056.99 L1346.77 1056.99 L1260.94 1056.99 L1260.94 955.207 L1260.94 1056.99  Z" fill="#00008b" fill-rule="evenodd" fill-opacity="1"/>
<polyline clip-path="url(#clip891)" style="stroke:#000000; stroke-linecap:round; stroke-linejoin:round; stroke-width:4; stroke-opacity:1; fill:none" points="1260.94,1056.99 1175.1,1056.99 1346.77,1056.99 1260.94,1056.99 1260.94,955.207 1260.94,1056.99 "/>
<path clip-path="url(#clip891)" d="M1432.61 955.207 L1432.61 924.089 L1089.27 924.089 L1089.27 955.207 L1432.61 955.207 L1432.61 924.089 L1432.61 955.207  Z" fill="#00008b" fill-rule="evenodd" fill-opacity="1"/>
<polyline clip-path="url(#clip891)" style="stroke:#000000; stroke-linecap:round; stroke-linejoin:round; stroke-width:4; stroke-opacity:1; fill:none" points="1432.61,955.207 1432.61,924.089 1089.27,924.089 1089.27,955.207 1432.61,955.207 1432.61,924.089 1432.61,955.207 "/>
<path clip-path="url(#clip891)" d="M1432.61 885.811 L1089.27 885.811 L1089.27 924.089 L1432.61 924.089 L1432.61 885.811 L1260.94 885.811 L1432.61 885.811  Z" fill="#00008b" fill-rule="evenodd" fill-opacity="1"/>
<polyline clip-path="url(#clip891)" style="stroke:#000000; stroke-linecap:round; stroke-linejoin:round; stroke-width:4; stroke-opacity:1; fill:none" points="1432.61,885.811 1089.27,885.811 1089.27,924.089 1432.61,924.089 1432.61,885.811 1260.94,885.811 1432.61,885.811 "/>
<path clip-path="url(#clip891)" d="M1260.94 782.007 L1175.1 782.007 L1346.77 782.007 L1260.94 782.007 L1260.94 885.811 L1260.94 782.007  Z" fill="#00008b" fill-rule="evenodd" fill-opacity="1"/>
<polyline clip-path="url(#clip891)" style="stroke:#000000; stroke-linecap:round; stroke-linejoin:round; stroke-width:4; stroke-opacity:1; fill:none" points="1260.94,782.007 1175.1,782.007 1346.77,782.007 1260.94,782.007 1260.94,885.811 1260.94,782.007 "/>
<path clip-path="url(#clip891)" d="M1690.11 1005.39 L1604.28 1005.39 L1775.95 1005.39 L1690.11 1005.39 L1690.11 942.388 L1690.11 1005.39  Z" fill="#00008b" fill-rule="evenodd" fill-opacity="1"/>
<polyline clip-path="url(#clip891)" style="stroke:#000000; stroke-linecap:round; stroke-linejoin:round; stroke-width:4; stroke-opacity:1; fill:none" points="1690.11,1005.39 1604.28,1005.39 1775.95,1005.39 1690.11,1005.39 1690.11,942.388 1690.11,1005.39 "/>
<path clip-path="url(#clip891)" d="M1861.78 942.388 L1861.78 919.968 L1518.44 919.968 L1518.44 942.388 L1861.78 942.388 L1861.78 919.968 L1861.78 942.388  Z" fill="#00008b" fill-rule="evenodd" fill-opacity="1"/>
<polyline clip-path="url(#clip891)" style="stroke:#000000; stroke-linecap:round; stroke-linejoin:round; stroke-width:4; stroke-opacity:1; fill:none" points="1861.78,942.388 1861.78,919.968 1518.44,919.968 1518.44,942.388 1861.78,942.388 1861.78,919.968 1861.78,942.388 "/>
<path clip-path="url(#clip891)" d="M1861.78 896.474 L1518.44 896.474 L1518.44 919.968 L1861.78 919.968 L1861.78 896.474 L1690.11 896.474 L1861.78 896.474  Z" fill="#00008b" fill-rule="evenodd" fill-opacity="1"/>
<polyline clip-path="url(#clip891)" style="stroke:#000000; stroke-linecap:round; stroke-linejoin:round; stroke-width:4; stroke-opacity:1; fill:none" points="1861.78,896.474 1518.44,896.474 1518.44,919.968 1861.78,919.968 1861.78,896.474 1690.11,896.474 1861.78,896.474 "/>
<path clip-path="url(#clip891)" d="M1690.11 827.744 L1604.28 827.744 L1775.95 827.744 L1690.11 827.744 L1690.11 896.474 L1690.11 827.744  Z" fill="#00008b" fill-rule="evenodd" fill-opacity="1"/>
<polyline clip-path="url(#clip891)" style="stroke:#000000; stroke-linecap:round; stroke-linejoin:round; stroke-width:4; stroke-opacity:1; fill:none" points="1690.11,827.744 1604.28,827.744 1775.95,827.744 1690.11,827.744 1690.11,896.474 1690.11,827.744 "/>
<path clip-path="url(#clip891)" d="M2119.29 968.829 L2033.45 968.829 L2205.12 968.829 L2119.29 968.829 L2119.29 934.548 L2119.29 968.829  Z" fill="#00008b" fill-rule="evenodd" fill-opacity="1"/>
<polyline clip-path="url(#clip891)" style="stroke:#000000; stroke-linecap:round; stroke-linejoin:round; stroke-width:4; stroke-opacity:1; fill:none" points="2119.29,968.829 2033.45,968.829 2205.12,968.829 2119.29,968.829 2119.29,934.548 2119.29,968.829 "/>
<path clip-path="url(#clip891)" d="M2290.95 934.548 L2290.95 919.655 L1947.62 919.655 L1947.62 934.548 L2290.95 934.548 L2290.95 919.655 L2290.95 934.548  Z" fill="#00008b" fill-rule="evenodd" fill-opacity="1"/>
<polyline clip-path="url(#clip891)" style="stroke:#000000; stroke-linecap:round; stroke-linejoin:round; stroke-width:4; stroke-opacity:1; fill:none" points="2290.95,934.548 2290.95,919.655 1947.62,919.655 1947.62,934.548 2290.95,934.548 2290.95,919.655 2290.95,934.548 "/>
<path clip-path="url(#clip891)" d="M2290.95 905.385 L1947.62 905.385 L1947.62 919.655 L2290.95 919.655 L2290.95 905.385 L2119.29 905.385 L2290.95 905.385  Z" fill="#00008b" fill-rule="evenodd" fill-opacity="1"/>
<polyline clip-path="url(#clip891)" style="stroke:#000000; stroke-linecap:round; stroke-linejoin:round; stroke-width:4; stroke-opacity:1; fill:none" points="2290.95,905.385 1947.62,905.385 1947.62,919.655 2290.95,919.655 2290.95,905.385 2119.29,905.385 2290.95,905.385 "/>
<path clip-path="url(#clip891)" d="M2119.29 861.673 L2033.45 861.673 L2205.12 861.673 L2119.29 861.673 L2119.29 905.385 L2119.29 861.673  Z" fill="#00008b" fill-rule="evenodd" fill-opacity="1"/>
<polyline clip-path="url(#clip891)" style="stroke:#000000; stroke-linecap:round; stroke-linejoin:round; stroke-width:4; stroke-opacity:1; fill:none" points="2119.29,861.673 2033.45,861.673 2205.12,861.673 2119.29,861.673 2119.29,905.385 2119.29,861.673 "/>
<circle clip-path="url(#clip891)" cx="402.592" cy="158.354" r="14.4" fill="#00008b" fill-rule="evenodd" fill-opacity="1" stroke="#000000" stroke-opacity="1" stroke-width="3.2"/>
<circle clip-path="url(#clip891)" cx="402.592" cy="258.334" r="14.4" fill="#00008b" fill-rule="evenodd" fill-opacity="1" stroke="#000000" stroke-opacity="1" stroke-width="3.2"/>
<circle clip-path="url(#clip891)" cx="402.592" cy="265.583" r="14.4" fill="#00008b" fill-rule="evenodd" fill-opacity="1" stroke="#000000" stroke-opacity="1" stroke-width="3.2"/>
<circle clip-path="url(#clip891)" cx="402.592" cy="378.185" r="14.4" fill="#00008b" fill-rule="evenodd" fill-opacity="1" stroke="#000000" stroke-opacity="1" stroke-width="3.2"/>
<circle clip-path="url(#clip891)" cx="402.592" cy="87.9763" r="14.4" fill="#00008b" fill-rule="evenodd" fill-opacity="1" stroke="#000000" stroke-opacity="1" stroke-width="3.2"/>
<circle clip-path="url(#clip891)" cx="402.592" cy="389.535" r="14.4" fill="#00008b" fill-rule="evenodd" fill-opacity="1" stroke="#000000" stroke-opacity="1" stroke-width="3.2"/>
<circle clip-path="url(#clip891)" cx="402.592" cy="248.639" r="14.4" fill="#00008b" fill-rule="evenodd" fill-opacity="1" stroke="#000000" stroke-opacity="1" stroke-width="3.2"/>
<circle clip-path="url(#clip891)" cx="402.592" cy="357.55" r="14.4" fill="#00008b" fill-rule="evenodd" fill-opacity="1" stroke="#000000" stroke-opacity="1" stroke-width="3.2"/>
<circle clip-path="url(#clip891)" cx="402.592" cy="322.18" r="14.4" fill="#00008b" fill-rule="evenodd" fill-opacity="1" stroke="#000000" stroke-opacity="1" stroke-width="3.2"/>
<circle clip-path="url(#clip891)" cx="402.592" cy="123.431" r="14.4" fill="#00008b" fill-rule="evenodd" fill-opacity="1" stroke="#000000" stroke-opacity="1" stroke-width="3.2"/>
<circle clip-path="url(#clip891)" cx="402.592" cy="407.791" r="14.4" fill="#00008b" fill-rule="evenodd" fill-opacity="1" stroke="#000000" stroke-opacity="1" stroke-width="3.2"/>
<circle clip-path="url(#clip891)" cx="402.592" cy="255.033" r="14.4" fill="#00008b" fill-rule="evenodd" fill-opacity="1" stroke="#000000" stroke-opacity="1" stroke-width="3.2"/>
<circle clip-path="url(#clip891)" cx="402.592" cy="381.979" r="14.4" fill="#00008b" fill-rule="evenodd" fill-opacity="1" stroke="#000000" stroke-opacity="1" stroke-width="3.2"/>
<circle clip-path="url(#clip891)" cx="402.592" cy="136.129" r="14.4" fill="#00008b" fill-rule="evenodd" fill-opacity="1" stroke="#000000" stroke-opacity="1" stroke-width="3.2"/>
<circle clip-path="url(#clip891)" cx="402.592" cy="267.351" r="14.4" fill="#00008b" fill-rule="evenodd" fill-opacity="1" stroke="#000000" stroke-opacity="1" stroke-width="3.2"/>
<circle clip-path="url(#clip891)" cx="402.592" cy="308.837" r="14.4" fill="#00008b" fill-rule="evenodd" fill-opacity="1" stroke="#000000" stroke-opacity="1" stroke-width="3.2"/>
<circle clip-path="url(#clip891)" cx="402.592" cy="309.177" r="14.4" fill="#00008b" fill-rule="evenodd" fill-opacity="1" stroke="#000000" stroke-opacity="1" stroke-width="3.2"/>
<circle clip-path="url(#clip891)" cx="402.592" cy="383.255" r="14.4" fill="#00008b" fill-rule="evenodd" fill-opacity="1" stroke="#000000" stroke-opacity="1" stroke-width="3.2"/>
<circle clip-path="url(#clip891)" cx="402.592" cy="388.957" r="14.4" fill="#00008b" fill-rule="evenodd" fill-opacity="1" stroke="#000000" stroke-opacity="1" stroke-width="3.2"/>
<circle clip-path="url(#clip891)" cx="402.592" cy="404.259" r="14.4" fill="#00008b" fill-rule="evenodd" fill-opacity="1" stroke="#000000" stroke-opacity="1" stroke-width="3.2"/>
<circle clip-path="url(#clip891)" cx="402.592" cy="150.47" r="14.4" fill="#00008b" fill-rule="evenodd" fill-opacity="1" stroke="#000000" stroke-opacity="1" stroke-width="3.2"/>
<circle clip-path="url(#clip891)" cx="831.765" cy="660.044" r="14.4" fill="#00008b" fill-rule="evenodd" fill-opacity="1" stroke="#000000" stroke-opacity="1" stroke-width="3.2"/>
<circle clip-path="url(#clip891)" cx="831.765" cy="621.31" r="14.4" fill="#00008b" fill-rule="evenodd" fill-opacity="1" stroke="#000000" stroke-opacity="1" stroke-width="3.2"/>
<circle clip-path="url(#clip891)" cx="831.765" cy="582.459" r="14.4" fill="#00008b" fill-rule="evenodd" fill-opacity="1" stroke="#000000" stroke-opacity="1" stroke-width="3.2"/>
<circle clip-path="url(#clip891)" cx="831.765" cy="678.202" r="14.4" fill="#00008b" fill-rule="evenodd" fill-opacity="1" stroke="#000000" stroke-opacity="1" stroke-width="3.2"/>
<circle clip-path="url(#clip891)" cx="831.765" cy="665.394" r="14.4" fill="#00008b" fill-rule="evenodd" fill-opacity="1" stroke="#000000" stroke-opacity="1" stroke-width="3.2"/>
<circle clip-path="url(#clip891)" cx="831.765" cy="629.291" r="14.4" fill="#00008b" fill-rule="evenodd" fill-opacity="1" stroke="#000000" stroke-opacity="1" stroke-width="3.2"/>
<circle clip-path="url(#clip891)" cx="831.765" cy="652.432" r="14.4" fill="#00008b" fill-rule="evenodd" fill-opacity="1" stroke="#000000" stroke-opacity="1" stroke-width="3.2"/>
<circle clip-path="url(#clip891)" cx="831.765" cy="696.043" r="14.4" fill="#00008b" fill-rule="evenodd" fill-opacity="1" stroke="#000000" stroke-opacity="1" stroke-width="3.2"/>
<circle clip-path="url(#clip891)" cx="831.765" cy="684.372" r="14.4" fill="#00008b" fill-rule="evenodd" fill-opacity="1" stroke="#000000" stroke-opacity="1" stroke-width="3.2"/>
<circle clip-path="url(#clip891)" cx="831.765" cy="685.708" r="14.4" fill="#00008b" fill-rule="evenodd" fill-opacity="1" stroke="#000000" stroke-opacity="1" stroke-width="3.2"/>
<circle clip-path="url(#clip891)" cx="831.765" cy="687.931" r="14.4" fill="#00008b" fill-rule="evenodd" fill-opacity="1" stroke="#000000" stroke-opacity="1" stroke-width="3.2"/>
<circle clip-path="url(#clip891)" cx="831.765" cy="684.276" r="14.4" fill="#00008b" fill-rule="evenodd" fill-opacity="1" stroke="#000000" stroke-opacity="1" stroke-width="3.2"/>
<circle clip-path="url(#clip891)" cx="831.765" cy="698.703" r="14.4" fill="#00008b" fill-rule="evenodd" fill-opacity="1" stroke="#000000" stroke-opacity="1" stroke-width="3.2"/>
<circle clip-path="url(#clip891)" cx="1260.94" cy="770.992" r="14.4" fill="#00008b" fill-rule="evenodd" fill-opacity="1" stroke="#000000" stroke-opacity="1" stroke-width="3.2"/>
<circle clip-path="url(#clip891)" cx="1260.94" cy="733.074" r="14.4" fill="#00008b" fill-rule="evenodd" fill-opacity="1" stroke="#000000" stroke-opacity="1" stroke-width="3.2"/>
<circle clip-path="url(#clip891)" cx="1260.94" cy="772.798" r="14.4" fill="#00008b" fill-rule="evenodd" fill-opacity="1" stroke="#000000" stroke-opacity="1" stroke-width="3.2"/>
<circle clip-path="url(#clip891)" cx="1260.94" cy="765.679" r="14.4" fill="#00008b" fill-rule="evenodd" fill-opacity="1" stroke="#000000" stroke-opacity="1" stroke-width="3.2"/>
<circle clip-path="url(#clip891)" cx="1260.94" cy="771.188" r="14.4" fill="#00008b" fill-rule="evenodd" fill-opacity="1" stroke="#000000" stroke-opacity="1" stroke-width="3.2"/>
<circle clip-path="url(#clip891)" cx="1260.94" cy="735.887" r="14.4" fill="#00008b" fill-rule="evenodd" fill-opacity="1" stroke="#000000" stroke-opacity="1" stroke-width="3.2"/>
<circle clip-path="url(#clip891)" cx="1260.94" cy="780.563" r="14.4" fill="#00008b" fill-rule="evenodd" fill-opacity="1" stroke="#000000" stroke-opacity="1" stroke-width="3.2"/>
<circle clip-path="url(#clip891)" cx="1260.94" cy="764.208" r="14.4" fill="#00008b" fill-rule="evenodd" fill-opacity="1" stroke="#000000" stroke-opacity="1" stroke-width="3.2"/>
<circle clip-path="url(#clip891)" cx="1260.94" cy="771.66" r="14.4" fill="#00008b" fill-rule="evenodd" fill-opacity="1" stroke="#000000" stroke-opacity="1" stroke-width="3.2"/>
<circle clip-path="url(#clip891)" cx="1260.94" cy="722.406" r="14.4" fill="#00008b" fill-rule="evenodd" fill-opacity="1" stroke="#000000" stroke-opacity="1" stroke-width="3.2"/>
<circle clip-path="url(#clip891)" cx="1260.94" cy="779.756" r="14.4" fill="#00008b" fill-rule="evenodd" fill-opacity="1" stroke="#000000" stroke-opacity="1" stroke-width="3.2"/>
<circle clip-path="url(#clip891)" cx="1690.11" cy="772.216" r="14.4" fill="#00008b" fill-rule="evenodd" fill-opacity="1" stroke="#000000" stroke-opacity="1" stroke-width="3.2"/>
<circle clip-path="url(#clip891)" cx="1690.11" cy="809.235" r="14.4" fill="#00008b" fill-rule="evenodd" fill-opacity="1" stroke="#000000" stroke-opacity="1" stroke-width="3.2"/>
<circle clip-path="url(#clip891)" cx="1690.11" cy="825.204" r="14.4" fill="#00008b" fill-rule="evenodd" fill-opacity="1" stroke="#000000" stroke-opacity="1" stroke-width="3.2"/>
<circle clip-path="url(#clip891)" cx="1690.11" cy="824.569" r="14.4" fill="#00008b" fill-rule="evenodd" fill-opacity="1" stroke="#000000" stroke-opacity="1" stroke-width="3.2"/>
<circle clip-path="url(#clip891)" cx="1690.11" cy="790.413" r="14.4" fill="#00008b" fill-rule="evenodd" fill-opacity="1" stroke="#000000" stroke-opacity="1" stroke-width="3.2"/>
<circle clip-path="url(#clip891)" cx="1690.11" cy="804.875" r="14.4" fill="#00008b" fill-rule="evenodd" fill-opacity="1" stroke="#000000" stroke-opacity="1" stroke-width="3.2"/>
<circle clip-path="url(#clip891)" cx="1690.11" cy="826.893" r="14.4" fill="#00008b" fill-rule="evenodd" fill-opacity="1" stroke="#000000" stroke-opacity="1" stroke-width="3.2"/>
<circle clip-path="url(#clip891)" cx="1690.11" cy="809.297" r="14.4" fill="#00008b" fill-rule="evenodd" fill-opacity="1" stroke="#000000" stroke-opacity="1" stroke-width="3.2"/>
<circle clip-path="url(#clip891)" cx="2119.29" cy="851.318" r="14.4" fill="#00008b" fill-rule="evenodd" fill-opacity="1" stroke="#000000" stroke-opacity="1" stroke-width="3.2"/>
<circle clip-path="url(#clip891)" cx="2119.29" cy="858.117" r="14.4" fill="#00008b" fill-rule="evenodd" fill-opacity="1" stroke="#000000" stroke-opacity="1" stroke-width="3.2"/>
<circle clip-path="url(#clip891)" cx="2119.29" cy="860.684" r="14.4" fill="#00008b" fill-rule="evenodd" fill-opacity="1" stroke="#000000" stroke-opacity="1" stroke-width="3.2"/>
<circle clip-path="url(#clip891)" cx="2119.29" cy="860.841" r="14.4" fill="#00008b" fill-rule="evenodd" fill-opacity="1" stroke="#000000" stroke-opacity="1" stroke-width="3.2"/>
<polyline clip-path="url(#clip891)" style="stroke:#00008b; stroke-linecap:round; stroke-linejoin:round; stroke-width:0; stroke-opacity:1; fill:none" points="402.592,1445.72 316.757,1445.72 488.426,1445.72 402.592,1445.72 402.592,1137.8 "/>
<polyline clip-path="url(#clip891)" style="stroke:#00008b; stroke-linecap:round; stroke-linejoin:round; stroke-width:0; stroke-opacity:1; fill:none" points="574.261,1137.8 574.261,1005.68 230.922,1005.68 230.922,1137.8 574.261,1137.8 574.261,1005.68 "/>
<polyline clip-path="url(#clip891)" style="stroke:#00008b; stroke-linecap:round; stroke-linejoin:round; stroke-width:0; stroke-opacity:1; fill:none" points="574.261,846.55 230.922,846.55 230.922,1005.68 574.261,1005.68 574.261,846.55 402.592,846.55 "/>
<polyline clip-path="url(#clip891)" style="stroke:#00008b; stroke-linecap:round; stroke-linejoin:round; stroke-width:0; stroke-opacity:1; fill:none" points="402.592,413.299 316.757,413.299 488.426,413.299 402.592,413.299 402.592,846.55 "/>
<polyline clip-path="url(#clip891)" style="stroke:#00008b; stroke-linecap:round; stroke-linejoin:round; stroke-width:0; stroke-opacity:1; fill:none" points="831.765,1139.44 745.93,1139.44 917.6,1139.44 831.765,1139.44 831.765,979.362 "/>
<polyline clip-path="url(#clip891)" style="stroke:#00008b; stroke-linecap:round; stroke-linejoin:round; stroke-width:0; stroke-opacity:1; fill:none" points="1003.43,979.362 1003.43,928.433 660.096,928.433 660.096,979.362 1003.43,979.362 1003.43,928.433 "/>
<polyline clip-path="url(#clip891)" style="stroke:#00008b; stroke-linecap:round; stroke-linejoin:round; stroke-width:0; stroke-opacity:1; fill:none" points="1003.43,867.646 660.096,867.646 660.096,928.433 1003.43,928.433 1003.43,867.646 831.765,867.646 "/>
<polyline clip-path="url(#clip891)" style="stroke:#00008b; stroke-linecap:round; stroke-linejoin:round; stroke-width:0; stroke-opacity:1; fill:none" points="831.765,704.851 745.93,704.851 917.6,704.851 831.765,704.851 831.765,867.646 "/>
<polyline clip-path="url(#clip891)" style="stroke:#00008b; stroke-linecap:round; stroke-linejoin:round; stroke-width:0; stroke-opacity:1; fill:none" points="1260.94,1056.99 1175.1,1056.99 1346.77,1056.99 1260.94,1056.99 1260.94,955.207 "/>
<polyline clip-path="url(#clip891)" style="stroke:#00008b; stroke-linecap:round; stroke-linejoin:round; stroke-width:0; stroke-opacity:1; fill:none" points="1432.61,955.207 1432.61,924.089 1089.27,924.089 1089.27,955.207 1432.61,955.207 1432.61,924.089 "/>
<polyline clip-path="url(#clip891)" style="stroke:#00008b; stroke-linecap:round; stroke-linejoin:round; stroke-width:0; stroke-opacity:1; fill:none" points="1432.61,885.811 1089.27,885.811 1089.27,924.089 1432.61,924.089 1432.61,885.811 1260.94,885.811 "/>
<polyline clip-path="url(#clip891)" style="stroke:#00008b; stroke-linecap:round; stroke-linejoin:round; stroke-width:0; stroke-opacity:1; fill:none" points="1260.94,782.007 1175.1,782.007 1346.77,782.007 1260.94,782.007 1260.94,885.811 "/>
<polyline clip-path="url(#clip891)" style="stroke:#00008b; stroke-linecap:round; stroke-linejoin:round; stroke-width:0; stroke-opacity:1; fill:none" points="1690.11,1005.39 1604.28,1005.39 1775.95,1005.39 1690.11,1005.39 1690.11,942.388 "/>
<polyline clip-path="url(#clip891)" style="stroke:#00008b; stroke-linecap:round; stroke-linejoin:round; stroke-width:0; stroke-opacity:1; fill:none" points="1861.78,942.388 1861.78,919.968 1518.44,919.968 1518.44,942.388 1861.78,942.388 1861.78,919.968 "/>
<polyline clip-path="url(#clip891)" style="stroke:#00008b; stroke-linecap:round; stroke-linejoin:round; stroke-width:0; stroke-opacity:1; fill:none" points="1861.78,896.474 1518.44,896.474 1518.44,919.968 1861.78,919.968 1861.78,896.474 1690.11,896.474 "/>
<polyline clip-path="url(#clip891)" style="stroke:#00008b; stroke-linecap:round; stroke-linejoin:round; stroke-width:0; stroke-opacity:1; fill:none" points="1690.11,827.744 1604.28,827.744 1775.95,827.744 1690.11,827.744 1690.11,896.474 "/>
<polyline clip-path="url(#clip891)" style="stroke:#00008b; stroke-linecap:round; stroke-linejoin:round; stroke-width:0; stroke-opacity:1; fill:none" points="2119.29,968.829 2033.45,968.829 2205.12,968.829 2119.29,968.829 2119.29,934.548 "/>
<polyline clip-path="url(#clip891)" style="stroke:#00008b; stroke-linecap:round; stroke-linejoin:round; stroke-width:0; stroke-opacity:1; fill:none" points="2290.95,934.548 2290.95,919.655 1947.62,919.655 1947.62,934.548 2290.95,934.548 2290.95,919.655 "/>
<polyline clip-path="url(#clip891)" style="stroke:#00008b; stroke-linecap:round; stroke-linejoin:round; stroke-width:0; stroke-opacity:1; fill:none" points="2290.95,905.385 1947.62,905.385 1947.62,919.655 2290.95,919.655 2290.95,905.385 2119.29,905.385 "/>
<polyline clip-path="url(#clip891)" style="stroke:#00008b; stroke-linecap:round; stroke-linejoin:round; stroke-width:0; stroke-opacity:1; fill:none" points="2119.29,861.673 2033.45,861.673 2205.12,861.673 2119.29,861.673 2119.29,905.385 "/>
<polyline clip-path="url(#clip891)" style="stroke:#000000; stroke-linecap:round; stroke-linejoin:round; stroke-width:4; stroke-opacity:1; fill:none" stroke-dasharray="16, 10" points="-2014.51,919.661 4536.39,919.661 "/>
</svg>
