<?xml version="1.0" encoding="utf-8"?>
<svg xmlns="http://www.w3.org/2000/svg" xmlns:xlink="http://www.w3.org/1999/xlink" width="600" height="400" viewBox="0 0 2400 1600">
<defs>
  <clipPath id="clip900">
    <rect x="0" y="0" width="2400" height="1600"/>
  </clipPath>
</defs>
<path clip-path="url(#clip900)" d="M0 1600 L2400 1600 L2400 0 L0 0  Z" fill="#ffffff" fill-rule="evenodd" fill-opacity="1"/>
<defs>
  <clipPath id="clip901">
    <rect x="112" y="47" width="2242" height="1440"/>
  </clipPath>
</defs>
<path clip-path="url(#clip900)" d="M112.177 1486.45 L2352.76 1486.45 L2352.76 47.2441 L112.177 47.2441  Z" fill="#ffffff" fill-rule="evenodd" fill-opacity="1"/>
<polyline clip-path="url(#clip901)" style="stroke:#000000; stroke-linecap:round; stroke-linejoin:round; stroke-width:2; stroke-opacity:0.1; fill:none" points="351.736,1486.45 351.736,47.2441 "/>
<polyline clip-path="url(#clip901)" style="stroke:#000000; stroke-linecap:round; stroke-linejoin:round; stroke-width:2; stroke-opacity:0.1; fill:none" points="792.101,1486.45 792.101,47.2441 "/>
<polyline clip-path="url(#clip901)" style="stroke:#000000; stroke-linecap:round; stroke-linejoin:round; stroke-width:2; stroke-opacity:0.1; fill:none" points="1232.47,1486.45 1232.47,47.2441 "/>
<polyline clip-path="url(#clip901)" style="stroke:#000000; stroke-linecap:round; stroke-linejoin:round; stroke-width:2; stroke-opacity:0.1; fill:none" points="1672.83,1486.45 1672.83,47.2441 "/>
<polyline clip-path="url(#clip901)" style="stroke:#000000; stroke-linecap:round; stroke-linejoin:round; stroke-width:2; stroke-opacity:0.1; fill:none" points="2113.2,1486.45 2113.2,47.2441 "/>
<polyline clip-path="url(#clip901)" style="stroke:#000000; stroke-linecap:round; stroke-linejoin:round; stroke-width:2; stroke-opacity:0.1; fill:none" points="112.177,1461.57 2352.76,1461.57 "/>
<polyline clip-path="url(#clip901)" style="stroke:#000000; stroke-linecap:round; stroke-linejoin:round; stroke-width:2; stroke-opacity:0.1; fill:none" points="112.177,1141.79 2352.76,1141.79 "/>
<polyline clip-path="url(#clip901)" style="stroke:#000000; stroke-linecap:round; stroke-linejoin:round; stroke-width:2; stroke-opacity:0.1; fill:none" points="112.177,822.005 2352.76,822.005 "/>
<polyline clip-path="url(#clip901)" style="stroke:#000000; stroke-linecap:round; stroke-linejoin:round; stroke-width:2; stroke-opacity:0.1; fill:none" points="112.177,502.222 2352.76,502.222 "/>
<polyline clip-path="url(#clip901)" style="stroke:#000000; stroke-linecap:round; stroke-linejoin:round; stroke-width:2; stroke-opacity:0.1; fill:none" points="112.177,182.439 2352.76,182.439 "/>
<polyline clip-path="url(#clip900)" style="stroke:#000000; stroke-linecap:round; stroke-linejoin:round; stroke-width:4; stroke-opacity:1; fill:none" points="112.177,1486.45 2352.76,1486.45 "/>
<polyline clip-path="url(#clip900)" style="stroke:#000000; stroke-linecap:round; stroke-linejoin:round; stroke-width:4; stroke-opacity:1; fill:none" points="351.736,1486.45 351.736,1467.55 "/>
<polyline clip-path="url(#clip900)" style="stroke:#000000; stroke-linecap:round; stroke-linejoin:round; stroke-width:4; stroke-opacity:1; fill:none" points="792.101,1486.45 792.101,1467.55 "/>
<polyline clip-path="url(#clip900)" style="stroke:#000000; stroke-linecap:round; stroke-linejoin:round; stroke-width:4; stroke-opacity:1; fill:none" points="1232.47,1486.45 1232.47,1467.55 "/>
<polyline clip-path="url(#clip900)" style="stroke:#000000; stroke-linecap:round; stroke-linejoin:round; stroke-width:4; stroke-opacity:1; fill:none" points="1672.83,1486.45 1672.83,1467.55 "/>
<polyline clip-path="url(#clip900)" style="stroke:#000000; stroke-linecap:round; stroke-linejoin:round; stroke-width:4; stroke-opacity:1; fill:none" points="2113.2,1486.45 2113.2,1467.55 "/>
<path clip-path="url(#clip900)" d="M326.424 1544.91 L334.062 1544.91 L334.062 1518.55 L325.752 1520.21 L325.752 1515.95 L334.016 1514.29 L338.692 1514.29 L338.692 1544.91 L346.331 1544.91 L346.331 1548.85 L326.424 1548.85 L326.424 1544.91 Z" fill="#000000" fill-rule="nonzero" fill-opacity="1" /><path clip-path="url(#clip900)" d="M365.775 1517.37 Q362.164 1517.37 360.335 1520.93 Q358.53 1524.47 358.53 1531.6 Q358.53 1538.71 360.335 1542.27 Q362.164 1545.82 365.775 1545.82 Q369.409 1545.82 371.215 1542.27 Q373.044 1538.71 373.044 1531.6 Q373.044 1524.47 371.215 1520.93 Q369.409 1517.37 365.775 1517.37 M365.775 1513.66 Q371.585 1513.66 374.641 1518.27 Q377.72 1522.85 377.72 1531.6 Q377.72 1540.33 374.641 1544.94 Q371.585 1549.52 365.775 1549.52 Q359.965 1549.52 356.886 1544.94 Q353.831 1540.33 353.831 1531.6 Q353.831 1522.85 356.886 1518.27 Q359.965 1513.66 365.775 1513.66 Z" fill="#000000" fill-rule="nonzero" fill-opacity="1" /><path clip-path="url(#clip900)" d="M766.8 1514.29 L785.157 1514.29 L785.157 1518.22 L771.083 1518.22 L771.083 1526.7 Q772.101 1526.35 773.12 1526.19 Q774.138 1526 775.157 1526 Q780.944 1526 784.323 1529.17 Q787.703 1532.34 787.703 1537.76 Q787.703 1543.34 784.231 1546.44 Q780.759 1549.52 774.439 1549.52 Q772.263 1549.52 769.995 1549.15 Q767.75 1548.78 765.342 1548.04 L765.342 1543.34 Q767.425 1544.47 769.648 1545.03 Q771.87 1545.58 774.347 1545.58 Q778.351 1545.58 780.689 1543.48 Q783.027 1541.37 783.027 1537.76 Q783.027 1534.15 780.689 1532.04 Q778.351 1529.94 774.347 1529.94 Q772.472 1529.94 770.597 1530.35 Q768.745 1530.77 766.8 1531.65 L766.8 1514.29 Z" fill="#000000" fill-rule="nonzero" fill-opacity="1" /><path clip-path="url(#clip900)" d="M806.916 1517.37 Q803.305 1517.37 801.476 1520.93 Q799.671 1524.47 799.671 1531.6 Q799.671 1538.71 801.476 1542.27 Q803.305 1545.82 806.916 1545.82 Q810.55 1545.82 812.356 1542.27 Q814.184 1538.71 814.184 1531.6 Q814.184 1524.47 812.356 1520.93 Q810.55 1517.37 806.916 1517.37 M806.916 1513.66 Q812.726 1513.66 815.782 1518.27 Q818.86 1522.85 818.86 1531.6 Q818.86 1540.33 815.782 1544.94 Q812.726 1549.52 806.916 1549.52 Q801.106 1549.52 798.027 1544.94 Q794.972 1540.33 794.972 1531.6 Q794.972 1522.85 798.027 1518.27 Q801.106 1513.66 806.916 1513.66 Z" fill="#000000" fill-rule="nonzero" fill-opacity="1" /><path clip-path="url(#clip900)" d="M1192.07 1544.91 L1199.71 1544.91 L1199.71 1518.55 L1191.4 1520.21 L1191.4 1515.95 L1199.67 1514.29 L1204.34 1514.29 L1204.34 1544.91 L1211.98 1544.91 L1211.98 1548.85 L1192.07 1548.85 L1192.07 1544.91 Z" fill="#000000" fill-rule="nonzero" fill-opacity="1" /><path clip-path="url(#clip900)" d="M1231.42 1517.37 Q1227.81 1517.37 1225.99 1520.93 Q1224.18 1524.47 1224.18 1531.6 Q1224.18 1538.71 1225.99 1542.27 Q1227.81 1545.82 1231.42 1545.82 Q1235.06 1545.82 1236.86 1542.27 Q1238.69 1538.71 1238.69 1531.6 Q1238.69 1524.47 1236.86 1520.93 Q1235.06 1517.37 1231.42 1517.37 M1231.42 1513.66 Q1237.24 1513.66 1240.29 1518.27 Q1243.37 1522.85 1243.37 1531.6 Q1243.37 1540.33 1240.29 1544.94 Q1237.24 1549.52 1231.42 1549.52 Q1225.61 1549.52 1222.54 1544.94 Q1219.48 1540.33 1219.48 1531.6 Q1219.48 1522.85 1222.54 1518.27 Q1225.61 1513.66 1231.42 1513.66 Z" fill="#000000" fill-rule="nonzero" fill-opacity="1" /><path clip-path="url(#clip900)" d="M1261.59 1517.37 Q1257.98 1517.37 1256.15 1520.93 Q1254.34 1524.47 1254.34 1531.6 Q1254.34 1538.71 1256.15 1542.27 Q1257.98 1545.82 1261.59 1545.82 Q1265.22 1545.82 1267.03 1542.27 Q1268.86 1538.71 1268.86 1531.6 Q1268.86 1524.47 1267.03 1520.93 Q1265.22 1517.37 1261.59 1517.37 M1261.59 1513.66 Q1267.4 1513.66 1270.45 1518.27 Q1273.53 1522.85 1273.53 1531.6 Q1273.53 1540.33 1270.45 1544.94 Q1267.4 1549.52 1261.59 1549.52 Q1255.78 1549.52 1252.7 1544.94 Q1249.64 1540.33 1249.64 1531.6 Q1249.64 1522.85 1252.7 1518.27 Q1255.78 1513.66 1261.59 1513.66 Z" fill="#000000" fill-rule="nonzero" fill-opacity="1" /><path clip-path="url(#clip900)" d="M1636.52 1544.91 L1652.84 1544.91 L1652.84 1548.85 L1630.9 1548.85 L1630.9 1544.91 Q1633.56 1542.16 1638.14 1537.53 Q1642.75 1532.88 1643.93 1531.53 Q1646.18 1529.01 1647.06 1527.27 Q1647.96 1525.51 1647.96 1523.82 Q1647.96 1521.07 1646.01 1519.33 Q1644.09 1517.6 1640.99 1517.6 Q1638.79 1517.6 1636.34 1518.36 Q1633.91 1519.13 1631.13 1520.68 L1631.13 1515.95 Q1633.95 1514.82 1636.41 1514.24 Q1638.86 1513.66 1640.9 1513.66 Q1646.27 1513.66 1649.46 1516.35 Q1652.66 1519.03 1652.66 1523.52 Q1652.66 1525.65 1651.85 1527.57 Q1651.06 1529.47 1648.95 1532.07 Q1648.38 1532.74 1645.27 1535.95 Q1642.17 1539.15 1636.52 1544.91 Z" fill="#000000" fill-rule="nonzero" fill-opacity="1" /><path clip-path="url(#clip900)" d="M1672.66 1517.37 Q1669.05 1517.37 1667.22 1520.93 Q1665.41 1524.47 1665.41 1531.6 Q1665.41 1538.71 1667.22 1542.27 Q1669.05 1545.82 1672.66 1545.82 Q1676.29 1545.82 1678.1 1542.27 Q1679.93 1538.71 1679.93 1531.6 Q1679.93 1524.47 1678.1 1520.93 Q1676.29 1517.37 1672.66 1517.37 M1672.66 1513.66 Q1678.47 1513.66 1681.52 1518.27 Q1684.6 1522.85 1684.6 1531.6 Q1684.6 1540.33 1681.52 1544.94 Q1678.47 1549.52 1672.66 1549.52 Q1666.85 1549.52 1663.77 1544.94 Q1660.71 1540.33 1660.71 1531.6 Q1660.71 1522.85 1663.77 1518.27 Q1666.85 1513.66 1672.66 1513.66 Z" fill="#000000" fill-rule="nonzero" fill-opacity="1" /><path clip-path="url(#clip900)" d="M1702.82 1517.37 Q1699.21 1517.37 1697.38 1520.93 Q1695.57 1524.47 1695.57 1531.6 Q1695.57 1538.71 1697.38 1542.27 Q1699.21 1545.82 1702.82 1545.82 Q1706.45 1545.82 1708.26 1542.27 Q1710.09 1538.71 1710.09 1531.6 Q1710.09 1524.47 1708.26 1520.93 Q1706.45 1517.37 1702.82 1517.37 M1702.82 1513.66 Q1708.63 1513.66 1711.69 1518.27 Q1714.76 1522.85 1714.76 1531.6 Q1714.76 1540.33 1711.69 1544.94 Q1708.63 1549.52 1702.82 1549.52 Q1697.01 1549.52 1693.93 1544.94 Q1690.88 1540.33 1690.88 1531.6 Q1690.88 1522.85 1693.93 1518.27 Q1697.01 1513.66 1702.82 1513.66 Z" fill="#000000" fill-rule="nonzero" fill-opacity="1" /><path clip-path="url(#clip900)" d="M2072.82 1514.29 L2091.17 1514.29 L2091.17 1518.22 L2077.1 1518.22 L2077.1 1526.7 Q2078.12 1526.35 2079.13 1526.19 Q2080.15 1526 2081.17 1526 Q2086.96 1526 2090.34 1529.17 Q2093.72 1532.34 2093.72 1537.76 Q2093.72 1543.34 2090.25 1546.44 Q2086.77 1549.52 2080.45 1549.52 Q2078.28 1549.52 2076.01 1549.15 Q2073.76 1548.78 2071.36 1548.04 L2071.36 1543.34 Q2073.44 1544.47 2075.66 1545.03 Q2077.88 1545.58 2080.36 1545.58 Q2084.37 1545.58 2086.7 1543.48 Q2089.04 1541.37 2089.04 1537.76 Q2089.04 1534.15 2086.7 1532.04 Q2084.37 1529.94 2080.36 1529.94 Q2078.49 1529.94 2076.61 1530.35 Q2074.76 1530.77 2072.82 1531.65 L2072.82 1514.29 Z" fill="#000000" fill-rule="nonzero" fill-opacity="1" /><path clip-path="url(#clip900)" d="M2112.93 1517.37 Q2109.32 1517.37 2107.49 1520.93 Q2105.69 1524.47 2105.69 1531.6 Q2105.69 1538.71 2107.49 1542.27 Q2109.32 1545.82 2112.93 1545.82 Q2116.57 1545.82 2118.37 1542.27 Q2120.2 1538.71 2120.2 1531.6 Q2120.2 1524.47 2118.37 1520.93 Q2116.57 1517.37 2112.93 1517.37 M2112.93 1513.66 Q2118.74 1513.66 2121.8 1518.27 Q2124.88 1522.85 2124.88 1531.6 Q2124.88 1540.33 2121.8 1544.94 Q2118.74 1549.52 2112.93 1549.52 Q2107.12 1549.52 2104.04 1544.94 Q2100.99 1540.33 2100.99 1531.6 Q2100.99 1522.85 2104.04 1518.27 Q2107.12 1513.66 2112.93 1513.66 Z" fill="#000000" fill-rule="nonzero" fill-opacity="1" /><path clip-path="url(#clip900)" d="M2143.09 1517.37 Q2139.48 1517.37 2137.65 1520.93 Q2135.85 1524.47 2135.85 1531.6 Q2135.85 1538.71 2137.65 1542.27 Q2139.48 1545.82 2143.09 1545.82 Q2146.73 1545.82 2148.53 1542.27 Q2150.36 1538.71 2150.36 1531.6 Q2150.36 1524.47 2148.53 1520.93 Q2146.73 1517.37 2143.09 1517.37 M2143.09 1513.66 Q2148.9 1513.66 2151.96 1518.27 Q2155.04 1522.85 2155.04 1531.6 Q2155.04 1540.33 2151.96 1544.94 Q2148.9 1549.52 2143.09 1549.52 Q2137.28 1549.52 2134.2 1544.94 Q2131.15 1540.33 2131.15 1531.6 Q2131.15 1522.85 2134.2 1518.27 Q2137.28 1513.66 2143.09 1513.66 Z" fill="#000000" fill-rule="nonzero" fill-opacity="1" /><polyline clip-path="url(#clip900)" style="stroke:#000000; stroke-linecap:round; stroke-linejoin:round; stroke-width:4; stroke-opacity:1; fill:none" points="112.177,1486.45 112.177,47.2441 "/>
<polyline clip-path="url(#clip900)" style="stroke:#000000; stroke-linecap:round; stroke-linejoin:round; stroke-width:4; stroke-opacity:1; fill:none" points="112.177,1461.57 131.075,1461.57 "/>
<polyline clip-path="url(#clip900)" style="stroke:#000000; stroke-linecap:round; stroke-linejoin:round; stroke-width:4; stroke-opacity:1; fill:none" points="112.177,1141.79 131.075,1141.79 "/>
<polyline clip-path="url(#clip900)" style="stroke:#000000; stroke-linecap:round; stroke-linejoin:round; stroke-width:4; stroke-opacity:1; fill:none" points="112.177,822.005 131.075,822.005 "/>
<polyline clip-path="url(#clip900)" style="stroke:#000000; stroke-linecap:round; stroke-linejoin:round; stroke-width:4; stroke-opacity:1; fill:none" points="112.177,502.222 131.075,502.222 "/>
<polyline clip-path="url(#clip900)" style="stroke:#000000; stroke-linecap:round; stroke-linejoin:round; stroke-width:4; stroke-opacity:1; fill:none" points="112.177,182.439 131.075,182.439 "/>
<path clip-path="url(#clip900)" d="M64.2328 1447.37 Q60.6217 1447.37 58.793 1450.93 Q56.9875 1454.48 56.9875 1461.61 Q56.9875 1468.71 58.793 1472.28 Q60.6217 1475.82 64.2328 1475.82 Q67.867 1475.82 69.6726 1472.28 Q71.5013 1468.71 71.5013 1461.61 Q71.5013 1454.48 69.6726 1450.93 Q67.867 1447.37 64.2328 1447.37 M64.2328 1443.67 Q70.0429 1443.67 73.0985 1448.27 Q76.1772 1452.86 76.1772 1461.61 Q76.1772 1470.33 73.0985 1474.94 Q70.0429 1479.52 64.2328 1479.52 Q58.4226 1479.52 55.344 1474.94 Q52.2884 1470.33 52.2884 1461.61 Q52.2884 1452.86 55.344 1448.27 Q58.4226 1443.67 64.2328 1443.67 Z" fill="#000000" fill-rule="nonzero" fill-opacity="1" /><path clip-path="url(#clip900)" d="M59.8578 1155.13 L76.1772 1155.13 L76.1772 1159.07 L54.2328 1159.07 L54.2328 1155.13 Q56.8949 1152.38 61.4782 1147.75 Q66.0846 1143.1 67.2652 1141.75 Q69.5105 1139.23 70.3902 1137.49 Q71.2929 1135.73 71.2929 1134.04 Q71.2929 1131.29 69.3485 1129.55 Q67.4272 1127.82 64.3254 1127.82 Q62.1263 1127.82 59.6726 1128.58 Q57.2421 1129.35 54.4643 1130.9 L54.4643 1126.17 Q57.2884 1125.04 59.7421 1124.46 Q62.1958 1123.88 64.2328 1123.88 Q69.6031 1123.88 72.7976 1126.57 Q75.992 1129.25 75.992 1133.74 Q75.992 1135.87 75.1818 1137.79 Q74.3948 1139.69 72.2883 1142.29 Q71.7096 1142.96 68.6078 1146.17 Q65.5059 1149.37 59.8578 1155.13 Z" fill="#000000" fill-rule="nonzero" fill-opacity="1" /><path clip-path="url(#clip900)" d="M66.5939 808.799 L54.7884 827.248 L66.5939 827.248 L66.5939 808.799 M65.367 804.725 L71.2466 804.725 L71.2466 827.248 L76.1772 827.248 L76.1772 831.137 L71.2466 831.137 L71.2466 839.285 L66.5939 839.285 L66.5939 831.137 L50.9921 831.137 L50.9921 826.623 L65.367 804.725 Z" fill="#000000" fill-rule="nonzero" fill-opacity="1" /><path clip-path="url(#clip900)" d="M64.6495 500.358 Q61.5013 500.358 59.6495 502.511 Q57.8208 504.664 57.8208 508.414 Q57.8208 512.141 59.6495 514.317 Q61.5013 516.469 64.6495 516.469 Q67.7976 516.469 69.6263 514.317 Q71.4781 512.141 71.4781 508.414 Q71.4781 504.664 69.6263 502.511 Q67.7976 500.358 64.6495 500.358 M73.9318 485.706 L73.9318 489.965 Q72.1726 489.132 70.367 488.692 Q68.5846 488.252 66.8254 488.252 Q62.1958 488.252 59.7421 491.377 Q57.3115 494.502 56.9643 500.821 Q58.33 498.807 60.3902 497.743 Q62.4504 496.655 64.9272 496.655 Q70.1355 496.655 73.1448 499.826 Q76.1772 502.974 76.1772 508.414 Q76.1772 513.738 73.029 516.956 Q69.8809 520.173 64.6495 520.173 Q58.6541 520.173 55.4828 515.59 Q52.3116 510.983 52.3116 502.257 Q52.3116 494.062 56.2004 489.201 Q60.0893 484.317 66.6402 484.317 Q68.3994 484.317 70.1818 484.664 Q71.9874 485.011 73.9318 485.706 Z" fill="#000000" fill-rule="nonzero" fill-opacity="1" /><path clip-path="url(#clip900)" d="M64.3254 183.307 Q60.9921 183.307 59.0708 185.089 Q57.1726 186.872 57.1726 189.997 Q57.1726 193.122 59.0708 194.904 Q60.9921 196.686 64.3254 196.686 Q67.6587 196.686 69.58 194.904 Q71.5013 193.098 71.5013 189.997 Q71.5013 186.872 69.58 185.089 Q67.6819 183.307 64.3254 183.307 M59.6495 181.316 Q56.6402 180.575 54.9504 178.515 Q53.2838 176.455 53.2838 173.492 Q53.2838 169.349 56.2236 166.941 Q59.1865 164.534 64.3254 164.534 Q69.4874 164.534 72.4272 166.941 Q75.367 169.349 75.367 173.492 Q75.367 176.455 73.6772 178.515 Q72.0105 180.575 69.0244 181.316 Q72.404 182.103 74.279 184.395 Q76.1772 186.686 76.1772 189.997 Q76.1772 195.02 73.0985 197.705 Q70.0429 200.39 64.3254 200.39 Q58.6078 200.39 55.5291 197.705 Q52.4736 195.02 52.4736 189.997 Q52.4736 186.686 54.3717 184.395 Q56.2699 182.103 59.6495 181.316 M57.9365 173.932 Q57.9365 176.617 59.6032 178.122 Q61.293 179.626 64.3254 179.626 Q67.3346 179.626 69.0244 178.122 Q70.7374 176.617 70.7374 173.932 Q70.7374 171.247 69.0244 169.742 Q67.3346 168.237 64.3254 168.237 Q61.293 168.237 59.6032 169.742 Q57.9365 171.247 57.9365 173.932 Z" fill="#000000" fill-rule="nonzero" fill-opacity="1" /><path clip-path="url(#clip901)" d="M351.736 392.475 L263.663 392.475 L439.809 392.475 L351.736 392.475 L351.736 290.661 L351.736 392.475  Z" fill="#00008b" fill-rule="evenodd" fill-opacity="1"/>
<polyline clip-path="url(#clip901)" style="stroke:#000000; stroke-linecap:round; stroke-linejoin:round; stroke-width:4; stroke-opacity:1; fill:none" points="351.736,392.475 263.663,392.475 439.809,392.475 351.736,392.475 351.736,290.661 351.736,392.475 "/>
<path clip-path="url(#clip901)" d="M527.882 290.661 L527.882 254.576 L175.59 254.576 L175.59 290.661 L527.882 290.661 L527.882 254.576 L527.882 290.661  Z" fill="#00008b" fill-rule="evenodd" fill-opacity="1"/>
<polyline clip-path="url(#clip901)" style="stroke:#000000; stroke-linecap:round; stroke-linejoin:round; stroke-width:4; stroke-opacity:1; fill:none" points="527.882,290.661 527.882,254.576 175.59,254.576 175.59,290.661 527.882,290.661 527.882,254.576 527.882,290.661 "/>
<path clip-path="url(#clip901)" d="M527.882 221.653 L175.59 221.653 L175.59 254.576 L527.882 254.576 L527.882 221.653 L351.736 221.653 L527.882 221.653  Z" fill="#00008b" fill-rule="evenodd" fill-opacity="1"/>
<polyline clip-path="url(#clip901)" style="stroke:#000000; stroke-linecap:round; stroke-linejoin:round; stroke-width:4; stroke-opacity:1; fill:none" points="527.882,221.653 175.59,221.653 175.59,254.576 527.882,254.576 527.882,221.653 351.736,221.653 527.882,221.653 "/>
<path clip-path="url(#clip901)" d="M351.736 119.927 L263.663 119.927 L439.809 119.927 L351.736 119.927 L351.736 221.653 L351.736 119.927  Z" fill="#00008b" fill-rule="evenodd" fill-opacity="1"/>
<polyline clip-path="url(#clip901)" style="stroke:#000000; stroke-linecap:round; stroke-linejoin:round; stroke-width:4; stroke-opacity:1; fill:none" points="351.736,119.927 263.663,119.927 439.809,119.927 351.736,119.927 351.736,221.653 351.736,119.927 "/>
<path clip-path="url(#clip901)" d="M792.101 1295.14 L704.028 1295.14 L880.174 1295.14 L792.101 1295.14 L792.101 1279.01 L792.101 1295.14  Z" fill="#00008b" fill-rule="evenodd" fill-opacity="1"/>
<polyline clip-path="url(#clip901)" style="stroke:#000000; stroke-linecap:round; stroke-linejoin:round; stroke-width:4; stroke-opacity:1; fill:none" points="792.101,1295.14 704.028,1295.14 880.174,1295.14 792.101,1295.14 792.101,1279.01 792.101,1295.14 "/>
<path clip-path="url(#clip901)" d="M968.247 1279.01 L968.247 1273.7 L615.955 1273.7 L615.955 1279.01 L968.247 1279.01 L968.247 1273.7 L968.247 1279.01  Z" fill="#00008b" fill-rule="evenodd" fill-opacity="1"/>
<polyline clip-path="url(#clip901)" style="stroke:#000000; stroke-linecap:round; stroke-linejoin:round; stroke-width:4; stroke-opacity:1; fill:none" points="968.247,1279.01 968.247,1273.7 615.955,1273.7 615.955,1279.01 968.247,1279.01 968.247,1273.7 968.247,1279.01 "/>
<path clip-path="url(#clip901)" d="M968.247 1267.47 L615.955 1267.47 L615.955 1273.7 L968.247 1273.7 L968.247 1267.47 L792.101 1267.47 L968.247 1267.47  Z" fill="#00008b" fill-rule="evenodd" fill-opacity="1"/>
<polyline clip-path="url(#clip901)" style="stroke:#000000; stroke-linecap:round; stroke-linejoin:round; stroke-width:4; stroke-opacity:1; fill:none" points="968.247,1267.47 615.955,1267.47 615.955,1273.7 968.247,1273.7 968.247,1267.47 792.101,1267.47 968.247,1267.47 "/>
<path clip-path="url(#clip901)" d="M792.101 1252.74 L704.028 1252.74 L880.174 1252.74 L792.101 1252.74 L792.101 1267.47 L792.101 1252.74  Z" fill="#00008b" fill-rule="evenodd" fill-opacity="1"/>
<polyline clip-path="url(#clip901)" style="stroke:#000000; stroke-linecap:round; stroke-linejoin:round; stroke-width:4; stroke-opacity:1; fill:none" points="792.101,1252.74 704.028,1252.74 880.174,1252.74 792.101,1252.74 792.101,1267.47 792.101,1252.74 "/>
<path clip-path="url(#clip901)" d="M1232.47 1379.96 L1144.39 1379.96 L1320.54 1379.96 L1232.47 1379.96 L1232.47 1373.32 L1232.47 1379.96  Z" fill="#00008b" fill-rule="evenodd" fill-opacity="1"/>
<polyline clip-path="url(#clip901)" style="stroke:#000000; stroke-linecap:round; stroke-linejoin:round; stroke-width:4; stroke-opacity:1; fill:none" points="1232.47,1379.96 1144.39,1379.96 1320.54,1379.96 1232.47,1379.96 1232.47,1373.32 1232.47,1379.96 "/>
<path clip-path="url(#clip901)" d="M1408.61 1373.32 L1408.61 1370.92 L1056.32 1370.92 L1056.32 1373.32 L1408.61 1373.32 L1408.61 1370.92 L1408.61 1373.32  Z" fill="#00008b" fill-rule="evenodd" fill-opacity="1"/>
<polyline clip-path="url(#clip901)" style="stroke:#000000; stroke-linecap:round; stroke-linejoin:round; stroke-width:4; stroke-opacity:1; fill:none" points="1408.61,1373.32 1408.61,1370.92 1056.32,1370.92 1056.32,1373.32 1408.61,1373.32 1408.61,1370.92 1408.61,1373.32 "/>
<path clip-path="url(#clip901)" d="M1408.61 1368.39 L1056.32 1368.39 L1056.32 1370.92 L1408.61 1370.92 L1408.61 1368.39 L1232.47 1368.39 L1408.61 1368.39  Z" fill="#00008b" fill-rule="evenodd" fill-opacity="1"/>
<polyline clip-path="url(#clip901)" style="stroke:#000000; stroke-linecap:round; stroke-linejoin:round; stroke-width:4; stroke-opacity:1; fill:none" points="1408.61,1368.39 1056.32,1368.39 1056.32,1370.92 1408.61,1370.92 1408.61,1368.39 1232.47,1368.39 1408.61,1368.39 "/>
<path clip-path="url(#clip901)" d="M1232.47 1361.29 L1144.39 1361.29 L1320.54 1361.29 L1232.47 1361.29 L1232.47 1368.39 L1232.47 1361.29  Z" fill="#00008b" fill-rule="evenodd" fill-opacity="1"/>
<polyline clip-path="url(#clip901)" style="stroke:#000000; stroke-linecap:round; stroke-linejoin:round; stroke-width:4; stroke-opacity:1; fill:none" points="1232.47,1361.29 1144.39,1361.29 1320.54,1361.29 1232.47,1361.29 1232.47,1368.39 1232.47,1361.29 "/>
<path clip-path="url(#clip901)" d="M1672.83 1421.42 L1584.76 1421.42 L1760.9 1421.42 L1672.83 1421.42 L1672.83 1418.13 L1672.83 1421.42  Z" fill="#00008b" fill-rule="evenodd" fill-opacity="1"/>
<polyline clip-path="url(#clip901)" style="stroke:#000000; stroke-linecap:round; stroke-linejoin:round; stroke-width:4; stroke-opacity:1; fill:none" points="1672.83,1421.42 1584.76,1421.42 1760.9,1421.42 1672.83,1421.42 1672.83,1418.13 1672.83,1421.42 "/>
<path clip-path="url(#clip901)" d="M1848.98 1418.13 L1848.98 1416.99 L1496.69 1416.99 L1496.69 1418.13 L1848.98 1418.13 L1848.98 1416.99 L1848.98 1418.13  Z" fill="#00008b" fill-rule="evenodd" fill-opacity="1"/>
<polyline clip-path="url(#clip901)" style="stroke:#000000; stroke-linecap:round; stroke-linejoin:round; stroke-width:4; stroke-opacity:1; fill:none" points="1848.98,1418.13 1848.98,1416.99 1496.69,1416.99 1496.69,1418.13 1848.98,1418.13 1848.98,1416.99 1848.98,1418.13 "/>
<path clip-path="url(#clip901)" d="M1848.98 1415.84 L1496.69 1415.84 L1496.69 1416.99 L1848.98 1416.99 L1848.98 1415.84 L1672.83 1415.84 L1848.98 1415.84  Z" fill="#00008b" fill-rule="evenodd" fill-opacity="1"/>
<polyline clip-path="url(#clip901)" style="stroke:#000000; stroke-linecap:round; stroke-linejoin:round; stroke-width:4; stroke-opacity:1; fill:none" points="1848.98,1415.84 1496.69,1415.84 1496.69,1416.99 1848.98,1416.99 1848.98,1415.84 1672.83,1415.84 1848.98,1415.84 "/>
<path clip-path="url(#clip901)" d="M1672.83 1412.48 L1584.76 1412.48 L1760.9 1412.48 L1672.83 1412.48 L1672.83 1415.84 L1672.83 1412.48  Z" fill="#00008b" fill-rule="evenodd" fill-opacity="1"/>
<polyline clip-path="url(#clip901)" style="stroke:#000000; stroke-linecap:round; stroke-linejoin:round; stroke-width:4; stroke-opacity:1; fill:none" points="1672.83,1412.48 1584.76,1412.48 1760.9,1412.48 1672.83,1412.48 1672.83,1415.84 1672.83,1412.48 "/>
<path clip-path="url(#clip901)" d="M2113.2 1445.72 L2025.12 1445.72 L2201.27 1445.72 L2113.2 1445.72 L2113.2 1444.38 L2113.2 1445.72  Z" fill="#00008b" fill-rule="evenodd" fill-opacity="1"/>
<polyline clip-path="url(#clip901)" style="stroke:#000000; stroke-linecap:round; stroke-linejoin:round; stroke-width:4; stroke-opacity:1; fill:none" points="2113.2,1445.72 2025.12,1445.72 2201.27,1445.72 2113.2,1445.72 2113.2,1444.38 2113.2,1445.72 "/>
<path clip-path="url(#clip901)" d="M2289.34 1444.38 L2289.34 1443.91 L1937.05 1443.91 L1937.05 1444.38 L2289.34 1444.38 L2289.34 1443.91 L2289.34 1444.38  Z" fill="#00008b" fill-rule="evenodd" fill-opacity="1"/>
<polyline clip-path="url(#clip901)" style="stroke:#000000; stroke-linecap:round; stroke-linejoin:round; stroke-width:4; stroke-opacity:1; fill:none" points="2289.34,1444.38 2289.34,1443.91 1937.05,1443.91 1937.05,1444.38 2289.34,1444.38 2289.34,1443.91 2289.34,1444.38 "/>
<path clip-path="url(#clip901)" d="M2289.34 1443.47 L1937.05 1443.47 L1937.05 1443.91 L2289.34 1443.91 L2289.34 1443.47 L2113.2 1443.47 L2289.34 1443.47  Z" fill="#00008b" fill-rule="evenodd" fill-opacity="1"/>
<polyline clip-path="url(#clip901)" style="stroke:#000000; stroke-linecap:round; stroke-linejoin:round; stroke-width:4; stroke-opacity:1; fill:none" points="2289.34,1443.47 1937.05,1443.47 1937.05,1443.91 2289.34,1443.91 2289.34,1443.47 2113.2,1443.47 2289.34,1443.47 "/>
<path clip-path="url(#clip901)" d="M2113.2 1442.22 L2025.12 1442.22 L2201.27 1442.22 L2113.2 1442.22 L2113.2 1443.47 L2113.2 1442.22  Z" fill="#00008b" fill-rule="evenodd" fill-opacity="1"/>
<polyline clip-path="url(#clip901)" style="stroke:#000000; stroke-linecap:round; stroke-linejoin:round; stroke-width:4; stroke-opacity:1; fill:none" points="2113.2,1442.22 2025.12,1442.22 2201.27,1442.22 2113.2,1442.22 2113.2,1443.47 2113.2,1442.22 "/>
<circle clip-path="url(#clip901)" cx="351.736" cy="595.999" r="14.4" fill="#00008b" fill-rule="evenodd" fill-opacity="1" stroke="#000000" stroke-opacity="1" stroke-width="3.2"/>
<circle clip-path="url(#clip901)" cx="351.736" cy="425" r="14.4" fill="#00008b" fill-rule="evenodd" fill-opacity="1" stroke="#000000" stroke-opacity="1" stroke-width="3.2"/>
<circle clip-path="url(#clip901)" cx="351.736" cy="576.826" r="14.4" fill="#00008b" fill-rule="evenodd" fill-opacity="1" stroke="#000000" stroke-opacity="1" stroke-width="3.2"/>
<circle clip-path="url(#clip901)" cx="351.736" cy="99.0997" r="14.4" fill="#00008b" fill-rule="evenodd" fill-opacity="1" stroke="#000000" stroke-opacity="1" stroke-width="3.2"/>
<circle clip-path="url(#clip901)" cx="351.736" cy="509.981" r="14.4" fill="#00008b" fill-rule="evenodd" fill-opacity="1" stroke="#000000" stroke-opacity="1" stroke-width="3.2"/>
<circle clip-path="url(#clip901)" cx="351.736" cy="444.737" r="14.4" fill="#00008b" fill-rule="evenodd" fill-opacity="1" stroke="#000000" stroke-opacity="1" stroke-width="3.2"/>
<circle clip-path="url(#clip901)" cx="351.736" cy="434.091" r="14.4" fill="#00008b" fill-rule="evenodd" fill-opacity="1" stroke="#000000" stroke-opacity="1" stroke-width="3.2"/>
<circle clip-path="url(#clip901)" cx="351.736" cy="94.0705" r="14.4" fill="#00008b" fill-rule="evenodd" fill-opacity="1" stroke="#000000" stroke-opacity="1" stroke-width="3.2"/>
<circle clip-path="url(#clip901)" cx="351.736" cy="483.785" r="14.4" fill="#00008b" fill-rule="evenodd" fill-opacity="1" stroke="#000000" stroke-opacity="1" stroke-width="3.2"/>
<circle clip-path="url(#clip901)" cx="351.736" cy="595.039" r="14.4" fill="#00008b" fill-rule="evenodd" fill-opacity="1" stroke="#000000" stroke-opacity="1" stroke-width="3.2"/>
<circle clip-path="url(#clip901)" cx="351.736" cy="503.819" r="14.4" fill="#00008b" fill-rule="evenodd" fill-opacity="1" stroke="#000000" stroke-opacity="1" stroke-width="3.2"/>
<circle clip-path="url(#clip901)" cx="351.736" cy="576.899" r="14.4" fill="#00008b" fill-rule="evenodd" fill-opacity="1" stroke="#000000" stroke-opacity="1" stroke-width="3.2"/>
<circle clip-path="url(#clip901)" cx="351.736" cy="469.601" r="14.4" fill="#00008b" fill-rule="evenodd" fill-opacity="1" stroke="#000000" stroke-opacity="1" stroke-width="3.2"/>
<circle clip-path="url(#clip901)" cx="351.736" cy="116.5" r="14.4" fill="#00008b" fill-rule="evenodd" fill-opacity="1" stroke="#000000" stroke-opacity="1" stroke-width="3.2"/>
<circle clip-path="url(#clip901)" cx="351.736" cy="401.105" r="14.4" fill="#00008b" fill-rule="evenodd" fill-opacity="1" stroke="#000000" stroke-opacity="1" stroke-width="3.2"/>
<circle clip-path="url(#clip901)" cx="351.736" cy="408.143" r="14.4" fill="#00008b" fill-rule="evenodd" fill-opacity="1" stroke="#000000" stroke-opacity="1" stroke-width="3.2"/>
<circle clip-path="url(#clip901)" cx="351.736" cy="432.372" r="14.4" fill="#00008b" fill-rule="evenodd" fill-opacity="1" stroke="#000000" stroke-opacity="1" stroke-width="3.2"/>
<circle clip-path="url(#clip901)" cx="351.736" cy="464.196" r="14.4" fill="#00008b" fill-rule="evenodd" fill-opacity="1" stroke="#000000" stroke-opacity="1" stroke-width="3.2"/>
<circle clip-path="url(#clip901)" cx="351.736" cy="667.085" r="14.4" fill="#00008b" fill-rule="evenodd" fill-opacity="1" stroke="#000000" stroke-opacity="1" stroke-width="3.2"/>
<circle clip-path="url(#clip901)" cx="351.736" cy="398.957" r="14.4" fill="#00008b" fill-rule="evenodd" fill-opacity="1" stroke="#000000" stroke-opacity="1" stroke-width="3.2"/>
<circle clip-path="url(#clip901)" cx="351.736" cy="405.678" r="14.4" fill="#00008b" fill-rule="evenodd" fill-opacity="1" stroke="#000000" stroke-opacity="1" stroke-width="3.2"/>
<circle clip-path="url(#clip901)" cx="351.736" cy="407.932" r="14.4" fill="#00008b" fill-rule="evenodd" fill-opacity="1" stroke="#000000" stroke-opacity="1" stroke-width="3.2"/>
<circle clip-path="url(#clip901)" cx="351.736" cy="437.423" r="14.4" fill="#00008b" fill-rule="evenodd" fill-opacity="1" stroke="#000000" stroke-opacity="1" stroke-width="3.2"/>
<circle clip-path="url(#clip901)" cx="351.736" cy="523.08" r="14.4" fill="#00008b" fill-rule="evenodd" fill-opacity="1" stroke="#000000" stroke-opacity="1" stroke-width="3.2"/>
<circle clip-path="url(#clip901)" cx="351.736" cy="401.98" r="14.4" fill="#00008b" fill-rule="evenodd" fill-opacity="1" stroke="#000000" stroke-opacity="1" stroke-width="3.2"/>
<circle clip-path="url(#clip901)" cx="351.736" cy="664.091" r="14.4" fill="#00008b" fill-rule="evenodd" fill-opacity="1" stroke="#000000" stroke-opacity="1" stroke-width="3.2"/>
<circle clip-path="url(#clip901)" cx="351.736" cy="490.695" r="14.4" fill="#00008b" fill-rule="evenodd" fill-opacity="1" stroke="#000000" stroke-opacity="1" stroke-width="3.2"/>
<circle clip-path="url(#clip901)" cx="351.736" cy="407.029" r="14.4" fill="#00008b" fill-rule="evenodd" fill-opacity="1" stroke="#000000" stroke-opacity="1" stroke-width="3.2"/>
<circle clip-path="url(#clip901)" cx="351.736" cy="543.613" r="14.4" fill="#00008b" fill-rule="evenodd" fill-opacity="1" stroke="#000000" stroke-opacity="1" stroke-width="3.2"/>
<circle clip-path="url(#clip901)" cx="351.736" cy="456.877" r="14.4" fill="#00008b" fill-rule="evenodd" fill-opacity="1" stroke="#000000" stroke-opacity="1" stroke-width="3.2"/>
<circle clip-path="url(#clip901)" cx="351.736" cy="87.9763" r="14.4" fill="#00008b" fill-rule="evenodd" fill-opacity="1" stroke="#000000" stroke-opacity="1" stroke-width="3.2"/>
<circle clip-path="url(#clip901)" cx="351.736" cy="438.887" r="14.4" fill="#00008b" fill-rule="evenodd" fill-opacity="1" stroke="#000000" stroke-opacity="1" stroke-width="3.2"/>
<circle clip-path="url(#clip901)" cx="351.736" cy="455.834" r="14.4" fill="#00008b" fill-rule="evenodd" fill-opacity="1" stroke="#000000" stroke-opacity="1" stroke-width="3.2"/>
<circle clip-path="url(#clip901)" cx="351.736" cy="406.435" r="14.4" fill="#00008b" fill-rule="evenodd" fill-opacity="1" stroke="#000000" stroke-opacity="1" stroke-width="3.2"/>
<circle clip-path="url(#clip901)" cx="351.736" cy="469.117" r="14.4" fill="#00008b" fill-rule="evenodd" fill-opacity="1" stroke="#000000" stroke-opacity="1" stroke-width="3.2"/>
<circle clip-path="url(#clip901)" cx="351.736" cy="417.702" r="14.4" fill="#00008b" fill-rule="evenodd" fill-opacity="1" stroke="#000000" stroke-opacity="1" stroke-width="3.2"/>
<circle clip-path="url(#clip901)" cx="351.736" cy="394.617" r="14.4" fill="#00008b" fill-rule="evenodd" fill-opacity="1" stroke="#000000" stroke-opacity="1" stroke-width="3.2"/>
<circle clip-path="url(#clip901)" cx="351.736" cy="403.707" r="14.4" fill="#00008b" fill-rule="evenodd" fill-opacity="1" stroke="#000000" stroke-opacity="1" stroke-width="3.2"/>
<circle clip-path="url(#clip901)" cx="351.736" cy="504.506" r="14.4" fill="#00008b" fill-rule="evenodd" fill-opacity="1" stroke="#000000" stroke-opacity="1" stroke-width="3.2"/>
<circle clip-path="url(#clip901)" cx="351.736" cy="592.407" r="14.4" fill="#00008b" fill-rule="evenodd" fill-opacity="1" stroke="#000000" stroke-opacity="1" stroke-width="3.2"/>
<circle clip-path="url(#clip901)" cx="351.736" cy="410.473" r="14.4" fill="#00008b" fill-rule="evenodd" fill-opacity="1" stroke="#000000" stroke-opacity="1" stroke-width="3.2"/>
<circle clip-path="url(#clip901)" cx="792.101" cy="1302.96" r="14.4" fill="#00008b" fill-rule="evenodd" fill-opacity="1" stroke="#000000" stroke-opacity="1" stroke-width="3.2"/>
<circle clip-path="url(#clip901)" cx="792.101" cy="1243.51" r="14.4" fill="#00008b" fill-rule="evenodd" fill-opacity="1" stroke="#000000" stroke-opacity="1" stroke-width="3.2"/>
<circle clip-path="url(#clip901)" cx="792.101" cy="1301.84" r="14.4" fill="#00008b" fill-rule="evenodd" fill-opacity="1" stroke="#000000" stroke-opacity="1" stroke-width="3.2"/>
<circle clip-path="url(#clip901)" cx="792.101" cy="1297.66" r="14.4" fill="#00008b" fill-rule="evenodd" fill-opacity="1" stroke="#000000" stroke-opacity="1" stroke-width="3.2"/>
<circle clip-path="url(#clip901)" cx="792.101" cy="1298.05" r="14.4" fill="#00008b" fill-rule="evenodd" fill-opacity="1" stroke="#000000" stroke-opacity="1" stroke-width="3.2"/>
<circle clip-path="url(#clip901)" cx="792.101" cy="1300.39" r="14.4" fill="#00008b" fill-rule="evenodd" fill-opacity="1" stroke="#000000" stroke-opacity="1" stroke-width="3.2"/>
<circle clip-path="url(#clip901)" cx="1232.47" cy="1382.11" r="14.4" fill="#00008b" fill-rule="evenodd" fill-opacity="1" stroke="#000000" stroke-opacity="1" stroke-width="3.2"/>
<circle clip-path="url(#clip901)" cx="1232.47" cy="1359.77" r="14.4" fill="#00008b" fill-rule="evenodd" fill-opacity="1" stroke="#000000" stroke-opacity="1" stroke-width="3.2"/>
<circle clip-path="url(#clip901)" cx="1232.47" cy="1381.13" r="14.4" fill="#00008b" fill-rule="evenodd" fill-opacity="1" stroke="#000000" stroke-opacity="1" stroke-width="3.2"/>
<circle clip-path="url(#clip901)" cx="1232.47" cy="1381.95" r="14.4" fill="#00008b" fill-rule="evenodd" fill-opacity="1" stroke="#000000" stroke-opacity="1" stroke-width="3.2"/>
<circle clip-path="url(#clip901)" cx="1672.83" cy="1411.13" r="14.4" fill="#00008b" fill-rule="evenodd" fill-opacity="1" stroke="#000000" stroke-opacity="1" stroke-width="3.2"/>
<circle clip-path="url(#clip901)" cx="1672.83" cy="1412.08" r="14.4" fill="#00008b" fill-rule="evenodd" fill-opacity="1" stroke="#000000" stroke-opacity="1" stroke-width="3.2"/>
<circle clip-path="url(#clip901)" cx="1672.83" cy="1411.58" r="14.4" fill="#00008b" fill-rule="evenodd" fill-opacity="1" stroke="#000000" stroke-opacity="1" stroke-width="3.2"/>
<circle clip-path="url(#clip901)" cx="1672.83" cy="1422.88" r="14.4" fill="#00008b" fill-rule="evenodd" fill-opacity="1" stroke="#000000" stroke-opacity="1" stroke-width="3.2"/>
<circle clip-path="url(#clip901)" cx="1672.83" cy="1421.64" r="14.4" fill="#00008b" fill-rule="evenodd" fill-opacity="1" stroke="#000000" stroke-opacity="1" stroke-width="3.2"/>
<circle clip-path="url(#clip901)" cx="1672.83" cy="1412.31" r="14.4" fill="#00008b" fill-rule="evenodd" fill-opacity="1" stroke="#000000" stroke-opacity="1" stroke-width="3.2"/>
<circle clip-path="url(#clip901)" cx="1672.83" cy="1412.33" r="14.4" fill="#00008b" fill-rule="evenodd" fill-opacity="1" stroke="#000000" stroke-opacity="1" stroke-width="3.2"/>
<circle clip-path="url(#clip901)" cx="1672.83" cy="1421.77" r="14.4" fill="#00008b" fill-rule="evenodd" fill-opacity="1" stroke="#000000" stroke-opacity="1" stroke-width="3.2"/>
<circle clip-path="url(#clip901)" cx="1672.83" cy="1411.84" r="14.4" fill="#00008b" fill-rule="evenodd" fill-opacity="1" stroke="#000000" stroke-opacity="1" stroke-width="3.2"/>
<circle clip-path="url(#clip901)" cx="2113.2" cy="1441.99" r="14.4" fill="#00008b" fill-rule="evenodd" fill-opacity="1" stroke="#000000" stroke-opacity="1" stroke-width="3.2"/>
<circle clip-path="url(#clip901)" cx="2113.2" cy="1441.09" r="14.4" fill="#00008b" fill-rule="evenodd" fill-opacity="1" stroke="#000000" stroke-opacity="1" stroke-width="3.2"/>
<circle clip-path="url(#clip901)" cx="2113.2" cy="1441.28" r="14.4" fill="#00008b" fill-rule="evenodd" fill-opacity="1" stroke="#000000" stroke-opacity="1" stroke-width="3.2"/>
<circle clip-path="url(#clip901)" cx="2113.2" cy="1441.9" r="14.4" fill="#00008b" fill-rule="evenodd" fill-opacity="1" stroke="#000000" stroke-opacity="1" stroke-width="3.2"/>
<circle clip-path="url(#clip901)" cx="2113.2" cy="1441.87" r="14.4" fill="#00008b" fill-rule="evenodd" fill-opacity="1" stroke="#000000" stroke-opacity="1" stroke-width="3.2"/>
<polyline clip-path="url(#clip901)" style="stroke:#00008b; stroke-linecap:round; stroke-linejoin:round; stroke-width:0; stroke-opacity:1; fill:none" points="351.736,392.475 263.663,392.475 439.809,392.475 351.736,392.475 351.736,290.661 "/>
<polyline clip-path="url(#clip901)" style="stroke:#00008b; stroke-linecap:round; stroke-linejoin:round; stroke-width:0; stroke-opacity:1; fill:none" points="527.882,290.661 527.882,254.576 175.59,254.576 175.59,290.661 527.882,290.661 527.882,254.576 "/>
<polyline clip-path="url(#clip901)" style="stroke:#00008b; stroke-linecap:round; stroke-linejoin:round; stroke-width:0; stroke-opacity:1; fill:none" points="527.882,221.653 175.59,221.653 175.59,254.576 527.882,254.576 527.882,221.653 351.736,221.653 "/>
<polyline clip-path="url(#clip901)" style="stroke:#00008b; stroke-linecap:round; stroke-linejoin:round; stroke-width:0; stroke-opacity:1; fill:none" points="351.736,119.927 263.663,119.927 439.809,119.927 351.736,119.927 351.736,221.653 "/>
<polyline clip-path="url(#clip901)" style="stroke:#00008b; stroke-linecap:round; stroke-linejoin:round; stroke-width:0; stroke-opacity:1; fill:none" points="792.101,1295.14 704.028,1295.14 880.174,1295.14 792.101,1295.14 792.101,1279.01 "/>
<polyline clip-path="url(#clip901)" style="stroke:#00008b; stroke-linecap:round; stroke-linejoin:round; stroke-width:0; stroke-opacity:1; fill:none" points="968.247,1279.01 968.247,1273.7 615.955,1273.7 615.955,1279.01 968.247,1279.01 968.247,1273.7 "/>
<polyline clip-path="url(#clip901)" style="stroke:#00008b; stroke-linecap:round; stroke-linejoin:round; stroke-width:0; stroke-opacity:1; fill:none" points="968.247,1267.47 615.955,1267.47 615.955,1273.7 968.247,1273.7 968.247,1267.47 792.101,1267.47 "/>
<polyline clip-path="url(#clip901)" style="stroke:#00008b; stroke-linecap:round; stroke-linejoin:round; stroke-width:0; stroke-opacity:1; fill:none" points="792.101,1252.74 704.028,1252.74 880.174,1252.74 792.101,1252.74 792.101,1267.47 "/>
<polyline clip-path="url(#clip901)" style="stroke:#00008b; stroke-linecap:round; stroke-linejoin:round; stroke-width:0; stroke-opacity:1; fill:none" points="1232.47,1379.96 1144.39,1379.96 1320.54,1379.96 1232.47,1379.96 1232.47,1373.32 "/>
<polyline clip-path="url(#clip901)" style="stroke:#00008b; stroke-linecap:round; stroke-linejoin:round; stroke-width:0; stroke-opacity:1; fill:none" points="1408.61,1373.32 1408.61,1370.92 1056.32,1370.92 1056.32,1373.32 1408.61,1373.32 1408.61,1370.92 "/>
<polyline clip-path="url(#clip901)" style="stroke:#00008b; stroke-linecap:round; stroke-linejoin:round; stroke-width:0; stroke-opacity:1; fill:none" points="1408.61,1368.39 1056.32,1368.39 1056.32,1370.92 1408.61,1370.92 1408.61,1368.39 1232.47,1368.39 "/>
<polyline clip-path="url(#clip901)" style="stroke:#00008b; stroke-linecap:round; stroke-linejoin:round; stroke-width:0; stroke-opacity:1; fill:none" points="1232.47,1361.29 1144.39,1361.29 1320.54,1361.29 1232.47,1361.29 1232.47,1368.39 "/>
<polyline clip-path="url(#clip901)" style="stroke:#00008b; stroke-linecap:round; stroke-linejoin:round; stroke-width:0; stroke-opacity:1; fill:none" points="1672.83,1421.42 1584.76,1421.42 1760.9,1421.42 1672.83,1421.42 1672.83,1418.13 "/>
<polyline clip-path="url(#clip901)" style="stroke:#00008b; stroke-linecap:round; stroke-linejoin:round; stroke-width:0; stroke-opacity:1; fill:none" points="1848.98,1418.13 1848.98,1416.99 1496.69,1416.99 1496.69,1418.13 1848.98,1418.13 1848.98,1416.99 "/>
<polyline clip-path="url(#clip901)" style="stroke:#00008b; stroke-linecap:round; stroke-linejoin:round; stroke-width:0; stroke-opacity:1; fill:none" points="1848.98,1415.84 1496.69,1415.84 1496.69,1416.99 1848.98,1416.99 1848.98,1415.84 1672.83,1415.84 "/>
<polyline clip-path="url(#clip901)" style="stroke:#00008b; stroke-linecap:round; stroke-linejoin:round; stroke-width:0; stroke-opacity:1; fill:none" points="1672.83,1412.48 1584.76,1412.48 1760.9,1412.48 1672.83,1412.48 1672.83,1415.84 "/>
<polyline clip-path="url(#clip901)" style="stroke:#00008b; stroke-linecap:round; stroke-linejoin:round; stroke-width:0; stroke-opacity:1; fill:none" points="2113.2,1445.72 2025.12,1445.72 2201.27,1445.72 2113.2,1445.72 2113.2,1444.38 "/>
<polyline clip-path="url(#clip901)" style="stroke:#00008b; stroke-linecap:round; stroke-linejoin:round; stroke-width:0; stroke-opacity:1; fill:none" points="2289.34,1444.38 2289.34,1443.91 1937.05,1443.91 1937.05,1444.38 2289.34,1444.38 2289.34,1443.91 "/>
<polyline clip-path="url(#clip901)" style="stroke:#00008b; stroke-linecap:round; stroke-linejoin:round; stroke-width:0; stroke-opacity:1; fill:none" points="2289.34,1443.47 1937.05,1443.47 1937.05,1443.91 2289.34,1443.91 2289.34,1443.47 2113.2,1443.47 "/>
<polyline clip-path="url(#clip901)" style="stroke:#00008b; stroke-linecap:round; stroke-linejoin:round; stroke-width:0; stroke-opacity:1; fill:none" points="2113.2,1442.22 2025.12,1442.22 2201.27,1442.22 2113.2,1442.22 2113.2,1443.47 "/>
</svg>
