<?xml version="1.0" encoding="utf-8"?>
<svg xmlns="http://www.w3.org/2000/svg" xmlns:xlink="http://www.w3.org/1999/xlink" width="600" height="400" viewBox="0 0 2400 1600">
<defs>
  <clipPath id="clip980">
    <rect x="0" y="0" width="2400" height="1600"/>
  </clipPath>
</defs>
<path clip-path="url(#clip980)" d="M0 1600 L2400 1600 L2400 0 L0 0  Z" fill="#ffffff" fill-rule="evenodd" fill-opacity="1"/>
<defs>
  <clipPath id="clip981">
    <rect x="184" y="47" width="2170" height="1440"/>
  </clipPath>
</defs>
<path clip-path="url(#clip980)" d="M184.191 1486.45 L2352.76 1486.45 L2352.76 47.2441 L184.191 47.2441  Z" fill="#ffffff" fill-rule="evenodd" fill-opacity="1"/>
<polyline clip-path="url(#clip981)" style="stroke:#000000; stroke-linecap:round; stroke-linejoin:round; stroke-width:2; stroke-opacity:0.1; fill:none" points="416.05,1486.45 416.05,47.2441 "/>
<polyline clip-path="url(#clip981)" style="stroke:#000000; stroke-linecap:round; stroke-linejoin:round; stroke-width:2; stroke-opacity:0.1; fill:none" points="842.262,1486.45 842.262,47.2441 "/>
<polyline clip-path="url(#clip981)" style="stroke:#000000; stroke-linecap:round; stroke-linejoin:round; stroke-width:2; stroke-opacity:0.1; fill:none" points="1268.47,1486.45 1268.47,47.2441 "/>
<polyline clip-path="url(#clip981)" style="stroke:#000000; stroke-linecap:round; stroke-linejoin:round; stroke-width:2; stroke-opacity:0.1; fill:none" points="1694.69,1486.45 1694.69,47.2441 "/>
<polyline clip-path="url(#clip981)" style="stroke:#000000; stroke-linecap:round; stroke-linejoin:round; stroke-width:2; stroke-opacity:0.1; fill:none" points="2120.9,1486.45 2120.9,47.2441 "/>
<polyline clip-path="url(#clip981)" style="stroke:#000000; stroke-linecap:round; stroke-linejoin:round; stroke-width:2; stroke-opacity:0.1; fill:none" points="184.191,1357.35 2352.76,1357.35 "/>
<polyline clip-path="url(#clip981)" style="stroke:#000000; stroke-linecap:round; stroke-linejoin:round; stroke-width:2; stroke-opacity:0.1; fill:none" points="184.191,1073.23 2352.76,1073.23 "/>
<polyline clip-path="url(#clip981)" style="stroke:#000000; stroke-linecap:round; stroke-linejoin:round; stroke-width:2; stroke-opacity:0.1; fill:none" points="184.191,789.114 2352.76,789.114 "/>
<polyline clip-path="url(#clip981)" style="stroke:#000000; stroke-linecap:round; stroke-linejoin:round; stroke-width:2; stroke-opacity:0.1; fill:none" points="184.191,504.996 2352.76,504.996 "/>
<polyline clip-path="url(#clip981)" style="stroke:#000000; stroke-linecap:round; stroke-linejoin:round; stroke-width:2; stroke-opacity:0.1; fill:none" points="184.191,220.877 2352.76,220.877 "/>
<polyline clip-path="url(#clip980)" style="stroke:#000000; stroke-linecap:round; stroke-linejoin:round; stroke-width:4; stroke-opacity:1; fill:none" points="184.191,1486.45 2352.76,1486.45 "/>
<polyline clip-path="url(#clip980)" style="stroke:#000000; stroke-linecap:round; stroke-linejoin:round; stroke-width:4; stroke-opacity:1; fill:none" points="416.05,1486.45 416.05,1467.55 "/>
<polyline clip-path="url(#clip980)" style="stroke:#000000; stroke-linecap:round; stroke-linejoin:round; stroke-width:4; stroke-opacity:1; fill:none" points="842.262,1486.45 842.262,1467.55 "/>
<polyline clip-path="url(#clip980)" style="stroke:#000000; stroke-linecap:round; stroke-linejoin:round; stroke-width:4; stroke-opacity:1; fill:none" points="1268.47,1486.45 1268.47,1467.55 "/>
<polyline clip-path="url(#clip980)" style="stroke:#000000; stroke-linecap:round; stroke-linejoin:round; stroke-width:4; stroke-opacity:1; fill:none" points="1694.69,1486.45 1694.69,1467.55 "/>
<polyline clip-path="url(#clip980)" style="stroke:#000000; stroke-linecap:round; stroke-linejoin:round; stroke-width:4; stroke-opacity:1; fill:none" points="2120.9,1486.45 2120.9,1467.55 "/>
<path clip-path="url(#clip980)" d="M390.737 1544.91 L398.376 1544.91 L398.376 1518.55 L390.066 1520.21 L390.066 1515.95 L398.33 1514.29 L403.006 1514.29 L403.006 1544.91 L410.645 1544.91 L410.645 1548.85 L390.737 1548.85 L390.737 1544.91 Z" fill="#000000" fill-rule="nonzero" fill-opacity="1" /><path clip-path="url(#clip980)" d="M430.089 1517.37 Q426.478 1517.37 424.649 1520.93 Q422.844 1524.47 422.844 1531.6 Q422.844 1538.71 424.649 1542.27 Q426.478 1545.82 430.089 1545.82 Q433.723 1545.82 435.529 1542.27 Q437.358 1538.71 437.358 1531.6 Q437.358 1524.47 435.529 1520.93 Q433.723 1517.37 430.089 1517.37 M430.089 1513.66 Q435.899 1513.66 438.955 1518.27 Q442.034 1522.85 442.034 1531.6 Q442.034 1540.33 438.955 1544.94 Q435.899 1549.52 430.089 1549.52 Q424.279 1549.52 421.2 1544.94 Q418.145 1540.33 418.145 1531.6 Q418.145 1522.85 421.2 1518.27 Q424.279 1513.66 430.089 1513.66 Z" fill="#000000" fill-rule="nonzero" fill-opacity="1" /><path clip-path="url(#clip980)" d="M816.961 1514.29 L835.317 1514.29 L835.317 1518.22 L821.243 1518.22 L821.243 1526.7 Q822.262 1526.35 823.28 1526.19 Q824.299 1526 825.317 1526 Q831.104 1526 834.484 1529.17 Q837.863 1532.34 837.863 1537.76 Q837.863 1543.34 834.391 1546.44 Q830.919 1549.52 824.6 1549.52 Q822.424 1549.52 820.155 1549.15 Q817.91 1548.78 815.502 1548.04 L815.502 1543.34 Q817.586 1544.47 819.808 1545.03 Q822.03 1545.58 824.507 1545.58 Q828.512 1545.58 830.85 1543.48 Q833.188 1541.37 833.188 1537.76 Q833.188 1534.15 830.85 1532.04 Q828.512 1529.94 824.507 1529.94 Q822.632 1529.94 820.757 1530.35 Q818.905 1530.77 816.961 1531.65 L816.961 1514.29 Z" fill="#000000" fill-rule="nonzero" fill-opacity="1" /><path clip-path="url(#clip980)" d="M857.076 1517.37 Q853.465 1517.37 851.637 1520.93 Q849.831 1524.47 849.831 1531.6 Q849.831 1538.71 851.637 1542.27 Q853.465 1545.82 857.076 1545.82 Q860.711 1545.82 862.516 1542.27 Q864.345 1538.71 864.345 1531.6 Q864.345 1524.47 862.516 1520.93 Q860.711 1517.37 857.076 1517.37 M857.076 1513.66 Q862.886 1513.66 865.942 1518.27 Q869.021 1522.85 869.021 1531.6 Q869.021 1540.33 865.942 1544.94 Q862.886 1549.52 857.076 1549.52 Q851.266 1549.52 848.187 1544.94 Q845.132 1540.33 845.132 1531.6 Q845.132 1522.85 848.187 1518.27 Q851.266 1513.66 857.076 1513.66 Z" fill="#000000" fill-rule="nonzero" fill-opacity="1" /><path clip-path="url(#clip980)" d="M1228.08 1544.91 L1235.72 1544.91 L1235.72 1518.55 L1227.41 1520.21 L1227.41 1515.95 L1235.67 1514.29 L1240.35 1514.29 L1240.35 1544.91 L1247.99 1544.91 L1247.99 1548.85 L1228.08 1548.85 L1228.08 1544.91 Z" fill="#000000" fill-rule="nonzero" fill-opacity="1" /><path clip-path="url(#clip980)" d="M1267.43 1517.37 Q1263.82 1517.37 1261.99 1520.93 Q1260.19 1524.47 1260.19 1531.6 Q1260.19 1538.71 1261.99 1542.27 Q1263.82 1545.82 1267.43 1545.82 Q1271.07 1545.82 1272.87 1542.27 Q1274.7 1538.71 1274.7 1531.6 Q1274.7 1524.47 1272.87 1520.93 Q1271.07 1517.37 1267.43 1517.37 M1267.43 1513.66 Q1273.24 1513.66 1276.3 1518.27 Q1279.38 1522.85 1279.38 1531.6 Q1279.38 1540.33 1276.3 1544.94 Q1273.24 1549.52 1267.43 1549.52 Q1261.62 1549.52 1258.54 1544.94 Q1255.49 1540.33 1255.49 1531.6 Q1255.49 1522.85 1258.54 1518.27 Q1261.62 1513.66 1267.43 1513.66 Z" fill="#000000" fill-rule="nonzero" fill-opacity="1" /><path clip-path="url(#clip980)" d="M1297.59 1517.37 Q1293.98 1517.37 1292.15 1520.93 Q1290.35 1524.47 1290.35 1531.6 Q1290.35 1538.71 1292.15 1542.27 Q1293.98 1545.82 1297.59 1545.82 Q1301.23 1545.82 1303.03 1542.27 Q1304.86 1538.71 1304.86 1531.6 Q1304.86 1524.47 1303.03 1520.93 Q1301.23 1517.37 1297.59 1517.37 M1297.59 1513.66 Q1303.4 1513.66 1306.46 1518.27 Q1309.54 1522.85 1309.54 1531.6 Q1309.54 1540.33 1306.46 1544.94 Q1303.4 1549.52 1297.59 1549.52 Q1291.78 1549.52 1288.7 1544.94 Q1285.65 1540.33 1285.65 1531.6 Q1285.65 1522.85 1288.7 1518.27 Q1291.78 1513.66 1297.59 1513.66 Z" fill="#000000" fill-rule="nonzero" fill-opacity="1" /><path clip-path="url(#clip980)" d="M1658.38 1544.91 L1674.7 1544.91 L1674.7 1548.85 L1652.75 1548.85 L1652.75 1544.91 Q1655.41 1542.16 1660 1537.53 Q1664.6 1532.88 1665.78 1531.53 Q1668.03 1529.01 1668.91 1527.27 Q1669.81 1525.51 1669.81 1523.82 Q1669.81 1521.07 1667.87 1519.33 Q1665.95 1517.6 1662.84 1517.6 Q1660.65 1517.6 1658.19 1518.36 Q1655.76 1519.13 1652.98 1520.68 L1652.98 1515.95 Q1655.81 1514.82 1658.26 1514.24 Q1660.72 1513.66 1662.75 1513.66 Q1668.12 1513.66 1671.32 1516.35 Q1674.51 1519.03 1674.51 1523.52 Q1674.51 1525.65 1673.7 1527.57 Q1672.91 1529.47 1670.81 1532.07 Q1670.23 1532.74 1667.13 1535.95 Q1664.03 1539.15 1658.38 1544.91 Z" fill="#000000" fill-rule="nonzero" fill-opacity="1" /><path clip-path="url(#clip980)" d="M1694.51 1517.37 Q1690.9 1517.37 1689.07 1520.93 Q1687.27 1524.47 1687.27 1531.6 Q1687.27 1538.71 1689.07 1542.27 Q1690.9 1545.82 1694.51 1545.82 Q1698.15 1545.82 1699.95 1542.27 Q1701.78 1538.71 1701.78 1531.6 Q1701.78 1524.47 1699.95 1520.93 Q1698.15 1517.37 1694.51 1517.37 M1694.51 1513.66 Q1700.32 1513.66 1703.38 1518.27 Q1706.46 1522.85 1706.46 1531.6 Q1706.46 1540.33 1703.38 1544.94 Q1700.32 1549.52 1694.51 1549.52 Q1688.7 1549.52 1685.62 1544.94 Q1682.57 1540.33 1682.57 1531.6 Q1682.57 1522.85 1685.62 1518.27 Q1688.7 1513.66 1694.51 1513.66 Z" fill="#000000" fill-rule="nonzero" fill-opacity="1" /><path clip-path="url(#clip980)" d="M1724.67 1517.37 Q1721.06 1517.37 1719.23 1520.93 Q1717.43 1524.47 1717.43 1531.6 Q1717.43 1538.71 1719.23 1542.27 Q1721.06 1545.82 1724.67 1545.82 Q1728.31 1545.82 1730.11 1542.27 Q1731.94 1538.71 1731.94 1531.6 Q1731.94 1524.47 1730.11 1520.93 Q1728.31 1517.37 1724.67 1517.37 M1724.67 1513.66 Q1730.48 1513.66 1733.54 1518.27 Q1736.62 1522.85 1736.62 1531.6 Q1736.62 1540.33 1733.54 1544.94 Q1730.48 1549.52 1724.67 1549.52 Q1718.86 1549.52 1715.78 1544.94 Q1712.73 1540.33 1712.73 1531.6 Q1712.73 1522.85 1715.78 1518.27 Q1718.86 1513.66 1724.67 1513.66 Z" fill="#000000" fill-rule="nonzero" fill-opacity="1" /><path clip-path="url(#clip980)" d="M2080.52 1514.29 L2098.87 1514.29 L2098.87 1518.22 L2084.8 1518.22 L2084.8 1526.7 Q2085.82 1526.35 2086.83 1526.19 Q2087.85 1526 2088.87 1526 Q2094.66 1526 2098.04 1529.17 Q2101.42 1532.34 2101.42 1537.76 Q2101.42 1543.34 2097.95 1546.44 Q2094.47 1549.52 2088.15 1549.52 Q2085.98 1549.52 2083.71 1549.15 Q2081.46 1548.78 2079.06 1548.04 L2079.06 1543.34 Q2081.14 1544.47 2083.36 1545.03 Q2085.58 1545.58 2088.06 1545.58 Q2092.07 1545.58 2094.4 1543.48 Q2096.74 1541.37 2096.74 1537.76 Q2096.74 1534.15 2094.4 1532.04 Q2092.07 1529.94 2088.06 1529.94 Q2086.19 1529.94 2084.31 1530.35 Q2082.46 1530.77 2080.52 1531.65 L2080.52 1514.29 Z" fill="#000000" fill-rule="nonzero" fill-opacity="1" /><path clip-path="url(#clip980)" d="M2120.63 1517.37 Q2117.02 1517.37 2115.19 1520.93 Q2113.39 1524.47 2113.39 1531.6 Q2113.39 1538.71 2115.19 1542.27 Q2117.02 1545.82 2120.63 1545.82 Q2124.26 1545.82 2126.07 1542.27 Q2127.9 1538.71 2127.9 1531.6 Q2127.9 1524.47 2126.07 1520.93 Q2124.26 1517.37 2120.63 1517.37 M2120.63 1513.66 Q2126.44 1513.66 2129.5 1518.27 Q2132.57 1522.85 2132.57 1531.6 Q2132.57 1540.33 2129.5 1544.94 Q2126.44 1549.52 2120.63 1549.52 Q2114.82 1549.52 2111.74 1544.94 Q2108.69 1540.33 2108.69 1531.6 Q2108.69 1522.85 2111.74 1518.27 Q2114.82 1513.66 2120.63 1513.66 Z" fill="#000000" fill-rule="nonzero" fill-opacity="1" /><path clip-path="url(#clip980)" d="M2150.79 1517.37 Q2147.18 1517.37 2145.35 1520.93 Q2143.55 1524.47 2143.55 1531.6 Q2143.55 1538.71 2145.35 1542.27 Q2147.18 1545.82 2150.79 1545.82 Q2154.43 1545.82 2156.23 1542.27 Q2158.06 1538.71 2158.06 1531.6 Q2158.06 1524.47 2156.23 1520.93 Q2154.43 1517.37 2150.79 1517.37 M2150.79 1513.66 Q2156.6 1513.66 2159.66 1518.27 Q2162.74 1522.85 2162.74 1531.6 Q2162.74 1540.33 2159.66 1544.94 Q2156.6 1549.52 2150.79 1549.52 Q2144.98 1549.52 2141.9 1544.94 Q2138.85 1540.33 2138.85 1531.6 Q2138.85 1522.85 2141.9 1518.27 Q2144.98 1513.66 2150.79 1513.66 Z" fill="#000000" fill-rule="nonzero" fill-opacity="1" /><polyline clip-path="url(#clip980)" style="stroke:#000000; stroke-linecap:round; stroke-linejoin:round; stroke-width:4; stroke-opacity:1; fill:none" points="184.191,1486.45 184.191,47.2441 "/>
<polyline clip-path="url(#clip980)" style="stroke:#000000; stroke-linecap:round; stroke-linejoin:round; stroke-width:4; stroke-opacity:1; fill:none" points="184.191,1357.35 203.088,1357.35 "/>
<polyline clip-path="url(#clip980)" style="stroke:#000000; stroke-linecap:round; stroke-linejoin:round; stroke-width:4; stroke-opacity:1; fill:none" points="184.191,1073.23 203.088,1073.23 "/>
<polyline clip-path="url(#clip980)" style="stroke:#000000; stroke-linecap:round; stroke-linejoin:round; stroke-width:4; stroke-opacity:1; fill:none" points="184.191,789.114 203.088,789.114 "/>
<polyline clip-path="url(#clip980)" style="stroke:#000000; stroke-linecap:round; stroke-linejoin:round; stroke-width:4; stroke-opacity:1; fill:none" points="184.191,504.996 203.088,504.996 "/>
<polyline clip-path="url(#clip980)" style="stroke:#000000; stroke-linecap:round; stroke-linejoin:round; stroke-width:4; stroke-opacity:1; fill:none" points="184.191,220.877 203.088,220.877 "/>
<path clip-path="url(#clip980)" d="M51.6634 1370.7 L59.3023 1370.7 L59.3023 1344.33 L50.9921 1346 L50.9921 1341.74 L59.256 1340.07 L63.9319 1340.07 L63.9319 1370.7 L71.5707 1370.7 L71.5707 1374.63 L51.6634 1374.63 L51.6634 1370.7 Z" fill="#000000" fill-rule="nonzero" fill-opacity="1" /><path clip-path="url(#clip980)" d="M81.0151 1368.75 L85.8993 1368.75 L85.8993 1374.63 L81.0151 1374.63 L81.0151 1368.75 Z" fill="#000000" fill-rule="nonzero" fill-opacity="1" /><path clip-path="url(#clip980)" d="M110.251 1356 Q113.608 1356.71 115.483 1358.98 Q117.381 1361.25 117.381 1364.58 Q117.381 1369.7 113.862 1372.5 Q110.344 1375.3 103.862 1375.3 Q101.686 1375.3 99.3715 1374.86 Q97.0798 1374.45 94.6262 1373.59 L94.6262 1369.08 Q96.5706 1370.21 98.8854 1370.79 Q101.2 1371.37 103.723 1371.37 Q108.121 1371.37 110.413 1369.63 Q112.728 1367.89 112.728 1364.58 Q112.728 1361.53 110.575 1359.82 Q108.446 1358.08 104.626 1358.08 L100.598 1358.08 L100.598 1354.24 L104.811 1354.24 Q108.26 1354.24 110.089 1352.87 Q111.918 1351.48 111.918 1348.89 Q111.918 1346.23 110.02 1344.82 Q108.145 1343.38 104.626 1343.38 Q102.705 1343.38 100.506 1343.8 Q98.3067 1344.21 95.6678 1345.09 L95.6678 1340.93 Q98.3298 1340.19 100.645 1339.82 Q102.983 1339.45 105.043 1339.45 Q110.367 1339.45 113.469 1341.88 Q116.57 1344.28 116.57 1348.4 Q116.57 1351.27 114.927 1353.27 Q113.283 1355.23 110.251 1356 Z" fill="#000000" fill-rule="nonzero" fill-opacity="1" /><path clip-path="url(#clip980)" d="M136.246 1343.15 Q132.635 1343.15 130.807 1346.71 Q129.001 1350.26 129.001 1357.39 Q129.001 1364.49 130.807 1368.06 Q132.635 1371.6 136.246 1371.6 Q139.881 1371.6 141.686 1368.06 Q143.515 1364.49 143.515 1357.39 Q143.515 1350.26 141.686 1346.71 Q139.881 1343.15 136.246 1343.15 M136.246 1339.45 Q142.056 1339.45 145.112 1344.05 Q148.191 1348.64 148.191 1357.39 Q148.191 1366.11 145.112 1370.72 Q142.056 1375.3 136.246 1375.3 Q130.436 1375.3 127.357 1370.72 Q124.302 1366.11 124.302 1357.39 Q124.302 1348.64 127.357 1344.05 Q130.436 1339.45 136.246 1339.45 Z" fill="#000000" fill-rule="nonzero" fill-opacity="1" /><path clip-path="url(#clip980)" d="M52.6588 1086.58 L60.2976 1086.58 L60.2976 1060.21 L51.9875 1061.88 L51.9875 1057.62 L60.2513 1055.95 L64.9272 1055.95 L64.9272 1086.58 L72.5661 1086.58 L72.5661 1090.51 L52.6588 1090.51 L52.6588 1086.58 Z" fill="#000000" fill-rule="nonzero" fill-opacity="1" /><path clip-path="url(#clip980)" d="M82.0105 1084.63 L86.8947 1084.63 L86.8947 1090.51 L82.0105 1090.51 L82.0105 1084.63 Z" fill="#000000" fill-rule="nonzero" fill-opacity="1" /><path clip-path="url(#clip980)" d="M111.246 1071.88 Q114.603 1072.6 116.478 1074.86 Q118.376 1077.13 118.376 1080.47 Q118.376 1085.58 114.858 1088.38 Q111.339 1091.18 104.858 1091.18 Q102.682 1091.18 100.367 1090.74 Q98.0752 1090.33 95.6215 1089.47 L95.6215 1084.96 Q97.566 1086.09 99.8808 1086.67 Q102.196 1087.25 104.719 1087.25 Q109.117 1087.25 111.408 1085.51 Q113.723 1083.78 113.723 1080.47 Q113.723 1077.41 111.571 1075.7 Q109.441 1073.96 105.621 1073.96 L101.594 1073.96 L101.594 1070.12 L105.807 1070.12 Q109.256 1070.12 111.084 1068.75 Q112.913 1067.36 112.913 1064.77 Q112.913 1062.11 111.015 1060.7 Q109.14 1059.26 105.621 1059.26 Q103.7 1059.26 101.501 1059.68 Q99.3021 1060.1 96.6632 1060.98 L96.6632 1056.81 Q99.3252 1056.07 101.64 1055.7 Q103.978 1055.33 106.038 1055.33 Q111.362 1055.33 114.464 1057.76 Q117.566 1060.17 117.566 1064.29 Q117.566 1067.16 115.922 1069.15 Q114.279 1071.11 111.246 1071.88 Z" fill="#000000" fill-rule="nonzero" fill-opacity="1" /><path clip-path="url(#clip980)" d="M127.288 1055.95 L145.644 1055.95 L145.644 1059.89 L131.57 1059.89 L131.57 1068.36 Q132.589 1068.01 133.607 1067.85 Q134.626 1067.67 135.644 1067.67 Q141.431 1067.67 144.811 1070.84 Q148.191 1074.01 148.191 1079.42 Q148.191 1085 144.718 1088.11 Q141.246 1091.18 134.927 1091.18 Q132.751 1091.18 130.482 1090.81 Q128.237 1090.44 125.83 1089.7 L125.83 1085 Q127.913 1086.14 130.135 1086.69 Q132.357 1087.25 134.834 1087.25 Q138.839 1087.25 141.177 1085.14 Q143.515 1083.04 143.515 1079.42 Q143.515 1075.81 141.177 1073.71 Q138.839 1071.6 134.834 1071.6 Q132.959 1071.6 131.084 1072.02 Q129.232 1072.43 127.288 1073.31 L127.288 1055.95 Z" fill="#000000" fill-rule="nonzero" fill-opacity="1" /><path clip-path="url(#clip980)" d="M51.6634 802.459 L59.3023 802.459 L59.3023 776.093 L50.9921 777.76 L50.9921 773.501 L59.256 771.834 L63.9319 771.834 L63.9319 802.459 L71.5707 802.459 L71.5707 806.394 L51.6634 806.394 L51.6634 802.459 Z" fill="#000000" fill-rule="nonzero" fill-opacity="1" /><path clip-path="url(#clip980)" d="M81.0151 800.515 L85.8993 800.515 L85.8993 806.394 L81.0151 806.394 L81.0151 800.515 Z" fill="#000000" fill-rule="nonzero" fill-opacity="1" /><path clip-path="url(#clip980)" d="M108.932 775.908 L97.1261 794.357 L108.932 794.357 L108.932 775.908 M107.705 771.834 L113.584 771.834 L113.584 794.357 L118.515 794.357 L118.515 798.246 L113.584 798.246 L113.584 806.394 L108.932 806.394 L108.932 798.246 L93.3299 798.246 L93.3299 793.732 L107.705 771.834 Z" fill="#000000" fill-rule="nonzero" fill-opacity="1" /><path clip-path="url(#clip980)" d="M136.246 774.913 Q132.635 774.913 130.807 778.478 Q129.001 782.019 129.001 789.149 Q129.001 796.255 130.807 799.82 Q132.635 803.362 136.246 803.362 Q139.881 803.362 141.686 799.82 Q143.515 796.255 143.515 789.149 Q143.515 782.019 141.686 778.478 Q139.881 774.913 136.246 774.913 M136.246 771.209 Q142.056 771.209 145.112 775.816 Q148.191 780.399 148.191 789.149 Q148.191 797.876 145.112 802.482 Q142.056 807.066 136.246 807.066 Q130.436 807.066 127.357 802.482 Q124.302 797.876 124.302 789.149 Q124.302 780.399 127.357 775.816 Q130.436 771.209 136.246 771.209 Z" fill="#000000" fill-rule="nonzero" fill-opacity="1" /><path clip-path="url(#clip980)" d="M52.6588 518.341 L60.2976 518.341 L60.2976 491.975 L51.9875 493.642 L51.9875 489.383 L60.2513 487.716 L64.9272 487.716 L64.9272 518.341 L72.5661 518.341 L72.5661 522.276 L52.6588 522.276 L52.6588 518.341 Z" fill="#000000" fill-rule="nonzero" fill-opacity="1" /><path clip-path="url(#clip980)" d="M82.0105 516.396 L86.8947 516.396 L86.8947 522.276 L82.0105 522.276 L82.0105 516.396 Z" fill="#000000" fill-rule="nonzero" fill-opacity="1" /><path clip-path="url(#clip980)" d="M109.927 491.79 L98.1215 510.239 L109.927 510.239 L109.927 491.79 M108.7 487.716 L114.58 487.716 L114.58 510.239 L119.51 510.239 L119.51 514.128 L114.58 514.128 L114.58 522.276 L109.927 522.276 L109.927 514.128 L94.3252 514.128 L94.3252 509.614 L108.7 487.716 Z" fill="#000000" fill-rule="nonzero" fill-opacity="1" /><path clip-path="url(#clip980)" d="M127.288 487.716 L145.644 487.716 L145.644 491.651 L131.57 491.651 L131.57 500.123 Q132.589 499.776 133.607 499.614 Q134.626 499.429 135.644 499.429 Q141.431 499.429 144.811 502.6 Q148.191 505.771 148.191 511.188 Q148.191 516.767 144.718 519.868 Q141.246 522.947 134.927 522.947 Q132.751 522.947 130.482 522.577 Q128.237 522.206 125.83 521.466 L125.83 516.767 Q127.913 517.901 130.135 518.456 Q132.357 519.012 134.834 519.012 Q138.839 519.012 141.177 516.906 Q143.515 514.799 143.515 511.188 Q143.515 507.577 141.177 505.47 Q138.839 503.364 134.834 503.364 Q132.959 503.364 131.084 503.781 Q129.232 504.197 127.288 505.077 L127.288 487.716 Z" fill="#000000" fill-rule="nonzero" fill-opacity="1" /><path clip-path="url(#clip980)" d="M51.6634 234.222 L59.3023 234.222 L59.3023 207.857 L50.9921 209.523 L50.9921 205.264 L59.256 203.597 L63.9319 203.597 L63.9319 234.222 L71.5707 234.222 L71.5707 238.157 L51.6634 238.157 L51.6634 234.222 Z" fill="#000000" fill-rule="nonzero" fill-opacity="1" /><path clip-path="url(#clip980)" d="M81.0151 232.278 L85.8993 232.278 L85.8993 238.157 L81.0151 238.157 L81.0151 232.278 Z" fill="#000000" fill-rule="nonzero" fill-opacity="1" /><path clip-path="url(#clip980)" d="M96.1308 203.597 L114.487 203.597 L114.487 207.533 L100.413 207.533 L100.413 216.005 Q101.432 215.658 102.45 215.496 Q103.469 215.31 104.487 215.31 Q110.274 215.31 113.654 218.482 Q117.033 221.653 117.033 227.07 Q117.033 232.648 113.561 235.75 Q110.089 238.829 103.77 238.829 Q101.594 238.829 99.3252 238.458 Q97.0798 238.088 94.6724 237.347 L94.6724 232.648 Q96.7558 233.783 98.978 234.338 Q101.2 234.894 103.677 234.894 Q107.682 234.894 110.02 232.787 Q112.358 230.681 112.358 227.07 Q112.358 223.458 110.02 221.352 Q107.682 219.246 103.677 219.246 Q101.802 219.246 99.927 219.662 Q98.0752 220.079 96.1308 220.958 L96.1308 203.597 Z" fill="#000000" fill-rule="nonzero" fill-opacity="1" /><path clip-path="url(#clip980)" d="M136.246 206.676 Q132.635 206.676 130.807 210.241 Q129.001 213.783 129.001 220.912 Q129.001 228.019 130.807 231.583 Q132.635 235.125 136.246 235.125 Q139.881 235.125 141.686 231.583 Q143.515 228.019 143.515 220.912 Q143.515 213.783 141.686 210.241 Q139.881 206.676 136.246 206.676 M136.246 202.972 Q142.056 202.972 145.112 207.579 Q148.191 212.162 148.191 220.912 Q148.191 229.639 145.112 234.245 Q142.056 238.829 136.246 238.829 Q130.436 238.829 127.357 234.245 Q124.302 229.639 124.302 220.912 Q124.302 212.162 127.357 207.579 Q130.436 202.972 136.246 202.972 Z" fill="#000000" fill-rule="nonzero" fill-opacity="1" /><path clip-path="url(#clip981)" d="M416.05 1404.03 L330.808 1404.03 L501.292 1404.03 L416.05 1404.03 L416.05 1155.65 L416.05 1404.03  Z" fill="#ff0000" fill-rule="evenodd" fill-opacity="1"/>
<polyline clip-path="url(#clip981)" style="stroke:#000000; stroke-linecap:round; stroke-linejoin:round; stroke-width:4; stroke-opacity:1; fill:none" points="416.05,1404.03 330.808,1404.03 501.292,1404.03 416.05,1404.03 416.05,1155.65 416.05,1404.03 "/>
<path clip-path="url(#clip981)" d="M586.535 1155.65 L586.535 1070.75 L245.565 1070.75 L245.565 1155.65 L586.535 1155.65 L586.535 1070.75 L586.535 1155.65  Z" fill="#ff0000" fill-rule="evenodd" fill-opacity="1"/>
<polyline clip-path="url(#clip981)" style="stroke:#000000; stroke-linecap:round; stroke-linejoin:round; stroke-width:4; stroke-opacity:1; fill:none" points="586.535,1155.65 586.535,1070.75 245.565,1070.75 245.565,1155.65 586.535,1155.65 586.535,1070.75 586.535,1155.65 "/>
<path clip-path="url(#clip981)" d="M586.535 984.219 L245.565 984.219 L245.565 1070.75 L586.535 1070.75 L586.535 984.219 L416.05 984.219 L586.535 984.219  Z" fill="#ff0000" fill-rule="evenodd" fill-opacity="1"/>
<polyline clip-path="url(#clip981)" style="stroke:#000000; stroke-linecap:round; stroke-linejoin:round; stroke-width:4; stroke-opacity:1; fill:none" points="586.535,984.219 245.565,984.219 245.565,1070.75 586.535,1070.75 586.535,984.219 416.05,984.219 586.535,984.219 "/>
<path clip-path="url(#clip981)" d="M416.05 738.893 L330.808 738.893 L501.292 738.893 L416.05 738.893 L416.05 984.219 L416.05 738.893  Z" fill="#ff0000" fill-rule="evenodd" fill-opacity="1"/>
<polyline clip-path="url(#clip981)" style="stroke:#000000; stroke-linecap:round; stroke-linejoin:round; stroke-width:4; stroke-opacity:1; fill:none" points="416.05,738.893 330.808,738.893 501.292,738.893 416.05,738.893 416.05,984.219 416.05,738.893 "/>
<path clip-path="url(#clip981)" d="M842.262 1353.08 L757.019 1353.08 L927.504 1353.08 L842.262 1353.08 L842.262 1120.34 L842.262 1353.08  Z" fill="#ff0000" fill-rule="evenodd" fill-opacity="1"/>
<polyline clip-path="url(#clip981)" style="stroke:#000000; stroke-linecap:round; stroke-linejoin:round; stroke-width:4; stroke-opacity:1; fill:none" points="842.262,1353.08 757.019,1353.08 927.504,1353.08 842.262,1353.08 842.262,1120.34 842.262,1353.08 "/>
<path clip-path="url(#clip981)" d="M1012.75 1120.34 L1012.75 1036.79 L671.777 1036.79 L671.777 1120.34 L1012.75 1120.34 L1012.75 1036.79 L1012.75 1120.34  Z" fill="#ff0000" fill-rule="evenodd" fill-opacity="1"/>
<polyline clip-path="url(#clip981)" style="stroke:#000000; stroke-linecap:round; stroke-linejoin:round; stroke-width:4; stroke-opacity:1; fill:none" points="1012.75,1120.34 1012.75,1036.79 671.777,1036.79 671.777,1120.34 1012.75,1120.34 1012.75,1036.79 1012.75,1120.34 "/>
<path clip-path="url(#clip981)" d="M1012.75 954.167 L671.777 954.167 L671.777 1036.79 L1012.75 1036.79 L1012.75 954.167 L842.262 954.167 L1012.75 954.167  Z" fill="#ff0000" fill-rule="evenodd" fill-opacity="1"/>
<polyline clip-path="url(#clip981)" style="stroke:#000000; stroke-linecap:round; stroke-linejoin:round; stroke-width:4; stroke-opacity:1; fill:none" points="1012.75,954.167 671.777,954.167 671.777,1036.79 1012.75,1036.79 1012.75,954.167 842.262,954.167 1012.75,954.167 "/>
<path clip-path="url(#clip981)" d="M842.262 733.066 L757.019 733.066 L927.504 733.066 L842.262 733.066 L842.262 954.167 L842.262 733.066  Z" fill="#ff0000" fill-rule="evenodd" fill-opacity="1"/>
<polyline clip-path="url(#clip981)" style="stroke:#000000; stroke-linecap:round; stroke-linejoin:round; stroke-width:4; stroke-opacity:1; fill:none" points="842.262,733.066 757.019,733.066 927.504,733.066 842.262,733.066 842.262,954.167 842.262,733.066 "/>
<path clip-path="url(#clip981)" d="M1268.47 1322.46 L1183.23 1322.46 L1353.72 1322.46 L1268.47 1322.46 L1268.47 1079.43 L1268.47 1322.46  Z" fill="#ff0000" fill-rule="evenodd" fill-opacity="1"/>
<polyline clip-path="url(#clip981)" style="stroke:#000000; stroke-linecap:round; stroke-linejoin:round; stroke-width:4; stroke-opacity:1; fill:none" points="1268.47,1322.46 1183.23,1322.46 1353.72,1322.46 1268.47,1322.46 1268.47,1079.43 1268.47,1322.46 "/>
<path clip-path="url(#clip981)" d="M1438.96 1079.43 L1438.96 1001.21 L1097.99 1001.21 L1097.99 1079.43 L1438.96 1079.43 L1438.96 1001.21 L1438.96 1079.43  Z" fill="#ff0000" fill-rule="evenodd" fill-opacity="1"/>
<polyline clip-path="url(#clip981)" style="stroke:#000000; stroke-linecap:round; stroke-linejoin:round; stroke-width:4; stroke-opacity:1; fill:none" points="1438.96,1079.43 1438.96,1001.21 1097.99,1001.21 1097.99,1079.43 1438.96,1079.43 1438.96,1001.21 1438.96,1079.43 "/>
<path clip-path="url(#clip981)" d="M1438.96 914.39 L1097.99 914.39 L1097.99 1001.21 L1438.96 1001.21 L1438.96 914.39 L1268.47 914.39 L1438.96 914.39  Z" fill="#ff0000" fill-rule="evenodd" fill-opacity="1"/>
<polyline clip-path="url(#clip981)" style="stroke:#000000; stroke-linecap:round; stroke-linejoin:round; stroke-width:4; stroke-opacity:1; fill:none" points="1438.96,914.39 1097.99,914.39 1097.99,1001.21 1438.96,1001.21 1438.96,914.39 1268.47,914.39 1438.96,914.39 "/>
<path clip-path="url(#clip981)" d="M1268.47 669.601 L1183.23 669.601 L1353.72 669.601 L1268.47 669.601 L1268.47 914.39 L1268.47 669.601  Z" fill="#ff0000" fill-rule="evenodd" fill-opacity="1"/>
<polyline clip-path="url(#clip981)" style="stroke:#000000; stroke-linecap:round; stroke-linejoin:round; stroke-width:4; stroke-opacity:1; fill:none" points="1268.47,669.601 1183.23,669.601 1353.72,669.601 1268.47,669.601 1268.47,914.39 1268.47,669.601 "/>
<path clip-path="url(#clip981)" d="M1694.69 1238.62 L1609.44 1238.62 L1779.93 1238.62 L1694.69 1238.62 L1694.69 989.935 L1694.69 1238.62  Z" fill="#ff0000" fill-rule="evenodd" fill-opacity="1"/>
<polyline clip-path="url(#clip981)" style="stroke:#000000; stroke-linecap:round; stroke-linejoin:round; stroke-width:4; stroke-opacity:1; fill:none" points="1694.69,1238.62 1609.44,1238.62 1779.93,1238.62 1694.69,1238.62 1694.69,989.935 1694.69,1238.62 "/>
<path clip-path="url(#clip981)" d="M1865.17 989.935 L1865.17 910.424 L1524.2 910.424 L1524.2 989.935 L1865.17 989.935 L1865.17 910.424 L1865.17 989.935  Z" fill="#ff0000" fill-rule="evenodd" fill-opacity="1"/>
<polyline clip-path="url(#clip981)" style="stroke:#000000; stroke-linecap:round; stroke-linejoin:round; stroke-width:4; stroke-opacity:1; fill:none" points="1865.17,989.935 1865.17,910.424 1524.2,910.424 1524.2,989.935 1865.17,989.935 1865.17,910.424 1865.17,989.935 "/>
<path clip-path="url(#clip981)" d="M1865.17 817.93 L1524.2 817.93 L1524.2 910.424 L1865.17 910.424 L1865.17 817.93 L1694.69 817.93 L1865.17 817.93  Z" fill="#ff0000" fill-rule="evenodd" fill-opacity="1"/>
<polyline clip-path="url(#clip981)" style="stroke:#000000; stroke-linecap:round; stroke-linejoin:round; stroke-width:4; stroke-opacity:1; fill:none" points="1865.17,817.93 1524.2,817.93 1524.2,910.424 1865.17,910.424 1865.17,817.93 1694.69,817.93 1865.17,817.93 "/>
<path clip-path="url(#clip981)" d="M1694.69 573.907 L1609.44 573.907 L1779.93 573.907 L1694.69 573.907 L1694.69 817.93 L1694.69 573.907  Z" fill="#ff0000" fill-rule="evenodd" fill-opacity="1"/>
<polyline clip-path="url(#clip981)" style="stroke:#000000; stroke-linecap:round; stroke-linejoin:round; stroke-width:4; stroke-opacity:1; fill:none" points="1694.69,573.907 1609.44,573.907 1779.93,573.907 1694.69,573.907 1694.69,817.93 1694.69,573.907 "/>
<path clip-path="url(#clip981)" d="M2120.9 855.211 L2035.65 855.211 L2206.14 855.211 L2120.9 855.211 L2120.9 614.417 L2120.9 855.211  Z" fill="#ff0000" fill-rule="evenodd" fill-opacity="1"/>
<polyline clip-path="url(#clip981)" style="stroke:#000000; stroke-linecap:round; stroke-linejoin:round; stroke-width:4; stroke-opacity:1; fill:none" points="2120.9,855.211 2035.65,855.211 2206.14,855.211 2120.9,855.211 2120.9,614.417 2120.9,855.211 "/>
<path clip-path="url(#clip981)" d="M2291.38 614.417 L2291.38 523.332 L1950.41 523.332 L1950.41 614.417 L2291.38 614.417 L2291.38 523.332 L2291.38 614.417  Z" fill="#ff0000" fill-rule="evenodd" fill-opacity="1"/>
<polyline clip-path="url(#clip981)" style="stroke:#000000; stroke-linecap:round; stroke-linejoin:round; stroke-width:4; stroke-opacity:1; fill:none" points="2291.38,614.417 2291.38,523.332 1950.41,523.332 1950.41,614.417 2291.38,614.417 2291.38,523.332 2291.38,614.417 "/>
<path clip-path="url(#clip981)" d="M2291.38 434.214 L1950.41 434.214 L1950.41 523.332 L2291.38 523.332 L2291.38 434.214 L2120.9 434.214 L2291.38 434.214  Z" fill="#ff0000" fill-rule="evenodd" fill-opacity="1"/>
<polyline clip-path="url(#clip981)" style="stroke:#000000; stroke-linecap:round; stroke-linejoin:round; stroke-width:4; stroke-opacity:1; fill:none" points="2291.38,434.214 1950.41,434.214 1950.41,523.332 2291.38,523.332 2291.38,434.214 2120.9,434.214 2291.38,434.214 "/>
<path clip-path="url(#clip981)" d="M2120.9 180.406 L2035.65 180.406 L2206.14 180.406 L2120.9 180.406 L2120.9 434.214 L2120.9 180.406  Z" fill="#ff0000" fill-rule="evenodd" fill-opacity="1"/>
<polyline clip-path="url(#clip981)" style="stroke:#000000; stroke-linecap:round; stroke-linejoin:round; stroke-width:4; stroke-opacity:1; fill:none" points="2120.9,180.406 2035.65,180.406 2206.14,180.406 2120.9,180.406 2120.9,434.214 2120.9,180.406 "/>
<circle clip-path="url(#clip981)" cx="416.05" cy="1426.34" r="14.4" fill="#ff0000" fill-rule="evenodd" fill-opacity="1" stroke="#000000" stroke-opacity="1" stroke-width="3.2"/>
<circle clip-path="url(#clip981)" cx="416.05" cy="1440.6" r="14.4" fill="#ff0000" fill-rule="evenodd" fill-opacity="1" stroke="#000000" stroke-opacity="1" stroke-width="3.2"/>
<circle clip-path="url(#clip981)" cx="416.05" cy="1425.91" r="14.4" fill="#ff0000" fill-rule="evenodd" fill-opacity="1" stroke="#000000" stroke-opacity="1" stroke-width="3.2"/>
<circle clip-path="url(#clip981)" cx="416.05" cy="718.888" r="14.4" fill="#ff0000" fill-rule="evenodd" fill-opacity="1" stroke="#000000" stroke-opacity="1" stroke-width="3.2"/>
<circle clip-path="url(#clip981)" cx="416.05" cy="714.204" r="14.4" fill="#ff0000" fill-rule="evenodd" fill-opacity="1" stroke="#000000" stroke-opacity="1" stroke-width="3.2"/>
<circle clip-path="url(#clip981)" cx="842.262" cy="679.801" r="14.4" fill="#ff0000" fill-rule="evenodd" fill-opacity="1" stroke="#000000" stroke-opacity="1" stroke-width="3.2"/>
<circle clip-path="url(#clip981)" cx="842.262" cy="1445.72" r="14.4" fill="#ff0000" fill-rule="evenodd" fill-opacity="1" stroke="#000000" stroke-opacity="1" stroke-width="3.2"/>
<circle clip-path="url(#clip981)" cx="842.262" cy="1372.3" r="14.4" fill="#ff0000" fill-rule="evenodd" fill-opacity="1" stroke="#000000" stroke-opacity="1" stroke-width="3.2"/>
<circle clip-path="url(#clip981)" cx="842.262" cy="1408.71" r="14.4" fill="#ff0000" fill-rule="evenodd" fill-opacity="1" stroke="#000000" stroke-opacity="1" stroke-width="3.2"/>
<circle clip-path="url(#clip981)" cx="842.262" cy="700.172" r="14.4" fill="#ff0000" fill-rule="evenodd" fill-opacity="1" stroke="#000000" stroke-opacity="1" stroke-width="3.2"/>
<circle clip-path="url(#clip981)" cx="842.262" cy="1378.49" r="14.4" fill="#ff0000" fill-rule="evenodd" fill-opacity="1" stroke="#000000" stroke-opacity="1" stroke-width="3.2"/>
<circle clip-path="url(#clip981)" cx="842.262" cy="1397.46" r="14.4" fill="#ff0000" fill-rule="evenodd" fill-opacity="1" stroke="#000000" stroke-opacity="1" stroke-width="3.2"/>
<circle clip-path="url(#clip981)" cx="842.262" cy="696.869" r="14.4" fill="#ff0000" fill-rule="evenodd" fill-opacity="1" stroke="#000000" stroke-opacity="1" stroke-width="3.2"/>
<circle clip-path="url(#clip981)" cx="1268.47" cy="1411.78" r="14.4" fill="#ff0000" fill-rule="evenodd" fill-opacity="1" stroke="#000000" stroke-opacity="1" stroke-width="3.2"/>
<circle clip-path="url(#clip981)" cx="1268.47" cy="1365.16" r="14.4" fill="#ff0000" fill-rule="evenodd" fill-opacity="1" stroke="#000000" stroke-opacity="1" stroke-width="3.2"/>
<circle clip-path="url(#clip981)" cx="1268.47" cy="632.712" r="14.4" fill="#ff0000" fill-rule="evenodd" fill-opacity="1" stroke="#000000" stroke-opacity="1" stroke-width="3.2"/>
<circle clip-path="url(#clip981)" cx="1268.47" cy="1359.38" r="14.4" fill="#ff0000" fill-rule="evenodd" fill-opacity="1" stroke="#000000" stroke-opacity="1" stroke-width="3.2"/>
<circle clip-path="url(#clip981)" cx="1268.47" cy="1335.87" r="14.4" fill="#ff0000" fill-rule="evenodd" fill-opacity="1" stroke="#000000" stroke-opacity="1" stroke-width="3.2"/>
<circle clip-path="url(#clip981)" cx="1694.69" cy="543.763" r="14.4" fill="#ff0000" fill-rule="evenodd" fill-opacity="1" stroke="#000000" stroke-opacity="1" stroke-width="3.2"/>
<circle clip-path="url(#clip981)" cx="1694.69" cy="535.413" r="14.4" fill="#ff0000" fill-rule="evenodd" fill-opacity="1" stroke="#000000" stroke-opacity="1" stroke-width="3.2"/>
<circle clip-path="url(#clip981)" cx="1694.69" cy="468.65" r="14.4" fill="#ff0000" fill-rule="evenodd" fill-opacity="1" stroke="#000000" stroke-opacity="1" stroke-width="3.2"/>
<circle clip-path="url(#clip981)" cx="1694.69" cy="535.453" r="14.4" fill="#ff0000" fill-rule="evenodd" fill-opacity="1" stroke="#000000" stroke-opacity="1" stroke-width="3.2"/>
<circle clip-path="url(#clip981)" cx="1694.69" cy="1281.29" r="14.4" fill="#ff0000" fill-rule="evenodd" fill-opacity="1" stroke="#000000" stroke-opacity="1" stroke-width="3.2"/>
<circle clip-path="url(#clip981)" cx="1694.69" cy="1267.79" r="14.4" fill="#ff0000" fill-rule="evenodd" fill-opacity="1" stroke="#000000" stroke-opacity="1" stroke-width="3.2"/>
<circle clip-path="url(#clip981)" cx="1694.69" cy="1276.54" r="14.4" fill="#ff0000" fill-rule="evenodd" fill-opacity="1" stroke="#000000" stroke-opacity="1" stroke-width="3.2"/>
<circle clip-path="url(#clip981)" cx="1694.69" cy="1313.26" r="14.4" fill="#ff0000" fill-rule="evenodd" fill-opacity="1" stroke="#000000" stroke-opacity="1" stroke-width="3.2"/>
<circle clip-path="url(#clip981)" cx="1694.69" cy="529.137" r="14.4" fill="#ff0000" fill-rule="evenodd" fill-opacity="1" stroke="#000000" stroke-opacity="1" stroke-width="3.2"/>
<circle clip-path="url(#clip981)" cx="1694.69" cy="437.704" r="14.4" fill="#ff0000" fill-rule="evenodd" fill-opacity="1" stroke="#000000" stroke-opacity="1" stroke-width="3.2"/>
<circle clip-path="url(#clip981)" cx="2120.9" cy="118.377" r="14.4" fill="#ff0000" fill-rule="evenodd" fill-opacity="1" stroke="#000000" stroke-opacity="1" stroke-width="3.2"/>
<circle clip-path="url(#clip981)" cx="2120.9" cy="953.866" r="14.4" fill="#ff0000" fill-rule="evenodd" fill-opacity="1" stroke="#000000" stroke-opacity="1" stroke-width="3.2"/>
<circle clip-path="url(#clip981)" cx="2120.9" cy="957.677" r="14.4" fill="#ff0000" fill-rule="evenodd" fill-opacity="1" stroke="#000000" stroke-opacity="1" stroke-width="3.2"/>
<circle clip-path="url(#clip981)" cx="2120.9" cy="158.16" r="14.4" fill="#ff0000" fill-rule="evenodd" fill-opacity="1" stroke="#000000" stroke-opacity="1" stroke-width="3.2"/>
<circle clip-path="url(#clip981)" cx="2120.9" cy="134.705" r="14.4" fill="#ff0000" fill-rule="evenodd" fill-opacity="1" stroke="#000000" stroke-opacity="1" stroke-width="3.2"/>
<circle clip-path="url(#clip981)" cx="2120.9" cy="87.9763" r="14.4" fill="#ff0000" fill-rule="evenodd" fill-opacity="1" stroke="#000000" stroke-opacity="1" stroke-width="3.2"/>
<polyline clip-path="url(#clip981)" style="stroke:#ff0000; stroke-linecap:round; stroke-linejoin:round; stroke-width:0; stroke-opacity:1; fill:none" points="416.05,1404.03 330.808,1404.03 501.292,1404.03 416.05,1404.03 416.05,1155.65 "/>
<polyline clip-path="url(#clip981)" style="stroke:#ff0000; stroke-linecap:round; stroke-linejoin:round; stroke-width:0; stroke-opacity:1; fill:none" points="586.535,1155.65 586.535,1070.75 245.565,1070.75 245.565,1155.65 586.535,1155.65 586.535,1070.75 "/>
<polyline clip-path="url(#clip981)" style="stroke:#ff0000; stroke-linecap:round; stroke-linejoin:round; stroke-width:0; stroke-opacity:1; fill:none" points="586.535,984.219 245.565,984.219 245.565,1070.75 586.535,1070.75 586.535,984.219 416.05,984.219 "/>
<polyline clip-path="url(#clip981)" style="stroke:#ff0000; stroke-linecap:round; stroke-linejoin:round; stroke-width:0; stroke-opacity:1; fill:none" points="416.05,738.893 330.808,738.893 501.292,738.893 416.05,738.893 416.05,984.219 "/>
<polyline clip-path="url(#clip981)" style="stroke:#ff0000; stroke-linecap:round; stroke-linejoin:round; stroke-width:0; stroke-opacity:1; fill:none" points="842.262,1353.08 757.019,1353.08 927.504,1353.08 842.262,1353.08 842.262,1120.34 "/>
<polyline clip-path="url(#clip981)" style="stroke:#ff0000; stroke-linecap:round; stroke-linejoin:round; stroke-width:0; stroke-opacity:1; fill:none" points="1012.75,1120.34 1012.75,1036.79 671.777,1036.79 671.777,1120.34 1012.75,1120.34 1012.75,1036.79 "/>
<polyline clip-path="url(#clip981)" style="stroke:#ff0000; stroke-linecap:round; stroke-linejoin:round; stroke-width:0; stroke-opacity:1; fill:none" points="1012.75,954.167 671.777,954.167 671.777,1036.79 1012.75,1036.79 1012.75,954.167 842.262,954.167 "/>
<polyline clip-path="url(#clip981)" style="stroke:#ff0000; stroke-linecap:round; stroke-linejoin:round; stroke-width:0; stroke-opacity:1; fill:none" points="842.262,733.066 757.019,733.066 927.504,733.066 842.262,733.066 842.262,954.167 "/>
<polyline clip-path="url(#clip981)" style="stroke:#ff0000; stroke-linecap:round; stroke-linejoin:round; stroke-width:0; stroke-opacity:1; fill:none" points="1268.47,1322.46 1183.23,1322.46 1353.72,1322.46 1268.47,1322.46 1268.47,1079.43 "/>
<polyline clip-path="url(#clip981)" style="stroke:#ff0000; stroke-linecap:round; stroke-linejoin:round; stroke-width:0; stroke-opacity:1; fill:none" points="1438.96,1079.43 1438.96,1001.21 1097.99,1001.21 1097.99,1079.43 1438.96,1079.43 1438.96,1001.21 "/>
<polyline clip-path="url(#clip981)" style="stroke:#ff0000; stroke-linecap:round; stroke-linejoin:round; stroke-width:0; stroke-opacity:1; fill:none" points="1438.96,914.39 1097.99,914.39 1097.99,1001.21 1438.96,1001.21 1438.96,914.39 1268.47,914.39 "/>
<polyline clip-path="url(#clip981)" style="stroke:#ff0000; stroke-linecap:round; stroke-linejoin:round; stroke-width:0; stroke-opacity:1; fill:none" points="1268.47,669.601 1183.23,669.601 1353.72,669.601 1268.47,669.601 1268.47,914.39 "/>
<polyline clip-path="url(#clip981)" style="stroke:#ff0000; stroke-linecap:round; stroke-linejoin:round; stroke-width:0; stroke-opacity:1; fill:none" points="1694.69,1238.62 1609.44,1238.62 1779.93,1238.62 1694.69,1238.62 1694.69,989.935 "/>
<polyline clip-path="url(#clip981)" style="stroke:#ff0000; stroke-linecap:round; stroke-linejoin:round; stroke-width:0; stroke-opacity:1; fill:none" points="1865.17,989.935 1865.17,910.424 1524.2,910.424 1524.2,989.935 1865.17,989.935 1865.17,910.424 "/>
<polyline clip-path="url(#clip981)" style="stroke:#ff0000; stroke-linecap:round; stroke-linejoin:round; stroke-width:0; stroke-opacity:1; fill:none" points="1865.17,817.93 1524.2,817.93 1524.2,910.424 1865.17,910.424 1865.17,817.93 1694.69,817.93 "/>
<polyline clip-path="url(#clip981)" style="stroke:#ff0000; stroke-linecap:round; stroke-linejoin:round; stroke-width:0; stroke-opacity:1; fill:none" points="1694.69,573.907 1609.44,573.907 1779.93,573.907 1694.69,573.907 1694.69,817.93 "/>
<polyline clip-path="url(#clip981)" style="stroke:#ff0000; stroke-linecap:round; stroke-linejoin:round; stroke-width:0; stroke-opacity:1; fill:none" points="2120.9,855.211 2035.65,855.211 2206.14,855.211 2120.9,855.211 2120.9,614.417 "/>
<polyline clip-path="url(#clip981)" style="stroke:#ff0000; stroke-linecap:round; stroke-linejoin:round; stroke-width:0; stroke-opacity:1; fill:none" points="2291.38,614.417 2291.38,523.332 1950.41,523.332 1950.41,614.417 2291.38,614.417 2291.38,523.332 "/>
<polyline clip-path="url(#clip981)" style="stroke:#ff0000; stroke-linecap:round; stroke-linejoin:round; stroke-width:0; stroke-opacity:1; fill:none" points="2291.38,434.214 1950.41,434.214 1950.41,523.332 2291.38,523.332 2291.38,434.214 2120.9,434.214 "/>
<polyline clip-path="url(#clip981)" style="stroke:#ff0000; stroke-linecap:round; stroke-linejoin:round; stroke-width:0; stroke-opacity:1; fill:none" points="2120.9,180.406 2035.65,180.406 2206.14,180.406 2120.9,180.406 2120.9,434.214 "/>
</svg>
