<?xml version="1.0" encoding="utf-8"?>
<svg xmlns="http://www.w3.org/2000/svg" xmlns:xlink="http://www.w3.org/1999/xlink" width="600" height="400" viewBox="0 0 2400 1600">
<defs>
  <clipPath id="clip640">
    <rect x="0" y="0" width="2400" height="1600"/>
  </clipPath>
</defs>
<path clip-path="url(#clip640)" d="M0 1600 L2400 1600 L2400 0 L0 0  Z" fill="#ffffff" fill-rule="evenodd" fill-opacity="1"/>
<defs>
  <clipPath id="clip641">
    <rect x="112" y="47" width="2242" height="1440"/>
  </clipPath>
</defs>
<path clip-path="url(#clip640)" d="M112.177 1486.45 L2352.76 1486.45 L2352.76 47.2441 L112.177 47.2441  Z" fill="#ffffff" fill-rule="evenodd" fill-opacity="1"/>
<polyline clip-path="url(#clip641)" style="stroke:#000000; stroke-linecap:round; stroke-linejoin:round; stroke-width:2; stroke-opacity:0.1; fill:none" points="351.736,1486.45 351.736,47.2441 "/>
<polyline clip-path="url(#clip641)" style="stroke:#000000; stroke-linecap:round; stroke-linejoin:round; stroke-width:2; stroke-opacity:0.1; fill:none" points="792.101,1486.45 792.101,47.2441 "/>
<polyline clip-path="url(#clip641)" style="stroke:#000000; stroke-linecap:round; stroke-linejoin:round; stroke-width:2; stroke-opacity:0.1; fill:none" points="1232.47,1486.45 1232.47,47.2441 "/>
<polyline clip-path="url(#clip641)" style="stroke:#000000; stroke-linecap:round; stroke-linejoin:round; stroke-width:2; stroke-opacity:0.1; fill:none" points="1672.83,1486.45 1672.83,47.2441 "/>
<polyline clip-path="url(#clip641)" style="stroke:#000000; stroke-linecap:round; stroke-linejoin:round; stroke-width:2; stroke-opacity:0.1; fill:none" points="2113.2,1486.45 2113.2,47.2441 "/>
<polyline clip-path="url(#clip641)" style="stroke:#000000; stroke-linecap:round; stroke-linejoin:round; stroke-width:2; stroke-opacity:0.1; fill:none" points="112.177,1184.58 2352.76,1184.58 "/>
<polyline clip-path="url(#clip641)" style="stroke:#000000; stroke-linecap:round; stroke-linejoin:round; stroke-width:2; stroke-opacity:0.1; fill:none" points="112.177,864.647 2352.76,864.647 "/>
<polyline clip-path="url(#clip641)" style="stroke:#000000; stroke-linecap:round; stroke-linejoin:round; stroke-width:2; stroke-opacity:0.1; fill:none" points="112.177,544.718 2352.76,544.718 "/>
<polyline clip-path="url(#clip641)" style="stroke:#000000; stroke-linecap:round; stroke-linejoin:round; stroke-width:2; stroke-opacity:0.1; fill:none" points="112.177,224.79 2352.76,224.79 "/>
<polyline clip-path="url(#clip640)" style="stroke:#000000; stroke-linecap:round; stroke-linejoin:round; stroke-width:4; stroke-opacity:1; fill:none" points="112.177,1486.45 2352.76,1486.45 "/>
<polyline clip-path="url(#clip640)" style="stroke:#000000; stroke-linecap:round; stroke-linejoin:round; stroke-width:4; stroke-opacity:1; fill:none" points="351.736,1486.45 351.736,1467.55 "/>
<polyline clip-path="url(#clip640)" style="stroke:#000000; stroke-linecap:round; stroke-linejoin:round; stroke-width:4; stroke-opacity:1; fill:none" points="792.101,1486.45 792.101,1467.55 "/>
<polyline clip-path="url(#clip640)" style="stroke:#000000; stroke-linecap:round; stroke-linejoin:round; stroke-width:4; stroke-opacity:1; fill:none" points="1232.47,1486.45 1232.47,1467.55 "/>
<polyline clip-path="url(#clip640)" style="stroke:#000000; stroke-linecap:round; stroke-linejoin:round; stroke-width:4; stroke-opacity:1; fill:none" points="1672.83,1486.45 1672.83,1467.55 "/>
<polyline clip-path="url(#clip640)" style="stroke:#000000; stroke-linecap:round; stroke-linejoin:round; stroke-width:4; stroke-opacity:1; fill:none" points="2113.2,1486.45 2113.2,1467.55 "/>
<path clip-path="url(#clip640)" d="M326.424 1544.91 L334.062 1544.91 L334.062 1518.55 L325.752 1520.21 L325.752 1515.95 L334.016 1514.29 L338.692 1514.29 L338.692 1544.91 L346.331 1544.91 L346.331 1548.85 L326.424 1548.85 L326.424 1544.91 Z" fill="#000000" fill-rule="nonzero" fill-opacity="1" /><path clip-path="url(#clip640)" d="M365.775 1517.37 Q362.164 1517.37 360.335 1520.93 Q358.53 1524.47 358.53 1531.6 Q358.53 1538.71 360.335 1542.27 Q362.164 1545.82 365.775 1545.82 Q369.409 1545.82 371.215 1542.27 Q373.044 1538.71 373.044 1531.6 Q373.044 1524.47 371.215 1520.93 Q369.409 1517.37 365.775 1517.37 M365.775 1513.66 Q371.585 1513.66 374.641 1518.27 Q377.72 1522.85 377.72 1531.6 Q377.72 1540.33 374.641 1544.94 Q371.585 1549.52 365.775 1549.52 Q359.965 1549.52 356.886 1544.94 Q353.831 1540.33 353.831 1531.6 Q353.831 1522.85 356.886 1518.27 Q359.965 1513.66 365.775 1513.66 Z" fill="#000000" fill-rule="nonzero" fill-opacity="1" /><path clip-path="url(#clip640)" d="M766.8 1514.29 L785.157 1514.29 L785.157 1518.22 L771.083 1518.22 L771.083 1526.7 Q772.101 1526.35 773.12 1526.19 Q774.138 1526 775.157 1526 Q780.944 1526 784.323 1529.17 Q787.703 1532.34 787.703 1537.76 Q787.703 1543.34 784.231 1546.44 Q780.759 1549.52 774.439 1549.52 Q772.263 1549.52 769.995 1549.15 Q767.75 1548.78 765.342 1548.04 L765.342 1543.34 Q767.425 1544.47 769.648 1545.03 Q771.87 1545.58 774.347 1545.58 Q778.351 1545.58 780.689 1543.48 Q783.027 1541.37 783.027 1537.76 Q783.027 1534.15 780.689 1532.04 Q778.351 1529.94 774.347 1529.94 Q772.472 1529.94 770.597 1530.35 Q768.745 1530.77 766.8 1531.65 L766.8 1514.29 Z" fill="#000000" fill-rule="nonzero" fill-opacity="1" /><path clip-path="url(#clip640)" d="M806.916 1517.37 Q803.305 1517.37 801.476 1520.93 Q799.671 1524.47 799.671 1531.6 Q799.671 1538.71 801.476 1542.27 Q803.305 1545.82 806.916 1545.82 Q810.55 1545.82 812.356 1542.27 Q814.184 1538.71 814.184 1531.6 Q814.184 1524.47 812.356 1520.93 Q810.55 1517.37 806.916 1517.37 M806.916 1513.66 Q812.726 1513.66 815.782 1518.27 Q818.86 1522.85 818.86 1531.6 Q818.86 1540.33 815.782 1544.94 Q812.726 1549.52 806.916 1549.52 Q801.106 1549.52 798.027 1544.94 Q794.972 1540.33 794.972 1531.6 Q794.972 1522.85 798.027 1518.27 Q801.106 1513.66 806.916 1513.66 Z" fill="#000000" fill-rule="nonzero" fill-opacity="1" /><path clip-path="url(#clip640)" d="M1192.07 1544.91 L1199.71 1544.91 L1199.71 1518.55 L1191.4 1520.21 L1191.4 1515.95 L1199.67 1514.29 L1204.34 1514.29 L1204.34 1544.91 L1211.98 1544.91 L1211.98 1548.85 L1192.07 1548.85 L1192.07 1544.91 Z" fill="#000000" fill-rule="nonzero" fill-opacity="1" /><path clip-path="url(#clip640)" d="M1231.42 1517.37 Q1227.81 1517.37 1225.99 1520.93 Q1224.18 1524.47 1224.18 1531.6 Q1224.18 1538.71 1225.99 1542.27 Q1227.81 1545.82 1231.42 1545.82 Q1235.06 1545.82 1236.86 1542.27 Q1238.69 1538.71 1238.69 1531.6 Q1238.69 1524.47 1236.86 1520.93 Q1235.06 1517.37 1231.42 1517.37 M1231.42 1513.66 Q1237.24 1513.66 1240.29 1518.27 Q1243.37 1522.85 1243.37 1531.6 Q1243.37 1540.33 1240.29 1544.94 Q1237.24 1549.52 1231.42 1549.52 Q1225.61 1549.52 1222.54 1544.94 Q1219.48 1540.33 1219.48 1531.6 Q1219.48 1522.85 1222.54 1518.27 Q1225.61 1513.66 1231.42 1513.66 Z" fill="#000000" fill-rule="nonzero" fill-opacity="1" /><path clip-path="url(#clip640)" d="M1261.59 1517.37 Q1257.98 1517.37 1256.15 1520.93 Q1254.34 1524.47 1254.34 1531.6 Q1254.34 1538.71 1256.15 1542.27 Q1257.98 1545.82 1261.59 1545.82 Q1265.22 1545.82 1267.03 1542.27 Q1268.86 1538.71 1268.86 1531.6 Q1268.86 1524.47 1267.03 1520.93 Q1265.22 1517.37 1261.59 1517.37 M1261.59 1513.66 Q1267.4 1513.66 1270.45 1518.27 Q1273.53 1522.85 1273.53 1531.6 Q1273.53 1540.33 1270.45 1544.94 Q1267.4 1549.52 1261.59 1549.52 Q1255.78 1549.52 1252.7 1544.94 Q1249.64 1540.33 1249.64 1531.6 Q1249.64 1522.85 1252.7 1518.27 Q1255.78 1513.66 1261.59 1513.66 Z" fill="#000000" fill-rule="nonzero" fill-opacity="1" /><path clip-path="url(#clip640)" d="M1636.52 1544.91 L1652.84 1544.91 L1652.84 1548.85 L1630.9 1548.85 L1630.9 1544.91 Q1633.56 1542.16 1638.14 1537.53 Q1642.75 1532.88 1643.93 1531.53 Q1646.18 1529.01 1647.06 1527.27 Q1647.96 1525.51 1647.96 1523.82 Q1647.96 1521.07 1646.01 1519.33 Q1644.09 1517.6 1640.99 1517.6 Q1638.79 1517.6 1636.34 1518.36 Q1633.91 1519.13 1631.13 1520.68 L1631.13 1515.95 Q1633.95 1514.82 1636.41 1514.24 Q1638.86 1513.66 1640.9 1513.66 Q1646.27 1513.66 1649.46 1516.35 Q1652.66 1519.03 1652.66 1523.52 Q1652.66 1525.65 1651.85 1527.57 Q1651.06 1529.47 1648.95 1532.07 Q1648.38 1532.74 1645.27 1535.95 Q1642.17 1539.15 1636.52 1544.91 Z" fill="#000000" fill-rule="nonzero" fill-opacity="1" /><path clip-path="url(#clip640)" d="M1672.66 1517.37 Q1669.05 1517.37 1667.22 1520.93 Q1665.41 1524.47 1665.41 1531.6 Q1665.41 1538.71 1667.22 1542.27 Q1669.05 1545.82 1672.66 1545.82 Q1676.29 1545.82 1678.1 1542.27 Q1679.93 1538.71 1679.93 1531.6 Q1679.93 1524.47 1678.1 1520.93 Q1676.29 1517.37 1672.66 1517.37 M1672.66 1513.66 Q1678.47 1513.66 1681.52 1518.27 Q1684.6 1522.85 1684.6 1531.6 Q1684.6 1540.33 1681.52 1544.94 Q1678.47 1549.52 1672.66 1549.52 Q1666.85 1549.52 1663.77 1544.94 Q1660.71 1540.33 1660.71 1531.6 Q1660.71 1522.85 1663.77 1518.27 Q1666.85 1513.66 1672.66 1513.66 Z" fill="#000000" fill-rule="nonzero" fill-opacity="1" /><path clip-path="url(#clip640)" d="M1702.82 1517.37 Q1699.21 1517.37 1697.38 1520.93 Q1695.57 1524.47 1695.57 1531.6 Q1695.57 1538.71 1697.38 1542.27 Q1699.21 1545.82 1702.82 1545.82 Q1706.45 1545.82 1708.26 1542.27 Q1710.09 1538.71 1710.09 1531.6 Q1710.09 1524.47 1708.26 1520.93 Q1706.45 1517.37 1702.82 1517.37 M1702.82 1513.66 Q1708.63 1513.66 1711.69 1518.27 Q1714.76 1522.85 1714.76 1531.6 Q1714.76 1540.33 1711.69 1544.94 Q1708.63 1549.52 1702.82 1549.52 Q1697.01 1549.52 1693.93 1544.94 Q1690.88 1540.33 1690.88 1531.6 Q1690.88 1522.85 1693.93 1518.27 Q1697.01 1513.66 1702.82 1513.66 Z" fill="#000000" fill-rule="nonzero" fill-opacity="1" /><path clip-path="url(#clip640)" d="M2072.82 1514.29 L2091.17 1514.29 L2091.17 1518.22 L2077.1 1518.22 L2077.1 1526.7 Q2078.12 1526.35 2079.13 1526.19 Q2080.15 1526 2081.17 1526 Q2086.96 1526 2090.34 1529.17 Q2093.72 1532.34 2093.72 1537.76 Q2093.72 1543.34 2090.25 1546.44 Q2086.77 1549.52 2080.45 1549.52 Q2078.28 1549.52 2076.01 1549.15 Q2073.76 1548.78 2071.36 1548.04 L2071.36 1543.34 Q2073.44 1544.47 2075.66 1545.03 Q2077.88 1545.58 2080.36 1545.58 Q2084.37 1545.58 2086.7 1543.48 Q2089.04 1541.37 2089.04 1537.76 Q2089.04 1534.15 2086.7 1532.04 Q2084.37 1529.94 2080.36 1529.94 Q2078.49 1529.94 2076.61 1530.35 Q2074.76 1530.77 2072.82 1531.65 L2072.82 1514.29 Z" fill="#000000" fill-rule="nonzero" fill-opacity="1" /><path clip-path="url(#clip640)" d="M2112.93 1517.37 Q2109.32 1517.37 2107.49 1520.93 Q2105.69 1524.47 2105.69 1531.6 Q2105.69 1538.71 2107.49 1542.27 Q2109.32 1545.82 2112.93 1545.82 Q2116.57 1545.82 2118.37 1542.27 Q2120.2 1538.71 2120.2 1531.6 Q2120.2 1524.47 2118.37 1520.93 Q2116.57 1517.37 2112.93 1517.37 M2112.93 1513.66 Q2118.74 1513.66 2121.8 1518.27 Q2124.88 1522.85 2124.88 1531.6 Q2124.88 1540.33 2121.8 1544.94 Q2118.74 1549.52 2112.93 1549.52 Q2107.12 1549.52 2104.04 1544.94 Q2100.99 1540.33 2100.99 1531.6 Q2100.99 1522.85 2104.04 1518.27 Q2107.12 1513.66 2112.93 1513.66 Z" fill="#000000" fill-rule="nonzero" fill-opacity="1" /><path clip-path="url(#clip640)" d="M2143.09 1517.37 Q2139.48 1517.37 2137.65 1520.93 Q2135.85 1524.47 2135.85 1531.6 Q2135.85 1538.71 2137.65 1542.27 Q2139.48 1545.82 2143.09 1545.82 Q2146.73 1545.82 2148.53 1542.27 Q2150.36 1538.71 2150.36 1531.6 Q2150.36 1524.47 2148.53 1520.93 Q2146.73 1517.37 2143.09 1517.37 M2143.09 1513.66 Q2148.9 1513.66 2151.96 1518.27 Q2155.04 1522.85 2155.04 1531.6 Q2155.04 1540.33 2151.96 1544.94 Q2148.9 1549.52 2143.09 1549.52 Q2137.28 1549.52 2134.2 1544.94 Q2131.15 1540.33 2131.15 1531.6 Q2131.15 1522.85 2134.2 1518.27 Q2137.28 1513.66 2143.09 1513.66 Z" fill="#000000" fill-rule="nonzero" fill-opacity="1" /><polyline clip-path="url(#clip640)" style="stroke:#000000; stroke-linecap:round; stroke-linejoin:round; stroke-width:4; stroke-opacity:1; fill:none" points="112.177,1486.45 112.177,47.2441 "/>
<polyline clip-path="url(#clip640)" style="stroke:#000000; stroke-linecap:round; stroke-linejoin:round; stroke-width:4; stroke-opacity:1; fill:none" points="112.177,1184.58 131.075,1184.58 "/>
<polyline clip-path="url(#clip640)" style="stroke:#000000; stroke-linecap:round; stroke-linejoin:round; stroke-width:4; stroke-opacity:1; fill:none" points="112.177,864.647 131.075,864.647 "/>
<polyline clip-path="url(#clip640)" style="stroke:#000000; stroke-linecap:round; stroke-linejoin:round; stroke-width:4; stroke-opacity:1; fill:none" points="112.177,544.718 131.075,544.718 "/>
<polyline clip-path="url(#clip640)" style="stroke:#000000; stroke-linecap:round; stroke-linejoin:round; stroke-width:4; stroke-opacity:1; fill:none" points="112.177,224.79 131.075,224.79 "/>
<path clip-path="url(#clip640)" d="M59.8578 1197.92 L76.1772 1197.92 L76.1772 1201.86 L54.2328 1201.86 L54.2328 1197.92 Q56.8949 1195.17 61.4782 1190.54 Q66.0846 1185.88 67.2652 1184.54 Q69.5105 1182.02 70.3902 1180.28 Q71.2929 1178.52 71.2929 1176.83 Q71.2929 1174.08 69.3485 1172.34 Q67.4272 1170.61 64.3254 1170.61 Q62.1263 1170.61 59.6726 1171.37 Q57.2421 1172.13 54.4643 1173.68 L54.4643 1168.96 Q57.2884 1167.83 59.7421 1167.25 Q62.1958 1166.67 64.2328 1166.67 Q69.6031 1166.67 72.7976 1169.36 Q75.992 1172.04 75.992 1176.53 Q75.992 1178.66 75.1818 1180.58 Q74.3948 1182.48 72.2883 1185.07 Q71.7096 1185.74 68.6078 1188.96 Q65.5059 1192.16 59.8578 1197.92 Z" fill="#000000" fill-rule="nonzero" fill-opacity="1" /><path clip-path="url(#clip640)" d="M66.5939 851.441 L54.7884 869.89 L66.5939 869.89 L66.5939 851.441 M65.367 847.367 L71.2466 847.367 L71.2466 869.89 L76.1772 869.89 L76.1772 873.779 L71.2466 873.779 L71.2466 881.927 L66.5939 881.927 L66.5939 873.779 L50.9921 873.779 L50.9921 869.265 L65.367 847.367 Z" fill="#000000" fill-rule="nonzero" fill-opacity="1" /><path clip-path="url(#clip640)" d="M64.6495 542.855 Q61.5013 542.855 59.6495 545.008 Q57.8208 547.16 57.8208 550.91 Q57.8208 554.637 59.6495 556.813 Q61.5013 558.966 64.6495 558.966 Q67.7976 558.966 69.6263 556.813 Q71.4781 554.637 71.4781 550.91 Q71.4781 547.16 69.6263 545.008 Q67.7976 542.855 64.6495 542.855 M73.9318 528.202 L73.9318 532.461 Q72.1726 531.628 70.367 531.188 Q68.5846 530.748 66.8254 530.748 Q62.1958 530.748 59.7421 533.873 Q57.3115 536.998 56.9643 543.318 Q58.33 541.304 60.3902 540.239 Q62.4504 539.151 64.9272 539.151 Q70.1355 539.151 73.1448 542.322 Q76.1772 545.471 76.1772 550.91 Q76.1772 556.234 73.029 559.452 Q69.8809 562.67 64.6495 562.67 Q58.6541 562.67 55.4828 558.086 Q52.3116 553.48 52.3116 544.753 Q52.3116 536.559 56.2004 531.697 Q60.0893 526.813 66.6402 526.813 Q68.3994 526.813 70.1818 527.16 Q71.9874 527.508 73.9318 528.202 Z" fill="#000000" fill-rule="nonzero" fill-opacity="1" /><path clip-path="url(#clip640)" d="M64.3254 225.658 Q60.9921 225.658 59.0708 227.44 Q57.1726 229.222 57.1726 232.347 Q57.1726 235.472 59.0708 237.255 Q60.9921 239.037 64.3254 239.037 Q67.6587 239.037 69.58 237.255 Q71.5013 235.449 71.5013 232.347 Q71.5013 229.222 69.58 227.44 Q67.6819 225.658 64.3254 225.658 M59.6495 223.667 Q56.6402 222.926 54.9504 220.866 Q53.2838 218.806 53.2838 215.843 Q53.2838 211.699 56.2236 209.292 Q59.1865 206.885 64.3254 206.885 Q69.4874 206.885 72.4272 209.292 Q75.367 211.699 75.367 215.843 Q75.367 218.806 73.6772 220.866 Q72.0105 222.926 69.0244 223.667 Q72.404 224.454 74.279 226.746 Q76.1772 229.037 76.1772 232.347 Q76.1772 237.37 73.0985 240.056 Q70.0429 242.741 64.3254 242.741 Q58.6078 242.741 55.5291 240.056 Q52.4736 237.37 52.4736 232.347 Q52.4736 229.037 54.3717 226.746 Q56.2699 224.454 59.6495 223.667 M57.9365 216.283 Q57.9365 218.968 59.6032 220.472 Q61.293 221.977 64.3254 221.977 Q67.3346 221.977 69.0244 220.472 Q70.7374 218.968 70.7374 216.283 Q70.7374 213.597 69.0244 212.093 Q67.3346 210.588 64.3254 210.588 Q61.293 210.588 59.6032 212.093 Q57.9365 213.597 57.9365 216.283 Z" fill="#000000" fill-rule="nonzero" fill-opacity="1" /><path clip-path="url(#clip641)" d="M351.736 700.403 L263.663 700.403 L439.809 700.403 L351.736 700.403 L351.736 466.045 L351.736 700.403  Z" fill="#00008b" fill-rule="evenodd" fill-opacity="1"/>
<polyline clip-path="url(#clip641)" style="stroke:#000000; stroke-linecap:round; stroke-linejoin:round; stroke-width:4; stroke-opacity:1; fill:none" points="351.736,700.403 263.663,700.403 439.809,700.403 351.736,700.403 351.736,466.045 351.736,700.403 "/>
<path clip-path="url(#clip641)" d="M527.882 466.045 L527.882 391.421 L175.59 391.421 L175.59 466.045 L527.882 466.045 L527.882 391.421 L527.882 466.045  Z" fill="#00008b" fill-rule="evenodd" fill-opacity="1"/>
<polyline clip-path="url(#clip641)" style="stroke:#000000; stroke-linecap:round; stroke-linejoin:round; stroke-width:4; stroke-opacity:1; fill:none" points="527.882,466.045 527.882,391.421 175.59,391.421 175.59,466.045 527.882,466.045 527.882,391.421 527.882,466.045 "/>
<path clip-path="url(#clip641)" d="M527.882 305.545 L175.59 305.545 L175.59 391.421 L527.882 391.421 L527.882 305.545 L351.736 305.545 L527.882 305.545  Z" fill="#00008b" fill-rule="evenodd" fill-opacity="1"/>
<polyline clip-path="url(#clip641)" style="stroke:#000000; stroke-linecap:round; stroke-linejoin:round; stroke-width:4; stroke-opacity:1; fill:none" points="527.882,305.545 175.59,305.545 175.59,391.421 527.882,391.421 527.882,305.545 351.736,305.545 527.882,305.545 "/>
<path clip-path="url(#clip641)" d="M351.736 87.9763 L263.663 87.9763 L439.809 87.9763 L351.736 87.9763 L351.736 305.545 L351.736 87.9763  Z" fill="#00008b" fill-rule="evenodd" fill-opacity="1"/>
<polyline clip-path="url(#clip641)" style="stroke:#000000; stroke-linecap:round; stroke-linejoin:round; stroke-width:4; stroke-opacity:1; fill:none" points="351.736,87.9763 263.663,87.9763 439.809,87.9763 351.736,87.9763 351.736,305.545 351.736,87.9763 "/>
<path clip-path="url(#clip641)" d="M792.101 1233.1 L704.028 1233.1 L880.174 1233.1 L792.101 1233.1 L792.101 1130.78 L792.101 1233.1  Z" fill="#00008b" fill-rule="evenodd" fill-opacity="1"/>
<polyline clip-path="url(#clip641)" style="stroke:#000000; stroke-linecap:round; stroke-linejoin:round; stroke-width:4; stroke-opacity:1; fill:none" points="792.101,1233.1 704.028,1233.1 880.174,1233.1 792.101,1233.1 792.101,1130.78 792.101,1233.1 "/>
<path clip-path="url(#clip641)" d="M968.247 1130.78 L968.247 1093.1 L615.955 1093.1 L615.955 1130.78 L968.247 1130.78 L968.247 1093.1 L968.247 1130.78  Z" fill="#00008b" fill-rule="evenodd" fill-opacity="1"/>
<polyline clip-path="url(#clip641)" style="stroke:#000000; stroke-linecap:round; stroke-linejoin:round; stroke-width:4; stroke-opacity:1; fill:none" points="968.247,1130.78 968.247,1093.1 615.955,1093.1 615.955,1130.78 968.247,1130.78 968.247,1093.1 968.247,1130.78 "/>
<path clip-path="url(#clip641)" d="M968.247 1060.82 L615.955 1060.82 L615.955 1093.1 L968.247 1093.1 L968.247 1060.82 L792.101 1060.82 L968.247 1060.82  Z" fill="#00008b" fill-rule="evenodd" fill-opacity="1"/>
<polyline clip-path="url(#clip641)" style="stroke:#000000; stroke-linecap:round; stroke-linejoin:round; stroke-width:4; stroke-opacity:1; fill:none" points="968.247,1060.82 615.955,1060.82 615.955,1093.1 968.247,1093.1 968.247,1060.82 792.101,1060.82 968.247,1060.82 "/>
<path clip-path="url(#clip641)" d="M792.101 968.459 L704.028 968.459 L880.174 968.459 L792.101 968.459 L792.101 1060.82 L792.101 968.459  Z" fill="#00008b" fill-rule="evenodd" fill-opacity="1"/>
<polyline clip-path="url(#clip641)" style="stroke:#000000; stroke-linecap:round; stroke-linejoin:round; stroke-width:4; stroke-opacity:1; fill:none" points="792.101,968.459 704.028,968.459 880.174,968.459 792.101,968.459 792.101,1060.82 792.101,968.459 "/>
<path clip-path="url(#clip641)" d="M1232.47 1331.73 L1144.39 1331.73 L1320.54 1331.73 L1232.47 1331.73 L1232.47 1259.03 L1232.47 1331.73  Z" fill="#00008b" fill-rule="evenodd" fill-opacity="1"/>
<polyline clip-path="url(#clip641)" style="stroke:#000000; stroke-linecap:round; stroke-linejoin:round; stroke-width:4; stroke-opacity:1; fill:none" points="1232.47,1331.73 1144.39,1331.73 1320.54,1331.73 1232.47,1331.73 1232.47,1259.03 1232.47,1331.73 "/>
<path clip-path="url(#clip641)" d="M1408.61 1259.03 L1408.61 1232.88 L1056.32 1232.88 L1056.32 1259.03 L1408.61 1259.03 L1408.61 1232.88 L1408.61 1259.03  Z" fill="#00008b" fill-rule="evenodd" fill-opacity="1"/>
<polyline clip-path="url(#clip641)" style="stroke:#000000; stroke-linecap:round; stroke-linejoin:round; stroke-width:4; stroke-opacity:1; fill:none" points="1408.61,1259.03 1408.61,1232.88 1056.32,1232.88 1056.32,1259.03 1408.61,1259.03 1408.61,1232.88 1408.61,1259.03 "/>
<path clip-path="url(#clip641)" d="M1408.61 1208.92 L1056.32 1208.92 L1056.32 1232.88 L1408.61 1232.88 L1408.61 1208.92 L1232.47 1208.92 L1408.61 1208.92  Z" fill="#00008b" fill-rule="evenodd" fill-opacity="1"/>
<polyline clip-path="url(#clip641)" style="stroke:#000000; stroke-linecap:round; stroke-linejoin:round; stroke-width:4; stroke-opacity:1; fill:none" points="1408.61,1208.92 1056.32,1208.92 1056.32,1232.88 1408.61,1232.88 1408.61,1208.92 1232.47,1208.92 1408.61,1208.92 "/>
<path clip-path="url(#clip641)" d="M1232.47 1139.78 L1144.39 1139.78 L1320.54 1139.78 L1232.47 1139.78 L1232.47 1208.92 L1232.47 1139.78  Z" fill="#00008b" fill-rule="evenodd" fill-opacity="1"/>
<polyline clip-path="url(#clip641)" style="stroke:#000000; stroke-linecap:round; stroke-linejoin:round; stroke-width:4; stroke-opacity:1; fill:none" points="1232.47,1139.78 1144.39,1139.78 1320.54,1139.78 1232.47,1139.78 1232.47,1208.92 1232.47,1139.78 "/>
<path clip-path="url(#clip641)" d="M1672.83 1387.48 L1584.76 1387.48 L1760.9 1387.48 L1672.83 1387.48 L1672.83 1341.33 L1672.83 1387.48  Z" fill="#00008b" fill-rule="evenodd" fill-opacity="1"/>
<polyline clip-path="url(#clip641)" style="stroke:#000000; stroke-linecap:round; stroke-linejoin:round; stroke-width:4; stroke-opacity:1; fill:none" points="1672.83,1387.48 1584.76,1387.48 1760.9,1387.48 1672.83,1387.48 1672.83,1341.33 1672.83,1387.48 "/>
<path clip-path="url(#clip641)" d="M1848.98 1341.33 L1848.98 1323.76 L1496.69 1323.76 L1496.69 1341.33 L1848.98 1341.33 L1848.98 1323.76 L1848.98 1341.33  Z" fill="#00008b" fill-rule="evenodd" fill-opacity="1"/>
<polyline clip-path="url(#clip641)" style="stroke:#000000; stroke-linecap:round; stroke-linejoin:round; stroke-width:4; stroke-opacity:1; fill:none" points="1848.98,1341.33 1848.98,1323.76 1496.69,1323.76 1496.69,1341.33 1848.98,1341.33 1848.98,1323.76 1848.98,1341.33 "/>
<path clip-path="url(#clip641)" d="M1848.98 1309.59 L1496.69 1309.59 L1496.69 1323.76 L1848.98 1323.76 L1848.98 1309.59 L1672.83 1309.59 L1848.98 1309.59  Z" fill="#00008b" fill-rule="evenodd" fill-opacity="1"/>
<polyline clip-path="url(#clip641)" style="stroke:#000000; stroke-linecap:round; stroke-linejoin:round; stroke-width:4; stroke-opacity:1; fill:none" points="1848.98,1309.59 1496.69,1309.59 1496.69,1323.76 1848.98,1323.76 1848.98,1309.59 1672.83,1309.59 1848.98,1309.59 "/>
<path clip-path="url(#clip641)" d="M1672.83 1270.45 L1584.76 1270.45 L1760.9 1270.45 L1672.83 1270.45 L1672.83 1309.59 L1672.83 1270.45  Z" fill="#00008b" fill-rule="evenodd" fill-opacity="1"/>
<polyline clip-path="url(#clip641)" style="stroke:#000000; stroke-linecap:round; stroke-linejoin:round; stroke-width:4; stroke-opacity:1; fill:none" points="1672.83,1270.45 1584.76,1270.45 1760.9,1270.45 1672.83,1270.45 1672.83,1309.59 1672.83,1270.45 "/>
<path clip-path="url(#clip641)" d="M2113.2 1435.05 L2025.12 1435.05 L2201.27 1435.05 L2113.2 1435.05 L2113.2 1408.05 L2113.2 1435.05  Z" fill="#00008b" fill-rule="evenodd" fill-opacity="1"/>
<polyline clip-path="url(#clip641)" style="stroke:#000000; stroke-linecap:round; stroke-linejoin:round; stroke-width:4; stroke-opacity:1; fill:none" points="2113.2,1435.05 2025.12,1435.05 2201.27,1435.05 2113.2,1435.05 2113.2,1408.05 2113.2,1435.05 "/>
<path clip-path="url(#clip641)" d="M2289.34 1408.05 L2289.34 1397.99 L1937.05 1397.99 L1937.05 1408.05 L2289.34 1408.05 L2289.34 1397.99 L2289.34 1408.05  Z" fill="#00008b" fill-rule="evenodd" fill-opacity="1"/>
<polyline clip-path="url(#clip641)" style="stroke:#000000; stroke-linecap:round; stroke-linejoin:round; stroke-width:4; stroke-opacity:1; fill:none" points="2289.34,1408.05 2289.34,1397.99 1937.05,1397.99 1937.05,1408.05 2289.34,1408.05 2289.34,1397.99 2289.34,1408.05 "/>
<path clip-path="url(#clip641)" d="M2289.34 1389.9 L1937.05 1389.9 L1937.05 1397.99 L2289.34 1397.99 L2289.34 1389.9 L2113.2 1389.9 L2289.34 1389.9  Z" fill="#00008b" fill-rule="evenodd" fill-opacity="1"/>
<polyline clip-path="url(#clip641)" style="stroke:#000000; stroke-linecap:round; stroke-linejoin:round; stroke-width:4; stroke-opacity:1; fill:none" points="2289.34,1389.9 1937.05,1389.9 1937.05,1397.99 2289.34,1397.99 2289.34,1389.9 2113.2,1389.9 2289.34,1389.9 "/>
<path clip-path="url(#clip641)" d="M2113.2 1364.67 L2025.12 1364.67 L2201.27 1364.67 L2113.2 1364.67 L2113.2 1389.9 L2113.2 1364.67  Z" fill="#00008b" fill-rule="evenodd" fill-opacity="1"/>
<polyline clip-path="url(#clip641)" style="stroke:#000000; stroke-linecap:round; stroke-linejoin:round; stroke-width:4; stroke-opacity:1; fill:none" points="2113.2,1364.67 2025.12,1364.67 2201.27,1364.67 2113.2,1364.67 2113.2,1389.9 2113.2,1364.67 "/>
<circle clip-path="url(#clip641)" cx="351.736" cy="807.225" r="14.4" fill="#00008b" fill-rule="evenodd" fill-opacity="1" stroke="#000000" stroke-opacity="1" stroke-width="3.2"/>
<circle clip-path="url(#clip641)" cx="351.736" cy="713.799" r="14.4" fill="#00008b" fill-rule="evenodd" fill-opacity="1" stroke="#000000" stroke-opacity="1" stroke-width="3.2"/>
<circle clip-path="url(#clip641)" cx="351.736" cy="744.242" r="14.4" fill="#00008b" fill-rule="evenodd" fill-opacity="1" stroke="#000000" stroke-opacity="1" stroke-width="3.2"/>
<circle clip-path="url(#clip641)" cx="351.736" cy="773.06" r="14.4" fill="#00008b" fill-rule="evenodd" fill-opacity="1" stroke="#000000" stroke-opacity="1" stroke-width="3.2"/>
<circle clip-path="url(#clip641)" cx="792.101" cy="1245.32" r="14.4" fill="#00008b" fill-rule="evenodd" fill-opacity="1" stroke="#000000" stroke-opacity="1" stroke-width="3.2"/>
<circle clip-path="url(#clip641)" cx="792.101" cy="1242.35" r="14.4" fill="#00008b" fill-rule="evenodd" fill-opacity="1" stroke="#000000" stroke-opacity="1" stroke-width="3.2"/>
<circle clip-path="url(#clip641)" cx="1672.83" cy="1389.5" r="14.4" fill="#00008b" fill-rule="evenodd" fill-opacity="1" stroke="#000000" stroke-opacity="1" stroke-width="3.2"/>
<circle clip-path="url(#clip641)" cx="1672.83" cy="1391.83" r="14.4" fill="#00008b" fill-rule="evenodd" fill-opacity="1" stroke="#000000" stroke-opacity="1" stroke-width="3.2"/>
<circle clip-path="url(#clip641)" cx="1672.83" cy="1395.56" r="14.4" fill="#00008b" fill-rule="evenodd" fill-opacity="1" stroke="#000000" stroke-opacity="1" stroke-width="3.2"/>
<circle clip-path="url(#clip641)" cx="1672.83" cy="1397.3" r="14.4" fill="#00008b" fill-rule="evenodd" fill-opacity="1" stroke="#000000" stroke-opacity="1" stroke-width="3.2"/>
<circle clip-path="url(#clip641)" cx="1672.83" cy="1394.55" r="14.4" fill="#00008b" fill-rule="evenodd" fill-opacity="1" stroke="#000000" stroke-opacity="1" stroke-width="3.2"/>
<circle clip-path="url(#clip641)" cx="1672.83" cy="1390.14" r="14.4" fill="#00008b" fill-rule="evenodd" fill-opacity="1" stroke="#000000" stroke-opacity="1" stroke-width="3.2"/>
<circle clip-path="url(#clip641)" cx="1672.83" cy="1405.31" r="14.4" fill="#00008b" fill-rule="evenodd" fill-opacity="1" stroke="#000000" stroke-opacity="1" stroke-width="3.2"/>
<circle clip-path="url(#clip641)" cx="1672.83" cy="1408.48" r="14.4" fill="#00008b" fill-rule="evenodd" fill-opacity="1" stroke="#000000" stroke-opacity="1" stroke-width="3.2"/>
<circle clip-path="url(#clip641)" cx="2113.2" cy="1436.9" r="14.4" fill="#00008b" fill-rule="evenodd" fill-opacity="1" stroke="#000000" stroke-opacity="1" stroke-width="3.2"/>
<circle clip-path="url(#clip641)" cx="2113.2" cy="1437.68" r="14.4" fill="#00008b" fill-rule="evenodd" fill-opacity="1" stroke="#000000" stroke-opacity="1" stroke-width="3.2"/>
<circle clip-path="url(#clip641)" cx="2113.2" cy="1442.25" r="14.4" fill="#00008b" fill-rule="evenodd" fill-opacity="1" stroke="#000000" stroke-opacity="1" stroke-width="3.2"/>
<circle clip-path="url(#clip641)" cx="2113.2" cy="1441.33" r="14.4" fill="#00008b" fill-rule="evenodd" fill-opacity="1" stroke="#000000" stroke-opacity="1" stroke-width="3.2"/>
<circle clip-path="url(#clip641)" cx="2113.2" cy="1437.63" r="14.4" fill="#00008b" fill-rule="evenodd" fill-opacity="1" stroke="#000000" stroke-opacity="1" stroke-width="3.2"/>
<circle clip-path="url(#clip641)" cx="2113.2" cy="1436.6" r="14.4" fill="#00008b" fill-rule="evenodd" fill-opacity="1" stroke="#000000" stroke-opacity="1" stroke-width="3.2"/>
<circle clip-path="url(#clip641)" cx="2113.2" cy="1443.58" r="14.4" fill="#00008b" fill-rule="evenodd" fill-opacity="1" stroke="#000000" stroke-opacity="1" stroke-width="3.2"/>
<circle clip-path="url(#clip641)" cx="2113.2" cy="1440.42" r="14.4" fill="#00008b" fill-rule="evenodd" fill-opacity="1" stroke="#000000" stroke-opacity="1" stroke-width="3.2"/>
<circle clip-path="url(#clip641)" cx="2113.2" cy="1436.95" r="14.4" fill="#00008b" fill-rule="evenodd" fill-opacity="1" stroke="#000000" stroke-opacity="1" stroke-width="3.2"/>
<circle clip-path="url(#clip641)" cx="2113.2" cy="1437.49" r="14.4" fill="#00008b" fill-rule="evenodd" fill-opacity="1" stroke="#000000" stroke-opacity="1" stroke-width="3.2"/>
<circle clip-path="url(#clip641)" cx="2113.2" cy="1437.25" r="14.4" fill="#00008b" fill-rule="evenodd" fill-opacity="1" stroke="#000000" stroke-opacity="1" stroke-width="3.2"/>
<circle clip-path="url(#clip641)" cx="2113.2" cy="1445.13" r="14.4" fill="#00008b" fill-rule="evenodd" fill-opacity="1" stroke="#000000" stroke-opacity="1" stroke-width="3.2"/>
<circle clip-path="url(#clip641)" cx="2113.2" cy="1438.77" r="14.4" fill="#00008b" fill-rule="evenodd" fill-opacity="1" stroke="#000000" stroke-opacity="1" stroke-width="3.2"/>
<circle clip-path="url(#clip641)" cx="2113.2" cy="1437.95" r="14.4" fill="#00008b" fill-rule="evenodd" fill-opacity="1" stroke="#000000" stroke-opacity="1" stroke-width="3.2"/>
<circle clip-path="url(#clip641)" cx="2113.2" cy="1445.72" r="14.4" fill="#00008b" fill-rule="evenodd" fill-opacity="1" stroke="#000000" stroke-opacity="1" stroke-width="3.2"/>
<circle clip-path="url(#clip641)" cx="2113.2" cy="1436.24" r="14.4" fill="#00008b" fill-rule="evenodd" fill-opacity="1" stroke="#000000" stroke-opacity="1" stroke-width="3.2"/>
<polyline clip-path="url(#clip641)" style="stroke:#00008b; stroke-linecap:round; stroke-linejoin:round; stroke-width:0; stroke-opacity:1; fill:none" points="351.736,700.403 263.663,700.403 439.809,700.403 351.736,700.403 351.736,466.045 "/>
<polyline clip-path="url(#clip641)" style="stroke:#00008b; stroke-linecap:round; stroke-linejoin:round; stroke-width:0; stroke-opacity:1; fill:none" points="527.882,466.045 527.882,391.421 175.59,391.421 175.59,466.045 527.882,466.045 527.882,391.421 "/>
<polyline clip-path="url(#clip641)" style="stroke:#00008b; stroke-linecap:round; stroke-linejoin:round; stroke-width:0; stroke-opacity:1; fill:none" points="527.882,305.545 175.59,305.545 175.59,391.421 527.882,391.421 527.882,305.545 351.736,305.545 "/>
<polyline clip-path="url(#clip641)" style="stroke:#00008b; stroke-linecap:round; stroke-linejoin:round; stroke-width:0; stroke-opacity:1; fill:none" points="351.736,87.9763 263.663,87.9763 439.809,87.9763 351.736,87.9763 351.736,305.545 "/>
<polyline clip-path="url(#clip641)" style="stroke:#00008b; stroke-linecap:round; stroke-linejoin:round; stroke-width:0; stroke-opacity:1; fill:none" points="792.101,1233.1 704.028,1233.1 880.174,1233.1 792.101,1233.1 792.101,1130.78 "/>
<polyline clip-path="url(#clip641)" style="stroke:#00008b; stroke-linecap:round; stroke-linejoin:round; stroke-width:0; stroke-opacity:1; fill:none" points="968.247,1130.78 968.247,1093.1 615.955,1093.1 615.955,1130.78 968.247,1130.78 968.247,1093.1 "/>
<polyline clip-path="url(#clip641)" style="stroke:#00008b; stroke-linecap:round; stroke-linejoin:round; stroke-width:0; stroke-opacity:1; fill:none" points="968.247,1060.82 615.955,1060.82 615.955,1093.1 968.247,1093.1 968.247,1060.82 792.101,1060.82 "/>
<polyline clip-path="url(#clip641)" style="stroke:#00008b; stroke-linecap:round; stroke-linejoin:round; stroke-width:0; stroke-opacity:1; fill:none" points="792.101,968.459 704.028,968.459 880.174,968.459 792.101,968.459 792.101,1060.82 "/>
<polyline clip-path="url(#clip641)" style="stroke:#00008b; stroke-linecap:round; stroke-linejoin:round; stroke-width:0; stroke-opacity:1; fill:none" points="1232.47,1331.73 1144.39,1331.73 1320.54,1331.73 1232.47,1331.73 1232.47,1259.03 "/>
<polyline clip-path="url(#clip641)" style="stroke:#00008b; stroke-linecap:round; stroke-linejoin:round; stroke-width:0; stroke-opacity:1; fill:none" points="1408.61,1259.03 1408.61,1232.88 1056.32,1232.88 1056.32,1259.03 1408.61,1259.03 1408.61,1232.88 "/>
<polyline clip-path="url(#clip641)" style="stroke:#00008b; stroke-linecap:round; stroke-linejoin:round; stroke-width:0; stroke-opacity:1; fill:none" points="1408.61,1208.92 1056.32,1208.92 1056.32,1232.88 1408.61,1232.88 1408.61,1208.92 1232.47,1208.92 "/>
<polyline clip-path="url(#clip641)" style="stroke:#00008b; stroke-linecap:round; stroke-linejoin:round; stroke-width:0; stroke-opacity:1; fill:none" points="1232.47,1139.78 1144.39,1139.78 1320.54,1139.78 1232.47,1139.78 1232.47,1208.92 "/>
<polyline clip-path="url(#clip641)" style="stroke:#00008b; stroke-linecap:round; stroke-linejoin:round; stroke-width:0; stroke-opacity:1; fill:none" points="1672.83,1387.48 1584.76,1387.48 1760.9,1387.48 1672.83,1387.48 1672.83,1341.33 "/>
<polyline clip-path="url(#clip641)" style="stroke:#00008b; stroke-linecap:round; stroke-linejoin:round; stroke-width:0; stroke-opacity:1; fill:none" points="1848.98,1341.33 1848.98,1323.76 1496.69,1323.76 1496.69,1341.33 1848.98,1341.33 1848.98,1323.76 "/>
<polyline clip-path="url(#clip641)" style="stroke:#00008b; stroke-linecap:round; stroke-linejoin:round; stroke-width:0; stroke-opacity:1; fill:none" points="1848.98,1309.59 1496.69,1309.59 1496.69,1323.76 1848.98,1323.76 1848.98,1309.59 1672.83,1309.59 "/>
<polyline clip-path="url(#clip641)" style="stroke:#00008b; stroke-linecap:round; stroke-linejoin:round; stroke-width:0; stroke-opacity:1; fill:none" points="1672.83,1270.45 1584.76,1270.45 1760.9,1270.45 1672.83,1270.45 1672.83,1309.59 "/>
<polyline clip-path="url(#clip641)" style="stroke:#00008b; stroke-linecap:round; stroke-linejoin:round; stroke-width:0; stroke-opacity:1; fill:none" points="2113.2,1435.05 2025.12,1435.05 2201.27,1435.05 2113.2,1435.05 2113.2,1408.05 "/>
<polyline clip-path="url(#clip641)" style="stroke:#00008b; stroke-linecap:round; stroke-linejoin:round; stroke-width:0; stroke-opacity:1; fill:none" points="2289.34,1408.05 2289.34,1397.99 1937.05,1397.99 1937.05,1408.05 2289.34,1408.05 2289.34,1397.99 "/>
<polyline clip-path="url(#clip641)" style="stroke:#00008b; stroke-linecap:round; stroke-linejoin:round; stroke-width:0; stroke-opacity:1; fill:none" points="2289.34,1389.9 1937.05,1389.9 1937.05,1397.99 2289.34,1397.99 2289.34,1389.9 2113.2,1389.9 "/>
<polyline clip-path="url(#clip641)" style="stroke:#00008b; stroke-linecap:round; stroke-linejoin:round; stroke-width:0; stroke-opacity:1; fill:none" points="2113.2,1364.67 2025.12,1364.67 2201.27,1364.67 2113.2,1364.67 2113.2,1389.9 "/>
</svg>
