<?xml version="1.0" encoding="utf-8"?>
<svg xmlns="http://www.w3.org/2000/svg" xmlns:xlink="http://www.w3.org/1999/xlink" width="600" height="400" viewBox="0 0 2400 1600">
<defs>
  <clipPath id="clip800">
    <rect x="0" y="0" width="2400" height="1600"/>
  </clipPath>
</defs>
<path clip-path="url(#clip800)" d="M0 1600 L2400 1600 L2400 0 L0 0  Z" fill="#ffffff" fill-rule="evenodd" fill-opacity="1"/>
<defs>
  <clipPath id="clip801">
    <rect x="170" y="47" width="2183" height="1440"/>
  </clipPath>
</defs>
<path clip-path="url(#clip800)" d="M170.857 1486.45 L2352.76 1486.45 L2352.76 47.2441 L170.857 47.2441  Z" fill="#ffffff" fill-rule="evenodd" fill-opacity="1"/>
<polyline clip-path="url(#clip801)" style="stroke:#000000; stroke-linecap:round; stroke-linejoin:round; stroke-width:2; stroke-opacity:0.1; fill:none" points="452.689,1486.45 452.689,47.2441 "/>
<polyline clip-path="url(#clip801)" style="stroke:#000000; stroke-linecap:round; stroke-linejoin:round; stroke-width:2; stroke-opacity:0.1; fill:none" points="857.248,1486.45 857.248,47.2441 "/>
<polyline clip-path="url(#clip801)" style="stroke:#000000; stroke-linecap:round; stroke-linejoin:round; stroke-width:2; stroke-opacity:0.1; fill:none" points="1261.81,1486.45 1261.81,47.2441 "/>
<polyline clip-path="url(#clip801)" style="stroke:#000000; stroke-linecap:round; stroke-linejoin:round; stroke-width:2; stroke-opacity:0.1; fill:none" points="1666.37,1486.45 1666.37,47.2441 "/>
<polyline clip-path="url(#clip801)" style="stroke:#000000; stroke-linecap:round; stroke-linejoin:round; stroke-width:2; stroke-opacity:0.1; fill:none" points="2070.92,1486.45 2070.92,47.2441 "/>
<polyline clip-path="url(#clip801)" style="stroke:#000000; stroke-linecap:round; stroke-linejoin:round; stroke-width:2; stroke-opacity:0.1; fill:none" points="170.857,1486.45 2352.76,1486.45 "/>
<polyline clip-path="url(#clip801)" style="stroke:#000000; stroke-linecap:round; stroke-linejoin:round; stroke-width:2; stroke-opacity:0.1; fill:none" points="170.857,1119.73 2352.76,1119.73 "/>
<polyline clip-path="url(#clip801)" style="stroke:#000000; stroke-linecap:round; stroke-linejoin:round; stroke-width:2; stroke-opacity:0.1; fill:none" points="170.857,753.004 2352.76,753.004 "/>
<polyline clip-path="url(#clip801)" style="stroke:#000000; stroke-linecap:round; stroke-linejoin:round; stroke-width:2; stroke-opacity:0.1; fill:none" points="170.857,386.282 2352.76,386.282 "/>
<polyline clip-path="url(#clip800)" style="stroke:#000000; stroke-linecap:round; stroke-linejoin:round; stroke-width:4; stroke-opacity:1; fill:none" points="170.857,1486.45 2352.76,1486.45 "/>
<polyline clip-path="url(#clip800)" style="stroke:#000000; stroke-linecap:round; stroke-linejoin:round; stroke-width:4; stroke-opacity:1; fill:none" points="452.689,1486.45 452.689,1467.55 "/>
<polyline clip-path="url(#clip800)" style="stroke:#000000; stroke-linecap:round; stroke-linejoin:round; stroke-width:4; stroke-opacity:1; fill:none" points="857.248,1486.45 857.248,1467.55 "/>
<polyline clip-path="url(#clip800)" style="stroke:#000000; stroke-linecap:round; stroke-linejoin:round; stroke-width:4; stroke-opacity:1; fill:none" points="1261.81,1486.45 1261.81,1467.55 "/>
<polyline clip-path="url(#clip800)" style="stroke:#000000; stroke-linecap:round; stroke-linejoin:round; stroke-width:4; stroke-opacity:1; fill:none" points="1666.37,1486.45 1666.37,1467.55 "/>
<polyline clip-path="url(#clip800)" style="stroke:#000000; stroke-linecap:round; stroke-linejoin:round; stroke-width:4; stroke-opacity:1; fill:none" points="2070.92,1486.45 2070.92,1467.55 "/>
<path clip-path="url(#clip800)" d="M427.377 1544.91 L435.016 1544.91 L435.016 1518.55 L426.706 1520.21 L426.706 1515.95 L434.969 1514.29 L439.645 1514.29 L439.645 1544.91 L447.284 1544.91 L447.284 1548.85 L427.377 1548.85 L427.377 1544.91 Z" fill="#000000" fill-rule="nonzero" fill-opacity="1" /><path clip-path="url(#clip800)" d="M466.728 1517.37 Q463.117 1517.37 461.289 1520.93 Q459.483 1524.47 459.483 1531.6 Q459.483 1538.71 461.289 1542.27 Q463.117 1545.82 466.728 1545.82 Q470.363 1545.82 472.168 1542.27 Q473.997 1538.71 473.997 1531.6 Q473.997 1524.47 472.168 1520.93 Q470.363 1517.37 466.728 1517.37 M466.728 1513.66 Q472.539 1513.66 475.594 1518.27 Q478.673 1522.85 478.673 1531.6 Q478.673 1540.33 475.594 1544.94 Q472.539 1549.52 466.728 1549.52 Q460.918 1549.52 457.84 1544.94 Q454.784 1540.33 454.784 1531.6 Q454.784 1522.85 457.84 1518.27 Q460.918 1513.66 466.728 1513.66 Z" fill="#000000" fill-rule="nonzero" fill-opacity="1" /><path clip-path="url(#clip800)" d="M831.947 1514.29 L850.304 1514.29 L850.304 1518.22 L836.23 1518.22 L836.23 1526.7 Q837.248 1526.35 838.267 1526.19 Q839.285 1526 840.304 1526 Q846.091 1526 849.47 1529.17 Q852.85 1532.34 852.85 1537.76 Q852.85 1543.34 849.378 1546.44 Q845.905 1549.52 839.586 1549.52 Q837.41 1549.52 835.142 1549.15 Q832.896 1548.78 830.489 1548.04 L830.489 1543.34 Q832.572 1544.47 834.794 1545.03 Q837.017 1545.58 839.493 1545.58 Q843.498 1545.58 845.836 1543.48 Q848.174 1541.37 848.174 1537.76 Q848.174 1534.15 845.836 1532.04 Q843.498 1529.94 839.493 1529.94 Q837.618 1529.94 835.743 1530.35 Q833.892 1530.77 831.947 1531.65 L831.947 1514.29 Z" fill="#000000" fill-rule="nonzero" fill-opacity="1" /><path clip-path="url(#clip800)" d="M872.063 1517.37 Q868.452 1517.37 866.623 1520.93 Q864.817 1524.47 864.817 1531.6 Q864.817 1538.71 866.623 1542.27 Q868.452 1545.82 872.063 1545.82 Q875.697 1545.82 877.502 1542.27 Q879.331 1538.71 879.331 1531.6 Q879.331 1524.47 877.502 1520.93 Q875.697 1517.37 872.063 1517.37 M872.063 1513.66 Q877.873 1513.66 880.928 1518.27 Q884.007 1522.85 884.007 1531.6 Q884.007 1540.33 880.928 1544.94 Q877.873 1549.52 872.063 1549.52 Q866.253 1549.52 863.174 1544.94 Q860.118 1540.33 860.118 1531.6 Q860.118 1522.85 863.174 1518.27 Q866.253 1513.66 872.063 1513.66 Z" fill="#000000" fill-rule="nonzero" fill-opacity="1" /><path clip-path="url(#clip800)" d="M1221.41 1544.91 L1229.05 1544.91 L1229.05 1518.55 L1220.74 1520.21 L1220.74 1515.95 L1229.01 1514.29 L1233.68 1514.29 L1233.68 1544.91 L1241.32 1544.91 L1241.32 1548.85 L1221.41 1548.85 L1221.41 1544.91 Z" fill="#000000" fill-rule="nonzero" fill-opacity="1" /><path clip-path="url(#clip800)" d="M1260.77 1517.37 Q1257.15 1517.37 1255.33 1520.93 Q1253.52 1524.47 1253.52 1531.6 Q1253.52 1538.71 1255.33 1542.27 Q1257.15 1545.82 1260.77 1545.82 Q1264.4 1545.82 1266.2 1542.27 Q1268.03 1538.71 1268.03 1531.6 Q1268.03 1524.47 1266.2 1520.93 Q1264.4 1517.37 1260.77 1517.37 M1260.77 1513.66 Q1266.58 1513.66 1269.63 1518.27 Q1272.71 1522.85 1272.71 1531.6 Q1272.71 1540.33 1269.63 1544.94 Q1266.58 1549.52 1260.77 1549.52 Q1254.95 1549.52 1251.88 1544.94 Q1248.82 1540.33 1248.82 1531.6 Q1248.82 1522.85 1251.88 1518.27 Q1254.95 1513.66 1260.77 1513.66 Z" fill="#000000" fill-rule="nonzero" fill-opacity="1" /><path clip-path="url(#clip800)" d="M1290.93 1517.37 Q1287.32 1517.37 1285.49 1520.93 Q1283.68 1524.47 1283.68 1531.6 Q1283.68 1538.71 1285.49 1542.27 Q1287.32 1545.82 1290.93 1545.82 Q1294.56 1545.82 1296.37 1542.27 Q1298.2 1538.71 1298.2 1531.6 Q1298.2 1524.47 1296.37 1520.93 Q1294.56 1517.37 1290.93 1517.37 M1290.93 1513.66 Q1296.74 1513.66 1299.79 1518.27 Q1302.87 1522.85 1302.87 1531.6 Q1302.87 1540.33 1299.79 1544.94 Q1296.74 1549.52 1290.93 1549.52 Q1285.12 1549.52 1282.04 1544.94 Q1278.98 1540.33 1278.98 1531.6 Q1278.98 1522.85 1282.04 1518.27 Q1285.12 1513.66 1290.93 1513.66 Z" fill="#000000" fill-rule="nonzero" fill-opacity="1" /><path clip-path="url(#clip800)" d="M1630.06 1544.91 L1646.38 1544.91 L1646.38 1548.85 L1624.43 1548.85 L1624.43 1544.91 Q1627.09 1542.16 1631.68 1537.53 Q1636.28 1532.88 1637.47 1531.53 Q1639.71 1529.01 1640.59 1527.27 Q1641.49 1525.51 1641.49 1523.82 Q1641.49 1521.07 1639.55 1519.33 Q1637.63 1517.6 1634.53 1517.6 Q1632.33 1517.6 1629.87 1518.36 Q1627.44 1519.13 1624.66 1520.68 L1624.66 1515.95 Q1627.49 1514.82 1629.94 1514.24 Q1632.4 1513.66 1634.43 1513.66 Q1639.8 1513.66 1643 1516.35 Q1646.19 1519.03 1646.19 1523.52 Q1646.19 1525.65 1645.38 1527.57 Q1644.59 1529.47 1642.49 1532.07 Q1641.91 1532.74 1638.81 1535.95 Q1635.71 1539.15 1630.06 1544.91 Z" fill="#000000" fill-rule="nonzero" fill-opacity="1" /><path clip-path="url(#clip800)" d="M1666.19 1517.37 Q1662.58 1517.37 1660.75 1520.93 Q1658.95 1524.47 1658.95 1531.6 Q1658.95 1538.71 1660.75 1542.27 Q1662.58 1545.82 1666.19 1545.82 Q1669.83 1545.82 1671.63 1542.27 Q1673.46 1538.71 1673.46 1531.6 Q1673.46 1524.47 1671.63 1520.93 Q1669.83 1517.37 1666.19 1517.37 M1666.19 1513.66 Q1672 1513.66 1675.06 1518.27 Q1678.14 1522.85 1678.14 1531.6 Q1678.14 1540.33 1675.06 1544.94 Q1672 1549.52 1666.19 1549.52 Q1660.38 1549.52 1657.3 1544.94 Q1654.25 1540.33 1654.25 1531.6 Q1654.25 1522.85 1657.3 1518.27 Q1660.38 1513.66 1666.19 1513.66 Z" fill="#000000" fill-rule="nonzero" fill-opacity="1" /><path clip-path="url(#clip800)" d="M1696.35 1517.37 Q1692.74 1517.37 1690.91 1520.93 Q1689.11 1524.47 1689.11 1531.6 Q1689.11 1538.71 1690.91 1542.27 Q1692.74 1545.82 1696.35 1545.82 Q1699.99 1545.82 1701.79 1542.27 Q1703.62 1538.71 1703.62 1531.6 Q1703.62 1524.47 1701.79 1520.93 Q1699.99 1517.37 1696.35 1517.37 M1696.35 1513.66 Q1702.16 1513.66 1705.22 1518.27 Q1708.3 1522.85 1708.3 1531.6 Q1708.3 1540.33 1705.22 1544.94 Q1702.16 1549.52 1696.35 1549.52 Q1690.54 1549.52 1687.46 1544.94 Q1684.41 1540.33 1684.41 1531.6 Q1684.41 1522.85 1687.46 1518.27 Q1690.54 1513.66 1696.35 1513.66 Z" fill="#000000" fill-rule="nonzero" fill-opacity="1" /><path clip-path="url(#clip800)" d="M2030.54 1514.29 L2048.9 1514.29 L2048.9 1518.22 L2034.82 1518.22 L2034.82 1526.7 Q2035.84 1526.35 2036.86 1526.19 Q2037.88 1526 2038.9 1526 Q2044.69 1526 2048.07 1529.17 Q2051.45 1532.34 2051.45 1537.76 Q2051.45 1543.34 2047.97 1546.44 Q2044.5 1549.52 2038.18 1549.52 Q2036.01 1549.52 2033.74 1549.15 Q2031.49 1548.78 2029.08 1548.04 L2029.08 1543.34 Q2031.17 1544.47 2033.39 1545.03 Q2035.61 1545.58 2038.09 1545.58 Q2042.09 1545.58 2044.43 1543.48 Q2046.77 1541.37 2046.77 1537.76 Q2046.77 1534.15 2044.43 1532.04 Q2042.09 1529.94 2038.09 1529.94 Q2036.21 1529.94 2034.34 1530.35 Q2032.49 1530.77 2030.54 1531.65 L2030.54 1514.29 Z" fill="#000000" fill-rule="nonzero" fill-opacity="1" /><path clip-path="url(#clip800)" d="M2070.66 1517.37 Q2067.05 1517.37 2065.22 1520.93 Q2063.41 1524.47 2063.41 1531.6 Q2063.41 1538.71 2065.22 1542.27 Q2067.05 1545.82 2070.66 1545.82 Q2074.29 1545.82 2076.1 1542.27 Q2077.93 1538.71 2077.93 1531.6 Q2077.93 1524.47 2076.1 1520.93 Q2074.29 1517.37 2070.66 1517.37 M2070.66 1513.66 Q2076.47 1513.66 2079.52 1518.27 Q2082.6 1522.85 2082.6 1531.6 Q2082.6 1540.33 2079.52 1544.94 Q2076.47 1549.52 2070.66 1549.52 Q2064.85 1549.52 2061.77 1544.94 Q2058.71 1540.33 2058.71 1531.6 Q2058.71 1522.85 2061.77 1518.27 Q2064.85 1513.66 2070.66 1513.66 Z" fill="#000000" fill-rule="nonzero" fill-opacity="1" /><path clip-path="url(#clip800)" d="M2100.82 1517.37 Q2097.21 1517.37 2095.38 1520.93 Q2093.57 1524.47 2093.57 1531.6 Q2093.57 1538.71 2095.38 1542.27 Q2097.21 1545.82 2100.82 1545.82 Q2104.45 1545.82 2106.26 1542.27 Q2108.09 1538.71 2108.09 1531.6 Q2108.09 1524.47 2106.26 1520.93 Q2104.45 1517.37 2100.82 1517.37 M2100.82 1513.66 Q2106.63 1513.66 2109.69 1518.27 Q2112.76 1522.85 2112.76 1531.6 Q2112.76 1540.33 2109.69 1544.94 Q2106.63 1549.52 2100.82 1549.52 Q2095.01 1549.52 2091.93 1544.94 Q2088.88 1540.33 2088.88 1531.6 Q2088.88 1522.85 2091.93 1518.27 Q2095.01 1513.66 2100.82 1513.66 Z" fill="#000000" fill-rule="nonzero" fill-opacity="1" /><polyline clip-path="url(#clip800)" style="stroke:#000000; stroke-linecap:round; stroke-linejoin:round; stroke-width:4; stroke-opacity:1; fill:none" points="170.857,1486.45 170.857,47.2441 "/>
<polyline clip-path="url(#clip800)" style="stroke:#000000; stroke-linecap:round; stroke-linejoin:round; stroke-width:4; stroke-opacity:1; fill:none" points="170.857,1486.45 189.755,1486.45 "/>
<polyline clip-path="url(#clip800)" style="stroke:#000000; stroke-linecap:round; stroke-linejoin:round; stroke-width:4; stroke-opacity:1; fill:none" points="170.857,1119.73 189.755,1119.73 "/>
<polyline clip-path="url(#clip800)" style="stroke:#000000; stroke-linecap:round; stroke-linejoin:round; stroke-width:4; stroke-opacity:1; fill:none" points="170.857,753.004 189.755,753.004 "/>
<polyline clip-path="url(#clip800)" style="stroke:#000000; stroke-linecap:round; stroke-linejoin:round; stroke-width:4; stroke-opacity:1; fill:none" points="170.857,386.282 189.755,386.282 "/>
<path clip-path="url(#clip800)" d="M122.913 1472.25 Q119.302 1472.25 117.473 1475.81 Q115.668 1479.35 115.668 1486.48 Q115.668 1493.59 117.473 1497.15 Q119.302 1500.7 122.913 1500.7 Q126.547 1500.7 128.353 1497.15 Q130.182 1493.59 130.182 1486.48 Q130.182 1479.35 128.353 1475.81 Q126.547 1472.25 122.913 1472.25 M122.913 1468.54 Q128.723 1468.54 131.779 1473.15 Q134.857 1477.73 134.857 1486.48 Q134.857 1495.21 131.779 1499.82 Q128.723 1504.4 122.913 1504.4 Q117.103 1504.4 114.024 1499.82 Q110.969 1495.21 110.969 1486.48 Q110.969 1477.73 114.024 1473.15 Q117.103 1468.54 122.913 1468.54 Z" fill="#000000" fill-rule="nonzero" fill-opacity="1" /><path clip-path="url(#clip800)" d="M53.3995 1133.07 L61.0384 1133.07 L61.0384 1106.71 L52.7282 1108.37 L52.7282 1104.11 L60.9921 1102.45 L65.668 1102.45 L65.668 1133.07 L73.3068 1133.07 L73.3068 1137.01 L53.3995 1137.01 L53.3995 1133.07 Z" fill="#000000" fill-rule="nonzero" fill-opacity="1" /><path clip-path="url(#clip800)" d="M92.7512 1105.52 Q89.1401 1105.52 87.3114 1109.09 Q85.5058 1112.63 85.5058 1119.76 Q85.5058 1126.87 87.3114 1130.43 Q89.1401 1133.97 92.7512 1133.97 Q96.3854 1133.97 98.1909 1130.43 Q100.02 1126.87 100.02 1119.76 Q100.02 1112.63 98.1909 1109.09 Q96.3854 1105.52 92.7512 1105.52 M92.7512 1101.82 Q98.5613 1101.82 101.617 1106.43 Q104.696 1111.01 104.696 1119.76 Q104.696 1128.49 101.617 1133.09 Q98.5613 1137.68 92.7512 1137.68 Q86.941 1137.68 83.8623 1133.09 Q80.8068 1128.49 80.8068 1119.76 Q80.8068 1111.01 83.8623 1106.43 Q86.941 1101.82 92.7512 1101.82 Z" fill="#000000" fill-rule="nonzero" fill-opacity="1" /><path clip-path="url(#clip800)" d="M122.913 1105.52 Q119.302 1105.52 117.473 1109.09 Q115.668 1112.63 115.668 1119.76 Q115.668 1126.87 117.473 1130.43 Q119.302 1133.97 122.913 1133.97 Q126.547 1133.97 128.353 1130.43 Q130.182 1126.87 130.182 1119.76 Q130.182 1112.63 128.353 1109.09 Q126.547 1105.52 122.913 1105.52 M122.913 1101.82 Q128.723 1101.82 131.779 1106.43 Q134.857 1111.01 134.857 1119.76 Q134.857 1128.49 131.779 1133.09 Q128.723 1137.68 122.913 1137.68 Q117.103 1137.68 114.024 1133.09 Q110.969 1128.49 110.969 1119.76 Q110.969 1111.01 114.024 1106.43 Q117.103 1101.82 122.913 1101.82 Z" fill="#000000" fill-rule="nonzero" fill-opacity="1" /><path clip-path="url(#clip800)" d="M56.6171 766.349 L72.9365 766.349 L72.9365 770.284 L50.9921 770.284 L50.9921 766.349 Q53.6541 763.594 58.2375 758.965 Q62.8439 754.312 64.0245 752.969 Q66.2698 750.446 67.1494 748.71 Q68.0522 746.951 68.0522 745.261 Q68.0522 742.507 66.1078 740.77 Q64.1865 739.034 61.0847 739.034 Q58.8856 739.034 56.4319 739.798 Q54.0014 740.562 51.2236 742.113 L51.2236 737.391 Q54.0477 736.257 56.5014 735.678 Q58.955 735.099 60.9921 735.099 Q66.3624 735.099 69.5568 737.784 Q72.7513 740.47 72.7513 744.96 Q72.7513 747.09 71.9411 749.011 Q71.1541 750.909 69.0476 753.502 Q68.4689 754.173 65.367 757.391 Q62.2652 760.585 56.6171 766.349 Z" fill="#000000" fill-rule="nonzero" fill-opacity="1" /><path clip-path="url(#clip800)" d="M92.7512 738.803 Q89.1401 738.803 87.3114 742.368 Q85.5058 745.909 85.5058 753.039 Q85.5058 760.145 87.3114 763.71 Q89.1401 767.252 92.7512 767.252 Q96.3854 767.252 98.1909 763.71 Q100.02 760.145 100.02 753.039 Q100.02 745.909 98.1909 742.368 Q96.3854 738.803 92.7512 738.803 M92.7512 735.099 Q98.5613 735.099 101.617 739.706 Q104.696 744.289 104.696 753.039 Q104.696 761.766 101.617 766.372 Q98.5613 770.955 92.7512 770.955 Q86.941 770.955 83.8623 766.372 Q80.8068 761.766 80.8068 753.039 Q80.8068 744.289 83.8623 739.706 Q86.941 735.099 92.7512 735.099 Z" fill="#000000" fill-rule="nonzero" fill-opacity="1" /><path clip-path="url(#clip800)" d="M122.913 738.803 Q119.302 738.803 117.473 742.368 Q115.668 745.909 115.668 753.039 Q115.668 760.145 117.473 763.71 Q119.302 767.252 122.913 767.252 Q126.547 767.252 128.353 763.71 Q130.182 760.145 130.182 753.039 Q130.182 745.909 128.353 742.368 Q126.547 738.803 122.913 738.803 M122.913 735.099 Q128.723 735.099 131.779 739.706 Q134.857 744.289 134.857 753.039 Q134.857 761.766 131.779 766.372 Q128.723 770.955 122.913 770.955 Q117.103 770.955 114.024 766.372 Q110.969 761.766 110.969 753.039 Q110.969 744.289 114.024 739.706 Q117.103 735.099 122.913 735.099 Z" fill="#000000" fill-rule="nonzero" fill-opacity="1" /><path clip-path="url(#clip800)" d="M66.7559 384.928 Q70.1124 385.646 71.9874 387.914 Q73.8855 390.183 73.8855 393.516 Q73.8855 398.632 70.367 401.433 Q66.8485 404.234 60.3671 404.234 Q58.1912 404.234 55.8764 403.794 Q53.5847 403.377 51.131 402.521 L51.131 398.007 Q53.0754 399.141 55.3903 399.72 Q57.7051 400.298 60.2282 400.298 Q64.6263 400.298 66.918 398.562 Q69.2328 396.826 69.2328 393.516 Q69.2328 390.461 67.08 388.748 Q64.9504 387.012 61.131 387.012 L57.1032 387.012 L57.1032 383.169 L61.3161 383.169 Q64.7652 383.169 66.5939 381.803 Q68.4226 380.414 68.4226 377.822 Q68.4226 375.16 66.5245 373.748 Q64.6495 372.313 61.131 372.313 Q59.2097 372.313 57.0106 372.729 Q54.8115 373.146 52.1727 374.025 L52.1727 369.859 Q54.8347 369.118 57.1495 368.748 Q59.4875 368.377 61.5476 368.377 Q66.8717 368.377 69.9735 370.808 Q73.0753 373.215 73.0753 377.336 Q73.0753 380.206 71.4318 382.197 Q69.7883 384.164 66.7559 384.928 Z" fill="#000000" fill-rule="nonzero" fill-opacity="1" /><path clip-path="url(#clip800)" d="M92.7512 372.081 Q89.1401 372.081 87.3114 375.646 Q85.5058 379.187 85.5058 386.317 Q85.5058 393.424 87.3114 396.988 Q89.1401 400.53 92.7512 400.53 Q96.3854 400.53 98.1909 396.988 Q100.02 393.424 100.02 386.317 Q100.02 379.187 98.1909 375.646 Q96.3854 372.081 92.7512 372.081 M92.7512 368.377 Q98.5613 368.377 101.617 372.984 Q104.696 377.567 104.696 386.317 Q104.696 395.044 101.617 399.65 Q98.5613 404.234 92.7512 404.234 Q86.941 404.234 83.8623 399.65 Q80.8068 395.044 80.8068 386.317 Q80.8068 377.567 83.8623 372.984 Q86.941 368.377 92.7512 368.377 Z" fill="#000000" fill-rule="nonzero" fill-opacity="1" /><path clip-path="url(#clip800)" d="M122.913 372.081 Q119.302 372.081 117.473 375.646 Q115.668 379.187 115.668 386.317 Q115.668 393.424 117.473 396.988 Q119.302 400.53 122.913 400.53 Q126.547 400.53 128.353 396.988 Q130.182 393.424 130.182 386.317 Q130.182 379.187 128.353 375.646 Q126.547 372.081 122.913 372.081 M122.913 368.377 Q128.723 368.377 131.779 372.984 Q134.857 377.567 134.857 386.317 Q134.857 395.044 131.779 399.65 Q128.723 404.234 122.913 404.234 Q117.103 404.234 114.024 399.65 Q110.969 395.044 110.969 386.317 Q110.969 377.567 114.024 372.984 Q117.103 368.377 122.913 368.377 Z" fill="#000000" fill-rule="nonzero" fill-opacity="1" /><path clip-path="url(#clip801)" d="M290.866 47.2441 L290.866 1486.45 L614.513 1486.45 L614.513 47.2441 L290.866 47.2441 L290.866 47.2441  Z" fill="#00008b" fill-rule="evenodd" fill-opacity="1"/>
<polyline clip-path="url(#clip801)" style="stroke:#000000; stroke-linecap:round; stroke-linejoin:round; stroke-width:4; stroke-opacity:1; fill:none" points="290.866,47.2441 290.866,1486.45 614.513,1486.45 614.513,47.2441 290.866,47.2441 "/>
<path clip-path="url(#clip801)" d="M695.424 155.873 L695.424 1486.45 L1019.07 1486.45 L1019.07 155.873 L695.424 155.873 L695.424 155.873  Z" fill="#00008b" fill-rule="evenodd" fill-opacity="1"/>
<polyline clip-path="url(#clip801)" style="stroke:#000000; stroke-linecap:round; stroke-linejoin:round; stroke-width:4; stroke-opacity:1; fill:none" points="695.424,155.873 695.424,1486.45 1019.07,1486.45 1019.07,155.873 695.424,155.873 "/>
<path clip-path="url(#clip801)" d="M1099.98 285.084 L1099.98 1486.45 L1423.63 1486.45 L1423.63 285.084 L1099.98 285.084 L1099.98 285.084  Z" fill="#00008b" fill-rule="evenodd" fill-opacity="1"/>
<polyline clip-path="url(#clip801)" style="stroke:#000000; stroke-linecap:round; stroke-linejoin:round; stroke-width:4; stroke-opacity:1; fill:none" points="1099.98,285.084 1099.98,1486.45 1423.63,1486.45 1423.63,285.084 1099.98,285.084 "/>
<path clip-path="url(#clip801)" d="M1504.54 521.582 L1504.54 1486.45 L1828.19 1486.45 L1828.19 521.582 L1504.54 521.582 L1504.54 521.582  Z" fill="#00008b" fill-rule="evenodd" fill-opacity="1"/>
<polyline clip-path="url(#clip801)" style="stroke:#000000; stroke-linecap:round; stroke-linejoin:round; stroke-width:4; stroke-opacity:1; fill:none" points="1504.54,521.582 1504.54,1486.45 1828.19,1486.45 1828.19,521.582 1504.54,521.582 "/>
<path clip-path="url(#clip801)" d="M1909.1 1040.32 L1909.1 1486.45 L2232.75 1486.45 L2232.75 1040.32 L1909.1 1040.32 L1909.1 1040.32  Z" fill="#00008b" fill-rule="evenodd" fill-opacity="1"/>
<polyline clip-path="url(#clip801)" style="stroke:#000000; stroke-linecap:round; stroke-linejoin:round; stroke-width:4; stroke-opacity:1; fill:none" points="1909.1,1040.32 1909.1,1486.45 2232.75,1486.45 2232.75,1040.32 1909.1,1040.32 "/>
<circle clip-path="url(#clip801)" style="fill:#00008b; stroke:none; fill-opacity:0" cx="452.689" cy="47.2441" r="2"/>
<circle clip-path="url(#clip801)" style="fill:#00008b; stroke:none; fill-opacity:0" cx="857.248" cy="155.873" r="2"/>
<circle clip-path="url(#clip801)" style="fill:#00008b; stroke:none; fill-opacity:0" cx="1261.81" cy="285.084" r="2"/>
<circle clip-path="url(#clip801)" style="fill:#00008b; stroke:none; fill-opacity:0" cx="1666.37" cy="521.582" r="2"/>
<circle clip-path="url(#clip801)" style="fill:#00008b; stroke:none; fill-opacity:0" cx="2070.92" cy="1040.32" r="2"/>
</svg>
