<?xml version="1.0" encoding="utf-8"?>
<svg xmlns="http://www.w3.org/2000/svg" xmlns:xlink="http://www.w3.org/1999/xlink" width="600" height="400" viewBox="0 0 2400 1600">
<defs>
  <clipPath id="clip960">
    <rect x="0" y="0" width="2400" height="1600"/>
  </clipPath>
</defs>
<path clip-path="url(#clip960)" d="M0 1600 L2400 1600 L2400 0 L0 0  Z" fill="#ffffff" fill-rule="evenodd" fill-opacity="1"/>
<defs>
  <clipPath id="clip961">
    <rect x="112" y="47" width="2242" height="1440"/>
  </clipPath>
</defs>
<path clip-path="url(#clip960)" d="M112.177 1486.45 L2352.76 1486.45 L2352.76 47.2441 L112.177 47.2441  Z" fill="#ffffff" fill-rule="evenodd" fill-opacity="1"/>
<polyline clip-path="url(#clip961)" style="stroke:#000000; stroke-linecap:round; stroke-linejoin:round; stroke-width:2; stroke-opacity:0.1; fill:none" points="351.736,1486.45 351.736,47.2441 "/>
<polyline clip-path="url(#clip961)" style="stroke:#000000; stroke-linecap:round; stroke-linejoin:round; stroke-width:2; stroke-opacity:0.1; fill:none" points="792.101,1486.45 792.101,47.2441 "/>
<polyline clip-path="url(#clip961)" style="stroke:#000000; stroke-linecap:round; stroke-linejoin:round; stroke-width:2; stroke-opacity:0.1; fill:none" points="1232.47,1486.45 1232.47,47.2441 "/>
<polyline clip-path="url(#clip961)" style="stroke:#000000; stroke-linecap:round; stroke-linejoin:round; stroke-width:2; stroke-opacity:0.1; fill:none" points="1672.83,1486.45 1672.83,47.2441 "/>
<polyline clip-path="url(#clip961)" style="stroke:#000000; stroke-linecap:round; stroke-linejoin:round; stroke-width:2; stroke-opacity:0.1; fill:none" points="2113.2,1486.45 2113.2,47.2441 "/>
<polyline clip-path="url(#clip961)" style="stroke:#000000; stroke-linecap:round; stroke-linejoin:round; stroke-width:2; stroke-opacity:0.1; fill:none" points="112.177,1460.53 2352.76,1460.53 "/>
<polyline clip-path="url(#clip961)" style="stroke:#000000; stroke-linecap:round; stroke-linejoin:round; stroke-width:2; stroke-opacity:0.1; fill:none" points="112.177,1141.84 2352.76,1141.84 "/>
<polyline clip-path="url(#clip961)" style="stroke:#000000; stroke-linecap:round; stroke-linejoin:round; stroke-width:2; stroke-opacity:0.1; fill:none" points="112.177,823.146 2352.76,823.146 "/>
<polyline clip-path="url(#clip961)" style="stroke:#000000; stroke-linecap:round; stroke-linejoin:round; stroke-width:2; stroke-opacity:0.1; fill:none" points="112.177,504.453 2352.76,504.453 "/>
<polyline clip-path="url(#clip961)" style="stroke:#000000; stroke-linecap:round; stroke-linejoin:round; stroke-width:2; stroke-opacity:0.1; fill:none" points="112.177,185.76 2352.76,185.76 "/>
<polyline clip-path="url(#clip960)" style="stroke:#000000; stroke-linecap:round; stroke-linejoin:round; stroke-width:4; stroke-opacity:1; fill:none" points="112.177,1486.45 2352.76,1486.45 "/>
<polyline clip-path="url(#clip960)" style="stroke:#000000; stroke-linecap:round; stroke-linejoin:round; stroke-width:4; stroke-opacity:1; fill:none" points="351.736,1486.45 351.736,1467.55 "/>
<polyline clip-path="url(#clip960)" style="stroke:#000000; stroke-linecap:round; stroke-linejoin:round; stroke-width:4; stroke-opacity:1; fill:none" points="792.101,1486.45 792.101,1467.55 "/>
<polyline clip-path="url(#clip960)" style="stroke:#000000; stroke-linecap:round; stroke-linejoin:round; stroke-width:4; stroke-opacity:1; fill:none" points="1232.47,1486.45 1232.47,1467.55 "/>
<polyline clip-path="url(#clip960)" style="stroke:#000000; stroke-linecap:round; stroke-linejoin:round; stroke-width:4; stroke-opacity:1; fill:none" points="1672.83,1486.45 1672.83,1467.55 "/>
<polyline clip-path="url(#clip960)" style="stroke:#000000; stroke-linecap:round; stroke-linejoin:round; stroke-width:4; stroke-opacity:1; fill:none" points="2113.2,1486.45 2113.2,1467.55 "/>
<path clip-path="url(#clip960)" d="M326.424 1544.91 L334.062 1544.91 L334.062 1518.55 L325.752 1520.21 L325.752 1515.95 L334.016 1514.29 L338.692 1514.29 L338.692 1544.91 L346.331 1544.91 L346.331 1548.85 L326.424 1548.85 L326.424 1544.91 Z" fill="#000000" fill-rule="nonzero" fill-opacity="1" /><path clip-path="url(#clip960)" d="M365.775 1517.37 Q362.164 1517.37 360.335 1520.93 Q358.53 1524.47 358.53 1531.6 Q358.53 1538.71 360.335 1542.27 Q362.164 1545.82 365.775 1545.82 Q369.409 1545.82 371.215 1542.27 Q373.044 1538.71 373.044 1531.6 Q373.044 1524.47 371.215 1520.93 Q369.409 1517.37 365.775 1517.37 M365.775 1513.66 Q371.585 1513.66 374.641 1518.27 Q377.72 1522.85 377.72 1531.6 Q377.72 1540.33 374.641 1544.94 Q371.585 1549.52 365.775 1549.52 Q359.965 1549.52 356.886 1544.94 Q353.831 1540.33 353.831 1531.6 Q353.831 1522.85 356.886 1518.27 Q359.965 1513.66 365.775 1513.66 Z" fill="#000000" fill-rule="nonzero" fill-opacity="1" /><path clip-path="url(#clip960)" d="M766.8 1514.29 L785.157 1514.29 L785.157 1518.22 L771.083 1518.22 L771.083 1526.7 Q772.101 1526.35 773.12 1526.19 Q774.138 1526 775.157 1526 Q780.944 1526 784.323 1529.17 Q787.703 1532.34 787.703 1537.76 Q787.703 1543.34 784.231 1546.44 Q780.759 1549.52 774.439 1549.52 Q772.263 1549.52 769.995 1549.15 Q767.75 1548.78 765.342 1548.04 L765.342 1543.34 Q767.425 1544.47 769.648 1545.03 Q771.87 1545.58 774.347 1545.58 Q778.351 1545.58 780.689 1543.48 Q783.027 1541.37 783.027 1537.76 Q783.027 1534.15 780.689 1532.04 Q778.351 1529.94 774.347 1529.94 Q772.472 1529.94 770.597 1530.35 Q768.745 1530.77 766.8 1531.65 L766.8 1514.29 Z" fill="#000000" fill-rule="nonzero" fill-opacity="1" /><path clip-path="url(#clip960)" d="M806.916 1517.37 Q803.305 1517.37 801.476 1520.93 Q799.671 1524.47 799.671 1531.6 Q799.671 1538.71 801.476 1542.27 Q803.305 1545.82 806.916 1545.82 Q810.55 1545.82 812.356 1542.27 Q814.184 1538.71 814.184 1531.6 Q814.184 1524.47 812.356 1520.93 Q810.55 1517.37 806.916 1517.37 M806.916 1513.66 Q812.726 1513.66 815.782 1518.27 Q818.86 1522.85 818.86 1531.6 Q818.86 1540.33 815.782 1544.94 Q812.726 1549.52 806.916 1549.52 Q801.106 1549.52 798.027 1544.94 Q794.972 1540.33 794.972 1531.6 Q794.972 1522.85 798.027 1518.27 Q801.106 1513.66 806.916 1513.66 Z" fill="#000000" fill-rule="nonzero" fill-opacity="1" /><path clip-path="url(#clip960)" d="M1192.07 1544.91 L1199.71 1544.91 L1199.71 1518.55 L1191.4 1520.21 L1191.4 1515.95 L1199.67 1514.29 L1204.34 1514.29 L1204.34 1544.91 L1211.98 1544.91 L1211.98 1548.85 L1192.07 1548.85 L1192.07 1544.91 Z" fill="#000000" fill-rule="nonzero" fill-opacity="1" /><path clip-path="url(#clip960)" d="M1231.42 1517.37 Q1227.81 1517.37 1225.99 1520.93 Q1224.18 1524.47 1224.18 1531.6 Q1224.18 1538.71 1225.99 1542.27 Q1227.81 1545.82 1231.42 1545.82 Q1235.06 1545.82 1236.86 1542.27 Q1238.69 1538.71 1238.69 1531.6 Q1238.69 1524.47 1236.86 1520.93 Q1235.06 1517.37 1231.42 1517.37 M1231.42 1513.66 Q1237.24 1513.66 1240.29 1518.27 Q1243.37 1522.85 1243.37 1531.6 Q1243.37 1540.33 1240.29 1544.94 Q1237.24 1549.52 1231.42 1549.52 Q1225.61 1549.52 1222.54 1544.94 Q1219.48 1540.33 1219.48 1531.6 Q1219.48 1522.85 1222.54 1518.27 Q1225.61 1513.66 1231.42 1513.66 Z" fill="#000000" fill-rule="nonzero" fill-opacity="1" /><path clip-path="url(#clip960)" d="M1261.59 1517.37 Q1257.98 1517.37 1256.15 1520.93 Q1254.34 1524.47 1254.34 1531.6 Q1254.34 1538.71 1256.15 1542.27 Q1257.98 1545.82 1261.59 1545.82 Q1265.22 1545.82 1267.03 1542.27 Q1268.86 1538.71 1268.86 1531.6 Q1268.86 1524.47 1267.03 1520.93 Q1265.22 1517.37 1261.59 1517.37 M1261.59 1513.66 Q1267.4 1513.66 1270.45 1518.27 Q1273.53 1522.85 1273.53 1531.6 Q1273.53 1540.33 1270.45 1544.94 Q1267.4 1549.52 1261.59 1549.52 Q1255.78 1549.52 1252.7 1544.94 Q1249.64 1540.33 1249.64 1531.6 Q1249.64 1522.85 1252.7 1518.27 Q1255.78 1513.66 1261.59 1513.66 Z" fill="#000000" fill-rule="nonzero" fill-opacity="1" /><path clip-path="url(#clip960)" d="M1636.52 1544.91 L1652.84 1544.91 L1652.84 1548.85 L1630.9 1548.85 L1630.9 1544.91 Q1633.56 1542.16 1638.14 1537.53 Q1642.75 1532.88 1643.93 1531.53 Q1646.18 1529.01 1647.06 1527.27 Q1647.96 1525.51 1647.96 1523.82 Q1647.96 1521.07 1646.01 1519.33 Q1644.09 1517.6 1640.99 1517.6 Q1638.79 1517.6 1636.34 1518.36 Q1633.91 1519.13 1631.13 1520.68 L1631.13 1515.95 Q1633.95 1514.82 1636.41 1514.24 Q1638.86 1513.66 1640.9 1513.66 Q1646.27 1513.66 1649.46 1516.35 Q1652.66 1519.03 1652.66 1523.52 Q1652.66 1525.65 1651.85 1527.57 Q1651.06 1529.47 1648.95 1532.07 Q1648.38 1532.74 1645.27 1535.95 Q1642.17 1539.15 1636.52 1544.91 Z" fill="#000000" fill-rule="nonzero" fill-opacity="1" /><path clip-path="url(#clip960)" d="M1672.66 1517.37 Q1669.05 1517.37 1667.22 1520.93 Q1665.41 1524.47 1665.41 1531.6 Q1665.41 1538.71 1667.22 1542.27 Q1669.05 1545.82 1672.66 1545.82 Q1676.29 1545.82 1678.1 1542.27 Q1679.93 1538.71 1679.93 1531.6 Q1679.93 1524.47 1678.1 1520.93 Q1676.29 1517.37 1672.66 1517.37 M1672.66 1513.66 Q1678.47 1513.66 1681.52 1518.27 Q1684.6 1522.85 1684.6 1531.6 Q1684.6 1540.33 1681.52 1544.94 Q1678.47 1549.52 1672.66 1549.52 Q1666.85 1549.52 1663.77 1544.94 Q1660.71 1540.33 1660.71 1531.6 Q1660.71 1522.85 1663.77 1518.27 Q1666.85 1513.66 1672.66 1513.66 Z" fill="#000000" fill-rule="nonzero" fill-opacity="1" /><path clip-path="url(#clip960)" d="M1702.82 1517.37 Q1699.21 1517.37 1697.38 1520.93 Q1695.57 1524.47 1695.57 1531.6 Q1695.57 1538.71 1697.38 1542.27 Q1699.21 1545.82 1702.82 1545.82 Q1706.45 1545.82 1708.26 1542.27 Q1710.09 1538.71 1710.09 1531.6 Q1710.09 1524.47 1708.26 1520.93 Q1706.45 1517.37 1702.82 1517.37 M1702.82 1513.66 Q1708.63 1513.66 1711.69 1518.27 Q1714.76 1522.85 1714.76 1531.6 Q1714.76 1540.33 1711.69 1544.94 Q1708.63 1549.52 1702.82 1549.52 Q1697.01 1549.52 1693.93 1544.94 Q1690.88 1540.33 1690.88 1531.6 Q1690.88 1522.85 1693.93 1518.27 Q1697.01 1513.66 1702.82 1513.66 Z" fill="#000000" fill-rule="nonzero" fill-opacity="1" /><path clip-path="url(#clip960)" d="M2072.82 1514.29 L2091.17 1514.29 L2091.17 1518.22 L2077.1 1518.22 L2077.1 1526.7 Q2078.12 1526.35 2079.13 1526.19 Q2080.15 1526 2081.17 1526 Q2086.96 1526 2090.34 1529.17 Q2093.72 1532.34 2093.72 1537.76 Q2093.72 1543.34 2090.25 1546.44 Q2086.77 1549.52 2080.45 1549.52 Q2078.28 1549.52 2076.01 1549.15 Q2073.76 1548.78 2071.36 1548.04 L2071.36 1543.34 Q2073.44 1544.47 2075.66 1545.03 Q2077.88 1545.58 2080.36 1545.58 Q2084.37 1545.58 2086.7 1543.48 Q2089.04 1541.37 2089.04 1537.76 Q2089.04 1534.15 2086.7 1532.04 Q2084.37 1529.94 2080.36 1529.94 Q2078.49 1529.94 2076.61 1530.35 Q2074.76 1530.77 2072.82 1531.65 L2072.82 1514.29 Z" fill="#000000" fill-rule="nonzero" fill-opacity="1" /><path clip-path="url(#clip960)" d="M2112.93 1517.37 Q2109.32 1517.37 2107.49 1520.93 Q2105.69 1524.47 2105.69 1531.6 Q2105.69 1538.71 2107.49 1542.27 Q2109.32 1545.82 2112.93 1545.82 Q2116.57 1545.82 2118.37 1542.27 Q2120.2 1538.71 2120.2 1531.6 Q2120.2 1524.47 2118.37 1520.93 Q2116.57 1517.37 2112.93 1517.37 M2112.93 1513.66 Q2118.74 1513.66 2121.8 1518.27 Q2124.88 1522.85 2124.88 1531.6 Q2124.88 1540.33 2121.8 1544.94 Q2118.74 1549.52 2112.93 1549.52 Q2107.12 1549.52 2104.04 1544.94 Q2100.99 1540.33 2100.99 1531.6 Q2100.99 1522.85 2104.04 1518.27 Q2107.12 1513.66 2112.93 1513.66 Z" fill="#000000" fill-rule="nonzero" fill-opacity="1" /><path clip-path="url(#clip960)" d="M2143.09 1517.37 Q2139.48 1517.37 2137.65 1520.93 Q2135.85 1524.47 2135.85 1531.6 Q2135.85 1538.71 2137.65 1542.27 Q2139.48 1545.82 2143.09 1545.82 Q2146.73 1545.82 2148.53 1542.27 Q2150.36 1538.71 2150.36 1531.6 Q2150.36 1524.47 2148.53 1520.93 Q2146.73 1517.37 2143.09 1517.37 M2143.09 1513.66 Q2148.9 1513.66 2151.96 1518.27 Q2155.04 1522.85 2155.04 1531.6 Q2155.04 1540.33 2151.96 1544.94 Q2148.9 1549.52 2143.09 1549.52 Q2137.28 1549.52 2134.2 1544.94 Q2131.15 1540.33 2131.15 1531.6 Q2131.15 1522.85 2134.2 1518.27 Q2137.28 1513.66 2143.09 1513.66 Z" fill="#000000" fill-rule="nonzero" fill-opacity="1" /><polyline clip-path="url(#clip960)" style="stroke:#000000; stroke-linecap:round; stroke-linejoin:round; stroke-width:4; stroke-opacity:1; fill:none" points="112.177,1486.45 112.177,47.2441 "/>
<polyline clip-path="url(#clip960)" style="stroke:#000000; stroke-linecap:round; stroke-linejoin:round; stroke-width:4; stroke-opacity:1; fill:none" points="112.177,1460.53 131.075,1460.53 "/>
<polyline clip-path="url(#clip960)" style="stroke:#000000; stroke-linecap:round; stroke-linejoin:round; stroke-width:4; stroke-opacity:1; fill:none" points="112.177,1141.84 131.075,1141.84 "/>
<polyline clip-path="url(#clip960)" style="stroke:#000000; stroke-linecap:round; stroke-linejoin:round; stroke-width:4; stroke-opacity:1; fill:none" points="112.177,823.146 131.075,823.146 "/>
<polyline clip-path="url(#clip960)" style="stroke:#000000; stroke-linecap:round; stroke-linejoin:round; stroke-width:4; stroke-opacity:1; fill:none" points="112.177,504.453 131.075,504.453 "/>
<polyline clip-path="url(#clip960)" style="stroke:#000000; stroke-linecap:round; stroke-linejoin:round; stroke-width:4; stroke-opacity:1; fill:none" points="112.177,185.76 131.075,185.76 "/>
<path clip-path="url(#clip960)" d="M64.2328 1446.33 Q60.6217 1446.33 58.793 1449.9 Q56.9875 1453.44 56.9875 1460.57 Q56.9875 1467.67 58.793 1471.24 Q60.6217 1474.78 64.2328 1474.78 Q67.867 1474.78 69.6726 1471.24 Q71.5013 1467.67 71.5013 1460.57 Q71.5013 1453.44 69.6726 1449.9 Q67.867 1446.33 64.2328 1446.33 M64.2328 1442.63 Q70.0429 1442.63 73.0985 1447.23 Q76.1772 1451.82 76.1772 1460.57 Q76.1772 1469.29 73.0985 1473.9 Q70.0429 1478.48 64.2328 1478.48 Q58.4226 1478.48 55.344 1473.9 Q52.2884 1469.29 52.2884 1460.57 Q52.2884 1451.82 55.344 1447.23 Q58.4226 1442.63 64.2328 1442.63 Z" fill="#000000" fill-rule="nonzero" fill-opacity="1" /><path clip-path="url(#clip960)" d="M59.8578 1155.18 L76.1772 1155.18 L76.1772 1159.12 L54.2328 1159.12 L54.2328 1155.18 Q56.8949 1152.43 61.4782 1147.8 Q66.0846 1143.15 67.2652 1141.8 Q69.5105 1139.28 70.3902 1137.55 Q71.2929 1135.79 71.2929 1134.1 Q71.2929 1131.34 69.3485 1129.61 Q67.4272 1127.87 64.3254 1127.87 Q62.1263 1127.87 59.6726 1128.63 Q57.2421 1129.4 54.4643 1130.95 L54.4643 1126.23 Q57.2884 1125.09 59.7421 1124.51 Q62.1958 1123.93 64.2328 1123.93 Q69.6031 1123.93 72.7976 1126.62 Q75.992 1129.3 75.992 1133.8 Q75.992 1135.92 75.1818 1137.85 Q74.3948 1139.74 72.2883 1142.34 Q71.7096 1143.01 68.6078 1146.23 Q65.5059 1149.42 59.8578 1155.18 Z" fill="#000000" fill-rule="nonzero" fill-opacity="1" /><path clip-path="url(#clip960)" d="M66.5939 809.94 L54.7884 828.389 L66.5939 828.389 L66.5939 809.94 M65.367 805.866 L71.2466 805.866 L71.2466 828.389 L76.1772 828.389 L76.1772 832.278 L71.2466 832.278 L71.2466 840.426 L66.5939 840.426 L66.5939 832.278 L50.9921 832.278 L50.9921 827.764 L65.367 805.866 Z" fill="#000000" fill-rule="nonzero" fill-opacity="1" /><path clip-path="url(#clip960)" d="M64.6495 502.59 Q61.5013 502.59 59.6495 504.742 Q57.8208 506.895 57.8208 510.645 Q57.8208 514.372 59.6495 516.548 Q61.5013 518.701 64.6495 518.701 Q67.7976 518.701 69.6263 516.548 Q71.4781 514.372 71.4781 510.645 Q71.4781 506.895 69.6263 504.742 Q67.7976 502.59 64.6495 502.59 M73.9318 487.937 L73.9318 492.196 Q72.1726 491.363 70.367 490.923 Q68.5846 490.483 66.8254 490.483 Q62.1958 490.483 59.7421 493.608 Q57.3115 496.733 56.9643 503.053 Q58.33 501.039 60.3902 499.974 Q62.4504 498.886 64.9272 498.886 Q70.1355 498.886 73.1448 502.057 Q76.1772 505.205 76.1772 510.645 Q76.1772 515.969 73.029 519.187 Q69.8809 522.404 64.6495 522.404 Q58.6541 522.404 55.4828 517.821 Q52.3116 513.215 52.3116 504.488 Q52.3116 496.293 56.2004 491.432 Q60.0893 486.548 66.6402 486.548 Q68.3994 486.548 70.1818 486.895 Q71.9874 487.242 73.9318 487.937 Z" fill="#000000" fill-rule="nonzero" fill-opacity="1" /><path clip-path="url(#clip960)" d="M64.3254 186.628 Q60.9921 186.628 59.0708 188.41 Q57.1726 190.193 57.1726 193.318 Q57.1726 196.443 59.0708 198.225 Q60.9921 200.008 64.3254 200.008 Q67.6587 200.008 69.58 198.225 Q71.5013 196.42 71.5013 193.318 Q71.5013 190.193 69.58 188.41 Q67.6819 186.628 64.3254 186.628 M59.6495 184.637 Q56.6402 183.897 54.9504 181.836 Q53.2838 179.776 53.2838 176.813 Q53.2838 172.67 56.2236 170.262 Q59.1865 167.855 64.3254 167.855 Q69.4874 167.855 72.4272 170.262 Q75.367 172.67 75.367 176.813 Q75.367 179.776 73.6772 181.836 Q72.0105 183.897 69.0244 184.637 Q72.404 185.424 74.279 187.716 Q76.1772 190.008 76.1772 193.318 Q76.1772 198.341 73.0985 201.026 Q70.0429 203.711 64.3254 203.711 Q58.6078 203.711 55.5291 201.026 Q52.4736 198.341 52.4736 193.318 Q52.4736 190.008 54.3717 187.716 Q56.2699 185.424 59.6495 184.637 M57.9365 177.253 Q57.9365 179.938 59.6032 181.443 Q61.293 182.947 64.3254 182.947 Q67.3346 182.947 69.0244 181.443 Q70.7374 179.938 70.7374 177.253 Q70.7374 174.568 69.0244 173.063 Q67.3346 171.559 64.3254 171.559 Q61.293 171.559 59.6032 173.063 Q57.9365 174.568 57.9365 177.253 Z" fill="#000000" fill-rule="nonzero" fill-opacity="1" /><path clip-path="url(#clip961)" d="M351.736 457.195 L263.663 457.195 L439.809 457.195 L351.736 457.195 L351.736 328.813 L351.736 457.195  Z" fill="#ff0000" fill-rule="evenodd" fill-opacity="1"/>
<polyline clip-path="url(#clip961)" style="stroke:#000000; stroke-linecap:round; stroke-linejoin:round; stroke-width:4; stroke-opacity:1; fill:none" points="351.736,457.195 263.663,457.195 439.809,457.195 351.736,457.195 351.736,328.813 351.736,457.195 "/>
<path clip-path="url(#clip961)" d="M527.882 328.813 L527.882 278.945 L175.59 278.945 L175.59 328.813 L527.882 328.813 L527.882 278.945 L527.882 328.813  Z" fill="#ff0000" fill-rule="evenodd" fill-opacity="1"/>
<polyline clip-path="url(#clip961)" style="stroke:#000000; stroke-linecap:round; stroke-linejoin:round; stroke-width:4; stroke-opacity:1; fill:none" points="527.882,328.813 527.882,278.945 175.59,278.945 175.59,328.813 527.882,328.813 527.882,278.945 527.882,328.813 "/>
<path clip-path="url(#clip961)" d="M527.882 239.484 L175.59 239.484 L175.59 278.945 L527.882 278.945 L527.882 239.484 L351.736 239.484 L527.882 239.484  Z" fill="#ff0000" fill-rule="evenodd" fill-opacity="1"/>
<polyline clip-path="url(#clip961)" style="stroke:#000000; stroke-linecap:round; stroke-linejoin:round; stroke-width:4; stroke-opacity:1; fill:none" points="527.882,239.484 175.59,239.484 175.59,278.945 527.882,278.945 527.882,239.484 351.736,239.484 527.882,239.484 "/>
<path clip-path="url(#clip961)" d="M351.736 112.857 L263.663 112.857 L439.809 112.857 L351.736 112.857 L351.736 239.484 L351.736 112.857  Z" fill="#ff0000" fill-rule="evenodd" fill-opacity="1"/>
<polyline clip-path="url(#clip961)" style="stroke:#000000; stroke-linecap:round; stroke-linejoin:round; stroke-width:4; stroke-opacity:1; fill:none" points="351.736,112.857 263.663,112.857 439.809,112.857 351.736,112.857 351.736,239.484 351.736,112.857 "/>
<path clip-path="url(#clip961)" d="M792.101 1307.94 L704.028 1307.94 L880.174 1307.94 L792.101 1307.94 L792.101 1289.43 L792.101 1307.94  Z" fill="#ff0000" fill-rule="evenodd" fill-opacity="1"/>
<polyline clip-path="url(#clip961)" style="stroke:#000000; stroke-linecap:round; stroke-linejoin:round; stroke-width:4; stroke-opacity:1; fill:none" points="792.101,1307.94 704.028,1307.94 880.174,1307.94 792.101,1307.94 792.101,1289.43 792.101,1307.94 "/>
<path clip-path="url(#clip961)" d="M968.247 1289.43 L968.247 1282.98 L615.955 1282.98 L615.955 1289.43 L968.247 1289.43 L968.247 1282.98 L968.247 1289.43  Z" fill="#ff0000" fill-rule="evenodd" fill-opacity="1"/>
<polyline clip-path="url(#clip961)" style="stroke:#000000; stroke-linecap:round; stroke-linejoin:round; stroke-width:4; stroke-opacity:1; fill:none" points="968.247,1289.43 968.247,1282.98 615.955,1282.98 615.955,1289.43 968.247,1289.43 968.247,1282.98 968.247,1289.43 "/>
<path clip-path="url(#clip961)" d="M968.247 1276.5 L615.955 1276.5 L615.955 1282.98 L968.247 1282.98 L968.247 1276.5 L792.101 1276.5 L968.247 1276.5  Z" fill="#ff0000" fill-rule="evenodd" fill-opacity="1"/>
<polyline clip-path="url(#clip961)" style="stroke:#000000; stroke-linecap:round; stroke-linejoin:round; stroke-width:4; stroke-opacity:1; fill:none" points="968.247,1276.5 615.955,1276.5 615.955,1282.98 968.247,1282.98 968.247,1276.5 792.101,1276.5 968.247,1276.5 "/>
<path clip-path="url(#clip961)" d="M792.101 1258.25 L704.028 1258.25 L880.174 1258.25 L792.101 1258.25 L792.101 1276.5 L792.101 1258.25  Z" fill="#ff0000" fill-rule="evenodd" fill-opacity="1"/>
<polyline clip-path="url(#clip961)" style="stroke:#000000; stroke-linecap:round; stroke-linejoin:round; stroke-width:4; stroke-opacity:1; fill:none" points="792.101,1258.25 704.028,1258.25 880.174,1258.25 792.101,1258.25 792.101,1276.5 792.101,1258.25 "/>
<path clip-path="url(#clip961)" d="M1232.47 1385.2 L1144.39 1385.2 L1320.54 1385.2 L1232.47 1385.2 L1232.47 1376.68 L1232.47 1385.2  Z" fill="#ff0000" fill-rule="evenodd" fill-opacity="1"/>
<polyline clip-path="url(#clip961)" style="stroke:#000000; stroke-linecap:round; stroke-linejoin:round; stroke-width:4; stroke-opacity:1; fill:none" points="1232.47,1385.2 1144.39,1385.2 1320.54,1385.2 1232.47,1385.2 1232.47,1376.68 1232.47,1385.2 "/>
<path clip-path="url(#clip961)" d="M1408.61 1376.68 L1408.61 1373.55 L1056.32 1373.55 L1056.32 1376.68 L1408.61 1376.68 L1408.61 1373.55 L1408.61 1376.68  Z" fill="#ff0000" fill-rule="evenodd" fill-opacity="1"/>
<polyline clip-path="url(#clip961)" style="stroke:#000000; stroke-linecap:round; stroke-linejoin:round; stroke-width:4; stroke-opacity:1; fill:none" points="1408.61,1376.68 1408.61,1373.55 1056.32,1373.55 1056.32,1376.68 1408.61,1376.68 1408.61,1373.55 1408.61,1376.68 "/>
<path clip-path="url(#clip961)" d="M1408.61 1370.77 L1056.32 1370.77 L1056.32 1373.55 L1408.61 1373.55 L1408.61 1370.77 L1232.47 1370.77 L1408.61 1370.77  Z" fill="#ff0000" fill-rule="evenodd" fill-opacity="1"/>
<polyline clip-path="url(#clip961)" style="stroke:#000000; stroke-linecap:round; stroke-linejoin:round; stroke-width:4; stroke-opacity:1; fill:none" points="1408.61,1370.77 1056.32,1370.77 1056.32,1373.55 1408.61,1373.55 1408.61,1370.77 1232.47,1370.77 1408.61,1370.77 "/>
<path clip-path="url(#clip961)" d="M1232.47 1362.32 L1144.39 1362.32 L1320.54 1362.32 L1232.47 1362.32 L1232.47 1370.77 L1232.47 1362.32  Z" fill="#ff0000" fill-rule="evenodd" fill-opacity="1"/>
<polyline clip-path="url(#clip961)" style="stroke:#000000; stroke-linecap:round; stroke-linejoin:round; stroke-width:4; stroke-opacity:1; fill:none" points="1232.47,1362.32 1144.39,1362.32 1320.54,1362.32 1232.47,1362.32 1232.47,1370.77 1232.47,1362.32 "/>
<path clip-path="url(#clip961)" d="M1672.83 1422.22 L1584.76 1422.22 L1760.9 1422.22 L1672.83 1422.22 L1672.83 1418.73 L1672.83 1422.22  Z" fill="#ff0000" fill-rule="evenodd" fill-opacity="1"/>
<polyline clip-path="url(#clip961)" style="stroke:#000000; stroke-linecap:round; stroke-linejoin:round; stroke-width:4; stroke-opacity:1; fill:none" points="1672.83,1422.22 1584.76,1422.22 1760.9,1422.22 1672.83,1422.22 1672.83,1418.73 1672.83,1422.22 "/>
<path clip-path="url(#clip961)" d="M1848.98 1418.73 L1848.98 1417.49 L1496.69 1417.49 L1496.69 1418.73 L1848.98 1418.73 L1848.98 1417.49 L1848.98 1418.73  Z" fill="#ff0000" fill-rule="evenodd" fill-opacity="1"/>
<polyline clip-path="url(#clip961)" style="stroke:#000000; stroke-linecap:round; stroke-linejoin:round; stroke-width:4; stroke-opacity:1; fill:none" points="1848.98,1418.73 1848.98,1417.49 1496.69,1417.49 1496.69,1418.73 1848.98,1418.73 1848.98,1417.49 1848.98,1418.73 "/>
<path clip-path="url(#clip961)" d="M1848.98 1416.31 L1496.69 1416.31 L1496.69 1417.49 L1848.98 1417.49 L1848.98 1416.31 L1672.83 1416.31 L1848.98 1416.31  Z" fill="#ff0000" fill-rule="evenodd" fill-opacity="1"/>
<polyline clip-path="url(#clip961)" style="stroke:#000000; stroke-linecap:round; stroke-linejoin:round; stroke-width:4; stroke-opacity:1; fill:none" points="1848.98,1416.31 1496.69,1416.31 1496.69,1417.49 1848.98,1417.49 1848.98,1416.31 1672.83,1416.31 1848.98,1416.31 "/>
<path clip-path="url(#clip961)" d="M1672.83 1412.71 L1584.76 1412.71 L1760.9 1412.71 L1672.83 1412.71 L1672.83 1416.31 L1672.83 1412.71  Z" fill="#ff0000" fill-rule="evenodd" fill-opacity="1"/>
<polyline clip-path="url(#clip961)" style="stroke:#000000; stroke-linecap:round; stroke-linejoin:round; stroke-width:4; stroke-opacity:1; fill:none" points="1672.83,1412.71 1584.76,1412.71 1760.9,1412.71 1672.83,1412.71 1672.83,1416.31 1672.83,1412.71 "/>
<path clip-path="url(#clip961)" d="M2113.2 1445.22 L2025.12 1445.22 L2201.27 1445.22 L2113.2 1445.22 L2113.2 1443.78 L2113.2 1445.22  Z" fill="#ff0000" fill-rule="evenodd" fill-opacity="1"/>
<polyline clip-path="url(#clip961)" style="stroke:#000000; stroke-linecap:round; stroke-linejoin:round; stroke-width:4; stroke-opacity:1; fill:none" points="2113.2,1445.22 2025.12,1445.22 2201.27,1445.22 2113.2,1445.22 2113.2,1443.78 2113.2,1445.22 "/>
<path clip-path="url(#clip961)" d="M2289.34 1443.78 L2289.34 1443.33 L1937.05 1443.33 L1937.05 1443.78 L2289.34 1443.78 L2289.34 1443.33 L2289.34 1443.78  Z" fill="#ff0000" fill-rule="evenodd" fill-opacity="1"/>
<polyline clip-path="url(#clip961)" style="stroke:#000000; stroke-linecap:round; stroke-linejoin:round; stroke-width:4; stroke-opacity:1; fill:none" points="2289.34,1443.78 2289.34,1443.33 1937.05,1443.33 1937.05,1443.78 2289.34,1443.78 2289.34,1443.33 2289.34,1443.78 "/>
<path clip-path="url(#clip961)" d="M2289.34 1442.81 L1937.05 1442.81 L1937.05 1443.33 L2289.34 1443.33 L2289.34 1442.81 L2113.2 1442.81 L2289.34 1442.81  Z" fill="#ff0000" fill-rule="evenodd" fill-opacity="1"/>
<polyline clip-path="url(#clip961)" style="stroke:#000000; stroke-linecap:round; stroke-linejoin:round; stroke-width:4; stroke-opacity:1; fill:none" points="2289.34,1442.81 1937.05,1442.81 1937.05,1443.33 2289.34,1443.33 2289.34,1442.81 2113.2,1442.81 2289.34,1442.81 "/>
<path clip-path="url(#clip961)" d="M2113.2 1441.4 L2025.12 1441.4 L2201.27 1441.4 L2113.2 1441.4 L2113.2 1442.81 L2113.2 1441.4  Z" fill="#ff0000" fill-rule="evenodd" fill-opacity="1"/>
<polyline clip-path="url(#clip961)" style="stroke:#000000; stroke-linecap:round; stroke-linejoin:round; stroke-width:4; stroke-opacity:1; fill:none" points="2113.2,1441.4 2025.12,1441.4 2201.27,1441.4 2113.2,1441.4 2113.2,1442.81 2113.2,1441.4 "/>
<circle clip-path="url(#clip961)" cx="351.736" cy="653.724" r="14.4" fill="#ff0000" fill-rule="evenodd" fill-opacity="1" stroke="#000000" stroke-opacity="1" stroke-width="3.2"/>
<circle clip-path="url(#clip961)" cx="351.736" cy="481.691" r="14.4" fill="#ff0000" fill-rule="evenodd" fill-opacity="1" stroke="#000000" stroke-opacity="1" stroke-width="3.2"/>
<circle clip-path="url(#clip961)" cx="351.736" cy="647.653" r="14.4" fill="#ff0000" fill-rule="evenodd" fill-opacity="1" stroke="#000000" stroke-opacity="1" stroke-width="3.2"/>
<circle clip-path="url(#clip961)" cx="351.736" cy="532.629" r="14.4" fill="#ff0000" fill-rule="evenodd" fill-opacity="1" stroke="#000000" stroke-opacity="1" stroke-width="3.2"/>
<circle clip-path="url(#clip961)" cx="351.736" cy="645.549" r="14.4" fill="#ff0000" fill-rule="evenodd" fill-opacity="1" stroke="#000000" stroke-opacity="1" stroke-width="3.2"/>
<circle clip-path="url(#clip961)" cx="351.736" cy="567.104" r="14.4" fill="#ff0000" fill-rule="evenodd" fill-opacity="1" stroke="#000000" stroke-opacity="1" stroke-width="3.2"/>
<circle clip-path="url(#clip961)" cx="351.736" cy="485.225" r="14.4" fill="#ff0000" fill-rule="evenodd" fill-opacity="1" stroke="#000000" stroke-opacity="1" stroke-width="3.2"/>
<circle clip-path="url(#clip961)" cx="351.736" cy="524.988" r="14.4" fill="#ff0000" fill-rule="evenodd" fill-opacity="1" stroke="#000000" stroke-opacity="1" stroke-width="3.2"/>
<circle clip-path="url(#clip961)" cx="351.736" cy="87.9763" r="14.4" fill="#ff0000" fill-rule="evenodd" fill-opacity="1" stroke="#000000" stroke-opacity="1" stroke-width="3.2"/>
<circle clip-path="url(#clip961)" cx="351.736" cy="555.043" r="14.4" fill="#ff0000" fill-rule="evenodd" fill-opacity="1" stroke="#000000" stroke-opacity="1" stroke-width="3.2"/>
<circle clip-path="url(#clip961)" cx="351.736" cy="480.725" r="14.4" fill="#ff0000" fill-rule="evenodd" fill-opacity="1" stroke="#000000" stroke-opacity="1" stroke-width="3.2"/>
<circle clip-path="url(#clip961)" cx="351.736" cy="473.466" r="14.4" fill="#ff0000" fill-rule="evenodd" fill-opacity="1" stroke="#000000" stroke-opacity="1" stroke-width="3.2"/>
<circle clip-path="url(#clip961)" cx="351.736" cy="596.039" r="14.4" fill="#ff0000" fill-rule="evenodd" fill-opacity="1" stroke="#000000" stroke-opacity="1" stroke-width="3.2"/>
<circle clip-path="url(#clip961)" cx="351.736" cy="552.454" r="14.4" fill="#ff0000" fill-rule="evenodd" fill-opacity="1" stroke="#000000" stroke-opacity="1" stroke-width="3.2"/>
<circle clip-path="url(#clip961)" cx="351.736" cy="669.542" r="14.4" fill="#ff0000" fill-rule="evenodd" fill-opacity="1" stroke="#000000" stroke-opacity="1" stroke-width="3.2"/>
<circle clip-path="url(#clip961)" cx="351.736" cy="490.82" r="14.4" fill="#ff0000" fill-rule="evenodd" fill-opacity="1" stroke="#000000" stroke-opacity="1" stroke-width="3.2"/>
<circle clip-path="url(#clip961)" cx="351.736" cy="551.691" r="14.4" fill="#ff0000" fill-rule="evenodd" fill-opacity="1" stroke="#000000" stroke-opacity="1" stroke-width="3.2"/>
<circle clip-path="url(#clip961)" cx="351.736" cy="95.4569" r="14.4" fill="#ff0000" fill-rule="evenodd" fill-opacity="1" stroke="#000000" stroke-opacity="1" stroke-width="3.2"/>
<circle clip-path="url(#clip961)" cx="351.736" cy="470.361" r="14.4" fill="#ff0000" fill-rule="evenodd" fill-opacity="1" stroke="#000000" stroke-opacity="1" stroke-width="3.2"/>
<circle clip-path="url(#clip961)" cx="351.736" cy="103.072" r="14.4" fill="#ff0000" fill-rule="evenodd" fill-opacity="1" stroke="#000000" stroke-opacity="1" stroke-width="3.2"/>
<circle clip-path="url(#clip961)" cx="351.736" cy="573.966" r="14.4" fill="#ff0000" fill-rule="evenodd" fill-opacity="1" stroke="#000000" stroke-opacity="1" stroke-width="3.2"/>
<circle clip-path="url(#clip961)" cx="351.736" cy="519.226" r="14.4" fill="#ff0000" fill-rule="evenodd" fill-opacity="1" stroke="#000000" stroke-opacity="1" stroke-width="3.2"/>
<circle clip-path="url(#clip961)" cx="351.736" cy="492.428" r="14.4" fill="#ff0000" fill-rule="evenodd" fill-opacity="1" stroke="#000000" stroke-opacity="1" stroke-width="3.2"/>
<circle clip-path="url(#clip961)" cx="351.736" cy="493.884" r="14.4" fill="#ff0000" fill-rule="evenodd" fill-opacity="1" stroke="#000000" stroke-opacity="1" stroke-width="3.2"/>
<circle clip-path="url(#clip961)" cx="351.736" cy="501.046" r="14.4" fill="#ff0000" fill-rule="evenodd" fill-opacity="1" stroke="#000000" stroke-opacity="1" stroke-width="3.2"/>
<circle clip-path="url(#clip961)" cx="351.736" cy="529.139" r="14.4" fill="#ff0000" fill-rule="evenodd" fill-opacity="1" stroke="#000000" stroke-opacity="1" stroke-width="3.2"/>
<circle clip-path="url(#clip961)" cx="351.736" cy="476.256" r="14.4" fill="#ff0000" fill-rule="evenodd" fill-opacity="1" stroke="#000000" stroke-opacity="1" stroke-width="3.2"/>
<circle clip-path="url(#clip961)" cx="351.736" cy="548.876" r="14.4" fill="#ff0000" fill-rule="evenodd" fill-opacity="1" stroke="#000000" stroke-opacity="1" stroke-width="3.2"/>
<circle clip-path="url(#clip961)" cx="351.736" cy="543.707" r="14.4" fill="#ff0000" fill-rule="evenodd" fill-opacity="1" stroke="#000000" stroke-opacity="1" stroke-width="3.2"/>
<circle clip-path="url(#clip961)" cx="351.736" cy="499.229" r="14.4" fill="#ff0000" fill-rule="evenodd" fill-opacity="1" stroke="#000000" stroke-opacity="1" stroke-width="3.2"/>
<circle clip-path="url(#clip961)" cx="351.736" cy="464.471" r="14.4" fill="#ff0000" fill-rule="evenodd" fill-opacity="1" stroke="#000000" stroke-opacity="1" stroke-width="3.2"/>
<circle clip-path="url(#clip961)" cx="351.736" cy="597.214" r="14.4" fill="#ff0000" fill-rule="evenodd" fill-opacity="1" stroke="#000000" stroke-opacity="1" stroke-width="3.2"/>
<circle clip-path="url(#clip961)" cx="351.736" cy="505.664" r="14.4" fill="#ff0000" fill-rule="evenodd" fill-opacity="1" stroke="#000000" stroke-opacity="1" stroke-width="3.2"/>
<circle clip-path="url(#clip961)" cx="792.101" cy="1325.24" r="14.4" fill="#ff0000" fill-rule="evenodd" fill-opacity="1" stroke="#000000" stroke-opacity="1" stroke-width="3.2"/>
<circle clip-path="url(#clip961)" cx="792.101" cy="1311.61" r="14.4" fill="#ff0000" fill-rule="evenodd" fill-opacity="1" stroke="#000000" stroke-opacity="1" stroke-width="3.2"/>
<circle clip-path="url(#clip961)" cx="792.101" cy="1310.59" r="14.4" fill="#ff0000" fill-rule="evenodd" fill-opacity="1" stroke="#000000" stroke-opacity="1" stroke-width="3.2"/>
<circle clip-path="url(#clip961)" cx="792.101" cy="1255.24" r="14.4" fill="#ff0000" fill-rule="evenodd" fill-opacity="1" stroke="#000000" stroke-opacity="1" stroke-width="3.2"/>
<circle clip-path="url(#clip961)" cx="792.101" cy="1313.94" r="14.4" fill="#ff0000" fill-rule="evenodd" fill-opacity="1" stroke="#000000" stroke-opacity="1" stroke-width="3.2"/>
<circle clip-path="url(#clip961)" cx="792.101" cy="1250.08" r="14.4" fill="#ff0000" fill-rule="evenodd" fill-opacity="1" stroke="#000000" stroke-opacity="1" stroke-width="3.2"/>
<circle clip-path="url(#clip961)" cx="792.101" cy="1309.62" r="14.4" fill="#ff0000" fill-rule="evenodd" fill-opacity="1" stroke="#000000" stroke-opacity="1" stroke-width="3.2"/>
<circle clip-path="url(#clip961)" cx="792.101" cy="1313.78" r="14.4" fill="#ff0000" fill-rule="evenodd" fill-opacity="1" stroke="#000000" stroke-opacity="1" stroke-width="3.2"/>
<circle clip-path="url(#clip961)" cx="792.101" cy="1310.75" r="14.4" fill="#ff0000" fill-rule="evenodd" fill-opacity="1" stroke="#000000" stroke-opacity="1" stroke-width="3.2"/>
<circle clip-path="url(#clip961)" cx="1232.47" cy="1385.9" r="14.4" fill="#ff0000" fill-rule="evenodd" fill-opacity="1" stroke="#000000" stroke-opacity="1" stroke-width="3.2"/>
<circle clip-path="url(#clip961)" cx="1232.47" cy="1386.34" r="14.4" fill="#ff0000" fill-rule="evenodd" fill-opacity="1" stroke="#000000" stroke-opacity="1" stroke-width="3.2"/>
<circle clip-path="url(#clip961)" cx="1232.47" cy="1359.85" r="14.4" fill="#ff0000" fill-rule="evenodd" fill-opacity="1" stroke="#000000" stroke-opacity="1" stroke-width="3.2"/>
<circle clip-path="url(#clip961)" cx="1232.47" cy="1389.03" r="14.4" fill="#ff0000" fill-rule="evenodd" fill-opacity="1" stroke="#000000" stroke-opacity="1" stroke-width="3.2"/>
<circle clip-path="url(#clip961)" cx="1232.47" cy="1358.08" r="14.4" fill="#ff0000" fill-rule="evenodd" fill-opacity="1" stroke="#000000" stroke-opacity="1" stroke-width="3.2"/>
<circle clip-path="url(#clip961)" cx="1232.47" cy="1386.44" r="14.4" fill="#ff0000" fill-rule="evenodd" fill-opacity="1" stroke="#000000" stroke-opacity="1" stroke-width="3.2"/>
<circle clip-path="url(#clip961)" cx="1232.47" cy="1360.88" r="14.4" fill="#ff0000" fill-rule="evenodd" fill-opacity="1" stroke="#000000" stroke-opacity="1" stroke-width="3.2"/>
<circle clip-path="url(#clip961)" cx="1672.83" cy="1422.83" r="14.4" fill="#ff0000" fill-rule="evenodd" fill-opacity="1" stroke="#000000" stroke-opacity="1" stroke-width="3.2"/>
<circle clip-path="url(#clip961)" cx="1672.83" cy="1412.63" r="14.4" fill="#ff0000" fill-rule="evenodd" fill-opacity="1" stroke="#000000" stroke-opacity="1" stroke-width="3.2"/>
<circle clip-path="url(#clip961)" cx="1672.83" cy="1412.59" r="14.4" fill="#ff0000" fill-rule="evenodd" fill-opacity="1" stroke="#000000" stroke-opacity="1" stroke-width="3.2"/>
<circle clip-path="url(#clip961)" cx="1672.83" cy="1412.11" r="14.4" fill="#ff0000" fill-rule="evenodd" fill-opacity="1" stroke="#000000" stroke-opacity="1" stroke-width="3.2"/>
<circle clip-path="url(#clip961)" cx="1672.83" cy="1422.63" r="14.4" fill="#ff0000" fill-rule="evenodd" fill-opacity="1" stroke="#000000" stroke-opacity="1" stroke-width="3.2"/>
<circle clip-path="url(#clip961)" cx="1672.83" cy="1412.61" r="14.4" fill="#ff0000" fill-rule="evenodd" fill-opacity="1" stroke="#000000" stroke-opacity="1" stroke-width="3.2"/>
<circle clip-path="url(#clip961)" cx="1672.83" cy="1423.11" r="14.4" fill="#ff0000" fill-rule="evenodd" fill-opacity="1" stroke="#000000" stroke-opacity="1" stroke-width="3.2"/>
<circle clip-path="url(#clip961)" cx="1672.83" cy="1422.92" r="14.4" fill="#ff0000" fill-rule="evenodd" fill-opacity="1" stroke="#000000" stroke-opacity="1" stroke-width="3.2"/>
<circle clip-path="url(#clip961)" cx="1672.83" cy="1412.1" r="14.4" fill="#ff0000" fill-rule="evenodd" fill-opacity="1" stroke="#000000" stroke-opacity="1" stroke-width="3.2"/>
<circle clip-path="url(#clip961)" cx="2113.2" cy="1441.29" r="14.4" fill="#ff0000" fill-rule="evenodd" fill-opacity="1" stroke="#000000" stroke-opacity="1" stroke-width="3.2"/>
<circle clip-path="url(#clip961)" cx="2113.2" cy="1441.01" r="14.4" fill="#ff0000" fill-rule="evenodd" fill-opacity="1" stroke="#000000" stroke-opacity="1" stroke-width="3.2"/>
<circle clip-path="url(#clip961)" cx="2113.2" cy="1440.87" r="14.4" fill="#ff0000" fill-rule="evenodd" fill-opacity="1" stroke="#000000" stroke-opacity="1" stroke-width="3.2"/>
<circle clip-path="url(#clip961)" cx="2113.2" cy="1445.72" r="14.4" fill="#ff0000" fill-rule="evenodd" fill-opacity="1" stroke="#000000" stroke-opacity="1" stroke-width="3.2"/>
<circle clip-path="url(#clip961)" cx="2113.2" cy="1441.31" r="14.4" fill="#ff0000" fill-rule="evenodd" fill-opacity="1" stroke="#000000" stroke-opacity="1" stroke-width="3.2"/>
<circle clip-path="url(#clip961)" cx="2113.2" cy="1445.53" r="14.4" fill="#ff0000" fill-rule="evenodd" fill-opacity="1" stroke="#000000" stroke-opacity="1" stroke-width="3.2"/>
<circle clip-path="url(#clip961)" cx="2113.2" cy="1441.34" r="14.4" fill="#ff0000" fill-rule="evenodd" fill-opacity="1" stroke="#000000" stroke-opacity="1" stroke-width="3.2"/>
<circle clip-path="url(#clip961)" cx="2113.2" cy="1441.17" r="14.4" fill="#ff0000" fill-rule="evenodd" fill-opacity="1" stroke="#000000" stroke-opacity="1" stroke-width="3.2"/>
<polyline clip-path="url(#clip961)" style="stroke:#ff0000; stroke-linecap:round; stroke-linejoin:round; stroke-width:0; stroke-opacity:1; fill:none" points="351.736,457.195 263.663,457.195 439.809,457.195 351.736,457.195 351.736,328.813 "/>
<polyline clip-path="url(#clip961)" style="stroke:#ff0000; stroke-linecap:round; stroke-linejoin:round; stroke-width:0; stroke-opacity:1; fill:none" points="527.882,328.813 527.882,278.945 175.59,278.945 175.59,328.813 527.882,328.813 527.882,278.945 "/>
<polyline clip-path="url(#clip961)" style="stroke:#ff0000; stroke-linecap:round; stroke-linejoin:round; stroke-width:0; stroke-opacity:1; fill:none" points="527.882,239.484 175.59,239.484 175.59,278.945 527.882,278.945 527.882,239.484 351.736,239.484 "/>
<polyline clip-path="url(#clip961)" style="stroke:#ff0000; stroke-linecap:round; stroke-linejoin:round; stroke-width:0; stroke-opacity:1; fill:none" points="351.736,112.857 263.663,112.857 439.809,112.857 351.736,112.857 351.736,239.484 "/>
<polyline clip-path="url(#clip961)" style="stroke:#ff0000; stroke-linecap:round; stroke-linejoin:round; stroke-width:0; stroke-opacity:1; fill:none" points="792.101,1307.94 704.028,1307.94 880.174,1307.94 792.101,1307.94 792.101,1289.43 "/>
<polyline clip-path="url(#clip961)" style="stroke:#ff0000; stroke-linecap:round; stroke-linejoin:round; stroke-width:0; stroke-opacity:1; fill:none" points="968.247,1289.43 968.247,1282.98 615.955,1282.98 615.955,1289.43 968.247,1289.43 968.247,1282.98 "/>
<polyline clip-path="url(#clip961)" style="stroke:#ff0000; stroke-linecap:round; stroke-linejoin:round; stroke-width:0; stroke-opacity:1; fill:none" points="968.247,1276.5 615.955,1276.5 615.955,1282.98 968.247,1282.98 968.247,1276.5 792.101,1276.5 "/>
<polyline clip-path="url(#clip961)" style="stroke:#ff0000; stroke-linecap:round; stroke-linejoin:round; stroke-width:0; stroke-opacity:1; fill:none" points="792.101,1258.25 704.028,1258.25 880.174,1258.25 792.101,1258.25 792.101,1276.5 "/>
<polyline clip-path="url(#clip961)" style="stroke:#ff0000; stroke-linecap:round; stroke-linejoin:round; stroke-width:0; stroke-opacity:1; fill:none" points="1232.47,1385.2 1144.39,1385.2 1320.54,1385.2 1232.47,1385.2 1232.47,1376.68 "/>
<polyline clip-path="url(#clip961)" style="stroke:#ff0000; stroke-linecap:round; stroke-linejoin:round; stroke-width:0; stroke-opacity:1; fill:none" points="1408.61,1376.68 1408.61,1373.55 1056.32,1373.55 1056.32,1376.68 1408.61,1376.68 1408.61,1373.55 "/>
<polyline clip-path="url(#clip961)" style="stroke:#ff0000; stroke-linecap:round; stroke-linejoin:round; stroke-width:0; stroke-opacity:1; fill:none" points="1408.61,1370.77 1056.32,1370.77 1056.32,1373.55 1408.61,1373.55 1408.61,1370.77 1232.47,1370.77 "/>
<polyline clip-path="url(#clip961)" style="stroke:#ff0000; stroke-linecap:round; stroke-linejoin:round; stroke-width:0; stroke-opacity:1; fill:none" points="1232.47,1362.32 1144.39,1362.32 1320.54,1362.32 1232.47,1362.32 1232.47,1370.77 "/>
<polyline clip-path="url(#clip961)" style="stroke:#ff0000; stroke-linecap:round; stroke-linejoin:round; stroke-width:0; stroke-opacity:1; fill:none" points="1672.83,1422.22 1584.76,1422.22 1760.9,1422.22 1672.83,1422.22 1672.83,1418.73 "/>
<polyline clip-path="url(#clip961)" style="stroke:#ff0000; stroke-linecap:round; stroke-linejoin:round; stroke-width:0; stroke-opacity:1; fill:none" points="1848.98,1418.73 1848.98,1417.49 1496.69,1417.49 1496.69,1418.73 1848.98,1418.73 1848.98,1417.49 "/>
<polyline clip-path="url(#clip961)" style="stroke:#ff0000; stroke-linecap:round; stroke-linejoin:round; stroke-width:0; stroke-opacity:1; fill:none" points="1848.98,1416.31 1496.69,1416.31 1496.69,1417.49 1848.98,1417.49 1848.98,1416.31 1672.83,1416.31 "/>
<polyline clip-path="url(#clip961)" style="stroke:#ff0000; stroke-linecap:round; stroke-linejoin:round; stroke-width:0; stroke-opacity:1; fill:none" points="1672.83,1412.71 1584.76,1412.71 1760.9,1412.71 1672.83,1412.71 1672.83,1416.31 "/>
<polyline clip-path="url(#clip961)" style="stroke:#ff0000; stroke-linecap:round; stroke-linejoin:round; stroke-width:0; stroke-opacity:1; fill:none" points="2113.2,1445.22 2025.12,1445.22 2201.27,1445.22 2113.2,1445.22 2113.2,1443.78 "/>
<polyline clip-path="url(#clip961)" style="stroke:#ff0000; stroke-linecap:round; stroke-linejoin:round; stroke-width:0; stroke-opacity:1; fill:none" points="2289.34,1443.78 2289.34,1443.33 1937.05,1443.33 1937.05,1443.78 2289.34,1443.78 2289.34,1443.33 "/>
<polyline clip-path="url(#clip961)" style="stroke:#ff0000; stroke-linecap:round; stroke-linejoin:round; stroke-width:0; stroke-opacity:1; fill:none" points="2289.34,1442.81 1937.05,1442.81 1937.05,1443.33 2289.34,1443.33 2289.34,1442.81 2113.2,1442.81 "/>
<polyline clip-path="url(#clip961)" style="stroke:#ff0000; stroke-linecap:round; stroke-linejoin:round; stroke-width:0; stroke-opacity:1; fill:none" points="2113.2,1441.4 2025.12,1441.4 2201.27,1441.4 2113.2,1441.4 2113.2,1442.81 "/>
</svg>
