<?xml version="1.0" encoding="utf-8"?>
<svg xmlns="http://www.w3.org/2000/svg" xmlns:xlink="http://www.w3.org/1999/xlink" width="600" height="400" viewBox="0 0 2400 1600">
<defs>
  <clipPath id="clip590">
    <rect x="0" y="0" width="2400" height="1600"/>
  </clipPath>
</defs>
<path clip-path="url(#clip590)" d="M0 1600 L2400 1600 L2400 0 L0 0  Z" fill="#ffffff" fill-rule="evenodd" fill-opacity="1"/>
<defs>
  <clipPath id="clip591">
    <rect x="169" y="47" width="2185" height="1440"/>
  </clipPath>
</defs>
<path clip-path="url(#clip590)" d="M169.121 1486.45 L2352.76 1486.45 L2352.76 47.2441 L169.121 47.2441  Z" fill="#ffffff" fill-rule="evenodd" fill-opacity="1"/>
<polyline clip-path="url(#clip591)" style="stroke:#000000; stroke-linecap:round; stroke-linejoin:round; stroke-width:2; stroke-opacity:0.1; fill:none" points="402.592,1486.45 402.592,47.2441 "/>
<polyline clip-path="url(#clip591)" style="stroke:#000000; stroke-linecap:round; stroke-linejoin:round; stroke-width:2; stroke-opacity:0.1; fill:none" points="831.765,1486.45 831.765,47.2441 "/>
<polyline clip-path="url(#clip591)" style="stroke:#000000; stroke-linecap:round; stroke-linejoin:round; stroke-width:2; stroke-opacity:0.1; fill:none" points="1260.94,1486.45 1260.94,47.2441 "/>
<polyline clip-path="url(#clip591)" style="stroke:#000000; stroke-linecap:round; stroke-linejoin:round; stroke-width:2; stroke-opacity:0.1; fill:none" points="1690.11,1486.45 1690.11,47.2441 "/>
<polyline clip-path="url(#clip591)" style="stroke:#000000; stroke-linecap:round; stroke-linejoin:round; stroke-width:2; stroke-opacity:0.1; fill:none" points="2119.29,1486.45 2119.29,47.2441 "/>
<polyline clip-path="url(#clip591)" style="stroke:#000000; stroke-linecap:round; stroke-linejoin:round; stroke-width:2; stroke-opacity:0.1; fill:none" points="169.121,1270.48 2352.76,1270.48 "/>
<polyline clip-path="url(#clip591)" style="stroke:#000000; stroke-linecap:round; stroke-linejoin:round; stroke-width:2; stroke-opacity:0.1; fill:none" points="169.121,1021.31 2352.76,1021.31 "/>
<polyline clip-path="url(#clip591)" style="stroke:#000000; stroke-linecap:round; stroke-linejoin:round; stroke-width:2; stroke-opacity:0.1; fill:none" points="169.121,772.138 2352.76,772.138 "/>
<polyline clip-path="url(#clip591)" style="stroke:#000000; stroke-linecap:round; stroke-linejoin:round; stroke-width:2; stroke-opacity:0.1; fill:none" points="169.121,522.966 2352.76,522.966 "/>
<polyline clip-path="url(#clip591)" style="stroke:#000000; stroke-linecap:round; stroke-linejoin:round; stroke-width:2; stroke-opacity:0.1; fill:none" points="169.121,273.794 2352.76,273.794 "/>
<polyline clip-path="url(#clip590)" style="stroke:#000000; stroke-linecap:round; stroke-linejoin:round; stroke-width:4; stroke-opacity:1; fill:none" points="169.121,1486.45 2352.76,1486.45 "/>
<polyline clip-path="url(#clip590)" style="stroke:#000000; stroke-linecap:round; stroke-linejoin:round; stroke-width:4; stroke-opacity:1; fill:none" points="402.592,1486.45 402.592,1467.55 "/>
<polyline clip-path="url(#clip590)" style="stroke:#000000; stroke-linecap:round; stroke-linejoin:round; stroke-width:4; stroke-opacity:1; fill:none" points="831.765,1486.45 831.765,1467.55 "/>
<polyline clip-path="url(#clip590)" style="stroke:#000000; stroke-linecap:round; stroke-linejoin:round; stroke-width:4; stroke-opacity:1; fill:none" points="1260.94,1486.45 1260.94,1467.55 "/>
<polyline clip-path="url(#clip590)" style="stroke:#000000; stroke-linecap:round; stroke-linejoin:round; stroke-width:4; stroke-opacity:1; fill:none" points="1690.11,1486.45 1690.11,1467.55 "/>
<polyline clip-path="url(#clip590)" style="stroke:#000000; stroke-linecap:round; stroke-linejoin:round; stroke-width:4; stroke-opacity:1; fill:none" points="2119.29,1486.45 2119.29,1467.55 "/>
<path clip-path="url(#clip590)" d="M377.279 1544.91 L384.918 1544.91 L384.918 1518.55 L376.608 1520.21 L376.608 1515.95 L384.872 1514.29 L389.548 1514.29 L389.548 1544.91 L397.187 1544.91 L397.187 1548.85 L377.279 1548.85 L377.279 1544.91 Z" fill="#000000" fill-rule="nonzero" fill-opacity="1" /><path clip-path="url(#clip590)" d="M416.631 1517.37 Q413.02 1517.37 411.191 1520.93 Q409.386 1524.47 409.386 1531.6 Q409.386 1538.71 411.191 1542.27 Q413.02 1545.82 416.631 1545.82 Q420.265 1545.82 422.071 1542.27 Q423.899 1538.71 423.899 1531.6 Q423.899 1524.47 422.071 1520.93 Q420.265 1517.37 416.631 1517.37 M416.631 1513.66 Q422.441 1513.66 425.497 1518.27 Q428.575 1522.85 428.575 1531.6 Q428.575 1540.33 425.497 1544.94 Q422.441 1549.52 416.631 1549.52 Q410.821 1549.52 407.742 1544.94 Q404.687 1540.33 404.687 1531.6 Q404.687 1522.85 407.742 1518.27 Q410.821 1513.66 416.631 1513.66 Z" fill="#000000" fill-rule="nonzero" fill-opacity="1" /><path clip-path="url(#clip590)" d="M806.464 1514.29 L824.821 1514.29 L824.821 1518.22 L810.747 1518.22 L810.747 1526.7 Q811.765 1526.35 812.784 1526.19 Q813.802 1526 814.821 1526 Q820.608 1526 823.987 1529.17 Q827.367 1532.34 827.367 1537.76 Q827.367 1543.34 823.895 1546.44 Q820.423 1549.52 814.103 1549.52 Q811.927 1549.52 809.659 1549.15 Q807.413 1548.78 805.006 1548.04 L805.006 1543.34 Q807.089 1544.47 809.312 1545.03 Q811.534 1545.58 814.011 1545.58 Q818.015 1545.58 820.353 1543.48 Q822.691 1541.37 822.691 1537.76 Q822.691 1534.15 820.353 1532.04 Q818.015 1529.94 814.011 1529.94 Q812.136 1529.94 810.261 1530.35 Q808.409 1530.77 806.464 1531.65 L806.464 1514.29 Z" fill="#000000" fill-rule="nonzero" fill-opacity="1" /><path clip-path="url(#clip590)" d="M846.58 1517.37 Q842.969 1517.37 841.14 1520.93 Q839.335 1524.47 839.335 1531.6 Q839.335 1538.71 841.14 1542.27 Q842.969 1545.82 846.58 1545.82 Q850.214 1545.82 852.02 1542.27 Q853.848 1538.71 853.848 1531.6 Q853.848 1524.47 852.02 1520.93 Q850.214 1517.37 846.58 1517.37 M846.58 1513.66 Q852.39 1513.66 855.446 1518.27 Q858.524 1522.85 858.524 1531.6 Q858.524 1540.33 855.446 1544.94 Q852.39 1549.52 846.58 1549.52 Q840.77 1549.52 837.691 1544.94 Q834.636 1540.33 834.636 1531.6 Q834.636 1522.85 837.691 1518.27 Q840.77 1513.66 846.58 1513.66 Z" fill="#000000" fill-rule="nonzero" fill-opacity="1" /><path clip-path="url(#clip590)" d="M1220.55 1544.91 L1228.18 1544.91 L1228.18 1518.55 L1219.87 1520.21 L1219.87 1515.95 L1228.14 1514.29 L1232.81 1514.29 L1232.81 1544.91 L1240.45 1544.91 L1240.45 1548.85 L1220.55 1548.85 L1220.55 1544.91 Z" fill="#000000" fill-rule="nonzero" fill-opacity="1" /><path clip-path="url(#clip590)" d="M1259.9 1517.37 Q1256.29 1517.37 1254.46 1520.93 Q1252.65 1524.47 1252.65 1531.6 Q1252.65 1538.71 1254.46 1542.27 Q1256.29 1545.82 1259.9 1545.82 Q1263.53 1545.82 1265.34 1542.27 Q1267.17 1538.71 1267.17 1531.6 Q1267.17 1524.47 1265.34 1520.93 Q1263.53 1517.37 1259.9 1517.37 M1259.9 1513.66 Q1265.71 1513.66 1268.76 1518.27 Q1271.84 1522.85 1271.84 1531.6 Q1271.84 1540.33 1268.76 1544.94 Q1265.71 1549.52 1259.9 1549.52 Q1254.09 1549.52 1251.01 1544.94 Q1247.95 1540.33 1247.95 1531.6 Q1247.95 1522.85 1251.01 1518.27 Q1254.09 1513.66 1259.9 1513.66 Z" fill="#000000" fill-rule="nonzero" fill-opacity="1" /><path clip-path="url(#clip590)" d="M1290.06 1517.37 Q1286.45 1517.37 1284.62 1520.93 Q1282.81 1524.47 1282.81 1531.6 Q1282.81 1538.71 1284.62 1542.27 Q1286.45 1545.82 1290.06 1545.82 Q1293.69 1545.82 1295.5 1542.27 Q1297.33 1538.71 1297.33 1531.6 Q1297.33 1524.47 1295.5 1520.93 Q1293.69 1517.37 1290.06 1517.37 M1290.06 1513.66 Q1295.87 1513.66 1298.92 1518.27 Q1302 1522.85 1302 1531.6 Q1302 1540.33 1298.92 1544.94 Q1295.87 1549.52 1290.06 1549.52 Q1284.25 1549.52 1281.17 1544.94 Q1278.11 1540.33 1278.11 1531.6 Q1278.11 1522.85 1281.17 1518.27 Q1284.25 1513.66 1290.06 1513.66 Z" fill="#000000" fill-rule="nonzero" fill-opacity="1" /><path clip-path="url(#clip590)" d="M1653.8 1544.91 L1670.12 1544.91 L1670.12 1548.85 L1648.18 1548.85 L1648.18 1544.91 Q1650.84 1542.16 1655.42 1537.53 Q1660.03 1532.88 1661.21 1531.53 Q1663.46 1529.01 1664.34 1527.27 Q1665.24 1525.51 1665.24 1523.82 Q1665.24 1521.07 1663.3 1519.33 Q1661.37 1517.6 1658.27 1517.6 Q1656.07 1517.6 1653.62 1518.36 Q1651.19 1519.13 1648.41 1520.68 L1648.41 1515.95 Q1651.23 1514.82 1653.69 1514.24 Q1656.14 1513.66 1658.18 1513.66 Q1663.55 1513.66 1666.74 1516.35 Q1669.94 1519.03 1669.94 1523.52 Q1669.94 1525.65 1669.13 1527.57 Q1668.34 1529.47 1666.23 1532.07 Q1665.66 1532.74 1662.55 1535.95 Q1659.45 1539.15 1653.8 1544.91 Z" fill="#000000" fill-rule="nonzero" fill-opacity="1" /><path clip-path="url(#clip590)" d="M1689.94 1517.37 Q1686.33 1517.37 1684.5 1520.93 Q1682.69 1524.47 1682.69 1531.6 Q1682.69 1538.71 1684.5 1542.27 Q1686.33 1545.82 1689.94 1545.82 Q1693.57 1545.82 1695.38 1542.27 Q1697.21 1538.71 1697.21 1531.6 Q1697.21 1524.47 1695.38 1520.93 Q1693.57 1517.37 1689.94 1517.37 M1689.94 1513.66 Q1695.75 1513.66 1698.8 1518.27 Q1701.88 1522.85 1701.88 1531.6 Q1701.88 1540.33 1698.8 1544.94 Q1695.75 1549.52 1689.94 1549.52 Q1684.13 1549.52 1681.05 1544.94 Q1677.99 1540.33 1677.99 1531.6 Q1677.99 1522.85 1681.05 1518.27 Q1684.13 1513.66 1689.94 1513.66 Z" fill="#000000" fill-rule="nonzero" fill-opacity="1" /><path clip-path="url(#clip590)" d="M1720.1 1517.37 Q1716.49 1517.37 1714.66 1520.93 Q1712.86 1524.47 1712.86 1531.6 Q1712.86 1538.71 1714.66 1542.27 Q1716.49 1545.82 1720.1 1545.82 Q1723.73 1545.82 1725.54 1542.27 Q1727.37 1538.71 1727.37 1531.6 Q1727.37 1524.47 1725.54 1520.93 Q1723.73 1517.37 1720.1 1517.37 M1720.1 1513.66 Q1725.91 1513.66 1728.97 1518.27 Q1732.04 1522.85 1732.04 1531.6 Q1732.04 1540.33 1728.97 1544.94 Q1725.91 1549.52 1720.1 1549.52 Q1714.29 1549.52 1711.21 1544.94 Q1708.16 1540.33 1708.16 1531.6 Q1708.16 1522.85 1711.21 1518.27 Q1714.29 1513.66 1720.1 1513.66 Z" fill="#000000" fill-rule="nonzero" fill-opacity="1" /><path clip-path="url(#clip590)" d="M2078.9 1514.29 L2097.26 1514.29 L2097.26 1518.22 L2083.19 1518.22 L2083.19 1526.7 Q2084.2 1526.35 2085.22 1526.19 Q2086.24 1526 2087.26 1526 Q2093.05 1526 2096.43 1529.17 Q2099.81 1532.34 2099.81 1537.76 Q2099.81 1543.34 2096.33 1546.44 Q2092.86 1549.52 2086.54 1549.52 Q2084.37 1549.52 2082.1 1549.15 Q2079.85 1548.78 2077.45 1548.04 L2077.45 1543.34 Q2079.53 1544.47 2081.75 1545.03 Q2083.97 1545.58 2086.45 1545.58 Q2090.45 1545.58 2092.79 1543.48 Q2095.13 1541.37 2095.13 1537.76 Q2095.13 1534.15 2092.79 1532.04 Q2090.45 1529.94 2086.45 1529.94 Q2084.58 1529.94 2082.7 1530.35 Q2080.85 1530.77 2078.9 1531.65 L2078.9 1514.29 Z" fill="#000000" fill-rule="nonzero" fill-opacity="1" /><path clip-path="url(#clip590)" d="M2119.02 1517.37 Q2115.41 1517.37 2113.58 1520.93 Q2111.77 1524.47 2111.77 1531.6 Q2111.77 1538.71 2113.58 1542.27 Q2115.41 1545.82 2119.02 1545.82 Q2122.65 1545.82 2124.46 1542.27 Q2126.29 1538.71 2126.29 1531.6 Q2126.29 1524.47 2124.46 1520.93 Q2122.65 1517.37 2119.02 1517.37 M2119.02 1513.66 Q2124.83 1513.66 2127.89 1518.27 Q2130.96 1522.85 2130.96 1531.6 Q2130.96 1540.33 2127.89 1544.94 Q2124.83 1549.52 2119.02 1549.52 Q2113.21 1549.52 2110.13 1544.94 Q2107.07 1540.33 2107.07 1531.6 Q2107.07 1522.85 2110.13 1518.27 Q2113.21 1513.66 2119.02 1513.66 Z" fill="#000000" fill-rule="nonzero" fill-opacity="1" /><path clip-path="url(#clip590)" d="M2149.18 1517.37 Q2145.57 1517.37 2143.74 1520.93 Q2141.94 1524.47 2141.94 1531.6 Q2141.94 1538.71 2143.74 1542.27 Q2145.57 1545.82 2149.18 1545.82 Q2152.82 1545.82 2154.62 1542.27 Q2156.45 1538.71 2156.45 1531.6 Q2156.45 1524.47 2154.62 1520.93 Q2152.82 1517.37 2149.18 1517.37 M2149.18 1513.66 Q2154.99 1513.66 2158.05 1518.27 Q2161.13 1522.85 2161.13 1531.6 Q2161.13 1540.33 2158.05 1544.94 Q2154.99 1549.52 2149.18 1549.52 Q2143.37 1549.52 2140.29 1544.94 Q2137.24 1540.33 2137.24 1531.6 Q2137.24 1522.85 2140.29 1518.27 Q2143.37 1513.66 2149.18 1513.66 Z" fill="#000000" fill-rule="nonzero" fill-opacity="1" /><polyline clip-path="url(#clip590)" style="stroke:#000000; stroke-linecap:round; stroke-linejoin:round; stroke-width:4; stroke-opacity:1; fill:none" points="169.121,1486.45 169.121,47.2441 "/>
<polyline clip-path="url(#clip590)" style="stroke:#000000; stroke-linecap:round; stroke-linejoin:round; stroke-width:4; stroke-opacity:1; fill:none" points="169.121,1270.48 188.019,1270.48 "/>
<polyline clip-path="url(#clip590)" style="stroke:#000000; stroke-linecap:round; stroke-linejoin:round; stroke-width:4; stroke-opacity:1; fill:none" points="169.121,1021.31 188.019,1021.31 "/>
<polyline clip-path="url(#clip590)" style="stroke:#000000; stroke-linecap:round; stroke-linejoin:round; stroke-width:4; stroke-opacity:1; fill:none" points="169.121,772.138 188.019,772.138 "/>
<polyline clip-path="url(#clip590)" style="stroke:#000000; stroke-linecap:round; stroke-linejoin:round; stroke-width:4; stroke-opacity:1; fill:none" points="169.121,522.966 188.019,522.966 "/>
<polyline clip-path="url(#clip590)" style="stroke:#000000; stroke-linecap:round; stroke-linejoin:round; stroke-width:4; stroke-opacity:1; fill:none" points="169.121,273.794 188.019,273.794 "/>
<path clip-path="url(#clip590)" d="M51.6634 1283.83 L59.3023 1283.83 L59.3023 1257.46 L50.9921 1259.13 L50.9921 1254.87 L59.256 1253.2 L63.9319 1253.2 L63.9319 1283.83 L71.5707 1283.83 L71.5707 1287.76 L51.6634 1287.76 L51.6634 1283.83 Z" fill="#000000" fill-rule="nonzero" fill-opacity="1" /><path clip-path="url(#clip590)" d="M91.0151 1256.28 Q87.404 1256.28 85.5753 1259.85 Q83.7697 1263.39 83.7697 1270.52 Q83.7697 1277.62 85.5753 1281.19 Q87.404 1284.73 91.0151 1284.73 Q94.6493 1284.73 96.4548 1281.19 Q98.2835 1277.62 98.2835 1270.52 Q98.2835 1263.39 96.4548 1259.85 Q94.6493 1256.28 91.0151 1256.28 M91.0151 1252.58 Q96.8252 1252.58 99.8808 1257.18 Q102.959 1261.77 102.959 1270.52 Q102.959 1279.24 99.8808 1283.85 Q96.8252 1288.43 91.0151 1288.43 Q85.2049 1288.43 82.1262 1283.85 Q79.0707 1279.24 79.0707 1270.52 Q79.0707 1261.77 82.1262 1257.18 Q85.2049 1252.58 91.0151 1252.58 Z" fill="#000000" fill-rule="nonzero" fill-opacity="1" /><path clip-path="url(#clip590)" d="M121.177 1256.28 Q117.566 1256.28 115.737 1259.85 Q113.932 1263.39 113.932 1270.52 Q113.932 1277.62 115.737 1281.19 Q117.566 1284.73 121.177 1284.73 Q124.811 1284.73 126.617 1281.19 Q128.445 1277.62 128.445 1270.52 Q128.445 1263.39 126.617 1259.85 Q124.811 1256.28 121.177 1256.28 M121.177 1252.58 Q126.987 1252.58 130.043 1257.18 Q133.121 1261.77 133.121 1270.52 Q133.121 1279.24 130.043 1283.85 Q126.987 1288.43 121.177 1288.43 Q115.367 1288.43 112.288 1283.85 Q109.233 1279.24 109.233 1270.52 Q109.233 1261.77 112.288 1257.18 Q115.367 1252.58 121.177 1252.58 Z" fill="#000000" fill-rule="nonzero" fill-opacity="1" /><path clip-path="url(#clip590)" d="M52.6588 1034.65 L60.2976 1034.65 L60.2976 1008.29 L51.9875 1009.96 L51.9875 1005.7 L60.2513 1004.03 L64.9272 1004.03 L64.9272 1034.65 L72.5661 1034.65 L72.5661 1038.59 L52.6588 1038.59 L52.6588 1034.65 Z" fill="#000000" fill-rule="nonzero" fill-opacity="1" /><path clip-path="url(#clip590)" d="M92.0104 1007.11 Q88.3993 1007.11 86.5706 1010.67 Q84.7651 1014.22 84.7651 1021.34 Q84.7651 1028.45 86.5706 1032.02 Q88.3993 1035.56 92.0104 1035.56 Q95.6447 1035.56 97.4502 1032.02 Q99.2789 1028.45 99.2789 1021.34 Q99.2789 1014.22 97.4502 1010.67 Q95.6447 1007.11 92.0104 1007.11 M92.0104 1003.4 Q97.8206 1003.4 100.876 1008.01 Q103.955 1012.59 103.955 1021.34 Q103.955 1030.07 100.876 1034.68 Q97.8206 1039.26 92.0104 1039.26 Q86.2003 1039.26 83.1216 1034.68 Q80.066 1030.07 80.066 1021.34 Q80.066 1012.59 83.1216 1008.01 Q86.2003 1003.4 92.0104 1003.4 Z" fill="#000000" fill-rule="nonzero" fill-opacity="1" /><path clip-path="url(#clip590)" d="M112.219 1004.03 L130.575 1004.03 L130.575 1007.97 L116.501 1007.97 L116.501 1016.44 Q117.52 1016.09 118.538 1015.93 Q119.557 1015.74 120.575 1015.74 Q126.362 1015.74 129.742 1018.91 Q133.121 1022.09 133.121 1027.5 Q133.121 1033.08 129.649 1036.18 Q126.177 1039.26 119.857 1039.26 Q117.682 1039.26 115.413 1038.89 Q113.168 1038.52 110.76 1037.78 L110.76 1033.08 Q112.844 1034.21 115.066 1034.77 Q117.288 1035.33 119.765 1035.33 Q123.77 1035.33 126.107 1033.22 Q128.445 1031.11 128.445 1027.5 Q128.445 1023.89 126.107 1021.78 Q123.77 1019.68 119.765 1019.68 Q117.89 1019.68 116.015 1020.09 Q114.163 1020.51 112.219 1021.39 L112.219 1004.03 Z" fill="#000000" fill-rule="nonzero" fill-opacity="1" /><path clip-path="url(#clip590)" d="M51.6634 785.483 L59.3023 785.483 L59.3023 759.117 L50.9921 760.784 L50.9921 756.525 L59.256 754.858 L63.9319 754.858 L63.9319 785.483 L71.5707 785.483 L71.5707 789.418 L51.6634 789.418 L51.6634 785.483 Z" fill="#000000" fill-rule="nonzero" fill-opacity="1" /><path clip-path="url(#clip590)" d="M81.8253 785.483 L89.4641 785.483 L89.4641 759.117 L81.154 760.784 L81.154 756.525 L89.4178 754.858 L94.0937 754.858 L94.0937 785.483 L101.733 785.483 L101.733 789.418 L81.8253 789.418 L81.8253 785.483 Z" fill="#000000" fill-rule="nonzero" fill-opacity="1" /><path clip-path="url(#clip590)" d="M121.177 757.937 Q117.566 757.937 115.737 761.502 Q113.932 765.043 113.932 772.173 Q113.932 779.279 115.737 782.844 Q117.566 786.386 121.177 786.386 Q124.811 786.386 126.617 782.844 Q128.445 779.279 128.445 772.173 Q128.445 765.043 126.617 761.502 Q124.811 757.937 121.177 757.937 M121.177 754.233 Q126.987 754.233 130.043 758.84 Q133.121 763.423 133.121 772.173 Q133.121 780.9 130.043 785.506 Q126.987 790.089 121.177 790.089 Q115.367 790.089 112.288 785.506 Q109.233 780.9 109.233 772.173 Q109.233 763.423 112.288 758.84 Q115.367 754.233 121.177 754.233 Z" fill="#000000" fill-rule="nonzero" fill-opacity="1" /><path clip-path="url(#clip590)" d="M52.6588 536.311 L60.2976 536.311 L60.2976 509.945 L51.9875 511.612 L51.9875 507.353 L60.2513 505.686 L64.9272 505.686 L64.9272 536.311 L72.5661 536.311 L72.5661 540.246 L52.6588 540.246 L52.6588 536.311 Z" fill="#000000" fill-rule="nonzero" fill-opacity="1" /><path clip-path="url(#clip590)" d="M82.8207 536.311 L90.4595 536.311 L90.4595 509.945 L82.1494 511.612 L82.1494 507.353 L90.4132 505.686 L95.0891 505.686 L95.0891 536.311 L102.728 536.311 L102.728 540.246 L82.8207 540.246 L82.8207 536.311 Z" fill="#000000" fill-rule="nonzero" fill-opacity="1" /><path clip-path="url(#clip590)" d="M112.219 505.686 L130.575 505.686 L130.575 509.621 L116.501 509.621 L116.501 518.093 Q117.52 517.746 118.538 517.584 Q119.557 517.399 120.575 517.399 Q126.362 517.399 129.742 520.57 Q133.121 523.742 133.121 529.158 Q133.121 534.737 129.649 537.839 Q126.177 540.917 119.857 540.917 Q117.682 540.917 115.413 540.547 Q113.168 540.177 110.76 539.436 L110.76 534.737 Q112.844 535.871 115.066 536.427 Q117.288 536.982 119.765 536.982 Q123.77 536.982 126.107 534.876 Q128.445 532.769 128.445 529.158 Q128.445 525.547 126.107 523.441 Q123.77 521.334 119.765 521.334 Q117.89 521.334 116.015 521.751 Q114.163 522.168 112.219 523.047 L112.219 505.686 Z" fill="#000000" fill-rule="nonzero" fill-opacity="1" /><path clip-path="url(#clip590)" d="M51.6634 287.139 L59.3023 287.139 L59.3023 260.773 L50.9921 262.44 L50.9921 258.181 L59.256 256.514 L63.9319 256.514 L63.9319 287.139 L71.5707 287.139 L71.5707 291.074 L51.6634 291.074 L51.6634 287.139 Z" fill="#000000" fill-rule="nonzero" fill-opacity="1" /><path clip-path="url(#clip590)" d="M85.0429 287.139 L101.362 287.139 L101.362 291.074 L79.4179 291.074 L79.4179 287.139 Q82.0799 284.384 86.6632 279.755 Q91.2697 275.102 92.4502 273.76 Q94.6956 271.236 95.5752 269.5 Q96.478 267.741 96.478 266.051 Q96.478 263.297 94.5336 261.561 Q92.6123 259.824 89.5104 259.824 Q87.3114 259.824 84.8577 260.588 Q82.4271 261.352 79.6494 262.903 L79.6494 258.181 Q82.4734 257.047 84.9271 256.468 Q87.3808 255.889 89.4178 255.889 Q94.7882 255.889 97.9826 258.574 Q101.177 261.26 101.177 265.75 Q101.177 267.88 100.367 269.801 Q99.5798 271.699 97.4734 274.292 Q96.8947 274.963 93.7928 278.181 Q90.691 281.375 85.0429 287.139 Z" fill="#000000" fill-rule="nonzero" fill-opacity="1" /><path clip-path="url(#clip590)" d="M121.177 259.593 Q117.566 259.593 115.737 263.158 Q113.932 266.699 113.932 273.829 Q113.932 280.935 115.737 284.5 Q117.566 288.042 121.177 288.042 Q124.811 288.042 126.617 284.5 Q128.445 280.935 128.445 273.829 Q128.445 266.699 126.617 263.158 Q124.811 259.593 121.177 259.593 M121.177 255.889 Q126.987 255.889 130.043 260.496 Q133.121 265.079 133.121 273.829 Q133.121 282.556 130.043 287.162 Q126.987 291.746 121.177 291.746 Q115.367 291.746 112.288 287.162 Q109.233 282.556 109.233 273.829 Q109.233 265.079 112.288 260.496 Q115.367 255.889 121.177 255.889 Z" fill="#000000" fill-rule="nonzero" fill-opacity="1" /><path clip-path="url(#clip591)" d="M402.592 1445.72 L316.757 1445.72 L488.426 1445.72 L402.592 1445.72 L402.592 1193.35 L402.592 1445.72  Z" fill="#ff0000" fill-rule="evenodd" fill-opacity="1"/>
<polyline clip-path="url(#clip591)" style="stroke:#000000; stroke-linecap:round; stroke-linejoin:round; stroke-width:4; stroke-opacity:1; fill:none" points="402.592,1445.72 316.757,1445.72 488.426,1445.72 402.592,1445.72 402.592,1193.35 402.592,1445.72 "/>
<path clip-path="url(#clip591)" d="M574.261 1193.35 L574.261 1051.53 L230.922 1051.53 L230.922 1193.35 L574.261 1193.35 L574.261 1051.53 L574.261 1193.35  Z" fill="#ff0000" fill-rule="evenodd" fill-opacity="1"/>
<polyline clip-path="url(#clip591)" style="stroke:#000000; stroke-linecap:round; stroke-linejoin:round; stroke-width:4; stroke-opacity:1; fill:none" points="574.261,1193.35 574.261,1051.53 230.922,1051.53 230.922,1193.35 574.261,1193.35 574.261,1051.53 574.261,1193.35 "/>
<path clip-path="url(#clip591)" d="M574.261 866.998 L230.922 866.998 L230.922 1051.53 L574.261 1051.53 L574.261 866.998 L402.592 866.998 L574.261 866.998  Z" fill="#ff0000" fill-rule="evenodd" fill-opacity="1"/>
<polyline clip-path="url(#clip591)" style="stroke:#000000; stroke-linecap:round; stroke-linejoin:round; stroke-width:4; stroke-opacity:1; fill:none" points="574.261,866.998 230.922,866.998 230.922,1051.53 574.261,1051.53 574.261,866.998 402.592,866.998 574.261,866.998 "/>
<path clip-path="url(#clip591)" d="M402.592 381.887 L316.757 381.887 L488.426 381.887 L402.592 381.887 L402.592 866.998 L402.592 381.887  Z" fill="#ff0000" fill-rule="evenodd" fill-opacity="1"/>
<polyline clip-path="url(#clip591)" style="stroke:#000000; stroke-linecap:round; stroke-linejoin:round; stroke-width:4; stroke-opacity:1; fill:none" points="402.592,381.887 316.757,381.887 488.426,381.887 402.592,381.887 402.592,866.998 402.592,381.887 "/>
<path clip-path="url(#clip591)" d="M831.765 1300.83 L745.93 1300.83 L917.6 1300.83 L831.765 1300.83 L831.765 1193.56 L831.765 1300.83  Z" fill="#ff0000" fill-rule="evenodd" fill-opacity="1"/>
<polyline clip-path="url(#clip591)" style="stroke:#000000; stroke-linecap:round; stroke-linejoin:round; stroke-width:4; stroke-opacity:1; fill:none" points="831.765,1300.83 745.93,1300.83 917.6,1300.83 831.765,1300.83 831.765,1193.56 831.765,1300.83 "/>
<path clip-path="url(#clip591)" d="M1003.43 1193.56 L1003.43 1128.73 L660.096 1128.73 L660.096 1193.56 L1003.43 1193.56 L1003.43 1128.73 L1003.43 1193.56  Z" fill="#ff0000" fill-rule="evenodd" fill-opacity="1"/>
<polyline clip-path="url(#clip591)" style="stroke:#000000; stroke-linecap:round; stroke-linejoin:round; stroke-width:4; stroke-opacity:1; fill:none" points="1003.43,1193.56 1003.43,1128.73 660.096,1128.73 660.096,1193.56 1003.43,1193.56 1003.43,1128.73 1003.43,1193.56 "/>
<path clip-path="url(#clip591)" d="M1003.43 1054.59 L660.096 1054.59 L660.096 1128.73 L1003.43 1128.73 L1003.43 1054.59 L831.765 1054.59 L1003.43 1054.59  Z" fill="#ff0000" fill-rule="evenodd" fill-opacity="1"/>
<polyline clip-path="url(#clip591)" style="stroke:#000000; stroke-linecap:round; stroke-linejoin:round; stroke-width:4; stroke-opacity:1; fill:none" points="1003.43,1054.59 660.096,1054.59 660.096,1128.73 1003.43,1128.73 1003.43,1054.59 831.765,1054.59 1003.43,1054.59 "/>
<path clip-path="url(#clip591)" d="M831.765 854.388 L745.93 854.388 L917.6 854.388 L831.765 854.388 L831.765 1054.59 L831.765 854.388  Z" fill="#ff0000" fill-rule="evenodd" fill-opacity="1"/>
<polyline clip-path="url(#clip591)" style="stroke:#000000; stroke-linecap:round; stroke-linejoin:round; stroke-width:4; stroke-opacity:1; fill:none" points="831.765,854.388 745.93,854.388 917.6,854.388 831.765,854.388 831.765,1054.59 831.765,854.388 "/>
<path clip-path="url(#clip591)" d="M1260.94 1282.64 L1175.1 1282.64 L1346.77 1282.64 L1260.94 1282.64 L1260.94 1208.2 L1260.94 1282.64  Z" fill="#ff0000" fill-rule="evenodd" fill-opacity="1"/>
<polyline clip-path="url(#clip591)" style="stroke:#000000; stroke-linecap:round; stroke-linejoin:round; stroke-width:4; stroke-opacity:1; fill:none" points="1260.94,1282.64 1175.1,1282.64 1346.77,1282.64 1260.94,1282.64 1260.94,1208.2 1260.94,1282.64 "/>
<path clip-path="url(#clip591)" d="M1432.61 1208.2 L1432.61 1166.61 L1089.27 1166.61 L1089.27 1208.2 L1432.61 1208.2 L1432.61 1166.61 L1432.61 1208.2  Z" fill="#ff0000" fill-rule="evenodd" fill-opacity="1"/>
<polyline clip-path="url(#clip591)" style="stroke:#000000; stroke-linecap:round; stroke-linejoin:round; stroke-width:4; stroke-opacity:1; fill:none" points="1432.61,1208.2 1432.61,1166.61 1089.27,1166.61 1089.27,1208.2 1432.61,1208.2 1432.61,1166.61 1432.61,1208.2 "/>
<path clip-path="url(#clip591)" d="M1432.61 1109.5 L1089.27 1109.5 L1089.27 1166.61 L1432.61 1166.61 L1432.61 1109.5 L1260.94 1109.5 L1432.61 1109.5  Z" fill="#ff0000" fill-rule="evenodd" fill-opacity="1"/>
<polyline clip-path="url(#clip591)" style="stroke:#000000; stroke-linecap:round; stroke-linejoin:round; stroke-width:4; stroke-opacity:1; fill:none" points="1432.61,1109.5 1089.27,1109.5 1089.27,1166.61 1432.61,1166.61 1432.61,1109.5 1260.94,1109.5 1432.61,1109.5 "/>
<path clip-path="url(#clip591)" d="M1260.94 971.716 L1175.1 971.716 L1346.77 971.716 L1260.94 971.716 L1260.94 1109.5 L1260.94 971.716  Z" fill="#ff0000" fill-rule="evenodd" fill-opacity="1"/>
<polyline clip-path="url(#clip591)" style="stroke:#000000; stroke-linecap:round; stroke-linejoin:round; stroke-width:4; stroke-opacity:1; fill:none" points="1260.94,971.716 1175.1,971.716 1346.77,971.716 1260.94,971.716 1260.94,1109.5 1260.94,971.716 "/>
<path clip-path="url(#clip591)" d="M1690.11 1276.57 L1604.28 1276.57 L1775.95 1276.57 L1690.11 1276.57 L1690.11 1221.23 L1690.11 1276.57  Z" fill="#ff0000" fill-rule="evenodd" fill-opacity="1"/>
<polyline clip-path="url(#clip591)" style="stroke:#000000; stroke-linecap:round; stroke-linejoin:round; stroke-width:4; stroke-opacity:1; fill:none" points="1690.11,1276.57 1604.28,1276.57 1775.95,1276.57 1690.11,1276.57 1690.11,1221.23 1690.11,1276.57 "/>
<path clip-path="url(#clip591)" d="M1861.78 1221.23 L1861.78 1190.92 L1518.44 1190.92 L1518.44 1221.23 L1861.78 1221.23 L1861.78 1190.92 L1861.78 1221.23  Z" fill="#ff0000" fill-rule="evenodd" fill-opacity="1"/>
<polyline clip-path="url(#clip591)" style="stroke:#000000; stroke-linecap:round; stroke-linejoin:round; stroke-width:4; stroke-opacity:1; fill:none" points="1861.78,1221.23 1861.78,1190.92 1518.44,1190.92 1518.44,1221.23 1861.78,1221.23 1861.78,1190.92 1861.78,1221.23 "/>
<path clip-path="url(#clip591)" d="M1861.78 1157.52 L1518.44 1157.52 L1518.44 1190.92 L1861.78 1190.92 L1861.78 1157.52 L1690.11 1157.52 L1861.78 1157.52  Z" fill="#ff0000" fill-rule="evenodd" fill-opacity="1"/>
<polyline clip-path="url(#clip591)" style="stroke:#000000; stroke-linecap:round; stroke-linejoin:round; stroke-width:4; stroke-opacity:1; fill:none" points="1861.78,1157.52 1518.44,1157.52 1518.44,1190.92 1861.78,1190.92 1861.78,1157.52 1690.11,1157.52 1861.78,1157.52 "/>
<path clip-path="url(#clip591)" d="M1690.11 1062.7 L1604.28 1062.7 L1775.95 1062.7 L1690.11 1062.7 L1690.11 1157.52 L1690.11 1062.7  Z" fill="#ff0000" fill-rule="evenodd" fill-opacity="1"/>
<polyline clip-path="url(#clip591)" style="stroke:#000000; stroke-linecap:round; stroke-linejoin:round; stroke-width:4; stroke-opacity:1; fill:none" points="1690.11,1062.7 1604.28,1062.7 1775.95,1062.7 1690.11,1062.7 1690.11,1157.52 1690.11,1062.7 "/>
<path clip-path="url(#clip591)" d="M2119.29 1273.23 L2033.45 1273.23 L2205.12 1273.23 L2119.29 1273.23 L2119.29 1239.72 L2119.29 1273.23  Z" fill="#ff0000" fill-rule="evenodd" fill-opacity="1"/>
<polyline clip-path="url(#clip591)" style="stroke:#000000; stroke-linecap:round; stroke-linejoin:round; stroke-width:4; stroke-opacity:1; fill:none" points="2119.29,1273.23 2033.45,1273.23 2205.12,1273.23 2119.29,1273.23 2119.29,1239.72 2119.29,1273.23 "/>
<path clip-path="url(#clip591)" d="M2290.95 1239.72 L2290.95 1219.06 L1947.62 1219.06 L1947.62 1239.72 L2290.95 1239.72 L2290.95 1219.06 L2290.95 1239.72  Z" fill="#ff0000" fill-rule="evenodd" fill-opacity="1"/>
<polyline clip-path="url(#clip591)" style="stroke:#000000; stroke-linecap:round; stroke-linejoin:round; stroke-width:4; stroke-opacity:1; fill:none" points="2290.95,1239.72 2290.95,1219.06 1947.62,1219.06 1947.62,1239.72 2290.95,1239.72 2290.95,1219.06 2290.95,1239.72 "/>
<path clip-path="url(#clip591)" d="M2290.95 1195.91 L1947.62 1195.91 L1947.62 1219.06 L2290.95 1219.06 L2290.95 1195.91 L2119.29 1195.91 L2290.95 1195.91  Z" fill="#ff0000" fill-rule="evenodd" fill-opacity="1"/>
<polyline clip-path="url(#clip591)" style="stroke:#000000; stroke-linecap:round; stroke-linejoin:round; stroke-width:4; stroke-opacity:1; fill:none" points="2290.95,1195.91 1947.62,1195.91 1947.62,1219.06 2290.95,1219.06 2290.95,1195.91 2119.29,1195.91 2290.95,1195.91 "/>
<path clip-path="url(#clip591)" d="M2119.29 1130.25 L2033.45 1130.25 L2205.12 1130.25 L2119.29 1130.25 L2119.29 1195.91 L2119.29 1130.25  Z" fill="#ff0000" fill-rule="evenodd" fill-opacity="1"/>
<polyline clip-path="url(#clip591)" style="stroke:#000000; stroke-linecap:round; stroke-linejoin:round; stroke-width:4; stroke-opacity:1; fill:none" points="2119.29,1130.25 2033.45,1130.25 2205.12,1130.25 2119.29,1130.25 2119.29,1195.91 2119.29,1130.25 "/>
<circle clip-path="url(#clip591)" cx="402.592" cy="147.309" r="14.4" fill="#ff0000" fill-rule="evenodd" fill-opacity="1" stroke="#000000" stroke-opacity="1" stroke-width="3.2"/>
<circle clip-path="url(#clip591)" cx="402.592" cy="239.583" r="14.4" fill="#ff0000" fill-rule="evenodd" fill-opacity="1" stroke="#000000" stroke-opacity="1" stroke-width="3.2"/>
<circle clip-path="url(#clip591)" cx="402.592" cy="333.931" r="14.4" fill="#ff0000" fill-rule="evenodd" fill-opacity="1" stroke="#000000" stroke-opacity="1" stroke-width="3.2"/>
<circle clip-path="url(#clip591)" cx="402.592" cy="176.41" r="14.4" fill="#ff0000" fill-rule="evenodd" fill-opacity="1" stroke="#000000" stroke-opacity="1" stroke-width="3.2"/>
<circle clip-path="url(#clip591)" cx="402.592" cy="373.83" r="14.4" fill="#ff0000" fill-rule="evenodd" fill-opacity="1" stroke="#000000" stroke-opacity="1" stroke-width="3.2"/>
<circle clip-path="url(#clip591)" cx="402.592" cy="318.213" r="14.4" fill="#ff0000" fill-rule="evenodd" fill-opacity="1" stroke="#000000" stroke-opacity="1" stroke-width="3.2"/>
<circle clip-path="url(#clip591)" cx="402.592" cy="318.157" r="14.4" fill="#ff0000" fill-rule="evenodd" fill-opacity="1" stroke="#000000" stroke-opacity="1" stroke-width="3.2"/>
<circle clip-path="url(#clip591)" cx="402.592" cy="375.83" r="14.4" fill="#ff0000" fill-rule="evenodd" fill-opacity="1" stroke="#000000" stroke-opacity="1" stroke-width="3.2"/>
<circle clip-path="url(#clip591)" cx="402.592" cy="168.115" r="14.4" fill="#ff0000" fill-rule="evenodd" fill-opacity="1" stroke="#000000" stroke-opacity="1" stroke-width="3.2"/>
<circle clip-path="url(#clip591)" cx="402.592" cy="355.102" r="14.4" fill="#ff0000" fill-rule="evenodd" fill-opacity="1" stroke="#000000" stroke-opacity="1" stroke-width="3.2"/>
<circle clip-path="url(#clip591)" cx="402.592" cy="214.27" r="14.4" fill="#ff0000" fill-rule="evenodd" fill-opacity="1" stroke="#000000" stroke-opacity="1" stroke-width="3.2"/>
<circle clip-path="url(#clip591)" cx="402.592" cy="87.9763" r="14.4" fill="#ff0000" fill-rule="evenodd" fill-opacity="1" stroke="#000000" stroke-opacity="1" stroke-width="3.2"/>
<circle clip-path="url(#clip591)" cx="402.592" cy="322.423" r="14.4" fill="#ff0000" fill-rule="evenodd" fill-opacity="1" stroke="#000000" stroke-opacity="1" stroke-width="3.2"/>
<circle clip-path="url(#clip591)" cx="402.592" cy="306.69" r="14.4" fill="#ff0000" fill-rule="evenodd" fill-opacity="1" stroke="#000000" stroke-opacity="1" stroke-width="3.2"/>
<circle clip-path="url(#clip591)" cx="402.592" cy="329.417" r="14.4" fill="#ff0000" fill-rule="evenodd" fill-opacity="1" stroke="#000000" stroke-opacity="1" stroke-width="3.2"/>
<circle clip-path="url(#clip591)" cx="402.592" cy="342.642" r="14.4" fill="#ff0000" fill-rule="evenodd" fill-opacity="1" stroke="#000000" stroke-opacity="1" stroke-width="3.2"/>
<circle clip-path="url(#clip591)" cx="402.592" cy="178.251" r="14.4" fill="#ff0000" fill-rule="evenodd" fill-opacity="1" stroke="#000000" stroke-opacity="1" stroke-width="3.2"/>
<circle clip-path="url(#clip591)" cx="831.765" cy="702.954" r="14.4" fill="#ff0000" fill-rule="evenodd" fill-opacity="1" stroke="#000000" stroke-opacity="1" stroke-width="3.2"/>
<circle clip-path="url(#clip591)" cx="831.765" cy="794.964" r="14.4" fill="#ff0000" fill-rule="evenodd" fill-opacity="1" stroke="#000000" stroke-opacity="1" stroke-width="3.2"/>
<circle clip-path="url(#clip591)" cx="831.765" cy="845.451" r="14.4" fill="#ff0000" fill-rule="evenodd" fill-opacity="1" stroke="#000000" stroke-opacity="1" stroke-width="3.2"/>
<circle clip-path="url(#clip591)" cx="831.765" cy="711.915" r="14.4" fill="#ff0000" fill-rule="evenodd" fill-opacity="1" stroke="#000000" stroke-opacity="1" stroke-width="3.2"/>
<circle clip-path="url(#clip591)" cx="831.765" cy="779.495" r="14.4" fill="#ff0000" fill-rule="evenodd" fill-opacity="1" stroke="#000000" stroke-opacity="1" stroke-width="3.2"/>
<circle clip-path="url(#clip591)" cx="831.765" cy="824.014" r="14.4" fill="#ff0000" fill-rule="evenodd" fill-opacity="1" stroke="#000000" stroke-opacity="1" stroke-width="3.2"/>
<circle clip-path="url(#clip591)" cx="831.765" cy="791.181" r="14.4" fill="#ff0000" fill-rule="evenodd" fill-opacity="1" stroke="#000000" stroke-opacity="1" stroke-width="3.2"/>
<circle clip-path="url(#clip591)" cx="831.765" cy="795.014" r="14.4" fill="#ff0000" fill-rule="evenodd" fill-opacity="1" stroke="#000000" stroke-opacity="1" stroke-width="3.2"/>
<circle clip-path="url(#clip591)" cx="831.765" cy="833.595" r="14.4" fill="#ff0000" fill-rule="evenodd" fill-opacity="1" stroke="#000000" stroke-opacity="1" stroke-width="3.2"/>
<circle clip-path="url(#clip591)" cx="831.765" cy="845.543" r="14.4" fill="#ff0000" fill-rule="evenodd" fill-opacity="1" stroke="#000000" stroke-opacity="1" stroke-width="3.2"/>
<circle clip-path="url(#clip591)" cx="831.765" cy="836.031" r="14.4" fill="#ff0000" fill-rule="evenodd" fill-opacity="1" stroke="#000000" stroke-opacity="1" stroke-width="3.2"/>
<circle clip-path="url(#clip591)" cx="831.765" cy="836.92" r="14.4" fill="#ff0000" fill-rule="evenodd" fill-opacity="1" stroke="#000000" stroke-opacity="1" stroke-width="3.2"/>
<circle clip-path="url(#clip591)" cx="1260.94" cy="926.94" r="14.4" fill="#ff0000" fill-rule="evenodd" fill-opacity="1" stroke="#000000" stroke-opacity="1" stroke-width="3.2"/>
<circle clip-path="url(#clip591)" cx="1260.94" cy="931.932" r="14.4" fill="#ff0000" fill-rule="evenodd" fill-opacity="1" stroke="#000000" stroke-opacity="1" stroke-width="3.2"/>
<circle clip-path="url(#clip591)" cx="1260.94" cy="958.194" r="14.4" fill="#ff0000" fill-rule="evenodd" fill-opacity="1" stroke="#000000" stroke-opacity="1" stroke-width="3.2"/>
<circle clip-path="url(#clip591)" cx="1260.94" cy="933.131" r="14.4" fill="#ff0000" fill-rule="evenodd" fill-opacity="1" stroke="#000000" stroke-opacity="1" stroke-width="3.2"/>
<circle clip-path="url(#clip591)" cx="1260.94" cy="931.367" r="14.4" fill="#ff0000" fill-rule="evenodd" fill-opacity="1" stroke="#000000" stroke-opacity="1" stroke-width="3.2"/>
<circle clip-path="url(#clip591)" cx="1260.94" cy="913.026" r="14.4" fill="#ff0000" fill-rule="evenodd" fill-opacity="1" stroke="#000000" stroke-opacity="1" stroke-width="3.2"/>
<circle clip-path="url(#clip591)" cx="1260.94" cy="919.144" r="14.4" fill="#ff0000" fill-rule="evenodd" fill-opacity="1" stroke="#000000" stroke-opacity="1" stroke-width="3.2"/>
<circle clip-path="url(#clip591)" cx="1690.11" cy="1022.03" r="14.4" fill="#ff0000" fill-rule="evenodd" fill-opacity="1" stroke="#000000" stroke-opacity="1" stroke-width="3.2"/>
<circle clip-path="url(#clip591)" cx="1690.11" cy="1060.84" r="14.4" fill="#ff0000" fill-rule="evenodd" fill-opacity="1" stroke="#000000" stroke-opacity="1" stroke-width="3.2"/>
<circle clip-path="url(#clip591)" cx="1690.11" cy="1036.55" r="14.4" fill="#ff0000" fill-rule="evenodd" fill-opacity="1" stroke="#000000" stroke-opacity="1" stroke-width="3.2"/>
<circle clip-path="url(#clip591)" cx="1690.11" cy="1052.85" r="14.4" fill="#ff0000" fill-rule="evenodd" fill-opacity="1" stroke="#000000" stroke-opacity="1" stroke-width="3.2"/>
<circle clip-path="url(#clip591)" cx="1690.11" cy="1052.08" r="14.4" fill="#ff0000" fill-rule="evenodd" fill-opacity="1" stroke="#000000" stroke-opacity="1" stroke-width="3.2"/>
<circle clip-path="url(#clip591)" cx="1690.11" cy="1057.43" r="14.4" fill="#ff0000" fill-rule="evenodd" fill-opacity="1" stroke="#000000" stroke-opacity="1" stroke-width="3.2"/>
<circle clip-path="url(#clip591)" cx="1690.11" cy="1039" r="14.4" fill="#ff0000" fill-rule="evenodd" fill-opacity="1" stroke="#000000" stroke-opacity="1" stroke-width="3.2"/>
<circle clip-path="url(#clip591)" cx="1690.11" cy="1022.61" r="14.4" fill="#ff0000" fill-rule="evenodd" fill-opacity="1" stroke="#000000" stroke-opacity="1" stroke-width="3.2"/>
<circle clip-path="url(#clip591)" cx="1690.11" cy="1051.36" r="14.4" fill="#ff0000" fill-rule="evenodd" fill-opacity="1" stroke="#000000" stroke-opacity="1" stroke-width="3.2"/>
<circle clip-path="url(#clip591)" cx="1690.11" cy="1039.78" r="14.4" fill="#ff0000" fill-rule="evenodd" fill-opacity="1" stroke="#000000" stroke-opacity="1" stroke-width="3.2"/>
<circle clip-path="url(#clip591)" cx="1690.11" cy="1057.43" r="14.4" fill="#ff0000" fill-rule="evenodd" fill-opacity="1" stroke="#000000" stroke-opacity="1" stroke-width="3.2"/>
<circle clip-path="url(#clip591)" cx="1690.11" cy="1004.6" r="14.4" fill="#ff0000" fill-rule="evenodd" fill-opacity="1" stroke="#000000" stroke-opacity="1" stroke-width="3.2"/>
<circle clip-path="url(#clip591)" cx="1690.11" cy="1045.01" r="14.4" fill="#ff0000" fill-rule="evenodd" fill-opacity="1" stroke="#000000" stroke-opacity="1" stroke-width="3.2"/>
<circle clip-path="url(#clip591)" cx="1690.11" cy="1053.65" r="14.4" fill="#ff0000" fill-rule="evenodd" fill-opacity="1" stroke="#000000" stroke-opacity="1" stroke-width="3.2"/>
<circle clip-path="url(#clip591)" cx="1690.11" cy="1057" r="14.4" fill="#ff0000" fill-rule="evenodd" fill-opacity="1" stroke="#000000" stroke-opacity="1" stroke-width="3.2"/>
<circle clip-path="url(#clip591)" cx="2119.29" cy="1128.57" r="14.4" fill="#ff0000" fill-rule="evenodd" fill-opacity="1" stroke="#000000" stroke-opacity="1" stroke-width="3.2"/>
<circle clip-path="url(#clip591)" cx="2119.29" cy="1126.23" r="14.4" fill="#ff0000" fill-rule="evenodd" fill-opacity="1" stroke="#000000" stroke-opacity="1" stroke-width="3.2"/>
<circle clip-path="url(#clip591)" cx="2119.29" cy="1129.6" r="14.4" fill="#ff0000" fill-rule="evenodd" fill-opacity="1" stroke="#000000" stroke-opacity="1" stroke-width="3.2"/>
<polyline clip-path="url(#clip591)" style="stroke:#ff0000; stroke-linecap:round; stroke-linejoin:round; stroke-width:0; stroke-opacity:1; fill:none" points="402.592,1445.72 316.757,1445.72 488.426,1445.72 402.592,1445.72 402.592,1193.35 "/>
<polyline clip-path="url(#clip591)" style="stroke:#ff0000; stroke-linecap:round; stroke-linejoin:round; stroke-width:0; stroke-opacity:1; fill:none" points="574.261,1193.35 574.261,1051.53 230.922,1051.53 230.922,1193.35 574.261,1193.35 574.261,1051.53 "/>
<polyline clip-path="url(#clip591)" style="stroke:#ff0000; stroke-linecap:round; stroke-linejoin:round; stroke-width:0; stroke-opacity:1; fill:none" points="574.261,866.998 230.922,866.998 230.922,1051.53 574.261,1051.53 574.261,866.998 402.592,866.998 "/>
<polyline clip-path="url(#clip591)" style="stroke:#ff0000; stroke-linecap:round; stroke-linejoin:round; stroke-width:0; stroke-opacity:1; fill:none" points="402.592,381.887 316.757,381.887 488.426,381.887 402.592,381.887 402.592,866.998 "/>
<polyline clip-path="url(#clip591)" style="stroke:#ff0000; stroke-linecap:round; stroke-linejoin:round; stroke-width:0; stroke-opacity:1; fill:none" points="831.765,1300.83 745.93,1300.83 917.6,1300.83 831.765,1300.83 831.765,1193.56 "/>
<polyline clip-path="url(#clip591)" style="stroke:#ff0000; stroke-linecap:round; stroke-linejoin:round; stroke-width:0; stroke-opacity:1; fill:none" points="1003.43,1193.56 1003.43,1128.73 660.096,1128.73 660.096,1193.56 1003.43,1193.56 1003.43,1128.73 "/>
<polyline clip-path="url(#clip591)" style="stroke:#ff0000; stroke-linecap:round; stroke-linejoin:round; stroke-width:0; stroke-opacity:1; fill:none" points="1003.43,1054.59 660.096,1054.59 660.096,1128.73 1003.43,1128.73 1003.43,1054.59 831.765,1054.59 "/>
<polyline clip-path="url(#clip591)" style="stroke:#ff0000; stroke-linecap:round; stroke-linejoin:round; stroke-width:0; stroke-opacity:1; fill:none" points="831.765,854.388 745.93,854.388 917.6,854.388 831.765,854.388 831.765,1054.59 "/>
<polyline clip-path="url(#clip591)" style="stroke:#ff0000; stroke-linecap:round; stroke-linejoin:round; stroke-width:0; stroke-opacity:1; fill:none" points="1260.94,1282.64 1175.1,1282.64 1346.77,1282.64 1260.94,1282.64 1260.94,1208.2 "/>
<polyline clip-path="url(#clip591)" style="stroke:#ff0000; stroke-linecap:round; stroke-linejoin:round; stroke-width:0; stroke-opacity:1; fill:none" points="1432.61,1208.2 1432.61,1166.61 1089.27,1166.61 1089.27,1208.2 1432.61,1208.2 1432.61,1166.61 "/>
<polyline clip-path="url(#clip591)" style="stroke:#ff0000; stroke-linecap:round; stroke-linejoin:round; stroke-width:0; stroke-opacity:1; fill:none" points="1432.61,1109.5 1089.27,1109.5 1089.27,1166.61 1432.61,1166.61 1432.61,1109.5 1260.94,1109.5 "/>
<polyline clip-path="url(#clip591)" style="stroke:#ff0000; stroke-linecap:round; stroke-linejoin:round; stroke-width:0; stroke-opacity:1; fill:none" points="1260.94,971.716 1175.1,971.716 1346.77,971.716 1260.94,971.716 1260.94,1109.5 "/>
<polyline clip-path="url(#clip591)" style="stroke:#ff0000; stroke-linecap:round; stroke-linejoin:round; stroke-width:0; stroke-opacity:1; fill:none" points="1690.11,1276.57 1604.28,1276.57 1775.95,1276.57 1690.11,1276.57 1690.11,1221.23 "/>
<polyline clip-path="url(#clip591)" style="stroke:#ff0000; stroke-linecap:round; stroke-linejoin:round; stroke-width:0; stroke-opacity:1; fill:none" points="1861.78,1221.23 1861.78,1190.92 1518.44,1190.92 1518.44,1221.23 1861.78,1221.23 1861.78,1190.92 "/>
<polyline clip-path="url(#clip591)" style="stroke:#ff0000; stroke-linecap:round; stroke-linejoin:round; stroke-width:0; stroke-opacity:1; fill:none" points="1861.78,1157.52 1518.44,1157.52 1518.44,1190.92 1861.78,1190.92 1861.78,1157.52 1690.11,1157.52 "/>
<polyline clip-path="url(#clip591)" style="stroke:#ff0000; stroke-linecap:round; stroke-linejoin:round; stroke-width:0; stroke-opacity:1; fill:none" points="1690.11,1062.7 1604.28,1062.7 1775.95,1062.7 1690.11,1062.7 1690.11,1157.52 "/>
<polyline clip-path="url(#clip591)" style="stroke:#ff0000; stroke-linecap:round; stroke-linejoin:round; stroke-width:0; stroke-opacity:1; fill:none" points="2119.29,1273.23 2033.45,1273.23 2205.12,1273.23 2119.29,1273.23 2119.29,1239.72 "/>
<polyline clip-path="url(#clip591)" style="stroke:#ff0000; stroke-linecap:round; stroke-linejoin:round; stroke-width:0; stroke-opacity:1; fill:none" points="2290.95,1239.72 2290.95,1219.06 1947.62,1219.06 1947.62,1239.72 2290.95,1239.72 2290.95,1219.06 "/>
<polyline clip-path="url(#clip591)" style="stroke:#ff0000; stroke-linecap:round; stroke-linejoin:round; stroke-width:0; stroke-opacity:1; fill:none" points="2290.95,1195.91 1947.62,1195.91 1947.62,1219.06 2290.95,1219.06 2290.95,1195.91 2119.29,1195.91 "/>
<polyline clip-path="url(#clip591)" style="stroke:#ff0000; stroke-linecap:round; stroke-linejoin:round; stroke-width:0; stroke-opacity:1; fill:none" points="2119.29,1130.25 2033.45,1130.25 2205.12,1130.25 2119.29,1130.25 2119.29,1195.91 "/>
<polyline clip-path="url(#clip591)" style="stroke:#000000; stroke-linecap:round; stroke-linejoin:round; stroke-width:4; stroke-opacity:1; fill:none" stroke-dasharray="16, 10" points="-2014.51,1270.48 4536.39,1270.48 "/>
</svg>
